<svg width="192" height="118" viewBox="0 0 192 118" fill="none" xmlns="http://www.w3.org/2000/svg">
<g clip-path="url(#clip0_7278_910)">
<path d="M187.989 35.8639C183.199 22.4169 166.246 17.2127 154.084 12.655C140.005 7.36996 124.173 1.29298 108.877 2.26271C102.349 2.68293 95.9836 4.20217 90.0404 6.70731C89.3909 6.59417 88.7251 6.51336 88.0269 6.54569C84.8929 6.69115 81.9051 7.11136 79.0147 7.83866C77.9267 7.83866 76.7738 8.06493 75.5722 8.5498C65.0986 12.7681 54.6087 17.0834 45.9213 24.4695C37.2502 31.8395 29.943 43.5086 26.3056 54.1918C21.8889 67.1053 26.1433 81.2311 38.809 87.5182C46.4085 91.2839 53.2123 90.3465 60.081 88.4879C62.9876 89.5869 66.2677 89.797 69.5154 89.2152C73.104 88.5687 76.579 87.3727 80.0052 86.0151C82.0837 86.6939 84.422 86.8555 86.9227 86.3383C105.58 82.4594 124.693 82.5564 143.643 83.8817C147.637 84.1564 151.81 85.0292 155.967 85.6272C168.113 91.3971 182.809 82.6857 187.063 70.1115C187.875 67.7033 188.233 65.2629 188.184 62.8709C190.636 54.0301 191.172 44.8015 187.989 35.8477V35.8639Z" fill="#5586FF"/>
<path d="M139.973 72.5681C134.257 70.1438 128.541 67.8326 122.371 66.9437C117.775 66.2972 113.716 66.7659 109.575 67.5417C107.188 67.0406 104.736 66.8467 102.252 66.8467C102.057 66.3618 101.764 65.9093 101.261 65.6992C92.3625 61.8849 81.7915 66.879 72.3734 65.8931C67.5181 65.3921 62.7604 63.986 58.3436 61.9172C56.1677 60.899 54.1054 59.5899 51.9945 58.4424C50.9552 57.6181 49.8186 57.0039 48.5682 56.5676C47.1393 56.2605 46.9282 56.0827 47.9187 56.018C47.6751 55.5655 47.1555 55.2746 46.6359 55.2423C46.6034 54.8059 46.5709 54.3695 46.5547 53.9331C46.3273 49.731 47.1717 41.4236 41.3585 40.2923C41.261 40.2761 41.1474 40.2599 41.0499 40.2276C38.0297 39.6458 34.9282 40.6155 33.3206 43.3631C32.6548 44.5106 32.0865 45.9329 31.6643 47.5167C30.1866 48.3895 28.8876 49.8764 28.1081 51.9129C25.5425 58.6202 28.579 67.8811 32.0702 73.7318C32.8172 74.9763 33.6616 76.1561 34.6034 77.2551C38.192 82.9765 44.8822 88.9404 51.0851 86.2575C54.966 87.7282 59.123 88.4394 63.4099 88.2616C66.7062 88.1161 70.3273 87.308 73.5587 85.7888C78.4951 86.1282 83.4803 85.5948 88.2218 84.0271C89.1799 83.72 90.1541 83.316 91.1447 82.8634C99.1663 82.8634 107.675 81.926 114.122 77.3036C116.281 77.8855 118.522 78.3218 120.99 78.4996C127.226 78.936 133.445 77.643 139.486 76.3016C141.077 75.946 141.613 73.2792 139.973 72.5843V72.5681Z" fill="#3F69BC"/>
<path d="M191.951 55.4847C191.675 52.8503 188.931 50.6361 186.333 52.2846C182.468 54.7251 180.016 59.202 177.532 62.9355C176.704 64.18 175.827 65.3921 174.934 66.5881C172.92 66.9275 170.939 67.6387 168.958 68.3498C168.844 68.366 168.714 68.3821 168.584 68.4144C167.009 68.7215 165.467 69.1094 163.973 69.7236C163.632 69.8529 163.34 70.0145 163.031 70.1761C162.024 70.1761 161.034 70.2893 160.043 70.4347C159.67 70.3054 159.296 70.1923 158.874 70.1438C156.893 69.9337 154.912 69.7236 152.931 69.5135C152.087 69.4003 151.226 69.3034 150.349 69.2387C146.484 68.9478 144.974 73.554 146.647 76.2693C146.273 79.0491 148.417 82.1846 151.681 82.3139C153.694 82.3947 155.643 82.3139 157.494 81.926C159.085 82.2169 160.579 81.9583 162.057 81.2957C162.82 82.2654 163.827 82.9927 165.012 83.1543C166.051 83.2998 167.058 83.3483 168.065 83.3483C170.16 86.0312 174.008 87.1626 176.915 83.8331C179.107 81.3442 181.104 78.6774 183.004 75.9298C184.969 74.7985 186.641 73.0691 187.567 71.2267C188.281 69.7882 188.606 68.3336 188.671 66.8629C190.62 63.3234 192.325 59.3313 191.935 55.517L191.951 55.4847Z" fill="#3F69BC"/>
<path d="M164.769 79.9867C160.108 79.5179 155.432 79.1139 150.755 78.7098C150.69 78.7098 150.69 78.8068 150.755 78.8068C155.432 79.2593 160.092 79.7119 164.769 80.0836C164.834 80.0836 164.834 79.9867 164.769 79.9867Z" fill="black"/>
<path d="M165.207 79.4856C157.185 78.6452 149.18 78.0957 141.126 77.8209C141.045 77.8209 141.045 77.9502 141.126 77.9502C149.164 78.4028 157.202 78.9523 165.207 79.6149C165.288 79.6149 165.288 79.5018 165.207 79.4856Z" fill="black"/>
<path d="M110.777 15.4995C108.747 14.3197 106.344 13.7864 103.811 13.6247C99.2314 12.9298 93.3694 14.0611 88.6766 15.1601C81.0609 16.3885 71.2043 18.2794 65.2774 22.9826C61.5101 25.9726 60.3735 31.2092 64.6928 34.3123C69.8403 38.0134 79.3072 36.2841 85.0392 35.282C88.0271 34.7648 100.043 31.0314 106.863 26.2474C109.819 24.9382 112.141 23.0958 112.79 20.3967C113.245 18.5219 112.498 16.4854 110.793 15.4995H110.777Z" fill="#83B3FF"/>
<path d="M190.181 52.22C190.214 45.642 189.321 39.0478 187.746 32.8092C186.041 26.1504 183.507 19.6371 179.854 13.8025C179.805 13.7217 179.675 13.8025 179.724 13.8833C184.027 22.6271 187.128 31.791 188.428 41.3752C188.525 43.1853 188.574 44.9955 188.606 46.8218C188.574 46.7087 188.525 46.5794 188.492 46.4663C188.411 44.1874 188.216 41.9085 187.892 39.6458C187.047 33.7143 185.423 27.2494 181.023 22.8857C179.399 21.2856 176.038 18.5542 173.797 20.5583C173.099 20.0734 172.417 19.5886 171.718 19.1199C170.923 18.4249 170.095 17.7461 169.218 17.1158C169.104 17.035 169.007 17.2127 169.104 17.2936C169.266 17.4228 169.429 17.5683 169.591 17.6976C166.62 15.8066 163.551 14.045 160.465 12.3803C154.279 9.03469 147.848 6.14166 141.256 3.73349C137.488 2.35971 133.672 1.11522 129.808 3.23281e-05C129.727 -0.032292 129.678 0.113168 129.775 0.12933C143.172 4.23452 155.935 10.1984 167.919 17.439C169.51 18.3926 171.069 19.4108 172.628 20.4129C172.806 20.5906 172.969 20.7846 173.147 20.9785C171.41 20.1381 169.575 19.4593 167.74 18.8613C165.451 18.1017 163.112 17.4713 160.741 17.035C158.419 16.5986 156.032 16.1945 153.662 16.34C153.58 16.34 153.564 16.4531 153.645 16.4693C155.805 16.9703 158.013 17.2127 160.173 17.6653C162.349 18.1178 164.509 18.6673 166.636 19.3461C168.731 20.0088 170.793 20.7846 172.806 21.6897C173.472 21.9806 174.057 22.3361 174.625 22.6917C175.843 24.211 176.947 25.8272 177.873 27.5404C177.126 26.6191 176.33 25.7302 175.469 24.8736C175.356 24.7605 175.177 24.9383 175.291 25.0514C175.94 25.7625 176.541 26.5222 177.126 27.2979C173.18 25.1484 168.844 23.6614 164.655 22.1584C159.166 20.1866 153.645 18.3118 148.124 16.4208C147.589 16.1784 147.036 15.9521 146.484 15.7258C143.139 14.352 139.697 13.2207 136.206 12.2671C129.207 10.3761 122.046 9.18014 114.852 8.32355C114.544 8.29123 114.252 8.2589 113.943 8.22658C115.469 8.1296 116.996 8.06495 118.522 8.04879C122.452 8.46901 126.382 9.05085 130.295 9.81047C135.524 10.8287 140.704 12.1378 145.802 13.7056C145.965 13.754 146.03 13.5116 145.867 13.447C144.601 12.9783 143.334 12.5257 142.051 12.1055C145.575 13.0914 149.082 14.1581 152.541 15.3864C152.655 15.4187 152.687 15.2571 152.59 15.2086C144.909 12.2186 136.969 9.9236 128.882 8.35587C136.222 8.93771 143.497 10.2468 150.609 12.2994C154.214 13.3338 157.786 14.5621 161.277 15.9359C161.44 16.0006 161.553 15.7258 161.391 15.6612C153.889 12.251 145.835 9.90744 137.651 8.63063C126.3 4.71939 114.024 3.78198 102.154 5.52749C104.379 5.15576 106.603 4.78403 108.828 4.37998C109.023 4.34766 108.99 3.99209 108.779 4.02441C104.07 4.50928 99.3775 5.07495 94.7009 5.76993C88.5304 6.12549 82.3923 7.11139 76.4329 8.7276C76.8714 8.53366 77.3098 8.32355 77.7482 8.1296C81.3206 6.56187 84.9417 5.1396 88.6278 3.86279C88.8064 3.79814 88.7415 3.50722 88.5466 3.57187C82.8795 5.30122 77.3423 7.48312 71.9999 10.0529C70.3599 10.5863 68.7361 11.1843 67.1285 11.8146C60.7306 13.7864 54.4789 16.2753 48.8605 19.7987C47.7726 20.4937 46.7009 21.221 45.6779 21.9967C45.7428 21.8998 45.7915 21.8028 45.8565 21.7058C45.9377 21.5604 45.7266 21.4472 45.6454 21.5765C45.3693 21.9321 45.1095 22.3038 44.8335 22.6756C42.2191 24.7928 39.8971 27.2333 38.0946 30.094C37.9972 30.2556 38.0622 30.4657 38.2246 30.5627C38.5493 30.7728 38.8903 30.9667 39.2151 31.1769C39.0527 31.4516 38.8741 31.7425 38.7117 32.0173C36.4221 34.1992 34.7821 36.8498 33.5804 39.7105C33.483 39.8559 33.3693 39.9852 33.2719 40.1307C32.6386 41.0843 32.054 42.0863 32.0865 43.25C31.4695 44.0904 30.8362 44.9147 30.2516 45.7875C30.2841 45.7066 30.3003 45.6258 30.3328 45.545C31.9079 40.7125 33.9052 36.0093 36.2597 31.5001C36.3247 31.387 36.1461 31.29 36.0811 31.4031C34.0026 35.0719 32.2164 38.8862 30.7225 42.8136C30.9661 41.9409 31.2097 41.0843 31.4532 40.2115C31.502 40.066 31.2746 40.0014 31.2259 40.1469C30.3815 42.7651 29.5371 45.4157 28.7902 48.0986C28.027 49.3755 27.345 50.6846 26.7604 52.0261C26.8091 51.9129 26.6143 51.8321 26.5656 51.9452C26.0297 53.1897 25.6887 54.4504 25.4938 55.7434C24.9742 57.796 24.7631 59.9455 24.9904 62.1759C24.9904 62.2729 25.1528 62.2729 25.1366 62.1759C25.0879 61.0445 25.1691 59.9294 25.3315 58.8142C25.3315 59.2505 25.3964 59.6708 25.4289 60.1071C25.299 60.6082 25.2503 61.2062 25.6075 61.4971C25.6562 61.8527 25.7049 62.2082 25.7861 62.5476C25.3964 65.5538 25.1528 68.5761 25.1366 71.5984C25.1366 72.0348 25.1366 72.4712 25.1366 72.9076C23.5777 71.0489 22.7171 68.9155 23.8213 66.5882C23.87 66.5074 23.7401 66.4266 23.6914 66.5074C22.2787 69.1256 23.4153 71.6308 25.1528 73.6834C25.1853 74.3298 25.2178 74.9925 25.2827 75.639C24.3247 74.2814 23.4965 72.8268 22.8957 71.259C22.847 71.1459 22.6522 71.1944 22.7009 71.3075C23.3342 73.2631 24.2597 75.041 25.3802 76.6572C25.7049 79.3886 26.3545 82.0877 27.5561 84.5767C29.3423 88.3101 32.395 91.5426 36.3734 92.9487C36.5195 92.9972 36.617 92.7547 36.4871 92.6901C30.5277 89.9425 27.6048 84.2049 26.5006 78.1118C27.5398 79.3886 28.6928 80.5523 29.9593 81.619C32.5087 86.1121 36.2922 89.7809 41.4072 91.6557C45.0933 92.9972 49.2503 93.2558 53.0013 92.0436C61.3152 93.8861 69.9377 94.274 78.414 93.7568C84.7631 93.3689 91.0635 92.4476 97.2827 91.1547C99.2638 90.9769 101.229 90.7829 103.21 90.5728C109.51 89.894 115.81 89.0859 122.078 88.1647C123.296 87.9869 124.53 87.7768 125.748 87.5828C134.695 89.991 143.561 93.0295 152.428 95.2114C155.156 95.874 157.9 96.4882 160.693 96.9246C161.553 97.07 164.655 97.8135 164.525 96.0195C164.525 95.7932 164.2 95.7932 164.168 96.0195C164.038 97.1347 157.997 95.4215 157.185 95.2599C154.879 94.7588 152.59 94.177 150.3 93.5628C145.721 92.3507 141.191 90.9769 136.644 89.6193C133.851 88.7788 131.026 87.9707 128.2 87.1949C128.639 87.1303 129.077 87.0656 129.515 86.9848C133.981 87.098 138.446 87.2111 142.912 87.3081C143.058 87.3081 143.058 87.098 142.912 87.0818C139.697 86.7424 136.465 86.5323 133.234 86.3868C134.452 86.1767 135.654 85.9504 136.871 85.7242C137.716 85.7242 138.56 85.7242 139.388 85.6919C139.502 85.6919 139.502 85.5141 139.388 85.5141C139.031 85.4979 138.69 85.4656 138.333 85.4494C140.022 85.1423 141.71 84.8676 143.399 84.5282C143.61 84.4797 143.561 84.1241 143.35 84.1564C143.123 84.1888 142.896 84.2211 142.668 84.2373C142.636 84.1726 142.571 84.108 142.474 84.108C142.181 84.108 141.905 84.108 141.613 84.108C142.149 84.0595 142.701 84.011 143.237 83.9463C146.127 84.9969 149.082 85.8858 152.054 86.6293C152.314 86.6939 152.59 86.7586 152.866 86.8232C152.379 86.7424 151.908 86.6454 151.421 86.5646C148.319 85.9989 145.202 85.4979 142.084 84.9484C142.003 84.9484 141.954 85.0615 142.051 85.0777C146.436 85.9989 150.82 86.9363 155.204 87.8253C155.123 87.9384 155.009 88.0192 154.944 88.1485C154.879 88.2616 154.928 88.3748 155.026 88.4556C156.861 89.7324 159.556 89.296 161.651 89.0697C162.219 89.0051 162.771 88.892 163.34 88.795C165.824 89.0859 168.325 89.2475 170.793 89.2152C174.203 89.1667 177.613 88.6334 180.747 87.2757C180.925 87.1949 180.796 86.9202 180.617 86.9687C176.2 88.0839 171.686 88.2778 167.188 87.9707C167.659 87.8414 168.13 87.7445 168.584 87.599C168.925 87.4859 169.266 87.3727 169.624 87.2434C172.579 87.6152 175.534 86.4353 178.003 84.6575C179.951 84.3989 181.526 82.9281 182.695 81.3119C182.744 81.3766 182.76 81.4412 182.809 81.5059C183.004 81.7645 183.329 81.7645 183.524 81.5059C185.635 78.7098 186.723 75.3481 187.421 71.954C187.583 71.1944 187.713 70.4186 187.843 69.659C188.298 68.1236 188.671 66.5558 188.98 64.9881C188.687 67.1862 188.379 69.3842 188.135 71.5984C188.119 71.7601 188.346 71.7601 188.395 71.6308C189.662 67.9781 190.116 63.9214 190.311 60.0748C190.457 57.4242 190.392 54.7898 190.214 52.1392L190.181 52.22ZM176.119 23.8392C176.557 24.2433 176.996 24.6635 177.434 25.1322C177.532 25.2453 177.71 25.1322 177.662 25.0029C177.191 23.3867 175.599 22.2877 174.17 21.5119C174.122 21.4634 174.073 21.3987 174.024 21.3503C175.307 22.1907 176.574 23.0311 177.856 23.8716C177.97 23.9524 178.116 23.7584 178.003 23.6776C176.687 22.6271 175.323 21.6412 173.943 20.6876C176.492 18.8936 180.179 22.9018 181.559 24.7282C183.312 27.0555 184.498 29.7384 185.326 32.5022C186.284 35.7023 186.869 39.0155 187.21 42.3288C187.258 42.749 187.275 43.1692 187.307 43.5732C186.593 42.2479 185.635 41.0681 184.303 40.26C183.621 37.7225 182.679 35.2497 181.461 32.9224C181.007 32.0496 180.503 31.2253 179.984 30.4172C179.854 30.1263 179.724 29.8516 179.578 29.5768C180.503 30.094 181.429 30.6112 182.322 31.193C182.452 31.2738 182.614 31.0799 182.484 30.9667C181.396 30.0132 180.227 29.1889 179.009 28.4293C178.165 26.8292 177.207 25.2938 176.119 23.8554V23.8392ZM127.096 6.56187C129.97 7.03058 132.812 7.64474 135.621 8.37204C131.773 7.85485 127.892 7.56393 124.011 7.5316C118.409 6.64268 112.741 6.10933 107.074 5.91539C106.668 5.88306 106.279 5.8669 105.873 5.83458C112.953 5.18809 120.065 5.41436 127.08 6.56187H127.096ZM115.892 7.7902C114.787 7.85485 113.667 7.98414 112.563 8.08112C109.851 7.7902 107.139 7.5316 104.411 7.28917C108.244 7.28917 112.059 7.45079 115.892 7.7902ZM68.3139 12.7358C74.1921 10.9418 80.2002 9.56804 86.2246 8.37204C88.0595 8.14577 89.8944 7.95182 91.7293 7.7902C89.1312 8.54982 86.5818 9.4549 84.1461 10.5863C84.1136 10.5863 84.1136 10.6347 84.1136 10.6671C73.0716 14.2712 62.5168 19.1684 52.644 25.2938C51.1339 26.2312 49.6725 27.201 48.211 28.2192C47.7888 28.5101 47.3017 28.8495 46.9769 29.2697C46.6359 29.496 46.2787 29.7223 45.9377 29.9485C45.142 30.498 44.3139 31.0476 43.4857 31.5971C43.4857 31.5324 43.437 31.4678 43.3883 31.5324C43.2746 31.6617 43.1447 31.791 43.031 31.9203C42.2516 32.4537 41.4722 33.0032 40.7252 33.5689C41.7807 32.3405 42.9661 31.2092 44.3301 30.2879C44.3788 30.2556 44.3626 30.2071 44.3301 30.191C44.3301 30.1586 44.3301 30.1263 44.2976 30.1102C43.843 29.9 44.2002 29.1404 44.3463 28.9465C44.4113 28.8495 44.4925 28.7687 44.5737 28.6879C44.8497 28.4131 45.1745 28.1869 45.4668 27.9444C46.1488 27.3949 46.8308 26.8454 47.529 26.2959C48.8768 25.213 50.257 24.1786 51.6535 23.1443C54.349 21.1725 57.0771 19.2815 59.9025 17.5198C62.6305 15.8066 65.4397 14.2389 68.2976 12.7358H68.3139ZM64.5953 13.9318C59.2692 16.9541 54.1542 20.3482 49.3477 24.1625C47.7076 25.4716 46.0513 26.7807 44.5412 28.2353C44.0865 28.6717 43.3558 29.8354 44.2164 30.2071C42.4789 31.2577 41.0013 32.583 39.7347 34.086C41.0825 32.2597 42.4952 30.4657 43.8917 28.6717C46.8957 25.6494 50.0946 22.821 53.4884 20.2351C53.6021 20.1543 53.4884 19.9765 53.3748 20.0573C51.1014 21.6089 48.9093 23.2736 46.7983 25.0514C47.7888 23.8392 48.7794 22.6109 49.7699 21.4149C53.4072 19.0714 57.207 17.0188 61.1204 15.1925C62.2733 14.7723 63.4099 14.352 64.5791 13.9641L64.5953 13.9318ZM44.0703 24.6473C47.0906 22.0452 50.5006 19.928 54.1217 18.1501C50.7929 20.1381 47.594 22.3523 44.5412 24.7605C44.46 24.8251 44.5737 24.9706 44.6549 24.9059C45.9864 23.92 47.3666 22.9665 48.7469 22.0614C46.6197 24.2594 44.5737 26.5222 42.6413 28.8657C42.0405 29.4637 41.4235 30.0455 40.8551 30.6597C40.6116 30.9183 40.368 31.193 40.1407 31.4678C40.1082 31.4354 40.0595 31.387 40.027 31.3546C40.1244 31.193 40.2381 31.0152 40.3355 30.8536C40.368 30.8213 40.4005 30.789 40.4329 30.7566C40.4654 30.7405 40.4329 30.7082 40.4329 30.6758C41.6346 28.6556 42.8524 26.6514 44.0703 24.6312V24.6473ZM38.8578 30.2233C39.8646 28.8333 41.0013 27.5727 42.2029 26.3929C41.2448 27.8313 40.3193 29.302 39.4262 30.8051C39.2313 30.6112 39.0365 30.4334 38.8578 30.2394V30.2233ZM38.0784 33.084C37.6075 33.8921 37.1366 34.7002 36.6982 35.5083C36.3409 35.9609 35.9512 36.4134 35.6102 36.8659C35.4641 37.0599 35.3342 37.2538 35.2043 37.4316C35.9999 35.8639 36.958 34.3931 38.0946 33.0678L38.0784 33.084ZM32.3951 45.3834C32.7361 44.6884 33.0608 43.9773 33.4181 43.2823C33.9539 43.0076 34.4411 42.652 34.847 42.1671C34.9769 42.0217 34.7658 41.8116 34.6359 41.957C34.3761 42.2479 34.0838 42.4742 33.7753 42.652C34.9607 40.8418 36.1623 39.0478 37.3964 37.2862C37.5425 37.0922 37.6887 36.8983 37.8186 36.7043C36.5845 38.6276 35.5453 40.6802 34.6034 42.749C34.0189 44.0419 33.4668 45.3511 32.9309 46.6602C32.6061 47.0966 32.2164 47.4845 31.8754 47.9047C32.0378 47.0643 32.2002 46.2238 32.4113 45.3834H32.3951ZM29.4559 51.5574C29.9431 51.024 30.414 50.4745 30.8687 49.925C30.7388 50.7654 30.6251 51.5897 30.5114 52.4139C30.4627 52.7372 30.4302 53.0604 30.3978 53.3998C29.5209 55.9535 28.709 58.5394 28.0107 61.1577C27.6697 62.4345 27.3775 63.7275 27.1014 65.0043C26.9877 64.681 26.8903 64.3578 26.7766 64.0184C26.8091 61.7718 27.004 59.5415 27.3287 57.3434C27.4099 56.8101 27.5074 56.2929 27.6048 55.7595C28.2056 54.3534 28.8227 52.9473 29.4559 51.5412V51.5574ZM29.326 70.063C28.6116 68.7539 27.962 67.364 27.4099 65.9094C28.1894 62.7416 29.0825 59.6223 30.0568 56.5191C29.5858 61.788 29.5696 67.1862 30.7063 72.3096C30.2354 71.5661 29.7482 70.8388 29.326 70.063ZM31.372 74.7501C31.8754 76.4148 32.525 78.031 33.3369 79.6149C32.6386 79.1138 31.9566 78.629 31.2746 78.1118C30.4627 77.4976 29.4559 76.8027 28.4329 75.9946C27.6048 73.4248 27.1014 70.7419 26.8903 68.0104C26.9553 67.6872 27.0527 67.3801 27.1177 67.073C27.2313 67.3478 27.3287 67.6225 27.4424 67.8973C28.4817 70.3216 29.8132 72.6167 31.372 74.7501ZM25.7699 56.4868C25.9323 55.8565 26.1271 55.2423 26.3382 54.6282C26.4194 54.612 26.5006 54.5958 26.5656 54.5312C26.8254 54.2726 27.0689 53.9978 27.3287 53.7392C27.2963 53.9009 27.2476 54.0463 27.2151 54.208C27.1664 54.4019 27.1339 54.5958 27.1014 54.7898C27.0527 55.0484 26.9877 55.307 26.939 55.5656C26.8903 55.8242 26.8416 56.0666 26.7766 56.3252C26.4356 57.1979 26.1109 58.0707 25.7861 58.9435C25.7212 58.1192 25.7049 57.2949 25.7536 56.4706L25.7699 56.4868ZM25.916 72.2288C25.916 72.2288 25.9647 72.1964 25.9647 72.148C26.0622 71.6469 26.1921 71.1621 26.2895 70.661C26.322 70.8711 26.3382 71.0813 26.3707 71.2914C26.5656 72.5197 26.8254 73.748 27.1664 74.944C26.7604 74.5884 26.3545 74.2167 25.9647 73.8288C25.9323 73.2793 25.916 72.746 25.916 72.2126V72.2288ZM26.2895 77.0128C26.1758 76.237 26.0784 75.445 26.0297 74.6531C26.5006 75.1218 26.9877 75.5582 27.4586 75.9622C27.8808 77.3199 28.4167 78.6128 29.0175 79.8896C28.0432 79.0007 27.1176 78.031 26.2895 77.0128ZM28.8064 77.0774C30.5764 78.5158 32.3951 79.9058 34.2462 81.2473C35.3017 82.9766 36.5845 84.5605 38.0622 85.9343C36.6657 85.2232 35.3017 84.4635 33.9539 83.6231C32.8984 82.9604 31.8754 82.2332 30.8849 81.4574C30.0568 80.0513 29.3585 78.5967 28.8064 77.0774ZM32.5899 84.011C32.4275 83.8009 32.2976 83.5746 32.1352 83.3645C34.8957 85.3363 37.9647 86.9525 41.0662 88.2778C42.073 88.9243 43.1285 89.4738 44.2489 89.9263C44.3788 89.9748 44.46 89.7647 44.3463 89.7001C44.1028 89.5869 43.8754 89.4253 43.6319 89.296C44.1352 89.49 44.6224 89.6677 45.1258 89.8455C47.3666 90.6375 49.6562 91.2678 51.962 91.8173C44.7198 93.2234 37.0554 89.8294 32.5899 84.011ZM53.8619 91.3486C49.0554 90.3627 44.3626 88.892 39.8971 86.807C38.3707 85.5141 37.0392 84.0272 35.9025 82.3786C36.617 82.8635 37.3315 83.3483 38.0622 83.817C43.0798 87.001 48.5195 89.6354 54.2354 91.2516C54.1055 91.3001 53.9918 91.3163 53.8619 91.3648V91.3486ZM60.8118 91.7042C58.6197 91.3809 56.4438 90.9122 54.3003 90.2981C53.7807 90.0395 53.2611 89.7647 52.7739 89.4253C52.644 89.3445 52.5304 89.5385 52.6603 89.6354C52.8227 89.7486 52.985 89.8455 53.1312 89.9425C52.9363 89.8779 52.7415 89.8294 52.5466 89.7647C46.1488 87.6636 40.2706 84.3989 34.7658 80.5846C34.0189 79.3078 33.3856 77.9663 32.8335 76.5926C33.9052 77.8694 35.0581 79.0977 36.2922 80.229C44.4113 87.6313 55.3558 91.0577 66.2841 90.3951C66.7875 90.3627 67.3071 90.3142 67.8105 90.2657C68.801 90.492 69.8078 90.686 70.8145 90.8638C67.9566 91.3486 65.0662 91.6719 62.1758 91.7203C61.7212 91.7203 61.2503 91.7203 60.7956 91.7203L60.8118 91.7042ZM114.934 83.1059C115.616 82.8635 116.281 82.621 116.947 82.3786C117.061 82.3786 117.191 82.3624 117.321 82.3463C117.938 82.5564 118.652 82.7342 119.367 82.8796C117.889 82.8796 116.411 82.9766 114.934 83.1059ZM125.164 83.7524C126.885 83.9463 128.622 84.0595 130.36 84.0918C131.188 84.1403 132.032 84.1888 132.861 84.2373C130.733 84.2534 128.606 84.2857 126.479 84.3181C126.122 84.2534 125.781 84.2049 125.423 84.1403C125.277 84.108 125.196 84.2211 125.18 84.3342C122.371 84.3827 119.562 84.4797 116.769 84.5767C115.827 84.3342 114.901 84.0756 113.959 83.8009C117.662 83.4291 121.413 83.5261 125.164 83.7524ZM119.529 80.6816C118.279 80.8109 117.045 80.9725 115.81 81.118C115.81 81.0695 115.81 81.0048 115.843 80.9402C115.875 80.8755 115.778 80.8109 115.729 80.8755C115.681 80.9563 115.681 81.0371 115.681 81.118C114.154 81.2957 112.628 81.4735 111.101 81.6513C112.482 81.3604 113.862 81.0533 115.226 80.7462C122.354 79.9866 129.532 79.7603 136.741 80.1806C138.739 80.2937 140.72 80.4715 142.701 80.6816C141.256 80.6008 139.81 80.52 138.349 80.4715C138.154 80.4068 137.959 80.3583 137.764 80.2937C137.651 80.2452 137.488 80.3422 137.472 80.4553C136.839 80.4553 136.222 80.423 135.589 80.4068C130.003 80.4068 124.206 80.6008 118.685 81.6836C118.993 81.5543 119.318 81.4412 119.626 81.3119C119.935 81.1826 119.951 80.6169 119.545 80.6654L119.529 80.6816ZM116.151 81.7968C116.233 81.8453 116.33 81.8937 116.444 81.9584C115.193 82.4594 113.943 82.912 112.677 83.3483C112.547 83.3645 112.433 83.3645 112.303 83.3807C112.222 83.3807 112.189 83.4615 112.157 83.5261C111.913 83.6069 111.67 83.7039 111.426 83.7686C110.533 83.6554 109.656 83.5423 108.763 83.4615C107.513 83.3483 106.262 83.2999 104.996 83.2675C105.548 83.1867 106.1 83.1221 106.652 83.0413C109.819 82.621 112.985 82.217 116.151 81.7806V81.7968ZM109.608 84.3342C108.861 84.5605 108.13 84.7706 107.383 84.9646C105.061 85.0777 102.739 85.1747 100.433 85.3201C100.319 85.3201 100.319 85.4979 100.433 85.4979C102.235 85.4656 104.022 85.4333 105.824 85.3848C105.548 85.4494 105.256 85.5141 104.98 85.5787C102.268 85.7242 99.5561 85.9181 96.8443 86.0797C95.3666 86.1767 93.8727 86.2737 92.3951 86.3868C91.7131 86.4353 91.0473 86.4838 90.3653 86.5323C90.3166 86.5323 90.1704 86.5484 89.9756 86.5808C91.6319 85.9666 93.2719 85.3363 94.9282 84.6898C95.8051 84.5443 96.6657 84.3989 97.5425 84.2534C98.7117 84.0918 99.8971 83.9463 101.066 83.7847C103.94 83.7847 106.798 83.9625 109.624 84.3181L109.608 84.3342ZM88.4167 86.6293C88.4167 86.6293 88.3842 86.6293 88.3518 86.6293C88.368 86.6293 88.4005 86.5969 88.4005 86.5646C88.4654 86.3868 88.3518 86.2737 88.2218 86.2414C89.4235 85.8858 90.6089 85.5141 91.8267 85.1908C92.3301 85.11 92.8335 85.0454 93.3369 84.9646C91.6968 85.5464 90.0568 86.0959 88.4167 86.6616V86.6293ZM85.7049 86.6131C85.6075 86.6454 85.575 86.7424 85.5913 86.8232C81.9052 88.2293 78.1055 89.3607 74.2245 90.2011C73.2178 90.088 72.211 89.9748 71.2205 89.8132C72.7956 89.5385 74.3707 89.199 75.9133 88.7627C78.7063 88.5041 81.4668 88.003 84.1785 87.2757C84.3247 87.2434 84.2597 87.0172 84.1136 87.0495C82.2787 87.4535 80.4113 87.7444 78.5277 87.9546C79.8267 87.5182 81.0933 87.001 82.3599 86.4515C84.3247 86.209 86.2733 85.9828 88.2381 85.708C87.3937 85.9989 86.5493 86.2899 85.7049 86.6131ZM87.7997 86.8555C86.8903 87.1626 85.981 87.4859 85.0716 87.7929C82.9444 88.5041 80.8172 89.199 78.69 89.894C78.1055 90.088 77.5047 90.2657 76.9201 90.4597C76.709 90.4597 76.4817 90.4274 76.2706 90.4112C80.2002 89.4415 84.0324 88.1162 87.7347 86.4676C87.6535 86.6131 87.7022 86.7424 87.8159 86.8555H87.7997ZM74.9877 88.294C74.663 88.3101 74.322 88.294 73.9972 88.3101C75.6048 87.8576 77.1961 87.3727 78.8037 86.904C79.3233 86.8394 79.843 86.7747 80.3788 86.7101C78.6089 87.3242 76.8064 87.8576 74.9877 88.294ZM71.5777 88.3586C70.4735 88.3586 69.3693 88.294 68.2651 88.2293C68.6224 88.2293 68.9959 88.2293 69.3531 88.2293C69.6292 88.2293 69.7103 88.003 69.6616 87.8091C71.7076 87.5667 73.7374 87.3242 75.7834 87.0656C74.3707 87.502 72.958 87.9222 71.5615 88.3748L71.5777 88.3586ZM69.8078 88.9404C69.3856 89.0859 68.9472 89.2152 68.525 89.3607H68.4925C67.3233 89.1344 66.1542 88.8435 65.0175 88.5364C66.6089 88.7465 68.2164 88.892 69.824 88.9404H69.8078ZM65.2124 92.1567C67.437 91.9951 69.6454 91.7042 71.8213 91.3325C72.1136 91.284 72.3896 91.2032 72.6819 91.1547C73.1691 91.2193 73.6725 91.3001 74.1596 91.3486C73.7699 91.4779 73.3802 91.6072 72.9905 91.7527C70.4086 92.1244 67.8105 92.2699 65.2124 92.1567ZM67.1934 92.9325C70.1813 92.8355 73.1528 92.383 76.027 91.5587C79.031 91.8335 82.0351 91.9143 85.0554 91.882C87.5561 91.8496 90.0568 91.7203 92.5574 91.5587C84.276 92.6254 75.6697 93.3042 67.1934 92.9325ZM106.376 88.9889C97.1366 90.0395 87.7347 91.0577 78.414 90.5405C78.4952 90.5082 78.5764 90.492 78.6576 90.4597C80.8497 89.7647 83.0581 89.0536 85.234 88.294C86.2895 87.9222 87.3287 87.5505 88.368 87.1626C88.4005 87.1626 88.4329 87.1788 88.4654 87.1949C89.1961 87.3081 90.0405 87.1949 90.7712 87.1626C91.7131 87.1141 92.6549 87.0818 93.5967 87.0333C95.5615 86.9363 97.5101 86.8232 99.4587 86.7101C99.5398 86.7101 99.621 86.7101 99.7022 86.7101C98.8903 86.8555 98.0947 87.001 97.2827 87.1303C96.958 87.1788 97.1041 87.6636 97.4127 87.6152C99.3775 87.3081 101.31 86.9363 103.242 86.5161C107.903 86.2575 112.563 85.9828 117.223 85.5949C118.262 85.805 119.302 86.0313 120.341 86.2737C117.483 86.3222 114.641 86.4192 111.8 86.5484C111.637 86.5484 111.637 86.807 111.8 86.807C115.405 86.807 119.009 86.8394 122.614 86.904C117.207 87.6475 111.8 88.3748 106.376 88.9889ZM127.242 86.2737C126.593 86.2737 125.959 86.2414 125.31 86.2414C124.238 86.0959 123.183 85.902 122.127 85.708C121.526 85.5626 120.942 85.4171 120.341 85.2878C121.137 85.207 121.916 85.1585 122.712 85.0777C122.744 85.0777 122.76 85.0615 122.777 85.0454C124.465 85.013 126.17 84.9807 127.859 84.9484C129.451 85.207 131.042 85.4009 132.649 85.5464C130.847 85.7888 129.045 86.0313 127.242 86.2737ZM134.647 85.2878C133.283 85.1908 131.935 85.0615 130.587 84.8999C133.413 84.8514 136.222 84.8029 139.047 84.7544C137.586 84.9322 136.124 85.0939 134.663 85.2878H134.647ZM131.805 83.413C129.174 83.2675 126.528 83.0897 123.897 82.9766C122.809 82.8312 121.737 82.7019 120.666 82.5241C120.097 82.4271 119.529 82.3301 118.961 82.217C124.433 81.7806 129.873 81.1988 135.377 81.1988C136.108 81.1988 136.855 81.2311 137.586 81.2473C137.797 81.6836 138.219 82.023 138.706 82.2493C139.616 82.7019 140.574 83.0736 141.532 83.4291C138.3 83.6877 135.036 83.6069 131.805 83.4291V83.413ZM143.285 83.0251C142.457 82.7342 141.629 82.4594 140.801 82.1685C140.314 81.9907 139.145 81.7321 138.463 81.2634C142.019 81.3604 145.543 81.6351 149.082 82.023C147.345 82.5726 145.575 82.9281 143.773 83.1867C143.61 83.1382 143.448 83.0897 143.285 83.0413V83.0251ZM155.432 88.2293C155.464 88.1485 155.529 88.0677 155.561 88.003C156.666 88.2293 157.77 88.4394 158.874 88.6334C157.689 88.698 156.503 88.601 155.432 88.2293ZM166.912 86.0959C166.733 86.0313 166.62 86.2737 166.733 86.403C165.775 86.8555 164.769 87.2596 163.81 87.7283C163.778 87.7283 163.729 87.7283 163.697 87.7283C163.989 87.4374 164.379 87.2434 164.833 87.1464C165.045 87.098 164.947 86.7909 164.752 86.8232C164.119 86.9202 163.599 87.2273 163.177 87.6475C161.716 87.4697 160.254 87.2434 158.809 87.001C155.285 86.3868 151.778 85.5949 148.336 84.609C147.361 84.3342 146.403 84.011 145.445 83.7039C147.264 83.3807 149.05 82.8958 150.82 82.217C152.054 82.3624 153.288 82.5402 154.522 82.718C154.815 82.7665 154.977 82.5079 154.944 82.2816C159.004 83.1059 163.161 83.4292 167.318 83.219C168.861 83.1382 170.419 83.0413 171.93 82.7342C172.222 82.6695 172.514 82.6049 172.806 82.4917C173.375 82.4271 173.959 82.3463 174.528 82.2493C173.31 82.9604 172.092 83.6554 170.842 84.3181C169.64 84.9646 168.422 85.5787 167.188 86.1606C167.091 86.1282 167.009 86.1121 166.912 86.0797V86.0959ZM181.559 79.7927C180.308 81.4897 178.652 83.1544 176.752 84.4312C176.687 84.4312 176.622 84.4312 176.557 84.4312C176.46 84.4312 176.428 84.5282 176.46 84.609C174.934 85.5949 173.261 86.2899 171.556 86.5646C174.934 85.1747 178.116 83.2514 180.747 80.7301C180.861 80.6169 180.714 80.423 180.584 80.52C176.931 82.9928 173.082 85.1747 168.877 86.5969C168.731 86.5808 168.568 86.5323 168.422 86.5161C169.364 86.0474 170.322 85.5949 171.264 85.0939C173.115 84.0918 174.982 82.9766 176.736 81.7483C178.425 81.2634 180.26 80.5523 181.754 79.4694V79.5017C181.689 79.5987 181.624 79.6957 181.559 79.7927ZM188.151 59.6869C187.924 62.4345 187.583 65.1821 187.161 67.9135C186.528 70.1762 185.7 72.3581 184.693 74.4753C184.693 74.4268 184.693 74.3783 184.693 74.346C184.693 74.1844 184.449 74.1844 184.433 74.346C184.4 74.6854 184.352 74.9925 184.271 75.2996C183.832 76.1562 183.361 76.9804 182.842 77.8047C182.566 78.0956 182.273 78.3542 181.949 78.5967C181.786 78.0795 181.656 77.5623 181.64 76.9643C181.64 76.7865 181.38 76.7865 181.38 76.9643C181.348 77.5946 181.445 78.2411 181.591 78.8714C180.649 79.5502 179.545 80.0674 178.425 80.4876C178.571 80.3583 178.733 80.2452 178.896 80.1321C179.026 80.0189 178.863 79.825 178.717 79.9058C178.019 80.2775 177.337 80.6816 176.655 81.0856C176.087 81.2473 175.518 81.3765 174.999 81.4897C174.739 81.5382 174.479 81.5867 174.203 81.6351C174.365 81.4574 174.511 81.2634 174.609 81.021C175.794 78.3704 172.254 78.4189 170.988 77.3199C170.89 77.2229 170.728 77.3683 170.842 77.4653C171.442 78.031 172.189 78.2088 172.953 78.4997C173.732 78.8068 174.495 79.324 174.3 80.2937C174.138 81.0856 173.44 81.5867 172.725 81.8614C168.747 82.3624 164.687 81.9907 160.888 80.6977C160.774 80.6654 160.725 80.8432 160.839 80.8755C162.869 81.6836 164.996 82.217 167.156 82.4756C166.197 82.5241 165.239 82.5726 164.281 82.5726C158.517 82.5241 152.785 81.619 147.296 79.8735C147.166 79.825 147.118 80.0351 147.231 80.0836C147.848 80.3099 148.449 80.52 149.066 80.7301C146.322 80.3099 143.578 79.9543 140.817 79.7119C138.446 79.2108 136.076 78.6613 133.737 78.0471C133.656 78.031 133.624 78.1441 133.705 78.1764C135.312 78.6451 136.936 79.0815 138.56 79.5017C125.683 78.5482 112.644 79.4694 100.059 82.3463C98.2246 82.7665 96.4059 83.2514 94.5872 83.7524C93.9377 83.8332 93.3044 83.9302 92.6549 84.011C92.6549 83.9302 92.5737 83.8494 92.4762 83.8979C92.3463 83.9625 92.2002 84.0272 92.0703 84.0756C89.8619 84.3666 87.6535 84.6575 85.4451 84.9484C88.8227 83.8979 92.2002 82.8312 95.5615 81.7321C95.6914 81.6836 95.6427 81.4897 95.4965 81.522C90.6413 82.7827 85.7861 84.1241 80.9634 85.5302C78.3815 85.8696 75.7834 86.209 73.2015 86.5484C71.0743 86.8232 68.9472 87.098 66.82 87.3889C64.4654 87.2434 62.0946 87.0656 59.7563 86.7262C57.6616 85.7403 55.7455 84.4797 53.9593 82.9443C53.8944 82.8796 53.7645 82.9604 53.8132 83.0574C54.755 84.3666 55.9566 85.4171 57.3044 86.306C54.073 85.6272 50.9553 84.4959 48.1623 82.4917C43.031 78.8229 39.4262 71.857 41.732 65.6346C41.7807 65.4891 41.5534 65.3922 41.4884 65.5376C39.3937 70.2408 40.7415 75.542 43.778 79.5179C44.5737 80.5685 45.483 81.4735 46.4735 82.2978C45.4343 81.7644 44.4113 81.1988 43.4208 80.6008C39.004 76.5926 35.4316 71.259 33.6616 65.6346C32.4925 61.9173 32.119 57.7636 34.2624 54.3211C34.3112 54.2403 34.1975 54.1756 34.1488 54.2564C30.073 60.2041 33.2719 68.0266 36.6007 73.5379C37.7699 75.4612 39.1176 77.2552 40.6116 78.9199C40.6116 78.9522 40.6116 78.9846 40.6278 79.0007C40.6765 79.033 40.7252 79.0654 40.7739 79.0977C44.1028 82.7503 48.1785 85.6757 52.8876 87.3242C55.1772 88.1323 57.5967 88.5687 60.0162 88.6657C60.0324 88.8112 60.1298 88.9405 60.3084 88.9243C60.9255 88.8596 61.5588 88.7788 62.1758 88.7142C63.1014 89.0536 64.0432 89.3445 64.985 89.6193C60.5195 89.7324 56.0216 89.2152 51.6697 87.9222C43.8592 85.611 36.7631 80.6816 31.9079 74.1197C31.4532 72.5843 31.1122 71.0328 30.8849 69.4812C30.1542 64.5033 30.3815 59.4445 30.9174 54.4665C30.9499 54.1433 30.9986 53.8362 31.031 53.513C31.5507 51.9937 32.1028 50.4906 32.6873 48.9876C33.0771 47.9693 33.4992 46.9511 33.9052 45.9329C34.7658 44.6884 35.5777 43.3955 36.3409 42.0702C36.4059 41.9409 36.211 41.8277 36.1461 41.957C35.6427 42.8136 35.0906 43.6379 34.5385 44.4622C35.4153 42.4096 36.3572 40.3893 37.4126 38.4337C37.8835 37.5771 38.3869 36.7528 38.939 35.9285C40.303 35.0235 41.5858 33.9891 42.9174 33.0517C44.1677 32.1628 45.4343 31.3223 46.7171 30.4657C46.7496 30.5304 46.8633 30.5142 46.8795 30.4334C46.8795 30.4011 46.8795 30.3849 46.8795 30.3526C47.1555 30.1748 47.4153 29.9809 47.6914 29.7869C50.8254 27.7343 54.0243 25.7949 57.2719 23.9524C63.9783 20.1704 70.9282 16.7925 78.0568 13.851C78.2029 13.7864 78.1379 13.5601 77.9918 13.6247C76.3193 14.2227 74.663 14.8692 73.0229 15.5319C77.2773 13.6571 81.5804 11.9439 85.9647 10.4246C86.0946 10.3761 86.0946 10.2468 86.0297 10.166C89.1961 9.14782 92.3788 8.27506 95.594 7.54777C97.8673 7.41847 100.124 7.35382 102.398 7.33766C102.414 7.38614 102.446 7.43463 102.511 7.45079C116.655 9.24479 131.139 11.1519 144.552 16.1945C148.352 17.6168 151.957 19.4431 155.659 21.0917C155.902 21.2048 156.081 20.8977 155.87 20.7361C154.701 19.8795 153.467 19.136 152.184 18.4411C156.049 19.9441 159.93 21.4311 163.81 22.9018C168.666 24.7281 173.553 26.4898 178.149 28.8495C178.49 29.3505 178.863 29.8516 179.188 30.3687C179.285 30.6112 179.415 30.8375 179.513 31.0799C181.754 36.7366 182.712 43.4278 180.162 49.1492C180.114 49.2623 180.276 49.3593 180.341 49.2462C182.89 44.8662 182.777 39.5489 181.445 34.7002C184.514 41.5853 185.505 49.3755 183.93 56.7616C183.231 60.0263 182.143 63.3557 179.594 65.6508C179.513 65.7316 179.626 65.877 179.724 65.8124C184.384 62.4345 185.44 55.4201 185.505 50.0704C185.553 46.838 185.131 43.6217 184.319 40.5024C185.829 41.5691 186.755 43.1369 187.372 44.8501C187.437 45.8359 187.486 46.8057 187.502 47.7916C187.518 48.632 187.534 49.4886 187.502 50.329C187.502 50.7816 187.486 51.2341 187.469 51.7028C187.469 51.7513 187.437 52.317 187.405 52.6887C187.372 52.6887 187.34 52.6564 187.307 52.6887C186.917 52.8826 186.982 53.4322 187.405 53.513C188.509 53.7231 188.395 51.4604 188.428 50.9432C188.444 50.523 188.428 50.1028 188.444 49.6664C188.46 49.8118 188.492 49.9573 188.509 50.1028C188.46 53.319 188.33 56.5353 188.07 59.7192L188.151 59.6869ZM60.7144 88.0677C55.096 87.7121 49.6237 85.5464 45.1907 82.0554C44.9959 81.8937 44.801 81.716 44.5899 81.5543C45.7428 82.2493 46.9282 82.8958 48.1298 83.4938C51.28 85.611 55.0148 86.8717 58.7821 87.502C59.0743 87.5505 59.3829 87.5828 59.6752 87.6313C60.0162 87.7929 60.3572 87.9384 60.6982 88.0839L60.7144 88.0677Z" fill="black"/>
<path d="M96.7793 13.7702C87.2637 16.1299 77.943 19.8634 69.1907 24.211C61.7211 27.9121 54.284 32.2113 48.4383 38.2559C45.3206 41.4722 42.7224 45.2056 40.9687 49.327C40.92 49.4401 41.0824 49.5371 41.1311 49.424C44.4924 41.957 50.6304 36.2033 57.353 31.7102C64.8226 26.7323 73.1041 22.821 81.4342 19.4593C86.5005 17.4067 91.6643 15.7097 96.8605 13.9965C97.0229 13.948 96.9579 13.7056 96.7955 13.7541L96.7793 13.7702Z" fill="black"/>
<path d="M154.035 22.3199C151.875 21.3179 149.505 21.1078 147.183 20.6714C146.549 19.8471 145.429 19.6532 144.049 19.6694C143.935 19.6694 143.837 19.6694 143.74 19.6694C142.782 19.1845 141.759 18.7966 140.687 18.5057C140.411 18.3764 140.119 18.2471 139.859 18.1178C139.713 18.037 139.551 17.9562 139.388 17.8753C139.112 17.7299 138.82 17.5844 138.528 17.4228C138.528 17.4228 138.528 17.4551 138.528 17.4713C138.235 17.342 137.975 17.1804 137.667 17.0672C136.92 16.7602 136.238 16.7602 135.637 16.9379C135.134 16.8248 134.647 16.9379 134.224 17.1481C131.967 16.3723 129.678 15.7904 127.258 15.5318C124.368 15.2248 122.517 19.6047 124.806 21.431C128.574 24.4372 133.007 26.7161 137.829 27.3787C138.934 27.5242 140.363 27.605 141.791 27.4757C142.327 27.5888 142.928 27.6858 143.594 27.7343C143.935 27.8312 144.26 27.9605 144.601 28.0414C147.394 28.7687 151.502 29.5606 154.068 27.7989C155.837 26.5868 156.406 23.419 154.068 22.3361L154.035 22.3199Z" fill="#83B3FF"/>
<path d="M75.6376 87.9222C71.9515 89.7324 68.3304 91.7527 64.7255 93.7083C63.67 94.274 62.6308 94.8558 61.5753 95.4376C64.7905 93.2557 68.0543 91.1385 71.3344 89.0859C71.4643 89.0051 71.3344 88.795 71.2045 88.8758C67.5997 90.993 64.0597 93.2073 60.5361 95.4538C58.279 96.4235 56.0381 97.4418 53.8297 98.5085C57.9704 96.3427 61.9975 93.9507 65.9434 91.4941C66.0408 91.4294 65.9434 91.2678 65.8459 91.3324C60.26 94.5002 54.5279 97.3609 48.8283 100.302C49.3642 98.8479 51.2316 97.765 52.3358 96.8761C53.8459 95.6477 55.3561 94.4518 56.8825 93.2558C56.9637 93.1911 56.85 93.0295 56.7526 93.0941C54.9339 94.4679 53.1152 95.8417 51.2965 97.1993C50.03 98.1367 48.325 99.0903 48.0814 100.787C48.0489 101.062 48.2762 101.256 48.5361 101.127C48.942 100.933 49.348 100.723 49.7539 100.529C45.6781 102.63 41.716 104.925 37.8513 107.398C35.8865 108.173 33.9055 108.917 31.9082 109.596C31.2749 109.806 30.6416 110.016 30.0083 110.21C29.5374 110.355 28.0273 111.018 27.9461 110.161C27.8324 109.111 29.3101 107.979 29.9271 107.301C31.145 105.975 32.4278 104.682 33.6944 103.389C37.1856 101.725 40.5306 99.7045 43.8757 97.8781C50.1924 94.4194 56.4928 90.9284 62.712 87.2919C62.9231 87.1626 62.7445 86.8555 62.5171 86.9687C56.2167 90.1688 49.965 93.4982 43.7458 96.8761C41.0665 98.3307 38.3872 99.8984 35.6267 101.321C35.6267 101.175 35.4643 101.046 35.3182 101.159C35.0259 101.418 34.7336 101.66 34.4413 101.919C32.7201 102.775 30.9501 103.583 29.1477 104.23C29.4725 104.004 29.8297 103.81 30.1545 103.583C30.2681 103.503 30.1545 103.309 30.0408 103.389C29.3101 103.826 28.5631 104.262 27.8324 104.699C27.735 104.731 27.6375 104.763 27.5239 104.796C31.0151 101.45 34.7336 98.2822 38.6633 95.3892C39.6538 94.9528 40.6281 94.4841 41.5861 93.9669C43.0963 93.1588 44.5252 92.2375 45.9867 91.3648C47.3669 90.7183 48.7472 90.088 50.1599 89.5061C50.2573 89.4576 50.2248 89.296 50.1112 89.3283C48.9095 89.7647 47.7242 90.2173 46.555 90.686C46.5063 90.6536 46.4576 90.6213 46.3764 90.6536C46.0191 90.7829 45.6781 90.9284 45.3371 91.0739C46.8798 90.1364 48.4062 89.199 49.9163 88.197C50.2248 87.9869 49.9488 87.502 49.624 87.696C47.3344 88.9889 45.0611 90.3142 42.8527 91.7203C39.5726 93.5628 36.2275 95.276 32.8013 96.8437C31.9731 97.2316 31.1288 97.571 30.2844 97.9428C32.7201 96.569 35.1883 95.2599 37.689 94.0477C37.7864 93.9992 37.689 93.8537 37.5915 93.9022C34.62 95.2599 31.6646 96.7145 28.7742 98.2337C27.8811 98.7024 26.9718 99.1873 26.0462 99.6721C25.6565 99.7853 25.283 99.8499 24.9583 99.8661C27.9785 98.1691 31.0313 96.4882 34.0679 94.8235C37.3967 93.2557 40.7905 91.8173 44.2167 90.4759C44.2817 90.4597 44.2492 90.3627 44.1842 90.3789C40.076 91.7203 36.0652 93.2881 32.1193 95.0498C32.4765 94.7427 32.8338 94.4518 33.191 94.1285C34.1653 93.2719 35.1883 92.4476 36.0976 91.5426C36.1951 91.4456 36.0652 91.284 35.9515 91.3648C34.8311 92.1082 33.7918 92.981 32.7201 93.7891C31.6971 94.5649 30.6741 95.3407 29.6836 96.1649C29.5374 96.2942 29.5537 96.4559 29.6348 96.569C27.7675 97.4902 25.9163 98.46 24.0814 99.462C24.0489 99.3812 24.0489 99.2681 24.0489 99.1549C25.6078 97.7812 27.2641 96.3427 27.9461 94.4194C27.9785 94.3225 27.8324 94.2578 27.7837 94.3548C27.1666 95.6316 26.0949 96.569 25.0232 97.4741C24.8283 97.6357 24.6497 97.8135 24.4549 97.9913C24.7309 97.5387 25.1206 97.1185 25.4292 96.7306C25.9488 96.0841 26.4684 95.4376 26.988 94.7912C30.6254 92.48 34.4089 90.3789 38.2735 88.4718C38.4359 88.3909 38.2898 88.1647 38.1274 88.2293C34.7011 89.7647 31.3723 91.4941 28.1247 93.385C28.3358 93.1265 28.5631 92.8517 28.7742 92.5931C29.0665 92.3183 29.3588 92.0436 29.6673 91.7688C30.5767 91.4617 31.4698 91.1547 32.3953 90.8638C32.5252 90.8314 32.4765 90.6213 32.3304 90.6536C31.5997 90.8637 30.8689 91.09 30.1382 91.3163C30.3818 91.09 30.6416 90.8637 30.8852 90.6213C30.9988 90.5082 30.8365 90.3627 30.7228 90.4597C30.5117 90.6375 30.2844 90.7991 30.0733 90.9769C30.1707 90.8638 30.2519 90.7506 30.3493 90.6375C32.785 87.6152 35.2045 84.5928 37.6727 81.6028C37.9325 81.2796 37.6078 80.827 37.2181 81.021C34.7986 82.2655 32.4278 83.5908 30.0733 84.9646C34.1328 82.1847 38.306 79.5502 42.5929 77.1259C42.7228 77.0613 42.5929 76.8673 42.4792 76.932C35.9677 80.3745 29.7647 84.3019 23.8053 88.601C22.3764 89.2475 20.9474 89.9102 19.5672 90.6698C17.375 91.8658 15.0367 93.1588 13.1693 94.8235C13.0882 94.8881 13.1856 95.0013 13.283 94.9689C14.4522 94.3548 15.5726 93.5952 16.693 92.9163C17.7647 92.2699 18.8365 91.6395 19.9244 91.0254C20.7526 90.5567 21.597 90.1041 22.4413 89.6516C21.467 90.3789 20.4603 91.09 19.5022 91.8335C19.5022 91.8335 19.4698 91.8496 19.4535 91.8658C19.421 91.882 19.4048 91.9143 19.3723 91.9305C18.9988 92.2214 19.486 92.8355 19.8757 92.5769C25.0719 89.0051 30.4143 85.6434 35.9352 82.6049C35.8053 82.7665 35.6754 82.912 35.5455 83.0736C33.3534 84.6252 31.145 86.1444 28.9041 87.599C27.6375 88.4233 26.3547 89.2314 25.0719 90.0233C24.9745 90.088 24.8771 90.1365 24.7796 90.2011C25.5591 89.6354 26.3547 89.0859 27.1666 88.5849C27.2478 88.5364 27.1666 88.4233 27.1017 88.4718C25.1044 89.6516 23.2208 91.0092 21.3371 92.3668C21.3371 92.3668 21.3047 92.383 21.2884 92.3992C21.0936 92.6254 21.3047 92.9487 21.6132 92.8355C22.9772 92.2537 24.26 91.3001 25.5104 90.5082C26.8256 89.6677 28.1247 88.795 29.4075 87.9061C31.2749 86.6293 33.0936 85.2716 34.896 83.8979C33.126 86.0797 31.3561 88.2616 29.5699 90.4274C29.1802 90.9122 28.7742 91.3971 28.3845 91.882C24.4062 93.1911 20.5415 94.8396 16.9041 96.9084C16.8229 96.9569 16.9041 97.0862 16.9853 97.0377C20.5902 95.3245 24.2438 93.7245 27.9948 92.3668C27.7512 92.6739 27.4914 92.981 27.2478 93.2719C26.2086 94.1123 25.1856 94.9528 24.1788 95.8255C23.8865 96.0841 24.2762 96.5852 24.601 96.3751C24.6497 96.3427 24.6822 96.3266 24.7309 96.2942C24.0814 97.0539 23.4481 97.8781 23.2695 98.7994C23.2532 98.9125 23.2695 99.0095 23.2695 99.1226C22.7499 99.5913 22.2302 100.044 21.7106 100.513C21.4346 100.771 21.1748 101.062 20.8987 101.321C19.762 101.967 18.6254 102.597 17.5049 103.26C14.1112 105.28 10.7336 107.381 7.43728 109.58C7.4048 109.58 7.38856 109.58 7.35609 109.58C5.2776 110.646 3.39398 112.117 1.65649 113.669C1.33173 113.943 1.75392 114.493 2.11116 114.25C7.35609 110.743 12.5036 107.171 17.9271 103.939C18.1869 103.777 18.463 103.632 18.7228 103.486C17.5699 104.699 16.4332 105.927 15.3453 107.188C14.8256 107.786 14.3223 108.384 13.8351 108.982C13.4779 109.434 13.0232 109.887 12.8121 110.436C12.4873 111.277 12.9583 112.069 13.8514 112.165C14.8906 112.295 15.9136 111.664 16.8067 111.244C18.2519 110.565 19.6646 109.87 21.0773 109.127C22.7823 108.238 24.4549 107.268 26.1112 106.25C26.5171 106.153 26.9231 106.024 27.3128 105.911C25.3804 107.026 23.4643 108.19 21.5807 109.402C21.4833 109.466 21.5807 109.628 21.6781 109.563C24.2763 108.093 26.8906 106.622 29.5212 105.183C30.3168 104.893 31.1125 104.569 31.8919 104.23C30.5279 105.507 29.1964 106.816 28.011 108.222C27.4914 108.82 26.9231 109.741 27.1504 110.582C27.394 111.454 28.2871 111.535 29.034 111.309C31.2911 110.614 33.5158 109.709 35.7079 108.788C34.4738 109.596 33.2397 110.42 32.0381 111.277C31.9082 111.357 32.0381 111.567 32.168 111.487C34.1815 110.194 36.2275 108.933 38.2735 107.705C41.2938 106.412 44.2654 105.006 47.2045 103.503C47.2857 103.47 47.2045 103.357 47.1396 103.389C45.0286 104.408 42.8852 105.361 40.7255 106.266C46.7661 102.711 52.9366 99.365 59.2533 96.3266C57.4995 97.4579 55.7296 98.5893 53.9758 99.7529C53.5049 100.06 53.9109 100.771 54.4143 100.513C58.0516 98.5893 61.6078 96.5205 65.1639 94.4679C68.7201 92.4153 72.325 90.395 75.7837 88.197C75.9461 88.1 75.7999 87.8576 75.6376 87.9384V87.9222ZM25.4616 105.491C25.2668 105.684 25.2993 105.943 25.4454 106.105C22.1978 107.931 18.8852 109.628 15.4589 111.099C15.0367 111.277 14.3385 111.616 13.8514 111.438C12.8608 111.083 14.1924 109.709 14.5658 109.256C15.4265 108.206 16.3196 107.171 17.2289 106.169C18.4468 104.796 19.7296 103.47 21.0124 102.161C22.0029 101.595 22.9934 101.014 23.984 100.448C24.0976 100.513 24.1951 100.593 24.325 100.642C23.7404 100.981 23.1558 101.321 22.5875 101.676C22.7174 101.547 22.8473 101.418 22.961 101.288C23.0422 101.191 22.9122 101.062 22.8148 101.143C22.1003 101.773 21.4021 102.533 20.6064 103.05C20.5902 103.05 20.5739 103.082 20.5577 103.082C20.5577 103.082 20.5577 103.082 20.5739 103.082C20.3629 103.309 20.6064 103.697 20.915 103.535C22.3114 102.808 23.6267 101.886 24.9583 101.062C25.1369 100.949 25.3317 100.836 25.5266 100.723C26.7445 100.561 27.9948 99.8338 29.0503 99.3974C31.4373 98.3953 33.7756 97.2801 36.0976 96.1326C36.1301 96.1811 36.1626 96.2296 36.2113 96.2781C32.4278 99.1065 28.8392 102.177 25.4616 105.458V105.491Z" fill="#111111"/>
<path d="M82.9772 87.4859C80.3304 88.6172 77.6835 89.7647 75.053 90.9123C76.3845 89.7647 77.716 88.6172 79.08 87.502C79.1612 87.4374 79.0475 87.2758 78.9501 87.3404C76.8554 88.9243 74.712 90.4274 72.601 91.9951C72.195 92.286 72.536 92.884 72.9907 92.6739C76.3845 91.0739 79.7295 89.3607 83.0908 87.696C83.237 87.6313 83.1071 87.4212 82.9772 87.4859Z" fill="#111111"/>
<path d="M106.23 87.0009C102.804 88.4555 99.4263 89.9748 96.0488 91.5263C97.6401 90.5728 99.264 89.6515 100.936 88.8596C101.196 88.7303 100.969 88.3747 100.725 88.4878C97.218 90.0071 93.8729 91.8496 90.7389 94.0153C90.2355 94.2577 89.7322 94.5163 89.2125 94.7588C91.0637 92.8355 93.7105 91.5263 95.9189 90.1525C96.3898 89.8616 96.8607 89.5707 97.3154 89.2798C97.3803 89.2475 97.4291 89.2151 97.494 89.1828C97.494 89.1828 97.494 89.1667 97.494 89.1505C100.06 87.5666 102.658 85.9989 105.126 84.2695C105.288 84.1564 105.37 83.8978 105.191 83.7362C104.395 83.025 103.34 83.6877 102.512 84.0432C100.985 84.6736 99.4426 85.2716 97.9162 85.8696C95.8215 86.6938 93.743 87.5343 91.6645 88.3747C93.3695 87.0817 95.2044 85.9342 97.2017 85.1099C97.3154 85.0615 97.2667 84.8837 97.153 84.9322C96.6334 85.1099 96.13 85.3039 95.6266 85.4978C95.7078 85.4332 95.8052 85.3847 95.8864 85.3362C96.0001 85.2554 95.9351 85.0291 95.7728 85.0776C93.6943 85.8049 91.697 86.7746 89.6347 87.5504C88.9365 87.809 88.2383 88.0515 87.54 88.2939C89.1638 87.4535 90.8526 86.7423 92.6226 86.2251C93.0935 86.0797 92.8986 85.3685 92.4277 85.4978C89.1313 86.3868 86.0136 87.8252 83.2044 89.7647C82.7498 90.0879 83.0096 90.8637 83.5941 90.7182C82.36 91.1708 81.0935 91.591 79.8269 91.9627C82.7173 89.4091 86.0786 87.4535 89.4236 85.5625C89.6347 85.4494 89.4399 85.1423 89.245 85.2392C85.1855 87.2918 81.1422 89.3929 77.8621 92.5769C77.5535 92.884 77.8621 93.385 78.2843 93.288C80.6875 92.7223 83.0258 91.8819 85.2504 90.8475C86.6632 90.201 88.0759 89.4576 89.4236 88.6333C89.586 88.5687 89.7484 88.504 89.8945 88.4394C90.1056 88.3424 90.3167 88.2454 90.5278 88.1646C89.8945 88.601 89.2775 89.0858 88.6767 89.6192C88.3519 89.9101 88.6929 90.5889 89.1313 90.395C91.632 89.3606 94.1327 88.2777 96.6171 87.1949C97.8675 86.6454 99.1178 86.0958 100.368 85.5463C101.083 85.2392 101.781 84.9322 102.495 84.6251C102.869 84.4796 103.616 84.0271 104.184 84.0271C101.213 85.6918 98.3384 87.5504 95.448 89.3444C95.4642 89.2636 95.4155 89.1828 95.3343 89.2475C94.019 90.1041 92.72 90.9445 91.4047 91.8011C81.2883 96.5043 71.383 101.595 61.7701 107.268C59.5129 108.594 57.2883 110 55.0475 111.357C63.3776 105.248 72.406 100.189 81.4669 95.2113C81.5806 95.1467 81.4669 94.9689 81.3695 95.0335C78.3005 96.6336 75.2315 98.2498 72.1787 99.9145C72.2761 99.8498 72.1787 99.7044 72.0813 99.7529C63.8323 103.713 55.6645 107.882 47.9027 112.715C47.8052 112.78 47.9027 112.941 48.0001 112.877C55.9405 108.594 63.7998 104.181 71.8377 100.092C64.8715 103.923 58.0677 108.06 51.9947 113.184C51.8323 113.313 52.0434 113.572 52.2058 113.458C57.8079 109.838 63.8161 106.735 69.678 103.535C75.4913 100.351 81.3695 97.2639 87.2802 94.2577C87.7186 94.0315 88.1408 93.8214 88.5793 93.6112C85.2342 95.777 81.9054 97.9265 78.5603 100.092C77.4074 100.69 76.2545 101.272 75.1016 101.886C74.9717 101.967 75.1016 102.161 75.2315 102.096C75.54 101.951 75.8485 101.805 76.1408 101.66C75.2802 102.21 74.4358 102.759 73.5752 103.325C66.333 108.044 59.0583 112.731 52.0596 117.806C51.9622 117.887 52.0596 118.048 52.1571 117.984C59.5617 113.539 66.7389 108.691 73.9 103.89C75.8972 102.549 77.8783 101.207 79.8756 99.866C82.3925 98.6538 84.9094 97.4417 87.4263 96.2295C87.54 96.2942 87.6537 96.3427 87.7836 96.2942C89.2613 95.8255 90.6902 95.2436 92.1029 94.6133C95.6266 93.385 98.9717 91.5587 102.008 89.4253C102.089 89.3606 102.073 89.2636 102.008 89.2151C103.437 88.5202 104.882 87.8414 106.311 87.1464C106.425 87.0817 106.311 86.9201 106.214 86.9686L106.23 87.0009ZM87.264 95.6154C87.264 95.6154 87.2477 95.6962 87.2315 95.7285C85.7051 96.472 84.1787 97.2477 82.6686 98.0074C84.6496 96.6659 86.6469 95.3406 88.628 93.9991C88.1246 94.484 87.6537 95.0174 87.264 95.6154Z" fill="#111111"/>
<path d="M174.836 83.7362C169.591 87.3566 164.379 91.0415 159.248 94.8558C158.355 95.2437 157.462 95.6154 156.552 95.9872C157.738 95.0982 158.907 94.2093 160.108 93.3527C160.466 93.1911 160.823 93.0133 161.18 92.8517C161.294 92.8032 161.245 92.6093 161.131 92.6578C161.099 92.6578 161.066 92.6901 161.018 92.7062C162.171 91.882 163.323 91.0415 164.509 90.2496C164.623 90.1849 164.509 90.0072 164.411 90.0718C162.755 91.1224 161.115 92.2052 159.491 93.3204C158.485 93.7406 157.478 94.177 156.503 94.678C156.357 94.7104 156.244 94.6942 156.26 94.5326C156.309 94.2255 156.585 93.9831 156.763 93.7729C157.039 93.4497 157.332 93.1265 157.624 92.8194C157.851 92.5769 158.079 92.3345 158.322 92.1082C158.939 91.785 159.556 91.4618 160.19 91.1547C160.271 91.1062 160.19 90.9769 160.108 91.0254C159.654 91.2193 159.215 91.4456 158.761 91.6395C159.556 90.8153 160.384 90.0072 161.261 89.2799C161.359 89.1991 161.229 89.0698 161.131 89.1506C160.319 89.7809 159.459 90.3951 158.679 91.09C158.241 91.4779 157.819 91.882 157.397 92.286C152.623 94.5487 147.946 97.1185 143.562 100.076C144.292 99.5105 145.023 98.9448 145.77 98.3953C145.9 98.2984 145.77 98.1044 145.656 98.1852C142.604 100.189 139.746 102.501 137.066 104.973C136.774 105.248 137.18 105.798 137.505 105.539C143.643 100.965 149.911 96.6175 156.65 92.981C156.585 93.0456 156.503 93.1103 156.422 93.1911C156.016 93.5952 155.237 94.4518 155.757 95.0498C154.051 95.9548 152.428 97.0054 150.918 98.2175C150.641 98.4438 150.934 98.9772 151.291 98.8479C151.518 98.7509 151.762 98.6378 151.989 98.5408C150.934 99.4459 149.862 100.335 148.807 101.224C147.118 102.581 145.462 103.971 143.838 105.41C143.529 105.668 143.968 106.105 144.276 105.846C147.767 102.888 151.323 99.9954 154.961 97.1993C155.172 97.1024 155.383 97.0054 155.594 96.9084C156.406 96.5367 157.218 96.1649 158.014 95.7771C153.045 99.4944 148.157 103.341 143.432 107.365C142.279 108.238 141.175 109.175 140.135 110.21C139.924 110.42 140.233 110.711 140.46 110.533C151.827 101.466 163.08 92.3345 174.934 83.8979C175.031 83.8332 174.934 83.6878 174.836 83.7524V83.7362ZM154.587 96.7791C154.23 96.9084 153.889 97.0539 153.532 97.1832C154.522 96.4882 155.545 95.8255 156.585 95.1952C156.698 95.1629 156.796 95.1144 156.893 95.0498C157.072 94.9366 157.267 94.8235 157.445 94.7104C157.51 94.678 157.591 94.6295 157.656 94.5972C156.633 95.3245 155.594 96.0357 154.587 96.7791Z" fill="#111111"/>
<path d="M177.24 88.7788C175.064 90.3143 172.888 91.8658 170.712 93.4174C169.299 94.3386 167.935 95.2922 166.604 96.3266C166.084 96.7306 165.564 97.1347 165.061 97.5549C164.622 97.8781 164.168 98.2014 163.729 98.5246C163.664 98.5731 163.729 98.6701 163.794 98.6378C162.333 99.9146 160.953 101.272 159.784 102.743C159.654 102.905 159.816 103.147 160.011 103.034C160.514 102.759 161.034 102.533 161.553 102.29C161.651 102.242 161.586 102.064 161.472 102.113C161.229 102.21 160.969 102.29 160.709 102.387C162.771 100.48 164.752 98.5246 166.928 96.7306C169.38 94.7104 171.995 92.884 174.723 91.2517C174.853 91.1708 174.723 90.9769 174.609 91.0577C174.073 91.3648 173.553 91.7042 173.034 92.0113C174.463 90.9769 175.892 89.9264 177.304 88.8758C177.369 88.8273 177.304 88.7142 177.24 88.7627V88.7788Z" fill="#111111"/>
<path d="M185.05 79.1947C173.148 86.2737 162.008 94.371 151.616 103.503C151.535 103.583 151.648 103.697 151.746 103.632C162.284 94.8073 173.472 86.6454 185.131 79.3078C185.213 79.2593 185.131 79.1462 185.066 79.1947H185.05Z" fill="#111111"/>
<path d="M155.756 89.199C148.595 93.1102 141.434 97.0215 134.371 101.127C136.547 99.1226 138.836 97.2316 141.207 95.4699C141.304 95.4053 141.207 95.2437 141.126 95.3245C138.154 97.3932 135.378 99.6883 132.698 102.113C132.536 102.258 132.747 102.517 132.942 102.42C140.671 98.2337 148.254 93.7891 155.854 89.3606C155.951 89.296 155.854 89.1505 155.756 89.2152V89.199Z" fill="#111111"/>
<path d="M150.593 87.4212C146.777 89.086 142.977 90.8961 139.275 92.9002C136.758 93.5952 134.355 94.7104 131.74 94.9851C131.61 94.9851 131.481 94.9851 131.351 95.0013C132.633 94.1932 133.916 93.4174 135.215 92.6578C135.475 92.8679 135.865 92.9487 136.173 92.9487C137.099 92.9487 138.106 92.5285 138.983 92.2376C140.038 91.8982 141.094 91.5103 142.117 91.0901C144.163 90.2496 146.127 89.2637 148.011 88.1162C148.125 88.0516 148.011 87.8738 147.914 87.9384C144.666 89.6516 141.24 90.9446 137.7 91.882C137.294 91.9951 136.872 92.1406 136.449 92.2052C136.303 92.2214 136.157 92.2376 136.011 92.2052C136.839 91.7204 137.684 91.2355 138.528 90.783C138.658 90.7183 138.528 90.5244 138.414 90.589C137.554 90.9931 136.709 91.4295 135.865 91.8658C136.06 91.6396 136.466 91.3648 136.612 91.2355C136.969 90.9123 137.343 90.6214 137.732 90.3304C139.113 89.2799 140.623 88.391 142.198 87.6798C142.295 87.6314 142.23 87.4697 142.133 87.5021C140.184 88.1647 138.382 89.1021 136.742 90.3143C136.303 90.6375 135.897 90.9608 135.491 91.3163C135.232 91.5426 134.891 91.7366 134.907 92.1083C134.907 92.1891 134.956 92.2376 134.972 92.3022C133.478 93.078 132 93.9023 130.539 94.775C130.409 94.8558 130.279 94.9367 130.149 95.0175C129.256 94.969 128.363 94.8074 127.551 94.5003C129.987 93.2235 132.439 91.9951 134.923 90.8315C135.004 90.7991 134.939 90.6537 134.858 90.686C132.146 91.7689 129.516 92.9649 126.901 94.2417C126.479 94.0316 126.09 93.7568 125.732 93.4497C126.885 93.1427 128.022 92.7386 129.142 92.3507C131.773 91.4295 134.371 90.3951 136.904 89.2476C137.002 89.1991 136.937 89.0375 136.823 89.0698C134.533 89.9587 132.211 90.783 129.857 91.5103C128.688 91.882 127.502 92.2214 126.301 92.5447C125.96 92.6416 125.554 92.7709 125.148 92.8679C124.985 92.674 124.839 92.4962 124.709 92.2861C124.579 92.076 124.255 92.2537 124.368 92.48C124.449 92.6578 124.563 92.8033 124.677 92.9649C124.222 93.0457 123.784 93.0457 123.41 92.8679C123.784 92.4154 124.173 91.979 124.563 91.5426C125.066 91.3325 125.57 91.1062 126.073 90.8961C126.187 90.8476 126.106 90.6537 125.992 90.7022C125.651 90.8315 125.294 90.9769 124.953 91.1062C126.041 89.8779 127.161 88.6981 128.412 87.6314C128.477 87.5829 128.395 87.4697 128.33 87.5182C126.625 88.7627 125.034 90.1203 123.589 91.6396C120.715 92.7386 117.857 93.9184 115.015 95.1144C117.759 93.8538 120.52 92.6578 123.361 91.6557C123.459 91.6234 123.426 91.4618 123.313 91.4941C116.477 93.5467 110.16 96.8115 103.632 99.6237C100.32 101.046 96.942 102.355 93.4508 103.276C92.5739 103.503 91.5834 103.874 90.6578 103.874C89.5049 103.874 89.5374 103.002 89.7972 102.193C94.0191 99.7368 98.2411 97.3125 102.528 94.969C102.56 95.2599 102.772 95.5185 103.113 95.4054C106.133 94.2902 109.121 92.9649 112.011 91.5264C111.264 92.0113 110.55 92.5123 109.9 93.078C109.592 93.3366 109.916 93.8215 110.274 93.7245C112.287 93.1911 114.333 92.5123 116.152 91.478C116.265 91.4133 116.184 91.187 116.054 91.2517C114.674 91.785 113.326 92.2699 111.914 92.6093C112.969 91.8658 114.008 91.1062 115.113 90.4274C116.736 89.4254 118.425 88.5041 120.179 87.7122C120.341 87.6314 120.228 87.3404 120.049 87.4051C118.246 88.1485 116.493 88.9405 114.788 89.8779C114.382 90.1042 113.976 90.3304 113.554 90.5729C113.521 90.5244 113.456 90.4759 113.391 90.5082C111.638 91.1709 109.9 91.8982 108.146 92.5447C107.107 92.9164 106.068 93.2881 105.029 93.6598C105.126 93.579 105.24 93.5144 105.337 93.4336C108.26 91.8658 111.199 90.3304 114.171 88.8435C114.284 88.795 114.171 88.6334 114.073 88.6819C113.375 88.989 112.677 89.3122 111.979 89.6355C112.287 89.4577 112.612 89.2961 112.92 89.1021C113.895 88.488 115.096 87.7768 115.778 86.8232C115.908 86.6455 115.665 86.4354 115.486 86.5323C114.447 87.195 113.083 87.5021 111.93 87.9223C110.809 88.3263 109.673 88.6981 108.536 89.0698C107.399 89.4415 106.279 89.8294 105.142 90.2011C104.347 90.4597 103.307 91.0254 102.398 90.9123C104.493 88.989 106.766 87.3081 109.267 85.9667C109.348 85.9182 109.267 85.7889 109.186 85.8374C106.376 87.1788 103.746 88.8274 101.359 90.8153C101.164 90.9769 101.245 91.3002 101.44 91.4133C102.349 91.979 103.372 91.6072 104.282 91.2517C105.532 90.7668 106.766 90.2658 108 89.7648C109.234 89.2637 110.468 88.7465 111.719 88.2778C112.612 87.9384 113.554 87.4859 114.495 87.195C114.301 87.3404 114.106 87.4859 113.895 87.6152C113.359 87.9546 112.79 88.2617 112.222 88.5688C111.085 89.1829 109.9 89.7324 108.747 90.2981C106.815 91.2355 104.931 92.2861 103.389 93.773C98.8743 96.0842 94.4576 98.5893 90.1545 101.272C90.1545 101.24 90.1869 101.208 90.2032 101.175C91.145 99.3328 92.0543 97.4903 92.9637 95.6316C93.0124 95.5185 92.8662 95.4377 92.8013 95.5347C91.9082 97.0216 91.0313 98.5247 90.1707 100.044C89.8784 100.577 89.44 101.208 89.1802 101.87C87.5076 102.921 85.8513 104.004 84.2275 105.119C84.0814 105.216 84.2275 105.474 84.3737 105.377C85.8838 104.472 87.4264 103.583 88.9528 102.694C88.9204 102.953 88.9204 103.228 88.9853 103.486C89.2289 104.392 90.1382 104.634 90.9988 104.553C92.4928 104.392 94.0191 103.874 95.4643 103.454C97.9001 102.727 100.271 101.822 102.609 100.852C102.171 101.078 101.716 101.272 101.278 101.498C101.115 101.579 101.261 101.789 101.408 101.725C108.601 98.5408 115.795 95.373 123.004 92.2699C122.858 92.4315 122.696 92.577 122.566 92.7548C122.436 92.9002 122.403 93.1427 122.566 93.2881C123.28 93.9346 124.19 93.9023 125.083 93.7083C125.099 93.7083 125.115 93.7083 125.131 93.7083C125.456 94.0801 125.83 94.4033 126.236 94.6619C122.16 96.6983 118.198 98.9772 114.447 101.595C114.301 101.692 114.447 101.935 114.593 101.838C118.604 99.4459 122.679 97.167 126.82 94.9851C127.567 95.3569 128.395 95.5831 129.24 95.6801C127.21 96.9569 125.196 98.3307 123.426 99.9146C123.329 100.044 123.443 100.238 123.589 100.141C125.878 98.7509 128.071 97.1994 130.328 95.7286C130.555 95.7286 130.799 95.7286 131.026 95.7286C133.267 95.5831 135.345 94.7427 137.456 93.9831C133.689 96.1003 130.035 98.4277 126.593 100.981C127.486 100.125 128.379 99.2681 129.272 98.4115C129.321 98.363 129.24 98.2822 129.191 98.3307C127.713 99.6722 126.252 100.997 124.774 102.339C124.661 102.436 124.807 102.63 124.937 102.549C130.165 99.2843 135.394 96.0518 140.736 92.9972C140.882 92.9649 141.029 92.9325 141.175 92.9002C141.288 92.8841 141.305 92.7871 141.272 92.6901C142.75 91.8497 144.228 91.0254 145.738 90.2173C144.455 91.1062 143.253 92.1083 142.182 93.2396C141.954 93.4821 142.1 93.9184 142.458 93.9184C144.585 93.8376 146.744 93.1911 148.661 92.2699C148.774 92.2053 148.693 91.9951 148.563 92.0436C147.605 92.4154 146.615 92.6901 145.592 92.8841C144.893 93.0134 144.179 93.0618 143.481 93.0942C145.527 91.1224 147.816 89.4415 150.398 88.2132C150.609 88.1162 150.544 87.89 150.382 87.793C150.463 87.7607 150.528 87.7122 150.609 87.6798C150.723 87.6314 150.609 87.4697 150.512 87.5182L150.593 87.4212Z" fill="#111111"/>
<path d="M65.5859 97.9428C65.7158 97.8619 65.5859 97.6518 65.456 97.7327C58.7334 101.757 52.0108 105.781 45.4181 110.032C46.3599 108.998 47.3018 107.963 48.2273 106.929C49.6888 105.297 51.4262 103.696 52.4168 101.709C52.4817 101.595 52.3193 101.498 52.2381 101.612C51.6373 102.533 50.8741 103.325 50.111 104.101C49.2828 104.941 48.4709 105.814 47.659 106.67C46.0352 108.384 44.3951 110.113 42.8363 111.891C42.6576 112.085 42.7713 112.408 43.0474 112.408C45.1583 112.489 47.2206 111.761 48.7957 110.371C48.8931 110.274 48.7469 110.129 48.6495 110.226C47.253 111.341 45.5156 111.891 43.7456 111.826C44.0704 111.487 44.3789 111.147 44.6874 110.808C51.751 106.686 58.6522 102.323 65.5534 97.9589L65.5859 97.9428Z" fill="#111111"/>
<path d="M33.0935 80.9402C29.8945 82.2493 26.8093 83.8332 23.9838 85.805C22.2464 86.403 20.5251 87.0172 18.8364 87.7283C19.0799 87.5182 19.3235 87.3081 19.5671 87.1141C21.1097 86.4192 22.6036 85.5949 24.13 84.8999C26.0136 84.0272 27.8972 83.1544 29.8133 82.3948C29.9757 82.3301 29.9108 82.0715 29.7322 82.12C27.8485 82.7988 25.9487 83.4776 24.0975 84.2534C23.3993 84.5443 22.6848 84.8514 21.9703 85.1585C23.3506 84.0918 24.7795 83.0898 26.2897 82.2008C26.3871 82.1362 26.2897 81.9746 26.1922 82.0392C23.4967 83.3968 20.8986 84.9969 18.5441 86.904C18.5441 86.904 18.5441 86.904 18.5278 86.904C18.5278 86.904 18.5278 86.904 18.5278 86.9202C17.992 87.3566 17.4723 87.7768 16.969 88.2455C16.8715 88.3263 16.8553 88.4556 16.8715 88.5849C16.7579 88.6334 16.628 88.698 16.5143 88.7465C14.7119 89.5869 12.8769 90.5243 11.1395 91.591C15.2477 88.0677 19.7782 85.013 24.2599 82.0392C24.3573 81.9746 24.2599 81.8129 24.1625 81.8776C22.6848 82.7665 21.2234 83.6716 19.7619 84.5928C19.7294 84.5282 19.6807 84.4959 19.5995 84.512C17.9757 85.0939 16.3682 85.7565 14.8418 86.5646C14.0786 86.9687 13.3479 87.3889 12.6171 87.8414C11.8864 88.294 11.0745 88.7627 10.4737 89.393C10.2301 89.6516 10.5387 90.0556 10.8634 89.894C11.5779 89.5385 12.3573 89.2799 13.1043 88.9889C13.2342 88.9405 13.1855 88.7303 13.0393 88.7627C12.812 88.8273 12.5684 88.8758 12.3411 88.9405C12.5522 88.7788 12.7795 88.6172 12.9906 88.4718C13.7051 87.9869 14.4196 87.5343 15.1665 87.1141C16.3682 86.4192 17.6022 85.7727 18.8526 85.1908C15.475 87.3566 12.1949 89.6354 9.19088 92.3022C6.99873 94.2578 4.96896 96.3912 3.23148 98.7509C2.3059 100.012 1.4128 101.337 0.698325 102.727C0.146227 103.793 -0.292203 105.038 0.259894 106.185C0.925659 107.575 2.32214 107.462 3.63743 107.285C3.91348 107.252 4.17329 107.171 4.44934 107.123C4.38439 107.22 4.48182 107.365 4.59548 107.285C4.75786 107.188 4.92025 107.091 5.06639 106.994C6.54406 106.703 8.0055 106.331 9.41822 105.781C9.54812 105.733 9.49941 105.523 9.35326 105.571C8.21659 105.959 7.04745 106.266 5.86206 106.509C11.3343 103.163 16.8391 99.8661 22.5874 97.0377C22.6848 96.9892 22.5874 96.8599 22.5062 96.8922C16.4331 99.6237 10.5062 102.743 5.09887 106.638C4.48182 106.735 3.84853 106.816 3.23148 106.864C1.94866 106.945 0.730801 106.687 0.64961 105.2C0.584658 104.117 1.26666 103.082 1.80252 102.193C3.52376 99.3166 5.68344 96.7306 8.07045 94.3709C8.44393 93.9992 8.84988 93.676 9.22336 93.3366C11.7403 92.0598 14.1598 90.6052 16.6929 89.3607C17.0339 89.1991 17.3912 89.0374 17.7484 88.8758C19.2261 88.6334 20.6713 88.1 21.9866 87.3727C21.7105 87.599 21.4182 87.7929 21.1584 88.0192C20.8174 88.3101 21.1746 88.892 21.5968 88.7627C23.0745 88.294 24.4548 87.6475 25.6077 86.5969C25.7376 86.4838 25.5752 86.2737 25.429 86.3545C24.7633 86.7747 24.0488 87.1465 23.3181 87.4212C26.3709 84.9807 29.6347 82.7827 33.2071 81.1665C33.3208 81.118 33.2396 80.9079 33.1259 80.9563L33.0935 80.9402Z" fill="#111111"/>
<path d="M30.7388 77.8694C22.3112 80.7948 13.8674 84.2858 6.36536 89.1506C6.02436 89.3769 6.23545 89.9426 6.65764 89.8294C8.18403 89.393 9.5318 88.8758 10.8309 87.9546C10.9932 87.8415 10.8471 87.5829 10.6685 87.6799C10.2788 87.9061 9.8728 88.1162 9.46684 88.294C12.4222 86.6778 15.3775 85.0616 18.4141 83.5585C22.4574 81.5544 26.5819 79.6634 30.7713 78.0149C30.8687 77.9826 30.8363 77.8209 30.7226 77.8532L30.7388 77.8694Z" fill="#111111"/>
<path d="M4.77419 100.125C5.27757 99.5914 5.79719 99.0742 6.34929 98.5732C8.54144 96.5852 11.0096 94.9205 13.7214 93.6922C13.8188 93.6437 13.7539 93.4659 13.6402 93.5144C11.1558 94.5165 8.78501 95.8579 6.70653 97.5711C5.66729 98.4277 4.57933 99.3489 3.75118 100.399C3.28028 100.997 2.74442 102.161 3.47514 102.791C3.97852 103.228 4.67676 102.985 5.22886 102.808C6.08948 102.549 6.96634 102.307 7.8432 102.064C7.95687 102.032 7.90815 101.87 7.79449 101.886C6.9501 102.08 6.08948 102.29 5.24509 102.484C4.87162 102.565 4.31952 102.775 3.94604 102.549C3.63752 102.355 3.63752 102.016 3.73495 101.692C3.91357 101.062 4.33576 100.593 4.77419 100.125Z" fill="#111111"/>
</g>
<defs>
<clipPath id="clip0_7278_910">
<rect width="192" height="118" fill="white"/>
</clipPath>
</defs>
</svg>
