<svg width="25" height="24" viewBox="0 0 25 24" fill="none" xmlns="http://www.w3.org/2000/svg">
<g clip-path="url(#clip0_7279_1109)">
<path d="M24.8065 19.974C20.4516 22.8572 14.6527 23.991 9.63196 22.2062C5.33558 20.6738 1.65554 16.7764 1.14717 12.2014C0.665793 7.8921 3.14915 3.1665 7.32856 1.53225C8.61073 1.03179 10.0504 0.783774 11.391 1.20009C12.5922 1.57211 13.5954 2.41802 14.3782 3.37023C16.0473 5.40751 17.118 8.36598 16.1238 10.917C15.2015 13.2909 12.4347 14.8366 10.0773 13.3175C9.0921 12.6841 8.53874 11.6212 8.79518 10.4653C9.05611 9.28276 9.98737 8.17997 11.2605 8.05154C11.382 8.03825 11.382 7.87881 11.2605 7.86552C8.89415 7.60865 7.19809 10.2881 7.9629 12.3741C8.84467 14.7745 11.8949 15.6559 14.1398 14.6461C16.8436 13.4282 17.8918 10.2925 17.4284 7.56879C16.9561 4.78304 15.0935 1.72712 12.4077 0.518042C9.75793 -0.67775 6.68073 0.33203 4.4898 2.00614C2.45183 3.57839 0.994208 5.86368 0.350875 8.33055C-1.03027 13.6452 1.795 18.9687 6.35231 21.8342C11.4855 25.0584 18.1437 24.4782 23.1914 21.3824C23.8033 21.006 24.3881 20.5985 24.9595 20.1689C25.0719 20.0848 24.9235 19.8943 24.8065 19.974Z" fill="black"/>
</g>
<defs>
<clipPath id="clip0_7279_1109">
<rect width="25" height="24" fill="white"/>
</clipPath>
</defs>
</svg>
