<svg width="40" height="26" viewBox="0 0 40 26" fill="none" xmlns="http://www.w3.org/2000/svg">
<g clip-path="url(#clip0_7286_329)">
<path d="M1.18904 10.7903C1.13862 9.38078 1.05038 7.97123 0.974754 6.56168C0.970552 6.45121 0.957947 6.33633 0.949544 6.22586L1.15122 6.32307C1.17643 6.33633 1.20585 6.33191 1.21845 6.3054C1.23106 6.28331 1.22265 6.24796 1.20164 6.2347C1.11341 6.1861 1.02938 6.13307 0.94114 6.08447C0.903325 5.54539 0.857107 5.01073 0.806687 4.47166C0.756266 3.94142 0.735258 3.39792 0.378115 2.98257C0.352905 2.95164 0.306686 2.9649 0.28988 2.99583C-0.054658 3.48188 0.00416549 4.10491 -3.61927e-05 4.67933C-3.61927e-05 5.34213 -3.61918e-05 6.00493 0.0293756 6.66773C0.0839974 8.07728 0.126014 9.48683 0.193241 10.8964C0.331897 13.7243 0.504165 16.539 0.752065 19.3581C0.768871 19.5658 1.04618 19.5702 1.06299 19.3581C1.28988 16.4992 1.28988 13.6536 1.18484 10.7859L1.18904 10.7903Z" fill="#1C002F"/>
<path d="M16.9411 9.53103C16.6848 9.20405 16.2184 9.11126 15.8445 9.01847C15.4201 8.91242 14.9789 8.87266 14.5546 8.77103C13.7016 8.56777 12.9369 8.19218 12.4117 7.43659C11.8487 6.62356 11.2773 6.02262 10.2688 5.9696C9.52935 5.92983 8.72263 6.18169 8.03355 6.53519C7.85708 6.24356 7.6554 5.96518 7.46213 5.69122C7.38229 5.57634 7.18481 5.60285 7.18481 5.77076C7.19322 6.31867 7.19742 6.88426 7.31927 7.41892C7.37809 7.68404 7.70582 7.90939 7.96213 7.80334C8.73103 7.48078 9.58397 6.98147 10.4411 7.18031C10.9117 7.29078 11.1386 7.66636 11.3991 8.05962C11.6512 8.44846 11.9285 8.7887 12.2815 9.08033C12.9327 9.61499 13.7478 9.95522 14.5588 10.1099C15.2352 10.238 16.3991 10.4369 16.9411 9.84918C17.0294 9.75639 17.0167 9.62824 16.9411 9.53103Z" fill="#1C002F"/>
<path d="M16.7941 16.9411C16.7395 16.7467 16.5126 16.7776 16.4454 16.9411C16.3152 17.2681 15.7983 16.8616 15.6723 16.7423C15.3152 16.4109 15.0294 16.0132 14.5925 15.7834C14.1051 15.5271 13.6009 15.6022 13.0883 15.4785C12.7227 15.3902 12.4958 15.0676 12.2605 14.7848C11.7185 14.1308 11.0883 13.6183 10.2143 13.7773C9.62608 13.8834 9.03364 14.4622 8.437 14.449C8.21431 13.9055 7.95801 13.3797 7.73532 12.8318C7.6765 12.6815 7.46221 12.7655 7.45801 12.9113C7.45801 13.3222 7.39078 13.7287 7.38238 14.1353C7.37818 14.4799 7.32356 15.0234 7.49162 15.3283C7.79414 15.8718 8.57145 15.8541 9.06305 15.6862C9.51263 15.5271 10.0042 15.1118 10.4916 15.0985C10.9328 15.0853 11.2479 15.6862 11.5042 15.9867C11.9286 16.486 12.3992 16.8041 13.0378 16.8969C13.3572 16.9411 13.7227 16.9102 14.0084 17.0869C14.2521 17.2371 14.4454 17.4978 14.6639 17.6879C15.1387 18.1032 15.7017 18.3065 16.2857 17.9839C16.6555 17.7806 16.916 17.3785 16.7857 16.9323L16.7941 16.9411Z" fill="#1C002F"/>
<path d="M32.9622 7.23333C32.7983 6.88425 32.4412 6.76495 32.0924 6.75169C31.0924 6.71193 29.9958 7.10519 29.0462 7.39682C28.0546 7.69729 27.0714 8.05962 26.1261 8.50148C25.8908 8.61195 25.6555 8.72683 25.4244 8.85056C25.3235 8.90358 25.1555 8.94777 25.0798 9.03172C25.0462 9.0494 25.0126 9.06707 24.9748 9.08916C24.9202 8.89474 24.7815 8.64288 24.7101 8.47497C24.584 8.17892 24.3445 7.93148 24.2563 7.63101C24.2101 7.47635 24.0126 7.54705 24.0336 7.69729C24.0756 7.99776 23.9538 8.32915 23.958 8.63846C23.958 8.87265 23.9706 9.11567 23.9874 9.34986C24.0252 9.81382 24.2143 10.2292 24.6849 10.3352C25.1723 10.4457 25.6639 10.0878 26.0924 9.89336C26.542 9.68568 26.9958 9.48684 27.4538 9.30126C28.3698 8.92567 29.3067 8.61195 30.2605 8.35567C30.7353 8.22753 31.2227 8.13915 31.6975 8.01543C31.8193 7.9845 32.458 7.72822 32.5798 7.86961C32.6345 7.93148 32.7395 7.94473 32.8067 7.90054C33.0294 7.75473 33.0714 7.48519 32.958 7.24217L32.9622 7.23333Z" fill="#1C002F"/>
<path d="M34.479 14.6788C33.6681 14.3916 32.8151 14.7318 31.9748 14.5993C31.042 14.4579 30.2395 14.0558 29.5378 13.4018C29.2185 13.1058 28.8782 12.8097 28.4538 12.7081C27.979 12.5932 27.542 12.7876 27.1303 13.0174C26.6177 13.3002 26.1093 13.6007 25.6009 13.8923C25.1891 14.1309 24.7353 14.3474 24.3235 14.6081C24.1891 14.3253 24.1345 14.0028 24.2017 13.6935C24.2269 13.5697 24.084 13.4725 23.9958 13.5697C23.4328 14.1839 23.3572 14.9351 23.7143 15.6863C23.8151 15.8939 24.1135 16.0309 24.3277 15.947C25.4034 15.536 26.4286 14.7849 27.4244 14.1972C27.6135 14.0867 27.9202 13.8348 28.1513 13.8393C28.3908 13.8481 28.5756 14.0867 28.7353 14.2458C29.0672 14.5816 29.4118 14.8909 29.8025 15.1428C30.5714 15.6332 31.4454 15.9028 32.3404 15.9425C33.1681 15.9779 34.1933 15.8851 34.6051 15.0235C34.6723 14.8865 34.6135 14.7318 34.4706 14.6832L34.479 14.6788Z" fill="#1C002F"/>
<path d="M2.81094 10.0701C2.81094 10.0259 2.73951 10.0259 2.74371 10.0701C2.83194 11.0246 2.92018 11.9746 3.00841 12.929C3.00841 12.9599 3.05883 12.9643 3.05883 12.929C2.9748 11.9746 2.89497 11.0246 2.81094 10.0701Z" fill="#1C002F"/>
<path d="M2.98315 13.6447V15.0764C2.98315 15.0985 3.01677 15.0985 3.01677 15.0764V13.6447C3.01677 13.6227 2.98315 13.6227 2.98315 13.6447Z" fill="#1C002F"/>
<path d="M39.7058 15.7129C39.7605 15.2666 39.8109 14.8159 39.8529 14.3652C39.8571 14.321 39.8235 14.2901 39.7857 14.2857C39.8487 12.9601 39.8823 11.6301 39.9243 10.3045C39.9663 8.87283 40.0042 7.44118 40 6.00954C40 4.48068 39.9243 3.00485 39.7773 1.49367C39.7647 1.36111 39.5966 1.36111 39.5798 1.49367C39.3991 2.9695 39.2773 4.4144 39.2142 5.90349C39.1512 7.37048 39.1176 8.8419 39.0756 10.3089C39.0378 11.7405 38.9748 13.1722 38.9411 14.6038C38.9369 14.8468 38.9327 15.0899 38.9285 15.3329C38.7899 14.5906 38.647 13.8438 38.5168 13.1015C38.7605 12.4077 38.7731 11.5284 38.7899 10.8082C38.8109 9.9554 38.8487 9.1026 38.8949 8.2498C38.9874 6.55303 38.9874 4.85185 39.0882 3.15509C39.0924 3.05788 38.9453 3.03578 38.9285 3.13299C38.5714 4.82534 38.2311 6.51768 38.105 8.2498C38.063 8.81096 38.0336 9.36771 38.0084 9.92888C37.7857 8.33817 37.5966 6.72536 37.6092 5.11697C37.6134 4.20231 37.7016 3.3009 37.8151 2.39508C37.8445 2.14763 37.9117 1.83833 37.9663 1.51577C38.0798 1.62181 38.1932 1.73228 38.2983 1.85158C38.3697 1.93554 38.4537 1.9974 38.5378 2.06368C38.5546 2.07694 38.5756 2.09019 38.5924 2.10345C38.6008 2.11228 38.6512 2.14763 38.605 2.11228C38.647 2.14763 38.689 2.16531 38.7353 2.18298C38.7857 2.22275 38.8529 2.28461 38.9117 2.33322C39.0294 2.43926 39.21 2.33764 39.1722 2.17415C39.1512 2.09019 39.1302 2.00182 39.105 1.91786C39.105 1.87368 39.105 1.82949 39.0924 1.78089C39.0798 1.7367 39.063 1.69251 39.0462 1.64833C39.021 1.58646 39 1.5246 38.9748 1.46716C38.9453 1.40088 38.8949 1.34786 38.8487 1.29041C38.7311 1.14018 38.605 0.994365 38.4748 0.861805C38.3361 0.720408 38.1806 0.61436 38.0168 0.512731C37.9916 0.349241 37.9495 0.194588 37.8655 0.0664471C37.8361 0.0222605 37.7731 -0.021926 37.7184 0.00458593C37.5504 0.0752844 37.4201 0.199007 37.3067 0.349241C37.2941 0.349241 37.2773 0.349241 37.2647 0.344822C37.1512 0.335985 37.1218 0.477382 37.1722 0.556918C37.168 0.565755 37.1596 0.574592 37.1554 0.587848C34.0126 0.225519 30.8235 0.190169 27.7353 1.01204C26.4159 1.36111 25.1176 1.88251 23.9411 2.60717C23.1344 3.10648 22.2899 3.73393 21.6554 4.50719C21.6092 4.46301 21.5252 4.45859 21.4958 4.52929C21.3235 4.88278 21.0546 5.18325 20.8991 5.55C20.8571 5.64721 20.8277 5.74442 20.7899 5.84163C19.3655 4.71929 17.7184 3.94603 16.1092 3.14625C14.3235 2.26252 12.521 1.41414 10.6092 0.883898C8.78567 0.380172 6.83189 0.141564 4.97055 0.570174C4.15542 0.760176 3.30248 1.08716 2.6134 1.58646C2.3529 1.77647 2.1092 2.02833 1.92013 2.31112C1.44954 2.1167 0.911724 2.60717 1.02097 3.17718C1.14282 3.80905 1.44954 4.41882 1.69324 5.0065C1.93273 5.58535 2.15122 6.17303 2.3529 6.76955C2.1008 8.85515 1.97895 10.9496 1.99576 13.0573C2.01677 15.4964 2.15122 17.9708 2.68063 20.3525C2.71425 20.4939 2.92433 20.463 2.92433 20.3171C2.90752 18.5585 2.80248 16.8043 2.73105 15.0501C2.71425 14.0073 2.68904 12.9645 2.65542 11.9217C2.64702 10.5563 2.65542 9.18655 2.68904 7.81677C2.98315 8.7712 3.23946 9.73888 3.45374 10.711C3.72685 11.9615 3.92853 13.234 4.08399 14.5066C4.14282 15.0015 4.21845 15.4876 4.29408 15.9736C4.29408 15.978 4.28567 15.9824 4.28567 15.9869C4.25626 16.221 4.12601 16.4597 4.07139 16.6938C4.01256 16.9325 3.98735 17.1887 3.94954 17.4318C3.87391 17.9178 3.81929 18.3994 3.76887 18.8855C3.70164 19.5306 3.5924 20.1757 3.52517 20.8253C3.3529 20.9446 3.18483 21.0683 3.02097 21.2009C2.8571 21.3334 2.65962 21.4616 2.54618 21.6427C2.42433 21.8372 2.42433 22.0802 2.31929 22.279C2.23105 22.4514 2.37811 22.7076 2.57979 22.6325C2.78567 22.5574 2.99996 22.6104 3.20584 22.5397C3.38651 22.4779 3.54618 22.3497 3.70584 22.2393H3.71425C3.65122 22.3807 3.6008 22.5221 3.56298 22.6767C3.53777 22.7783 3.52517 22.8755 3.51677 22.9728C2.8613 23.1495 2.21004 23.3528 1.58399 23.6179C1.73105 22.3541 1.73946 21.0595 1.78567 19.8134C1.8571 17.909 1.87391 16.0134 1.8613 14.1089C1.8613 13.9366 1.63441 13.9499 1.6134 14.1089C1.39912 16.009 1.21004 17.9046 1.07559 19.8134C0.978951 21.1655 0.836094 22.5707 0.878111 23.9493C0.642817 24.073 0.411724 24.2056 0.184834 24.3558C0.0125647 24.4707 0.130212 24.7225 0.319287 24.6872C0.516766 24.6518 0.714245 24.6077 0.911724 24.5591C0.932733 24.8198 0.957943 25.0805 0.991556 25.3412C1.01256 25.5002 1.23946 25.4781 1.27727 25.3412C1.3529 25.0363 1.41593 24.7314 1.46635 24.4177C2.5966 24.1128 3.70584 23.7151 4.8445 23.4411C6.00836 23.1628 7.18063 22.8844 8.3529 22.6458C8.91172 22.6016 9.47055 22.553 10.0252 22.5176C10.8403 22.4646 11.6596 22.4558 12.4748 22.4116C12.9075 22.3851 13.3403 22.3497 13.7689 22.3144C13.7899 22.3409 13.8109 22.363 13.8487 22.3718C14.3277 22.4867 14.8235 22.5618 15.3109 22.659C15.8235 22.7651 16.3319 22.9109 16.8361 23.0523C17.3277 23.1893 17.8025 23.3749 18.2815 23.5516C18.7689 23.7283 19.2605 23.8521 19.7563 23.9935C19.7689 23.9935 19.7815 23.9935 19.7941 23.9935C19.7353 24.1393 19.7184 24.2763 19.7773 24.4265C19.8319 24.559 19.9495 24.7049 20.0966 24.727C20.4243 24.78 20.7226 24.643 20.8109 24.2807C20.8235 24.2277 20.8277 24.1702 20.8235 24.1128C21.0588 24.2674 21.3151 24.3779 21.5924 24.4442C21.9075 24.5149 22.2184 24.5414 22.5252 24.4839C22.5336 24.5016 22.542 24.5193 22.5588 24.5325C22.6134 24.5811 22.668 24.6297 22.7269 24.6695C22.8109 24.7225 22.9159 24.7314 23.0126 24.7446C23.1344 24.7623 23.2605 24.7711 23.3823 24.7667C23.5336 24.7667 23.6764 24.7137 23.8151 24.6607C23.8949 24.6297 23.9748 24.5944 24.0504 24.5591C24.1344 24.5193 24.1848 24.4574 24.2395 24.3823C24.3193 24.2718 24.3613 24.1525 24.3067 24.0156C24.2941 23.989 24.2731 23.9714 24.2563 23.9493C24.2563 23.9449 24.2563 23.936 24.2563 23.9316C24.2773 23.9404 24.2983 23.9404 24.3193 23.9272C24.542 23.7902 24.7815 23.6797 25 23.5295C25.2311 23.3704 25.4537 23.2069 25.6848 23.0523C26.1386 22.743 26.5924 22.4293 27.0924 22.2083C27.1974 22.1597 27.2016 21.952 27.063 21.9697C27.0378 21.9697 27.0126 21.9786 26.9832 21.983C27.084 21.9344 27.1806 21.8902 27.2815 21.8504C28.189 21.4792 29.1344 21.1876 30.0924 21.0065C31.0336 20.8253 31.9958 20.7767 32.9495 20.7546C33.9201 20.7325 34.8781 20.8297 35.8445 20.843C35.9663 20.843 36.0378 20.7148 36.0168 20.6044C36.0756 20.6044 36.1344 20.6132 36.189 20.6176C36.6848 20.6485 37.1722 20.759 37.668 20.7723C37.8529 20.7767 37.8823 20.5337 37.7563 20.4364C37.3361 20.1183 36.7941 19.9327 36.2983 19.7781C35.7689 19.6146 35.168 19.5439 34.6134 19.5571C34.1218 19.566 33.605 19.6013 33.1176 19.7074C32.0294 19.6146 30.9201 19.7118 29.8865 19.9106C28.8781 20.105 27.8991 20.4144 26.9621 20.843C26.0504 21.2583 25.0042 21.7355 24.5 22.6723C24.4201 22.8225 24.5504 22.9595 24.6932 22.9374C24.7353 22.9286 24.7773 22.9197 24.8193 22.9109C24.7731 22.9507 24.7269 22.986 24.6848 23.0302C24.4832 23.2467 24.3487 23.4986 24.2226 23.7637C24.21 23.7416 24.2058 23.7195 24.189 23.7018C24.1428 23.6532 24.0882 23.6135 24.0252 23.5825C24.1302 23.5074 24.1722 23.3351 24.1218 23.2114C23.9495 22.7872 23.6848 22.4425 23.3739 22.1465C24.2605 21.5279 25.126 20.9269 26.1386 20.5027C27.3487 19.999 28.6218 19.6853 29.9117 19.5041C32.5546 19.1285 35.2353 19.4688 37.8823 19.6367C38.0504 19.6455 38.1218 19.376 37.9706 19.3009C35.4033 18.0062 32.4579 17.7853 29.668 18.1653C28.2899 18.3553 26.9453 18.7308 25.6638 19.2964C24.5042 19.809 23.2563 20.4806 22.3277 21.4218C21.8277 21.1611 21.2899 20.9623 20.7857 20.7899C20.7731 20.0343 20.7479 19.2743 20.7521 18.5276C20.7647 16.9634 20.7815 15.3992 20.8571 13.8394C20.9327 12.3017 21.0924 10.7773 21.2983 9.25283C21.4033 8.49282 21.5 7.73281 21.6302 6.97722C21.6596 6.8049 21.6848 6.63257 21.7058 6.46466C21.7605 6.43815 21.8151 6.40722 21.8655 6.35861C22.8319 5.46604 23.6974 4.55138 24.8403 3.893C25.9705 3.23904 27.2058 2.81043 28.4621 2.52322C31.2521 1.88693 34.1218 1.97531 36.8949 1.27274C36.8235 1.53786 36.7647 1.80298 36.7142 2.02391C36.5084 2.88997 36.4117 3.80021 36.3529 4.69278C36.2268 6.63699 36.4537 8.55468 36.7311 10.4724C37.1596 13.4594 37.7395 16.4994 38.7731 19.3406C38.7731 19.3406 38.7731 19.3406 38.7731 19.345C38.7689 19.3848 38.7857 19.4113 38.8067 19.429C39.0546 20.105 39.3193 20.7723 39.6218 21.4174C39.7226 21.6295 39.979 21.466 39.9537 21.2716C39.8151 20.2155 39.6386 19.1683 39.4495 18.1211C39.5882 17.3257 39.6638 16.5171 39.7184 15.7085L39.7058 15.7129ZM18.6596 22.7209C18.1596 22.4337 17.626 22.2393 17.0798 22.0846C16.2941 21.8637 15.3823 21.762 14.542 21.8902C13.8487 21.8062 13.1554 21.7179 12.4621 21.6825C11.6176 21.6427 10.7605 21.6825 9.91173 21.7134C8.26046 21.7709 6.56298 21.8813 4.99996 22.4734C4.92013 22.5044 4.90752 22.5883 4.94114 22.6458C4.8403 22.6679 4.73525 22.6811 4.63441 22.7076C4.48315 22.743 4.33609 22.7783 4.18483 22.8137C4.23105 22.743 4.27727 22.6723 4.31929 22.5927C4.45794 22.3365 4.63441 22.0979 4.77727 21.8416C4.83189 21.7399 4.88651 21.6383 4.94114 21.5411C4.94534 21.5411 4.95374 21.5367 4.95794 21.5323C5.73105 21.1523 6.55458 20.8871 7.38651 20.6971C9.21425 20.2862 11.0924 20.3392 12.9411 20.5602C14.542 20.7546 16.1176 21.1258 17.6848 21.5279C17.7479 21.6516 17.8571 21.7311 17.9874 21.7886C17.8781 21.7399 18.0042 21.7974 18.0168 21.8018C18.0462 21.8151 18.0756 21.8327 18.1092 21.846C18.1764 21.8813 18.2395 21.9167 18.3025 21.9565C18.4285 22.0316 18.5462 22.1155 18.6596 22.2083C18.6638 22.2127 18.6722 22.2172 18.6806 22.226C18.7058 22.2481 18.7311 22.2702 18.7563 22.2923C18.8109 22.3409 18.8655 22.3939 18.9201 22.4469C19.0252 22.553 19.126 22.6679 19.2184 22.7916C19.2269 22.8048 19.2353 22.8137 19.2395 22.8225C19.2605 22.849 19.2773 22.88 19.2983 22.9065C19.3361 22.9639 19.3739 23.0214 19.4075 23.0832C19.4874 23.2158 19.5588 23.3483 19.6218 23.4897C19.6302 23.5074 19.6386 23.5251 19.647 23.5472C19.3571 23.2202 19.0504 22.9374 18.6638 22.7209H18.6596ZM20.521 6.65908C20.3487 7.397 20.1848 8.14375 20.0546 8.89492C19.7815 10.4945 19.6134 12.1161 19.5084 13.7333C19.4033 15.3241 19.3865 16.9369 19.5084 18.5276C19.5588 19.155 19.6134 19.8046 19.6974 20.4497C18.4243 20.0697 17.1176 19.7736 15.8277 19.4953C12.6722 18.8104 9.39492 18.5276 6.26887 19.5262C5.68904 19.7118 5.12181 19.9416 4.57139 20.2111C4.6092 19.809 4.63441 19.4069 4.66383 19.0092C4.68063 18.7883 4.69324 18.5674 4.70164 18.3464C4.71004 18.3906 4.71845 18.4304 4.72685 18.4746C4.78147 18.7353 5.13441 18.7088 5.20164 18.4746C5.5924 17.1225 5.77727 15.8278 5.71004 14.4094C5.64282 12.9954 5.43693 11.5947 5.14702 10.2117C4.86551 8.87283 4.49576 7.56932 4.01677 6.29233C3.62601 5.24953 3.22265 4.01672 2.58399 3.05788C2.6092 3.0402 2.63441 3.02253 2.65962 3.00927C2.95374 2.79718 3.28988 2.59834 3.61761 2.44368C4.3571 2.08577 5.21004 1.90019 6.02097 1.82949C7.72265 1.67484 9.40752 2.04159 11.0168 2.59392C12.6932 3.17276 14.3067 3.94603 15.9075 4.71929C17.4117 5.44395 18.9075 6.22163 20.5126 6.65466L20.521 6.65908ZM20.7647 22.3497C20.9958 22.4204 21.2269 22.4955 21.4579 22.5795C22.0882 22.8137 22.689 23.1141 23.3067 23.3837C23.2479 23.3969 23.1848 23.4102 23.1176 23.4235C22.9621 23.4588 22.8529 23.4676 22.7016 23.4765C22.5462 23.4853 22.3865 23.4721 22.2311 23.4765C22.1428 23.4765 22.0588 23.4765 21.9705 23.4676C21.9621 23.4676 21.9327 23.4632 21.9075 23.4588C21.8823 23.4544 21.8319 23.4455 21.8235 23.4411C21.668 23.4102 21.5168 23.3616 21.3655 23.2997C21.2941 23.2688 21.2184 23.2379 21.147 23.2114C21.1302 23.2069 21.126 23.2025 21.1218 23.2025C21.1218 23.2025 21.1134 23.2025 21.1008 23.1893C21.063 23.1672 21.0252 23.1495 20.9874 23.1274C20.8991 23.0788 20.8151 23.0258 20.7311 22.9728C20.7479 22.7607 20.7605 22.553 20.7689 22.3409L20.7647 22.3497Z" fill="#1C002F"/>
</g>
<defs>
<clipPath id="clip0_7286_329">
<rect width="40" height="25.4691" fill="white"/>
</clipPath>
</defs>
</svg>
