<svg width="37" height="33" viewBox="0 0 37 33" fill="none" xmlns="http://www.w3.org/2000/svg">
<g clip-path="url(#clip0_7286_426)">
<path d="M36.9823 26.0586C36.8498 25.8796 36.7173 25.7006 36.5804 25.526C36.4877 25.2771 36.3375 25.0458 36.1299 24.8668C36.0857 24.8275 36.0371 24.8537 36.0239 24.893C35.9886 24.858 35.9576 24.8231 35.9267 24.7926C35.5027 24.3953 35.0257 24.0417 34.5398 23.7186C34.0628 23.3999 33.5504 23.1423 33.0204 22.9153C32.486 22.6883 31.9074 22.4395 31.3155 22.5006C31.0682 22.5268 30.9798 22.7887 31.1477 22.9503C30.7767 22.8106 30.4012 22.6708 30.0214 22.5442C29.5355 22.3871 29.0453 22.243 28.5461 22.1208C28.1884 22.0291 27.8262 21.9287 27.4596 21.8632C27.3492 20.9377 27.252 20.0122 27.1858 19.0823C27.1018 16.8733 27.1018 14.6642 27.2918 12.4508C27.3448 11.8222 27.4243 11.2023 27.5082 10.578C27.5082 10.6042 27.5082 10.6347 27.5082 10.6609C27.5126 10.853 27.7909 10.8487 27.8085 10.6609C27.9587 8.85791 28.2414 7.05926 28.6566 5.29554C28.8553 4.4486 29.085 3.60603 29.3412 2.77219C29.5488 2.10424 29.7166 1.10451 30.4101 0.763984C30.4851 0.724693 30.4807 0.606821 30.4101 0.56753C29.805 0.244471 29.2617 0.894954 29.0364 1.38391C29.0364 1.38391 29.0364 1.38391 29.0364 1.38827C28.8509 1.50178 28.6654 1.61092 28.4843 1.72879C28.9878 1.23984 29.4825 0.742156 29.964 0.231374C30.0655 0.122233 29.933 -0.0742217 29.7961 0.0130914C27.5877 1.44503 25.631 3.33536 23.8466 5.313C21.7177 7.31247 19.8847 9.6088 18.4139 12.154C18.3741 12.2238 18.4315 12.2762 18.4934 12.2762C18.4006 12.4159 18.3079 12.5556 18.2195 12.6997C18.1975 12.7302 18.1754 12.7608 18.1621 12.7826C17.2302 14.0356 16.3733 15.3322 15.5871 16.6812C14.8892 17.8861 14.2532 19.1303 13.679 20.4051C12.3716 20.2654 10.9273 20.5928 9.80101 20.9726C9.589 21.0468 9.38141 21.1254 9.17382 21.2084C9.1959 21.1385 9.16499 21.0512 9.07665 21.0599C7.95477 21.1865 6.84172 21.3306 5.72425 21.5052C4.58471 21.6798 3.47166 21.9811 2.36744 22.3129C2.26586 22.3434 2.27911 22.5137 2.39395 22.505C2.46461 22.5006 2.53528 22.4919 2.60595 22.4875C2.28352 22.6708 1.97434 22.876 1.68283 23.1118C1.40899 23.3301 1.12631 23.5789 0.905465 23.8627C0.821545 23.7099 0.742041 23.5527 0.675788 23.3955C0.552116 23.1118 0.450529 22.7756 0.821545 22.6534C1.05122 22.5792 1.30298 22.6185 1.52824 22.6709C1.63425 22.6927 1.71817 22.5355 1.60774 22.4831C1.24556 22.3216 0.746458 22.1251 0.366608 22.3434C-0.110412 22.6141 -0.00882432 23.1904 0.163433 23.6095C0.282688 23.902 0.428444 24.1857 0.583034 24.4651C0.565367 24.5175 0.552116 24.5699 0.538866 24.6267C0.450529 25.1113 0.680205 25.6526 1.17048 25.8229C1.26323 25.8534 1.31182 25.7224 1.23231 25.6744C0.989385 25.5173 0.909882 25.2771 0.918715 25.0283C1.21023 25.4561 1.54149 25.8578 1.90809 26.2245C2.67662 26.9841 3.57766 27.6302 4.54937 28.1061C5.49016 28.5645 6.58554 29.0272 7.63675 29.1277C7.70742 29.1364 7.74276 29.0665 7.73834 29.0054C7.83551 29.0578 7.92385 29.1102 8.02102 29.1582C9.29307 29.7956 10.6225 30.2584 11.9962 30.5378C13.891 31.4458 15.8698 32.1661 17.9457 32.5372C19.0234 32.7293 20.1409 32.869 21.2583 32.9083C22.9721 33.0567 24.6681 33.0349 26.3686 32.7293C26.3819 32.7293 26.3863 32.7162 26.3951 32.7119C27.1858 32.6115 27.9675 32.463 28.7317 32.2098C29.9198 31.8169 30.9975 31.3018 31.9957 30.5465C32.062 30.4941 32.0266 30.3588 31.9339 30.3981C29.9772 31.1446 28.0117 31.9697 25.9755 32.4936C24.4473 32.3844 22.9147 32.319 21.3864 32.1792C20.5472 32.1007 19.7124 32.0221 18.8777 31.8998C18.5111 31.8475 18.14 31.7863 17.7734 31.7383C17.5526 31.7121 17.3318 31.6816 17.1109 31.6466C17.1109 31.6466 16.8415 31.6292 16.6825 31.651C16.6781 31.6379 16.6692 31.6204 16.6516 31.6161C16.5765 31.5768 16.5456 31.5768 16.4705 31.6161C16.444 31.6292 16.4263 31.6597 16.4175 31.6903C15.194 31.4196 13.9838 31.0922 12.8045 30.6775C13.8469 30.8303 14.9069 30.8739 15.9758 30.7953C16.1171 30.7866 16.1171 30.5902 15.9758 30.5814C13.6834 30.4155 11.369 29.8873 9.25774 28.9836C8.25511 28.5558 7.28782 28.0319 6.37795 27.4381C5.88326 27.1151 5.40182 26.7658 4.94689 26.3904C4.7658 26.242 3.26407 25.1243 3.70133 24.8449C3.75434 24.81 3.719 24.7445 3.66158 24.7533C3.57325 24.7664 3.50258 24.7926 3.44516 24.8188C3.43632 24.7096 3.43191 24.6048 3.44074 24.4957C3.45399 24.2556 3.51583 24.0155 3.59975 23.7841C4.0856 23.3737 4.60679 23.007 5.19865 22.7145C5.26932 22.6796 5.34882 22.6534 5.42391 22.6185C5.15448 22.8193 4.88505 23.0376 4.67304 23.2864C4.38595 23.6182 4.02818 24.0198 3.90893 24.4477C3.88684 24.5219 3.9796 24.6092 4.05468 24.5568C4.40361 24.308 4.68188 23.9413 5.00431 23.6619C5.33999 23.3694 5.65358 23.0638 6.01577 22.8018C6.35587 22.5573 6.7048 22.3216 7.06256 22.1077C7.24365 22.0728 7.42033 22.0422 7.60142 22.016C6.69596 22.553 5.85676 23.1904 5.05289 23.8801C4.97781 23.9456 5.07498 24.0679 5.1589 24.0155C6.65179 23.0812 8.24186 22.2648 9.92468 21.7235C10.786 21.4441 11.6958 21.2564 12.6013 21.1822C12.8531 21.1603 13.1048 21.156 13.3566 21.156C13.0872 21.7934 12.8266 22.4307 12.5969 23.0812C12.2126 23.3606 11.5722 23.1685 11.3204 23.6575C11.0819 24.1202 11.4352 24.6398 11.74 24.9672C11.8018 25.0327 11.8681 25.0938 11.9299 25.1549C11.9299 25.2422 12.0139 25.3121 12.0934 25.3208C12.4997 25.6962 12.9502 26.028 13.4317 26.3249C12.513 25.9058 11.6738 25.3601 10.8346 24.7533C10.7727 24.7096 10.7021 24.7926 10.7374 24.8493C11.4485 26.1677 12.9458 26.9099 14.3415 27.3377C15.2691 27.6215 16.2364 27.7394 17.2037 27.7874C19.5358 28.4597 22.1373 28.3811 24.4341 27.6259C24.7123 27.6302 24.9906 27.6259 25.2512 27.6084C26.4923 27.5517 27.888 27.3159 28.9392 26.6218C29.032 26.5606 29.0099 26.3817 28.8774 26.3948C28.7361 26.4079 28.5992 26.434 28.4622 26.4515C28.1265 25.216 27.7246 24.0024 27.4066 22.7625C28.2591 22.8891 29.1071 23.0812 29.9375 23.3082C31.0593 23.6182 32.1371 24.046 33.2457 24.3866C33.334 24.4127 33.4224 24.2861 33.3429 24.225C33.1662 24.0853 32.9718 23.9631 32.7775 23.8408C32.8393 23.8408 32.8879 23.7885 32.8968 23.7317C33.3208 23.9151 33.736 24.1202 34.1423 24.3385C34.8623 24.7183 35.5734 25.1724 36.2315 25.6701C36.2668 26.0237 36.2315 26.3817 36.1078 26.7265C36.046 26.8968 35.9444 27.0583 35.8295 27.2068C35.8295 27.1369 35.7412 27.0714 35.6661 27.1107C34.16 27.9358 32.6627 28.7871 31.1388 29.586C29.6283 30.3762 28.1177 31.2144 26.5674 31.9304C26.51 31.9566 26.5497 32.0483 26.6116 32.0352C27.4508 31.7994 28.2988 31.603 29.1115 31.2843C29.9242 30.9656 30.7281 30.6032 31.501 30.1972C32.7201 29.5599 33.864 28.8352 34.9373 27.9926C35.6264 27.914 36.258 27.5429 36.5627 26.9143C36.6908 26.648 36.7394 26.3511 36.7217 26.0542C36.7703 26.0935 36.8189 26.1284 36.8675 26.1677C36.9426 26.2289 37.0795 26.1459 37.0133 26.0542L36.9823 26.0586ZM7.27899 28.7609C6.99631 28.6518 6.70921 28.547 6.43095 28.4248C6.03343 28.2458 5.63592 28.0624 5.25165 27.8616C4.46103 27.4469 3.68808 26.9667 2.99905 26.3991C2.34094 25.8534 1.73583 25.2248 1.26323 24.5132C1.22348 24.4564 1.19256 24.3953 1.15723 24.3385C1.46641 23.9107 1.89484 23.5483 2.32769 23.2428C2.77379 22.9241 3.25081 22.6316 3.7455 22.3871C3.75875 22.3871 3.77642 22.3871 3.78967 22.3827C3.77642 22.3958 3.76317 22.4045 3.74992 22.4176C3.3789 22.7887 3.09181 23.2471 2.92838 23.7448C2.79588 23.95 2.68104 24.1639 2.5927 24.3866C2.54854 24.4957 2.69871 24.5699 2.77821 24.5044C2.69429 26.1328 3.96635 27.5822 5.60058 27.7394C5.63592 27.7394 5.66242 27.7306 5.6845 27.7132C6.19686 28.093 6.7313 28.4422 7.2834 28.7609H7.27899ZM4.65538 26.9055C4.7923 27.0234 4.92922 27.1326 5.07056 27.2461C4.62446 27.0059 4.23577 26.648 3.94426 26.2245C4.24902 26.5476 4.5582 26.8182 4.65979 26.9055H4.65538ZM7.98568 21.7846C7.90618 21.7628 7.83109 21.741 7.75159 21.7279C7.94593 21.6362 8.14469 21.5489 8.35228 21.479C8.52454 21.4354 8.6968 21.3917 8.86464 21.3481C8.56429 21.4834 8.27278 21.6318 7.98568 21.7846ZM12.0271 24.4346C11.4706 23.7754 12.0492 23.6357 12.4776 23.3432C12.3407 23.7273 12.217 24.1159 12.0934 24.5044C12.0713 24.4782 12.0448 24.4564 12.0271 24.4346ZM28.2016 26.4864C28.0382 26.5126 27.8704 26.5432 27.7069 26.5694C27.813 26.5039 27.919 26.434 28.0161 26.3642C28.1045 26.3031 28.0294 26.1808 27.9322 26.2245C27.3713 26.469 26.7838 26.5956 26.1875 26.7222C25.9049 26.7833 25.6178 26.8226 25.3307 26.8619C25.048 26.8968 24.7565 26.9536 24.4694 26.9579C24.4517 26.9405 24.4252 26.9317 24.3943 26.9405C24.2309 26.971 24.0675 27.0016 23.904 27.0278C23.8378 27.0278 23.7759 27.0365 23.7097 27.0365C23.1841 27.0365 22.6364 27.0365 22.1726 26.7527C22.1064 26.7134 22.0401 26.8051 22.0931 26.8575C22.2433 27.0147 22.4156 27.1326 22.5966 27.233C20.5693 27.4818 18.4713 27.46 16.5146 26.9274C15.4148 26.6305 14.3548 26.1808 13.4052 25.5609C13.0695 25.3383 12.7161 25.0938 12.407 24.8144C12.9414 23.5833 13.4979 22.3696 14.0942 21.1691C14.4961 21.1734 14.9025 21.1734 15.3044 21.1385C15.4016 21.1298 15.4413 21.0119 15.353 20.9551C15.0615 20.7718 14.7435 20.6408 14.4078 20.5491C14.8539 19.6716 15.3132 18.7985 15.8079 17.9472C16.4749 16.7947 17.1816 15.6727 17.9192 14.5638C18.2946 13.9963 18.6833 13.4375 19.0808 12.883C19.4695 12.3461 19.8052 11.6432 20.4898 11.4555C20.5472 11.438 20.5826 11.3638 20.5472 11.3114C20.3926 11.08 20.2027 11.0058 20.004 11.032C20.8873 9.90567 21.7972 8.80552 22.7247 7.73157C23.6125 6.70128 24.5401 5.71027 25.4809 4.728C26.563 3.73263 27.6893 2.78528 28.8421 1.87286C28.5285 2.68051 28.3121 3.558 28.1265 4.38311C28.0868 4.56647 28.0559 4.74983 28.0205 4.93319C27.252 7.30374 26.8236 9.79653 26.5762 12.2544C26.3907 14.0967 26.3201 15.9696 26.4128 17.8293C26.2008 19.2176 26.3201 20.6277 26.5674 22.0029C26.5232 22.0029 26.4791 22.0029 26.4349 21.9985C26.002 21.9985 26.0197 22.6097 26.4349 22.649C26.5232 22.6578 26.6116 22.6709 26.6999 22.6796C26.987 23.9893 27.4684 25.3645 28.1972 26.4864H28.2016Z" fill="black"/>
</g>
<defs>
<clipPath id="clip0_7286_426">
<rect width="37" height="33" fill="white"/>
</clipPath>
</defs>
</svg>
