<svg width="450" height="159" viewBox="0 0 450 159" fill="none" xmlns="http://www.w3.org/2000/svg">
<g clip-path="url(#clip0_7278_831)">
<path d="M263.043 148.86C254.172 149.538 245.3 150.652 236.45 151.57C227.579 152.488 218.686 153.406 209.792 154.192C192.246 155.766 174.656 157.077 157.066 157.973C147.56 158.454 137.924 158.629 128.659 156.115C128.441 156.05 128.353 156.378 128.572 156.443C136.657 158.781 145.113 159.153 153.482 158.913C162.375 158.672 171.269 158.126 180.14 157.558C197.949 156.421 215.779 154.979 233.522 153.034C243.399 151.963 253.341 150.915 263.13 149.166C263.327 149.123 263.283 148.817 263.087 148.839L263.043 148.86Z" fill="black"/>
<path d="M449.082 69.3604C448.82 67.4593 448.536 65.5581 448.208 63.6788C447.902 61.8868 447.684 60.0512 446.984 58.3904C446.045 56.1833 443.729 52.9491 441.019 54.741C440.866 54.8503 441.019 55.047 441.15 54.9814C443.401 53.9106 445.061 56.227 445.914 58.0189C446.788 59.8545 447.006 61.9524 447.356 63.941C448.121 68.4645 448.732 73.0098 448.951 77.5989C449.41 86.6459 448.208 95.387 444.318 103.604C443.117 102.489 442.374 101.112 442.177 99.4516C442.177 99.3423 441.98 99.3204 441.98 99.4516C442.09 101.331 442.854 102.992 444.187 104.325C444.318 104.456 444.559 104.434 444.646 104.259C448.667 97.5941 449.956 89.4649 449.956 81.7946C449.956 77.6426 449.606 73.5125 449.06 69.3823L449.082 69.3604Z" fill="black"/>
<path d="M367.927 22.7922C367.927 22.7922 367.884 22.7922 367.906 22.8141C369.872 24.7808 371.839 26.7476 373.805 28.7143C373.805 28.7143 373.849 28.7143 373.827 28.6925C371.861 26.7257 369.894 24.759 367.927 22.7922Z" fill="black"/>
<path d="M438.638 105.286C440.626 100.981 442.309 96.5233 443.685 91.9998C443.751 91.8031 443.467 91.7376 443.38 91.9124C440.233 100.522 436.234 108.826 431.361 116.606C428.914 120.496 426.248 124.232 423.364 127.816C423.014 128.253 422.643 128.647 422.293 129.084C420.349 130.329 418.36 131.488 416.284 132.515C416.241 132.515 416.284 132.602 416.328 132.58C418.338 131.597 420.261 130.482 422.14 129.28C421.113 130.526 420.108 131.75 419.037 132.952C418.338 133.76 417.617 134.569 416.874 135.334C416.415 135.814 415.913 136.295 415.301 136.601C414.973 136.754 414.427 136.841 413.924 136.798C414.339 136.645 414.777 136.514 415.192 136.361C415.388 136.295 415.301 135.989 415.104 136.055C414.449 136.273 413.793 136.448 413.16 136.645C412.504 136.383 412.111 135.814 412.635 134.809C412.701 134.678 412.504 134.569 412.438 134.7C412.023 135.421 412.264 136.186 412.788 136.754C401.731 140.141 390.369 142.283 378.897 143.179C377.695 143.113 376.515 143.091 375.314 143.026C372.342 142.195 369.436 140.841 366.966 139.049C370.047 138.874 373.128 138.655 376.166 138.284C376.362 138.262 376.384 137.956 376.166 137.956C372.67 137.869 369.173 137.934 365.677 138.022C365.502 137.869 365.306 137.737 365.131 137.563C365 137.453 364.825 137.628 364.956 137.737C365.044 137.847 365.153 137.912 365.262 138.022C362.771 138.087 360.258 138.174 357.767 138.24C353.703 138.327 349.639 138.393 345.574 138.437C330.781 135.508 315.813 133.411 300.692 132.974C283.124 132.471 265.25 134.197 248.512 139.792C247.769 140.032 247.026 140.338 246.283 140.6C243.049 140.447 239.815 140.119 236.603 139.529C235.139 139.267 233.653 139.005 232.473 138.022C230.594 136.448 232.648 135.312 234.156 134.765C237.499 133.52 240.864 132.362 244.229 131.203C244.47 131.116 244.382 130.723 244.12 130.81C240.733 131.903 237.346 132.974 233.937 133.979C232.233 134.481 229.939 135.421 230.638 137.65C231.337 139.901 234.222 140.556 236.21 140.972C238.351 141.409 240.515 141.693 242.678 141.911C240.515 142.764 238.373 143.703 236.275 144.73C234.374 144.927 232.473 145.124 230.572 145.298C216.304 146.653 201.991 147.309 187.635 147.221C185.865 147.221 184.073 147.221 182.303 147.221C190.367 147.047 198.473 146.675 206.514 145.932C206.755 145.91 206.777 145.539 206.514 145.539C194.999 145.714 183.505 145.998 171.99 146.041C170.482 145.451 169.127 144.555 168.253 143.113C168.122 142.917 167.816 143.091 167.925 143.31C168.537 144.49 169.39 145.364 170.395 146.041C168.166 146.041 165.937 146.041 163.73 146.041C152.87 145.954 142.032 145.583 131.172 144.993C132.964 144.381 134.646 143.528 136.023 142.108C136.176 141.955 135.936 141.715 135.783 141.868C133.794 143.638 131.281 144.359 128.725 144.84C126.146 144.687 123.546 144.534 120.968 144.381C117.034 144.118 113.123 143.834 109.19 143.528C105.65 143.244 102.11 142.764 99.1385 140.709C98.9855 140.6 98.7889 140.841 98.9418 140.972C100.974 142.829 103.596 143.66 106.262 144.097C109.518 144.621 112.839 144.861 116.117 145.124C118.455 145.32 120.793 145.495 123.131 145.67C122.41 145.757 121.689 145.888 120.968 145.954C120.487 145.954 119.984 145.954 119.504 145.954C112.664 145.845 105.847 145.583 99.0292 145.189C96.1449 145.014 93.2606 144.861 90.3762 144.621C91.1192 144.402 91.8621 144.228 92.605 143.965C92.8454 143.878 92.758 143.507 92.4958 143.572C91.0973 143.9 89.6988 144.162 88.3004 144.424C85.6564 144.162 83.0343 143.856 80.434 143.397C77.3749 142.829 74.3376 142.064 71.4751 140.797C70.0548 140.163 68.6782 139.442 67.3671 138.612C67.0175 138.371 65.7283 137.781 65.619 137.388C65.466 136.798 67.1049 135.203 67.4545 134.787C67.5638 134.634 67.3671 134.438 67.2578 134.591C66.5368 135.465 65.8157 136.339 65.0509 137.191C64.9853 137.279 64.9635 137.41 65.0509 137.475C69.9018 142.305 76.6756 144.25 83.6024 145.211C82.7065 145.342 81.8106 145.495 80.9147 145.604C72.7643 144.446 64.7013 142.611 56.8786 140.119C53.6884 139.114 50.0611 138.218 47.2423 136.383C45.9094 135.508 44.7076 134.285 44.4235 132.646C44.1176 130.898 44.7076 128.953 46.4994 128.297C46.6742 128.232 46.6086 127.947 46.412 127.991C44.4235 128.625 43.5276 130.745 43.7461 132.733C44.0302 135.399 46.2808 137.126 48.5315 138.218C51.6999 139.748 55.1305 140.819 58.4737 141.868C62.0573 143.004 65.6627 143.987 69.3337 144.84C70.1859 145.036 71.0381 145.189 71.8903 145.386C72.7424 145.626 73.5728 145.888 74.425 146.129C69.29 146.369 64.1113 146.216 58.9763 145.561C52.268 144.687 45.7127 143.048 39.4196 140.644C38.9826 138.677 38.5674 136.689 38.0867 134.744C37.9993 134.438 37.4749 134.481 37.5186 134.831C37.7152 136.623 37.9556 138.415 38.2178 140.207C34.8965 138.896 31.6407 137.344 28.4941 135.618C25.8283 132.733 23.5995 129.215 21.6547 126.374C20.3218 124.407 19.0108 122.419 17.7871 120.386C17.8745 120.19 17.9401 119.993 18.0493 119.796C18.1586 119.622 17.8745 119.469 17.7653 119.643C17.6779 119.775 17.6342 119.884 17.5468 120.015C14.4658 114.923 11.7344 109.613 9.74594 103.997C9.72409 103.931 9.70224 103.844 9.68038 103.778C9.9863 103.757 10.3141 103.538 10.3578 103.145C10.5763 101.309 10.8385 99.4734 11.0788 97.6596C11.0788 97.7034 11.1226 97.7471 11.1226 97.7908C11.0351 100.719 11.21 103.669 11.7125 106.619C11.7344 106.794 11.9966 106.707 11.9747 106.554C11.5814 103.975 11.4285 101.353 11.4722 98.7304C11.7999 99.6045 12.1058 100.479 12.4555 101.353C15.3398 108.367 19.0545 115.033 23.4902 121.173C25.9812 124.604 28.6471 128.057 31.6844 131.029C32.1432 131.488 32.9954 131.029 32.7988 130.373C31.2255 125.391 28.8219 120.998 24.845 117.524C24.692 117.371 24.4517 117.611 24.6046 117.764C27.5108 120.583 29.8926 124.232 30.9851 128.188C28.3193 125.107 25.719 122.004 23.381 118.638C20.737 114.792 18.3552 110.771 16.2794 106.597C14.5313 103.101 12.9799 99.4953 11.6688 95.824C12.237 88.7875 14.3347 81.882 17.8745 75.7851C17.9838 75.6103 17.7216 75.4573 17.6123 75.6322C15.5583 79.0193 13.985 82.6469 12.8925 86.3837C13.7884 81.3794 14.7935 76.397 15.9735 71.4583C17.6997 68.0274 19.5789 64.684 21.611 61.4279C25.5661 55.0907 29.98 48.7534 35.2024 43.3995C36.2731 42.3068 37.453 41.2579 38.7641 40.3838C39.9878 41.1487 41.2988 41.8042 42.7628 42.2413C43.1562 42.3506 43.7243 42.0228 43.6587 41.5639C43.615 41.2579 43.5713 40.9738 43.5495 40.6679C45.6909 43.2465 49.1433 44.7106 52.4647 44.2736C52.858 44.7981 53.295 45.257 53.8413 45.5847C54.7372 46.1092 55.6768 46.1966 56.5945 45.9999C56.966 46.2622 57.3375 46.5244 57.7089 46.7648C52.6832 45.3881 47.4608 44.7762 42.2166 45.1477C41.561 45.1914 41.5829 46.0655 42.2166 46.1529C46.0842 46.5681 49.9518 47.5296 53.5572 49.0812C53.7321 49.9771 54.1691 50.7201 54.6279 51.4631C53.885 51.2446 53.1639 51.0479 52.421 50.8294C48.9685 49.8242 45.5161 48.7971 42.0636 47.77C41.6921 47.6608 41.3644 48.0104 41.4518 48.3819C42.6973 52.8617 47.2423 55.0032 51.241 56.5111C52.8143 57.1011 55.4583 57.8878 56.0264 55.5933C56.376 54.2166 55.7642 53.0802 55.065 51.9439C57.119 52.4683 59.1511 52.9928 61.1614 53.5828C61.2488 53.6047 61.3362 53.4736 61.2488 53.408C57.0971 49.9553 52.3336 47.4204 47.1767 46.0655C51.7436 46.1966 56.2886 46.9833 60.5933 48.4912C62.4725 49.4964 64.4172 50.3923 66.4275 51.0698C66.9301 51.2446 67.3015 50.436 66.799 50.1957C65.7501 49.693 64.7013 49.2341 63.6306 48.7971C61.6421 47.8356 59.7411 46.7429 57.9274 45.4973C58.43 45.2133 58.9107 44.8418 59.3041 44.4047C60.1344 43.5087 60.6807 42.438 60.921 41.2798C62.101 42.5035 63.2591 43.7273 64.4609 44.9292C66.7553 47.2237 69.5522 48.9501 72.5239 46.6774C74.272 45.3444 75.1679 43.5306 75.6486 41.542C76.1075 41.1705 76.5008 40.6898 76.7412 40.0997C77.7682 41.8916 78.7515 43.7273 79.6911 45.5629C79.6911 45.5629 79.6911 45.5847 79.6911 45.6066C79.3415 48.2289 79.0137 50.8731 78.6641 53.4954C78.0304 52.818 77.506 52.0968 77.2438 51.6816C76.7193 50.9168 76.2823 50.1083 75.9327 49.256C75.6049 48.2071 75.2772 47.1581 74.9713 46.1092C74.7746 45.4536 73.8131 45.7159 73.9443 46.3933C74.1409 47.4641 74.4468 48.513 74.862 49.4964C75.889 52.9054 76.8941 56.3363 77.8993 59.7453C78.0522 60.2479 78.97 60.3571 79.0355 59.7453C79.2322 58.3686 79.3852 56.97 79.5818 55.5933C79.9314 55.7681 80.3029 55.8992 80.6744 55.9211C83.8646 56.2051 83.668 51.8565 82.9687 49.8679C82.4443 48.3819 81.6577 46.9396 80.871 45.541C80.9366 45.0603 81.0021 44.5577 81.0677 44.0769C81.6358 39.5097 82.4006 34.8988 82.5973 30.2879C82.8813 30.572 83.1435 30.8561 83.4057 31.1183C86.8145 34.7021 89.2837 39.1819 90.1577 44.0551C90.1577 44.0988 90.2233 44.0769 90.2233 44.0551C89.6114 39.9249 88.1693 35.9914 85.7438 32.5824C85.0883 31.6646 83.9739 30.1131 82.6628 28.9112C82.6628 28.8675 82.6628 28.8456 82.6628 28.8019C86.9675 29.5667 91.2721 30.3316 95.5768 31.009C96.0793 31.0964 96.2979 30.3316 95.7953 30.2442C89.24 28.9112 82.641 27.7311 76.0638 26.5511C75.7579 26.4855 75.3646 26.6822 75.4083 27.0537C75.4738 28.1026 75.736 29.086 76.1731 30.0038C75.6049 31.315 75.3864 32.8228 75.299 34.3525C75.0587 34.4836 74.8183 34.6366 74.5779 34.7677C72.2617 31.162 69.7925 27.6656 67.1267 24.3003C67.0175 24.1691 66.7771 24.344 66.8864 24.4969C69.3337 27.9715 71.6717 31.5335 73.8787 35.1829C73.1358 35.6199 72.3928 36.057 71.628 36.4722C70.8633 36.9311 70.5136 37.3463 70.3825 38.2641C70.2951 38.9852 70.4262 39.7501 70.7321 40.4057C71.4969 42.0009 73.0702 42.4598 74.4468 42.0883C73.2013 45.4318 70.3388 48.4911 66.799 45.847C64.7013 44.2954 62.8876 42.2194 61.0303 40.3838C61.074 39.5971 60.9866 38.8104 60.7244 38.0456C59.8285 35.4888 57.7745 33.6095 55.6331 32.0798C54.6716 31.3805 53.6446 30.6812 52.5739 30.1131C52.6832 29.7634 52.7706 29.4138 52.9017 29.0641C52.9673 28.8893 52.7051 28.8019 52.6176 28.9549C52.4428 29.2608 52.3117 29.6104 52.1588 29.9382C51.1318 29.4356 50.0829 29.0641 48.9248 28.9549C46.9145 28.7582 44.8824 29.7634 44.8824 32.0361C44.8824 32.5824 45.0353 33.1069 45.232 33.6095C44.358 34.2651 43.5058 34.9206 42.6317 35.5762C42.1947 35.2266 41.4081 35.3796 41.4736 36.0788C41.4736 36.1881 41.4955 36.2974 41.5173 36.4066C40.534 37.1496 39.5507 37.8926 38.5674 38.6356C36.1638 36.9311 34.2191 34.6147 32.5147 32.1454C33.1047 31.905 33.6947 31.6427 34.2846 31.4461C34.4157 31.4024 34.372 31.1838 34.2191 31.2275C33.5636 31.4242 32.9299 31.6427 32.2962 31.8613C31.1599 30.2223 30.1329 28.496 29.1496 26.857C28.8437 26.3544 27.9478 26.3981 27.8167 27.0318C27.2923 29.6979 26.4838 32.2765 25.3913 34.724C23.6869 35.5762 22.0044 36.494 20.4092 37.4993C19.6882 36.0788 18.9671 34.6366 18.246 33.2161C17.8308 32.4076 16.8038 32.9102 16.7164 33.6313C16.4542 35.9477 16.2138 38.286 15.9516 40.6242C15.3398 41.105 14.7498 41.5639 14.1598 42.0665C13.111 42.8095 12.1495 43.6399 11.3192 44.6451C10.8385 45.2133 11.6033 46.0218 12.1495 45.4755C12.9799 44.6669 13.8102 43.8802 14.6843 43.1154C15.012 42.8532 15.4054 42.6565 15.755 42.438C15.5802 43.9021 15.4272 45.3662 15.2742 46.8303C10.2704 54.6099 5.13537 62.302 0.240742 70.1471C-0.0433217 70.606 0.437401 71.2616 0.961825 71.0868C1.98882 70.759 2.95027 70.2346 3.82431 69.6008C2.25104 74.168 1.26774 78.9319 1.00553 83.7395C0.961825 84.4169 1.79216 84.6136 2.22918 84.2421C3.80246 82.9747 5.26648 81.5542 6.66494 80.112C6.75235 81.3357 6.92716 82.5813 7.16752 83.8051C6.92716 86.0559 6.79605 88.3504 6.7742 90.6231C6.59939 90.4701 6.40273 90.339 6.24977 90.186C6.09682 90.0331 5.81275 90.1423 5.81275 90.3609C5.81275 91.4972 5.90016 92.6554 6.03126 93.8136C5.55054 95.4307 5.09167 97.0696 4.6765 98.7086C2.51325 107.45 1.18034 116.475 1.02738 125.478C1.02738 125.784 1.28959 126.046 1.57365 126.024C3.86801 125.981 5.26648 124.101 5.11352 121.916C5.11352 121.632 4.6328 121.61 4.65465 121.916C4.74205 123.402 3.54025 124.604 2.16363 124.866C2.64435 115.295 4.08652 105.854 6.49013 96.6544C6.64309 97.4411 6.83975 98.206 7.03641 98.9708C7.47343 105.199 8.43488 111.383 10.1393 117.371C11.2537 121.304 12.7177 125.15 14.4876 128.8C10.8822 125.194 7.64824 121.239 5.00426 116.846C4.93871 116.715 4.74205 116.846 4.80761 116.956C7.69194 121.916 11.2537 126.374 15.2742 130.351C20.89 141.168 29.4993 150.237 41.0366 155.154C49.4274 158.716 58.7359 159.787 67.5856 157.383C67.7823 157.339 67.6949 157.033 67.4982 157.077C51.7436 160.923 35.0057 153.799 24.3861 142.108C21.6329 139.07 19.273 135.727 17.2627 132.209C23.0095 137.453 29.5867 141.802 36.6883 145.124C51.6781 152.16 68.3941 154.477 84.8479 153.952C90.6821 153.755 96.4727 153.187 102.263 152.379C108.556 153.428 114.915 154.258 121.295 154.848C141.005 156.662 160.868 156.378 180.49 153.908C190.738 152.619 200.877 150.652 210.885 148.117C218.489 147.79 226.093 147.265 233.653 146.479C233.216 146.937 232.845 147.462 232.648 148.074C229.545 148.358 226.464 148.62 223.383 148.926C213.835 149.844 204.307 150.893 194.802 152.007C194.649 152.007 194.627 152.269 194.802 152.269C207.367 150.98 219.931 149.866 232.517 148.817C232.473 149.56 232.801 150.084 233.632 150.172C233.806 150.172 233.85 149.888 233.675 149.844C232.998 149.735 232.889 149.276 232.998 148.773C254.281 147.025 275.607 145.583 296.934 144.468C306.505 143.965 316.075 143.55 325.646 143.157C325.777 143.157 325.799 142.938 325.646 142.938C294.814 143.507 263.983 145.277 233.26 148.03C233.304 147.943 233.347 147.855 233.391 147.79C233.784 147.156 234.287 146.719 234.877 146.369C239.684 145.845 244.491 145.255 249.255 144.512C253.145 143.9 257.034 143.157 260.836 142.152C262.737 142.042 264.616 141.911 266.495 141.78C273.706 141.256 280.939 140.688 288.15 140.098C291.296 139.835 294.443 139.551 297.589 139.267C304.691 139.573 311.793 139.704 318.872 139.792C328.902 139.945 338.932 139.879 348.939 139.66C350.6 139.966 352.261 140.25 353.943 140.578C354.162 140.622 354.249 140.294 354.031 140.25C353.047 140.032 352.064 139.835 351.081 139.639C352.523 139.595 353.987 139.595 355.429 139.551C359.1 139.442 362.771 139.333 366.464 139.158C368.256 140.731 370.2 141.999 372.298 142.96C362.094 142.501 351.889 142.086 341.685 141.715C339.478 141.343 337.293 140.928 335.108 140.447C334.977 140.425 334.933 140.622 335.042 140.644C336.594 141.015 338.145 141.321 339.696 141.649C334.299 141.452 328.924 141.278 323.527 141.103C317.102 140.884 310.569 140.797 304.451 143.157C304.21 143.244 304.32 143.616 304.56 143.528C310.176 141.54 316.163 141.627 322.041 141.868C328.268 142.108 334.474 142.414 340.702 142.654C342.537 142.72 344.394 142.785 346.23 142.851C356.259 144.468 366.442 145.036 376.581 144.468C377.346 144.665 378.132 144.818 378.941 144.927C382.24 145.408 385.802 145.255 389.08 144.315C392.685 144.402 396.269 144.512 399.852 144.599C400.071 144.599 400.049 144.293 399.852 144.271C396.771 144.097 393.69 143.965 390.631 143.812C391.636 143.441 392.62 142.96 393.537 142.392C394.98 142.13 396.4 141.889 397.82 141.562C403.043 140.403 408.178 138.917 413.225 137.126C413.247 137.126 413.269 137.169 413.291 137.191C414.514 138.022 415.869 137.344 416.874 136.514C419.977 133.979 422.665 130.526 425.134 127.357C428.783 124.713 432.17 121.698 435.164 118.31C435.207 118.267 435.142 118.201 435.098 118.245C432.148 121.566 428.87 124.538 425.287 127.139C430.575 120.408 435.098 113.109 438.703 105.352L438.638 105.286ZM55.4583 53.6484C55.5457 54.151 55.5675 54.741 55.3927 55.2436C54.912 56.4892 53.6883 56.38 52.6395 56.0522C51.831 55.7899 51.0444 55.4622 50.2796 55.1344C47.1767 53.8669 43.9209 52.075 42.588 48.8845C46.6305 49.8679 50.6948 50.8075 54.7372 51.8128C55.065 52.3809 55.3709 52.9709 55.502 53.6484H55.4583ZM59.5007 52.4028C59.7411 52.5776 60.047 52.7306 60.2437 52.9491C60.7681 53.4954 60.0907 53.0802 59.7411 52.9928C58.867 52.7524 58.0149 52.4465 57.1627 52.2061L54.6498 51.485C54.1691 50.7201 53.732 49.9334 53.5354 49.103C55.6331 49.999 57.6215 51.1135 59.4789 52.4246L59.5007 52.4028ZM78.0959 56.7515C77.7463 55.637 77.4186 54.5225 77.0689 53.408C77.4404 53.8888 77.8774 54.3695 78.3363 54.7847C78.2489 55.4403 78.1615 56.0959 78.0741 56.7515H78.0959ZM81.9199 50.5672C82.2258 51.6379 82.5536 53.561 81.6358 54.4569C81.0458 55.047 80.3029 54.8503 79.6037 54.3695C79.9096 52.0094 80.2155 49.6712 80.5214 47.3111C81.0895 48.36 81.614 49.4527 81.9417 50.5672H81.9199ZM76.763 31.2275C77.1127 31.7302 77.5278 32.2328 77.9867 32.6698C77.4186 32.9976 76.8286 33.3473 76.2605 33.675C76.3479 32.8446 76.5227 32.0361 76.763 31.2494V31.2275ZM76.0638 37.0404C76.0857 36.3629 76.1075 35.6855 76.1512 34.9862L79.1229 33.2161C79.4944 32.9976 79.4289 32.5387 79.1229 32.2983C78.2926 31.6646 77.6808 30.8779 77.2001 29.9819C77.3967 29.5667 77.6152 29.1515 77.8993 28.8238C78.7515 27.9059 79.6255 28.0371 80.587 28.6052C81.0458 28.8893 81.461 29.239 81.8762 29.6323C80.871 34.1558 80.4122 38.8541 79.8222 43.4432C79.8222 43.5306 79.8003 43.6399 79.7785 43.7273C79.7566 43.6836 79.7348 43.6399 79.7129 43.5962C78.5548 41.4327 77.3093 39.313 76.0419 37.237C76.0419 37.1715 76.0419 37.0841 76.0419 37.0185L76.0638 37.0404ZM73.1576 41.1924C71.9995 40.8646 71.0818 39.466 71.4095 38.2641C71.6717 37.3463 73.2013 36.6252 74.272 36.1007C74.5342 36.5377 74.7964 36.9966 75.0586 37.4337C75.0586 38.1111 75.015 38.7449 74.9713 39.3349C74.9276 39.9031 74.7964 40.5149 74.6216 41.1268C74.1628 41.2798 73.6602 41.3453 73.1576 41.2142V41.1924ZM43.4184 38.1548C44.1395 37.98 44.8824 37.8708 45.6472 37.8489C46.4338 37.8489 47.2423 37.9145 48.0508 38.0674C48.4004 38.5045 48.7719 38.9634 49.1433 39.4004C49.7333 40.0779 50.3233 40.7116 50.957 41.3453C51.0881 41.8698 51.2629 42.3506 51.4814 42.8313C48.2256 42.9843 44.8387 41.1049 43.3965 38.1548H43.4184ZM53.7758 42.3506C53.1639 41.8042 52.5521 41.2361 51.9621 40.646C51.8747 40.2746 51.8092 39.9249 51.7436 39.5753C52.7051 40.2527 53.4917 41.1487 54.0161 42.2413C53.9287 42.285 53.8413 42.3287 53.7539 42.3506H53.7758ZM52.0714 31.162C53.9287 32.1672 55.8079 33.4565 57.3156 34.9644C58.4737 36.1225 59.5007 37.6304 59.7629 39.2693C57.84 37.4556 55.9172 35.6418 53.9724 33.8499C53.9069 33.7843 53.7976 33.8936 53.8632 33.9591C55.8516 36.057 57.8182 38.1548 59.8066 40.2308C59.8066 40.5149 59.7411 40.8209 59.6755 41.1049C59.3259 42.5254 58.1897 44.1425 56.7256 44.7106C56.1357 44.2954 55.5894 43.8147 55.0213 43.3776C55.1305 43.3121 55.2616 43.2684 55.3927 43.2028C55.6549 43.0498 55.8298 42.6783 55.7205 42.3724C54.8902 40.1653 53.3606 38.6793 51.5032 37.7615C51.2847 35.5107 51.5251 33.3036 52.0714 31.162ZM50.1266 30.3097C50.6292 30.4846 51.1099 30.6812 51.5251 30.8779C50.7385 32.9321 50.4107 35.1392 50.4544 37.3244C49.8426 37.1059 49.2089 36.9529 48.5752 36.8655C47.7886 35.9259 46.7834 34.6366 46.259 33.391C47.5482 32.3639 48.8374 31.3368 50.1266 30.3316V30.3097ZM46.4994 30.5501C47.2641 29.8508 48.4223 29.8727 49.5585 30.1568C48.3785 31.0527 47.2204 31.9268 46.0405 32.8228C45.8001 31.9487 45.8657 31.162 46.4994 30.5501ZM45.3194 34.134C45.6035 34.6803 45.9312 35.1829 46.259 35.6636C46.4994 36.0133 46.7834 36.3629 47.0238 36.7126C45.6909 36.6689 44.3361 36.8655 43.0469 37.237C42.9376 36.8874 42.8502 36.5159 42.7847 36.1225C43.6369 35.4451 44.4672 34.7895 45.3194 34.1121V34.134ZM41.6921 38.6793C41.7577 39.2475 41.8451 39.8156 41.9106 40.3838C41.2333 40.1216 40.5777 39.8156 39.9441 39.466C40.5122 39.1601 41.0803 38.8978 41.6921 38.6575V38.6793ZM86.6397 145.583C89.9611 145.932 93.2387 146.107 96.2979 146.326C100.165 146.61 104.055 146.806 107.944 146.981C104.186 147.112 100.406 147.134 96.6475 147.003C92.5832 146.872 88.5407 146.544 84.4983 146.063C85.2194 145.91 85.9186 145.736 86.6397 145.583ZM17.0879 121.938C18.1367 123.642 19.2293 125.325 20.3655 126.986C21.917 129.259 23.5121 131.575 25.2383 133.76C20.9774 131.072 16.0609 126.964 17.1097 121.916L17.0879 121.938ZM10.7292 87.7385C10.5763 89.1371 10.4015 90.5138 10.2485 91.9124C9.81149 90.4701 9.39632 89.006 9.02485 87.5637C9.70224 85.5533 10.4233 83.5647 11.21 81.5979C11.2755 81.4231 11.3629 81.2701 11.4285 81.0953C11.1881 83.3024 10.9696 85.5314 10.7292 87.7385ZM11.7999 77.5333C10.62 80.2212 9.54928 82.9528 8.54413 85.7062C8.30377 84.7229 8.06341 83.7614 7.82305 82.778C7.99786 81.1827 8.19451 79.5875 8.50043 77.9922C9.85519 76.4626 11.1007 74.8455 12.2588 73.1847C12.1058 74.6269 11.9529 76.0692 11.7999 77.5333ZM13.985 72.8787C13.8102 73.2284 13.6354 73.578 13.4606 73.9277C13.5917 72.8787 13.7228 71.8079 13.8321 70.759C14.2254 70.1253 14.5969 69.4697 14.9683 68.8141C14.6187 70.169 14.2909 71.502 13.9632 72.8569L13.985 72.8787ZM28.6689 29.0423C29.3245 30.1349 30.0237 31.2275 30.7666 32.2983C29.5648 32.7354 28.3849 33.2161 27.2268 33.7406C27.8167 32.2109 28.2975 30.6375 28.6689 29.0423ZM24.6702 35.8166C23.8617 37.4774 22.9221 39.0508 21.8514 40.5805C21.4799 39.8156 21.0866 39.0727 20.7152 38.3078C22.0044 37.4119 23.3373 36.5814 24.692 35.7948L24.6702 35.8166ZM17.8964 36.3192L18.9234 38.3078C18.4645 38.6137 18.0056 38.9415 17.5686 39.2693C17.6779 38.286 17.7871 37.3026 17.9182 36.3411L17.8964 36.3192ZM17.3064 41.4546C17.8527 41.2142 18.3771 40.952 18.9452 40.7772C18.3115 41.7824 17.6779 42.7658 17.0442 43.771C17.1316 43.0061 17.219 42.2194 17.3064 41.4546ZM16.2138 50.8731C16.8038 50.1957 17.3719 49.5182 17.9838 48.8845C18.2023 48.6441 17.8745 48.3163 17.6342 48.5349C17.1753 48.9282 16.782 49.3871 16.3449 49.7805C16.3886 49.4964 16.4105 49.2123 16.4542 48.9282C16.5635 47.9667 16.6727 47.0052 16.782 46.0437C17.9182 44.2736 19.0326 42.5035 20.1907 40.7553C20.4966 41.3453 20.8026 41.9354 21.0866 42.5254C21.3925 43.0935 22.1136 42.9624 22.4414 42.5254C24.2769 40.0779 25.7627 37.39 26.9208 34.571C28.2538 33.8717 29.6304 33.238 31.007 32.648C32.7988 35.2266 34.8309 37.6304 37.3001 39.466C31.9029 43.5962 26.5494 47.7919 21.327 52.1405C21.1959 52.2498 21.3707 52.4683 21.5018 52.3591C27.0738 48.36 32.5366 44.1862 37.9556 39.9468C35.705 41.6513 33.7165 43.7491 31.881 45.847C29.3026 48.7971 26.8553 51.8565 24.5828 55.047C21.7421 59.0241 19.1637 63.198 16.8038 67.503C17.2627 65.7111 17.7434 63.9191 18.2241 62.1272C19.4696 58.9804 20.4529 55.7244 21.1303 52.3809C21.2833 51.5942 20.1907 51.2883 19.9285 52.0531C18.7923 55.5059 17.7216 58.9804 16.7164 62.4987C15.9735 64.2469 15.1431 65.9296 14.2254 67.5685C14.9028 62.018 15.5583 56.4674 16.2138 50.8949V50.8731ZM2.20733 69.1419C6.51199 62.4987 10.6637 55.7462 14.8809 49.0375C14.7935 49.846 14.7061 50.6327 14.6187 51.4413C10.0956 56.1614 6.62124 61.8213 4.26133 67.94C3.62765 68.3989 2.95027 68.7923 2.20733 69.1201V69.1419ZM2.4914 81.9257C2.97212 76.8122 4.21763 71.8735 6.09682 67.1752C6.57754 66.5633 6.99271 65.9296 7.34232 65.274C7.47343 65.0336 7.12381 64.8369 6.99271 65.0773C6.97086 65.121 6.94901 65.1429 6.9053 65.1866C8.8719 60.8161 11.4066 56.7078 14.4439 52.9272C13.8102 58.7401 13.1765 64.531 12.5647 70.3438C11.5159 71.9828 10.3578 73.578 9.13411 75.0858C10.0081 71.6113 11.2755 68.2678 13.111 65.1429C13.1765 65.0336 13.0236 64.9462 12.958 65.0555C10.7948 68.4863 9.35262 72.2013 8.36932 76.0474C6.57754 78.1452 4.61095 80.112 2.51325 81.9257H2.4914ZM7.47343 94.4692C7.47343 93.8136 7.47343 93.158 7.45158 92.5024C7.51713 92.262 7.60454 91.9998 7.69194 91.7594C7.976 91.9561 8.23822 92.1309 8.52228 92.3276C8.63154 92.415 8.74079 92.2183 8.63154 92.1309C8.34747 91.9124 8.06341 91.6939 7.77935 91.4972C7.976 90.8635 8.17266 90.2516 8.39117 89.6179C8.45673 89.8801 8.54413 90.1642 8.60968 90.4483C9.003 91.8687 9.46187 93.2454 9.92074 94.644C9.57113 97.0915 9.26521 99.5608 9.02485 102.008C8.50043 100.304 8.04156 98.5993 7.64824 96.873C7.60454 96.0863 7.53898 95.2777 7.51713 94.491L7.47343 94.4692ZM61.6203 151.658C46.9801 149.341 32.6458 143.834 20.9118 134.634C19.3385 133.411 17.8308 132.121 16.3668 130.766C11.8218 122.288 9.26521 112.738 8.12896 103.145C8.12896 103.145 8.12896 103.145 8.12896 103.167C9.48372 107.362 11.2755 111.427 13.2858 115.317C14.3565 117.393 15.5146 119.403 16.7164 121.392C15.3179 125.653 18.3552 130.133 21.7421 132.777C23.5995 134.219 25.5879 135.487 27.6419 136.645C27.773 136.776 27.8823 136.929 28.0134 137.06C30.8759 140.076 34.5905 142.698 38.9171 142.458C39.1574 142.458 39.3541 142.305 39.4415 142.13C49.93 146.085 61.2051 148.008 72.3928 147.571C74.2502 147.506 76.1293 147.353 77.9867 147.134C85.2631 149.079 92.6269 150.718 100.056 152.007C87.2734 153.428 74.3376 153.646 61.5984 151.658H61.6203ZM154.181 154.804C137.902 155.241 121.623 154.236 105.519 151.854C108.6 151.373 111.659 150.849 114.718 150.259C114.915 150.215 114.828 149.931 114.631 149.953C111.004 150.587 107.333 151.111 103.662 151.592C101.04 151.177 98.4174 150.762 95.7953 150.281C90.4636 149.297 85.132 148.161 79.8222 146.894C79.8222 146.894 79.844 146.894 79.8659 146.894C85.3505 147.724 90.8788 148.249 96.429 148.445C114.675 150.019 132.986 150.696 151.275 150.499C158.289 150.434 165.325 150.128 172.339 149.778C172.536 149.778 172.558 149.45 172.339 149.45C150.685 150.019 129.009 149.625 107.376 148.38C109.649 148.27 111.899 148.139 114.15 147.921C115.855 147.768 117.559 147.549 119.263 147.331C125.272 147.44 131.281 147.44 137.29 147.331C141.18 147.265 145.069 147.178 148.959 147.047C157 147.309 165.063 147.353 173.104 147.309C175.857 148.161 179.026 148.205 181.692 148.292C189.208 148.533 196.747 148.554 204.264 148.336C205.728 148.292 207.192 148.205 208.656 148.161C190.738 152.051 172.492 154.302 154.138 154.804H154.181ZM252.008 142.742C247.682 143.419 243.333 143.965 238.963 144.468C239.728 144.14 240.493 143.791 241.258 143.485C242.438 143.004 243.661 142.589 244.863 142.152C245.278 142.174 245.693 142.239 246.108 142.261C248.818 142.414 251.506 142.414 254.215 142.348C253.472 142.479 252.729 142.632 252.008 142.742ZM339.325 138.546C328.334 138.655 317.365 138.546 306.374 138.306C308.406 138.087 310.416 137.912 312.448 137.672C312.798 137.628 312.82 137.104 312.448 137.104C306.57 137.344 300.714 137.65 294.858 138C290.532 137.869 286.227 137.737 281.9 137.759C281.682 137.759 281.704 138.065 281.9 138.087C283.605 138.262 285.309 138.371 287.014 138.524C282.622 138.808 278.251 139.092 273.859 139.42C271.652 139.595 269.423 139.77 267.195 139.945C268.702 139.355 270.21 138.721 271.674 138C271.849 137.912 271.718 137.606 271.543 137.672C269.03 138.677 266.452 139.486 263.852 140.185C258.935 140.535 253.975 140.775 249.058 140.688C250.216 140.316 251.375 139.923 252.555 139.573C260.465 137.279 268.571 135.771 276.765 134.918C293.066 133.236 309.52 134.044 325.755 136.033C331.327 136.71 336.878 137.541 342.428 138.459C341.401 138.459 340.352 138.502 339.325 138.502V138.546ZM352.916 143.091C352.523 143.048 352.108 143.004 351.714 142.96C357.702 143.179 363.667 143.397 369.654 143.616C364.082 143.725 358.51 143.572 352.916 143.091Z" fill="black"/>
<path d="M166.461 68.4644C166.308 68.3552 166.111 68.4207 165.936 68.4426C165.74 68.4644 165.543 68.5081 165.368 68.53C164.975 68.5737 164.582 68.53 164.188 68.4644C163.467 68.3115 162.768 68.0055 162.222 67.5248C162.222 67.2188 162.178 66.9347 162.222 66.6288C162.287 66.2792 162.375 65.9295 162.528 65.6236C162.855 64.968 163.402 64.3998 164.035 64.0283C164.145 63.9628 164.035 63.8098 163.948 63.8754C162.768 64.4654 161.872 65.6673 161.588 66.9566C161.523 67.2844 161.37 67.7651 161.61 68.0274C161.85 68.2678 162.134 68.4863 162.418 68.6611C163.03 69.0326 163.708 69.2293 164.429 69.273C164.822 69.2948 165.215 69.273 165.587 69.2074C165.893 69.1419 166.461 69.0544 166.548 68.683C166.57 68.5955 166.548 68.5081 166.461 68.4644Z" fill="black"/>
<path d="M190.366 59.2862C190.301 59.0677 190.017 59.1333 189.995 59.3299C189.842 60.7285 189.929 62.1926 190.039 63.6349C185.013 60.1603 181.495 54.8501 180.315 48.8188C180.184 48.1632 179.31 48.4036 179.244 48.9718C178.654 54.3475 178.851 59.767 179.834 65.099C176.447 61.4715 170.81 60.3789 166.308 62.6952C166.243 62.739 166.308 62.8264 166.374 62.8045C171.269 60.6192 177.518 62.6297 180.249 67.2406C180.555 67.7432 181.255 67.3936 181.167 66.8472C180.206 61.996 179.856 57.101 180.118 52.1841C181.91 57.5599 185.559 62.2145 190.388 65.2302C190.716 65.4268 191.284 65.1864 191.219 64.7494C191 62.9575 190.869 61.0126 190.366 59.2862Z" fill="black"/>
<path d="M204.132 54.3695C203.411 51.3538 202.515 48.2945 200.942 45.5847C200.81 45.3662 200.505 45.5192 200.548 45.7595C201.248 48.7097 202.275 51.5724 202.996 54.5006C203.651 57.1448 204.066 59.8327 204.416 62.5205C202.777 61.4061 201.116 60.3134 199.478 59.1771C199.303 59.0678 199.106 59.33 199.259 59.4612C201.095 60.969 202.886 62.5424 204.744 64.0065C205.071 64.2688 205.705 64.1376 205.661 63.635C205.443 60.5101 204.853 57.3852 204.132 54.3476V54.3695Z" fill="black"/>
<path d="M94.8554 68.7267C94.1125 67.1096 93.1729 65.5581 92.3207 63.9628C92.2333 63.8099 91.9929 63.9191 92.0366 64.0721C92.5174 65.4488 92.9544 66.8692 93.457 68.246C86.8143 66.9348 79.9312 66.8037 73.2448 67.6778C72.7859 67.7433 72.4144 68.2897 72.8296 68.683C76.588 72.1357 81.3734 75.501 86.4646 76.4844C86.5739 76.5063 86.6613 76.3533 86.552 76.2877C84.3451 75.0421 82.0289 73.9932 79.8875 72.6383C78.052 71.4802 76.3476 70.1471 74.7088 68.7267C81.2422 68.0493 87.7538 68.3771 94.2218 69.579C94.7462 69.6664 95.0958 69.1856 94.8773 68.7267H94.8554Z" fill="black"/>
<path d="M376.865 39.0943C370.178 33.6967 361.35 30.5718 352.632 30.2658C351.67 29.654 350.731 29.0202 349.791 28.3865C349.157 24.2126 348.567 20.0388 347.977 15.8649C347.977 15.7338 347.759 15.7775 347.759 15.8868C348.087 19.8858 348.524 23.863 349.026 27.8402C348.72 27.6217 348.414 27.425 348.13 27.1846C348.021 27.0972 347.868 27.2939 347.977 27.3813C348.327 27.6654 348.72 27.9057 349.07 28.1898C349.157 28.8891 349.245 29.5665 349.354 30.2658C348.502 30.3095 347.65 30.3532 346.819 30.4625C346.426 30.5062 346.295 31.0307 346.645 31.1836C346.229 31.7518 345.902 32.3637 345.574 32.9974C345.18 32.3855 344.94 31.6863 344.962 30.8996C344.962 30.7247 344.7 30.7247 344.7 30.8996C344.634 31.8174 344.896 32.6478 345.377 33.3689C344.984 34.1993 344.678 35.0516 344.481 35.9257C341.968 34.396 339.324 33.063 336.571 32.0359C331.458 28.6487 325.842 26.0264 319.986 24.4093C319.637 24.3001 319.374 24.759 319.637 25.0212C320.817 26.2449 321.931 27.5124 323.045 28.8017C323.155 28.9328 323.351 28.7361 323.242 28.605C322.434 27.578 321.669 26.5509 320.904 25.5019C325.012 26.8568 328.923 28.605 332.594 30.7247C329.339 29.8288 325.995 29.2388 322.608 29.1076C322.412 29.1076 322.259 29.348 322.368 29.501C323.22 30.6592 324.16 31.7518 325.143 32.8007C321.385 31.2492 317.583 29.8288 313.715 28.6487C313.606 28.6269 313.562 28.7798 313.671 28.8236C317.91 30.4844 322.128 32.1889 326.301 34.0026C331.48 39.0943 338.057 42.6344 345.246 43.7052C341.182 44.7979 336.615 44.6449 332.638 43.7708C325.078 42.11 317.91 38.5261 311.901 33.6748C311.311 31.7518 309.738 30.0254 308.405 28.6487C307.903 28.1243 307.247 28.7798 307.488 29.3699C307.575 29.5665 307.662 29.7414 307.75 29.9162C305.98 28.1243 304.341 26.2231 302.833 24.1908C302.833 22.9889 302.702 21.7651 302.462 20.5414C302.331 19.8421 301.413 20.1043 301.326 20.6944C301.216 21.5248 301.173 22.3333 301.151 23.1637C301.151 23.1637 301.151 23.2074 301.151 23.2293C301.107 24.7371 301.216 26.2449 301.435 27.7309C300.976 30.4625 299.927 33.0848 298.332 35.4012C297.633 31.424 298.354 27.3376 300.386 23.7974C300.757 23.1419 299.752 22.5518 299.381 23.2074C297.502 26.3542 295.819 29.6103 294.355 32.9537C293.831 33.1722 293.306 33.4345 292.782 33.6748C290.269 31.2929 287.647 29.0421 284.697 27.119C284.697 27.119 284.697 27.0972 284.697 27.0753C286.838 28.1461 288.914 29.3043 291.099 30.2877C291.23 30.3532 291.34 30.1784 291.208 30.091C288.98 28.6706 286.62 27.5124 284.347 26.1575C284.085 26.0046 283.801 26.2668 283.867 26.529C284.063 27.4905 284.172 28.5395 284.085 29.5665C282.512 29.7414 281.157 30.5062 279.999 31.6425C279.103 30.681 278.579 29.3699 278.207 28.1461C277.617 26.2012 277.093 24.2345 276.525 22.2896C276.219 21.2188 275.847 20.0825 274.908 19.4269C275.17 18.6402 275.41 17.8317 275.585 17.0231C275.672 16.6735 275.367 16.3457 275.017 16.4549C270.363 17.7224 266.735 22.2896 267.129 27.1846C267.172 27.6872 267.697 27.8839 268.068 27.578C269.204 26.6601 269.729 25.349 270.166 23.9941C270.559 22.8141 271.827 19.7547 273.531 19.9951C272.919 21.4811 272.198 22.9452 271.346 24.3219C270.057 26.4416 267.719 29.938 264.769 29.3262C263.239 28.9984 262.453 27.6654 262.3 26.2012C265.031 24.1471 267.216 21.4592 268.593 18.3343C268.833 17.788 268.309 17.1105 267.719 17.4602C265.14 18.9899 262.103 20.8692 261.273 23.9723C261.141 24.4749 261.076 25.0212 261.076 25.5675C260.77 25.786 260.486 26.0046 260.158 26.2012C259.634 26.529 259 26.9661 258.41 27.119C258.257 27.1628 256.465 27.2283 256.728 26.7694C257.077 26.1357 256.247 25.4801 255.722 25.9827C253.668 28.0369 251.593 30.091 249.539 32.1452C249.407 31.73 249.255 31.2929 249.145 30.8777C247.681 25.9172 245.54 21.4811 241.934 17.7005C241.716 17.4602 241.301 17.5039 241.104 17.7443C240.886 17.7443 240.667 17.8317 240.558 18.0065C239.64 19.6673 239.072 21.5029 238.766 23.3604C238.569 22.7048 238.395 22.0492 238.176 21.3936C237.958 20.6725 236.952 20.9784 237.062 21.6996C237.499 24.453 237.958 27.2065 238.373 29.9599C238.263 29.9162 238.132 29.8725 238.023 29.8506L233.15 28.2554C232.342 27.9932 231.468 27.6654 230.572 27.5561C230.572 24.6278 228.78 21.044 227.819 19.1428C225.306 14.1604 221.569 9.76803 217.134 6.38087C216.871 6.18419 216.522 6.40272 216.434 6.66495C214.97 10.7295 215.975 14.5756 217.418 18.3998C215.757 24.1252 217.002 30.5499 220.979 35.139C221.242 35.4231 221.722 35.2701 221.831 34.9204C223.099 30.2221 221.329 25.6112 219.625 21.2844C219.253 20.3447 218.86 19.3832 218.488 18.3998C218.75 17.5694 219.056 16.7827 219.45 15.996C223.58 20.3884 226.267 26.0264 227.054 32.0359C227.251 33.5219 227.316 35.0297 227.272 36.5157C227.229 38.0235 227.185 41.3888 224.825 40.1869C223.58 39.5532 222.662 38.2639 221.831 37.1931C221.089 36.2316 220.215 35.4012 219.188 34.7456C215.189 32.167 209.66 32.3418 206.099 35.576C205.094 34.8986 204.045 34.2867 202.93 33.806C202.559 33.653 202.078 33.9152 202.209 34.3523C202.646 35.8601 203.171 37.3679 203.695 38.8321C203.586 39.0725 203.477 39.3128 203.367 39.5532C202.362 37.8706 201.444 36.1442 200.57 34.396C203.171 28.4084 205.487 22.2896 207.279 16.0397C207.41 15.5808 206.864 15.3623 206.536 15.6027C203.586 17.8972 200.811 20.2573 198.232 22.8578C200.898 18.0065 203.083 12.9148 204.722 7.62647C204.853 7.21127 204.438 6.86163 204.045 6.94904C203.783 7.01459 203.52 7.10201 203.258 7.18942C203.258 6.97089 203.258 6.73051 203.236 6.51198C203.171 6.05308 202.559 6.00937 202.275 6.24975C192.923 14.3352 183.789 22.6611 174.939 31.2929C176.338 28.9328 177.802 26.5727 179.331 24.2782C179.703 23.71 178.872 23.0982 178.413 23.5571C175.223 26.7694 172.186 30.1129 169.28 33.5874C169.061 32.167 168.602 30.7903 167.838 29.5447C167.619 29.1951 167.379 28.8673 167.182 28.5176C166.636 27.4905 166.964 26.682 167.706 25.8734C168.515 25.0212 169.476 24.3001 170.35 23.5352C172.252 21.8744 174.153 20.2136 176.054 18.5747C176.469 18.2032 176.032 17.4165 175.485 17.6131C172.317 18.7713 169.586 20.6944 167.422 23.2074C167.881 19.8203 167.488 16.4112 166.177 13.1989C166.002 12.7837 165.259 12.6307 165.172 13.1989C164.625 17.1979 164.538 21.2625 164.8 25.3053C162.069 16.1927 157.502 7.58276 151.733 0.0872994C151.515 -0.196785 150.903 -0.174933 150.947 0.305826C151.668 6.35901 153.329 12.1937 155.776 17.7661C150.969 13.7234 145.899 10.1177 140.589 6.73051C140.218 6.49013 139.868 6.94904 140.021 7.29868C141.551 10.511 143.146 13.7234 144.719 16.9357C143.736 17.3291 142.731 17.7443 141.747 18.1595C139.999 16.8046 138.273 15.4497 136.525 14.0949C136.241 13.8763 135.673 13.8763 135.607 14.3352C135.192 16.739 134.777 19.1647 134.362 21.5685C132.133 22.683 129.904 23.863 127.741 25.1523C125.578 26.4416 123.48 27.8402 121.426 29.3262C121.382 29.3262 121.339 29.3262 121.295 29.3262C117.886 30.9651 114.674 32.9319 111.68 35.1608C111.593 29.1076 110.326 23.1419 107.922 17.5694C107.747 17.1761 107.135 17.2416 106.961 17.5694C104.513 22.0711 103.989 27.3813 105.169 32.2763C102.918 31.5988 100.689 30.8559 98.5262 29.9162C96.2318 28.9328 94.0685 27.578 91.6868 26.7694C91.3153 26.6383 90.9875 27.1846 91.2935 27.4468C93.2163 29.1076 95.7074 30.1129 98.0236 31.0962C100.471 32.1233 102.984 32.9756 105.54 33.6967C105.999 35.1827 106.655 36.5812 107.42 37.9143C106.24 38.4169 105.54 39.5532 105.256 40.8425C104.797 41.3014 104.295 41.7385 103.858 42.2192C103.639 42.4596 103.596 42.853 103.858 43.0933C104.295 43.4648 104.776 43.7708 105.3 44.0112C105.759 45.9997 106.873 47.7043 107.704 49.6054C106.458 50.7855 105.125 51.8344 103.705 52.7522C100.58 52.7304 97.4992 54.0634 95.4452 56.5109C95.1174 56.9042 95.4233 57.538 95.9696 57.4068C98.8758 56.6638 101.607 55.4401 104.098 53.8667C104.579 53.9104 105.06 53.976 105.562 54.1071C105.191 55.2653 104.601 56.2486 103.814 57.1009C101.126 57.6254 98.3513 57.2102 95.6855 57.9532C93.2819 58.6306 91.0313 60.0729 90.8564 62.7826C90.8564 62.8919 90.9876 62.87 91.0094 62.7826C91.4901 58.9365 96.647 58.4558 99.6843 58.4776C100.515 58.4776 101.41 58.4776 102.328 58.4121C101.957 58.6961 101.563 58.9802 101.148 59.2425C100.165 59.8543 99.138 60.4007 98.0673 60.8814C97.4118 61.1874 96.7562 61.4714 96.0788 61.7337C95.7948 61.8429 95.5107 61.9522 95.2267 62.0396C94.9207 62.1707 94.593 62.2144 94.2652 62.1489C93.3912 62.3018 93.1071 61.7555 93.3912 60.5099C93.4786 60.4444 93.3912 60.2914 93.3038 60.3569C92.4516 60.8814 92.6264 62.2363 93.413 62.8044C94.8552 63.8097 97.4118 62.3237 98.7665 61.7555C100.821 60.8814 102.875 59.7451 104.426 58.1717C105.759 57.8876 107.026 57.385 108.031 56.4672C109.452 55.156 109.758 53.5608 109.539 51.9437C109.605 52.0529 109.67 52.1403 109.736 52.2496C110.697 53.7356 111.702 55.1997 112.773 56.5983C112.817 56.6638 112.86 56.7294 112.926 56.795C113.297 57.7128 113.713 58.6087 114.193 59.5047C113.997 59.3954 113.778 59.2862 113.582 59.1332C113.385 58.9802 113.144 59.2206 113.297 59.4173C114.128 60.3569 115.286 60.8159 116.553 60.7721C116.881 60.7721 117.121 60.4007 116.947 60.0947C116.684 59.6577 116.378 59.2643 116.073 58.871C118.17 56.5764 119.11 53.4297 118.629 50.3484C122.038 51.6159 126.255 49.5836 126.998 45.956C127.501 45.672 127.959 45.3879 128.244 45.2131C132.81 42.4596 137.421 39.728 141.944 36.8653C139.497 40.8207 136.918 44.6886 134.362 48.5784C134.012 49.1028 134.668 49.6054 135.148 49.3651C136.853 48.5347 138.557 47.7043 140.262 46.852C139.256 47.7698 138.251 48.6876 137.246 49.6273C135.651 51.0914 133.379 52.5774 132.461 54.6534C131.783 56.1612 132.308 57.4505 133.75 58.128C135.782 59.0895 138.055 59.8106 140.174 60.5755C140.83 60.8159 141.507 61.0344 142.184 61.2529C141.529 62.1052 141.005 63.0667 140.655 64.0938C140.262 64.356 139.89 64.6182 139.497 64.8586C136.46 66.7161 133.073 68.2895 129.62 69.1636C129.467 69.2073 129.533 69.4258 129.686 69.404C133.335 68.6828 136.744 67.5465 139.978 65.689C140.109 65.6234 140.218 65.536 140.349 65.4486C140.305 65.7109 140.218 65.9731 140.196 66.2353C140.152 66.5631 140.546 66.6942 140.786 66.585C143.277 65.536 145.637 64.2467 147.909 62.7826C148.631 62.9137 149.352 63.0448 150.095 63.1322C149.832 64.5745 149.854 66.0605 150.269 67.5465C150.335 67.7868 150.641 68.0054 150.903 67.8961C153.547 66.8253 156.169 65.7546 158.813 64.6838C161.304 63.6786 163.904 62.717 166.221 61.3403C166.395 61.2311 166.286 60.947 166.068 60.9907C163.402 61.6244 160.845 62.7607 158.289 63.7878C155.907 64.7493 153.503 65.7327 151.122 66.6942C150.859 65.536 150.881 64.356 151.122 63.2196C155.23 63.5693 159.294 62.9574 162.659 60.3351C162.812 60.2258 162.615 59.9636 162.462 60.0729C159.097 62.5422 155.186 62.9793 151.275 62.4548C151.602 61.2529 152.192 60.1166 153.044 59.1332C153.481 58.6306 152.826 58.0187 152.323 58.4121C150.794 59.614 149.221 60.7066 147.604 61.7337C146.992 61.5807 146.38 61.4059 145.768 61.2092C145.943 61.0344 146.161 60.8596 146.336 60.6847C146.948 60.051 147.647 59.3954 148.041 58.5869C148.106 58.4339 147.953 58.2372 147.8 58.3465C147.123 58.7617 146.577 59.3954 146.008 59.9417C145.637 60.2914 145.244 60.6192 144.85 60.947C144.304 60.7721 143.78 60.5973 143.255 60.4007C143.517 60.0947 143.823 59.8106 144.151 59.5484C144.238 59.4828 144.129 59.3299 144.042 59.3954C143.67 59.6795 143.321 59.9855 143.015 60.2914C142.774 60.204 142.556 60.1384 142.316 60.051C140.589 59.4173 138.885 58.7398 137.159 58.1061C136.241 57.7565 135.17 57.4942 134.318 57.0135C132.767 56.1612 133.575 54.8282 134.493 53.823C135.913 52.2933 137.574 50.9384 139.125 49.5399C140.786 48.0102 142.447 46.4805 144.107 44.9508C144.632 44.4701 143.976 43.7489 143.386 44.033C141.07 45.1693 138.732 46.3057 136.416 47.4639C138.863 43.4648 141.31 39.4658 143.911 35.576C144.195 35.1608 143.649 34.6801 143.233 34.8986C140.152 36.6687 137.137 38.548 134.1 40.4055C132.657 41.2796 131.215 42.1755 129.773 43.0496C129.008 43.5085 128.265 43.9893 127.501 44.4482C127.129 44.6886 126.758 44.929 126.364 45.1693C126.255 45.2349 126.146 45.3223 126.037 45.3879C125.403 45.956 125.01 45.7375 124.835 44.7541C124.988 44.776 125.097 44.5793 124.944 44.5138C124.114 44.1423 123.567 45.2568 123.917 45.956C124.398 46.9176 125.512 46.6553 126.517 46.1964C125.119 49.1902 121.076 50.8073 118.17 48.928C117.733 48.6439 117.231 49.1028 117.34 49.5617C118.061 52.5118 117.274 55.5931 115.351 57.8657C114.849 57.2539 114.346 56.642 113.866 56.0083C112.642 52.8833 112.052 49.5399 112.161 46.1309C112.161 45.4971 111.396 45.3879 111.069 45.8468C110.369 46.8083 109.605 47.7261 108.774 48.5784C108.206 47.6605 107.66 46.7427 107.114 45.8249C106.939 45.4097 106.764 44.9945 106.611 44.5793C108.599 45.0382 110.763 44.5793 112.423 43.2026C112.642 43.0278 112.62 42.6344 112.423 42.4596C111.178 41.4107 110.107 40.2088 109.211 38.8758C109.474 38.6354 109.758 38.4169 110.042 38.1983C110.151 38.8539 110.304 39.4877 110.391 40.1432C110.479 40.8425 111.484 40.6021 111.549 39.9903C111.615 39.3128 111.637 38.6572 111.659 37.9798C111.833 38.1765 112.117 38.2858 112.38 38.1328C115.941 35.9912 119.022 33.2815 122.191 30.6373C122.344 30.5062 122.147 30.3095 121.994 30.3969C125.927 27.5342 130.013 24.8682 134.274 22.5081C134.056 23.7537 133.859 24.9993 133.684 26.2668C129.97 28.8017 126.78 32.014 124.31 35.8601C124.026 36.2972 124.573 36.7779 124.988 36.5375C127.741 34.986 130.429 33.1941 132.985 31.2055C132.942 31.4896 132.898 31.7518 132.876 32.0359C132.832 32.32 133.247 32.5385 133.466 32.3855C134.908 31.3148 135.979 29.8506 136.591 28.2117C139.06 25.9609 141.332 23.4697 143.299 20.8036L148.696 24.9556C149.133 25.3053 149.592 24.6497 149.395 24.2563C148.194 21.8526 146.992 19.4706 145.79 17.0668C145.834 17.0013 145.877 16.9357 145.921 16.8483C145.987 16.7609 145.877 16.6079 145.768 16.6516C145.724 16.6516 145.659 16.6953 145.615 16.7172C144.238 13.9637 142.862 11.1885 141.463 8.43502C146.817 11.9096 151.908 15.8431 156.737 19.9951C157.174 20.3666 157.764 19.9077 157.524 19.3832C154.836 13.9419 153.023 8.12908 152.083 2.14145C158.726 11.0573 163.096 21.2188 165.565 32.0796C165.696 32.6478 166.548 32.4074 166.439 31.8392C166.242 30.8121 166.111 29.7851 165.98 28.758C166.286 29.4791 166.811 30.1566 167.182 30.8777C167.838 32.1452 168.209 33.5437 168.296 34.9641C166.592 37.0402 164.953 39.1599 163.336 41.3233C160.867 43.2463 158.944 45.7594 157.764 48.7095C157.589 49.1465 158.07 49.4306 158.42 49.3651C164.232 48.5784 168.493 43.3119 169.302 37.6957C169.411 36.8872 169.433 36.0568 169.411 35.2482C171.225 33.0848 173.126 30.987 175.048 28.9328C173.847 30.8777 172.667 32.8226 171.552 34.833C171.203 35.4449 172.033 36.1005 172.536 35.5979C180.271 27.9932 188.159 20.5632 196.244 13.3082C195.763 14.2915 195.414 15.3186 195.217 16.4112C195.151 16.8483 195.457 17.1761 195.894 17.0887C198.254 16.6298 200.221 15.253 201.532 13.3737C199.653 18.1157 197.336 22.683 194.605 27.0098C194.299 27.5124 195.064 28.1243 195.435 27.6435C198.385 23.8193 201.925 20.0825 205.924 17.2635C204.067 22.6174 202.056 27.9057 199.849 33.0848C199.478 32.32 199.106 31.577 198.757 30.8121C198.538 30.2877 197.774 30.7466 197.992 31.2711C198.429 32.2544 198.91 33.2159 199.369 34.1775C197.992 37.3679 196.55 40.5366 194.977 43.6397C194.627 44.3389 195.676 44.9508 196.025 44.2515C197.446 41.4107 198.779 38.5261 200.068 35.6197C200.964 37.3898 201.903 39.138 202.909 40.8425C202.122 43.4648 202.209 46.3494 203.608 48.6876C204.897 50.8292 207.497 52.49 209.879 51.004C211.299 50.1299 212.304 48.5128 213.353 47.2672C213.419 47.2016 213.484 47.1142 213.55 47.0487C213.856 47.9883 214.096 48.9499 214.271 49.9332C214.315 50.5888 214.402 51.2225 214.555 51.8781C214.686 52.3807 215.517 52.2933 215.473 51.747C215.473 51.7033 215.473 51.6596 215.473 51.6159C215.473 51.6159 215.473 51.6159 215.473 51.594C215.407 50.8947 215.298 50.1955 215.167 49.518C215.036 46.9831 215.801 44.4919 217.461 42.4815C217.767 42.11 217.243 41.5637 216.915 41.9352C215.932 43.0715 214.948 44.2515 213.965 45.4316C212.523 41.8696 210.119 38.7228 207.038 36.4064C208.437 35.2045 210.163 34.3741 212.13 34.1993C214.752 33.9808 217.505 34.7893 219.515 36.4938C221.285 37.9798 222.334 40.3836 224.519 41.367C229.305 43.5304 228.387 34.3741 227.972 31.4677C228.125 31.5333 228.278 31.5551 228.43 31.4677C229.567 30.8559 230.157 29.9162 230.375 28.8236C230.834 28.8891 231.315 29.0202 231.752 29.1513C233.019 29.5665 234.287 30.0036 235.554 30.4407C236.778 30.8559 238.001 31.2711 239.247 31.6863C239.465 32.4074 239.749 33.1067 240.055 33.7841C240.427 35.5105 240.776 37.2587 241.06 39.0069C241.17 39.7062 242.197 39.4877 242.24 38.8539C242.284 38.3513 242.284 37.8269 242.306 37.3242C242.328 37.3461 242.35 37.3898 242.371 37.4117C242.94 38.0891 243.835 38.7447 244.185 39.5314C245.125 41.5637 242 43.3337 240.711 44.3608C238.198 46.3494 235.707 48.338 233.194 50.3266C229.414 51.594 225.655 52.8615 221.875 54.1071C221.242 54.3256 221.504 55.2871 222.159 55.1123C224.738 54.413 227.316 53.7574 229.916 53.1237C229.895 53.4952 230.266 53.8886 230.659 53.7574C232.211 53.2548 233.718 52.6648 235.248 52.0966C235.204 52.1403 235.161 52.1841 235.117 52.2278C234.855 52.5337 234.942 53.0363 235.357 53.1674C238.591 53.9978 241.978 54.1071 245.278 53.5608C244.797 53.976 244.294 54.3912 243.77 54.7845C243.158 55.156 242.568 55.5275 241.956 55.899C239.859 57.1009 237.761 58.2809 235.663 59.5265C235.401 59.6795 235.379 60.0073 235.488 60.2477C232.932 62.1052 230.441 64.05 228.059 66.1479C227.666 66.4976 228.081 67.1531 228.562 67.0002C236.275 64.5964 243.901 61.9959 251.461 59.1988C250.282 59.9199 249.123 60.6629 247.943 61.384C241.956 65.099 235.969 68.8139 230.179 72.8348C230.004 72.9441 230.179 73.2063 230.332 73.1189C236.494 69.7317 242.481 66.0168 248.468 62.3237C251.177 60.641 253.931 58.9584 256.64 57.2539C256.946 57.1446 257.252 57.0135 257.58 56.9042C257.296 57.1446 256.99 57.3631 256.706 57.6035C256.596 57.6909 256.575 57.822 256.596 57.9532C253.275 60.051 249.976 62.1707 246.654 64.2686C246.086 64.6182 246.589 65.4268 247.179 65.1427C253.494 62.1926 259.415 58.4339 264.856 54.0415C264.922 53.9978 264.922 53.9104 264.965 53.8449C266.32 53.2985 267.719 52.9052 269.248 52.8396C271.084 52.7741 272.963 53.1237 274.58 54.0415C275.388 54.5004 276.109 55.0905 276.678 55.8116C277.311 56.6201 277.573 57.5598 278.12 58.4121C280.283 61.8211 284.697 58.4121 286.991 57.0135C288.87 55.8553 290.837 54.6315 293.022 54.1071C295.12 53.6045 297.043 54.0197 298.856 55.0249C298.179 55.899 297.523 56.795 296.737 57.5817C295.535 58.7836 294.224 59.8543 292.782 60.7503C289.941 62.5204 286.773 63.5474 283.451 63.8534C283.43 63.766 283.43 63.6786 283.408 63.5911C285.068 62.9574 286.598 61.974 287.822 60.7284C288.171 60.3569 287.625 59.8106 287.275 60.1821C286.117 61.2966 284.784 62.1052 283.342 62.6515C283.408 61.9522 283.692 61.3185 284.282 60.8159C284.478 60.6629 284.216 60.3132 284.019 60.4662C283.255 61.0562 282.752 61.9522 282.577 62.8919C281.332 63.2415 280.043 63.4163 278.732 63.3726C278.644 62.0396 278.513 60.7284 278.447 59.3954C278.447 59.1332 278.032 59.1332 278.032 59.3954C278.01 60.8814 277.879 62.3455 277.858 63.8315C277.858 64.0938 278.076 64.2686 278.316 64.2904C279.737 64.4652 281.201 64.2904 282.577 63.8752C282.599 64.0938 282.599 64.3123 282.665 64.509C282.73 64.7056 282.905 64.8586 283.124 64.8586C286.729 64.8149 290.334 63.6786 293.372 61.7337C294.879 60.7721 296.3 59.6358 297.48 58.3028C298.223 57.4724 299.031 56.489 299.621 55.4401C301.391 56.5983 302.877 58.0843 304.931 58.7398C306.679 59.2862 308.493 59.1769 309.913 57.975C310.088 57.822 309.847 57.5161 309.651 57.6472C306.264 59.9199 302.921 56.795 299.971 54.6971C300.08 54.4349 300.211 54.1508 300.277 53.8886C300.32 53.7137 300.102 53.5826 299.971 53.7137C299.774 53.9104 299.599 54.1289 299.424 54.3256C298.966 54.0197 298.507 53.7356 298.048 53.5171C294.442 51.7688 290.728 53.3204 287.538 55.2216C285.746 56.2924 283.932 57.8002 281.922 58.4121C280.458 58.871 279.453 58.4339 278.797 57.0572C278.447 56.3361 278.12 55.6368 277.595 54.9812C275.563 52.4463 272.045 51.3974 268.877 51.6377C268.112 51.7033 267.347 51.8344 266.582 52.0311C269.336 50.6544 272.089 49.2558 274.864 47.8572C275.17 48.5565 275.607 49.1902 276.241 49.7584C276.393 49.8895 276.568 49.8895 276.721 49.7584C279.409 47.442 282.118 45.1475 284.806 42.8311C286.532 41.957 288.259 41.0829 289.985 40.2088C290.334 40.6021 290.684 40.9736 291.056 41.3451C290.837 41.8914 290.64 42.4378 290.422 42.9841C290.356 43.137 290.422 43.29 290.487 43.4211C290.575 43.8145 291.012 44.0986 291.383 43.8582C291.842 43.5522 292.257 43.2026 292.694 42.8967C293.831 43.88 295.054 44.776 296.343 45.5627C296.715 45.7812 297.065 45.4097 296.999 45.0601C296.759 43.4867 296.322 41.957 295.775 40.471C296.278 40.0558 296.78 39.6188 297.261 39.1817C298.944 41.0173 300.67 42.853 302.505 44.5356C305.434 47.1798 308.711 49.4306 312.47 50.6981C312.797 50.8073 312.994 50.4795 312.95 50.2173C312.426 46.3931 311.486 42.6126 310.197 38.9413C310.656 38.5698 311.027 38.1109 311.333 37.6083C312.164 37.9798 312.972 38.3732 313.781 38.7884C316.556 41.4544 319.877 43.5304 323.526 44.8853C323.57 44.8853 323.614 44.929 323.657 44.9508C324.335 45.1912 324.619 44.2297 324.116 43.88C321.428 41.9352 318.566 40.2743 315.594 38.8321C314.283 37.6957 313.103 36.4501 312.033 35.0953C314.589 37.062 317.299 38.7884 320.139 40.2525C327.809 44.1423 338.144 47.4857 346.535 44.0549C346.579 44.033 346.645 44.0112 346.688 43.9893C347.366 44.0549 348.043 44.1423 348.742 44.1641C349.179 44.1641 349.31 43.6615 349.07 43.3774C348.961 43.2463 348.83 43.1152 348.699 42.9841C349.376 42.5907 350.053 42.1537 350.665 41.6729C350.796 41.7822 350.927 41.8914 351.058 42.0007C351.364 42.2848 351.801 42.0007 351.736 41.6074C351.692 41.3451 351.648 41.1048 351.605 40.8425C351.823 40.624 352.042 40.4055 352.26 40.1869C352.675 40.8644 353.091 41.5418 353.528 42.2192C353.156 42.4815 352.785 42.7218 352.413 42.9841C350.731 44.1641 349.048 45.3442 347.366 46.5242C347.103 46.7209 346.819 46.8957 346.557 47.0924C346.557 47.0924 346.557 47.0924 346.535 47.0924C346.295 47.005 346.12 47.2016 346.098 47.4202C345.683 47.7261 345.268 48.0102 344.831 48.3161C344.372 48.6439 343.913 48.9717 343.389 49.1684C343.258 49.2121 343.083 49.2558 342.886 49.2776C342.318 48.6658 341.75 48.0757 341.182 47.442C340.92 47.1579 340.526 47.3328 340.417 47.6387C339.893 49.0373 341.138 50.2173 342.493 50.261C345.508 53.6045 348.48 56.9916 351.517 60.3132C353.047 61.9959 356.762 65.1864 359.1 62.9793C359.624 62.4767 359.821 61.8866 359.843 61.2748C360.061 61.2966 360.258 61.3403 360.476 61.3622C360.673 61.3622 360.891 61.2092 360.935 61.0125C361.438 59.1551 360.891 57.232 359.58 55.8772C359.449 55.7242 359.253 55.9427 359.362 56.0957C360.367 57.3631 360.564 58.8273 360.127 60.3132C359.996 60.2914 359.864 60.2477 359.733 60.204C359.602 59.6795 359.406 59.1769 359.187 58.6961C358.357 56.9261 357.264 55.2653 355.997 53.7793C354.708 52.2715 353.222 50.9384 351.583 49.8021C352.938 48.491 354.205 47.0924 355.494 45.7157C359.668 51.7251 364.89 57.0135 371.14 60.8814C371.249 60.947 371.402 60.7721 371.292 60.6847C366.179 56.7076 361.416 52.2496 357.308 47.2235C357.286 46.0653 357.286 44.9071 357.286 43.7489C358.531 42.3941 359.799 41.061 361.001 39.6625C361.175 39.4658 360.913 39.2254 360.717 39.3784C360.301 39.7499 359.908 40.1432 359.515 40.5366C359.624 40.3836 359.427 40.1869 359.296 40.3399C358.007 41.6729 356.696 42.9622 355.429 44.2952C355.057 43.7489 354.686 43.1808 354.314 42.6344C356.958 40.7333 359.58 38.8102 362.159 36.8435C364.781 37.9143 367.403 39.0287 369.981 40.1869C370.069 40.2306 370.156 40.0995 370.069 40.034C367.753 38.6354 365.371 37.4117 362.924 36.2753C367.25 38.0017 371.773 39.2254 376.449 39.8373C376.777 39.881 376.974 39.3784 376.733 39.1599L376.865 39.0943ZM144.938 62.0396C145.462 62.1926 146.008 62.3237 146.533 62.4329C144.763 63.5256 142.949 64.5308 141.114 65.4923C141.114 65.2956 141.158 65.099 141.179 64.9023C142.272 64.1812 143.343 63.4382 144.348 62.5859C144.566 62.4111 144.741 62.2144 144.938 62.0177V62.0396ZM142.556 61.3185C143.015 61.4714 143.452 61.6026 143.911 61.7337C143.124 62.3674 142.316 62.9574 141.485 63.5474C141.726 62.7607 142.097 62.0177 142.556 61.3185ZM111.09 47.6824C111.134 49.4525 111.309 51.1788 111.724 52.8833C111.44 52.4681 111.112 52.0529 110.828 51.6159C110.369 50.9166 109.911 50.2173 109.474 49.518C110.042 48.928 110.588 48.3161 111.09 47.6824ZM107.594 55.3527C107.092 55.899 106.48 56.2924 105.803 56.5764C106.305 55.7679 106.698 54.8938 106.917 53.8886C106.982 53.5826 106.83 53.2548 106.502 53.1674C106.174 53.08 105.846 53.0363 105.518 52.9707C106.458 52.2933 107.354 51.5503 108.206 50.7855C108.709 52.337 108.752 54.0634 107.594 55.3527ZM107.813 43.5085C107.332 43.4648 106.851 43.3556 106.393 43.1589C106.371 42.9404 106.327 42.7218 106.305 42.4815C106.305 42.1537 106.349 41.8696 106.371 41.5637C107.004 40.9299 107.616 40.2962 108.272 39.6843C108.556 40.9736 108.381 42.3066 107.813 43.5085ZM111.265 42.7218C110.348 43.3337 109.299 43.6178 108.25 43.596C108.818 42.6126 109.124 41.5418 109.168 40.4492C109.801 41.2577 110.501 42.0226 111.265 42.7218ZM108.621 37.7831C107.835 36.472 107.201 35.0516 106.72 33.6093C106.786 33.5219 106.808 33.4126 106.808 33.3033C106.83 31.424 106.873 29.5228 106.917 27.6435C108.228 30.5936 109.211 33.653 109.867 36.7998C109.452 37.1276 109.036 37.4554 108.643 37.805L108.621 37.7831ZM106.851 24.6497C106.633 24.2345 106.13 24.3001 105.868 24.5841C106.13 22.7704 106.633 21.0003 107.42 19.2958C109.386 24.2345 110.457 29.4573 110.566 34.7456C109.714 31.2492 108.49 27.862 106.83 24.6497H106.851ZM133.204 29.6103C131.106 31.3148 128.877 32.8881 126.583 34.3304C128.571 31.577 130.909 29.0858 133.575 26.9879C133.444 27.862 133.335 28.7361 133.204 29.6103ZM136.612 15.559C137.967 16.6079 139.344 17.6568 140.699 18.7058C139.016 19.4269 137.355 20.2136 135.717 21.0003C136.023 19.1865 136.307 17.3728 136.612 15.559ZM136.678 26.5727C136.569 26.682 136.46 26.7913 136.35 26.9005C135.695 27.4905 135.039 28.0587 134.362 28.6269C134.515 27.7746 134.69 26.9442 134.843 26.092C135.498 25.6331 136.132 25.1523 136.809 24.7371C136.809 25.3708 136.809 25.9827 136.678 26.5727ZM137.115 26.1357C137.181 25.5675 137.224 24.9775 137.181 24.3875C137.181 24.2345 137.028 24.1471 136.897 24.2345C136.219 24.606 135.607 25.0212 134.952 25.4364C135.17 24.2126 135.367 23.0107 135.585 21.787C137.137 20.9566 138.688 20.1262 140.283 19.3613C140.546 19.2302 140.786 19.121 141.048 19.0117L142.687 20.2792C140.917 22.3333 139.082 24.3001 137.115 26.1794V26.1357ZM147.538 22.683C146.336 21.7433 145.156 20.8255 143.954 19.8858C144.413 19.2521 144.807 18.5747 145.222 17.9191C146.008 19.5143 146.773 21.0877 147.538 22.683ZM145.025 17.5039C144.501 18.1595 143.933 18.7932 143.386 19.4269L142.141 18.4654C142.534 18.2906 142.906 18.0939 143.299 17.9409C143.736 17.7443 144.173 17.5694 144.61 17.3728C144.741 17.3072 144.807 17.2853 144.916 17.2416C144.96 17.3291 145.003 17.4165 145.047 17.5257L145.025 17.5039ZM166.264 25.9609C166.111 26.2231 165.958 26.4853 165.871 26.7694C165.827 26.9005 165.805 27.0316 165.784 27.1628C165.39 23.4478 165.5 19.711 165.937 15.996C166.68 19.0554 166.723 22.2022 165.937 25.3053C165.849 25.6331 166.024 25.8734 166.264 25.9609ZM159.316 47.9446C159.512 47.5076 159.709 47.0705 159.949 46.6553C160.102 46.8083 160.343 46.8957 160.561 46.7427C162.877 45.1038 164.778 43.0059 166.155 40.5147C166.352 40.1651 166.111 39.7936 165.762 39.7499C166.57 38.701 167.422 37.652 168.275 36.625C167.881 41.7822 164.363 46.6553 159.316 47.9446ZM196.594 15.6464C197.38 12.6744 199.434 10.2051 202.166 8.89392C201.794 11.9751 199.565 14.663 196.594 15.6464ZM203.542 35.2701C204.198 35.5979 204.831 35.9694 205.443 36.3627C205.05 36.7998 204.678 37.2805 204.351 37.7831C204.067 36.9527 203.783 36.1005 203.52 35.2701H203.542ZM213.353 46.1527C212.37 47.2891 211.343 48.4035 210.25 49.4088C207.301 52.1403 204.351 48.6002 203.783 45.672C203.564 44.4919 203.608 43.3119 203.804 42.1537C205.028 44.1423 206.317 46.109 207.738 48.0102C208.109 48.5128 208.918 48.0976 208.612 47.5076C207.169 44.8197 205.924 42.0226 204.853 39.1817C205.268 38.4169 205.771 37.6957 206.383 37.062C209.507 39.3784 211.933 42.547 213.331 46.1746L213.353 46.1527ZM221.089 33.5874C218.182 29.7195 217.112 24.6934 218.073 20.0169C219.887 24.453 221.919 28.911 221.089 33.5874ZM229.261 27.6217C228.518 27.7965 227.906 28.3209 227.578 28.9547C226.311 23.6008 223.58 18.6402 219.69 14.7286C219.45 14.4882 219.035 14.5319 218.882 14.8378C218.51 15.4934 218.226 16.1927 217.964 16.8701C216.959 13.8545 216.347 10.7514 217.199 7.64832C220.892 10.4892 223.973 14.0074 226.245 18.0939C227.404 20.1918 228.365 22.3989 229.086 24.6934C229.348 25.5238 229.567 26.5946 229.567 27.578C229.479 27.578 229.392 27.578 229.305 27.578L229.261 27.6217ZM240.711 30.7684C240.514 29.938 240.296 29.1076 240.099 28.2772L241.017 23.5352C241.235 26.0046 241.301 28.4958 241.323 30.987C241.104 30.9214 240.907 30.8559 240.689 30.7684H240.711ZM302.768 25.6768C302.899 25.8516 303.03 26.0483 303.183 26.2449C305.281 29.2606 307.029 32.4729 308.449 35.8164C307.422 35.4886 306.417 35.1171 305.39 34.833C305.215 34.7893 305.128 35.0516 305.302 35.1171C306.439 35.4886 307.553 35.9475 308.689 36.3846C308.93 36.9746 309.17 37.5646 309.389 38.1765C309.039 38.4169 308.667 38.5917 308.23 38.6135C306.723 38.6573 305.871 36.9309 305.259 35.7946C303.882 33.2596 302.986 30.4844 302.571 27.6654C302.68 27.0098 302.746 26.3542 302.768 25.6986V25.6768ZM301.937 30.3751C302.003 30.681 302.068 30.9651 302.156 31.2711C302.243 31.577 302.353 31.8611 302.462 32.167C302.309 32.167 302.134 32.1889 302.025 32.3418C301.435 33.1067 300.801 33.8278 300.167 34.549C300.91 33.2159 301.522 31.8392 301.959 30.3969L301.937 30.3751ZM286.401 28.4958C288.608 30.0692 290.553 31.9048 292.432 33.8278C292.323 33.8715 292.214 33.9371 292.104 33.9808C290.4 31.9485 288.193 29.9599 285.615 29.5665C285.418 29.5447 285.243 29.5447 285.046 29.5228C285.025 28.8017 284.915 28.0806 284.741 27.4031C285.309 27.7309 286.226 28.3646 286.401 28.4958ZM278.316 41.6729C277.289 42.3503 276.241 42.9841 275.235 43.7052C275.345 42.6126 275.607 41.52 275.913 40.471C276.699 40.8862 277.508 41.2796 278.316 41.6729ZM276.197 39.4658C276.241 39.3565 276.262 39.2254 276.306 39.0943C277.464 39.5095 278.535 40.1432 279.474 40.9081C279.409 40.9518 279.365 40.9736 279.3 41.0173C278.251 40.5147 277.202 39.9903 276.197 39.4439V39.4658ZM279.627 42.2848C280.108 42.5033 280.567 42.7 281.048 42.9185C279.278 43.5522 277.508 44.186 275.738 44.8197C277.005 43.9237 278.316 43.1152 279.627 42.2848ZM280.327 40.3618C279.234 39.4221 277.967 38.701 276.612 38.2202C277.289 36.3409 278.185 34.3523 279.474 32.757C280.633 33.806 282.162 34.2867 283.648 33.1941C284.347 32.6696 284.719 31.9485 284.915 31.1399C285.505 32.9537 286.314 34.7019 287.297 36.3409C284.915 37.5865 282.599 38.9413 280.305 40.3618H280.327ZM285.09 30.0473C285.09 30.0473 285.09 30.0473 285.09 30.0254V29.9817C287.559 30.2877 289.788 32.3637 291.427 34.3304C290.269 34.8767 289.111 35.4449 287.975 36.0349C287.975 36.0349 287.975 36.0131 287.953 35.9912C286.773 34.1337 285.811 32.1452 285.112 30.0692L285.09 30.0473ZM281.747 30.681C282.512 30.2221 283.277 30.0036 284.019 29.938C283.976 30.244 283.932 30.5281 283.845 30.8121C283.342 32.5167 281.638 33.1941 280.239 31.9485C280.239 31.9485 280.239 31.9266 280.217 31.9048C280.698 31.424 281.201 31.0088 281.769 30.6592L281.747 30.681ZM271.564 19.6017C269.445 21.0659 269.445 23.7537 268.199 25.6986C268.462 22.0274 270.821 18.7495 274.383 17.635C274.23 18.0939 274.077 18.5528 273.902 19.0117C273.094 18.8806 272.264 19.1428 271.564 19.6236V19.6017ZM262.605 23.7537C263.327 22.0274 264.812 20.8036 266.386 19.7766C265.49 21.3062 264.419 22.7048 263.108 23.9286C262.868 24.1471 262.605 24.3438 262.365 24.5623C262.431 24.2782 262.496 24.016 262.605 23.7537ZM261.12 27.0972C261.12 27.0972 261.163 27.0535 261.207 27.0316C261.513 28.3646 262.256 29.5665 263.501 30.2003C266.276 31.5988 269.161 29.3262 270.8 27.2283C272.373 25.196 273.597 22.9233 274.492 20.5414C275.192 21.2188 275.366 22.4863 275.629 23.3822L276.503 26.4416C276.962 28.0369 277.355 29.6758 278.185 31.1399C278.469 31.6207 278.797 32.0796 279.212 32.4948C277.879 34.1119 276.852 36.1442 276.088 38.0672C275.301 37.8269 274.471 37.6739 273.64 37.6302L276.066 35.8383C276.262 35.6853 276.088 35.3356 275.869 35.4886C274.82 36.1442 273.771 36.7998 272.701 37.4335C268.156 34.6801 263.895 31.4459 260.027 27.7528C260.42 27.5342 260.792 27.3157 261.163 27.0753L261.12 27.0972ZM241.781 19.6454C241.781 19.6454 241.803 19.4706 241.825 19.4051C244.01 21.9181 245.802 24.7808 246.938 27.9276C247.485 29.4354 247.878 31.0307 248.402 32.5822C248.184 32.757 247.965 32.9319 247.747 33.1285C245.999 32.5385 244.272 31.9703 242.524 31.3803C242.524 27.4687 242.262 23.5571 241.781 19.6454ZM242.546 32.7133C242.546 32.7133 242.721 32.7789 242.808 32.8007L246.611 34.0682C245.562 34.8986 244.491 35.7071 243.42 36.5157C243.114 36.1442 242.765 35.7727 242.481 35.3794C242.503 34.4834 242.546 33.6093 242.546 32.7133ZM241.629 45.1256C243.901 43.3119 247.222 40.9955 244.6 37.9798C244.229 37.5428 243.901 37.1276 243.53 36.6905C244.688 35.8601 245.868 35.0297 247.048 34.2212H247.091C246.37 35.0734 245.671 35.9257 244.95 36.7779C244.491 37.3242 245.212 38.0891 245.758 37.5865C246.742 36.6468 247.703 35.7071 248.665 34.7456L249.364 34.9641C249.757 35.7071 250.216 36.3846 250.806 37.0183C252.051 38.3076 253.974 39.2473 255.766 39.0069C256.837 40.3618 257.995 41.6511 259.24 42.8311C258.323 45.366 256.094 47.4202 253.952 48.8843C252.445 49.9114 250.784 50.6981 249.08 51.3099C249.823 50.5014 250.544 49.671 251.199 48.7969C251.44 48.491 251.112 47.9228 250.719 47.9665C247.681 48.3817 244.644 48.8624 241.607 49.4088C246.501 47.1579 251.221 44.5138 255.701 41.4544C256.181 41.1266 255.875 40.4273 255.307 40.5366C249.364 41.6948 243.814 44.3826 239.181 48.2506C238.285 48.5565 237.368 48.8624 236.472 49.1465C238.176 47.7917 239.88 46.4368 241.585 45.0819L241.629 45.1256ZM251.177 35.5979C252.117 35.9038 253.057 36.2316 253.996 36.5375C254.28 36.9746 254.564 37.4116 254.848 37.8487C254.542 37.8487 254.237 37.7831 253.931 37.6739C252.751 37.2805 251.855 36.5375 251.177 35.5979ZM256.902 38.6573C257.143 38.548 257.383 38.395 257.602 38.2202C257.929 37.958 258.213 37.6302 258.432 37.3024C259.284 38.3513 259.765 39.728 259.656 41.0392C259.656 41.2359 259.59 41.4107 259.546 41.5855C258.585 40.6677 257.711 39.6843 256.881 38.6573H256.902ZM240.274 48.7969C243.857 45.8468 248.009 43.6615 252.488 42.3066C248.577 44.776 244.513 46.9394 240.274 48.7969ZM234.418 50.851C234.745 50.5888 235.051 50.3484 235.379 50.0862C236.428 49.6928 237.455 49.2995 238.504 48.9062C238.023 49.3214 237.542 49.7584 237.083 50.1955C236.952 50.2392 236.843 50.2829 236.712 50.3266C235.947 50.4795 235.182 50.6762 234.418 50.8292V50.851ZM236.69 52.2278C236.952 51.9437 237.215 51.6814 237.477 51.3974C241.432 50.567 245.431 49.8677 249.451 49.2995C248.686 50.2392 247.878 51.1351 247.026 51.9874C243.661 52.8396 240.121 52.9489 236.712 52.2278H236.69ZM261.469 54.2163C261.469 54.2163 261.316 54.2819 261.229 54.3038C262.671 53.3641 264.091 52.3807 265.49 51.3755C265.206 51.7033 265.424 52.0966 265.752 52.2278C264.266 52.6867 262.824 53.3859 261.447 54.1945L261.469 54.2163ZM266.429 50.567C266.429 50.567 266.32 50.4358 266.211 50.5014C262.846 52.2715 259.546 54.2163 256.269 56.2268C247.9 59.3954 239.422 62.3455 230.9 65.099C233.128 63.1978 235.423 61.384 237.805 59.6577C240.645 58.3028 243.267 56.642 245.649 54.6315C246.676 53.976 247.703 53.3422 248.708 52.6867C251.746 51.7033 254.608 50.1518 256.968 47.9665C258.235 46.8083 259.415 45.3005 260.158 43.6397C260.486 43.9237 260.814 44.2297 261.163 44.5138C262.693 45.7157 264.31 46.7864 266.014 47.7043C266.801 48.1195 267.719 48.6002 268.636 48.7313C267.893 49.3432 267.151 49.9551 266.429 50.5888V50.567ZM260.792 42.7437C260.792 42.7437 260.639 42.6126 260.573 42.547C260.923 41.3451 260.989 40.0777 260.595 38.8321C260.289 37.8487 259.743 36.9527 259.022 36.2316C259.393 35.0953 259.284 33.8497 258.454 32.8881C258.41 32.8444 258.388 32.8007 258.366 32.757C257.886 32.2544 257.055 32.91 257.405 33.5C257.755 34.09 257.886 34.6801 257.864 35.2701C256.64 34.5271 255.198 34.243 253.734 34.7675C253.603 34.8112 253.494 34.9204 253.406 35.0297C252.357 34.6801 251.287 34.3304 250.216 33.9589C250.15 33.806 250.085 33.6311 250.019 33.4563C251.942 31.5551 253.843 29.654 255.766 27.7528C256.028 28.0369 256.422 28.2554 256.859 28.3646C257.58 28.5613 258.279 28.4521 258.935 28.2335C261.185 31.5114 263.458 34.7893 265.708 38.0672C266.845 39.7062 268.025 41.3233 269.117 43.0059C269.773 43.9893 270.734 45.7375 270.144 46.9394C268.92 49.4743 262.037 43.7708 260.836 42.7218L260.792 42.7437ZM269.794 49.2558C271.324 48.032 272.897 46.852 274.471 45.7157C274.514 46.1309 274.58 46.5461 274.689 46.9394C273.05 47.7043 271.411 48.491 269.794 49.2558ZM274.449 44.2515C273.422 44.9945 272.417 45.7594 271.411 46.5242C271.608 44.4264 269.554 41.7603 268.636 40.4273C266.561 37.4335 264.507 34.4397 262.431 31.4459C266.408 34.8112 270.69 37.7394 275.279 40.1651C275.235 40.3181 275.192 40.4492 275.148 40.6021C274.798 41.7385 274.514 43.0059 274.427 44.2515H274.449ZM276.678 48.9936C276.241 48.5347 275.935 48.0102 275.694 47.4639C278.382 46.109 281.048 44.776 283.735 43.4211C281.397 45.2786 279.037 47.1579 276.678 49.0154V48.9936ZM275.388 46.6116C275.279 46.1527 275.192 45.6938 275.17 45.2349H275.192C277.224 44.4919 279.234 43.7271 281.244 43.0059C281.397 43.0715 281.55 43.1371 281.703 43.2026C282.053 43.3337 282.381 42.9404 282.293 42.6126C284.129 41.9352 285.964 41.2796 287.8 40.6021C287.865 40.5803 287.843 40.471 287.778 40.4929C285.942 41.1266 284.107 41.804 282.271 42.4815C281.944 42.0444 281.594 41.6292 281.223 41.2359C283.43 39.881 285.68 38.5917 287.975 37.3898C288.521 38.2202 289.133 39.0287 289.788 39.7936C284.981 42.0663 280.196 44.3389 275.388 46.6335V46.6116ZM291.493 40.471C291.274 40.2525 291.099 40.0121 290.903 39.7936C291.077 39.7062 291.274 39.6188 291.449 39.5314C291.733 39.4002 291.493 38.985 291.208 39.1162C290.99 39.2254 290.771 39.3128 290.575 39.4221C289.897 38.6573 289.264 37.8706 288.674 37.0402C289.81 36.4501 290.968 35.882 292.148 35.3356C292.41 35.7071 292.694 36.0568 292.957 36.4501C292.432 37.7831 291.973 39.1162 291.514 40.4929L291.493 40.471ZM292.563 41.4325C292.563 41.4325 292.52 41.3888 292.498 41.367C292.541 41.2359 292.585 41.1048 292.629 40.9955C293.022 39.9684 293.394 38.9632 293.787 37.9361C294.115 38.5698 294.421 39.2036 294.683 39.8373C293.984 40.3836 293.284 40.9081 292.563 41.4107V41.4325ZM296.016 44.1423C295.164 43.596 294.333 42.9841 293.547 42.3285C294.093 41.9133 294.639 41.4981 295.164 41.0829C295.513 42.0881 295.819 43.0933 296.016 44.1423ZM295.972 38.7665C295.797 38.9195 295.601 39.0724 295.404 39.2473C295.032 38.4387 294.639 37.652 294.18 36.8872C294.289 36.6031 294.399 36.2972 294.508 36.0131C295.185 36.7561 295.885 37.4991 296.562 38.2639C296.365 38.4387 296.169 38.6135 295.972 38.7884V38.7665ZM296.977 37.8706C296.212 37.0839 295.448 36.2972 294.683 35.5323C294.923 34.8767 295.185 34.2212 295.426 33.5656C295.426 33.5219 295.426 33.4782 295.426 33.4345C295.928 32.2544 296.496 31.1181 297.065 29.9599C296.759 32.2544 296.89 34.6145 297.458 36.9309C297.48 37.0402 297.545 37.1276 297.633 37.1931C297.414 37.4117 297.196 37.652 296.977 37.8706ZM312.229 49.6491C306.526 47.3983 302.047 43.0933 297.851 38.7665C299.534 37.1931 301.085 35.4886 302.505 33.6748C302.615 33.5437 302.746 33.4126 302.855 33.2596C303.205 34.1775 303.598 35.0953 304.057 35.9694C304.756 37.3024 305.565 38.8758 307.007 39.5314C307.99 39.9684 308.973 39.7936 309.826 39.3128C310.962 42.6563 311.792 46.109 312.273 49.6491H312.229ZM310.809 36.2316C310.765 36.3409 310.7 36.4501 310.656 36.5594C310.197 36.3846 309.738 36.2535 309.279 36.0786C308.383 33.8934 307.378 31.7737 306.242 29.7195C307.094 30.6155 307.99 31.4459 308.908 32.2763C309.52 33.3471 310.219 34.3523 310.962 35.3356C310.962 35.6197 310.918 35.9257 310.831 36.2098L310.809 36.2316ZM356.434 44.776C356.674 44.5138 356.915 44.2297 357.177 43.9674C357.133 44.8416 357.111 45.6938 357.067 46.5679C356.762 46.0653 356.456 45.5845 356.15 45.1038C356.259 44.9945 356.346 44.8853 356.456 44.776H356.434ZM357.92 31.2929C357.461 31.6863 356.98 32.1015 356.499 32.4948C355.56 31.9922 354.62 31.4896 353.702 30.9433C355.123 30.987 356.521 31.0962 357.92 31.3148V31.2929ZM352.916 30.9214C353.943 31.5988 354.992 32.2326 356.062 32.8226C355.909 32.9537 355.756 33.063 355.582 33.1941C354.292 32.757 353.003 32.32 351.692 31.9266C351.845 31.5988 351.998 31.2929 352.151 30.9651C352.413 30.9651 352.675 30.9433 352.916 30.9433V30.9214ZM354.642 33.8278C353.484 34.549 352.217 35.0953 350.884 35.2264C350.818 34.8112 350.753 34.396 350.687 34.0026C350.905 33.5656 351.102 33.1285 351.321 32.6915C352.435 33.063 353.528 33.4563 354.642 33.8278ZM351.867 30.244C351.277 30.244 350.687 30.244 350.097 30.244C350.031 29.7414 349.944 29.2388 349.857 28.7361C350.534 29.2388 351.168 29.7414 351.867 30.2221V30.244ZM346.972 31.3148C347.868 31.577 348.742 31.8611 349.616 32.1233C349.726 32.8663 349.857 33.6093 349.966 34.3523C349.791 34.6582 349.573 34.9204 349.376 35.2264C348.021 35.0297 346.666 34.3523 345.836 33.3252C346.164 32.6259 346.535 31.9485 346.972 31.3148ZM345.639 33.7404C346.47 34.7675 347.715 35.4886 349.004 35.7727C348.524 36.4938 348.043 37.2368 347.519 37.9361C346.666 37.3242 345.77 36.7561 344.875 36.1879C345.028 35.3356 345.29 34.5271 345.618 33.7186L345.639 33.7404ZM344.765 37.062C345.53 37.5428 346.295 38.0672 347.038 38.5917C346.71 39.0069 346.382 39.4221 346.033 39.8373C345.574 39.3784 345.137 38.9195 344.678 38.4824C344.678 38.0017 344.7 37.5428 344.765 37.062ZM344.328 36.7779C344.263 37.1713 344.197 37.5865 344.175 38.0017C342.755 36.6905 341.291 35.4231 339.74 34.2649C341.313 35.0079 342.842 35.882 344.328 36.7998V36.7779ZM347.322 43.0278C339.827 42.5689 332.441 39.5314 327.066 34.3304C331.349 36.1879 335.588 38.1328 339.783 40.2088C339.914 40.2743 340.046 40.0777 339.914 40.0121C335.413 37.4554 330.693 35.1608 325.886 33.1285C324.903 32.0577 324.007 30.9433 323.198 29.7414C327.416 30.1347 331.524 31.0525 335.457 32.4948C338.538 34.5052 341.422 36.8435 344.132 39.4002C344.132 40.2743 344.241 41.1703 344.438 42.0226C344.503 42.2848 344.875 42.3941 345.049 42.1755C345.355 41.8477 345.618 41.4762 345.902 41.1485C346.47 41.7385 347.06 42.3285 347.628 42.9404C347.54 42.9841 347.431 43.0278 347.344 43.0715L347.322 43.0278ZM348.502 42.5033C347.868 41.7603 347.213 41.0173 346.535 40.3181C346.885 39.881 347.235 39.4221 347.584 38.9632C348.589 39.7062 349.551 40.4929 350.512 41.3014C349.879 41.7385 349.223 42.1537 348.524 42.5033H348.502ZM348.021 38.3295C348.567 37.5428 349.07 36.7124 349.573 35.8601C349.638 35.8601 349.704 35.882 349.769 35.9038C349.922 35.9038 350.053 35.9038 350.184 35.9038C350.425 37.4772 350.643 39.0725 350.905 40.6458C349.966 39.8373 349.004 39.0725 347.999 38.3295H348.021ZM357.81 62.2581C356.609 62.5641 355.145 61.69 354.227 61.0344C352.654 59.8762 351.408 58.1498 350.075 56.7076C347.977 54.4349 345.858 52.2059 343.76 49.9551C344.438 49.6928 345.049 49.2558 345.639 48.8406C345.902 48.6658 346.164 48.4691 346.426 48.2943C347.781 54.413 352.61 59.614 358.772 60.9688C358.772 61.6026 358.51 62.0833 357.832 62.2581H357.81ZM354.795 53.3859C355.451 54.1508 357.832 57.4068 358.553 59.7669C353.047 58.0406 348.48 53.6482 347.125 47.9446C350.097 49.1247 352.719 50.9384 354.817 53.3859H354.795ZM355.057 44.7104C353.659 46.1746 352.26 47.6387 350.84 49.081C350.84 49.081 350.84 49.1028 350.84 49.1247C349.813 48.4691 348.742 47.9009 347.65 47.4202C348.174 47.0487 348.699 46.6772 349.245 46.3057C350.818 45.1912 352.37 44.0767 353.943 42.9404C354.314 43.5304 354.708 44.1204 355.101 44.7104H355.057ZM354.008 41.8914L352.632 39.8591C353.79 38.5917 354.729 37.1057 355.341 35.4449C355.385 35.3356 355.21 35.2919 355.166 35.4012C354.511 37.0839 353.593 38.4824 352.479 39.6406L351.299 37.8706C351.19 37.215 351.08 36.5375 350.993 35.882C352.522 35.7071 353.943 34.986 355.21 34.0463C357.439 34.8549 359.646 35.7071 361.853 36.6031C359.209 38.3513 356.609 40.1214 354.008 41.9133V41.8914ZM356.871 32.6696C357.352 32.2326 357.832 31.7737 358.269 31.3366C359.624 31.5333 360.957 31.8174 362.312 32.2107C366.988 33.5437 371.205 35.7727 375.051 38.701C368.692 37.652 362.552 35.6197 356.871 32.6696Z" fill="black"/>
<path d="M340.286 56.7515C339.172 59.0679 336.397 60.3353 333.95 59.4175C334.583 58.0845 335.304 56.7296 336.178 55.484C337.402 54.5444 338.495 53.4736 339.369 52.2061C339.522 51.9876 339.172 51.7035 338.997 51.9221C335.785 54.5662 332.485 57.0356 328.378 58.1064C326.455 58.609 323.898 58.8275 322.325 57.3415C321.057 56.1178 320.467 53.6921 322.063 52.4902C322.172 52.4028 322.063 52.2061 321.953 52.2936C320.489 53.2988 320.249 55.2 320.926 56.7515C321.822 58.8493 324.138 59.636 326.28 59.5268C328.836 59.4175 331.437 58.4123 333.644 57.1667C334.19 56.8608 334.714 56.533 335.217 56.1833C334.408 57.1885 333.622 58.2375 332.988 59.4175C332.879 59.6142 332.923 59.9201 333.141 60.0075C335.938 61.3406 339.696 59.9201 340.614 56.8608C340.658 56.6859 340.396 56.5548 340.308 56.7296L340.286 56.7515Z" fill="black"/>
<path d="M440.363 61.8211C440.451 61.7118 440.516 61.5588 440.429 61.384C440.079 60.7066 439.73 60.051 439.358 59.4173C437.26 54.719 434.529 50.2829 431.23 46.3275C430.924 45.956 430.377 46.3494 430.465 46.7646C430.552 47.1361 430.683 47.4857 430.771 47.8354C424.194 40.9299 415.978 35.6416 406.931 32.4948C407.674 32.4511 408.417 32.3855 409.138 32.32C409.335 32.32 409.335 31.9922 409.138 32.014C408.024 32.0796 406.909 32.1233 405.817 32.1233C404.921 31.8392 404.025 31.5551 403.107 31.3148C399.611 30.3532 396.028 29.7414 392.422 29.501C389.713 27.0753 387.637 23.9504 386.544 20.454C391.767 21.4155 396.923 22.7485 401.971 24.453C402.627 24.6715 402.889 23.6445 402.255 23.4259C397.011 21.6559 391.657 20.2792 386.216 19.3176C386.107 18.8587 385.998 18.378 385.911 17.8972C385.867 17.6568 385.583 17.4383 385.342 17.4602C383.9 17.6131 382.524 18.0065 381.234 18.5528C380.863 18.5091 380.491 18.4217 380.098 18.378C376.449 17.9409 372.691 17.5913 368.91 17.5039C369.326 17.1979 369.784 16.9576 370.309 16.7609C370.418 16.7172 370.374 16.5424 370.265 16.5861C369.588 16.7827 369.042 17.1324 368.517 17.5039C364.781 17.4165 361.044 17.5694 357.439 18.1157C357.045 18.1813 356.98 18.815 357.329 18.968C359.58 20.0388 362.049 20.2792 364.431 19.5362C364.628 19.4706 364.54 19.1865 364.344 19.2302C362.661 19.6017 361 19.5143 359.427 18.9461C362.049 18.8369 364.649 18.7058 367.272 18.7058C366.354 19.8858 365.851 21.3936 365.698 22.9452C365.633 22.9015 365.589 22.8578 365.524 22.8141C365.392 22.7048 365.261 22.9452 365.392 23.0326C365.48 23.0982 365.589 23.1856 365.676 23.2511C365.589 24.5841 365.764 25.9171 366.223 27.119C368.255 32.5166 374.614 34.5271 379.727 35.5542C379.88 35.5979 379.945 35.3575 379.792 35.3138C375.247 33.9152 369.588 31.9485 367.315 27.3813C366.791 26.3105 366.485 25.0649 366.419 23.7974C371.227 27.4031 376.034 31.0307 380.885 34.5708C380.972 34.6364 381.038 34.5052 380.972 34.4397C376.143 30.7466 371.292 27.119 366.419 23.4915C366.376 21.7651 366.791 20.0388 367.752 18.7058C368.058 18.7058 368.386 18.7058 368.692 18.7058C372.319 18.7713 375.946 19.0117 379.552 19.4269C378.437 20.0825 377.389 20.8473 376.471 21.8088C376.23 22.0492 376.231 22.5518 376.58 22.7048C379.311 23.9723 381.977 25.3927 384.556 26.9661C386.02 27.8839 387.549 28.8235 388.926 29.938C388.926 30.1347 389.035 30.3095 389.254 30.3751C389.341 30.3969 389.429 30.4188 389.516 30.4406C390.259 31.0962 390.958 31.8174 391.526 32.6478C392.225 33.6967 392.837 34.9641 392.597 36.2535C392.466 37.0183 392.051 37.6083 391.483 38.0235C391.745 37.3242 391.963 36.6031 392.182 35.8601C392.225 35.7071 391.985 35.576 391.898 35.7508C391.439 36.7124 390.958 37.6739 390.412 38.5917C390.04 38.701 389.647 38.7884 389.232 38.7884C388.707 38.7884 388.249 38.701 387.79 38.5698C388.751 37.3679 389.603 36.1005 390.346 34.7456C390.477 34.4834 390.39 34.1993 390.171 34.0463C388.554 32.9537 386.413 33.3252 385.102 34.5927C384.556 33.3908 383.114 32.5385 381.781 33.3252C381.54 33.4563 381.431 33.806 381.584 34.0463C382.065 34.7893 382.589 35.5323 383.157 36.2535C383.157 36.2535 383.135 36.2535 383.114 36.2535C381.693 36.5594 380.491 37.9361 379.464 38.8539C377.323 40.777 375.204 43.1589 374.788 46.1309C374.439 48.775 375.422 51.7907 378.022 52.8833C378.241 52.9707 378.437 52.8178 378.569 52.6648C379.333 51.6596 380.12 50.6544 380.907 49.6491C381.016 50.108 381.125 50.567 381.3 51.004C381.431 51.3318 381.759 51.5066 382.108 51.3318C384.468 50.0862 386.173 47.8791 386.959 45.3442C387.2 44.5793 387.353 43.7489 387.418 42.8967C388.598 42.4159 389.669 41.4544 390.368 40.3618C390.521 40.1214 390.652 39.8591 390.783 39.5969C392.597 38.985 393.908 37.3679 393.689 35.2482C393.537 33.653 392.728 32.2544 391.657 31.0525C392.16 31.1836 392.684 31.3148 393.187 31.4459C394.826 32.6041 396.618 33.5219 398.519 34.1775C398.999 34.8767 399.414 35.6416 399.808 36.3627C400.288 37.2368 400.682 38.1765 400.944 39.138C401.512 41.061 401.643 42.9841 401.468 44.9945C401.468 45.5627 402.408 45.7375 402.495 45.1256C402.495 45.0819 402.495 45.0382 402.495 44.9945C402.495 44.9945 402.495 44.9508 402.495 44.9071C402.583 44.2952 402.605 43.6834 402.605 43.0715C402.78 42.0663 403.217 41.1485 403.894 40.3399C404.462 42.6126 405.445 44.776 406.975 46.6335C407.521 47.3109 408.155 48.0757 408.963 48.4035C409.531 48.6221 410.406 48.6221 410.733 48.0102C411.083 47.3546 410.231 45.9123 409.553 46.699C409.444 46.8301 409.619 47.005 409.75 46.8957C410.078 46.6116 410.253 47.1579 410.274 47.3546C410.274 47.7043 410.1 47.8572 409.75 47.8354C409.094 47.7917 408.526 47.1798 408.111 46.7209C407.237 45.7594 406.472 44.6667 405.839 43.5085C405.205 42.3722 404.681 41.1485 404.309 39.881C404.418 39.7936 404.484 39.6625 404.593 39.5751C404.724 39.4658 404.549 39.2036 404.396 39.3128C404.331 39.3565 404.287 39.4221 404.222 39.4658C403.916 38.3076 403.697 37.1276 403.654 35.9475C403.654 35.7727 403.369 35.7508 403.369 35.9475C403.369 37.2805 403.544 38.5698 403.807 39.8373C403.304 40.2962 402.867 40.7988 402.517 41.367C402.386 40.471 402.19 39.5751 401.905 38.7228C401.556 37.7394 401.097 36.7779 400.529 35.882C400.136 35.2482 399.655 34.7675 399.152 34.2867C400.835 34.7893 402.605 35.0734 404.418 35.0734C404.593 35.0734 404.571 34.833 404.418 34.8112C401.272 34.5271 398.234 33.4782 395.569 31.8392C398.191 32.2981 400.813 32.5604 403.479 32.5822C414.142 35.5979 423.909 41.5637 431.426 49.9114C433.065 54.2601 435.709 58.1935 439.161 61.3403C441.106 66.0823 442.374 71.1085 443.007 76.2657C440.647 74.0149 439.402 70.9336 439.511 67.6339C439.511 67.3935 439.161 67.4154 439.161 67.6339C438.943 71.3488 440.429 74.9108 443.226 77.3583C443.422 77.5331 443.816 77.4239 443.794 77.1179C443.444 71.8733 442.221 66.7161 440.298 61.7992L440.363 61.8211ZM390.04 29.3917C389.429 28.8891 388.817 28.4302 388.205 27.9931C384.949 25.7205 381.497 23.7537 377.913 22.0492C379.006 21.044 380.229 20.2355 381.562 19.6673C382.786 19.8421 384.031 19.9951 385.255 20.2136C386.26 23.7537 388.249 26.9224 390.871 29.4354C390.587 29.4354 390.303 29.4136 390.04 29.3917ZM385.08 36.5812C385.189 36.3846 385.277 36.1879 385.321 35.9694C386.042 34.6364 387.702 34.0245 389.123 34.5927C387.921 35.3356 386.741 36.1442 385.626 36.9964C385.452 36.8435 385.277 36.7124 385.08 36.5812ZM384.862 38.0017C385.102 38.2202 385.342 38.4169 385.583 38.5917C385.692 38.7884 385.801 38.9632 385.889 39.1599C385.168 39.9247 384.403 40.624 383.594 41.3014C383.288 41.0392 383.004 40.7551 382.786 40.4492C382.72 40.3618 382.677 40.2525 382.633 40.1432C383.332 39.4002 384.075 38.6791 384.84 38.0017H384.862ZM377.563 45.2349C377.323 45.5627 377.716 46.0872 378.088 45.9342C378.962 45.5845 379.814 45.1475 380.644 44.6886C380.448 46.0872 380.47 47.5076 380.732 48.9061C379.858 49.8458 379.006 50.8073 378.132 51.747C376.471 50.6981 375.684 48.8187 375.75 46.852C375.837 44.3389 377.432 42.1974 379.137 40.4929C380.011 39.6188 380.95 38.7884 381.912 37.9798C382.414 37.5646 383.026 37.1057 383.725 37.1276C383.813 37.1276 383.9 37.1713 384.009 37.1931C383.398 37.8924 382.851 38.6572 382.392 39.4876C382.261 38.8539 382.371 38.2202 382.895 37.7176C383.026 37.6083 382.851 37.4335 382.72 37.5428C381.803 38.2639 381.671 39.2473 381.977 40.1869C380.36 41.7603 378.874 43.4211 377.542 45.2568L377.563 45.2349ZM386.063 44.6886C385.452 46.852 384.053 48.7313 382.152 49.9332C381.999 49.4525 381.846 48.9936 381.759 48.5128C382.283 47.8354 382.808 47.1579 383.332 46.4805C383.441 46.3494 383.267 46.1527 383.135 46.2838C382.633 46.8301 382.152 47.3546 381.65 47.9009C381.431 46.6553 381.409 45.3879 381.54 44.1641C382.327 43.6615 383.092 43.137 383.835 42.547C383.878 42.547 383.9 42.6126 383.922 42.6344C384.731 43.1152 385.561 43.2245 386.369 43.137C386.304 43.6834 386.195 44.2297 386.063 44.7323V44.6886ZM385.058 42.11C384.884 42.0663 384.731 41.9789 384.578 41.9133C385.168 41.4107 385.736 40.8644 386.26 40.3181C386.391 40.9299 386.457 41.5418 386.457 42.1755C386.02 42.2629 385.539 42.2629 385.058 42.11ZM386.828 38.1109C386.653 38.0235 386.479 37.9143 386.304 37.805C386.282 37.7613 386.26 37.7176 386.238 37.6739C386.107 37.4991 385.954 37.3242 385.779 37.1494C386.85 36.2535 387.986 35.4012 389.166 34.6364C389.166 34.6364 389.166 34.6364 389.166 34.6145C389.166 34.6145 389.188 34.6145 389.21 34.6145C388.511 35.8601 387.702 36.9964 386.806 38.0672L386.828 38.1109ZM387.943 41.5418C387.79 41.6511 387.637 41.7166 387.484 41.804C387.462 40.9955 387.331 40.1869 387.09 39.4221C387.09 39.4221 387.112 39.3784 387.134 39.3784C387.702 39.5969 388.292 39.7499 388.926 39.7936C389.188 39.7936 389.45 39.7936 389.713 39.7717C389.21 40.4492 388.642 41.1047 387.943 41.5637V41.5418ZM433.436 52.2059C435.141 54.3256 436.736 56.5546 438.113 58.8928C438.178 59.0239 438.222 59.1332 438.287 59.2643C436.321 57.1665 434.682 54.7845 433.436 52.2059Z" fill="black"/>
</g>
<defs>
<clipPath id="clip0_7278_831">
<rect width="450" height="159" fill="white"/>
</clipPath>
</defs>
</svg>
