<svg width="375" height="400" viewBox="0 0 375 400" fill="none" xmlns="http://www.w3.org/2000/svg">
<g clip-path="url(#clip0_7278_653)">
<path d="M208.117 117.457C208.064 117.297 207.824 117.377 207.877 117.511C208.677 120.362 209.45 123.214 210.303 126.066C210.33 126.173 210.489 126.119 210.463 126.013C209.716 123.134 208.917 120.283 208.117 117.431V117.457Z" fill="black"/>
<path d="M224.056 176.413C220.538 180.037 216.833 183.476 213.048 186.807C211.182 188.46 209.29 190.059 207.371 191.658C206.358 192.511 205.265 193.31 204.199 194.137C204.439 193.79 204.679 193.444 204.892 193.07C205.025 192.857 204.705 192.591 204.519 192.804C203.452 194.003 202.573 195.389 201.48 196.562C201.08 196.988 201.587 197.655 202.093 197.361C204.199 196.189 206.065 194.35 207.904 192.777C209.85 191.125 211.742 189.392 213.608 187.66C217.339 184.169 220.831 180.411 224.27 176.626C224.403 176.466 224.19 176.226 224.03 176.386L224.056 176.413Z" fill="black"/>
<path d="M141.028 276.892C140.735 277.665 139.669 277.345 139.162 276.972C138.816 276.732 138.576 276.093 138.389 275.72C138.07 275.08 137.75 274.467 137.43 273.801C136.737 272.335 136.177 270.789 135.671 269.243C134.685 266.178 134.125 262.98 133.992 259.755C133.752 253.358 135.058 246.882 137.99 241.178C138.043 241.072 137.883 240.965 137.803 241.072C133.618 247.921 132.019 255.944 133.112 263.913C133.645 267.857 134.818 271.669 136.684 275.16C137.297 276.279 138.096 278.038 139.509 278.305C140.495 278.492 141.295 277.905 141.375 276.919C141.375 276.706 141.082 276.706 141.028 276.866V276.892Z" fill="black"/>
<path d="M149.851 214.259C141.108 219.963 131.939 224.813 122.69 229.638C122.53 229.718 122.69 229.957 122.85 229.877C132.365 225.693 141.374 220.229 149.957 214.419C150.064 214.339 149.957 214.179 149.851 214.259Z" fill="black"/>
<path d="M219.179 169.456C216.487 169.589 214.327 167.591 213.208 165.298C211.849 162.5 211.955 159.302 212.035 156.263C212.035 156.077 211.769 156.077 211.742 156.263C211.475 159.462 211.129 163.086 212.755 166.018C214.008 168.283 216.487 170.043 219.179 169.776C219.365 169.776 219.392 169.456 219.179 169.456Z" fill="black"/>
<path d="M374.92 0.239892C375.053 0.159934 374.92 -0.0532852 374.787 0.0266722C359.701 7.03627 344.961 14.7655 330.621 23.2143C329.368 23.7474 328.115 24.3071 326.836 24.8401C323.237 26.3859 319.666 27.8252 315.801 28.2783C327.929 19.323 341.229 11.8337 354.956 5.65034C355.169 5.54373 354.983 5.25055 354.77 5.35716C340.11 11.6738 326.409 19.5896 313.215 28.5448C312.656 28.9179 312.869 29.7708 313.562 29.7975C316.6 29.9307 319.559 29.2111 322.384 28.1717C317.747 31.0235 313.135 33.9286 308.604 36.9137C302.607 40.8849 296.69 44.9894 290.852 49.2004V49.2537C290.453 49.467 290.053 49.6802 289.68 49.8668C285.788 51.6791 281.923 53.5448 278.058 55.4371C279.977 54.0512 281.897 52.6919 283.816 51.3326C289.946 46.935 296.183 42.7239 302.5 38.6461C302.66 38.5395 302.5 38.2729 302.34 38.3795C295.89 42.484 289.546 46.7218 283.256 51.0661C282.483 51.5992 281.71 52.1589 280.937 52.7186C280.884 52.6653 280.804 52.612 280.724 52.6653C277.339 54.7708 273.954 56.903 270.595 59.0885C269.476 59.6482 268.356 60.1813 267.237 60.741C267.237 60.661 267.21 60.581 267.103 60.6077C256.308 64.4989 245.807 69.1098 235.651 74.4137C232.853 75.3732 230.027 76.1727 227.069 76.6258C232.08 72.2815 237.357 68.2569 242.901 64.6322C243.114 64.4989 242.901 64.1791 242.715 64.3124C236.531 68.177 230.614 72.4147 224.99 77.0256C224.643 77.3188 224.91 77.9584 225.363 77.9318C227.362 77.7452 229.334 77.3188 231.28 76.7857C226.056 79.6642 220.911 82.7026 215.9 85.9542C215.367 86.3007 215.687 87.2601 216.353 87.0203C217.606 86.5672 218.832 86.0874 220.085 85.581C219.765 85.8742 219.472 86.194 219.152 86.4872C216.753 88.0331 214.328 89.6056 211.982 91.258C208.944 93.097 205.905 94.9627 202.893 96.8284C202.173 97.2815 202.786 98.2676 203.533 97.9478C205.479 97.0949 207.398 96.2154 209.317 95.3625C209.69 95.4424 210.063 95.4424 210.41 95.4424C204.706 98.8007 199.135 102.372 193.857 106.317C193.484 105.037 193.111 103.758 192.738 102.479C192.604 101.972 191.752 102.052 191.805 102.612C192.045 105.57 192.391 108.529 192.791 111.461C192.711 111.62 192.578 111.78 192.525 111.967C192.338 112.42 192.578 112.846 193.004 112.9C194.684 124.414 197.456 135.794 200.947 146.828C201.134 147.388 202.067 147.308 202.013 146.695C201.614 141.791 201.56 136.807 201.854 131.85C204.013 139.872 207.051 147.628 211.049 154.904C211.129 155.037 211.316 155.144 211.476 155.091C213.128 154.451 213.395 152.772 213.262 151.146C213.661 151.999 214.061 152.852 214.461 153.705C214.754 155.757 215.101 157.836 215.554 159.835C215.581 159.968 215.847 159.941 215.82 159.808C215.687 158.422 215.527 157.036 215.394 155.677C217.233 159.542 219.099 163.406 221.151 167.164C221.791 168.337 222.457 169.51 223.124 170.656C221.365 171.589 219.659 172.548 217.926 173.534C215.421 170.309 212.862 167.138 210.303 163.993C208.864 162.207 207.344 160.474 205.905 158.715C205.239 157.916 204.332 156.77 204.492 155.624C204.626 154.584 206.038 153.571 206.891 154.531C207.078 154.744 207.344 154.451 207.184 154.238C206.278 153.065 204.439 153.838 203.879 154.984C202.84 157.063 205.132 159.302 206.305 160.768C209.903 165.192 213.661 169.536 217.473 173.801C209.69 178.172 202.2 182.969 195.003 188.193C177.998 197.974 161.792 209.009 146.412 221.135C143.88 222.468 141.348 223.854 138.869 225.293C133.512 228.412 128.288 231.77 123.197 235.315C120.958 236.887 118.505 238.406 116.506 240.325C115.2 241.578 113.521 243.817 114.321 245.736C114.694 246.615 115.52 246.935 116.506 246.988C115.653 247.761 114.827 248.561 113.974 249.334C113.521 249.76 114.134 250.586 114.667 250.213C116.506 248.961 118.319 247.681 120.131 246.402C120.638 246.269 121.091 246.135 121.437 246.055C119.332 248.081 117.279 250.107 115.227 252.186C114.614 252.799 115.413 253.865 116.16 253.412C118.159 252.212 120.158 250.986 122.104 249.707C122.184 256.477 122.504 263.22 123.143 269.963C123.543 274.147 123.996 278.332 124.583 282.516C109.31 296.135 95.4227 311.141 83.0551 327.425C82.3621 327.905 81.6691 328.358 80.9761 328.838C73.9393 332.649 67.0625 336.727 60.239 340.965C60.239 340.832 60.1324 340.698 59.9724 340.778C57.0405 342.724 54.1351 344.696 51.2032 346.668C46.512 349.707 41.8475 352.798 37.2096 355.917C31.8521 359.542 26.4679 363.14 21.1904 366.871C20.4973 367.351 21.1371 368.47 21.8567 368.017C39.2087 356.397 56.2941 344.43 74.2059 333.689C60.159 343.737 46.4587 354.264 33.2648 365.458C25.5883 371.962 17.7253 378.545 10.7152 385.794C10.3687 386.167 10.8485 386.86 11.3016 386.54C12.0213 386.007 12.7409 385.528 13.4606 384.995C8.90271 389.392 4.55805 394.003 0.213391 398.667C-0.479622 399.414 0.559897 400.453 1.33287 399.787C4.85125 396.695 8.07642 393.257 11.4615 390.032C14.8466 386.807 18.2584 383.609 21.7234 380.437C24.922 377.505 28.1205 374.627 31.3723 371.748C32.7584 370.736 34.171 369.749 35.5571 368.71C35.5571 369.03 35.7969 369.323 36.0901 369.403C32.9716 372.761 29.9063 376.173 27.001 379.691C26.8411 379.877 27.1076 380.171 27.2676 379.957C32.1453 374.574 37.2096 369.403 42.4072 364.339C44.8328 362.233 47.2583 360.101 49.7372 357.996C57.0938 352.372 64.3971 346.668 71.6204 340.885C71.7803 340.752 71.5671 340.458 71.3805 340.592C68.3686 342.937 65.3033 345.229 62.2647 347.521C67.1158 343.55 71.9935 339.632 76.9246 335.768C75.7252 337.447 74.5524 339.152 73.4062 340.858C66.0763 347.521 58.8263 354.264 51.7096 361.194C48.7243 364.099 45.7657 367.031 42.8337 370.016C40.4348 372.468 37.9826 374.893 35.717 377.452C36.49 375.16 37.7694 373.161 39.5285 371.402C39.7418 371.189 39.4219 370.869 39.182 371.055C36.6765 373.241 34.9707 376.146 34.0911 379.318C33.9311 379.877 34.5975 380.197 34.9973 379.851C40.4348 375.027 45.3392 369.51 50.4835 364.392C55.6544 359.248 60.8787 354.158 66.1829 349.147C67.6222 347.761 69.1149 346.429 70.5809 345.069C69.5413 346.668 68.4752 348.268 67.489 349.92C67.4357 350 67.5689 350.08 67.6222 350C69.0083 347.974 70.4209 345.949 71.807 343.95C76.1516 339.899 80.4963 335.901 84.8942 331.93C81.5091 335.714 78.1774 339.526 74.9255 343.417C72.3934 346.429 69.9145 349.494 67.4623 352.585C67.1958 352.905 66.0496 353.945 66.2895 354.371C66.4761 354.664 66.7426 354.584 66.9292 354.371C66.9825 354.318 66.9026 354.238 66.8493 354.291C66.8493 354.211 66.8493 354.104 66.8493 354.025C66.7959 353.705 66.9559 353.465 67.2757 353.278C67.4623 353.038 67.6755 352.798 67.8888 352.585C68.3686 352.026 68.8217 351.493 69.3015 350.933C70.3143 349.76 71.3272 348.587 72.3667 347.441C74.2858 345.256 76.2049 343.097 78.124 340.938C82.0422 336.541 86.0137 332.17 90.0385 327.852C90.7582 327.079 91.5045 326.306 92.2242 325.56C93.0771 325.027 93.9034 324.467 94.7297 323.961C94.863 323.881 94.7297 323.694 94.6231 323.774C94.0367 324.12 93.477 324.52 92.9172 324.867C92.9972 324.787 93.0505 324.707 93.1304 324.654C93.3703 324.44 93.6102 324.227 93.8501 324.014C94.8097 323.428 95.7426 322.788 96.7021 322.202C96.862 322.095 96.7021 321.855 96.5422 321.962C96.169 322.175 95.7959 322.415 95.4227 322.628C96.4889 321.695 97.5284 320.736 98.5946 319.829C100.167 318.47 101.766 317.164 103.339 315.805C107.604 312.713 111.895 309.622 116.16 306.53C116.16 306.53 116.16 306.503 116.186 306.477C117.599 305.597 118.985 304.691 120.398 303.811C117.199 307.862 113.974 311.86 110.776 315.858C106.404 321.322 101.98 326.732 97.5284 332.116C95.3694 334.622 93.2637 337.18 91.2113 339.819C90.9981 340.085 90.7849 340.325 90.5983 340.592C90.5716 340.645 90.5183 340.672 90.4917 340.725C90.0119 341.338 91.0781 342.164 91.5845 341.578C93.8501 338.806 96.0891 336.007 98.328 333.209C104.752 325.613 111.655 318.47 119.038 311.834C118.212 314.312 117.439 316.818 116.746 319.35C116.053 320.256 115.307 321.109 114.587 321.988C114.534 322.042 114.481 322.068 114.427 322.122C110.962 325.453 107.604 329.104 104.885 333.102C104.565 333.555 105.285 334.088 105.631 333.689C108.91 330.144 111.895 326.386 114.747 322.521C115.254 321.988 115.76 321.429 116.293 320.922C116.133 321.509 115.973 322.068 115.813 322.628C115.014 325.773 113.814 329.344 115.413 332.436C115.547 332.703 115.92 332.703 116.106 332.516C119.465 329.398 122.264 325.666 124.209 321.509C124.796 320.256 128.074 313.966 124.769 314.179C123.037 314.286 121.331 316.125 120.078 317.164C119.225 317.884 118.399 318.657 117.546 319.376C118.345 316.365 119.225 313.38 120.211 310.421C121.331 306.983 122.637 303.598 123.996 300.24C124.609 299.44 125.222 298.641 125.835 297.841C125.862 298.134 125.889 298.454 125.942 298.747C125.782 299.867 125.595 301.013 125.436 302.132C125.036 304.957 124.476 307.836 124.343 310.688C124.343 310.794 124.529 310.821 124.556 310.714C125.302 307.756 125.595 304.638 126.022 301.626C126.075 301.253 126.129 300.88 126.182 300.506C126.182 300.506 126.182 300.56 126.182 300.586C126.208 300.773 126.475 300.826 126.608 300.693C126.955 300.293 127.301 299.893 127.648 299.494C127.808 300.16 127.914 300.826 128.074 301.466C128.128 301.626 128.341 301.546 128.314 301.413C128.208 300.64 128.074 299.893 127.968 299.12C128.101 298.961 128.261 298.774 128.421 298.614C128.501 298.534 128.367 298.401 128.288 298.481C128.181 298.587 128.048 298.694 127.941 298.801C127.781 297.788 127.648 296.802 127.488 295.816C128.741 294.216 129.993 292.644 131.299 291.071C131.779 293.79 132.232 296.482 132.765 299.174C132.899 299.84 133.992 299.68 133.938 299.014C133.832 297.601 133.645 296.215 133.485 294.803C133.912 296.882 134.365 298.961 134.898 301.013C134.978 301.279 135.378 301.279 135.431 301.013C135.538 300.453 135.644 299.867 135.751 299.307C135.777 299.147 135.564 299.094 135.511 299.254C135.431 299.467 135.351 299.654 135.271 299.867C134.898 297.175 134.418 294.51 133.885 291.844C133.965 291.898 134.018 291.978 134.098 292.031C134.711 292.297 135.324 291.978 135.431 291.338C135.431 291.231 135.298 291.178 135.271 291.285C134.765 291.151 134.231 291.045 133.725 290.912C133.485 289.659 133.245 288.433 132.979 287.18C133.352 287.98 133.672 288.806 134.045 289.579C134.311 290.139 135.218 289.845 135.191 289.259C134.844 279.957 133.645 270.709 131.753 261.62C131.886 260.768 132.019 259.888 132.152 259.009C132.152 258.875 131.966 258.822 131.939 258.955C131.833 259.622 131.726 260.315 131.619 260.981C130.846 257.303 129.967 253.678 128.954 250.053C129.62 247.521 130.606 245.096 131.939 242.857C131.992 242.857 132.019 242.831 132.072 242.804C132.232 242.751 132.232 242.591 132.152 242.484C134.125 239.312 136.737 236.567 140.149 234.755C140.255 234.702 140.149 234.568 140.069 234.622C136.524 236.407 133.725 239.206 131.619 242.484C131.486 242.511 131.326 242.564 131.193 242.591C131.219 242.564 131.273 242.537 131.299 242.484C131.539 242.244 131.193 241.951 130.953 242.138C130.606 242.404 130.26 242.671 129.913 242.937C128.527 243.31 127.141 243.63 125.729 243.923C128.554 241.205 131.433 238.539 134.365 235.901C138.23 233.022 142.068 230.117 145.933 227.292C151.61 223.108 157.287 218.923 162.965 214.712C164.004 214.152 165.044 213.566 166.083 212.98C165.124 213.939 164.138 214.925 163.205 215.912C159.713 219.59 156.408 223.454 153.183 227.345C148.758 231.263 144.333 235.235 140.175 239.446C139.536 240.085 140.522 241.098 141.188 240.458C143.907 238.06 146.572 235.608 149.211 233.156C149.398 233.316 149.718 233.369 149.984 233.156C155.715 228.412 161.419 223.614 167.123 218.843C162.512 223.454 157.954 228.145 153.582 232.996C152.943 233.715 153.929 234.728 154.649 234.062C161.126 228.145 167.576 222.228 174.053 216.338C173.946 216.604 173.786 216.844 173.707 217.111C173.573 217.484 174 217.857 174.346 217.751C177.065 217.004 179.677 215.885 181.676 213.833C181.889 213.619 181.57 213.353 181.356 213.513C179.491 214.979 177.491 216.098 175.173 216.525C175.652 215.618 176.159 214.765 176.692 213.886C182.209 208.849 187.7 203.811 193.217 198.774C193.404 198.587 193.111 198.294 192.924 198.481C188.1 202.719 183.275 206.93 178.451 211.167C179.544 209.595 180.743 208.076 182.049 206.61C188.34 200.773 194.843 195.123 201.454 189.632C203.16 188.353 204.919 187.18 206.678 185.954C206.678 186.274 206.971 186.594 207.371 186.381C209.797 185.048 212.035 183.209 214.221 181.477C214.781 181.023 215.314 180.544 215.874 180.064C216.22 179.851 216.567 179.611 216.913 179.424C217.02 179.344 216.967 179.238 216.887 179.211C217.153 178.971 217.446 178.731 217.713 178.491C218.139 178.225 218.539 177.932 218.966 177.665C219.499 177.345 220.058 176.999 220.592 176.679C220.805 176.546 220.592 176.253 220.405 176.359C220.032 176.546 219.685 176.759 219.312 176.946C219.712 176.546 220.138 176.173 220.565 175.746C220.725 175.586 220.485 175.373 220.325 175.506C219.312 176.386 218.273 177.239 217.233 178.092C215.687 178.945 214.141 179.771 212.622 180.624C213.715 179.771 214.861 178.945 215.954 178.092C216.034 178.038 216.114 177.985 216.194 177.958C216.247 177.932 216.274 177.878 216.3 177.825C218.832 175.88 221.364 173.881 223.95 171.988C226.962 177.159 230.16 182.196 233.439 187.207C233.732 187.633 234.318 187.26 234.132 186.807C233.199 184.648 232.239 182.489 231.253 180.331C231.36 180.49 231.466 180.65 231.573 180.784C231.706 180.997 232.053 180.784 231.92 180.597C231.067 179.131 230.214 177.665 229.334 176.199C226.882 170.975 224.376 165.805 221.871 160.634C219.392 155.57 216.913 150.506 214.408 145.442C214.408 145.203 214.354 144.989 214.354 144.749C215.234 142.244 214.461 138.353 214.274 136.541C214.115 135.128 213.928 133.689 213.715 132.276C213.661 130.037 213.635 127.825 213.581 125.586C214.274 128.145 215.047 130.677 215.9 133.209C215.954 133.342 216.14 133.289 216.114 133.156C213.528 124.147 211.476 115.032 209.876 105.81C212.622 102.212 215.687 98.854 218.966 95.7623C219.126 95.6024 218.886 95.3625 218.726 95.5224C215.527 98.3209 212.435 101.386 209.69 104.717C209.637 104.371 209.557 104.051 209.503 103.705C209.503 103.625 209.317 103.625 209.343 103.705C209.397 104.104 209.45 104.504 209.503 104.904C208.544 106.077 207.638 107.276 206.785 108.502C206.731 108.342 206.651 108.209 206.571 108.076C207.531 105.464 208.65 102.932 209.956 100.453C211.609 99.4936 213.235 98.5075 214.808 97.4414C214.994 97.3081 214.808 96.9883 214.621 97.1215C213.262 97.9744 211.876 98.7473 210.463 99.5203C210.516 99.4137 210.569 99.2804 210.649 99.1738C216.913 95.2559 223.337 91.5778 229.921 88.1663C230.134 88.0597 229.921 87.7665 229.734 87.8731C228.828 88.2996 227.921 88.726 227.015 89.1525C228.828 88.0597 230.614 86.967 232.426 85.8742C232 86.2473 232.426 86.967 232.986 86.6738C235.598 85.2879 238.183 83.8486 240.769 82.4094C260.493 74.0139 279.844 64.7655 298.715 54.6375C298.955 54.5043 298.742 54.1578 298.502 54.2911C282.483 62.4201 266.224 70.0693 249.805 77.2655C253.51 75.1333 257.215 73.0011 260.946 70.9222C269.902 66.5778 278.725 61.9936 287.441 57.1695C287.707 57.0363 287.467 56.6365 287.201 56.7697C283.709 58.6354 280.217 60.4211 276.699 62.2068C278.618 61.1407 280.564 60.0746 282.483 59.0085C288.56 55.8102 294.691 52.6386 300.821 49.5203C307.325 46.2154 313.855 42.9638 320.439 39.7655C320.599 39.6855 320.439 39.4456 320.305 39.5256C313.295 42.8838 306.339 46.322 299.408 49.8134C301.914 48.4808 304.419 47.1216 306.925 45.7356C307.165 45.6024 306.952 45.2292 306.712 45.3625C298.262 49.5203 289.893 53.8646 281.577 58.3156C283.096 57.4094 284.562 56.4499 286.055 55.5171C286.881 55.0373 287.734 54.5576 288.56 54.0778C291.652 52.5054 294.771 50.9595 297.836 49.3604C301.781 47.2815 305.699 45.1226 309.617 42.9638C313.455 41.1514 317.293 39.339 321.132 37.5533C321.212 37.5267 321.132 37.3934 321.052 37.4201C318.146 38.7527 315.214 40.1386 312.309 41.4979C318.226 38.2196 324.117 34.8614 329.928 31.3966C330.194 31.2367 329.954 30.8636 329.688 30.9968C325.236 33.4488 320.759 35.8476 316.307 38.2463C316.254 38.1663 316.174 38.113 316.067 38.1397C315.188 38.5128 314.308 38.8859 313.429 39.2591C324.57 32.516 335.578 25.5864 346.533 18.5768C346.906 18.3369 346.56 17.7239 346.187 17.9638C335.019 24.7601 323.744 31.4233 312.469 38.0597C311.749 38.4862 311.056 38.8859 310.337 39.3124C317.747 34.6216 325.157 29.9307 332.566 25.2399C332.78 25.1066 332.566 24.7601 332.38 24.8934C323.424 30.4105 314.468 35.9275 305.512 41.4446C305.326 41.5778 305.112 41.6845 304.926 41.8177C300.848 43.9499 296.77 46.1088 292.692 48.241C303.247 40.7783 314.095 33.6887 325.157 26.999C325.45 26.8657 325.743 26.7591 326.036 26.6258C330.621 24.6269 335.152 22.5213 339.736 20.4691C348.986 16.3113 358.181 12.0736 367.404 7.86249C367.644 7.75588 367.43 7.4094 367.19 7.51601C358.235 11.3273 349.305 15.112 340.376 18.9766C338.457 19.8028 336.538 20.629 334.592 21.4819C341.576 17.4307 348.586 13.5128 355.729 9.78147C362.099 6.44991 368.55 3.25162 375.053 0.186587L374.92 0.239892ZM121.384 316.418C122.104 315.858 122.85 315.139 123.676 314.765C124.583 314.126 125.116 314.312 125.276 315.352C125.729 315.698 125.835 316.098 125.649 316.498C125.595 316.924 125.356 317.377 125.196 317.804C124.529 319.67 123.703 321.482 122.717 323.214C120.931 326.333 118.665 329.078 116 331.477C114.8 328.118 116.32 324.067 117.173 320.816C117.253 320.496 117.359 320.203 117.439 319.883C118.692 318.71 119.971 317.537 121.357 316.471L121.384 316.418ZM175.439 200.96C176.159 200.48 176.852 200 177.571 199.52C182.449 196.269 187.407 193.15 192.391 190.112C190.632 191.418 188.9 192.777 187.194 194.136C182.129 197.201 177.145 200.4 172.187 203.625C173.28 202.719 174.346 201.839 175.466 200.986L175.439 200.96ZM163.605 210.714C163.898 210.528 164.164 210.341 164.457 210.128C163.871 210.714 163.311 211.327 162.752 211.914C161.046 213.14 159.313 214.366 157.607 215.618C156.888 215.938 156.168 216.231 155.475 216.551C158.194 214.606 160.886 212.607 163.631 210.688L163.605 210.714ZM122.157 241.684C120.851 242.884 119.572 244.083 118.265 245.283C118.079 245.283 117.866 245.336 117.679 245.362C117.439 245.389 117.039 245.522 116.826 245.469C116.32 245.336 115.787 244.51 115.787 243.95C115.787 242.857 117.146 241.658 117.892 240.991C118.932 240.059 120.078 239.259 121.197 238.433C121.517 238.193 121.864 237.953 122.184 237.74C122.13 239.072 122.13 240.378 122.104 241.711L122.157 241.684ZM122.477 237.553C124.263 236.274 126.022 234.995 127.834 233.742C131.992 230.89 136.257 228.198 140.602 225.64C140.469 225.746 140.362 225.826 140.229 225.933C137.03 228.332 133.858 230.757 130.82 233.342C130.606 233.529 130.606 233.742 130.66 233.982C127.888 236.381 125.196 238.859 122.504 241.365C122.504 240.112 122.45 238.833 122.45 237.58L122.477 237.553ZM52.1627 351.839C55.841 348.934 59.5726 346.109 63.3042 343.284C56.7473 348.401 50.2703 353.598 43.8732 358.929C41.421 360.821 38.9688 362.687 36.5699 364.606C41.7142 360.288 46.8852 356.023 52.1627 351.839ZM75.0854 339.366C76.2049 337.793 77.3244 336.194 78.4706 334.622C80.8961 332.996 83.3483 331.397 85.8005 329.797C82.2022 332.942 78.6305 336.167 75.0854 339.366ZM102.913 312.633C101.553 314.019 100.22 315.432 98.8611 316.818C94.1433 319.883 89.4521 323.028 84.8143 326.226C86.1737 324.494 87.5064 322.735 88.9191 321.029C96.3823 311.86 104.325 303.092 112.615 294.67C116.533 290.698 120.558 286.834 124.663 283.076C124.716 285.874 124.929 288.673 125.196 291.471C122.583 293.47 120.185 295.896 117.786 298.134C112.721 302.878 107.764 307.729 102.913 312.66V312.633ZM119.332 311.167C119.198 310.928 118.879 310.794 118.612 311.034C115.067 314.126 111.655 317.377 108.297 320.709C109.443 319.243 110.589 317.804 111.709 316.365C115.493 311.514 119.198 306.583 122.957 301.679C121.651 304.797 120.398 307.969 119.305 311.167H119.332ZM123.996 299.307C123.01 300.586 122.024 301.812 121.011 303.092C120.984 303.092 120.958 303.092 120.904 303.092C117.866 304.904 114.88 306.716 111.868 308.582C113.814 306.956 115.707 305.277 117.679 303.678C117.786 303.571 117.626 303.438 117.519 303.518C114.614 305.784 111.762 308.156 108.883 310.474C107.124 311.567 105.365 312.66 103.606 313.779C107.364 309.941 111.175 306.13 115.04 302.425C117.439 300.133 119.838 297.868 122.264 295.602C123.143 294.776 124.156 293.683 125.302 292.724C125.409 293.683 125.489 294.643 125.595 295.576C125.036 296.802 124.529 298.054 123.97 299.307H123.996ZM127.621 299.147C127.301 299.44 126.981 299.733 126.688 300.027C126.635 299.52 126.582 299.041 126.528 298.534C126.608 297.948 126.688 297.361 126.768 296.775C126.848 296.668 126.955 296.562 127.035 296.455C127.221 297.361 127.435 298.268 127.621 299.147ZM127.381 294.856C127.328 294.483 127.275 294.11 127.221 293.737C127.275 293.364 127.328 292.99 127.381 292.591C127.621 292.084 127.861 291.551 128.101 291.045C128.821 290.778 129.567 290.698 130.313 290.858C129.354 292.217 128.367 293.55 127.381 294.883V294.856ZM127.728 289.979C127.834 289.179 127.941 288.38 128.048 287.58L129.327 278.278C129.86 282.196 130.473 286.087 131.113 289.979C129.94 289.499 128.794 289.579 127.701 289.979H127.728ZM133.885 286.061C133.139 284.382 132.472 282.676 131.833 280.944C131.299 278.065 130.74 275.187 130.18 272.281C130.553 269.909 130.9 267.537 131.299 265.165C132.579 272.068 133.485 279.025 133.885 286.061ZM131.14 264.392C130.74 266.711 130.367 269.03 129.993 271.349C129.647 269.51 129.3 267.671 128.954 265.832C128.954 265.805 128.927 265.805 128.901 265.778C128.634 261.754 128.634 257.703 128.821 253.678C129.7 257.223 130.447 260.794 131.14 264.392ZM130.34 243.47C130.66 243.364 130.98 243.257 131.299 243.15C130.073 245.203 129.114 247.441 128.421 249.733C128.208 249.787 127.994 249.947 127.968 250.24C127.941 250.746 127.914 251.253 127.888 251.759C126.662 257.09 126.848 262.66 127.595 268.15C127.275 268.204 127.008 268.444 127.088 268.87C127.595 271.402 128.261 273.907 129.007 276.359C129.034 276.519 129.061 276.652 129.087 276.812C128.981 277.532 128.847 278.252 128.741 278.971C128.181 282.703 127.541 286.487 127.008 290.245C126.902 290.299 126.795 290.352 126.715 290.405C126.315 287.66 125.915 284.915 125.542 282.17C126.075 281.69 126.582 281.183 127.115 280.704C127.301 280.544 127.035 280.277 126.848 280.437C126.395 280.837 125.942 281.263 125.462 281.663C125.356 280.917 125.249 280.197 125.142 279.451C125.062 275.986 125.062 272.495 125.196 269.003C125.196 268.897 125.062 268.923 125.062 269.003C124.876 271.189 124.769 273.401 124.689 275.586C124.449 273.481 124.209 271.349 124.023 269.216C123.436 262.553 123.037 255.89 122.77 249.2C125.436 247.441 127.968 245.549 130.34 243.39V243.47ZM128.607 244.057C126.688 245.496 124.743 246.882 122.717 248.188C122.717 247.788 122.663 247.388 122.663 246.988C123.277 246.402 123.89 245.816 124.476 245.229C125.862 244.856 127.221 244.483 128.581 244.057H128.607ZM133.458 235.048C129.807 237.633 126.155 240.219 122.557 242.884C122.557 242.804 122.557 242.724 122.557 242.644C125.542 239.872 128.554 237.127 131.646 234.462C131.646 234.462 131.673 234.462 131.699 234.462C134.685 232.569 137.697 230.704 140.708 228.865C138.256 230.89 135.831 232.969 133.458 235.048ZM144.493 225.773C142.681 226.786 140.868 227.799 139.029 228.811C141.775 226.652 144.52 224.494 147.319 222.415C148.438 221.588 149.584 220.789 150.704 219.989C151.957 219.323 153.183 218.683 154.435 218.017C151.077 220.549 147.745 223.134 144.467 225.773H144.493ZM151.503 222.202C151.503 222.068 151.37 221.935 151.21 222.015C150.651 222.335 150.117 222.628 149.558 222.948C152.276 220.709 155.048 218.523 157.821 216.365C158.3 216.151 158.753 215.912 159.233 215.698C159.047 216.018 159.233 216.365 159.5 216.498C156.834 218.417 154.169 220.309 151.503 222.228V222.202ZM163.551 213.006C163.098 213.193 162.672 213.406 162.219 213.593C162.645 213.06 163.098 212.553 163.551 212.02C166.67 209.702 169.815 207.409 173.014 205.224C173.2 205.091 173.014 204.797 172.827 204.931C170.295 206.636 167.763 208.342 165.284 210.101C165.737 209.622 166.19 209.115 166.67 208.662C171.494 205.384 176.319 202.159 181.223 199.014C177.705 201.999 174.266 205.117 170.908 208.316C169.868 209.062 168.855 209.781 167.816 210.528C166.377 211.354 164.964 212.207 163.525 213.033L163.551 213.006ZM170.321 210.714C171.014 210.421 171.681 210.101 172.4 209.835C172.64 209.728 172.534 209.328 172.294 209.435C172.214 209.462 172.134 209.488 172.054 209.515C175.439 207.409 178.771 205.251 182.049 202.985C174.559 209.035 167.15 215.192 159.9 221.562C163.258 217.83 166.75 214.232 170.321 210.714ZM175.066 214.259C172.321 216.684 169.548 219.083 166.803 221.509C169.868 218.417 172.987 215.432 176.105 212.42C175.732 213.033 175.386 213.646 175.066 214.259ZM181.943 204.797C178.877 207.596 175.839 210.421 172.854 213.3C167.709 217.431 162.565 221.562 157.447 225.693C162.512 221.162 167.629 216.684 172.8 212.287C175.945 209.595 179.171 207.01 182.343 204.398C182.209 204.531 182.049 204.664 181.916 204.797H181.943ZM192.018 192.324C191.805 192.511 191.831 192.804 191.965 192.99C188.926 194.936 185.701 196.775 182.929 199.094C182.422 199.52 182.956 200.373 183.569 200.187C184.475 199.92 185.354 199.574 186.181 199.2C183.009 201.253 179.837 203.278 176.612 205.251C175.972 205.65 175.332 205.997 174.693 206.397C175.093 205.997 175.492 205.597 175.892 205.224C176.319 204.904 176.745 204.584 177.172 204.291C177.278 204.211 177.278 204.104 177.225 204.025C180.85 200.72 184.581 197.548 188.393 194.456C189.752 193.603 191.112 192.751 192.471 191.898C192.311 192.031 192.151 192.164 191.991 192.297L192.018 192.324ZM205.132 184.995C203.799 185.768 202.44 186.514 201.134 187.313C199.854 188.086 198.602 188.913 197.322 189.686C196.656 190.005 196.016 190.352 195.35 190.672C196.443 189.739 197.589 188.886 198.788 188.113C199.934 187.42 201.107 186.754 202.253 186.087C202.36 186.034 202.44 185.981 202.52 185.928C204.812 184.568 207.104 183.209 209.423 181.876C207.984 182.942 206.518 183.955 205.079 185.021L205.132 184.995ZM218.059 175.586C216.247 176.892 214.434 178.225 212.649 179.531C206.518 182.862 200.467 186.274 194.47 189.792C198.015 187.127 201.587 184.515 205.292 182.036C209.397 179.291 213.608 176.679 217.846 174.174C218.139 174.494 218.406 174.813 218.699 175.133C218.486 175.293 218.299 175.453 218.086 175.586H218.059ZM220.405 173.881C219.925 174.227 219.472 174.547 218.992 174.893C218.752 174.574 218.486 174.254 218.246 173.934C219.925 172.948 221.604 171.908 223.31 170.975C223.417 171.162 223.55 171.375 223.657 171.562C222.564 172.335 221.498 173.134 220.405 173.907V173.881ZM227.122 174.307C228.481 177.186 229.921 180.064 231.333 182.916C228.854 179.318 226.562 175.533 224.376 171.748C224.51 171.668 224.616 171.562 224.75 171.455C224.75 171.455 224.75 171.429 224.776 171.402C224.883 171.322 225.016 171.215 225.123 171.135C225.789 172.175 226.429 173.241 227.095 174.28L227.122 174.307ZM224.083 171.242C223.31 169.883 222.484 168.523 221.738 167.138C219.712 163.406 217.793 159.622 216.034 155.757C218.779 160.848 221.764 165.805 224.856 170.682C224.59 170.869 224.35 171.055 224.083 171.242ZM220.725 160.661C221.471 162.233 222.191 163.806 222.937 165.378C222.511 164.632 222.058 163.913 221.631 163.166C219.339 159.222 217.126 155.224 214.941 151.253C214.808 150.08 214.728 148.907 214.621 147.761C216.673 152.052 218.699 156.37 220.725 160.688V160.661ZM270.062 60.5544C268.276 61.8337 266.49 63.0864 264.651 64.3124C264.465 64.4456 264.411 64.6322 264.411 64.8188C263.958 65.0587 263.505 65.2719 263.052 65.5117C261.639 66.1514 260.253 66.8177 258.841 67.4574C260.973 65.9915 263.132 64.5256 265.291 63.0864L270.062 60.5544ZM235.864 75.2132C239.196 73.9073 242.421 72.2815 245.567 70.7356C245.78 70.629 245.567 70.3358 245.38 70.4425C244.554 70.8156 243.701 71.1887 242.875 71.5619C250.524 67.6972 258.361 64.2324 266.357 61.194C260.12 64.3124 253.936 67.564 247.779 70.8422C243.034 73.0011 238.397 75.3731 233.839 77.8518C234.079 77.5586 234.319 77.3188 234.532 77.0256C234.745 76.7591 234.558 76.1727 234.132 76.3593C233.679 76.5459 233.252 76.7857 232.799 76.9989C233.812 76.4126 234.825 75.8262 235.864 75.2399V75.2132ZM232.826 77.8518C232.559 78.1717 232.319 78.4915 232.053 78.8113C230.4 79.7175 228.748 80.5704 227.122 81.5299C226.642 81.7164 226.136 81.9296 225.656 82.1162C227.921 80.4904 230.32 79.0512 232.826 77.8518ZM200.761 142.351C197.962 132.569 195.883 122.681 194.257 112.66C194.497 112.607 194.763 112.527 195.003 112.473C196.922 118.47 198.815 124.467 200.681 130.464C200.734 130.624 200.921 130.57 200.974 130.464C200.707 134.435 200.654 138.406 200.761 142.377V142.351ZM200.974 130.304C199.161 124.307 197.376 118.337 195.616 112.34C196.523 112.047 197.376 111.727 198.229 111.327C198.229 112.98 198.628 114.792 198.735 115.858C199.241 120.309 200.014 124.733 201.081 129.104C201.054 129.504 201.001 129.904 200.974 130.304ZM201.427 125.56C200.921 123.161 200.494 120.762 200.148 118.364C199.908 116.631 199.721 114.899 199.561 113.166C199.508 112.607 199.375 111.674 199.375 110.794C199.881 110.528 200.334 110.208 200.814 109.888C201.48 111.114 202.147 112.34 202.76 113.593C202.68 115.112 202.68 116.631 202.68 118.15C202.147 120.602 201.72 123.081 201.427 125.586V125.56ZM211.289 153.705C210.889 153.358 210.596 152.345 210.356 151.839C210.063 151.199 209.77 150.586 209.477 149.947C208.73 148.348 208.037 146.748 207.371 145.123C205.185 139.765 203.426 134.248 202.093 128.625C202.28 126.466 202.547 124.334 202.893 122.201C203.026 123.934 203.213 125.666 203.506 127.372C203.906 129.744 204.492 132.09 205.159 134.408C205.292 135.928 205.558 137.447 206.038 138.966C206.731 141.125 207.744 143.204 209.05 145.069C209.637 145.922 210.436 146.802 211.449 146.988C211.662 147.441 211.849 147.894 212.062 148.348C212.249 149.094 212.435 149.867 212.569 150.613C212.702 151.386 212.649 154.851 211.342 153.678L211.289 153.705ZM208.757 134.861C207.984 135.261 207.344 135.714 207.344 136.647C207.344 136.78 207.558 136.78 207.558 136.647C207.558 136.087 207.824 135.714 208.277 135.501C208.517 135.261 208.704 135.208 208.89 135.341C209.237 136.834 209.583 138.326 209.956 139.819C209.956 140.139 210.01 140.458 210.036 140.778C210.09 141.604 210.09 142.724 209.077 141.578C208.037 140.378 207.558 138.326 207.051 136.834C206.678 135.714 206.331 134.568 206.012 133.449C205.772 130.943 205.932 128.412 206.491 125.986C206.571 125.64 206.065 125.506 205.958 125.853C205.558 127.212 205.319 128.598 205.159 130.011C204.706 127.932 204.332 125.853 204.092 123.747C204.039 123.321 204.039 122.921 204.013 122.495C204.466 123.348 205.025 124.147 205.878 124.84C206.065 125 206.305 124.76 206.145 124.574C204.092 122.175 203.693 119.403 204.199 116.658C204.412 117.138 204.572 117.617 204.786 118.124C206.092 123.721 207.424 129.318 208.784 134.915L208.757 134.861ZM206.118 121.615C206.545 122.841 206.944 124.067 207.318 125.32C208.117 128.145 208.784 131.023 209.237 133.902C209.237 133.982 209.237 134.062 209.263 134.142C208.224 129.957 207.158 125.8 206.118 121.615ZM211.236 145.229C211.236 145.229 210.996 145.336 210.943 145.469C210.569 145.176 210.276 144.749 210.063 144.456C209.77 144.057 209.557 143.603 209.29 143.177C209.717 143.364 210.196 143.337 210.703 143.097C210.889 143.817 211.049 144.536 211.209 145.256L211.236 145.229ZM211.049 140.165C211.129 140.352 211.236 140.565 211.316 140.752C211.876 141.978 212.489 143.23 213.048 144.456C212.862 144.909 212.595 145.496 212.169 145.709C212.142 145.709 212.115 145.709 212.089 145.709C211.796 144.456 211.476 143.23 211.183 141.978C211.156 141.365 211.103 140.778 211.049 140.165ZM203.986 113.14C203.986 113.14 203.933 112.98 203.933 112.9C204.066 110.874 204.306 108.849 204.652 106.823C204.945 107.436 205.212 108.022 205.479 108.635C204.945 110.128 204.439 111.62 204.013 113.14H203.986ZM213.608 146.082C213.688 147.202 213.821 148.294 213.928 149.414C213.448 148.561 212.995 147.735 212.515 146.882C212.968 146.722 213.315 146.429 213.608 146.082ZM207.611 108.982C208.277 108.049 208.97 107.116 209.663 106.183C210.463 112.393 211.716 118.577 213.342 124.627C213.235 126.013 213.182 127.399 213.128 128.811C212.649 126.306 212.062 123.801 211.369 121.349C210.25 117.351 208.837 113.433 207.211 109.622C207.344 109.408 207.504 109.195 207.638 108.982H207.611ZM213.075 136.94C213.075 136.94 213.102 137.207 213.128 137.34C213.182 139.099 213.262 140.832 213.368 142.591C213.368 142.671 213.368 142.751 213.368 142.831C213.368 142.99 213.368 143.177 213.315 143.337C212.515 141.764 211.742 140.192 210.943 138.619C210.17 130.41 208.011 122.388 204.626 114.899C205.052 113.486 205.692 112.127 206.438 110.821C209.876 119.136 212.169 127.932 213.075 136.887V136.94ZM206.012 107.036C205.638 106.21 205.265 105.384 204.839 104.558C204.626 104.131 203.853 104.211 203.773 104.691C203.586 105.597 203.506 106.503 203.373 107.409C203.133 107.596 202.893 107.809 202.626 107.969C202.547 107.862 202.36 107.916 202.413 108.076V108.129C202.12 108.369 201.774 108.582 201.454 108.795C201.24 108.422 201.054 108.076 200.841 107.703C200.707 107.489 200.467 107.383 200.228 107.463C198.922 107.836 198.415 109.009 198.282 110.368C197.322 110.741 196.309 111.034 195.297 111.247C195.243 111.061 195.19 110.848 195.137 110.661C196.763 108.635 198.762 107.036 201.001 105.49C201.614 105.091 202.227 104.717 202.84 104.291C204.785 103.385 206.678 102.425 208.544 101.386C207.611 103.225 206.758 105.117 206.012 107.063V107.036ZM210.356 98.0277C209.823 98.3476 209.29 98.6407 208.757 98.9606C206.092 100.586 203.426 102.292 200.841 104.051C199.828 104.451 198.815 104.851 197.775 105.197C202.173 102.186 206.651 99.3604 211.183 96.5885C210.889 97.0416 210.649 97.548 210.383 98.0011L210.356 98.0277ZM213.981 95.549C213.795 95.6823 213.715 95.8689 213.715 96.0555C213.102 96.4019 212.489 96.7751 211.876 97.1482C212.195 96.6418 212.489 96.1088 212.808 95.629C213.955 94.9627 215.047 94.2431 216.194 93.5768C216.7 93.3369 217.206 93.0704 217.74 92.8305C216.513 93.79 215.261 94.7228 213.981 95.5757V95.549ZM216.007 91.3113C216.54 90.645 217.073 90.0053 217.633 89.3657C221.231 87.1802 224.83 84.9947 228.481 82.8891C226.722 84.8081 224.856 86.6738 222.937 88.4328C220.618 89.3923 218.326 90.3518 216.034 91.3113H216.007ZM248.099 73.774C247.086 74.3604 246.046 74.9201 245.034 75.5064C241.009 77.8518 237.011 80.2505 233.039 82.7026C232.453 82.9691 231.84 83.2356 231.253 83.5021C231.387 82.1162 232.506 81.1034 233.972 81.2367C234.185 81.2367 234.159 80.9435 233.972 80.9169C232.106 80.7036 230.507 82.1962 230.48 84.0619C230.48 84.1418 230.534 84.1951 230.587 84.2484C229.681 84.8348 228.748 85.4211 227.842 85.9808C226.909 86.4606 225.976 86.9403 225.016 87.4201C226.882 85.6077 228.694 83.6887 230.454 81.7431C232.053 81.0235 233.679 80.2772 235.278 79.5309C235.385 79.5842 235.491 79.6375 235.625 79.5842C240.422 77.4787 245.087 75.1599 249.698 72.6813C249.165 73.0277 248.605 73.4009 248.072 73.7474L248.099 73.774ZM243.807 74.4137C249.138 71.5885 254.469 68.8167 259.8 65.9915L260.573 65.5917C258.734 66.7911 256.868 68.0171 255.029 69.2431C251.271 70.9755 247.539 72.6813 243.781 74.4403L243.807 74.4137ZM276.033 60.4478C271.235 63.1663 266.384 65.8582 261.506 68.4702C259.107 69.7495 256.682 71.2154 254.203 72.4147C258.014 70.016 261.799 67.6173 265.611 65.2452C269.182 63.806 272.701 62.1002 276.166 60.3945C276.113 60.3945 276.086 60.4478 276.033 60.4744V60.4478ZM293.491 48.854C293.038 49.1471 292.558 49.4137 292.105 49.7068C290.586 50.6397 289.04 51.5992 287.521 52.532C285.255 53.8113 283.016 55.1173 280.804 56.4766C279.044 57.3294 277.285 58.1557 275.526 58.9819C275.659 58.9019 275.793 58.822 275.899 58.742C276.139 58.5821 275.899 58.209 275.686 58.3689C274.14 59.2751 272.568 60.2079 270.995 61.1141C270.488 61.354 270.009 61.5938 269.502 61.8337C270.862 60.741 272.221 59.7015 273.634 58.6621L280.217 55.1706C283.656 53.4915 287.094 51.839 290.533 50.2132C291.519 49.7601 292.505 49.3071 293.491 48.854Z" fill="black"/>
</g>
<defs>
<clipPath id="clip0_7278_653">
<rect width="375" height="400" fill="white"/>
</clipPath>
</defs>
</svg>
