<svg width="411" height="312" viewBox="0 0 411 312" fill="none" xmlns="http://www.w3.org/2000/svg">
<g clip-path="url(#clip0_7278_864)">
<path d="M12.7564 61.118C1.14194 65.7073 -3.66906 81.3449 3.06148 91.7862C3.11007 91.8591 3.23156 91.7862 3.18297 91.7134C-3.28029 81.345 1.70079 66.1444 12.8293 61.288C12.9264 61.2394 12.8536 61.0694 12.7564 61.118Z" fill="black"/>
<path d="M100.132 70.6363C98.8194 71.5104 97.5073 72.3846 96.1952 73.2345C96.1223 73.283 96.1952 73.4044 96.2681 73.3559C97.5802 72.4817 98.8923 71.6076 100.204 70.7334C100.253 70.6848 100.204 70.5877 100.156 70.6363H100.132Z" fill="black"/>
<path d="M274.567 115.461C263.997 118.448 253.525 121.702 243.052 125.004C237.051 126.898 231.025 128.695 224.999 130.613C220.893 129.885 216.835 128.768 212.85 127.141C212.777 127.117 212.728 127.238 212.801 127.262C216.397 128.841 220.188 130.055 224.1 130.905C219.921 132.24 215.79 133.624 211.708 135.203C211.659 135.203 211.708 135.251 211.659 135.275C209.594 135.275 207.529 135.178 205.439 135.008C205.488 132.532 207.723 130.686 210.201 131.075C210.299 131.075 210.347 130.929 210.25 130.905C207.577 130.419 205.075 132.459 204.759 135.081C201.649 133.6 198.684 131.779 195.914 129.642C195.768 129.521 195.55 129.739 195.696 129.861C206.581 138.578 221.378 142.851 235.18 139.986C235.326 139.962 235.277 139.719 235.155 139.743C225.363 140.957 215.45 139.671 206.532 135.834C216.203 136.878 226.117 135.64 235.228 132.24C237.877 132.264 240.525 132.095 243.149 131.682C243.271 131.682 243.247 131.463 243.125 131.487C240.987 131.633 238.873 131.657 236.759 131.657C237.148 131.512 237.537 131.366 237.925 131.196C238.095 131.123 237.974 130.832 237.804 130.88C237.002 131.148 236.225 131.39 235.423 131.633C232.774 131.56 230.126 131.342 227.502 130.978C232.774 129.302 238.047 127.554 243.32 125.927C253.816 122.649 264.289 119.322 274.664 115.704C274.834 115.656 274.761 115.388 274.591 115.437L274.567 115.461ZM233.746 132.192C226.846 134.207 219.799 135.227 212.656 135.3C217.248 134.134 221.816 132.799 226.36 131.366C228.814 131.803 231.292 132.095 233.77 132.192H233.746Z" fill="black"/>
<path d="M388.549 153.074C381.673 150.549 374.626 148.533 367.58 146.518C367.41 146.47 367.337 146.737 367.507 146.785C374.432 149.141 381.381 151.496 388.476 153.341C388.646 153.39 388.719 153.123 388.549 153.074Z" fill="black"/>
<path d="M123.798 73.2588C123.652 73.2588 123.652 73.4773 123.798 73.4773C124.235 73.4773 124.673 73.4288 125.11 73.4288C125.159 73.4288 125.159 73.3316 125.11 73.3316C124.673 73.3316 124.235 73.2831 123.798 73.2831V73.2588Z" fill="black"/>
<path d="M90.0722 187.433C85.82 175.948 81.5436 164.462 77.2915 153.001C77.2186 152.831 76.927 152.904 76.9999 153.074C81.1305 164.584 85.2855 176.093 89.4161 187.603C92.2347 195.446 95.0533 203.289 97.9204 211.132C96.0981 207.077 94.3 203.022 92.4777 198.967C92.4048 198.821 92.2104 198.967 92.259 199.088C95.5149 206.761 98.7709 214.41 101.978 222.108C102.173 222.569 102.902 222.399 102.731 221.889C98.7223 210.331 94.3243 198.894 90.0722 187.409V187.433Z" fill="black"/>
<path d="M101.274 237.381C101.104 237.357 101.031 237.6 101.201 237.648C101.225 237.794 101.274 237.916 101.298 238.061C101.541 238.571 101.347 238.693 100.715 238.425C100.011 238.377 99.9863 238.377 99.6461 237.818C99.3302 237.284 99.1359 236.677 98.8929 236.119C98.3826 234.88 97.8724 233.618 97.3378 232.379C96.4145 230.145 95.4912 227.911 94.6164 225.677C92.7941 221.088 91.0689 216.499 89.3681 211.861C85.9907 202.609 82.8805 193.237 80.0862 183.791C78.5069 178.425 77.0004 173.01 75.6154 167.595C75.5911 167.473 75.3967 167.522 75.421 167.643C81.1311 190.784 88.4448 213.706 97.9453 235.584C98.3583 236.556 99.3545 239.98 101.128 239.275C101.882 238.96 102.246 237.576 101.25 237.381H101.274Z" fill="black"/>
<path d="M147.44 286.601C138.109 284.294 129.046 281.526 120.275 277.592C111.673 273.756 103.485 268.972 95.8794 263.436C94.5187 262.44 93.2066 261.372 91.8945 260.328C92.2833 259.527 91.9674 258.41 90.9712 258.191C90.8011 258.142 90.7282 258.385 90.8983 258.458C91.4328 258.628 91.7244 259.648 91.4085 259.964C90.9955 259.624 90.5581 259.308 90.145 258.968C89.7077 258.361 89.246 257.778 88.8087 257.171C87.8853 255.957 86.9377 254.743 85.9901 253.553C83.9491 250.979 81.8594 248.478 79.6969 246.026C75.3719 241.096 70.8525 236.386 66.1144 231.845C66.0172 231.748 65.8714 231.894 65.9686 231.991C73.914 239.81 81.1062 248.235 87.8853 257.05C86.2817 255.666 84.6537 254.282 83.1229 252.825C83.0257 252.752 82.9043 252.873 82.9772 252.97C84.8724 254.816 86.8405 256.588 88.8573 258.312C89.5133 259.162 90.1936 260.012 90.8254 260.886C90.9226 261.032 91.0684 261.056 91.2142 260.983C91.4085 260.886 91.53 260.765 91.6515 260.644C103.436 270.235 116.849 277.787 131.257 282.643C136.506 284.416 141.9 285.945 147.367 286.868C147.537 286.892 147.61 286.65 147.44 286.601Z" fill="black"/>
<path d="M144.767 311.539C141.123 311.733 137.284 309.232 134.344 307.362C130.043 304.643 125.985 301.534 122.024 298.329C118.355 295.367 114.784 292.283 111.09 289.345C105.599 284.95 100.059 280.603 94.9566 275.771C93.7417 274.606 92.5025 273.464 91.3362 272.299C90.8016 271.765 90.2427 271.23 89.7811 270.648C89.5138 270.308 89.3194 270.332 89.6839 270.453C90.1213 270.575 90.5829 270.963 90.9717 271.23C91.0932 271.303 91.2147 271.109 91.0932 271.036C90.8745 270.866 89.2951 269.482 89.1493 270.308C89.0035 271.06 91.1418 272.833 91.5548 273.246C95.5883 277.447 99.9862 281.283 104.481 284.998C105.696 285.994 106.911 287.014 108.126 288.009C108.053 288.009 108.005 288.058 108.005 288.155C108.199 289.806 106.425 290.826 104.967 290.535C103.631 290.292 102.562 289.321 101.59 288.446C99.9619 286.989 98.334 285.508 96.7303 284.003C93.4744 280.943 90.3156 277.762 87.2541 274.484C81.0581 267.831 75.2995 260.765 70.0511 253.335C69.4437 252.485 68.8605 251.586 68.2774 250.712C67.8886 248.041 67.5727 245.346 67.2326 242.65C80.888 259.478 96.5602 274.606 113.666 287.864C118.331 291.482 123.094 295.221 128.148 298.305C128.488 298.523 128.974 298.086 128.731 297.722C126.86 295.051 124.308 293.109 121.174 292.162C119.279 290.826 117.408 289.466 115.561 288.058C111.236 284.78 107.008 281.356 102.878 277.835C94.7622 270.915 86.9868 263.582 79.6245 255.884C75.421 251.489 71.3389 246.973 67.3784 242.335C67.3298 242.286 67.2812 242.286 67.2326 242.335C67.0625 240.951 66.8438 239.591 66.698 238.207C67.9129 239.445 69.1035 240.684 70.3184 241.898C72.9669 245.224 75.7855 248.43 78.7741 251.441C83.1963 255.908 88.0316 260.255 93.2314 264.019C96.4144 266.86 99.6218 269.628 102.926 272.323C103.048 272.42 103.194 272.275 103.096 272.153C101.08 270.259 99.0143 268.414 96.9733 266.544C98.6741 267.637 100.399 268.681 102.173 269.628C102.319 269.701 102.416 269.506 102.295 269.409C98.7956 267.005 95.3696 264.553 92.0165 262.028C89.1979 259.478 86.3794 256.904 83.6094 254.306C79.3573 250.299 75.1537 246.22 71.0231 242.116C69.468 240.222 67.9615 238.304 66.5036 236.337C66.3821 235.244 66.2364 234.176 66.1392 233.083C66.1392 232.913 65.8476 232.913 65.8719 233.083C65.9448 234.006 66.0663 234.929 66.1392 235.827C64.2682 233.253 62.4702 230.631 60.7936 227.911C60.7207 227.814 60.5749 227.911 60.6235 228.008C62.3487 230.874 64.2196 233.666 66.1878 236.386C66.2121 236.726 66.2607 237.041 66.285 237.381C65.7747 236.871 65.2401 236.361 64.7299 235.827C64.6327 235.73 64.4626 235.876 64.5598 235.997C65.143 236.604 65.7261 237.187 66.3092 237.794C66.6737 241.752 67.1354 245.686 67.6456 249.644C65.6046 246.633 63.6122 243.597 61.7169 240.465C61.6197 240.295 61.3282 240.465 61.4497 240.635C63.4421 244.132 65.6046 247.555 67.8157 250.931C68.0344 252.655 68.2531 254.379 68.4961 256.078C66.698 253.99 64.9729 251.878 63.3692 249.644C62.0085 247.774 60.745 245.856 59.5301 243.913C59.2871 243.379 59.0685 242.845 58.8498 242.311C58.6554 241.849 58.4367 241.388 58.2423 240.902C58.5096 237.818 58.8255 234.735 59.2142 231.675C59.2142 231.602 59.0685 231.578 59.0685 231.675C58.6554 234.492 58.2666 237.357 57.9265 240.198C57.1732 238.474 56.42 236.726 55.691 235.002C54.8406 233.011 53.9902 231.019 53.1398 229.053C53.5528 229.538 53.9659 230 54.3789 230.485C54.4032 230.534 54.4518 230.485 54.4275 230.437C53.9173 229.781 53.3827 229.125 52.8725 228.445C49.4708 220.53 46.1176 212.589 42.8131 204.625C41.8898 202.415 41.0394 200.205 40.1403 197.996C40.0918 197.025 40.0675 196.078 39.9703 195.106C39.9703 195.009 39.8002 195.009 39.8245 195.106C39.8731 195.883 39.8974 196.66 39.9217 197.437C33.8715 182.65 28.0157 167.789 22.3299 152.855C21.7225 150.67 21.115 148.509 20.5076 146.348C18.7824 140.326 16.9844 134.304 15.1134 128.331C15.0891 128.258 14.9677 128.282 14.992 128.355C17.2274 135.567 19.2927 142.827 21.3094 150.112C20.5562 148.145 19.7787 146.178 19.0254 144.187C17.0816 138.966 15.162 133.746 13.2425 128.525C12.3435 124.033 11.4445 119.565 10.5454 115.073C10.5211 114.951 10.3267 115 10.351 115.121C11.0314 118.763 11.6874 122.406 12.3435 126.072C11.0557 122.503 9.76789 118.909 8.5044 115.34C8.13993 113.13 7.82406 110.896 7.58108 108.662C7.58108 108.492 7.2895 108.492 7.3138 108.662C7.48389 110.362 7.70257 112.086 7.94555 113.786C7.48389 112.45 6.99793 111.139 6.53627 109.803C6.51197 109.706 6.34188 109.755 6.36618 109.852C6.92503 111.479 7.53248 113.106 8.09134 114.733C9.52491 124.251 11.9547 133.6 15.4293 142.608C15.5508 142.924 16.0125 142.803 15.9396 142.463C15.162 138.335 14.3602 134.207 13.5341 130.079C16.4012 138.043 19.3413 146.008 22.3056 153.948C25.7074 166.575 28.8175 179.299 31.5389 192.095C31.5875 192.338 31.6361 192.581 31.6847 192.824C29.595 188.647 27.4568 184.495 25.3429 180.343C20.4347 170.751 15.405 161.184 10.2053 151.763C7.2895 146.469 4.44664 141.006 1.11782 135.955C0.996331 135.785 0.753351 135.955 0.850543 136.125C3.18315 140.982 5.95311 145.644 8.5287 150.379C11.1043 155.114 13.6799 159.849 16.2312 164.608C21.3094 174.127 26.2662 183.694 31.1258 193.334C31.5146 194.135 31.9033 194.912 32.2921 195.713C33.1182 199.793 33.9201 203.896 34.7219 207.976C33.3612 204.601 32.0005 201.225 30.6398 197.85C30.5912 197.729 30.3969 197.777 30.4455 197.899C32.0491 202.124 33.6528 206.349 35.2565 210.55C35.3779 210.865 35.791 210.744 35.7424 210.404C34.9892 206.155 34.163 201.929 33.3126 197.68C35.2808 201.662 37.2246 205.645 39.2413 209.603C39.3628 209.87 39.703 209.7 39.7273 209.457C40.116 206.155 40.2861 202.828 40.2132 199.526C42.7159 205.669 45.2186 211.812 47.7942 217.907C49.0334 220.845 50.2969 223.759 51.5604 226.697C51.2688 226.309 50.9772 225.944 50.6614 225.556C50.5399 225.41 50.2969 225.556 50.3455 225.75C51.9006 231.554 54.549 237.211 57.6835 242.505C56.2742 255.35 55.7639 268.414 56.7845 281.21C56.833 281.696 57.6106 281.696 57.562 281.21C57.2947 272.93 57.0031 264.674 57.2947 256.394C57.4405 251.975 57.7078 247.555 58.0722 243.136C58.7526 244.253 59.4572 245.37 60.1619 246.463C60.2591 246.706 60.3563 246.948 60.4048 247.191C59.7002 248.891 59.2628 249.037 59.1171 247.677C59.2142 247.604 59.1171 247.434 59.0199 247.507C57.9751 248.211 60.2834 249.959 60.7693 247.944C60.8179 247.798 60.8179 247.628 60.8179 247.483C61.4983 248.502 62.2029 249.498 62.9075 250.494C64.7299 253.019 66.698 255.52 68.7876 257.948C69.9782 265.767 71.3875 273.634 73.3557 281.283C73.4771 281.72 74.1332 281.55 74.036 281.089C73.2828 277.277 72.5781 273.464 71.8735 269.652C71.8492 269.506 71.6548 269.579 71.6791 269.701L71.7277 269.968C70.9745 266.277 70.2455 262.586 69.6138 258.871C73.2828 262.975 77.3891 266.714 81.8842 269.652C87.6186 276.378 93.7903 282.716 100.424 288.471C101.906 289.758 103.777 291.53 105.915 291.263C107.47 291.045 108.782 289.661 108.442 288.082C111.989 290.996 115.537 293.91 119.084 296.848C123.312 300.345 127.589 303.793 132.157 306.828C134.465 308.358 136.871 309.815 139.446 310.883C141.147 311.611 143.091 312.219 144.937 311.757C145.108 311.709 145.059 311.442 144.889 311.466L144.767 311.539ZM85.2374 256.758C83.1234 254.961 81.0581 253.116 79.0657 251.149C77.2919 249.401 75.5668 247.58 73.9145 245.71C77.6321 249.449 81.4226 253.14 85.2374 256.758ZM14.7733 139.573C12.0033 132.046 9.93798 124.276 8.57729 116.384C9.86509 120.05 11.1772 123.741 12.4893 127.408C13.2182 131.463 13.9957 135.518 14.7733 139.573ZM39.217 208.607C37.1031 203.993 34.8677 199.404 32.608 194.839C29.9352 182.091 26.7765 169.44 23.3505 156.886C28.696 170.994 34.1873 185.053 39.8974 199.016C39.8974 202.221 39.703 205.402 39.217 208.583V208.607ZM56.1284 238.11C54.2089 234.419 52.6781 230.607 51.0744 226.77C51.3417 227.086 51.609 227.377 51.8763 227.693C52.6538 229.514 53.4313 231.335 54.2089 233.156C55.1808 235.39 56.1284 237.6 57.1246 239.809C56.8088 239.227 56.4443 238.668 56.1527 238.085L56.1284 238.11ZM72.3109 260.449C71.2174 259.332 70.1969 258.142 69.1764 256.977C68.9091 255.35 68.6905 253.699 68.4475 252.072C71.995 257.365 75.7855 262.513 79.8432 267.442C77.2676 265.16 74.7163 262.902 72.3109 260.449Z" fill="black"/>
<path d="M52.8728 273.804C52.8242 273.683 52.6298 273.731 52.6784 273.853C53.5288 276.354 51.9738 279.171 49.4954 279.948C49.3982 275.698 49.2767 271.425 49.1795 267.175C49.1795 267.005 48.9365 267.005 48.9365 267.175C48.9608 271.546 49.0094 275.917 49.058 280.288C49.058 280.433 49.2038 280.555 49.3496 280.506C52.1925 279.851 53.9176 276.5 52.8971 273.804H52.8728Z" fill="black"/>
<path d="M407.647 212.468C407.647 212.468 407.476 212.468 407.525 212.54C410.465 217.785 411.218 223.88 409.979 229.732C409.007 228.615 408.035 227.547 407.063 226.43C406.991 226.357 406.893 226.454 406.966 226.527C407.962 227.79 408.959 229.077 409.955 230.315C410.052 230.436 410.271 230.364 410.295 230.218C411.826 224.244 410.757 217.761 407.647 212.443V212.468Z" fill="black"/>
<path d="M406.918 240.975C406.918 240.975 406.821 240.902 406.797 240.975C406.529 244.52 406.967 248.089 408.109 251.465C408.109 251.537 408.23 251.513 408.23 251.44C407.113 248.065 406.651 244.52 406.918 240.975Z" fill="black"/>
<path d="M397.612 238.158C387.747 241.703 377.639 244.69 367.434 247.118C367.337 247.142 367.361 247.312 367.483 247.288C377.736 244.957 387.796 241.946 397.661 238.352C397.782 238.304 397.734 238.11 397.612 238.158Z" fill="black"/>
<path d="M407.914 236.143C407.89 235.997 407.671 236.046 407.671 236.167C407.331 237.308 406.65 237.503 405.679 236.701C405.46 236.434 405.265 236.119 405.12 235.803C404.877 235.269 404.682 234.686 404.464 234.152C404.148 233.302 403.832 232.428 403.54 231.553C404.998 224.827 405.436 217.858 404.779 210.987C404.488 207.781 403.905 204.625 403.127 201.517C404.026 202.949 404.925 204.382 405.897 205.742C406.189 206.154 406.869 205.79 406.602 205.329C405.241 202.804 403.686 200.351 402.107 197.899C401.888 197.219 401.694 196.515 401.451 195.859C401.305 195.47 400.892 195.543 400.77 195.81C400.236 194.96 399.677 194.111 399.142 193.285C398.656 192.508 398.17 191.755 397.684 190.978C396.202 186.923 394.817 182.844 393.627 178.667C394.404 179.857 395.206 181.047 396.081 182.188C396.154 182.285 396.299 182.261 396.372 182.188C398.413 185.272 400.454 188.356 402.52 191.415C402.568 191.464 402.666 191.415 402.617 191.367C399.725 186.923 396.785 182.528 393.87 178.109C393.602 177.672 393.335 177.259 393.092 176.822C392.485 174.612 391.926 172.378 391.416 170.144C391.391 169.999 391.173 170.071 391.197 170.193C391.634 172.135 392.096 174.054 392.606 175.972C389.35 170.096 386.993 163.709 385.778 157.129C385.754 156.959 385.487 157.032 385.511 157.202C386.337 162.665 387.965 167.862 390.322 172.767C389.739 171.893 389.18 171.018 388.597 170.144C388.524 170.023 388.354 170.144 388.427 170.241C389.399 171.698 390.371 173.155 391.343 174.612C391.902 175.656 392.436 176.725 393.068 177.744C394.161 181.775 395.449 185.758 396.883 189.691C395.109 186.875 393.335 184.058 391.561 181.241C387.334 174.539 383.081 167.862 378.829 161.16C379.388 161.257 379.947 161.403 380.506 161.5C380.652 161.524 380.725 161.306 380.579 161.257C379.898 161.087 379.242 160.893 378.562 160.723C377.833 159.582 377.104 158.44 376.375 157.275C376.278 157.153 376.084 157.275 376.156 157.396C376.813 158.465 377.469 159.533 378.1 160.601C371.831 158.974 365.635 157.032 359.61 154.652C360.849 154.215 361.894 153.39 362.452 152.006C362.501 151.86 362.282 151.763 362.209 151.908C361.432 153.341 360.168 154.021 358.735 154.312C357.423 153.778 356.111 153.268 354.823 152.685C346.634 149.043 339.053 144.43 331.618 139.452C331.448 139.355 331.254 139.597 331.4 139.719C332.444 140.569 333.562 141.346 334.656 142.147C332.372 143.483 330.088 144.745 327.755 145.984C327.561 145.911 327.366 145.814 327.147 145.741C312.18 135.882 298.306 124.64 286.157 111.357C286.06 111.236 285.89 111.406 285.987 111.527C291.259 117.501 296.921 123.183 302.922 128.501C297.261 124.033 291.381 119.832 285.282 115.971C285.185 115.922 285.112 116.068 285.185 116.117C296.168 123.523 306.47 131.803 316.262 140.69C313.978 139.5 311.743 138.262 309.531 136.975C304.769 134.183 300.177 131.099 295.755 127.796C295.609 127.675 295.463 127.942 295.609 128.039C302.582 133.43 310.09 138.14 317.939 142.196C318.668 142.875 319.421 143.507 320.15 144.187C320.271 144.308 320.466 144.114 320.344 143.992C319.907 143.555 319.469 143.143 319.032 142.73C321.632 144.041 324.256 145.255 326.929 146.421C323.406 148.266 319.785 149.966 316.019 151.374C312.787 152.588 309.483 153.608 306.154 154.458C311.597 152.224 316.821 149.553 321.753 146.469C322.166 146.202 321.899 145.619 321.437 145.716C315.241 146.906 309.216 148.97 303.578 151.763C307.49 149.31 311.378 146.833 315.217 144.284C315.339 144.187 315.217 143.992 315.096 144.065C308.365 147.926 301.805 152.054 295.22 156.133C294.248 156.741 293.252 157.348 292.28 157.955C288.514 158.926 284.675 159.727 280.787 160.359C282.415 157.275 285.355 155.186 288.878 154.798C289 154.798 289 154.604 288.878 154.604C285.063 154.944 281.686 157.202 279.937 160.601C279.839 160.796 279.937 161.111 280.204 161.087C283.363 160.771 286.521 160.237 289.656 159.557C287.493 160.893 285.355 162.277 283.192 163.661C281.759 162.908 280.301 162.18 278.867 161.378C278.989 160.164 279.135 158.974 279.256 157.76C280.35 154.944 281.419 152.127 282.512 149.335C282.561 149.213 282.342 149.116 282.293 149.237C281.346 151.447 280.422 153.632 279.475 155.842C279.475 155.794 279.475 155.769 279.475 155.721C279.523 155.284 279.596 154.871 279.669 154.434C282.172 147.246 283.849 139.792 284.65 132.191C284.65 132.046 284.432 132.046 284.432 132.191C283.63 139.015 282.099 145.741 279.985 152.273C280.374 149.529 280.811 146.809 281.322 144.09C282.707 136.586 284.456 129.156 286.546 121.823C286.594 121.677 286.375 121.629 286.327 121.774C285.792 123.474 285.282 125.174 284.796 126.874C284.723 126.825 284.65 126.801 284.626 126.898C282.949 133.624 281.297 140.326 279.645 147.052C280.908 138.966 282.731 130.977 285.185 123.134C285.233 122.988 284.991 122.916 284.942 123.061C281.564 133.017 279.208 143.337 277.993 153.802C277.653 155.211 277.288 156.619 276.948 158.052C276.875 158.367 277.337 158.513 277.434 158.197C277.482 158.027 277.531 157.882 277.58 157.712C277.531 158.246 277.482 158.805 277.458 159.339C277.045 160.383 276.583 161.427 276.122 162.471C270.29 157.93 264.167 153.681 258.311 149.165C253.039 145.109 247.888 140.933 242.785 136.684C248.762 135.105 254.715 133.284 260.571 131.269C269.853 128.088 279.305 124.567 288.003 119.953C288.149 119.88 288.052 119.589 287.882 119.662C278.6 123.304 269.488 127.238 260.061 130.419C254.059 132.458 247.96 134.231 241.862 135.882C240.938 135.105 239.991 134.352 239.067 133.575C238.946 133.478 238.776 133.648 238.897 133.745C239.772 134.498 240.647 135.227 241.521 135.955C239.772 136.441 237.998 136.878 236.249 137.339C235.884 136.926 235.52 136.538 235.155 136.101C235.083 136.028 234.985 136.125 235.058 136.198C235.374 136.611 235.714 136.975 236.054 137.388C234.718 137.728 233.382 138.092 232.045 138.432C232.628 136.878 233.673 135.712 235.277 135.057C235.496 134.96 235.398 134.595 235.18 134.692C233.284 135.421 231.754 136.926 231.098 138.869C231 139.16 231.292 139.379 231.535 139.306C233.26 138.966 234.985 138.578 236.71 138.165C241.133 143.507 245.992 148.436 251.314 152.904C257.048 157.712 263.414 162.544 270.242 165.725C270.266 165.725 270.315 165.725 270.339 165.725C271.7 166.72 273.109 167.643 274.518 168.566C274.178 169.1 273.838 169.61 273.473 170.144C272.914 169.804 271.967 169.829 272.185 170.654C272.234 170.848 272.501 170.751 272.477 170.581C272.963 170.387 273.182 170.411 273.157 170.63C272.987 170.897 272.817 171.164 272.623 171.431C272.185 171.504 271.748 171.48 271.311 171.383C270.63 171.261 269.974 171.018 269.294 170.824C267.86 170.411 266.427 169.999 264.993 169.561C262.296 168.76 259.623 167.959 256.951 167.085C251.362 165.264 245.798 163.297 240.331 161.136C238.873 160.553 237.439 159.946 235.982 159.363C237.026 159.533 238.071 159.679 239.116 159.776C239.286 159.776 239.31 159.533 239.165 159.484C236.905 158.78 234.572 158.27 232.215 157.809C226.821 155.526 221.524 153.025 216.276 150.427C217.807 150.184 219.313 149.966 220.844 149.674C227.331 152.685 233.819 155.672 240.307 158.635C245.968 161.233 251.605 164.098 257.412 166.38C258.19 166.696 260.037 167.255 260.28 165.895C260.401 165.166 259.551 164.244 258.943 164.948C258.822 165.094 259.016 165.288 259.162 165.166C258.895 166.016 258.433 166.186 257.825 165.701C257.631 165.628 257.461 165.531 257.267 165.458C256.708 165.215 256.173 164.948 255.614 164.705C254.521 164.195 253.403 163.685 252.31 163.2C250.099 162.18 247.912 161.184 245.701 160.189C241.376 158.246 237.051 156.303 232.726 154.337C229.081 152.685 225.412 151.107 221.743 149.504C224.076 149.043 226.408 148.533 228.692 147.95C228.887 147.902 228.789 147.635 228.619 147.659C225.898 148.072 223.176 148.509 220.479 148.946C215.79 146.882 211.1 144.769 206.387 142.73C206.265 142.681 206.168 142.851 206.289 142.9C210.712 144.988 215.134 147.052 219.556 149.092C218.025 149.335 216.519 149.577 214.988 149.796C212.68 148.655 210.371 147.538 208.112 146.348C207.99 146.275 207.893 146.469 208.015 146.518C210.104 147.683 212.218 148.776 214.332 149.893C212.51 150.16 210.663 150.427 208.816 150.67C198.684 140.277 188.576 129.885 178.663 119.273C178.565 119.176 178.42 119.322 178.517 119.419C188.285 130.03 198.223 140.52 208.428 150.719C207.14 150.889 205.828 151.059 204.54 151.204C203.617 151.301 202.693 151.35 201.794 151.447C192.391 141.589 183.061 131.681 174.095 121.41C166.076 112.232 158.325 102.81 150.817 93.2187C157.718 101.305 164.691 109.342 171.835 117.234C176.573 122.454 181.335 127.626 186.268 132.653C186.414 132.798 186.608 132.58 186.487 132.434C178.298 123.086 169.891 113.931 161.63 104.631C155.604 97.808 149.651 90.9362 143.722 84.0158C141.365 80.8834 139.033 77.7267 136.724 74.5701C137.259 73.4045 137.818 72.2633 138.328 71.0978C138.547 70.6121 137.915 70.2236 137.599 70.685C136.992 71.5591 136.433 72.4818 135.825 73.356C133.59 70.2722 131.379 67.1641 129.192 64.0317C129.119 63.9103 128.9 64.0317 128.998 64.1531C131.184 67.334 133.396 70.4907 135.631 73.6474C135.534 73.8173 135.412 73.963 135.315 74.133C132.302 70.5635 129.313 66.9698 126.349 63.3518C124.673 60.7536 122.51 58.5439 119.692 57.1356C120.639 56.1886 121.562 55.2659 122.51 54.3189C122.875 53.9546 122.34 53.4447 121.951 53.7604L121.441 54.1732C121.441 54.1732 121.295 54.0032 121.174 54.0275C121.562 53.4204 122 52.8134 122.389 52.2063C122.461 52.1092 122.291 52.0121 122.218 52.1092C121.733 52.8377 121.198 53.5418 120.712 54.246C113.884 57.9126 107.81 62.5262 102.853 68.4996C99.3055 71.3891 96.1225 74.6915 93.4011 78.3581C92.7694 77.6053 92.1133 76.8526 91.4573 76.1241C86.8893 71.0492 82.2726 65.9985 77.656 60.9721C72.0675 53.3233 66.5519 45.6016 61.2063 37.7828C61.1334 37.6614 60.939 37.7828 61.0362 37.8799C65.8229 44.9217 70.7311 51.9149 75.7365 58.8353C72.4077 55.193 69.0789 51.5507 65.75 47.9084C65.7743 47.8598 65.7986 47.787 65.75 47.7384C65.3613 47.3742 64.9725 47.01 64.5837 46.6457C58.0476 39.4825 51.5114 32.295 44.951 25.1561C44.465 24.6219 43.9548 24.0634 43.4688 23.5292C43.2501 23.2378 43.0071 22.9707 42.8128 22.6551C39.4839 18.0172 36.4953 13.1851 33.7496 8.18298C33.1422 7.06601 32.559 5.92475 31.9516 4.80778C31.5142 3.98219 30.9797 2.98662 30.0806 2.52526C29.4732 2.2096 28.89 2.23388 28.3798 2.42814C28.4284 2.03962 28.5013 1.65111 28.5499 1.28688C28.5499 1.18975 28.4284 1.14119 28.4041 1.23832C28.3069 1.67539 28.234 2.08819 28.1611 2.52526C27.9181 2.64667 27.6994 2.81665 27.4808 3.03519C27.505 2.91378 27.5293 2.79237 27.5536 2.67096C27.5536 2.59811 27.4565 2.57383 27.4322 2.64667C27.3836 2.84093 27.335 3.01091 27.2864 3.20516C27.0434 3.49655 26.8247 3.83649 26.6546 4.17644C26.0472 5.43911 25.8528 6.87175 25.5369 8.23154C25.4154 8.79003 25.2696 9.3728 25.1481 9.93129C23.9332 6.60465 22.6941 3.30229 21.5035 -0.0243503C21.4549 -0.194325 21.1876 -0.121478 21.2362 0.0484959C22.4754 3.56939 23.7389 7.09029 25.0024 10.6112C24.7837 11.5339 24.5893 12.4809 24.3706 13.4036C23.666 16.536 22.9613 19.6684 22.2567 22.8008C19.3409 34.3833 17.1541 46.1115 15.7934 57.9369C14.3599 66.7998 13.145 75.6871 12.1487 84.5986C11.2011 88.678 10.5694 92.8302 10.3021 97.031C9.62175 95.2341 8.94141 93.4615 8.26106 91.6646C8.21247 91.5432 8.04238 91.5918 8.06668 91.7132C8.79562 93.7043 9.52456 95.6955 10.2535 97.6623C10.2292 98.2694 10.1563 98.8521 10.132 99.4592C10.132 99.4592 10.132 99.4592 10.132 99.4835C9.79184 101.038 9.59745 102.592 9.52456 104.194C7.43493 103.49 5.36961 102.762 3.30428 101.985C3.20709 101.96 3.15849 102.106 3.23139 102.13C5.27241 103.101 7.38634 104 9.50026 104.801C9.47596 105.821 9.47596 106.841 9.54886 107.861C9.54886 108.152 10.0105 108.249 10.0834 107.934C10.0834 107.934 10.0834 107.885 10.0834 107.861C10.0591 108.419 9.98622 108.953 9.96192 109.512C9.93762 109.925 10.5694 109.998 10.6666 109.609C10.9824 108.249 11.274 106.865 11.5656 105.505C12.1487 105.724 12.7562 105.918 13.3393 106.112C16.0121 113.47 18.7092 120.852 21.552 128.161C20.7259 127.262 19.8998 126.364 19.0737 125.465C18.9765 125.368 18.8307 125.514 18.9279 125.611C19.9484 126.825 20.9689 128.039 21.9894 129.229C22.1109 129.375 22.4025 129.229 22.3296 129.035C19.6082 121.41 16.7168 113.858 13.8253 106.282C24.1519 109.682 35.1103 111.406 45.9958 111.624C47.0406 111.867 48.0854 112.11 49.1545 112.329C49.3003 112.353 49.3732 112.134 49.2274 112.086C48.6443 111.94 48.0611 111.794 47.5023 111.624C48.3284 111.624 49.1788 111.649 50.005 111.624C52.9936 112.669 56.0066 113.688 58.9952 114.733C52.8721 115.728 46.7247 116.262 40.5045 116.068C34.4786 115.898 28.6471 114.951 22.7669 113.858C23.2529 113.858 23.7389 113.834 24.2248 113.834C24.3463 113.834 24.3463 113.664 24.2248 113.664C23.0342 113.616 21.8436 113.567 20.6773 113.47C20.4343 113.47 20.3857 113.834 20.6287 113.883C26.9948 115.825 33.8954 116.554 40.5288 116.772C47.235 116.967 54.0141 116.505 60.5989 115.218C60.9633 115.145 60.9147 114.635 60.5989 114.514L51.4871 111.6C53.7225 111.552 55.958 111.43 58.1691 111.236C58.6307 111.187 58.8737 110.58 58.4121 110.313C57.3672 109.706 56.2738 109.148 55.2047 108.589C57.0757 108.662 58.9466 108.711 60.8176 108.686C60.9876 109.051 61.1334 109.415 61.3035 109.779C60.4531 110.775 59.627 111.794 58.8008 112.839C58.6793 112.984 58.8737 113.179 58.9952 113.033C59.8942 112.159 60.7447 111.26 61.5951 110.338C63.7819 117.841 66.0173 125.295 68.3256 132.75C70.2452 140.253 72.2133 147.732 74.3272 155.186C75.7365 160.116 77.1701 165.045 78.7009 169.95C79.3569 172.111 80.0129 174.296 80.6933 176.482C80.5961 176.409 80.4017 176.53 80.4989 176.652C80.669 176.87 80.8148 177.137 80.9606 177.356C81.7138 179.784 82.5156 182.212 83.4147 184.592C83.5604 184.981 84.095 184.835 84.0464 184.422C83.7791 182.577 83.2689 180.877 82.467 179.274C81.4465 176.093 80.3288 172.937 79.3326 169.756C77.8018 164.851 76.2954 159.946 74.8132 155.041C73.1366 149.407 71.533 143.75 69.9779 138.092C74.0842 151.18 78.3607 164.219 82.8558 177.162C83.6576 179.663 84.4352 182.164 85.237 184.689C85.3342 185.029 85.4557 185.345 85.5529 185.685C85.48 185.685 85.4314 185.758 85.48 185.855C85.7716 186.583 86.0388 187.336 86.3304 188.064C88.2985 194.256 90.2667 200.448 92.2834 206.64C92.4535 207.15 93.1824 206.956 93.0852 206.422C92.9881 205.912 92.8666 205.402 92.7451 204.892C93.6198 207.174 94.4945 209.457 95.3692 211.739C95.5636 212.274 96.4141 212.055 96.2197 211.497C94.0815 205.523 91.8946 199.55 89.7321 193.601C89.1247 191.731 88.4443 189.885 87.7154 188.064C85.9902 183.305 84.2651 178.522 82.5885 173.738C77.7532 158.853 72.8936 143.968 68.0097 129.108C66.1631 123.45 64.2922 117.792 62.4455 112.11C62.2268 111.43 62.0325 110.75 61.8138 110.07C63.0287 108.783 64.2193 107.472 65.4099 106.137C65.6285 106.598 65.8229 107.059 66.0416 107.497C66.4547 108.346 66.8434 109.196 67.2565 110.07C67.1107 110.313 66.9649 110.556 66.8191 110.775C66.6005 111.139 67.0864 111.503 67.4023 111.236C67.4995 111.139 67.5724 111.042 67.6696 110.969C67.7182 111.066 67.7425 111.139 67.7911 111.236C68.0583 111.746 68.3013 112.159 68.6415 112.62C68.9574 112.96 69.2246 113.324 69.4919 113.713C70.0508 114.587 69.8321 114.878 68.8602 114.538C68.9817 114.49 68.9331 114.296 68.8116 114.344C67.4752 114.733 69.7106 117.355 70.2695 114.951C70.4395 114.247 70.1237 113.616 69.7349 113.033C69.1518 112.159 68.6415 111.382 68.1555 110.508C71.0713 107.667 73.5011 104.437 75.3477 100.868C78.7737 96.7153 81.8839 92.296 84.6781 87.7067C84.7996 87.5124 84.4838 87.3424 84.3623 87.5367C82.0054 91.1304 79.3812 94.5542 76.6841 97.8809C76.8785 97.4195 77.0972 96.9824 77.2673 96.5211C77.3159 96.3996 77.1215 96.3511 77.0729 96.4725C76.757 97.2495 76.3439 98.0023 75.9795 98.755C75.3234 99.532 74.716 100.358 74.0599 101.135C74.6917 99.9448 75.4206 98.8036 76.1253 97.638C78.0934 94.6513 80.1101 91.6889 82.1755 88.7508C84.8482 85.327 87.7397 82.0732 90.8741 79.0623C91.19 79.4751 91.4816 79.8879 91.8217 80.3007C89.9022 83.1416 88.2257 86.1283 86.8407 89.285C86.7192 89.5521 86.9865 89.9892 87.3023 89.7464C90.3639 87.5853 93.1824 85.1571 95.9038 82.5832C97.8233 85.3027 99.3784 88.2166 100.205 91.5432C100.229 91.6889 100.448 91.6161 100.423 91.4704C100.35 91.0333 100.229 90.5962 100.107 90.1592C100.496 90.9847 100.885 91.8346 101.274 92.6845C101.711 94.0686 102.1 95.4769 102.513 96.8853C102.464 96.7639 102.27 96.8124 102.318 96.9338C102.756 98.3665 103.217 99.7991 103.655 101.207C103.825 101.863 103.995 102.519 104.165 103.174C105.259 107.982 106.012 112.863 106.886 117.719C106.886 117.816 107.081 117.792 107.081 117.695C106.814 114.174 106.255 110.653 105.526 107.181C108.053 115.243 110.653 123.28 113.35 131.293C115.075 136.368 116.776 141.491 118.525 146.566C118.477 146.615 118.452 146.688 118.525 146.761C118.574 146.809 118.622 146.882 118.671 146.931C120.42 151.981 122.218 156.983 124.138 161.961C123.676 162.253 123.263 162.617 122.85 163.03C122.291 161.111 121.684 159.193 121.052 157.299C121.149 156.789 121.247 156.255 121.319 155.745C121.319 155.624 121.149 155.551 121.125 155.696C121.052 156.085 120.979 156.449 120.906 156.838C119.011 151.131 116.897 145.498 114.565 140.01C114.492 139.865 114.224 139.962 114.297 140.132C116.581 146.275 118.647 152.443 120.566 158.683C120.542 158.829 120.518 158.974 120.469 159.12C113.909 141.394 107.615 123.571 101.687 105.603C99.5485 99.1435 97.4589 92.6602 95.4178 86.1769C95.345 85.9827 95.0534 86.0555 95.102 86.274C102.003 109.221 109.559 131.949 117.699 154.482C118.477 156.643 119.303 158.78 120.105 160.941C119.667 163.224 119.23 165.506 118.792 167.765C117.893 167.497 117.019 167.255 116.12 166.963C116.023 166.939 115.998 167.085 116.071 167.109C116.946 167.449 117.845 167.74 118.72 168.032C117.456 174.588 116.168 181.144 114.929 187.724C113.933 193.066 112.912 198.409 111.916 203.751C111.26 207.296 110.555 210.841 109.899 214.386C107.202 222.618 104.627 230.946 102.634 239.397C102.513 239.858 103.169 240.174 103.436 239.737C105.526 236.07 106.716 232.015 106.886 227.79C106.886 227.79 106.886 227.79 106.862 227.766C107.591 225.216 108.32 222.691 109.098 220.141C109.243 220.311 109.511 220.335 109.681 220.092C110.045 219.582 110.337 219.073 110.653 218.563C110.531 219.243 110.385 219.947 110.264 220.627C110.167 221.185 110.969 221.428 111.139 220.869C114.492 209.238 117.626 197.51 121.028 185.903C121.149 185.49 120.566 185.345 120.396 185.733C119.108 188.866 117.918 192.047 116.727 195.203C118.817 187.093 121.222 179.08 123.871 171.115C124.187 171.965 124.478 172.791 124.818 173.641C125.037 174.199 125.887 173.981 125.742 173.398C125.45 172.208 125.11 171.043 124.77 169.877C127.321 170.508 129.921 170.921 132.521 171.261C142.289 185.563 152.955 199.21 164.521 212.128C160.755 209.141 157.11 206.009 153.539 202.804C148.412 197.267 143.382 191.634 138.571 185.855C134.975 181.532 131.452 177.113 128.026 172.645C127.953 172.548 127.783 172.645 127.856 172.742C134.246 181.387 141.001 189.716 148.047 197.801C147.926 197.68 147.804 197.583 147.683 197.462C147.537 197.316 147.343 197.534 147.464 197.68C148.825 199.064 150.21 200.424 151.619 201.784C156.26 206.956 160.998 212.055 165.931 216.984C168.409 219.461 170.912 221.889 173.463 224.293C171.227 222.545 169.114 220.651 167.17 218.563C167.024 218.417 166.83 218.635 166.951 218.781C167.753 219.704 168.579 220.602 169.429 221.452C169.162 221.209 168.895 220.991 168.652 220.748C161.241 213.755 154.097 206.494 147.294 198.918C143.406 194.596 139.64 190.153 135.971 185.636C135.874 185.515 135.68 185.685 135.777 185.83C148.557 201.929 162.699 216.936 178.152 230.534C182.38 234.249 186.632 238.158 191.273 241.339C191.565 241.533 191.881 241.096 191.662 240.854C190.447 239.567 189.281 238.255 188.115 236.944C187.993 236.823 187.823 236.993 187.92 237.138C188.285 237.6 188.649 238.061 189.014 238.522C186.025 235.973 182.939 233.569 179.975 230.995C177.691 229.004 175.48 226.94 173.244 224.9C174.799 226.187 176.403 227.426 178.104 228.543C178.517 228.834 179.003 228.203 178.638 227.838C171.956 221.404 165.202 215.09 158.738 208.388C161.873 211.157 165.056 213.852 168.36 216.402C168.385 216.426 168.433 216.45 168.458 216.474C168.919 216.839 169.405 216.086 169.065 215.697C156.114 201.711 144.062 186.875 133.031 171.31C137.186 171.795 141.39 171.965 145.593 171.698C145.715 171.698 145.812 171.723 145.909 171.747C153.733 172.378 162.31 172.33 169.915 170.071C170.061 170.023 170.037 169.804 169.891 169.804C165.955 170.241 162.067 170.921 158.107 171.188C155.361 171.383 152.591 171.383 149.821 171.31C151.23 171.115 152.64 170.921 154.025 170.63C154.17 170.606 154.097 170.411 153.976 170.436C151.255 170.8 148.509 171.043 145.788 171.14C140.879 170.776 136.02 169.95 131.233 168.784C130.796 168.153 130.358 167.546 129.945 166.915C136.822 168.566 144.257 168.347 151.23 168.105C162.213 167.716 173.147 166.72 184.008 165.118C190.228 164.195 196.424 163.005 202.572 161.621C202.742 161.573 202.669 161.33 202.499 161.354C191.2 163.418 179.78 165.045 168.336 166.065C162.65 166.575 156.94 166.963 151.23 167.182C146.055 167.376 140.855 167.522 135.68 167.012C133.541 166.793 131.403 166.453 129.313 165.943C128.269 164.414 127.224 162.884 126.203 161.354C126.738 161.208 127.272 161.087 127.734 161.063C127.831 161.063 127.856 160.893 127.734 160.893C127.151 160.893 126.592 161.014 126.058 161.184C125.936 161.014 125.815 160.844 125.717 160.674C125.669 160.577 125.499 160.674 125.572 160.771C125.669 160.941 125.79 161.111 125.887 161.257C125.547 161.354 125.207 161.476 124.891 161.621C124.211 159.654 123.531 157.688 122.85 155.696C122.85 155.648 122.777 155.648 122.753 155.648C122 153.511 121.222 151.398 120.445 149.286C121.66 150.767 122.85 152.273 124.065 153.754C124.308 154.045 124.77 153.73 124.697 153.39C121.684 141.953 117.626 130.686 113.325 119.686C112.694 118.084 111.989 116.505 111.357 114.903C113.18 111.916 115.075 108.978 117.019 106.088C116.387 107.885 115.804 109.658 115.269 111.479C115.148 111.94 115.755 112.159 115.998 111.794C115.998 111.794 115.998 111.794 115.998 111.77C115.731 112.79 115.439 113.834 115.196 114.854C115.099 115.218 115.609 115.607 115.901 115.267C115.925 115.243 115.95 115.194 115.974 115.17C115.852 115.534 115.731 115.898 115.634 116.262C115.512 116.699 116.168 116.991 116.387 116.578C119.278 111.309 122.121 106.04 124.988 100.77C125.061 100.625 124.867 100.503 124.77 100.649C123.093 103.49 121.417 106.355 119.74 109.196C121.076 106.598 122.121 103.879 122.826 101.013C126.422 95.0641 129.727 88.9693 132.788 82.7531C133.274 84.0158 133.833 85.2542 134.465 86.3954C134.416 86.3469 134.392 86.3226 134.343 86.274C134.222 86.1526 134.076 86.3226 134.173 86.444C135.096 87.6338 135.995 88.8237 136.943 89.9892C137.21 90.3291 137.818 89.8678 137.551 89.5278C135.655 87.0511 134.392 84.38 133.323 81.6119C134.246 79.6936 135.169 77.7753 136.068 75.8327C138.765 79.1351 141.487 82.4132 144.232 85.6913C144.403 85.9098 144.573 86.1283 144.743 86.3712C144.743 86.3712 144.718 86.3954 144.743 86.4197C151.741 98.1965 158.69 109.998 165.76 121.75C165.809 121.823 165.931 121.75 165.882 121.677C159.2 110.289 152.421 98.9493 145.666 87.6096C158.52 104.777 172.224 121.313 186.851 136.999C191.492 141.977 196.23 146.833 201.09 151.593C198.295 151.86 195.525 152.151 192.731 152.321C190.763 152.443 188.819 152.564 186.851 152.661C185.879 152.71 184.883 152.758 183.911 152.807C183.474 152.807 183.036 152.855 182.599 152.855C182.453 152.855 182.307 152.855 182.162 152.855C180.898 152.953 180.606 152.151 181.287 150.524C181.384 150.549 181.433 150.403 181.335 150.354C180.485 150.112 179.853 150.889 179.902 151.714C179.975 152.855 181.214 153.244 182.186 153.341C184.664 153.584 187.337 153.341 189.84 153.22C192.488 153.098 195.137 152.928 197.785 152.71C199.146 152.613 200.531 152.467 201.891 152.345C203.009 153.438 204.127 154.579 205.269 155.672C205.415 155.818 205.633 155.599 205.488 155.454C204.491 154.409 203.495 153.341 202.475 152.297C204.71 152.078 206.921 151.836 209.157 151.568C210.007 152.418 210.833 153.268 211.684 154.094C210.347 153.851 209.035 153.584 207.699 153.341C207.577 153.341 207.504 153.511 207.65 153.535C209.132 153.851 210.614 154.167 212.097 154.482C212.898 155.284 213.7 156.109 214.526 156.886C214.624 156.983 214.745 156.838 214.672 156.741C213.968 156.012 213.263 155.284 212.534 154.555C216.227 155.356 219.945 156.158 223.662 156.911C226.627 157.518 229.615 158.222 232.604 158.829C234.864 159.8 237.124 160.771 239.383 161.694C244.85 163.879 250.39 165.895 255.979 167.74C258.822 168.687 261.664 169.586 264.532 170.411C265.868 170.8 267.229 171.164 268.589 171.528C269.707 171.82 270.898 172.305 272.064 172.305C272.088 172.305 272.113 172.305 272.137 172.305C270.436 174.806 268.711 177.259 266.889 179.687C265.333 181.751 263.73 183.766 262.078 185.733C263.147 184.034 264.24 182.358 265.309 180.658C265.406 180.513 265.188 180.391 265.09 180.537C263.463 183.014 261.835 185.49 260.207 187.967C259.696 188.599 259.162 189.206 258.652 189.837C261.276 185.466 263.973 181.12 266.864 176.919C266.937 176.822 266.767 176.725 266.694 176.822C260.887 184.811 255.663 193.212 251.022 201.929C249.783 203.823 248.544 205.693 247.304 207.587C247.086 207.927 247.572 208.267 247.839 208C247.912 207.927 247.985 207.83 248.082 207.757C247.353 209.214 246.6 210.647 245.919 212.128C245.774 212.468 246.114 212.978 246.478 212.686C252.31 208.218 256.586 202.099 258.87 195.13C258.943 194.936 258.627 194.863 258.554 195.033C256.27 201.177 252.431 206.543 247.474 210.768C248.252 209.093 249.078 207.441 249.904 205.79C252.65 202.658 254.837 199.04 256.27 195.13C256.295 195.033 256.246 194.985 256.173 194.985C257.145 193.479 258.093 191.974 259.065 190.468C261.859 187.214 264.459 183.766 266.986 180.318C268.905 177.696 270.728 175.001 272.501 172.281C273.449 172.062 274.591 171.237 273.692 170.387C274.032 169.853 274.372 169.319 274.712 168.784C275.514 169.294 276.316 169.804 277.142 170.29C277.264 170.363 277.361 170.193 277.239 170.12C276.438 169.586 275.684 169.027 274.931 168.444C275.344 167.789 275.757 167.158 276.146 166.502C276.195 166.405 276.049 166.332 276 166.405C275.587 167.036 275.174 167.667 274.761 168.299C274.494 168.105 274.227 167.91 273.959 167.716C274.785 166.162 275.539 164.608 276.268 163.03C276.583 163.224 276.899 163.467 277.215 163.661C277.337 163.734 277.507 163.539 277.385 163.442C277.069 163.2 276.754 162.957 276.413 162.714C276.754 161.961 277.118 161.208 277.434 160.431C277.434 160.626 277.41 160.82 277.385 161.014C277.361 161.427 277.944 161.451 278.066 161.111C278.09 161.038 278.114 160.99 278.138 160.917C277.92 163.03 277.774 165.142 277.701 167.255C277.021 167.716 276.292 168.129 275.612 168.614C275.441 168.736 275.612 169.003 275.782 168.882C276.511 168.469 277.215 168.007 277.944 167.595C278.09 167.619 278.26 167.57 278.284 167.4C279.329 166.793 280.35 166.162 281.394 165.531C287.809 170.314 294.345 174.952 301.051 179.323C305.692 182.334 312.763 186.462 317.963 182.358C318.109 182.237 317.914 182.018 317.768 182.115C311.402 185.515 304.477 180.658 299.229 177.283C293.252 173.447 287.347 169.537 281.565 165.433C282.221 165.045 282.852 164.632 283.508 164.244C289.461 167.546 295.536 170.678 301.708 173.544C305.547 175.341 309.41 177.065 313.322 178.716C317.307 180.391 321.462 182.285 325.641 183.378C325.714 183.378 325.787 183.354 325.811 183.281C326.103 183.402 326.419 183.499 326.71 183.621C324.572 184.252 322.409 184.835 320.247 185.369C320.125 185.393 320.174 185.588 320.296 185.563C322.75 185.151 325.179 184.568 327.585 183.936C330.039 184.908 332.517 185.879 334.996 186.753C335.142 186.802 335.214 186.583 335.069 186.51C332.785 185.588 330.525 184.665 328.265 183.718C333.611 182.261 338.859 180.318 343.889 177.987C351.373 174.515 358.54 170.193 364.785 164.802C364.882 164.729 364.761 164.559 364.639 164.632C361.602 166.818 358.492 168.882 355.333 170.848C356.232 170.12 356.84 169.319 356.378 168.517C356.184 168.177 355.698 168.105 355.309 168.202C359.124 166.308 362.793 164.195 366.219 161.864C366.462 161.694 366.389 161.403 366.146 161.281C363.935 160.359 361.48 160.723 359.682 162.325C359.585 162.423 359.731 162.544 359.828 162.471C361.432 161.184 363.497 160.893 365.368 161.645C360.12 164.996 354.653 167.959 348.894 170.314C343.063 172.718 337.037 174.418 330.938 175.948C330.816 175.972 330.865 176.166 330.987 176.142C339.175 174.879 347.315 172.111 354.896 168.372C354.726 168.542 354.653 168.76 354.847 169.027C354.896 169.1 355.017 169.027 354.969 168.954C355.042 168.42 355.309 168.226 355.77 168.347C356.232 168.712 356.305 169.124 355.941 169.61C355.625 170.12 355.066 170.436 354.604 170.751C353.778 171.285 352.928 171.771 352.077 172.232C350.303 173.179 348.481 173.981 346.586 174.612C342.844 175.875 338.859 176.506 334.923 176.53C334.753 176.53 334.753 176.773 334.923 176.773C340.876 176.967 346.732 175.583 352.004 172.815C349.332 174.369 346.586 175.85 343.767 177.186C338.495 179.687 333.003 181.654 327.415 183.329C315.727 178.497 304.137 173.349 292.839 167.692C292.742 167.643 292.644 167.789 292.742 167.862C299.01 171.164 305.377 174.296 311.815 177.21C308.462 175.802 305.085 174.345 301.78 172.815C295.73 170.023 289.777 167.036 283.873 163.928C286.521 162.325 289.17 160.723 291.794 159.072C294.953 158.319 298.087 157.396 301.173 156.328C310.479 154.604 319.737 151.496 328.022 146.906C330.233 148.242 332.444 149.529 334.704 150.743C334.85 150.816 334.971 150.621 334.826 150.524C333.465 149.674 332.104 148.825 330.768 147.95C337.911 150.791 345.274 153.05 352.806 154.652C354.434 154.992 356.451 155.259 358.273 154.992C364.809 157.663 371.564 159.751 378.489 161.063C382.668 167.91 386.823 174.758 391.027 181.581C393.457 185.515 395.886 189.448 398.292 193.382C398.389 193.552 398.511 193.722 398.608 193.892C398.972 194.815 399.337 195.713 399.725 196.612C399.774 196.709 399.92 196.636 399.871 196.539C399.677 196.053 399.507 195.543 399.312 195.058C399.871 195.98 400.43 196.927 400.989 197.85C401.912 205.523 401.669 213.342 400.406 220.967C399.264 216.717 398.316 212.419 397.612 208.097C397.587 207.903 397.271 207.976 397.296 208.194C397.976 213.002 398.948 217.786 400.163 222.472C399.92 223.832 399.628 225.192 399.312 226.551C399.264 226.746 399.555 226.818 399.604 226.624C399.896 225.532 400.139 224.439 400.382 223.322C400.892 225.24 401.451 227.158 402.058 229.052C402.277 229.708 402.52 230.364 402.738 231.019C401.524 236.968 399.507 242.772 396.713 248.187C395.498 250.542 394.137 252.8 392.655 254.986C377.298 256.151 361.991 256.734 346.562 255.666C346.464 255.666 346.489 255.787 346.562 255.787C361.699 257.05 377.201 257.22 392.339 255.398C391.027 257.268 389.642 259.089 388.16 260.813C387.892 261.129 388.16 261.542 388.548 261.493C389.739 261.323 390.881 261.056 392.072 260.862C390.565 264.771 385.317 265.718 381.721 266.665C376.934 267.904 372.099 268.875 367.191 269.531C357.374 270.842 347.412 270.988 337.571 269.895C333.271 269.434 329.067 268.656 324.863 267.758C326.054 266.835 327.196 265.888 328.362 264.941C344.472 263.727 360.654 261.202 376.229 257.22C376.375 257.195 376.327 256.977 376.205 256.977C366.607 256.685 357.131 256.977 347.655 258.604C341.945 259.599 336.381 261.08 330.914 262.877C334.097 260.206 337.207 257.487 340.195 254.621C342.844 252.096 345.492 249.474 348.044 246.754C351.616 243.622 355.163 240.489 358.711 237.308C358.856 237.163 358.638 236.944 358.492 237.09C356.111 239.032 353.778 241.023 351.445 242.99C352.612 241.606 353.729 240.198 354.774 238.765C354.969 238.474 354.556 238.231 354.313 238.425C353.438 239.154 352.515 239.809 351.591 240.489C351.445 240.586 351.591 240.805 351.737 240.708C352.077 240.489 352.417 240.295 352.758 240.077C350.036 242.942 347.363 245.831 344.642 248.697C344.302 248.964 343.986 249.255 343.646 249.522C344.205 248.939 344.764 248.357 345.322 247.774C345.687 247.385 345.225 246.754 344.739 247.021C342.723 248.138 340.73 249.328 338.713 250.469C342.868 245.856 347.193 241.412 351.713 237.163C351.931 236.968 351.664 236.604 351.397 236.75C339.539 243.719 328.289 251.659 317.793 260.571C317.671 260.692 317.841 260.862 317.987 260.765C327.925 252.582 338.47 245.127 349.526 238.498C344.836 242.796 340.317 247.264 336.065 251.975C318.668 261.93 301.659 272.59 285.136 283.906C284.529 284.318 285.088 285.314 285.719 284.901C295.9 278.199 306.178 271.449 316.918 265.621C317.112 265.621 317.283 265.621 317.477 265.597C311.135 270.113 304.745 274.533 298.087 278.612C289.631 283.784 280.884 288.519 271.918 292.769C270.849 293.278 269.731 293.764 268.662 294.25C256.878 293.691 245.142 291.579 233.989 287.791C230.903 286.747 226.87 284.877 224.926 281.987C226.603 281.696 228.279 281.405 229.956 281.016C230.174 280.967 230.077 280.652 229.858 280.676C228.109 280.967 226.335 281.162 224.561 281.38C223.954 280.288 223.687 279.025 223.857 277.641C227.574 279.171 231.268 280.7 234.985 282.254C237.707 283.711 240.452 285.168 243.198 286.601C243.49 286.747 243.757 286.31 243.465 286.14C242.761 285.727 242.032 285.338 241.303 284.925C241.983 285.217 242.688 285.508 243.392 285.8C244 286.067 244.534 285.217 243.927 284.901C230.806 278.054 217.661 271.23 204.54 264.407C204.88 264.14 205.22 263.921 205.56 263.654C205.731 263.533 205.512 263.242 205.342 263.363C204.929 263.63 204.491 263.897 204.078 264.164C202.232 263.193 200.361 262.222 198.514 261.275C198.004 261.008 197.542 261.785 198.052 262.076C199.729 262.999 201.406 263.921 203.082 264.82C201.867 265.597 200.628 266.374 199.413 267.151C197.907 266.592 196.376 266.01 194.869 265.451C194.505 265.306 194.238 265.84 194.505 266.083C195.355 266.908 196.206 267.758 197.056 268.608C194.894 269.919 192.707 271.206 190.496 272.444C189.937 271.862 189.402 271.303 188.843 270.72C189.135 270.55 189.402 270.38 189.694 270.259C189.913 270.138 189.718 269.822 189.5 269.919C189.208 270.065 188.892 270.211 188.576 270.405C186.535 268.122 184.567 265.743 182.793 263.266C182.696 263.144 182.502 263.266 182.575 263.387C184.275 265.937 186.146 268.341 188.115 270.672C186.001 271.91 183.571 273.95 183.328 276.281C182.988 276.451 182.672 276.621 182.332 276.791C175.237 280.263 167.947 283.201 160.488 285.727C162.262 284.683 164.035 283.687 165.833 282.691C166.003 282.594 165.833 282.352 165.688 282.449C162.845 283.978 160.026 285.581 157.086 286.892C156.673 287.062 156.965 287.718 157.378 287.596C166.246 285.071 175.042 281.696 183.425 277.519C183.449 277.617 183.425 277.714 183.474 277.811C184.057 279.535 185.806 280.263 187.434 280.7C187.653 280.749 187.872 280.797 188.09 280.846C177.764 285.241 167.218 289.126 156.503 292.526C160.925 290.947 165.104 288.762 168.846 285.945C168.968 285.848 168.846 285.654 168.725 285.727C163.161 289.32 157.062 291.846 150.769 293.254C151.133 291.579 152.348 290.243 154.146 289.782C154.34 289.733 154.268 289.418 154.049 289.466C152.056 289.903 150.501 291.482 150.04 293.424C141.438 295.245 132.448 294.978 123.749 292.404C123.531 292.331 123.433 292.671 123.652 292.744C131.962 295.658 141.171 296.168 149.894 294.371C149.894 294.541 149.87 294.711 149.894 294.881C149.894 295.124 150.113 295.318 150.38 295.245C163.768 291.724 176.84 286.989 189.378 281.137C191.516 281.599 193.654 281.987 195.817 282.303C197.566 282.546 199.292 282.74 201.041 282.886C205.172 285.994 210.979 289.49 214.769 285.532C214.939 285.362 214.964 285.047 214.769 284.877C214.186 284.318 213.603 283.736 213.02 283.177C213.943 283.153 214.867 283.129 215.79 283.056C225.388 288.908 236.297 292.696 247.402 294.08C251.411 294.59 255.469 294.76 259.502 294.541C261.907 294.808 264.313 294.978 266.718 295.1C263.365 296.605 259.988 298.062 256.683 299.64C256.489 299.737 256.635 300.029 256.829 299.98C260.984 298.645 265.066 297.018 269.1 295.221C271.943 295.318 274.81 295.318 277.653 295.197C284.116 294.93 290.53 294.104 296.848 292.793C297.042 292.744 296.969 292.477 296.775 292.501C288.319 294.007 279.694 294.59 271.068 294.347C275.417 292.331 279.669 290.17 283.849 287.985C292.79 283.299 301.489 278.078 309.799 272.347C312.933 270.162 316.019 267.904 319.056 265.548C320.83 265.476 322.604 265.403 324.378 265.281C323.017 265.815 321.656 266.325 320.296 266.884C319.882 267.054 320.028 267.709 320.417 267.831C320.903 267.952 321.365 268.074 321.851 268.195C321.802 268.219 321.778 268.268 321.729 268.292C321.219 268.729 321.948 269.409 322.458 269.021C322.677 268.851 322.871 268.681 323.065 268.511C323.09 268.511 323.114 268.511 323.163 268.511C323.333 268.705 323.6 268.802 323.843 268.656C343.184 273.319 364.08 272.784 383.179 267.442C386.92 266.398 391.829 264.941 392.849 260.643C392.898 260.425 392.728 260.279 392.533 260.328C391.513 260.473 390.492 260.571 389.472 260.668C390.905 258.968 392.266 257.171 393.53 255.326C394.501 255.204 395.498 255.107 396.47 254.961C396.591 254.961 396.567 254.743 396.445 254.767C395.546 254.84 394.672 254.913 393.772 254.961C398.292 248.211 401.548 240.635 403.395 232.719C403.54 233.156 403.686 233.593 403.856 234.03C404.221 235.05 404.561 236.337 405.387 237.114C406.335 238.013 408.4 237.697 408.084 236.094L407.914 236.143ZM317.598 141.346C315.266 139.112 312.885 136.902 310.43 134.765C314.658 138.116 319.032 141.273 323.527 144.187C321.535 143.288 319.567 142.317 317.598 141.321V141.346ZM120.299 161.573C121.222 164.049 122.146 166.526 123.069 169.003C121.757 168.687 120.469 168.347 119.157 167.983C119.521 165.846 119.91 163.709 120.299 161.573ZM111.017 216.766C110.726 217.3 110.41 217.834 110.07 218.344C110.288 217.324 110.458 216.304 110.653 215.285C110.944 214.386 111.212 213.512 111.503 212.613C111.77 211.764 112.086 210.914 112.378 210.064C111.916 212.298 111.454 214.532 111.017 216.766ZM118.112 193.843C116.484 199.477 114.856 205.086 113.204 210.719C113.18 210.719 113.155 210.72 113.131 210.744C113.714 207.976 114.322 205.232 114.978 202.464C115.998 199.574 117.043 196.709 118.112 193.843ZM114.054 202.561C113.301 204.673 112.548 206.81 111.819 208.947C112.111 207.32 112.402 205.693 112.694 204.066C113.666 198.724 114.638 193.382 115.609 188.016C116.8 181.435 117.942 174.855 119.108 168.275C120.469 168.736 121.854 169.149 123.263 169.513C123.409 169.901 123.555 170.29 123.701 170.654C119.837 181.071 116.654 191.731 114.079 202.536L114.054 202.561ZM141.074 171.237C138.207 171.188 135.364 170.994 132.545 170.678C132.229 170.241 131.913 169.78 131.598 169.343C134.732 170.144 137.891 170.8 141.074 171.237ZM132.035 170.606C129.556 170.314 127.078 169.901 124.624 169.367C124.624 169.294 124.6 169.246 124.575 169.173C124.745 168.663 124.916 168.129 125.086 167.619C125.134 167.473 124.916 167.4 124.843 167.546C124.697 167.91 124.575 168.299 124.43 168.687C124.284 168.129 124.114 167.57 123.944 167.012C126.301 167.862 128.682 168.566 131.063 169.197C131.379 169.659 131.719 170.144 132.035 170.606ZM129.508 166.842C129.921 167.449 130.334 168.08 130.747 168.687C128.439 168.105 126.13 167.473 123.871 166.696C123.676 165.968 123.458 165.264 123.239 164.535C123.992 164.899 124.721 165.264 125.499 165.555C125.572 165.628 125.669 165.676 125.79 165.676C127.005 166.138 128.269 166.502 129.532 166.818L129.508 166.842ZM125.985 161.476C126.932 162.957 127.904 164.438 128.876 165.919C128.147 165.725 127.394 165.531 126.689 165.288C126.471 165.215 126.252 165.142 126.058 165.069C125.693 164.001 125.329 162.932 124.964 161.864C125.304 161.694 125.645 161.597 126.009 161.5L125.985 161.476ZM125.061 164.705C125.061 164.705 124.818 164.632 124.697 164.584C124.454 164.486 124.211 164.389 123.968 164.292C123.385 164.025 122.777 164.074 123.166 163.37C123.385 162.957 123.749 162.617 124.162 162.325C124.478 163.127 124.745 163.928 125.061 164.729V164.705ZM119.886 55.3144C119.886 55.3144 119.74 55.4844 119.643 55.5815C116.533 58.0097 113.423 60.4379 110.312 62.8904C110.361 62.8419 110.385 62.7933 110.41 62.7204C110.458 62.6476 110.337 62.5748 110.288 62.6476C110.167 62.8176 110.045 62.9876 109.924 63.1818C108.32 64.4445 106.716 65.7071 105.113 66.9698C109.341 62.3077 114.297 58.2526 119.862 55.3387L119.886 55.3144ZM106.352 70.4664C105.331 71.8019 104.238 73.1132 103.145 74.3758C102.683 74.8129 102.197 75.25 101.735 75.6871C102.513 74.5215 103.29 73.3803 104.068 72.2147C107.737 69.1309 111.236 65.8286 114.516 62.3319C111.527 65.9257 108.369 69.3494 105.016 72.6032C105.55 71.9233 106.06 71.2434 106.571 70.5393C106.668 70.4179 106.449 70.2964 106.352 70.4179V70.4664ZM105.21 70.5393C106.449 68.6938 107.688 66.8241 108.952 64.9787C111.576 62.9147 114.2 60.875 116.824 58.811C113.131 62.9147 109.268 66.8241 105.21 70.5393ZM58.3392 40.8909C56.7112 39.3126 55.1075 37.7342 53.5768 36.083C51.147 33.4606 48.863 30.7167 46.6275 27.9243C50.5395 32.2465 54.4272 36.5687 58.3392 40.8909ZM28.1368 3.20516C29.4732 2.37957 30.7367 4.17644 31.3684 5.43911C32.5104 7.72162 33.6767 9.97985 34.9402 12.2138C36.3009 14.5934 37.7345 16.9002 39.241 19.207C35.3533 14.982 31.4656 10.7569 27.5779 6.5318C27.748 5.43911 27.9424 4.32214 28.1125 3.22944L28.1368 3.20516ZM27.0191 4.56496C27.1406 4.29785 27.3107 4.03075 27.505 3.78793C27.6265 3.61796 27.748 3.54511 27.8938 3.4237C27.6994 4.34642 27.5536 5.29342 27.3593 6.24042C27.3107 6.19185 27.2621 6.14329 27.2378 6.09472C27.1406 5.9976 26.9705 6.14329 27.0677 6.2647L27.3107 6.5318C26.8976 8.66862 26.5331 10.8297 26.1444 12.9665C25.9257 12.3838 25.7313 11.801 25.5126 11.2425C26.0229 9.03285 26.5331 6.82319 27.0677 4.58924L27.0191 4.56496ZM25.3182 11.8981C25.5369 12.5052 25.7556 13.1122 25.9743 13.7436C24.9781 19.1099 23.9575 24.4762 23.0342 29.8426C23.3744 25.9089 23.666 21.9509 23.909 17.9929C24.3706 15.9532 24.8566 13.9378 25.3182 11.8981ZM21.9894 24.7676C22.1352 24.8405 22.3053 24.8162 22.3539 24.5976C22.7426 22.8979 23.1314 21.1982 23.5445 19.5227C23.5202 19.8626 23.4959 20.1783 23.4716 20.5183C23.2529 23.0679 23.0342 25.6418 22.7912 28.1914C22.5483 30.7167 22.2567 33.2421 21.9894 35.7917C20.3614 45.2859 18.7578 54.8045 17.1055 64.2988C16.3766 68.5239 15.6476 72.7732 14.9187 76.9983C15.599 59.4181 17.956 41.9107 21.9894 24.7676ZM20.5315 48.4669C19.8755 53.7118 19.1465 58.9324 18.369 64.1531C17.6158 67.4554 16.8625 70.7821 16.1336 74.0844C17.6158 65.5372 19.0737 56.9899 20.5315 48.4426V48.4669ZM15.1131 63.9103C14.7 68.3296 14.4084 72.7732 14.2141 77.2411C13.7524 78.5766 13.2907 79.9121 12.902 81.2719C13.5337 75.4685 14.2627 69.6894 15.0888 63.9103H15.1131ZM12.5861 84.2829C13.0235 82.2918 13.558 80.3006 14.1655 78.3338C14.1169 79.6208 14.044 80.932 14.0197 82.2189C14.0197 82.4132 14.1898 82.5346 14.3599 82.5589C13.9711 84.38 13.5823 86.2255 13.1935 88.0466C12.7319 89.7949 12.2459 91.5432 11.76 93.2915C12.0029 90.2806 12.2702 87.2696 12.5861 84.2829ZM11.4684 100.406C12.0758 97.1524 12.7076 93.8986 13.315 90.6691C13.9711 88.338 14.5785 86.0069 15.186 83.6758C14.1169 89.5278 12.9506 95.3312 11.7357 101.159C11.6385 100.916 11.5413 100.673 11.4684 100.43V100.406ZM56.3224 110.58C53.674 110.775 51.0255 110.847 48.4013 110.872C45.1211 109.828 41.8165 108.783 38.5363 107.715C38.4391 107.691 38.3905 107.836 38.4877 107.885C41.3549 108.881 44.2463 109.876 47.1135 110.872C46.0687 110.872 45.0239 110.872 43.9791 110.872C39.0466 109.342 34.2356 107.375 29.6676 104.971C37.1756 106.962 44.8538 108.249 52.6048 108.735C53.8683 109.318 55.1075 109.949 56.3467 110.605L56.3224 110.58ZM26.6789 103.223C34.7701 103.126 42.7642 104.631 50.2236 107.667C42.2539 107.011 34.3571 105.53 26.6789 103.223ZM53.1637 107.861C44.3921 103.83 34.7215 101.936 25.0753 102.349C24.7108 102.13 24.322 101.887 23.9575 101.645C36.0822 101.547 48.1097 103.733 59.4569 108.031C57.3672 108.031 55.2533 107.982 53.1637 107.861ZM22.4268 100.795C21.9894 100.795 21.8436 101.377 22.2081 101.596C22.6941 101.912 23.18 102.203 23.666 102.494C23.4473 102.689 23.4716 103.101 23.8361 103.223C24.5407 103.441 25.2453 103.636 25.95 103.854C30.9554 106.72 36.2523 109.002 41.768 110.653C37.8074 110.435 33.8711 110.07 29.9591 109.463C24.3463 108.589 18.855 107.205 13.4608 105.554C13.0478 104.486 12.659 103.441 12.2459 102.373C14.2627 93.0002 16.0364 83.603 17.5672 74.133C19.511 66.0228 21.2362 57.864 22.6455 49.7053C22.6698 49.5596 22.4511 49.4867 22.4025 49.6324C21.3334 54.7317 20.1914 59.8066 19.0008 64.8573C19.2923 62.8904 19.5596 60.9236 19.8026 58.9324C19.8998 58.4711 19.997 58.0097 20.0942 57.5484C20.0942 57.4755 20.0699 57.427 19.997 57.4027C20.8231 51.2108 21.552 44.9946 22.1838 38.7784C23.3015 32.2465 24.4435 25.7389 25.5369 19.207C25.8042 17.653 26.0472 16.0989 26.2901 14.5692C28.0153 19.377 29.7891 24.1848 31.5871 28.9927C37.7102 50.3609 44.951 71.4134 53.4553 91.9803C55.5692 97.1281 57.7803 102.227 60.0643 107.302C48.0611 102.689 35.2804 100.455 22.4268 100.746V100.795ZM69.1275 108.711C70.0265 107.278 70.9012 105.845 71.8002 104.437C71.946 104.607 72.189 104.704 72.3834 104.486C72.8207 104 73.2338 103.49 73.6712 102.98C72.3348 105.044 70.804 106.962 69.1032 108.711H69.1275ZM86.1117 83.433C87.3023 81.8061 88.4686 80.1792 89.7078 78.5766C89.7807 78.4552 89.6106 78.3095 89.5134 78.4309C87.2537 81.2477 85.0426 84.1129 82.8801 87.0025C79.77 90.6691 77 94.5785 74.5702 98.755C72.1647 102.349 69.8321 105.991 67.621 109.706C67.0135 108.444 66.4304 107.157 65.8229 105.894C67.1836 104.364 68.52 102.834 69.8807 101.329C73.4768 97.2981 77 93.1944 80.5718 89.1393C80.7662 88.9208 80.4503 88.6294 80.2559 88.8237C76.6112 92.8302 72.9665 96.7882 69.3704 100.819C68.0826 102.276 66.7706 103.709 65.4828 105.165C64.9968 104.146 64.5108 103.126 64.0492 102.106C59.141 91.6404 54.4758 81.0534 50.0536 70.3693C47.5752 64.3716 45.1697 58.374 42.8371 52.3277C42.7885 52.2063 42.5941 52.2549 42.6427 52.3763C46.6761 63.0361 50.9283 73.6231 55.4234 84.0887C57.6588 89.3336 59.9671 94.5299 62.324 99.7263C63.223 101.717 64.1464 103.684 65.0697 105.651C63.9763 106.865 62.9072 108.104 61.8381 109.342C61.8138 109.196 61.7652 109.075 61.7409 108.953C61.7652 108.953 61.8138 108.953 61.8381 108.953C62.3483 108.953 62.3726 108.274 61.9596 108.104C61.7895 108.031 61.6437 107.982 61.4736 107.909C60.5746 104.437 59.0924 101.159 57.0757 98.1965C57.0271 98.1479 56.9785 98.1237 56.9299 98.1722C49.3489 80.3978 42.4483 62.3805 36.471 43.999C35.2318 40.1624 34.0412 36.3259 32.8749 32.4893C38.099 46.3786 43.5174 60.1951 49.1788 73.9388C50.5395 77.2654 51.9245 80.5677 53.3338 83.8944C54.7917 87.3182 56.0794 90.9362 57.8532 94.2143C57.999 94.4814 58.5092 94.3114 58.3878 93.9957C58.0476 93.0002 57.6831 92.0289 57.27 91.0333C56.857 89.9163 56.4682 88.8236 56.0551 87.7067C56.0066 87.5853 55.8608 87.6338 55.8365 87.731C55.3748 86.7111 54.9374 85.6913 54.5001 84.6957C53.2609 81.7819 52.046 78.868 50.8311 75.9542C48.3041 69.9322 45.85 63.886 43.3959 57.8398C39.0709 47.0585 34.8673 36.2287 30.761 25.3747C30.7367 25.2533 30.6881 25.1318 30.6638 25.0104C30.6638 25.0104 30.6395 25.0104 30.6152 25.0104C30.1292 23.6992 29.5947 22.388 29.1087 21.0767C28.2097 18.6971 27.3593 16.2689 26.4602 13.8893C26.849 11.5582 27.2135 9.22711 27.5779 6.89603C32.0245 11.8253 36.4953 16.7788 40.9418 21.7081C44.5865 27.0016 48.5957 32.0765 52.9936 36.7629C56.2738 40.2596 59.7241 43.6348 63.4903 46.6215C68.6658 52.3277 73.8656 58.034 79.0653 63.7403C82.8558 68.9124 86.7435 74.0116 90.704 79.0623C89.1004 80.4706 87.5939 81.9761 86.136 83.4816L86.1117 83.433ZM91.0199 79.0623C91.0199 79.0623 91.1657 78.9166 91.2629 78.8194C91.3844 78.698 91.2143 78.5281 91.0685 78.6252C90.9956 78.698 90.9227 78.7709 90.8498 78.8194C87.6182 74.5701 84.4109 70.2964 81.2278 66.0228C83.4875 68.4996 85.7473 71.0006 88.007 73.4774C89.6349 75.25 91.3115 77.0469 92.8909 78.9166C92.575 79.3537 92.2348 79.815 91.9189 80.2521C91.6274 79.8636 91.3115 79.4508 91.0199 79.038V79.0623ZM88.007 88.4837C89.1733 85.837 90.5583 83.3116 92.1376 80.8834C92.5993 81.4662 93.0366 82.0732 93.4983 82.656C93.5469 82.7289 93.6927 82.6317 93.6441 82.5589C93.1824 81.9518 92.7208 81.3205 92.2591 80.7134C92.575 80.2278 92.9152 79.7664 93.231 79.3051C94.0329 80.2521 94.8104 81.2234 95.5393 82.2189C93.1338 84.4286 90.6311 86.5169 88.0313 88.4837H88.007ZM93.5712 78.7952C96.001 75.3957 98.8196 72.2876 101.978 69.5194C101.857 69.8836 102.221 70.1993 102.586 69.9322C104.53 68.4267 106.473 66.897 108.393 65.3915C106.911 67.504 105.429 69.6165 103.922 71.7048C101.371 73.9873 98.771 76.2213 96.0739 78.3338C96.001 78.3824 96.0739 78.5038 96.1711 78.4552C98.4308 76.804 100.642 75.1043 102.804 73.3074C101.833 74.6672 100.885 76.0513 99.913 77.4111C99.7915 77.5811 99.913 77.7268 100.034 77.7753C98.7224 79.1594 97.3617 80.4949 95.9524 81.8061C95.1992 80.762 94.3973 79.7664 93.5712 78.7709V78.7952ZM112.839 120.439C116.776 130.832 120.105 141.394 123.433 151.981C122.291 150.719 121.174 149.456 120.032 148.193C117.991 142.56 115.925 136.926 113.981 131.244C110.798 122.017 107.688 112.741 104.627 103.466C103.946 100.698 103.217 97.9537 102.391 95.2584C105.307 101.717 108.028 108.249 110.628 114.854C110.555 115 110.628 115.121 110.774 115.194C111.454 116.942 112.183 118.691 112.864 120.439H112.839ZM111.722 113.106C111.868 112.523 111.989 111.94 112.111 111.382C112.159 111.236 111.916 111.163 111.868 111.309C111.576 112.207 111.26 113.106 110.92 113.98C107.98 106.841 104.918 99.7506 101.59 92.8059C101.176 91.5432 100.763 90.2806 100.326 89.0422C100.277 88.8965 100.034 88.9451 100.083 89.115C100.277 89.6492 100.423 90.2077 100.593 90.7662C100.302 90.1592 100.01 89.5521 99.7186 88.9451C98.9411 86.5897 97.7505 84.4286 96.3169 82.3889C98.3336 80.4463 100.253 78.4066 102.075 76.2941C108.369 70.8307 113.957 64.5173 118.72 57.6698C118.72 57.6698 118.72 57.6941 118.744 57.7183C125.45 60.7779 127.831 67.0912 129.824 73.7202C125.96 81.9518 122.583 90.3534 119.764 98.9493C119.06 100.6 118.404 102.276 117.772 103.976C115.634 106.962 113.617 110.022 111.697 113.154L111.722 113.106ZM119.619 102.3C120.372 101.232 121.101 100.188 121.878 99.1435C121.052 101.062 120.226 102.956 119.473 104.898C119.084 105.53 118.671 106.137 118.282 106.768C118.695 105.263 119.181 103.781 119.619 102.3ZM118.768 109.658C119.4 107.909 120.056 106.161 120.736 104.413C121.198 103.66 121.708 102.956 122.146 102.203C121.271 104.801 120.153 107.302 118.744 109.658H118.768ZM120.032 100.916C120.299 100.042 120.542 99.1435 120.834 98.2694C123.555 91.956 126.811 85.8612 130.674 80.1307C130.771 79.985 130.528 79.8393 130.431 79.985C127.418 84.2586 124.745 88.7265 122.389 93.3887C124.624 86.8082 127.151 80.3492 129.945 74.0116C130.528 75.9784 131.087 77.9453 131.719 79.8879C128.293 85.6427 125.159 91.6161 122.461 97.7594C121.635 98.8036 120.834 99.872 120.032 100.94V100.916ZM122.729 99.6292C123.312 98.2694 123.919 96.9581 124.551 95.6226C125.207 94.7728 125.839 93.9229 126.495 93.0973C125.28 95.307 124.041 97.4923 122.753 99.6534L122.729 99.6292ZM126.495 93.073C126.495 93.073 126.446 92.8787 126.373 92.9516C125.887 93.5101 125.45 94.0929 124.964 94.6756C127.127 90.0135 129.508 85.4484 132.108 80.9805C132.205 81.2234 132.278 81.4905 132.375 81.7333C130.504 85.5699 128.56 89.3579 126.495 93.073ZM132.351 78.868C131.452 76.1241 130.65 73.3074 129.654 70.515C128.973 68.5724 128.123 66.6299 127.102 64.833C129.727 68.0868 132.351 71.3649 134.999 74.5944C134.076 76.0027 133.225 77.4354 132.351 78.868ZM223.444 156.328C219.653 155.599 215.863 154.895 212.072 154.191C211.222 153.317 210.347 152.418 209.497 151.544C211.513 151.301 213.53 151.01 215.547 150.694C220.042 153.025 224.561 155.284 229.178 157.372C227.259 157.032 225.339 156.692 223.444 156.328ZM251.095 203.386C251.581 202.439 252.115 201.517 252.626 200.57C253.622 198.991 254.642 197.413 255.639 195.859C254.424 198.578 252.917 201.08 251.119 203.386H251.095ZM273.789 167.667C266.378 162.301 259.599 156.231 253.622 149.237C253.525 149.116 253.355 149.286 253.452 149.407C257.412 154.531 262.005 159.242 267.059 163.345C264.945 162.058 262.831 160.796 260.79 159.387C257.534 157.153 254.351 154.798 251.314 152.273C246.162 147.999 241.351 143.264 236.929 138.238C238.776 137.801 240.622 137.339 242.445 136.854C247.499 141.127 252.601 145.352 257.801 149.432C263.706 154.07 269.659 158.804 275.976 162.908C275.271 164.511 274.542 166.089 273.765 167.667H273.789ZM281.079 165.094C281.079 165.094 281.03 165.069 281.006 165.045C280.908 164.972 280.836 165.118 280.908 165.191C280.082 165.725 279.232 166.235 278.406 166.769C278.77 165.312 279.159 163.855 279.548 162.398C279.596 162.253 279.353 162.18 279.305 162.325C279.062 163.078 278.795 163.831 278.552 164.584C278.649 163.612 278.77 162.617 278.867 161.645C280.204 162.423 281.565 163.175 282.901 163.928C282.293 164.317 281.662 164.705 281.054 165.094H281.079ZM299.205 155.964C298.524 156.085 297.844 156.182 297.164 156.303C303.894 151.957 311.305 148.849 319.129 147.101C312.763 150.791 306.105 153.73 299.205 155.988V155.964ZM350.644 153.487C345.954 152.37 341.313 151.034 336.745 149.48C334.097 148.582 331.473 147.562 328.897 146.493C331.035 145.255 333.125 143.968 335.093 142.511C341.167 146.906 347.825 150.597 354.653 153.632C355.406 153.972 356.159 154.239 356.913 154.555C354.726 154.531 352.393 153.9 350.644 153.487ZM203.471 265.233C210.25 268.948 217.005 272.663 223.784 276.354C223.735 276.475 223.711 276.572 223.687 276.694C215.911 273.561 208.087 270.55 200.239 267.612C201.333 266.835 202.402 266.034 203.471 265.233ZM184.737 274.29C185.612 272.954 186.875 271.91 188.236 271.085C188.746 271.692 189.232 272.299 189.767 272.882C187.896 273.926 185.976 274.945 184.057 275.917C184.154 275.383 184.397 274.824 184.737 274.266V274.29ZM186.244 279.535C184.98 279.049 184.275 278.224 184.057 277.252C186.268 276.135 188.43 274.946 190.569 273.731C191.929 275.188 193.363 276.572 194.821 277.908C193.023 278.733 191.2 279.559 189.378 280.36C188.285 280.166 187.216 279.923 186.219 279.535H186.244ZM193.096 280.943C192.318 280.822 191.492 280.7 190.666 280.555C192.221 279.826 193.727 279.025 195.258 278.272C196.206 279.122 197.153 279.996 198.15 280.797C198.49 281.089 198.903 281.405 199.316 281.72C197.226 281.502 195.161 281.259 193.096 280.919V280.943ZM196.765 278.588C196.497 278.369 196.279 278.126 196.011 277.908C197.226 277.301 198.465 276.718 199.68 276.087C199.875 275.99 199.68 275.698 199.51 275.795C198.223 276.402 196.91 276.961 195.598 277.568C194.068 276.232 192.585 274.824 191.152 273.391C193.339 272.129 195.477 270.793 197.591 269.409C201.94 273.683 206.289 277.981 210.614 282.303C207.407 282.303 204.2 282.23 200.992 281.963C199.535 280.895 198.15 279.778 196.789 278.636L196.765 278.588ZM213.627 285.265C211.149 287.329 207.529 286.018 205.002 284.585C204.2 284.124 203.422 283.638 202.645 283.104C205.633 283.323 208.646 283.396 211.659 283.323C212.315 283.978 212.971 284.61 213.627 285.265ZM212.485 280.02C208.209 277.179 204.224 273.901 200.507 270.356C200.361 270.211 200.142 270.429 200.288 270.575C204.418 275.043 209.132 278.928 214.259 282.23C213.457 282.254 212.655 282.23 211.878 282.23C207.31 277.811 202.791 273.367 198.247 268.899C198.636 268.632 199.049 268.389 199.437 268.122C207.48 271.158 215.498 274.314 223.468 277.568C223.249 278.928 223.468 280.263 223.978 281.502C221.33 281.793 218.681 282.036 216.033 282.157C214.842 281.453 213.652 280.773 212.51 280.02H212.485ZM236.516 290.996C229.834 289.175 223.419 286.455 217.418 283.031C219.726 282.837 222.01 282.546 224.27 282.157C225.096 283.736 226.432 285.144 227.939 286.14C230.004 287.499 232.361 288.301 234.694 289.102C237.512 290.073 240.379 290.923 243.271 291.676C246.43 292.501 249.637 293.157 252.844 293.716C247.329 293.327 241.886 292.477 236.492 290.996H236.516ZM363.959 257.244C367.555 257.05 371.2 256.977 374.772 257.22C376.229 257.317 375.185 257.292 374.383 257.438C373.411 257.632 372.463 257.851 371.491 258.045C369.572 258.434 367.628 258.822 365.708 259.186C357.909 260.668 350.06 261.906 342.188 262.95C337.839 263.509 333.489 263.994 329.116 264.407C329.116 264.407 329.14 264.383 329.164 264.359C340.317 260.255 352.126 257.875 363.959 257.244ZM336.356 253.067C338.349 251.902 340.341 250.688 342.334 249.546C340.171 251.853 337.96 254.112 335.652 256.297C333.368 258.264 331.084 260.206 328.8 262.173C331.23 259.065 333.757 256.03 336.356 253.067ZM319.445 265.208C320.636 264.286 321.826 263.387 322.993 262.44C323.26 262.197 322.92 261.785 322.604 261.955C320.538 263.144 318.473 264.286 316.432 265.476C316.311 265.476 316.189 265.475 316.043 265.5C315.922 265.5 315.922 265.645 315.995 265.718C313.711 267.03 311.402 268.341 309.118 269.628C317.258 264.48 325.52 259.478 333.829 254.597C330.962 257.875 328.168 261.275 325.52 264.747C323.503 264.917 321.486 265.087 319.445 265.257V265.208ZM402.957 229.805C402.228 227.62 401.524 225.41 400.892 223.2C400.795 222.812 400.697 222.448 400.6 222.059C402.034 214.775 402.423 207.393 401.864 199.987C404.439 209.724 404.779 219.947 402.957 229.805Z" fill="black"/>
<path d="M261.154 179.226C250.293 192.29 240.671 206.397 232.895 221.525C232.823 221.695 233.041 221.841 233.138 221.671C241.448 206.907 250.779 192.702 261.421 179.493C261.567 179.323 261.324 179.056 261.178 179.25L261.154 179.226Z" fill="black"/>
<path d="M154.729 191.707C150.988 186.729 147.221 181.775 143.48 176.798C143.382 176.652 143.139 176.798 143.261 176.943C147.003 182.018 150.745 187.118 154.486 192.192C157.985 196.927 161.314 201.93 165.056 206.47C163.331 206.446 161.776 205.596 160.804 204.139C160.731 204.018 160.537 204.139 160.61 204.261C161.703 206.106 163.55 207.053 165.688 207.077C165.907 207.077 166.052 206.835 165.931 206.64C162.529 201.468 158.471 196.636 154.729 191.707Z" fill="black"/>
<path d="M223.882 171.868C224.027 171.747 223.833 171.48 223.663 171.601C219.897 174.272 216.276 177.138 212.705 180.027C213.142 179.444 213.579 178.886 213.992 178.303C214.284 177.915 213.725 177.453 213.361 177.672C204.225 183.062 196.231 190.153 189.792 198.603C189.767 198.627 189.743 198.676 189.719 198.7C189.354 199.186 190.108 199.623 190.496 199.307C196.085 194.791 201.673 190.298 207.238 185.782C203.763 190.396 200.264 195.009 196.838 199.671C196.522 200.108 197.105 200.448 197.494 200.254C197.373 200.351 197.251 200.448 197.13 200.57L192.003 205.062C191.177 205.79 190.132 206.907 188.917 206.883C188.139 206.883 187.483 206.373 187.508 205.572C187.508 205.086 187.605 204.94 188.091 204.868C188.48 204.795 189.014 204.868 189.038 205.475C189.038 205.596 189.257 205.62 189.257 205.475C189.233 204.139 187.095 204.455 186.997 205.669C186.925 206.397 187.508 206.98 188.115 207.247C189.209 207.733 190.326 207.247 191.201 206.567C192.61 205.499 193.898 204.212 195.234 203.046C196.619 201.808 198.029 200.594 199.414 199.356C200.726 198.166 202.062 196.976 203.374 195.786C207.481 192.605 211.611 189.4 215.718 186.195C215.936 186.025 215.645 185.612 215.402 185.782C210.105 189.74 204.832 193.698 199.535 197.68C203.107 192.969 206.63 188.234 210.178 183.499C214.843 179.736 219.484 175.972 223.906 171.917L223.882 171.868ZM206.825 184.786C202.378 188.38 197.931 191.998 193.485 195.592C198.733 189.424 204.905 184.058 211.781 179.736C211.125 180.61 210.494 181.484 209.837 182.334C208.841 183.135 207.845 183.961 206.825 184.762V184.786Z" fill="black"/>
<path d="M314.002 224.075C312.034 227.231 310.066 230.388 308.098 233.545C307.393 234.686 306.664 235.827 305.935 236.968C305.911 236.968 305.887 236.968 305.863 236.968C305.668 237.284 305.498 237.624 305.304 237.94C304.259 239.615 303.238 241.315 302.315 243.039C302.169 243.282 302.534 243.476 302.68 243.257C304.769 240.222 306.591 236.895 308.462 233.714L314.148 224.123C314.148 224.123 314.051 223.953 314.002 224.026V224.075Z" fill="black"/>
<path d="M323.649 210.282C312.885 222.326 302.316 234.54 291.819 246.827C298.792 237.94 305.717 229.004 312.594 220.044C312.837 219.728 312.302 219.412 312.059 219.728C307.37 225.847 302.68 231.966 298.015 238.085C292.256 245.297 286.522 252.509 280.788 259.745C280.423 260.206 281.031 260.838 281.444 260.4C295.804 243.986 310.042 227.377 323.965 210.574C324.135 210.379 323.868 210.088 323.674 210.282H323.649Z" fill="black"/>
</g>
<defs>
<clipPath id="clip0_7278_864">
<rect width="411" height="312" fill="white"/>
</clipPath>
</defs>
</svg>
