<svg width="31" height="33" viewBox="0 0 31 33" fill="none" xmlns="http://www.w3.org/2000/svg">
<g clip-path="url(#clip0_7286_115)">
<path d="M30.9046 28.2912C30.4888 27.9727 30.0958 27.635 29.6684 27.3318C29.2716 27.0517 28.8634 26.783 28.4895 26.4722C27.6883 25.8044 26.9595 25.0484 26.2995 24.2425C25.586 23.3752 24.9259 22.4542 24.2659 21.5446C24.1857 21.4333 23.7584 20.8232 23.3044 20.3089C23.1174 20.0211 22.9267 19.7371 22.7473 19.4454C22.7473 19.4454 22.7473 19.4454 22.7473 19.4416C22.8198 19.3303 22.8809 19.2152 22.9228 19.0885C22.9953 18.8621 22.7664 18.6664 22.5566 18.7201C22.4955 18.7355 22.4345 18.7585 22.3734 18.7815C22.1369 18.3901 21.8431 17.9488 21.618 17.8298C21.473 17.5151 21.3128 17.2081 21.1487 16.9011C21.3814 16.9932 21.6218 17.0814 21.8622 17.1544C21.9385 17.1774 22.0148 17.1889 22.0911 17.2081C22.0987 17.2081 22.1025 17.2158 22.1102 17.2196C22.5299 17.4921 22.9419 17.7914 23.3044 18.133C23.6936 18.4975 24.0179 18.912 24.3307 19.3418C24.6741 19.8139 25.0747 20.3665 25.5936 20.6543C25.7081 20.7157 25.8264 20.6159 25.7996 20.4931C25.6776 19.8868 25.2464 19.2996 24.8763 18.8161C24.5291 18.3594 24.1628 17.9219 23.7241 17.542C23.6554 17.4806 23.5829 17.4268 23.5104 17.3693C23.518 17.3693 23.5295 17.3693 23.5371 17.3654C24.1667 17.5688 24.8572 17.5343 25.5097 17.3501C25.9065 17.2388 26.3414 17.0738 26.3796 16.5979C26.4139 16.1758 26.1201 15.8189 25.8264 15.5541C25.2312 15.0245 24.4643 14.752 23.6745 14.6983C22.9076 14.6484 21.9499 14.7827 21.2937 15.2432C21.267 15.2163 21.2441 15.1895 21.2136 15.1703C21.3204 15.0513 21.4196 14.9285 21.4997 14.7942C21.6867 14.4833 21.8316 14.1456 21.9614 13.8079C22.03 13.6276 22.0529 13.4472 22.0682 13.2553C22.072 13.1939 22.0682 13.1363 22.0682 13.0749C22.0987 13.0711 22.1292 13.0557 22.1483 13.0174C22.4917 12.2306 22.7893 11.1906 22.3658 10.3694C22.1903 10.0278 21.8622 9.76687 21.4844 9.70547C21.0266 9.62871 20.6603 9.87816 20.4085 10.2427C20.0155 10.8069 19.7828 11.4938 19.6454 12.1769C19.4241 11.8929 19.1723 11.632 18.9358 11.3633C18.6229 11.0064 18.2833 10.6764 17.8751 10.4346C17.8217 10.4039 17.7759 10.473 17.8102 10.5152C18.1384 10.8951 18.4894 11.2559 18.7717 11.6742C19.035 12.0618 19.1952 12.5377 19.3478 12.9752C19.3936 13.1095 19.4318 13.2515 19.4776 13.3858C19.4585 13.593 19.4432 13.7964 19.4279 14.0036C19.4279 14.0459 19.4241 14.0881 19.4203 14.1341C19.1113 13.689 18.7946 13.2476 18.4779 12.814C18.2261 12.3074 17.9552 11.8085 17.6805 11.3134C17.0853 10.2389 16.5359 9.14133 15.9903 8.03992C14.9067 5.84479 13.8308 3.55754 13.1593 1.20122C13.1402 1.13982 13.0868 1.12447 13.0372 1.13982C12.9113 0.621737 12.4916 0.245646 11.946 0.122841C10.6907 -0.161145 9.16838 3.64743e-05 8.01614 0.579522C7.93601 0.621737 7.90167 0.710003 7.90549 0.798269C7.84444 0.756055 7.77958 0.717678 7.70709 0.694652C7.14623 0.514282 6.55484 0.993989 6.10844 1.26263C5.13171 1.84595 4.16641 2.44079 3.25835 3.12773C2.36937 3.80315 1.46894 4.53998 0.76309 5.41881C0.0190898 6.34752 -0.431126 7.75978 0.644813 8.64244C0.709674 8.69616 0.782167 8.73838 0.854659 8.78059C0.854659 8.78059 0.847028 8.78059 0.847028 8.78443C0.808874 8.81897 0.789797 8.88805 0.805059 8.93794C1.00346 9.52894 1.77035 9.72082 2.34266 9.90502C2.7738 10.212 3.38807 10.3502 3.84974 10.5344C4.609 10.8376 5.36063 11.1868 6.09318 11.5629C7.53921 12.3074 8.89749 13.2169 10.1451 14.2608C11.4462 15.3468 12.5946 16.6017 13.7049 17.8758C14.2657 18.5206 14.7999 19.196 15.3913 19.81C15.5019 19.9251 15.6126 20.0403 15.727 20.1516C15.6278 20.3358 15.6164 20.5891 15.7652 20.7733C16.2536 21.3681 16.803 21.9284 17.3066 22.5156C17.8217 23.1142 18.3024 23.7398 18.745 24.396C19.18 25.0407 19.5424 25.7238 19.9507 26.3839C20.1529 26.714 20.3475 27.0478 20.5535 27.374C20.7595 27.6964 21.0266 27.9689 21.2822 28.249C21.3089 28.2797 21.3471 28.2874 21.3852 28.2836C21.4158 28.345 21.4463 28.4064 21.4768 28.4678C21.8698 29.2967 22.1979 30.164 22.4536 31.0467C22.4917 31.1771 22.5222 31.3115 22.5604 31.4458C22.4612 31.4381 22.3658 31.4458 22.2742 31.5033C21.9728 31.6952 22.0377 32.0943 22.2819 32.2977C22.4574 32.4397 22.6596 32.551 22.8694 32.647C22.9 32.8043 22.9496 32.9501 23.1365 32.9847C23.2624 33.0077 23.4112 32.9962 23.499 32.8887C23.5028 32.8811 23.5066 32.8734 23.5142 32.8657C23.5753 32.8811 23.6401 32.9003 23.7012 32.9156C24.2201 33.0307 24.7809 33.0231 25.296 32.9003C25.6432 32.8158 26.0362 32.6316 26.3071 32.363C26.7955 32.2325 27.2648 32.0291 27.6272 31.8449C28.913 31.1772 29.8554 30.0489 30.401 28.7172C30.4086 28.7057 30.4163 28.698 30.4277 28.6865C30.5536 28.6865 30.6757 28.6865 30.8016 28.6788C31.0191 28.6596 31.0725 28.414 30.9084 28.2874L30.9046 28.2912ZM21.2899 16.1758C21.3929 16.1105 21.5035 16.0146 21.5417 15.8918C21.5646 15.8189 21.5722 15.7383 21.5684 15.6653C21.5684 15.6615 21.5684 15.6577 21.5684 15.6538C22.1331 15.5886 22.6825 15.4044 23.2586 15.4044C23.8614 15.4044 24.4604 15.5541 24.9679 15.8956C25.1892 16.0414 25.3723 16.2295 25.5211 16.4482C25.5097 16.4482 25.4982 16.4559 25.4868 16.4597C25.3227 16.5058 25.1548 16.5442 24.987 16.571C24.3116 16.6862 23.6211 16.713 22.9419 16.7783C22.9305 16.7783 22.9228 16.7859 22.9152 16.7898C22.6214 16.7054 22.3276 16.6094 22.0339 16.5173C21.7592 16.429 21.4921 16.3254 21.2288 16.2065C21.2517 16.1949 21.2746 16.1911 21.2937 16.1758H21.2899ZM28.562 29.1662C28.7413 28.9244 28.8977 28.675 29.0198 28.4064C29.0999 28.4371 29.1801 28.4601 29.264 28.4831C29.2106 28.5292 29.161 28.5791 29.1152 28.6289C28.9435 28.8093 28.7604 28.9858 28.604 29.1777C28.4857 29.3236 28.3674 29.4694 28.2529 29.6152C28.2148 29.6421 28.1766 29.6651 28.1423 29.692C28.108 29.7188 28.0736 29.7495 28.0393 29.7764C28.23 29.5884 28.4094 29.3888 28.5696 29.1701L28.562 29.1662ZM20.2902 13.1709C20.4009 12.5185 20.542 11.843 20.8015 11.2367C20.8892 11.0333 21.0266 10.6265 21.2441 10.5229C21.4387 10.4308 21.6332 10.6649 21.6981 10.8261C21.8164 11.1216 21.8049 11.49 21.824 11.8008C21.8431 12.0925 21.866 12.3842 21.8851 12.672C21.7935 12.8025 21.6752 12.9099 21.5913 13.0442C21.515 13.1632 21.4234 13.286 21.3624 13.4126C21.2288 13.6966 21.0915 13.9768 20.9236 14.2454C20.8892 14.303 20.8511 14.3567 20.8129 14.4143C20.8053 14.4258 20.7862 14.4488 20.7824 14.4565C20.7595 14.4833 20.7366 14.5102 20.7137 14.5371C20.687 14.5678 20.6565 14.5946 20.626 14.6215C20.6107 14.3222 20.4924 13.9998 20.4276 13.7465C20.3856 13.5892 20.336 13.4395 20.275 13.2898C20.2826 13.2476 20.2864 13.2092 20.294 13.167L20.2902 13.1709ZM4.43349 5.55696C4.48309 5.27681 4.61281 5.00818 4.7578 4.7664C4.91041 4.52079 5.11263 4.32124 5.29577 4.10249C5.39115 3.98736 5.5018 3.88758 5.60481 3.78013C5.7269 3.65348 5.82229 3.51917 5.96727 3.41171C6.05884 3.34647 6.03977 3.16226 5.90241 3.17378C5.74598 3.18529 5.58192 3.18913 5.42549 3.21599C5.4522 3.1968 5.47891 3.17762 5.50561 3.15843C5.74598 2.99341 7.67275 1.58499 7.82918 1.7692C7.94364 1.90735 8.15349 1.81525 8.20309 1.66942C8.2794 1.44299 8.23361 1.2089 8.10771 1.02085C8.98143 1.17052 9.85134 1.28949 10.7136 1.49672C10.8433 1.52742 11.0417 1.61953 11.1982 1.65023C11.16 1.75768 11.1257 1.87665 11.0952 1.92654C10.9921 2.11458 10.87 2.30263 10.7365 2.47149C10.2252 3.11621 9.59189 3.69954 8.91275 4.22913C8.74487 3.85304 8.2298 3.68419 7.80247 3.70337C7.22254 3.7264 6.71127 3.90677 6.26106 4.27902C6.16567 4.35961 6.24961 4.50544 6.35644 4.50928C6.6922 4.52847 7.02032 4.58987 7.35607 4.62825C7.44764 4.63976 7.53921 4.65895 7.63078 4.67814C7.52395 4.75105 7.41712 4.82397 7.30647 4.88921C7.01269 5.0619 6.70364 5.2039 6.38315 5.31903C6.05503 5.43799 5.71546 5.53394 5.37589 5.61453C5.21183 5.6529 5.04777 5.69128 4.88371 5.71814C4.76924 5.73733 4.7349 5.74501 4.57466 5.73733C4.54795 5.73733 4.53269 5.73733 4.52506 5.73733C4.50598 5.73733 4.48691 5.72966 4.46783 5.72582C4.45257 5.72198 4.44494 5.71814 4.44494 5.71814C4.42586 5.71047 4.42204 5.71047 4.44875 5.73349C4.41441 5.74501 4.4106 5.67977 4.42586 5.72582C4.4106 5.67209 4.42586 5.61069 4.43349 5.5608V5.55696ZM1.76272 6.8042C2.06032 6.08656 2.7242 5.41881 3.28506 4.89688C3.49872 4.70116 3.7162 4.51312 3.93749 4.32891C3.92604 4.34426 3.9146 4.36345 3.90315 4.3788C3.6666 4.73954 3.4682 5.17703 3.43004 5.61069C3.38426 6.11726 3.67804 6.54708 4.14352 6.71593C4.28087 6.76582 4.41823 6.78501 4.5594 6.79652C3.91841 7.04981 3.26217 7.24169 2.59066 7.33763C2.11755 7.40287 1.50327 7.43741 1.76272 6.80804V6.8042ZM16.0819 18.8813C15.5324 18.2289 14.9601 17.588 14.3993 16.9433C13.2508 15.6308 12.0566 14.349 10.6984 13.2515C9.93146 12.6298 9.11497 12.0771 8.26795 11.5744C8.03521 11.3902 7.79866 11.2098 7.55066 11.0525C6.82955 10.592 6.05503 10.2197 5.27669 9.87049C4.59755 9.56347 3.90315 9.29484 3.19731 9.04923C3.369 9.01853 3.53687 8.98399 3.70094 8.94561C4.81121 8.68465 5.88334 8.25099 6.89441 7.72524C7.93983 7.18029 8.90512 6.49335 9.83226 5.7642C10.7327 5.05423 11.6255 4.29821 12.3008 3.35799C12.4954 3.08551 12.6862 2.77466 12.8312 2.44846C12.9075 3.23134 13.2203 4.0219 13.4721 4.74722C13.8842 5.94456 14.4069 7.11505 14.9334 8.26635C15.3455 9.16436 15.7957 10.0432 16.2726 10.9105C16.5664 11.8239 17.1387 12.6221 17.6424 13.4318C17.9323 13.8962 18.2261 14.3605 18.5313 14.8211C18.1155 16.4444 17.2952 17.8643 16.3833 19.2574C16.2803 19.1346 16.1811 19.0118 16.078 18.889L16.0819 18.8813ZM19.2372 22.2239C19.0693 22.0397 18.9052 21.8516 18.7297 21.6751C18.4016 21.3451 17.8179 20.6581 17.2456 20.5085C17.154 20.3089 17.009 20.117 16.9022 19.9482C16.9136 19.9328 16.9251 19.9175 16.9327 19.9021C17.4592 19.173 17.9361 18.3786 18.3444 17.5765C18.6649 16.9433 18.9167 16.3024 19.0884 15.6308C19.7752 16.6171 20.5192 17.5688 21.3585 18.4131C21.4196 18.5935 21.515 18.77 21.576 18.9082C21.6256 19.0195 21.6828 19.1231 21.7401 19.2344C21.5722 19.3994 21.4158 19.5759 21.2632 19.7294C20.8892 20.1094 20.5306 20.5046 20.1872 20.9076C19.8515 21.299 19.5081 21.7135 19.2639 22.1702C19.2563 22.1894 19.2486 22.2047 19.2372 22.2239ZM27.383 29.5346C27.0587 29.8033 26.723 30.0719 26.3758 30.3098C26.0247 30.5516 25.647 30.7665 25.2693 30.9738C25.2197 31.0006 25.1701 31.0275 25.1205 31.0543C24.8458 31.1464 24.5673 31.227 24.2888 31.3076C24.1514 31.346 24.014 31.3767 23.8767 31.3997C23.7928 31.3345 23.7164 31.2654 23.6401 31.1925C23.5867 30.9507 23.5219 30.7205 23.4723 30.5247C23.3921 30.2062 23.2929 29.8992 23.1861 29.5922C23.1937 29.4847 23.1785 29.3773 23.1632 29.266C23.1518 29.1892 23.1441 29.1125 23.1365 29.0319C23.1747 29.005 23.2052 28.9628 23.1899 28.8976C22.816 27.0095 21.7248 25.3439 20.5878 23.828C20.3665 23.5325 20.1338 23.2524 19.8972 22.9722C19.9888 22.7995 20.0728 22.623 20.1834 22.458C20.4352 22.0742 20.7443 21.7212 21.0342 21.3643C21.3395 20.9958 21.6523 20.6313 21.9766 20.282C22.0186 20.2398 22.0606 20.1938 22.1063 20.1516C22.1483 20.4893 22.362 20.8308 22.507 21.1187C22.7969 21.6981 23.1327 22.2431 23.4799 22.7919C24.1018 23.7782 24.7847 24.7184 25.5364 25.6049C26.3452 26.5528 27.3296 27.5698 28.4742 28.1684C28.3369 28.3872 28.2033 28.6098 28.0545 28.817C27.9477 28.9667 27.8332 29.1125 27.715 29.2545C27.6043 29.3504 27.4937 29.4464 27.3792 29.5423L27.383 29.5346Z" fill="#1C002F"/>
</g>
<defs>
<clipPath id="clip0_7286_115">
<rect width="31" height="33" fill="white"/>
</clipPath>
</defs>
</svg>
