<svg width="365" height="29" viewBox="0 0 365 29" fill="none" xmlns="http://www.w3.org/2000/svg">
<path d="M359.508 14.9451C359.304 14.8914 359.1 14.8645 358.887 14.8287C361.725 13.7535 364.483 11.2716 363.995 7.95643C363.738 6.21822 362.576 4.7488 361.424 3.49441C360.306 2.26691 358.914 1.16484 357.247 0.896048C353.931 0.367415 350.987 3.23458 351.359 6.59453C351.554 8.30587 352.618 9.90073 354.25 10.501C355.846 11.0924 357.823 10.3846 358.515 8.76282C358.958 7.71452 357.433 6.80061 356.981 7.85788C356.538 8.91514 355.358 9.20186 354.409 8.60155C353.434 7.97435 353 6.74685 353.115 5.62686C353.399 2.9389 356.351 1.93539 358.471 3.26146C359.526 3.92449 360.404 4.92799 361.149 5.92254C361.947 6.98877 362.541 8.20731 362.16 9.56025C361.45 12.0511 358.754 13.2248 356.449 13.646C353.301 14.2194 350.073 13.6101 346.899 13.8341C346.757 13.8431 346.633 13.8879 346.517 13.9416H8.89041C8.60665 13.9058 8.32289 13.8968 8.03914 13.9148C7.22333 13.8341 6.42526 13.6997 5.6538 13.4668C4.62518 13.1532 3.80051 12.5618 3.27733 11.5941C2.78076 10.6713 2.56794 9.56025 2.55907 8.52091C2.53247 6.39741 3.57882 4.23808 5.79568 3.81697C6.88637 3.61089 8.21648 3.59297 9.31604 3.81697C10.2028 3.99617 11.1959 4.45312 11.524 5.37599C11.8699 6.32574 11.2935 7.39196 10.4688 7.86683C10.0254 8.11771 9.51113 8.22523 8.99682 8.22523C8.80173 8.22523 7.74651 8.14459 7.73764 7.92059C7.68444 6.77373 5.91095 6.76477 5.96416 7.92059C6.0351 9.54233 7.82632 10.062 9.17416 10.0082C10.5752 9.95449 11.9231 9.3273 12.7123 8.13563C13.4926 6.97085 13.6256 5.40287 12.9073 4.17536C12.1625 2.8941 10.7614 2.22211 9.36038 2.00707C7.85292 1.78308 6.02623 1.7562 4.58084 2.28483C3.2596 2.76866 2.1689 3.79905 1.53932 5.05343C0.235806 7.64284 0.5639 11.4508 2.54133 13.6191C3.17092 14.309 3.96899 14.757 4.838 15.0616C4.34142 15.42 3.88918 15.8411 3.49902 16.325C1.95609 18.2782 1.50385 20.9841 2.1689 23.3764C2.497 24.5412 3.09998 25.7149 3.97786 26.5571C4.94441 27.48 6.21245 27.8474 7.49822 28.0176C9.96337 28.3402 12.8009 27.6682 13.8384 25.1146C15.0089 22.2206 12.198 19.2638 9.28944 20.2404C8.20762 20.5988 8.67759 22.337 9.75941 21.9697C11.3822 21.4231 12.9428 23.018 12.1181 24.6308C11.2491 26.3242 9.08549 26.4855 7.43615 26.1987C6.53167 26.0464 5.6804 25.7776 5.04195 25.0788C4.46556 24.4516 4.08427 23.6273 3.86258 22.803C3.41034 21.1095 3.65863 19.219 4.64291 17.7585C5.46758 16.531 6.89524 15.6261 8.36723 15.6798C8.4293 15.6798 8.49137 15.6798 8.55345 15.6888C8.73966 15.7067 8.92588 15.7336 9.12096 15.7874C9.32491 15.8411 9.49339 15.8142 9.65301 15.7515C10.7348 15.7874 11.8078 15.7874 12.8896 15.7874C12.9872 15.7874 13.0758 15.7605 13.1556 15.7336H343.742C343.848 15.7874 343.981 15.8142 344.132 15.8142C347.369 15.7336 350.605 15.8142 353.833 16.0651C355.385 16.1906 356.963 16.2981 358.488 16.5669C359.845 16.8088 360.971 17.3195 361.326 18.771C361.61 19.9448 361.477 21.2708 361.326 22.4535C361.166 23.7079 360.803 25.0877 359.739 25.8672C357.912 27.1933 354.241 27.3456 352.813 25.3296C352.157 24.4068 351.953 22.8836 352.84 22.0324C353.39 21.5038 354.347 21.226 355.092 21.3873C355.757 21.5396 356.307 22.1668 355.864 22.8209C355.216 23.7706 356.75 24.6666 357.398 23.7258C358.364 22.3102 357.549 20.4286 356.05 19.8193C354.445 19.1652 352.343 19.7566 351.279 21.1185C350.286 22.3818 350.286 24.1649 350.933 25.5895C351.652 27.1754 353.195 28.161 354.862 28.4656C356.573 28.7792 358.444 28.5283 360.014 27.7578C361.601 26.9783 362.514 25.4461 362.887 23.7527C363.259 22.0682 363.436 20.106 363.064 18.4126C362.656 16.5579 361.308 15.3842 359.526 14.9451H359.508Z" fill="#1C002F"/>
</svg>
