<svg width="664" height="60" viewBox="0 0 664 60" fill="none" xmlns="http://www.w3.org/2000/svg">
<g clip-path="url(#clip0_7286_94)">
<path d="M648.924 29.9031C648.562 29.8083 648.2 29.7608 647.822 29.6976C652.859 27.8002 657.756 23.4204 656.89 17.5701C656.433 14.5027 654.371 11.9096 652.324 9.69596C650.341 7.52978 647.869 5.58496 644.909 5.11061C639.021 4.17773 633.794 9.23742 634.456 15.1668C634.802 18.1868 636.691 21.0012 639.588 22.0606C642.422 23.1042 645.932 21.855 647.16 18.9932C647.948 17.1432 645.24 15.5304 644.437 17.3962C643.65 19.2619 641.556 19.7679 639.871 18.7085C638.14 17.6017 637.368 15.4356 637.573 13.4591C638.077 8.71564 643.319 6.94475 647.082 9.28486C648.955 10.4549 650.514 12.2258 651.836 13.9809C653.253 15.8625 654.308 18.0128 653.631 20.4004C652.371 24.796 647.586 26.8673 643.492 27.6104C637.903 28.6224 632.173 27.5472 626.537 27.9425C626.285 27.9583 626.065 28.0374 625.86 28.1322H26.4365C25.9327 28.069 25.429 28.0532 24.9252 28.0848C23.4768 27.9425 22.0599 27.7053 20.6903 27.2942C18.864 26.7408 17.3999 25.6973 16.4711 23.9896C15.5894 22.361 15.2116 20.4004 15.1959 18.5662C15.1486 14.8189 17.0063 11.0083 20.9421 10.2652C22.8786 9.90151 25.24 9.86989 27.1922 10.2652C28.7665 10.5814 30.5298 11.3878 31.1123 13.0164C31.7263 14.6924 30.7029 16.574 29.2388 17.412C28.4517 17.8547 27.5386 18.0445 26.6255 18.0445C26.2791 18.0445 24.4057 17.9022 24.3899 17.5069C24.2955 15.483 21.1468 15.4672 21.2413 17.5069C21.3672 20.3688 24.5473 21.2858 26.9403 21.191C29.4277 21.0961 31.8207 19.9893 33.2219 17.8863C34.6073 15.8308 34.8434 13.0638 33.5682 10.8976C32.2458 8.63659 29.7584 7.45072 27.2709 7.07124C24.5946 6.67595 21.3515 6.62852 18.7853 7.5614C16.4396 8.41522 14.5032 10.2336 13.3854 12.4472C11.0711 17.0167 11.6536 23.7366 15.1644 27.563C16.2822 28.7805 17.699 29.5711 19.2419 30.1087C18.3603 30.7411 17.5574 31.4843 16.8647 32.3381C14.1253 35.785 13.3224 40.5601 14.5032 44.7818C15.0857 46.8373 16.1562 48.9086 17.7148 50.3949C19.4308 52.0235 21.6821 52.6718 23.9648 52.9722C28.3415 53.5414 33.3793 52.3555 35.2213 47.8492C37.2994 42.7421 32.3088 37.5243 27.145 39.2477C25.2243 39.8802 26.0587 42.9477 27.9794 42.2994C30.8604 41.3349 33.6312 44.1493 32.1671 46.9954C30.6242 49.9838 26.7829 50.2684 23.8546 49.7624C22.2488 49.4936 20.7375 49.0193 19.604 47.786C18.5807 46.6792 17.9037 45.2245 17.5101 43.7699C16.7072 40.7815 17.148 37.4452 18.8955 34.8679C20.3596 32.7018 22.8943 31.1048 25.5077 31.1997C25.6179 31.1997 25.7281 31.1997 25.8383 31.2155C26.1689 31.2471 26.4995 31.2945 26.8459 31.3894C27.208 31.4843 27.5071 31.4368 27.7904 31.3262C29.7111 31.3894 31.6161 31.3894 33.5367 31.3894C33.7099 31.3894 33.8673 31.342 34.009 31.2945H620.932C621.121 31.3894 621.357 31.4368 621.625 31.4368C627.371 31.2945 633.117 31.4368 638.848 31.8796C641.603 32.1009 644.405 32.2907 647.113 32.765C649.522 33.1919 651.521 34.0932 652.151 36.6547C652.655 38.726 652.419 41.0661 652.151 43.1532C651.868 45.3668 651.222 47.8018 649.333 49.1774C646.09 51.5175 639.572 51.7863 637.038 48.2287C635.873 46.6001 635.51 43.9122 637.085 42.4101C638.061 41.4772 639.761 40.987 641.084 41.2716C642.264 41.5404 643.24 42.6472 642.453 43.8015C641.304 45.4775 644.028 47.0587 645.177 45.3984C646.893 42.9002 645.444 39.5798 642.784 38.5046C639.934 37.3504 636.203 38.3939 634.314 40.7973C632.551 43.0267 632.551 46.1732 633.7 48.6872C634.975 51.4859 637.714 53.2252 640.674 53.7628C643.713 54.3162 647.035 53.8734 649.821 52.5136C652.639 51.138 654.261 48.4343 654.922 45.4459C655.583 42.4733 655.898 39.0106 655.237 36.0222C654.513 32.7492 652.12 30.6779 648.955 29.9031H648.924Z" fill="#1C002F"/>
</g>
<defs>
<clipPath id="clip0_7286_94">
<rect width="664" height="60" fill="white"/>
</clipPath>
</defs>
</svg>
