<svg width="315" height="98" viewBox="0 0 315 98" fill="none" xmlns="http://www.w3.org/2000/svg">
<g clip-path="url(#clip0_7382_16)">
<path d="M25.265 24.2534H300.41C308.073 24.2534 314.285 29.6827 314.285 36.3801V62.6441C314.285 69.3415 308.073 74.7708 300.41 74.7708H25.265C17.6017 74.7708 11.3892 69.3415 11.3892 62.6441V36.3801C11.3892 29.6827 17.6017 24.2534 25.265 24.2534Z" stroke="black" stroke-miterlimit="10"/>
<path d="M13.8758 3.98396C16.1766 0.424636 22.2356 -1.53611 26.0226 1.4737C27.9374 2.99734 28.8377 5.74489 27.1515 7.66817C25.6796 9.35416 22.793 9.87869 20.8638 8.50492C20.1493 7.99288 21.1639 7.11866 21.8784 7.61821C23.3503 8.66728 25.7653 7.7431 26.4084 6.31937C27.2372 4.47102 25.6367 2.36041 23.7218 1.62357C21.8069 0.886723 19.5776 1.27388 17.8485 2.18556C15.9051 3.20965 14.6475 4.88316 14.2045 6.81893C13.2328 11.0901 15.9765 15.3613 19.5348 18.1213C23.0502 20.8689 27.6088 22.4799 32.196 23.2168C35.9543 23.8163 39.7555 23.8662 43.571 23.6789C45.4859 24.0036 47.558 23.9411 49.4586 23.9536C50.5732 23.9536 51.7021 23.9786 52.8168 23.9287C52.7025 24.1035 52.531 24.2409 52.2452 24.2659C40.2842 25.3649 25.7367 26.2766 16.9054 17.5843C13.2899 14.025 10.9892 8.42999 13.8901 3.97147L13.8758 3.98396Z" fill="black"/>
<path d="M0.857429 53.4649C1.70055 52.6656 3.02956 52.5407 4.05845 53.1776C5.24454 53.902 5.43032 55.1883 5.20168 56.3498C5.04449 57.1366 3.65832 56.7994 3.8298 56.0126C3.94413 55.4256 3.91555 54.7262 3.38681 54.2891C2.9581 53.9394 2.38649 53.9145 1.95778 54.2766C1.02892 55.0634 1.54335 56.2749 2.10067 57.0866C2.6437 57.8984 3.31535 58.7976 4.20134 59.3471C5.33027 60.0465 6.60212 59.6718 7.43095 58.7601C8.20263 57.9109 8.63133 56.8119 9.03145 55.8003C9.46016 54.7512 9.80313 53.6647 10.0604 52.5782C10.4748 50.8422 10.6748 49.0813 10.6605 47.3203C10.9606 46.6459 11.0892 45.9716 11.1464 45.2222C11.1464 45.1348 11.1464 45.0599 11.1464 44.9724C11.5322 44.935 11.9752 45.1223 12.0038 45.5594C12.2039 48.1571 11.9753 50.7673 11.3179 53.315C10.9749 54.6263 10.5176 55.9002 9.96031 57.1491C9.48873 58.1607 8.98859 59.2347 8.05973 59.9965C7.17373 60.7334 5.93047 61.158 4.70151 60.9082C3.52971 60.6709 2.64371 59.8966 1.9292 59.0973C0.571624 57.5612 -1.01459 55.2008 0.843147 53.4524L0.857429 53.4649Z" fill="black"/>
<path d="M69.0505 74.2587C69.2792 74.2587 69.4935 74.2338 69.7079 74.1963C74.9953 74.9082 80.5256 76.1321 84.8841 78.9171C88.8568 81.4398 91.9006 85.3988 91.6005 89.8323C91.3433 93.7788 87.8136 98.6994 82.5977 97.9251C80.2827 97.5754 78.1248 95.6022 78.6107 93.4541C79.0537 91.4809 81.6117 90.2445 83.698 91.1062C84.5269 91.4559 83.7981 92.5299 82.9835 92.1802C82.1833 91.8555 81.2973 92.1428 80.6971 92.6548C79.9397 93.3042 79.7968 94.2159 80.2541 95.0402C81.2687 96.8635 83.8695 97.0759 85.7558 96.2641C89.557 94.6156 90.8432 90.3818 89.8714 86.9849C87.5135 78.7422 76.1814 76.1695 67.8359 75.2079C62.1912 74.5585 56.4322 74.6084 50.8019 75.3578C50.1302 75.4452 49.7587 74.8082 49.973 74.4336C56.3322 74.8207 62.6771 74.2962 69.0363 74.2712L69.0505 74.2587Z" fill="black"/>
</g>
<defs>
<clipPath id="clip0_7382_16">
<rect width="315" height="98" fill="white" transform="matrix(-1 0 0 1 315 0)"/>
</clipPath>
</defs>
</svg>
