<svg width="400" height="204" viewBox="0 0 400 204" fill="none" xmlns="http://www.w3.org/2000/svg">
<g clip-path="url(#clip0_7278_826)">
<path d="M395.993 107.658C400.577 119.91 397.329 133.387 390.037 143.874C388.882 145.532 387.601 147.063 386.265 148.559C390.272 142.991 393.52 136.847 395.199 130.162C396.408 125.387 396.607 120.595 396.029 115.838C396.029 99.964 388.684 84.7748 379.353 72.1621C374.155 65.1531 368.235 58.6306 361.828 52.5766C367.928 55.6757 373.92 58.991 379.75 62.5585C383.973 65.1351 388.124 67.8558 392.185 70.6847C394.369 72.1982 396.733 73.7297 398.141 76.054C399.386 78.1081 399.729 81.5135 397.491 83.0811C395.74 84.3063 392.528 83.4955 392.347 81.1351C392.329 80.9009 391.95 80.8829 391.968 81.1351C392.203 84.018 396.029 85.1712 398.159 83.4594C401.732 80.5946 399.404 75.4414 396.715 72.9549C394.91 71.2973 392.799 69.9459 390.777 68.5766C388.629 67.1171 386.482 65.6937 384.298 64.3063C379.876 61.4775 375.364 58.8108 370.762 56.2522C368.073 54.7567 365.347 53.3333 362.622 51.9459C364.012 51.8198 365.383 51.5135 366.647 50.8829C367.856 50.2883 368.795 49.4054 369.553 48.3063C369.625 48.2162 369.589 48.054 369.517 47.982C363.994 42.8288 356.991 39.8739 349.79 37.8739C346.866 37.0631 343.906 36.3964 340.946 35.7658C340.387 35.3874 339.863 34.991 339.304 34.6126C330.623 28.7568 321.418 23.6757 311.835 19.4414C311.672 19.3694 311.546 19.6036 311.708 19.6757C321.4 24.0901 330.695 29.4054 339.466 35.4595C334.648 34.4685 329.811 33.5856 324.992 32.5766C318.567 31.2432 312.178 29.7838 305.789 28.2883C296.241 23.6216 286.567 19.2252 276.424 15.9279C263.448 11.7297 249.948 9.8018 236.322 9.8018C224.482 9.8018 212.66 11.1351 200.983 13.0991C199.919 13.0631 198.854 13.027 197.789 12.991C194.775 12.3964 191.761 11.8018 188.747 11.2432C187.917 11.0811 187.068 10.9369 186.238 10.7928C186.599 10.7387 186.942 10.6847 187.303 10.6486C187.411 10.6486 187.429 10.4504 187.303 10.4685C186.743 10.5405 186.184 10.6126 185.624 10.6847C175.391 8.82882 165.068 7.24324 154.708 6.19819C160.754 4.28828 166.854 2.61261 173.045 1.22522C174.705 0.846842 176.348 0.5045 178.008 0.162158C178.116 0.14414 178.08 -0.0360405 177.954 -0.0180225C169.814 1.56756 161.765 3.6036 153.86 6.09009C146.099 5.33333 138.32 4.86486 130.506 4.82882C128.051 4.82882 125.578 4.84684 123.124 4.91891C122.925 4.91891 122.925 5.22522 123.124 5.2072C132.906 5.04504 142.67 5.56756 152.38 6.54054C147.796 8.01801 143.266 9.63963 138.79 11.4054C126.535 16.2703 114.713 22.2162 103.506 29.1351C96.1419 32.1622 88.9588 35.6036 82.0464 39.5495C80.0791 40.6667 78.1299 41.8378 76.2168 43.027C76.1086 43.0991 76.2168 43.2793 76.3251 43.2072C84.0678 38.5045 92.1714 34.4324 100.51 30.9189C87.8579 38.1622 76.0544 46.8649 65.406 56.8108C63.1861 58.8829 61.0384 61.027 58.9087 63.2072C46.5097 68.1622 38.6407 80.8468 33.0097 92.4144C32.9916 92.4504 32.9736 92.5045 32.9556 92.5405C30.14 96.7387 27.9382 101.333 26.0973 106.036C26.0612 105.982 25.989 105.964 25.9709 106.036C25.3212 107.55 24.8159 109.081 24.4008 110.631C23.354 111.604 22.3974 112.649 21.5672 113.766C16.4596 120.649 15.864 129.477 17.5966 137.766C16.622 144.252 16.2611 150.811 16.8566 157.297C14.8714 152.649 13.6802 147.694 13.3192 142.649C12.8139 135.369 13.8607 128.072 15.4308 120.973C18.0117 109.279 21.7116 96.7928 30.2844 87.982C31.2951 86.9369 32.3239 85.9459 33.4428 85.009C33.4789 84.973 33.4428 84.9009 33.3887 84.9369C23.6788 92.1802 19.1127 104.108 16.1167 115.405C12.6334 128.559 10.4496 142.739 15.3947 155.802C15.9001 157.135 16.4957 158.45 17.1274 159.73C17.5244 162.793 18.1561 165.838 19.0585 168.847C19.4556 170.144 19.8887 171.423 20.3941 172.703C19.8887 172.468 19.3653 172.252 18.878 172C18.7156 171.387 18.5893 170.775 18.4629 170.144C18.4268 170 18.2103 170.054 18.2463 170.198C18.3546 170.757 18.481 171.315 18.6254 171.874C17.0191 171.099 15.4308 170.324 13.8607 169.495C13.7524 169.441 13.6621 169.604 13.7704 169.658C15.3947 170.541 17.0371 171.369 18.6976 172.18C19.257 174.378 20.0512 176.504 21.0077 178.541C12.3266 173.099 4.81856 165.73 0.216299 156.505C0.162155 156.396 -0.000278171 156.504 0.0538661 156.613C4.69223 166.252 12.471 174.036 21.5311 179.604C24.7798 185.874 29.8874 191.135 36.2223 194.468C36.2944 194.504 36.3486 194.414 36.2764 194.378C30.1581 191.063 25.1588 185.928 21.9282 179.838C22.8486 180.396 23.8052 180.919 24.7617 181.423C28.6601 187.64 33.9662 192.937 40.6801 196.054C50.3359 200.559 62.5003 200.559 71.5063 194.541C85.7823 196.649 100.275 196 114.623 195.027C116.446 194.901 118.269 194.775 120.092 194.631C120.236 194.631 120.236 194.396 120.092 194.414C105.924 195.135 91.648 195.892 77.4802 194.45C75.8198 194.288 74.1774 194.072 72.535 193.838C72.9682 193.514 73.4013 193.189 73.7984 192.829C80.8913 193.189 88.0203 193.225 95.0771 193.027C102.892 192.811 110.689 192.198 118.467 191.315C121.319 191.081 124.171 190.829 127.004 190.577C128.737 190.432 130.469 190.288 132.184 190.108C133.086 190.018 134.007 189.946 134.909 189.856C133.483 190.468 132.04 191.063 130.614 191.694C122.691 195.261 114.822 199.117 107.368 203.604C107.187 203.712 107.35 204 107.53 203.892C114.425 200.468 121.283 196.973 128.268 193.73C131.354 192.306 134.476 190.937 137.616 189.604C144.944 188.955 152.29 188.342 159.599 187.477C159.743 187.477 159.761 187.225 159.599 187.243C156.459 187.405 153.336 187.586 150.214 187.802C155.304 186.991 160.375 186.072 165.411 185.027C175.481 182.937 185.444 180.378 195.316 177.513C198.222 176.991 201.128 176.45 204.015 175.874C205.441 175.586 206.867 175.279 208.311 174.973C221.955 174.27 235.636 173.874 249.334 173.892C256.914 173.892 264.477 174.09 272.057 174.18C272.183 174.18 272.165 174 272.057 174C258.503 173.009 244.858 172.937 231.286 173.153C225.637 173.243 219.988 173.423 214.357 173.64C219.88 172.378 225.384 171.009 230.871 169.514C231.737 169.532 232.604 169.55 233.47 169.568C255.561 170.09 277.634 171.135 299.688 172.631C309.055 173.261 318.404 173.964 327.753 174.685C326.941 174.901 326.147 175.153 325.353 175.369C325.226 175.405 325.281 175.586 325.407 175.568C326.454 175.297 327.519 175.027 328.565 174.757C329.522 174.829 330.478 174.901 331.453 174.973C321.996 176.234 312.43 176.793 302.883 176.685C295.537 176.595 288.192 176.072 280.9 175.153C280.828 175.153 280.81 175.279 280.882 175.297C299.057 178.18 317.7 178.144 335.893 175.315C336.254 175.351 336.615 175.369 336.976 175.405C337.138 175.405 337.174 175.225 337.066 175.135C338.402 174.919 339.737 174.649 341.073 174.396C330.117 177.387 318.801 179.117 307.449 179.459C300.031 179.676 292.614 179.279 285.25 178.378C285.196 178.378 285.178 178.486 285.25 178.486C298.299 180.27 311.654 180.09 324.685 178.162C329.197 177.495 333.673 176.613 338.095 175.532C337.246 176.613 336.362 177.676 335.478 178.721C335.333 178.883 335.406 179.225 335.676 179.207C339.358 178.901 342.878 177.55 346.198 176.018C349.555 174.468 352.822 172.721 356.107 171.009C356.125 171.009 356.161 170.991 356.179 170.973C357.298 170.667 358.435 170.36 359.554 170.036C362.658 169.117 365.726 168.09 368.777 166.973C368.452 167.315 368.127 167.64 367.802 167.982C367.694 168.09 367.856 168.252 367.964 168.144C368.506 167.676 369.029 167.171 369.571 166.685C373.18 165.351 376.754 163.892 380.255 162.27C380.4 162.198 380.291 161.946 380.147 162.018C377.115 163.225 374.047 164.342 370.96 165.423C373 163.532 375.003 161.586 376.934 159.568C378.847 158.414 380.742 157.225 382.583 155.964C382.674 155.91 382.583 155.784 382.511 155.838C380.887 156.883 379.244 157.892 377.584 158.883C378.92 157.477 380.219 156.054 381.482 154.577C382.926 153.279 384.334 151.964 385.651 150.559C387.691 149.063 389.676 147.514 391.607 145.874C391.734 145.766 391.553 145.604 391.445 145.712C390.091 146.775 388.684 147.748 387.294 148.757C392.383 142.901 396.282 136.108 398.105 128.324C399.729 121.333 399.512 114.018 396.372 107.477C396.282 107.297 395.975 107.423 396.047 107.622L395.993 107.658ZM390.452 92.8829C392.943 98.9009 394.603 105.171 395.271 111.586C394.928 110.036 394.513 108.468 394.008 106.937C392.997 103.874 391.77 100.865 390.38 97.9099C389.73 93.5495 388.593 89.2793 386.807 85.2973C386.59 84.8288 386.355 84.3603 386.121 83.9099C387.727 86.8108 389.189 89.8018 390.47 92.8829H390.452ZM343.148 36.9369C349.032 38.2162 354.916 39.8018 360.312 42.4685C363.073 43.8378 365.744 45.4955 368.091 47.4775C368.777 48.054 369.065 48.1802 368.361 48.973C367.964 49.4234 367.495 49.8018 366.99 50.1441C365.835 50.8829 364.499 51.2432 363.146 51.4054C362.658 51.4595 362.171 51.4594 361.666 51.4775C360.889 51.0811 360.113 50.7027 359.337 50.3243C355.944 47.2432 352.407 44.3243 348.797 41.5495C349.591 41.6937 350.385 41.8378 351.18 42C351.414 42.036 351.504 41.7117 351.27 41.6396C350.115 41.3333 348.942 41.0631 347.787 40.7568C346 39.3874 344.177 38.054 342.354 36.7567C342.607 36.8108 342.878 36.8649 343.13 36.9189L343.148 36.9369ZM353.833 48.7027C355.71 49.5676 357.551 50.4685 359.41 51.3874C354.988 50.9189 350.566 49.027 346.577 47.4775C338.167 44.2342 330.045 40.3604 321.978 36.3423C332.843 39.7838 343.491 43.8919 353.833 48.6847V48.7027ZM328.728 37.6396C334.323 38.7567 339.918 39.9099 345.531 40.9189C346.162 41.027 346.776 41.1531 347.408 41.2793C350.638 43.7838 353.797 46.3784 356.847 49.0811C347.714 44.7207 338.293 40.9189 328.728 37.6396ZM323.205 32.8468C329.107 34.1081 335.045 35.2252 340.946 36.4865C342.733 37.7477 344.502 39.0631 346.234 40.3784C337.03 38.054 327.771 36.036 318.44 34.3243C317.971 34.1802 317.484 34.018 317.015 33.8739C314.073 32.3964 311.131 30.9189 308.189 29.4595C313.188 30.6306 318.188 31.7658 323.223 32.8468H323.205ZM283.571 30.5766C288.192 32.7207 292.668 35.1892 296.945 37.964C287.145 34.4504 277.2 31.4054 267.166 28.6667C272.418 29.0991 277.67 29.6576 282.904 30.2703C283.12 30.3784 283.355 30.4685 283.571 30.5586V30.5766ZM260.903 27.027C255.832 25.7117 250.76 24.4685 245.652 23.2793C253.63 23.5495 261.607 24.1622 269.53 25.0991C272.725 26.1622 275.901 27.3333 279.023 28.6126C272.995 27.964 266.949 27.4234 260.903 27.027ZM171.222 26.9369C153.445 31.2432 135.776 36.5045 118.792 43.4414C118.125 43.5495 117.457 43.6577 116.789 43.7477C116.121 39.5856 121.68 37.1531 124.676 35.6577C128.881 33.5676 133.213 31.6937 137.598 30.018C146.153 26.7387 154.979 24.1802 163.858 21.9459C170.446 20.2883 177.07 18.7207 183.747 17.2973C193.421 16.5405 203.167 16.4144 212.877 16.9369C216.775 17.7658 220.656 18.6126 224.554 19.4595C207.842 20 191.328 23.0631 175.409 28.1802C174.074 28.6126 172.756 29.0811 171.439 29.5315C167.522 30.4324 163.624 31.3874 159.761 32.4504C148.391 35.5856 137.292 39.6937 125.759 42.2162C125.434 42.2883 125.109 42.3423 124.802 42.4144C127.889 41.2252 130.993 40.0541 134.097 38.9549C146.352 34.6126 158.823 30.9549 171.312 27.3153C171.529 27.2432 171.439 26.9189 171.222 26.973V26.9369ZM116.067 44.3063C116.067 44.3063 116.139 44.4685 116.229 44.5225C111.555 46.4865 106.935 48.5405 102.387 50.7928C88.7422 57.5135 75.7295 65.7477 64.1427 75.6036C62.6266 75.4414 61.1286 75.4054 59.6487 75.4955C60.533 74.5405 61.3993 73.5856 62.3018 72.6486C72.2282 62.2522 83.1654 52.8468 94.8786 44.5225C98.7409 42.6667 102.711 41.0631 106.772 39.7117C108.162 39.2613 109.552 38.8288 110.977 38.4324C111.158 38.3784 111.086 38.1081 110.905 38.1441C106.483 39.2432 102.17 40.6486 97.9828 42.3423C98.4701 42 98.9755 41.6757 99.4628 41.3333C101.683 40.1802 103.903 39.027 106.141 37.9459C117.962 32.3063 130.289 27.7477 142.941 24.3063C153.95 21.2973 165.194 19.1892 176.546 17.9279C168.84 19.6577 161.187 21.5495 153.625 23.7477C147.164 25.6216 140.757 27.7477 134.512 30.2883C131.444 31.5315 128.412 32.8649 125.434 34.3243C122.889 35.5676 120.182 36.7567 118.125 38.7207C116.554 40.2162 115.544 42.1081 116.067 44.3063ZM36.1862 104.757C35.8071 104.811 35.4462 104.883 35.0672 104.955C37.1247 99.1531 39.7416 93.5315 42.864 88.2162C46.0946 84.5045 49.4876 80.9189 52.9528 77.4234C53.2958 77.2973 53.6567 77.2072 53.9996 77.1171C53.4762 77.8198 52.9348 78.5225 52.4294 79.2613C49.3974 83.5856 46.7082 88.1441 44.3619 92.8829C41.5103 96.7567 38.749 100.703 36.1681 104.775L36.1862 104.757ZM42.9001 95.9459C42.1781 97.5495 41.4923 99.1531 40.8426 100.793C40.3011 101.64 39.7777 102.523 39.3807 103.441C39.2363 103.802 39.0919 104.162 38.9836 104.523C38.2617 104.523 37.5398 104.559 36.8359 104.667C38.7851 101.712 40.8245 98.8288 42.9001 95.9639V95.9459ZM35.9515 105.117C35.2477 106.216 34.5438 107.315 33.876 108.432C34.2009 107.387 34.5799 106.36 34.9408 105.315C35.2657 105.225 35.6086 105.171 35.9515 105.117ZM44.3259 85.8378C45.7336 83.5856 47.2135 81.3874 48.7476 79.2252C49.6861 78.7567 50.6246 78.3243 51.5992 77.9459C49.1086 80.5225 46.6721 83.1531 44.3259 85.8558V85.8378ZM56.2376 75.9459C58.5478 72.9369 61.0384 70.0721 63.6554 67.3153C69.8459 61.8198 76.289 56.6306 83.039 51.8378C85.4755 50.1081 87.9481 48.4324 90.4387 46.7928C90.4568 46.7928 90.4929 46.7748 90.5109 46.7568C88.3632 48.3423 86.2516 49.9459 84.158 51.6036C74.9896 58.8829 66.4167 66.9369 58.5297 75.6036C57.7536 75.6937 56.9956 75.8018 56.2376 75.9459ZM58.0244 76.1441C57.5551 76.6666 57.1039 77.2252 56.6166 77.7477C56.2917 77.4054 56.021 77.027 55.8225 76.5946C56.5444 76.4144 57.2844 76.2522 58.0244 76.1441ZM59.775 69.9279C59.1253 70.5225 58.4575 71.0991 57.8258 71.7117C57.0317 72.4685 56.2737 73.2612 55.4976 74.036C55.7503 72.6486 56.5805 71.3513 57.4649 70.2883C59.5043 67.8378 62.2115 65.8919 64.6841 63.9099C66.0016 62.8649 67.3552 61.8739 68.6908 60.8649C65.5504 63.7117 62.5544 66.7387 59.757 69.9279H59.775ZM55.8586 77.7477C56.003 77.8919 56.1474 78.018 56.2917 78.1441C53.6206 81.1892 51.0036 84.2883 48.495 87.4775C49.4154 85.8919 50.372 84.3063 51.3646 82.7748C52.628 80.8288 53.9816 78.9549 55.3713 77.0991C55.5157 77.3153 55.6601 77.5495 55.8586 77.7658V77.7477ZM46.4014 91.2613C49.7403 86.9009 53.2777 82.6847 56.9234 78.5766C57.7897 79.0991 58.8004 79.3513 59.8292 79.4054C56.5264 82.4324 53.3319 85.5856 50.3178 88.9189C48.2242 91.2252 46.2209 93.6216 44.3078 96.0901C44.0912 96.3604 43.8746 96.6486 43.6581 96.9189C44.5244 95.009 45.4268 93.1171 46.4014 91.2432V91.2613ZM57.9883 78.7027C57.6995 78.5946 57.4649 78.4144 57.2122 78.2522C57.88 77.4955 58.5297 76.7207 59.1975 75.982C60.7316 75.8018 62.3018 75.7657 63.8539 75.8558C62.5905 76.9369 61.3272 78.054 60.0999 79.1712C59.378 79.1171 58.6741 78.973 57.9883 78.7027ZM237.188 22.2162C221.54 22.1441 205.874 23.3333 190.425 25.7838C186.743 26.3604 183.08 27.045 179.416 27.7838C193.475 23.5856 207.95 20.8829 222.641 20.2522C224.374 20.1802 226.088 20.1622 227.821 20.1441C230.943 20.8288 234.084 21.5135 237.206 22.2162H237.188ZM231.737 20.1441C242.332 20.2522 252.926 21.2973 263.358 23.1712C264.007 23.3694 264.675 23.5495 265.325 23.7477C261.029 23.3153 256.734 22.9369 252.42 22.7027C248.721 22.4865 245.021 22.3784 241.321 22.3063C238.126 21.5676 234.932 20.8829 231.719 20.1622L231.737 20.1441ZM171.24 30.4144C173.875 29.8018 176.51 29.2252 179.145 28.7027C198.583 24.8108 218.418 22.9549 238.235 23.1171C239.281 23.1171 240.31 23.1712 241.357 23.1892C246.356 24.3423 251.356 25.5315 256.337 26.7928C242.711 26.054 229.03 25.9279 215.404 26.6847C200.893 27.4775 186.419 29.2252 172.161 32.018C167.919 32.8468 163.696 33.8018 159.509 34.8288C162.956 33.4234 166.421 32.0901 169.941 30.8468C170.374 30.7027 170.807 30.5586 171.24 30.4144ZM273.916 25.6396C275.017 25.7838 276.118 25.9459 277.219 26.1081C277.345 26.1441 277.489 26.1622 277.616 26.1982C282.272 27.3513 286.874 28.6486 291.44 30.0721C288.318 29.6577 285.196 29.2613 282.073 28.9189C279.402 27.7297 276.677 26.6306 273.934 25.6396H273.916ZM284.293 27.3333C283.932 27.2252 283.589 27.1531 283.229 27.045C288.047 27.8378 292.83 28.7387 297.595 29.8018C301.746 30.7207 305.879 31.7658 309.976 32.8649C308.64 32.6486 307.323 32.3964 305.987 32.1802C302.089 31.5676 298.19 30.991 294.274 30.4504C290.953 29.3513 287.632 28.2883 284.275 27.3333H284.293ZM275.955 16.7387C284.997 19.6577 293.696 23.4234 302.269 27.4595C291.549 24.8829 280.882 22.1441 270.27 19.1892C260.993 16.6126 251.789 13.8378 242.62 10.9369C253.9 11.4414 265.09 13.2432 275.955 16.7387ZM220.457 11.4775C227.604 10.8468 234.769 10.6126 241.898 10.9009C262.636 17.6937 283.644 23.6216 304.886 28.6847C307.702 30.036 310.517 31.4054 313.315 32.7748C300.645 29.2252 287.723 26.5946 274.674 24.8288C271.407 24.054 268.122 23.3333 264.838 22.7027C257.023 20.3964 249.045 18.5946 241.068 17.2252C229.265 15.1892 217.335 13.8739 205.387 13.2793C210.404 12.5225 215.422 11.9099 220.457 11.4595V11.4775ZM232.297 16.7387C240.346 17.8919 248.414 19.3513 256.337 21.2973C247.313 19.982 238.217 19.2793 229.084 19.3153C228.759 19.3153 228.453 19.3333 228.128 19.3333C224.987 18.6306 221.829 17.964 218.67 17.2793C219.284 17.3333 219.916 17.3694 220.529 17.4234C222.172 17.5676 223.814 17.7297 225.457 17.9099C225.619 17.9099 225.655 17.6577 225.493 17.6396C221.919 17.1351 218.346 16.7387 214.754 16.4504C210.82 15.6216 206.903 14.7928 202.969 14.018C212.787 14.4504 222.569 15.3513 232.297 16.7568V16.7387ZM199.72 14.1982C202.698 14.7928 205.676 15.4234 208.654 16.036C202.608 15.7117 196.562 15.6577 190.515 15.8919C193.584 15.2973 196.652 14.7207 199.72 14.1982ZM194.287 14.2883C191.111 14.8829 187.935 15.5135 184.776 16.1622C171.276 17.0631 157.866 19.2973 144.782 22.7027C133.917 25.5315 123.286 29.2252 112.999 33.6937C113.288 33.5495 113.576 33.3874 113.883 33.2252C124.694 27.8018 135.938 23.2072 147.453 19.5315C152.578 17.8919 157.776 16.4504 162.992 15.1712C168.082 14.6306 173.171 14.2162 178.261 13.982C184.487 13.6937 190.714 13.6396 196.941 13.7838C196.056 13.9459 195.172 14.0901 194.287 14.2703V14.2883ZM193.205 12.9189C190.913 12.9189 188.62 12.9189 186.328 12.9549C180.535 13.0631 174.723 13.3694 168.948 13.8559C173.424 12.8829 177.918 12.018 182.448 11.3333C182.863 11.2613 183.296 11.2252 183.711 11.1531C186.87 11.7297 190.028 12.3063 193.187 12.9189H193.205ZM134.62 13.6216C140.703 11.045 146.911 8.72072 153.21 6.68468C162.776 7.67567 172.305 9.11711 181.762 10.7928C182.195 10.8649 182.61 10.9549 183.044 11.027C177.25 11.8378 171.475 12.8649 165.771 14.1261C154.491 15.2252 143.284 17.0811 132.274 19.8018C123.521 21.964 114.894 24.6847 106.52 27.964C115.544 22.5405 124.929 17.7297 134.62 13.6216ZM103.758 29.6216C110.851 26.7748 118.125 24.3063 125.488 22.2522C136.552 19.1892 147.868 17.009 159.256 15.6216C156.765 16.2522 154.275 16.9009 151.784 17.6216C140.107 21.009 128.719 25.3513 117.746 30.5586C115.814 31.4775 113.919 32.4504 112.024 33.4234C118.106 29.8739 124.333 26.5946 130.704 23.5856C130.848 23.5135 130.722 23.2973 130.578 23.3694C120.561 27.7477 110.941 33.009 101.755 38.9549C101.683 38.991 101.629 39.045 101.556 39.0811C91.0163 44.3964 80.8913 50.5766 71.398 57.6036C68.7088 59.5856 66.0738 61.6396 63.4929 63.7477C60.9662 65.8198 58.1868 67.8378 56.2917 70.5405C55.4254 71.7838 54.7577 73.3153 54.7396 74.7928C54.0357 75.4955 53.3319 76.1802 52.646 76.8829C51.6353 77.2252 50.6246 77.5856 49.632 78.036C53.7289 72.4144 58.259 67.1171 63.0959 62.1081C63.1139 62.1081 63.15 62.1081 63.1681 62.0901C63.2222 62.0901 63.2403 62.018 63.2403 61.964C64.7202 60.4504 66.2182 58.9369 67.7523 57.4775C77.4441 48.1802 88.0383 39.8378 99.2823 32.4865C100.762 31.5135 102.26 30.5766 103.758 29.6396V29.6216ZM82.8585 42.8468C88.3632 38.7387 94.1025 34.9369 100.022 31.4595C89.5544 38.1982 79.6099 45.7477 70.4234 54.1441C67.5898 56.7387 64.8285 59.4054 62.1574 62.1802C61.4174 62.3784 60.6774 62.5946 59.9735 62.8468C67.0665 55.6036 74.7008 48.9189 82.8405 42.8468H82.8585ZM59.4321 63.3874C60.2082 63.0631 61.0203 62.7748 61.8325 62.5225C56.9415 67.6036 52.3573 72.991 48.2423 78.7027C46.8706 79.3874 45.5351 80.1802 44.2537 81.045C45.0478 80.018 45.7877 78.9549 46.5999 77.9459C50.6427 72.8829 54.9201 68.018 59.4321 63.3874ZM43.9288 75.7658C47.8272 70.8468 52.6099 66.5225 58.2951 63.8919C52.7543 69.6396 47.5745 75.7117 42.7918 82.0901C40.1026 84.0901 37.6661 86.4324 35.5906 88.991C35.5364 89.063 35.4823 89.1171 35.4462 89.1892C37.9007 84.4865 40.644 79.9279 43.9288 75.7838V75.7658ZM32.3058 95.5676C32.5585 95.027 32.8292 94.5045 33.0819 93.964C35.2838 90.4685 37.9188 87.2612 40.9869 84.5225C38.2978 88.2342 35.7169 92.036 33.2985 95.9279C31.9449 98.1261 30.6273 100.342 29.364 102.577C30.2844 100.216 31.259 97.8739 32.3058 95.5495V95.5676ZM28.0645 106.018C32.4141 98.054 37.269 90.3964 42.6835 83.0991C44.1634 81.9279 45.7517 80.8468 47.4121 79.9099C46.4736 81.2432 45.5351 82.5585 44.6688 83.9279C43.6039 85.6036 42.5752 87.3153 41.6006 89.045C38.9295 92.2162 36.3125 95.4414 33.8219 98.7748C32.9014 100 32.017 101.225 31.1146 102.45C31.0064 102.613 31.259 102.757 31.3673 102.595C34.255 98.6486 37.3232 94.8288 40.4636 91.0811C38.009 95.6036 35.9154 100.306 34.255 105.171C31.8005 105.838 29.4362 106.937 27.3065 108.378C27.5772 107.586 27.8118 106.793 28.0826 106.018H28.0645ZM25.0685 111.82C25.0685 111.82 25.1227 111.676 25.1407 111.604C25.3753 111.135 25.5919 110.685 25.8266 110.216C25.8446 110.216 25.8626 110.18 25.8807 110.162C24.9061 113.171 24.0578 116.198 23.2998 119.261C23.3359 118.468 23.3901 117.676 23.4803 116.883C23.9856 115.189 24.509 113.495 25.0685 111.82ZM19.1668 119.658C20.1775 116.847 21.856 114.216 23.9856 111.982C23.6608 112.973 23.3359 113.982 23.0291 114.973C22.0725 117.027 21.1521 119.081 20.3038 121.171C20.2497 121.297 20.4663 121.387 20.5204 121.261C21.0619 120.036 21.6574 118.829 22.235 117.604C21.3506 120.649 20.5204 123.73 19.7804 126.793C19.0946 129.658 18.499 132.559 17.9937 135.477C17.1274 130.18 17.3439 124.793 19.1849 119.658H19.1668ZM23.1013 118.216C23.0291 119.063 22.9569 119.892 22.9389 120.739C21.3145 127.622 20.2136 134.631 19.7082 141.694C19.7082 141.874 19.6902 142.054 19.6721 142.234C19.257 141.009 18.8961 139.748 18.5893 138.486C18.8961 136.288 19.257 134.09 19.6902 131.928C20.6106 127.315 21.7838 122.739 23.0832 118.216H23.1013ZM18.8419 162.955C22.0184 168.36 26.1875 173.171 30.9703 177.261C27.9201 176.072 24.9241 174.775 21.9462 173.423C21.7116 172.847 21.477 172.27 21.2604 171.694C20.1955 168.829 19.4195 165.91 18.86 162.955H18.8419ZM21.3506 178.829C20.3399 176.757 19.5278 174.595 18.9322 172.36C19.4556 172.613 19.979 172.847 20.5024 173.099C21.495 175.64 22.7042 178.108 24.112 180.468C23.1915 179.946 22.2711 179.405 21.3506 178.847V178.829ZM22.0725 173.82C25.3032 175.333 28.5699 176.775 31.8907 178.072C33.2804 179.225 34.7062 180.342 36.1862 181.369C41.1133 184.811 46.4194 187.514 51.9782 189.622C50.9134 189.495 49.8486 189.351 48.7837 189.207C40.9689 187.622 33.3346 185.243 26.2236 181.604C24.5993 179.135 23.2096 176.523 22.0545 173.82H22.0725ZM44.1995 196.36C37.0525 193.802 31.241 188.775 26.9455 182.631C36.0057 187.135 45.9321 189.784 55.9308 191.243C56.3098 191.297 56.6707 191.333 57.0498 191.387C61.5076 192.757 66.0738 193.784 70.6941 194.504C62.8432 199.153 52.7904 199.441 44.2176 196.378L44.1995 196.36ZM71.8311 193.784C68.8352 193.333 65.8753 192.793 62.9334 192.09C66.3265 192.45 69.7195 192.667 73.1306 192.847C72.6975 193.171 72.2823 193.477 71.8311 193.784ZM75.1159 191.658C75.1159 191.658 75.1881 191.586 75.2242 191.55C75.3866 191.387 75.152 191.171 74.9896 191.315C74.8632 191.423 74.7369 191.532 74.6106 191.64C73.9247 191.604 73.2389 191.604 72.5531 191.568C67.0123 191.261 61.4896 190.757 55.9849 190.108C50.8232 188.432 45.8238 186.306 41.0952 183.514C38.8031 182.162 36.6013 180.667 34.4716 179.063C51.0217 185.261 68.4562 188.955 86.1072 190.541C91.7562 191.045 97.4233 191.333 103.09 191.405C93.7776 191.892 84.4648 192.054 75.1159 191.658ZM122.366 190.054C99.3726 191.477 76.1988 190 53.7831 184.486C46.8887 182.793 40.0665 180.703 33.4068 178.234C27.3245 173.441 22.0725 167.568 18.4449 160.721C17.4522 154.162 17.5425 147.441 18.3005 140.811C18.6615 142.108 19.0766 143.369 19.5458 144.613C19.2751 152 20.1775 159.694 24.888 165.658C24.9602 165.766 25.1407 165.622 25.0685 165.514C21.0258 159.946 20.0873 152.991 20.1955 146.252C20.7009 147.459 21.2243 148.649 21.7838 149.784C27.0899 160.342 35.5184 169.171 45.4629 175.477C47.9355 177.045 50.5163 178.45 53.1514 179.694C51.6534 179.514 50.1554 179.333 48.6574 179.135C48.5672 179.135 48.5491 179.279 48.6393 179.297C50.4803 179.604 52.3212 179.892 54.1801 180.162C62.5544 183.946 71.6146 186.09 80.8372 186.559C88.3632 186.937 95.9434 186.18 103.289 184.45C103.415 184.45 103.56 184.45 103.686 184.45C111.266 184.667 118.864 184.685 126.427 184.523C134.801 184.324 143.175 183.874 151.513 183.207C148.427 184.342 145.359 185.55 142.309 186.775C135.703 188.09 129.044 189.189 122.348 190.036L122.366 190.054ZM59.0892 180.847C72.138 182.631 85.277 183.748 98.4521 184.252C85.2589 186.36 71.6687 185.459 59.0892 180.847ZM120.723 183.658C126.336 183.099 131.931 182.324 137.49 181.477C148.969 179.712 160.429 178 171.926 176.414C166.295 178.09 160.718 179.928 155.195 181.91C143.735 182.919 132.22 183.514 120.723 183.676V183.658ZM161.566 182.306C156.928 183.55 152.253 184.631 147.579 185.658C148.337 185.369 149.077 185.045 149.817 184.757C151.495 184.126 153.21 183.532 154.888 182.919C157.108 182.721 159.346 182.523 161.566 182.306ZM141.19 188.198C141.749 187.964 142.309 187.748 142.868 187.532C150.395 185.982 157.884 184.126 165.248 181.946C173.514 181.045 181.762 179.874 189.956 178.504C173.911 182.703 157.632 186.108 141.19 188.198ZM200.731 175.586C190.714 177.495 180.625 179.099 170.482 180.324C172.991 179.514 175.481 178.685 177.972 177.802C178.152 177.73 178.08 177.441 177.882 177.495C174.435 178.613 170.969 179.658 167.486 180.667C164.544 181.009 161.584 181.279 158.624 181.568C162.505 180.216 166.385 178.919 170.302 177.712C180.571 176.847 190.84 176.072 201.11 175.477C200.983 175.514 200.839 175.55 200.713 175.604L200.731 175.586ZM208.455 174C207.932 174.018 207.408 174.054 206.867 174.09C207.878 173.784 208.888 173.477 209.899 173.153C210.043 173.099 209.989 172.883 209.827 172.919C208.419 173.351 206.993 173.748 205.568 174.162C200.622 174.432 195.677 174.757 190.732 175.189C184.451 175.73 178.189 176.396 171.944 177.189C173.695 176.649 175.463 176.18 177.232 175.658C177.485 175.622 177.737 175.586 177.99 175.55C194.251 173.387 210.549 171.513 226.864 169.856C220.746 171.351 214.592 172.721 208.437 174H208.455ZM182.646 174.108C186.4 173.099 190.154 172.144 193.945 171.243C196.995 170.523 200.045 169.874 203.113 169.243C209.304 169.279 215.512 169.333 221.703 169.441C208.672 170.829 195.641 172.396 182.646 174.108ZM336.236 178.541C336.922 177.513 337.607 176.523 338.329 175.514C340.495 174.973 342.643 174.396 344.773 173.766C347.299 173.243 349.826 172.667 352.317 172.036C347.173 174.757 341.903 177.279 336.218 178.541H336.236ZM369.823 165.856C366.557 166.973 363.254 168.018 359.933 168.991C362.153 167.802 364.337 166.559 366.502 165.279C369.246 163.928 371.917 162.504 374.552 160.973C372.982 162.595 371.393 164.216 369.823 165.838V165.856ZM375.292 160.234C373.668 161.153 372.025 162.054 370.383 162.919C371.809 162 373.216 161.081 374.606 160.09C375.581 159.387 376.555 158.685 377.494 157.946C376.772 158.721 376.032 159.459 375.292 160.234ZM360.384 167.694C357.244 169.045 354.067 170.288 350.855 171.405C347.967 172.108 345.061 172.775 342.138 173.333C339.214 173.892 336.254 174.378 333.312 174.811C332.193 174.685 331.074 174.595 329.973 174.486C346.902 170.09 363.759 164.523 378.685 155.279C379.533 154.757 380.363 154.216 381.194 153.676C374.967 159.225 367.694 163.712 360.402 167.712L360.384 167.694ZM383.053 151.622C370.004 160.108 355.457 166.198 340.64 170.919C336.813 172.144 332.951 173.279 329.089 174.378C309.633 172.396 290.105 171.063 270.577 170.09C259.369 169.55 248.161 169.135 236.953 168.847C238.704 168.685 240.473 168.523 242.223 168.342C244.299 168.342 246.374 168.342 248.45 168.378C255.922 168.504 263.394 168.811 270.848 169.117C285.755 169.748 300.699 170.342 315.607 169.171C323.837 168.523 332.013 167.225 339.99 165.135C340.08 165.117 340.044 164.955 339.954 164.991C325.497 168.342 310.589 169.207 295.772 169.063C280.846 168.919 265.957 167.838 251.031 167.55C250.995 167.55 250.94 167.55 250.904 167.55C253.521 167.315 256.156 167.081 258.773 166.865C273.898 165.622 289.058 164.523 304.2 163.514C304.399 163.514 304.399 163.189 304.2 163.207C283.12 164.036 262.058 165.55 241.05 167.514C240.094 167.514 239.119 167.514 238.162 167.55C240.996 166.721 243.848 165.874 246.663 164.955C246.862 164.883 246.771 164.577 246.573 164.649C242.855 165.694 239.137 166.703 235.401 167.676C232.225 167.802 229.066 168.018 225.926 168.396C225.763 168.414 225.763 168.649 225.926 168.649C227.406 168.613 228.868 168.577 230.348 168.541C229.824 168.595 229.319 168.649 228.795 168.703C221.558 168.559 214.321 168.468 207.084 168.432C211.235 167.64 215.386 166.901 219.573 166.27C219.735 166.252 219.663 165.982 219.501 166.018C214.628 166.703 209.755 167.514 204.918 168.432C204.719 168.432 204.503 168.432 204.304 168.432C191.833 168.414 179.362 168.577 166.909 169.027C166.746 169.027 166.746 169.279 166.909 169.279C178.171 169.207 189.451 169.189 200.713 169.261C192.826 170.847 185.011 172.703 177.268 174.865C165.826 176.414 154.401 178.072 142.995 179.874C133.213 181.423 123.358 183.009 113.45 183.712C111.176 183.712 108.902 183.658 106.61 183.622C111.338 182.306 115.959 180.577 120.381 178.468C121.915 177.73 123.413 176.955 124.911 176.144C125.109 176.036 124.929 175.748 124.748 175.856C117.691 179.351 110.147 181.982 102.423 183.568C98.9755 183.477 95.5103 183.369 92.0631 183.189C80.4942 182.631 68.9435 181.604 57.4288 180.234C55.3171 179.405 53.2236 178.505 51.2022 177.441C41.1313 172.252 32.2697 164.613 26.0251 155.153C23.751 151.712 21.7477 147.892 20.2497 143.892C20.5746 137.225 21.5492 130.541 22.9569 124C23.1013 127.838 23.6427 131.676 24.4549 135.405C26.4041 144.468 29.6708 153.514 34.995 161.153C40.2289 168.667 47.5023 174.216 56.0932 177.387C65.027 180.685 74.7188 181.495 84.158 180.631C96.557 179.495 108.505 175.766 120.308 172C120.435 171.964 120.381 171.766 120.254 171.802C101.033 177.658 80.422 183.73 60.3887 178.126C51.5631 175.658 43.5859 170.901 37.7202 163.82C31.8546 156.757 28.2089 148.072 25.8446 139.279C24.4007 133.928 23.3901 128.306 23.2637 122.721C23.5164 121.586 23.751 120.45 24.0398 119.315C24.888 115.91 25.9168 112.559 27.0177 109.243C29.1654 107.604 31.5839 106.36 34.1106 105.586C33.5511 107.243 33.0458 108.919 32.5946 110.613C31.5658 112.342 30.5552 114.072 29.5806 115.838C29.4903 116 29.743 116.144 29.8332 115.982C30.6454 114.595 31.4756 113.225 32.3058 111.856C31.6741 114.432 31.1327 117.027 30.7898 119.658C30.5732 121.225 30.4288 122.793 30.3205 124.36C30.3205 124.559 30.6093 124.559 30.6273 124.36C31.0966 119.513 32.0531 114.739 33.3887 110.09C34.4535 108.378 35.5364 106.685 36.6374 105.009C37.3954 104.883 38.1714 104.811 38.9475 104.793C38.7129 105.604 38.5866 106.414 38.5866 107.225C38.0632 108.829 37.5759 110.45 37.1427 112.072C33.6955 125.189 32.4322 139.802 36.5832 152.901C40.3733 164.901 49.7944 175.748 62.6266 178.144C64.0524 178.414 65.5143 178.559 66.9582 178.595C67.1567 178.595 67.1567 178.288 66.9582 178.288C53.9094 177.622 43.2249 167.477 38.6046 155.784C33.5511 142.991 34.3813 128.342 37.4676 115.171C37.9188 113.243 38.4422 111.351 39.0197 109.459C39.1641 109.802 39.3085 110.144 39.5251 110.468C40.6801 112.27 42.7737 113.513 44.9214 112.811C45.0658 112.757 45.0117 112.541 44.8492 112.577C42.1601 113.351 39.8138 110.955 39.3265 108.432C39.7055 107.207 40.0845 105.982 40.5177 104.775C42.9361 104.901 45.3546 105.568 47.6647 106.865C47.773 106.919 47.8813 106.757 47.773 106.703C45.517 105.387 43.0805 104.703 40.626 104.541C41.1313 103.117 41.6728 101.712 42.2503 100.324C45.2283 96.1802 48.5852 92.2703 52.0685 88.5405C55.0464 85.3513 58.1868 82.3243 61.4535 79.4054C61.6881 79.3874 61.9227 79.3694 62.1574 79.3333C63.529 79.1531 64.8826 78.7928 66.2001 78.3243C66.3084 78.2883 66.2543 78.1261 66.164 78.1622C64.7924 78.6126 63.2763 79.027 61.7423 79.1531C62.9515 78.0721 64.1787 77.009 65.4421 75.964C66.1279 76.054 66.8138 76.1621 67.4816 76.3063C67.5718 76.3243 67.6079 76.1982 67.5177 76.1621C66.904 76 66.2723 75.8739 65.6587 75.7838C68.8713 73.1171 72.156 70.5405 75.5491 68.1081C89.5363 58.1441 104.877 50.3784 120.76 43.964C130.596 42.2883 140.107 39.2072 149.618 36.2703C154.419 34.7928 159.256 33.4054 164.111 32.1441C160.826 33.4054 157.56 34.7387 154.329 36.1441C146.081 38.3604 137.941 40.973 129.982 44.054C128.286 44.7027 126.589 45.3874 124.911 46.0721C124.82 46.1081 124.856 46.2703 124.947 46.2342C133.285 43.009 141.804 40.2522 150.431 37.8919C142.183 41.6396 134.097 45.8018 126.228 50.2703C118.341 54.7567 110.635 59.5315 103.072 64.5405C96.0156 69.2072 88.6339 73.982 83.3278 80.6667C82.1005 82.2162 80.9996 83.8378 80.025 85.5676C79.9347 85.7477 80.1874 85.8919 80.2957 85.7297C84.8077 78.2703 91.9367 72.9009 99.0477 68.0721C106.393 63.0811 113.883 58.3243 121.536 53.8378C132.401 47.4594 143.608 41.6216 155.195 36.6486C159.021 35.6757 162.866 34.7748 166.728 33.9459C181.076 30.9009 195.641 28.991 210.26 28C225.059 27.009 239.913 26.991 254.731 27.7838C257.33 27.9279 259.928 28.1261 262.509 28.3063C272.833 31.009 283.066 34.018 293.137 37.5135C295.537 38.3423 297.92 39.2072 300.302 40.0901C302.251 41.4775 304.164 42.9189 306.005 44.4504C312.521 49.8919 318.874 57.1531 320.245 65.8198C320.606 68.036 320.552 70.2883 320.137 72.5045C320.101 72.7387 320.444 72.8288 320.498 72.5946C322.411 64.1982 318.386 56.1622 312.99 49.9279C310.283 46.7928 307.16 43.982 303.821 41.4234C316.473 46.3423 328.8 52.1081 340.477 59.045C354.861 67.5856 368.289 77.8018 379.822 89.9279C381.212 91.3874 382.583 92.8829 383.919 94.4144C384.063 94.5946 384.316 94.3423 384.172 94.1621C373.397 81.4234 360.547 70.6667 346.505 61.6757C332.247 52.5405 316.834 45.2793 300.988 39.3513C298.154 37.3694 295.212 35.5676 292.271 33.9099C290.177 32.7207 288.029 31.6396 285.846 30.5946C290.033 31.1171 294.202 31.6757 298.371 32.2883C309.218 36.018 319.848 40.4504 330.154 45.4594C332.247 46.4865 334.323 47.5135 336.398 48.5766C336.488 48.6306 336.561 48.4865 336.47 48.4504C324.938 42.4504 313.026 37.0811 300.789 32.6306C307.142 33.6036 313.459 34.7027 319.776 35.8739C321.039 36.4865 322.285 37.0991 323.548 37.7117C331.164 41.4054 338.871 44.9549 346.812 47.9459C350.656 49.4054 355.511 51.5315 360.131 51.9099C369.444 60.5405 378.143 70.2342 384.677 81.1712C382.493 77.8018 379.587 74.9549 375.869 73.2432C375.761 73.1892 375.653 73.3513 375.761 73.4054C384.154 77.5495 387.889 86.973 389.496 95.8739C387.835 92.5766 385.994 89.3874 383.991 86.3063C379.371 79.2252 373.812 72.6306 367.315 67.1892C367.224 67.1171 367.08 67.2432 367.17 67.3333C376.465 76.3243 384.406 86.6306 389.875 98.3063C389.947 98.7748 390.001 99.2432 390.055 99.7117C391.391 110.721 389.965 121.928 386.049 132.306C383.811 138.216 380.76 143.802 376.952 148.847C376.898 148.919 377.024 148.991 377.079 148.919C384.117 139.82 388.666 128.973 390.344 117.622C391.174 112.036 391.373 106.126 390.759 100.36C391.283 101.568 391.824 102.757 392.293 103.982C394.08 108.613 395.325 113.423 395.65 118.288C395.632 119.568 395.578 120.865 395.47 122.162C395.47 122.324 395.668 122.324 395.722 122.198C395.668 123.964 395.488 125.748 395.163 127.532C393.737 135.009 390.236 141.964 385.85 148.126C384.984 149.333 384.081 150.486 383.161 151.64L383.053 151.622Z" fill="black"/>
<path d="M189 68.5585C188.91 68.4504 188.765 68.5945 188.819 68.7026C189.054 69.117 189.216 69.5315 189.379 69.9639C187.989 68.3423 186.437 66.9369 184.795 65.6936C185.228 65.7297 185.571 65.9098 185.968 66.072C186.094 66.1261 186.166 65.9459 186.094 65.8558C185.607 65.3333 184.74 65.1351 184.019 65.117C178.369 61.1351 171.529 59.1711 164.545 58.5765C164.418 58.5585 164.292 58.5225 164.166 58.5044C162.993 58.3423 161.819 58.2342 160.646 58.1621C161.621 58.1621 162.595 58.1801 163.552 58.2342C170.663 58.5765 177.756 60.054 184.434 62.5044C184.542 62.5405 184.614 62.3603 184.506 62.3243C177.918 59.4774 170.916 57.8197 163.751 57.3693C160.141 57.1531 156.513 57.2252 152.904 57.6215C149.294 58.0179 145.594 58.5945 142.165 59.8378C142.039 59.8918 141.985 59.9819 141.948 60.09C139.277 60.7927 136.642 61.6215 134.079 62.6306C132.491 63.2432 130.939 63.9279 129.405 64.6306C115.327 68.6125 102.188 76.1801 91.9552 86.5945C88.508 90.108 85.3135 94.09 83.238 98.5765C80.4586 102.883 78.2567 108.18 81.8122 112.018C82.0829 112.324 82.3897 112.595 82.7146 112.829C87.2627 121.279 98.994 121.099 107.314 120.613C119.731 119.874 131.932 117.135 143.537 112.649C143.717 112.577 143.645 112.306 143.464 112.36C133.484 115.82 123.106 118.018 112.602 119.099C107.495 119.622 102.225 120.018 97.0989 119.586C92.5147 119.189 87.8222 117.712 84.736 114.144C84.6638 114.072 84.6277 113.982 84.5555 113.91C86.5949 114.829 88.9773 115.153 91.125 115.387C95.4565 115.874 99.8422 115.838 104.174 115.369C112.566 114.432 120.76 112.09 128.719 109.297C128.34 109.513 127.961 109.73 127.6 109.964C127.474 110.036 127.6 110.216 127.708 110.162C128.9 109.586 130.073 108.991 131.246 108.396C131.733 108.216 132.221 108.054 132.708 107.874C132.816 107.838 132.816 107.712 132.78 107.64C135.956 106.018 139.079 104.324 142.219 102.613C141.93 102.793 141.624 102.955 141.335 103.153C141.227 103.207 141.335 103.369 141.425 103.315C143.067 102.504 144.674 101.676 146.298 100.847C142.58 103.333 138.79 105.748 134.91 107.982C128.503 111.64 121.753 115.297 114.497 116.919C110.31 117.856 105.942 118.054 101.791 116.829C101.665 116.793 101.611 116.991 101.737 117.027C108.938 119.423 116.356 117.766 123.178 114.919C130.235 111.982 136.949 108.036 143.302 103.82C145.757 102.198 148.103 100.432 150.431 98.6486C153.824 96.8107 157.199 94.9188 160.592 93.063C166.927 89.5675 173.226 85.9999 179.452 82.2882C179.579 82.2161 179.452 82.036 179.344 82.09C174.688 84.4864 170.067 86.9549 165.483 89.4774C167.27 88.3783 169.057 87.2792 170.807 86.1261C170.97 86.0179 170.825 85.7837 170.663 85.8738C163.335 89.5855 156.224 93.7837 149.059 97.8197C142.851 101.315 136.588 104.739 130.452 108.342C123.377 110.631 116.266 112.721 108.92 113.892C104.86 114.54 100.745 114.901 96.6297 114.829C92.9479 114.775 88.9231 114.595 85.4218 113.279C84.6277 112.973 83.978 112.631 83.4004 112.216C82.8951 111.315 82.5161 110.378 82.2995 109.423C82.9492 110.396 83.8877 111.153 85.0789 111.441C85.2955 111.495 85.3857 111.171 85.1691 111.099C82.3356 110.18 81.6317 106.829 82.3717 104.252C83.1658 101.586 85.0428 99.2612 86.7032 97.063C89.8797 92.8648 93.4352 88.9729 97.2975 85.4053C100.348 82.5945 103.578 79.9819 106.989 77.6035C111.592 75.1891 116.519 73.3333 121.59 72.1801C121.662 72.1801 121.626 72.054 121.554 72.072C117.295 72.9549 113.162 74.3423 109.227 76.1261C112.187 74.1801 115.219 72.3603 118.378 70.7567C119.479 70.4143 120.598 70.072 121.717 69.7837C121.825 69.7477 121.771 69.5855 121.68 69.6215C120.868 69.8197 120.074 70.072 119.262 70.3062C120.525 69.6756 121.807 69.081 123.088 68.5044C122.709 69.081 122.547 69.7297 122.763 70.5044C122.817 70.7026 123.016 70.8468 123.215 70.8468C123.954 70.8468 124.676 70.7026 125.398 70.5945C125.525 70.5765 125.525 70.3603 125.398 70.3423C124.821 70.1981 124.243 70.072 123.648 69.9819C123.63 68.8828 124.857 68.1441 125.705 67.6756C126.481 67.2432 127.293 66.8648 128.088 66.4684C129.333 65.9999 130.596 65.5675 131.86 65.1531C135.198 64.09 138.79 62.7747 142.327 63.6396C142.508 63.6756 142.58 63.4233 142.4 63.3693C140.92 62.8828 139.422 62.8288 137.942 62.9729C139.837 62.5945 141.75 62.2342 143.663 61.9819C143.735 61.9819 143.717 61.8378 143.645 61.8378C141.208 62.09 138.772 62.4684 136.354 62.9369C140.613 61.4234 145.017 60.2702 149.493 59.6396C158.444 58.3783 167.739 59.2071 176.168 62.5945C178.243 63.4234 180.228 64.4504 182.142 65.5855C181.871 65.7477 181.6 65.9279 181.384 66.1441C180.716 66.7747 180.301 67.6756 180.319 68.5945C180.319 69.5675 180.824 70.5044 181.51 71.1711C182.268 71.9279 183.387 72.3603 184.452 72.2161C184.596 72.1981 184.614 71.9639 184.452 71.9819C182.737 72.072 181.167 70.5585 181.023 68.8828C180.914 67.5495 181.744 66.5224 182.9 66.0179C185.029 67.3513 187.033 68.8648 188.892 70.5765C189.162 70.8288 189.487 70.6306 189.559 70.3603C190.552 73.6576 189.541 77.3333 187.231 79.9639C184.343 83.2612 180.138 84.9549 176.186 86.5585C176.095 86.5945 176.132 86.7387 176.222 86.7026C180.481 85.117 185.21 83.3873 188.079 79.6576C190.444 76.6125 191.653 71.8017 189.054 68.5405L189 68.5585ZM81.7039 110.342C80.7293 108.613 80.8195 106.468 81.4693 104.288C81.379 104.793 81.3249 105.297 81.2888 105.802C81.2888 105.838 81.2888 105.856 81.2888 105.892V105.91C81.1986 107.405 81.2888 108.883 81.7039 110.324V110.342ZM85.3135 97.4414C84.6999 98.2702 84.0682 99.117 83.4726 100.018C83.635 99.6215 83.7975 99.2071 83.996 98.8107C84.7901 97.4774 85.6203 96.2522 86.3603 95.2612C90.006 90.2522 94.5 85.8918 99.5174 82.2522C94.2293 86.7567 89.4465 91.8558 85.3135 97.4414ZM109.913 74.5585C107.603 76.036 105.347 77.6215 103.163 79.2972C97.8208 82.5044 92.984 86.5405 88.869 91.2071C89.6992 90.1621 90.5294 89.2071 91.3235 88.3423C96.1604 83.099 101.846 78.5765 107.946 74.8107C109.751 73.9459 111.592 73.1351 113.451 72.4143C112.259 73.099 111.068 73.8197 109.895 74.5585H109.913ZM125.001 66.8107C125.001 66.8107 124.947 66.8107 124.929 66.8468C121.374 68.2702 117.944 69.9279 114.606 71.8017C112.963 72.3963 111.339 73.045 109.751 73.7477C111.104 72.9549 112.458 72.1981 113.83 71.4774C117.818 69.4053 121.969 67.6396 126.211 66.1801C125.831 66.3783 125.416 66.5765 125.001 66.8288V66.8107Z" fill="black"/>
<path d="M277.11 52.1982C273.898 50.8829 270.342 50.1081 266.895 49.5315C265.921 49.063 264.928 48.6306 263.917 48.2702C254.568 44.973 244.101 46.8108 235.455 51.2072C235.419 51.2252 235.401 51.2612 235.401 51.2973C234.661 51.5315 233.921 51.7838 233.199 52.054C233.254 52.036 233.29 52 233.344 51.9639C233.398 51.9459 233.344 51.8378 233.308 51.8558C232.911 52 232.568 52.1802 232.243 52.3964C231.07 52.8468 229.915 53.3153 228.796 53.8558C228.651 53.9279 228.76 54.1802 228.904 54.1261C229.608 53.8919 230.294 53.6576 230.998 53.4234C229.915 54.6126 229.319 56.2162 229.193 57.8738C228.94 60.9729 230.294 63.8558 232.658 65.8378C235.564 68.2883 239.39 69.3153 243.054 69.9279C247.746 70.7027 252.547 71.063 257.312 71.045C261.968 71.027 266.769 70.7567 271.353 69.8558C274.53 69.2252 278.031 67.6937 278.482 64.0901C278.645 62.8468 278.41 61.6216 277.995 60.4324C278.987 59.7477 279.926 58.9369 280.467 57.8558C281.821 55.1711 279.439 53.0991 277.165 52.1621L277.11 52.1982ZM259.315 48C260.524 48.2162 261.733 48.5585 262.925 48.9369C260.055 48.5946 257.149 48.4504 254.262 48.4684C248.937 48.5225 243.541 49.1351 238.325 50.4684C245.057 48.1621 252.24 46.7027 259.315 48ZM277.129 65.4054C276.389 66.9729 274.818 67.8919 273.23 68.4324C269.602 69.6396 265.469 69.8018 261.679 70C257.294 70.2342 252.908 70.1441 248.54 69.7297C244.804 69.3874 240.96 68.9369 237.441 67.6036C234.012 66.3063 230.835 63.9279 230.023 60.1982C229.5 57.7657 229.915 55.009 231.611 53.2252C237.621 51.2973 243.758 49.9099 250.092 49.4955C255.615 49.1351 261.174 49.4414 266.625 50.3964C270.685 52.3603 274.277 55.3513 276.407 59.2973C276.551 59.5495 276.677 59.8378 276.804 60.1081C275.558 60.9189 274.277 61.6576 272.941 62.3063C269.025 64.2162 264.784 65.3874 260.452 65.8558C260.705 65.7657 260.957 65.6937 261.21 65.5856C261.318 65.5315 261.282 65.3513 261.156 65.3874C260.506 65.6036 259.82 65.7838 259.153 65.982C257.655 66.1081 256.139 66.1441 254.641 66.0901C247.421 65.8739 240.455 63.6396 234.3 59.8919C234.21 59.8378 234.138 59.982 234.21 60.036C239.913 64.3964 247.006 66.6306 254.207 66.9549C253.828 67.009 253.449 67.063 253.07 67.0991C250.796 66.991 248.504 66.8108 246.23 66.4865C241.538 65.8378 234.517 64.3243 233.633 58.7027C233.633 58.6126 233.47 58.6306 233.488 58.7207C233.867 62.991 237.766 65.1531 241.628 66.2522C240.545 65.9639 239.498 65.6396 238.47 65.2252C235.455 64.018 233.109 61.6937 233.47 58.2702C233.777 55.4234 235.762 52.7928 238.668 52.2702C238.758 52.2702 238.722 52.1261 238.632 52.1261C234.481 52.7387 231.756 57.8018 233.308 61.6576C234.336 64.1982 236.972 65.5315 239.426 66.3423C242.711 67.4234 246.212 67.9459 249.659 67.9099C250.49 67.9099 251.302 67.8378 252.114 67.7657C257.582 68.1261 263.141 67.8738 268.465 66.7928C268.574 66.7748 268.556 66.5946 268.447 66.5946C264.242 67.009 260.073 67.2252 255.904 67.1711C256.157 67.1171 256.409 67.045 256.662 66.9729C262.185 66.8829 267.689 65.6937 272.617 63.4414C274.187 62.7207 275.703 61.9099 277.147 60.9729C277.634 62.4144 277.796 63.9639 277.147 65.3693L277.129 65.4054ZM277.58 59.5675C276.605 57.4775 275.017 55.5675 273.483 54.0901C272.274 52.9009 270.902 51.8739 269.476 50.973C270.144 51.1171 270.812 51.2612 271.461 51.4414C273.122 51.8738 274.818 52.3243 276.425 52.9189C277.796 53.4414 279.547 54.3063 279.818 55.9099C280.088 57.4775 278.789 58.6847 277.562 59.5675H277.58Z" fill="black"/>
</g>
<defs>
<clipPath id="clip0_7278_826">
<rect width="400" height="204" fill="white"/>
</clipPath>
</defs>
</svg>
