<svg width="1542" height="256" viewBox="0 0 1542 256" fill="none" xmlns="http://www.w3.org/2000/svg">
<path d="M794.017 7.64933C884.024 5.12775 974.065 4.48031 1064.11 5.75813C1161.47 7.15521 1258.81 10.7672 1356 16.6111C1403.65 19.4734 1451.26 22.915 1498.84 26.8507C1488.14 30.1049 1478.84 37.4482 1470.41 44.587C1460.88 52.6458 1452.26 61.7439 1444.61 71.5746C1438.55 79.3779 1433.11 87.6412 1428.27 96.2452C1428.05 96.3645 1427.88 96.5008 1427.71 96.6541C1427.71 96.6541 1427.69 96.6541 1427.69 96.6882C1427.37 96.9949 1427.17 97.4038 1427.06 97.8467C1427.06 97.8638 1427.05 97.8979 1427.05 97.9149C1427 98.1364 1426.98 98.3579 1426.98 98.5794C1420.15 111.119 1414.63 124.374 1410.47 138.039C1403.11 162.215 1399.94 187.772 1401.3 213.004C1401.78 221.779 1402.75 231.184 1406.45 239.311C1377.78 218.048 1347.57 198.948 1316.32 181.638C1278.57 160.733 1239.45 142.366 1199.79 125.414C1159.33 108.138 1118.37 91.8325 1076.92 77.1119C1034.48 62.0506 991.238 48.9146 947.01 40.2254C947.01 40.2424 946.993 40.2594 946.976 40.2765C899.919 28.316 852.761 16.3897 804.699 9.16569C801.138 8.63752 797.578 8.12639 794.017 7.64933Z" fill="#EFE2CB"/>
<path d="M1128.57 2.62269C1138.76 4.24127 1148.95 5.8428 1159.14 7.46138C1159.51 6.7458 1160.23 6.23466 1161.3 6.2517C1183.04 6.74579 1204.78 7.39322 1226.52 8.17696C1265.06 9.57404 1303.58 11.4312 1342.07 13.7483C1380.55 16.0824 1419.02 18.8595 1457.44 22.1137C1458.41 22.1989 1459.09 22.693 1459.5 23.3405C1472.6 24.0731 1485.74 24.1923 1498.86 23.7153C1501.7 23.596 1502.4 28.2814 1499.54 28.7244C1490.94 30.0533 1483.97 35.3009 1477.6 40.9233C1455.67 60.227 1431.8 81.8138 1423.15 110.693C1423.11 110.795 1423.06 110.863 1423.03 110.965C1423.52 111.493 1424.01 112.022 1424.51 112.55C1426.74 114.969 1423.13 118.581 1420.9 116.162C1406.24 100.334 1391.15 84.7954 1374.23 71.3526C1359.19 59.4263 1342.54 49.3059 1324.38 42.9338C1304.01 35.778 1282.44 32.7112 1261.22 29.1503C1216.6 21.6708 1171.92 14.6172 1127.23 7.54658C1123.97 7.03545 1125.37 2.11156 1128.57 2.62269Z" fill="#D3C4AF"/>
<path d="M42.1879 26.8518C89.7554 22.9161 137.374 19.4744 185.027 16.6121C282.223 10.7682 379.556 7.15619 476.923 5.75909C566.947 4.48126 657.005 5.12868 747.012 7.65025C743.434 8.1273 739.873 8.63843 736.312 9.1666C688.268 16.3906 641.092 28.317 594.036 40.2774C594.036 40.2604 594.019 40.2433 594.002 40.2263C549.791 48.9155 506.533 62.0516 464.111 77.1129C422.643 91.8334 381.686 108.138 341.24 125.415C301.56 142.367 262.443 160.734 224.689 181.639C193.46 198.949 163.236 218.049 134.563 239.312C138.26 231.185 139.248 221.78 139.725 213.005C141.088 187.773 137.919 162.216 130.542 138.04C123.25 114.068 111.801 91.3905 96.417 71.5757C88.7673 61.7449 80.1295 52.6468 70.6228 44.588C62.1894 37.4492 52.8872 30.106 42.1879 26.8518Z" fill="#EFE2CB"/>
<path d="M763.811 9.37025C766.042 9.57471 768.257 9.77915 770.489 10.0006L770.506 10.0006C816.643 14.5838 862.063 24.4656 907.024 35.506C918.848 38.4195 930.655 41.4011 942.444 44.3997L942.291 44.5019C943.194 44.6723 944.097 44.8768 945 45.0471C945.715 45.2345 946.448 45.422 947.181 45.5923C947.487 45.6775 947.777 45.6946 948.049 45.6605C985.787 53.2252 1022.86 63.9589 1059.27 76.3794C1101.01 90.6059 1142.14 106.775 1182.82 123.761C1222.28 140.237 1261.24 157.956 1299.01 178.06C1336.46 197.994 1372.75 220.263 1406.69 245.768C1407.95 246.705 1409.18 247.693 1410.42 248.63C1414.8 251.084 1419.18 253.52 1424.13 254.917C1429.74 255.956 1435.53 254.61 1440.54 251.936C1452.4 245.598 1459.96 232.802 1463.52 220.211C1467.68 205.542 1466.73 190.089 1464.02 175.249C1463.3 171.313 1462.47 167.412 1461.56 163.51C1461.19 161.943 1459.16 161.125 1457.8 161.994C1443.22 171.16 1425.53 174.993 1408.48 172.404C1408.36 172.387 1408.26 172.387 1408.15 172.387C1409.45 163.152 1411.3 153.986 1413.78 144.973C1420.01 122.364 1429.96 100.794 1443.49 81.6099C1450.25 72.0518 1457.92 63.1241 1466.4 55.0482C1470.64 51.0103 1475.09 47.1598 1479.74 43.5648C1484.94 39.5609 1490.42 35.6423 1496.49 33.0526C1499.4 31.7918 1502.5 30.8888 1505.66 30.4969C1505.89 30.514 1506.17 30.514 1506.44 30.4628C1516.63 28.5546 1526.29 34.7563 1531.25 43.3604C1533.75 47.705 1535.37 52.7481 1535.81 57.7401C1536.29 63.1922 1534.12 67.5027 1529.76 70.7569C1527.16 72.6992 1529.7 77.129 1532.34 75.1697C1537.58 71.251 1541.14 66.0034 1541.01 59.2565C1540.87 53.1059 1538.95 46.7508 1536 41.384C1533.03 35.983 1528.6 31.5192 1523.37 28.6398C1523.17 28.6057 1522.97 28.5376 1522.76 28.4524C1517.58 26.016 1512.23 24.193 1506.68 22.83C1505.62 22.5744 1504.57 22.3359 1503.53 22.1144C1411.32 14.4304 1318.95 8.70575 1226.49 5.04266C1129.2 1.17511 1031.8 -0.477531 934.437 0.118796C879.782 0.442516 825.144 1.48181 770.523 3.20262L770.489 3.20262C769.382 3.27078 768.666 3.88412 768.308 4.68489C766.809 4.54859 765.31 4.39525 763.811 4.25895C760.539 3.96931 760.556 9.08061 763.811 9.37025ZM1457.37 168.195C1462.81 193.207 1465.09 223.687 1444.7 242.684C1440.2 246.875 1434.27 250.249 1427.98 250.232C1422.92 250.215 1418.46 247.744 1415.22 243.945C1408.61 236.125 1407.15 224.777 1406.53 214.93C1405.73 202.407 1406.11 189.833 1407.54 177.396C1424.68 179.9 1442.31 176.731 1457.37 168.195ZM1064.11 5.75825C1161.47 7.15533 1258.81 10.7673 1356 16.6112C1403.66 19.4735 1451.26 22.9151 1498.84 26.8508C1488.14 30.105 1478.84 37.4483 1470.41 44.5871C1460.88 52.6459 1452.26 61.744 1444.61 71.5747C1438.55 79.378 1433.11 87.6413 1428.27 96.2453C1428.05 96.3646 1427.88 96.5009 1427.71 96.6542C1427.71 96.6542 1427.69 96.6542 1427.69 96.6883C1427.37 96.9949 1427.17 97.4039 1427.06 97.8468C1427.06 97.8639 1427.05 97.8979 1427.05 97.915C1427 98.1365 1426.98 98.358 1426.98 98.5795C1420.15 111.119 1414.63 124.374 1410.47 138.039C1403.11 162.215 1399.94 187.772 1401.3 213.004C1401.78 221.779 1402.75 231.184 1406.45 239.311C1377.78 218.048 1347.57 198.948 1316.32 181.638C1278.57 160.733 1239.45 142.366 1199.79 125.414C1159.33 108.138 1118.37 91.8326 1076.92 77.112C1034.48 62.0507 991.238 48.9147 947.01 40.2255C947.01 40.2425 946.993 40.2595 946.976 40.2766C899.92 28.3161 852.761 16.3898 804.7 9.16581C801.139 8.63764 797.578 8.12651 794.017 7.64946C884.024 5.12787 974.065 4.48043 1064.11 5.75825Z" fill="black"/>
<path d="M1407.54 177.395C1424.68 179.9 1442.31 176.731 1457.37 168.195C1462.81 193.206 1465.09 223.687 1444.7 242.684C1440.2 246.875 1434.27 250.248 1427.98 250.231C1422.92 250.214 1418.46 247.744 1415.22 243.944C1408.61 236.124 1407.15 224.777 1406.53 214.929C1405.73 202.407 1406.11 189.833 1407.54 177.395Z" fill="#D3C4AF"/>
<path d="M41.9494 28.9637C50.5532 30.2926 57.5213 35.5572 63.8932 41.1626C85.8199 60.4663 109.689 82.053 118.361 110.932C118.378 111.034 118.429 111.119 118.463 111.205C117.969 111.733 117.475 112.261 116.981 112.789C114.749 115.208 118.361 118.82 120.61 116.401C135.244 100.573 150.339 85.0346 167.257 71.6089C182.301 59.6655 198.946 49.5452 217.108 43.1731C237.484 36.0172 259.053 32.9505 280.264 29.3896C324.884 21.91 369.573 14.8564 414.261 7.80283C417.515 7.2917 416.135 2.36782 412.915 2.86192C402.727 4.4805 392.538 6.08203 382.35 7.70061C381.975 6.98503 381.26 6.47389 380.204 6.49093C358.447 6.98502 336.708 7.63246 314.969 8.4162C276.431 9.81329 237.91 11.6704 199.423 13.9875C160.936 16.3217 122.467 19.0988 84.0481 22.353C83.077 22.4382 82.3955 22.9323 81.9866 23.5797C68.8851 24.3124 55.7495 24.4487 42.631 23.9546C39.7858 23.8353 39.0872 28.5377 41.9494 28.9637Z" fill="#D3C4AF"/>
<path d="M8.67603 75.1698C11.3168 77.1291 13.8723 72.6993 11.2656 70.757C6.9041 67.5028 4.72337 63.1923 5.21745 57.7402C5.64338 52.7482 7.27891 47.705 9.76632 43.3604C14.7241 34.7564 24.4012 28.5547 34.5723 30.4629C34.8619 30.514 35.1175 30.514 35.3731 30.497C38.525 30.8888 41.6257 31.7918 44.5391 33.0526C50.6042 35.6424 56.0901 39.561 61.2864 43.5649C65.9205 47.1598 70.3843 51.0103 74.6265 55.0483C83.0939 63.1241 90.7776 72.0518 97.5243 81.61C111.069 100.794 121.018 122.364 127.237 144.973C129.724 153.986 131.581 163.152 132.859 172.387C132.757 172.387 132.655 172.387 132.553 172.404C115.481 174.993 97.797 171.16 83.2132 161.994C81.8673 161.125 79.8228 161.943 79.4651 163.51C78.5621 167.412 77.7102 171.313 76.9947 175.249C74.3028 190.089 73.3487 205.542 77.4887 220.211C81.0665 232.802 88.6309 245.598 100.472 251.936C105.481 254.611 111.29 255.956 116.878 254.917C121.853 253.52 126.232 251.084 130.593 248.63C131.854 247.693 133.081 246.705 134.324 245.768C168.279 220.263 204.551 197.994 242.016 178.06C279.77 157.956 318.734 140.237 358.192 123.761C398.893 106.775 440.004 90.6058 481.745 76.3794C518.153 63.9589 555.225 53.2252 592.962 45.6605C593.252 45.6945 593.542 45.6775 593.848 45.5923C594.581 45.4219 595.297 45.2345 596.029 45.0471C596.932 44.8767 597.835 44.6723 598.738 44.5019C598.67 44.4678 598.619 44.4337 598.568 44.3997C610.374 41.401 622.181 38.4194 634.005 35.506C678.966 24.4656 724.369 14.5837 770.489 10.0006L770.506 10.0006C772.738 9.77908 774.97 9.57464 777.201 9.37019C780.456 9.08055 780.473 3.96924 777.201 4.25888C775.702 4.39519 774.203 4.54853 772.704 4.68483C772.363 3.88406 771.647 3.27071 770.523 3.20256L770.489 3.20256C715.868 1.48176 661.23 0.442469 606.575 0.118758C509.208 -0.477552 411.824 1.17511 314.526 5.04267C221.299 8.73985 128.157 14.5156 35.1857 22.3018C33.2605 22.6596 31.3353 22.9663 29.4101 23.3922C27.2464 23.8693 24.8101 24.636 22.8338 25.6753C21.6072 26.3227 20.6189 27.0894 19.4604 27.6346C19.4604 27.6346 19.4605 27.6687 19.4945 27.6858C13.4464 30.4799 8.3182 35.3527 5.01301 41.384C2.0656 46.7509 0.123367 53.106 0.00410844 59.2566C-0.149225 66.0035 3.41155 71.2511 8.65897 75.1698L8.67603 75.1698ZM125.789 243.945C122.569 247.744 118.105 250.215 113.045 250.232C106.758 250.249 100.813 246.875 96.3148 242.684C75.9214 223.687 78.2213 193.207 83.6561 168.195C98.7169 176.731 116.333 179.9 133.49 177.396C134.921 189.833 135.296 202.407 134.495 214.93C133.864 224.778 132.416 236.125 125.789 243.945ZM185.027 16.6112C282.223 10.7673 379.556 7.15533 476.923 5.75823C566.947 4.4804 657.005 5.12783 747.012 7.64939C743.434 8.12645 739.873 8.63758 736.312 9.16575C688.268 16.3897 641.092 28.3161 594.036 40.2765C594.036 40.2595 594.019 40.2425 594.002 40.2254C549.791 48.9146 506.533 62.0507 464.111 77.112C422.643 91.8326 381.686 108.138 341.24 125.414C301.56 142.366 262.443 160.733 224.689 181.638C193.46 198.948 163.236 218.048 134.563 239.311C138.26 231.184 139.248 221.779 139.725 213.005C141.088 187.772 137.919 162.215 130.542 138.039C123.25 114.067 111.801 91.3896 96.417 71.5748C88.7673 61.7441 80.1295 52.6459 70.6228 44.5871C62.1895 37.4483 52.8872 30.1051 42.1879 26.8509C89.7554 22.9152 137.374 19.4736 185.027 16.6112Z" fill="black"/>
<path d="M83.6561 168.195C98.7169 176.731 116.333 179.9 133.49 177.395C134.921 189.833 135.296 202.407 134.495 214.929C133.864 224.777 132.416 236.124 125.789 243.944C122.569 247.744 118.105 250.214 113.045 250.231C106.758 250.248 100.813 246.875 96.3147 242.684C75.9214 223.687 78.2213 193.206 83.6561 168.195Z" fill="#D3C4AF"/>
</svg>
