<svg width="2397" height="258" viewBox="0 0 2397 258" fill="none" xmlns="http://www.w3.org/2000/svg">
<g clip-path="url(#clip0_7376_3)">
<path d="M1198.5 82.4658C1195.06 82.9832 1195.09 86.6045 1198.5 87.138C1201.94 86.6045 1201.94 82.9832 1198.5 82.4658Z" fill="#1A171B"/>
<path d="M2306.93 233.057C2280.55 244.179 2249.86 247.671 2219.11 248.932C2184.64 250.355 2149.95 250.307 2115.43 250.695C2042.37 251.535 1969.29 251.923 1896.21 252.101C1751.33 252.44 1606.47 252.085 1461.59 251.956C1172.59 251.713 883.394 253.604 594.442 250.064C433.812 248.092 273.134 243.096 113.465 230.616C123.081 228.756 132.288 225.96 140.702 222.403C173.804 208.435 194.117 184.832 202.41 159.596C207.074 145.353 208.372 130.674 207.795 116.124C207.218 102.593 205.295 89.0127 201.569 75.7238C197.963 62.9684 192.506 50.407 184.285 38.6539C176.352 27.3211 165.414 15.8267 151.111 7.64643C149.837 6.91894 148.515 6.28844 147.144 5.73878C210.656 3.76646 274.312 5.10828 337.631 8.76192C407.97 12.8197 477.876 19.642 547.446 27.5636C616.775 35.4691 685.815 44.4739 754.952 53.0421C823.704 61.5781 892.577 69.6775 961.858 75.8855C1031.5 82.1096 1101.6 86.3937 1171.86 87.1051C1180.45 87.2021 1189.03 87.2344 1197.61 87.2182C1197.92 87.2182 1198.24 87.1859 1198.5 87.1374C1198.76 87.1859 1199.08 87.2182 1199.39 87.2182C1207.97 87.2344 1216.55 87.2021 1225.14 87.1051C1295.4 86.3937 1365.5 82.1096 1435.14 75.8855C1504.45 69.6775 1573.32 61.5781 1642.05 53.0421C1711.19 44.4739 1780.23 35.4691 1849.55 27.5636C1919.12 19.642 1989.05 12.8197 2059.37 8.76192C2122.71 5.10828 2186.34 3.76646 2249.86 5.73878C2248.49 6.28844 2247.16 6.91894 2245.89 7.64643C2231.59 15.8267 2220.65 27.3211 2212.74 38.6539C2204.52 50.407 2199.04 62.9684 2195.46 75.7238C2191.71 89.0127 2189.78 102.593 2189.23 116.124C2188.63 130.674 2189.93 145.353 2194.59 159.596C2202.88 184.832 2223.22 208.435 2256.3 222.403C2271.4 228.789 2289.04 232.814 2306.93 233.057Z" fill="#EFE2CB"/>
<path d="M2189.32 104.985C2144.78 78.1325 2081.34 71.4557 2024.3 65.5873C1958.02 58.7812 1890.88 55.7742 1823.86 56.534C1756.5 57.31 1689.24 61.9013 1623.06 70.3241C1557.12 78.7145 1492.5 90.9688 1425.6 95.8026C1358.07 100.669 1289.99 100.151 1222.27 97.7587C1213.98 97.4677 1205.69 97.1282 1197.39 96.8049C1197.3 96.7887 1197.2 96.7887 1197.11 96.7887C1195.74 96.7241 1195.57 95.4469 1196.62 95.2206C1196.77 95.1721 1196.94 95.1721 1197.11 95.1721C1197.2 95.1721 1197.3 95.1721 1197.39 95.1882C1197.63 95.1882 1197.9 95.2044 1198.14 95.2206C1266.15 98.0174 1334.47 99.3431 1402.47 95.6409C1437.19 93.7494 1471.61 90.3706 1505.72 85.6661C1539.4 81.0425 1572.77 75.4812 1606.47 70.8737C1672.07 61.9013 1738.81 56.6795 1805.71 55.2245C1872.63 53.7695 1939.7 56.0975 2006.03 62.1923C2037.13 65.0538 2068.41 68.3679 2098.84 73.6059C2123.87 77.9062 2148.7 83.8717 2170.53 93.3129C2172.28 94.0728 2174.01 94.8649 2175.74 95.6732C2180.79 98.0336 2185.6 100.62 2190.21 103.369C2190.5 103.53 2190.77 103.692 2191.03 103.854C2192.19 104.549 2190.48 105.68 2189.32 104.985Z" fill="#D3C4AF"/>
<path d="M1197.66 96.7887C1197.66 96.7887 1197.49 96.7887 1197.39 96.8049C1189.12 97.1282 1180.81 97.4677 1172.49 97.7587C1104.77 100.151 1036.69 100.669 969.166 95.8026C902.264 90.9688 837.647 78.7145 771.707 70.3241C705.527 61.9013 638.266 57.31 570.908 56.534C503.886 55.7742 436.745 58.7812 370.492 65.5873C313.447 71.4557 249.984 78.1325 205.439 104.985C204.285 105.68 202.602 104.549 203.756 103.854C204.309 103.514 204.862 103.191 205.415 102.884C207.098 101.865 208.829 100.895 210.583 99.9412C213.324 98.4539 216.137 97.0312 219.021 95.6732C242.051 84.8416 268.879 78.2619 295.923 73.6059C326.356 68.3679 357.632 65.0538 388.738 62.1923C455.063 56.0975 522.156 53.7695 589.057 55.2245C655.958 56.6795 722.691 61.9013 788.318 70.8737C821.997 75.4812 855.364 81.0425 889.043 85.6661C923.154 90.3706 957.579 93.7494 992.291 95.6409C1060.3 99.3431 1128.62 98.0174 1196.62 95.2206C1196.89 95.2044 1197.13 95.1882 1197.39 95.1882C1197.49 95.1721 1197.56 95.1721 1197.66 95.1721C1197.83 95.1721 1198 95.1721 1198.14 95.2206C1199.2 95.4469 1199.03 96.7241 1197.66 96.7887Z" fill="#D3C4AF"/>
<path d="M2220.72 18.4294C2218.32 20.2078 2216.25 22.1477 2214.61 24.2979C2212.62 25.8661 2210.65 27.4504 2208.87 29.1317C2205.79 32.0579 2203.68 35.3235 2201.49 38.5891C2199.13 42.1135 2196.83 45.6539 2194.52 49.1944C2189.95 56.2269 2185.21 63.2431 2181.01 70.3726C2178.96 73.7999 2177.62 77.2919 2177.4 80.994C2177.31 82.7723 2177.57 84.6962 2177.59 86.5877C2174.64 84.5345 2171.78 82.3682 2168.89 80.3797C2165.09 77.7769 2158.46 81.1234 2161.32 84.292C2164.13 87.396 2167.02 90.5161 2170.53 93.3129C2148.7 83.8717 2123.87 77.9062 2098.84 73.6059C2068.41 68.3679 2037.13 65.0538 2006.03 62.1923C1939.7 56.0975 1872.63 53.7695 1805.71 55.2245C1738.81 56.6795 1672.07 61.9013 1606.47 70.8738C1572.77 75.4812 1539.4 81.0425 1505.72 85.6662C1471.61 90.3706 1437.19 93.7494 1402.47 95.6409C1334.47 99.3431 1266.15 98.0174 1198.14 95.2206C1198 95.1721 1197.83 95.1721 1197.66 95.1721C1197.56 95.1721 1197.49 95.1721 1197.39 95.1883C1197.3 95.1721 1197.2 95.1721 1197.11 95.1721C1196.94 95.1721 1196.77 95.1721 1196.63 95.2206C1128.62 98.0174 1060.3 99.3431 992.292 95.6409C957.579 93.7494 923.155 90.3706 889.043 85.6662C855.364 81.0425 821.998 75.4812 788.319 70.8738C722.692 61.9013 655.959 56.6795 589.058 55.2245C522.156 53.7695 455.063 56.0975 388.739 62.1923C357.632 65.0538 326.357 68.3679 295.923 73.6059C268.879 78.2619 242.051 84.8417 219.022 95.6733C216.137 97.0313 213.324 98.4539 210.584 99.9412C210.632 99.8442 210.632 99.7634 210.656 99.6664C215.68 70.7444 197.555 42.5823 174.381 18.9144C171.544 16.0368 168.635 12.8843 165.174 10.1522C194.886 10.7827 224.575 11.4132 254.263 12.0436C260.201 12.4155 266.163 12.561 272.172 12.4316C274.336 12.367 275.706 11.5748 276.379 10.5725C279.216 10.6857 282.053 10.8312 284.889 10.9928C298.423 11.785 311.933 12.7873 325.443 13.7088C352.343 15.5356 379.219 17.3948 406.119 19.2863C421.528 20.3694 436.937 21.4688 452.347 22.5681C453.044 22.6166 453.693 22.5196 454.294 22.3256C485.641 26.2541 516.844 30.6837 547.854 35.6307C550.811 36.0995 552.782 35.0648 553.431 33.6907C587.928 37.3605 622.232 41.7578 656.319 46.8341C657.666 47.0442 658.844 46.8664 659.781 46.4946C703.701 49.6794 746.731 56.6795 789.978 62.4833C802.526 64.1646 815.074 65.749 827.695 67.1231C828.512 67.204 829.306 67.1716 830.051 67.0746C830.291 67.1231 830.532 67.1878 830.796 67.2201C898.491 76.5482 966.954 83.3705 1035.75 87.6547C1055.3 88.8671 1074.87 89.8533 1094.46 90.6616C1095.59 90.7101 1096.5 90.5323 1097.22 90.209C1159.29 90.9365 1221.41 94.8649 1283.5 92.3268C1299.15 91.6963 1314.75 90.5808 1330.26 88.9965C1330.43 89.0126 1330.57 89.0288 1330.76 89.0288C1354.23 89.1743 1377.66 88.3336 1400.98 86.523C1403.24 86.3452 1405.21 85.456 1405.69 83.9687C1438.56 81.5599 1471.37 78.6175 1504.11 75.5297C1508.53 75.1094 1512.96 74.6729 1517.38 74.2526C1518.01 74.3172 1518.65 74.3011 1519.3 74.2364C1528.82 73.2664 1538.32 72.3126 1547.81 71.3426C1548.99 71.2133 1549.93 70.6798 1550.53 69.9846C1564.67 68.2709 1578.73 66.2986 1592.7 64.0676C1593.68 64.3425 1594.79 64.4071 1595.92 64.294C1618.47 61.9175 1641.01 59.541 1663.56 57.1645C1685.27 54.8689 1707.07 52.751 1728.2 48.5639C1729.09 48.3861 1729.79 48.1112 1730.32 47.7556C1754.29 45.2013 1778.23 42.4691 1802.08 39.3813C1815.56 37.6353 1829.05 35.76 1842.46 33.7553C1843.45 33.5937 1844.19 33.3027 1844.75 32.9147C1908.81 25.7206 1973.21 19.9814 2037.85 15.7458C2056.36 14.5333 2074.87 13.4501 2093.41 12.4801C2095.07 12.3831 2096.25 11.8658 2097.01 11.1545C2126.8 9.9905 2156.63 9.748 2186.44 10.427C2187.35 10.4593 2188.1 10.3138 2188.75 10.1037C2191.1 10.0875 2193.46 10.0713 2195.82 10.0713C2195.41 11.8335 2196.92 13.919 2200.38 14.0645C2206.75 14.3231 2213.39 14.8566 2219.76 15.9075C2219.54 16.8936 2219.95 17.7666 2220.72 18.4294Z" fill="#D3C4AF"/>
<path d="M2248.41 10.1849C2245.51 11.4459 2242.31 12.2057 2239.11 12.9979C2237.72 15.4875 2235.36 17.4437 2232.79 19.2705C2229.81 22.5846 2225.99 25.4623 2222.26 28.3723C2217.88 34.1599 2214.57 40.4164 2211.06 46.4303C2207.14 53.1718 2203.32 59.9294 2199.45 66.687C2198.58 68.2228 2197.72 69.7587 2196.87 71.2945C2196.87 73.7033 2196.63 76.0636 2196.08 78.3754C2195.34 85.6989 2194.57 93.0223 2193.8 100.33C2193.65 101.833 2192.07 102.949 2190.21 103.369C2188.29 103.822 2186.08 103.482 2184.83 101.962C2183.53 100.378 2181.13 99.5536 2178.99 98.5513C2176.49 97.3711 2174.18 96.0455 2172.11 94.542C2171.56 94.1378 2171.03 93.7337 2170.53 93.3133C2167.02 90.5165 2164.13 87.3964 2161.32 84.2924C2158.46 81.1238 2165.09 77.7773 2168.89 80.3801C2171.78 82.3686 2174.64 84.5349 2177.59 86.5881C2177.57 84.6966 2177.31 82.7727 2177.4 80.9944C2177.62 77.2923 2178.96 73.8003 2181.01 70.373C2185.21 63.2435 2189.95 56.2273 2194.52 49.1948C2196.83 45.6543 2199.13 42.1138 2201.49 38.5895C2203.68 35.3239 2205.79 32.0582 2208.87 29.1321C2210.65 27.4508 2212.62 25.8665 2214.61 24.2983C2216.25 22.1481 2218.32 20.2082 2220.72 18.4298C2219.95 17.767 2219.54 16.894 2219.76 15.9079C2213.39 14.857 2206.75 14.3235 2200.38 14.0649C2196.92 13.9194 2195.41 11.8339 2195.82 10.0717C2193.46 10.0717 2191.1 10.0879 2188.75 10.1041C2188.1 10.3142 2187.35 10.4597 2186.44 10.4274C2156.63 9.74839 2126.8 9.99089 2097.01 11.1549C2096.25 11.8662 2095.07 12.3835 2093.41 12.4805C2074.87 13.4505 2056.36 14.5337 2037.85 15.7462C1973.21 19.9818 1908.81 25.721 1844.75 32.9151C1844.19 33.3031 1843.45 33.5941 1842.46 33.7557C1829.05 35.7604 1815.56 37.6357 1802.08 39.3817C1778.23 42.4695 1754.29 45.2017 1730.32 47.756C1729.79 48.1116 1729.09 48.3865 1728.2 48.5643C1707.07 52.7514 1685.27 54.8693 1663.56 57.1649C1641.01 59.5414 1618.47 61.9179 1595.92 64.2944C1594.79 64.4075 1593.68 64.3429 1592.7 64.068C1578.73 66.299 1564.67 68.2713 1550.53 69.985C1549.93 70.6802 1548.99 71.2137 1547.81 71.343C1538.32 72.313 1528.82 73.2668 1519.3 74.2368C1518.65 74.3015 1518.01 74.3176 1517.38 74.253C1512.96 74.6733 1508.53 75.1098 1504.11 75.5301C1471.37 78.6179 1438.56 81.5603 1405.69 83.9691C1405.21 85.4564 1403.24 86.3456 1400.98 86.5234C1377.66 88.334 1354.23 89.1747 1330.76 89.0292C1330.57 89.0292 1330.43 89.013 1330.26 88.9969C1314.75 90.5812 1299.15 91.6967 1283.5 92.3272C1221.41 94.8653 1159.29 90.9369 1097.22 90.2094C1096.5 90.5327 1095.59 90.7105 1094.46 90.662C1074.87 89.8537 1055.3 88.8675 1035.75 87.655C966.954 83.3709 898.491 76.5486 830.796 67.2205C830.532 67.1882 830.291 67.1235 830.051 67.075C829.306 67.172 828.512 67.2043 827.695 67.1235C815.074 65.7494 802.526 64.165 789.977 62.4837C746.731 56.6799 703.701 49.6798 659.781 46.495C658.843 46.8668 657.665 47.0446 656.319 46.8345C622.232 41.7582 587.928 37.3609 553.431 33.6911C552.782 35.0652 550.811 36.0999 547.854 35.6311C516.844 30.6841 485.641 26.2545 454.293 22.326C453.693 22.52 453.043 22.617 452.346 22.5685C436.937 21.4692 421.528 20.3698 406.119 19.2867C379.219 17.3952 352.343 15.536 325.443 13.7092C311.933 12.7877 298.423 11.7854 284.889 10.9932C282.052 10.8316 279.216 10.6861 276.379 10.5729C275.706 11.5752 274.336 12.3674 272.172 12.432C266.162 12.5614 260.201 12.432 254.263 12.044C224.575 11.4135 194.886 10.7831 165.174 10.1526C168.635 12.8847 171.544 16.0372 174.381 18.9148C197.554 42.5827 215.68 70.7448 210.656 99.6668C210.632 99.7638 210.632 99.8446 210.584 99.9416C210.199 101.558 208.564 102.9 205.848 102.9C205.704 102.9 205.56 102.9 205.415 102.884C203.156 102.722 200.776 101.3 201.04 99.6668C202.338 92.2302 202.218 84.6804 200.535 77.2923C197.506 63.971 190.391 51.2318 181.16 39.3332C176.496 33.3354 171.328 27.5316 165.799 21.8895C161.448 17.476 156.616 11.2681 148.466 9.6999C143.322 8.71373 144.26 3.23327 149.764 3.3626C180.198 4.00927 210.632 4.65593 241.065 5.30259C241.546 5.07626 242.099 4.89843 242.748 4.83376C257.749 3.3626 272.725 3.76677 287.774 4.70443C342.343 8.06707 396.84 12.1249 451.337 16.021C452.226 15.7462 453.236 15.633 454.414 15.7785C473.212 18.1065 491.987 20.6608 510.69 23.3768C511.291 23.2151 511.964 23.1343 512.733 23.199C513.166 23.2313 513.574 23.2798 514.007 23.3121H514.079C561.917 27.6609 609.467 33.2869 656.608 40.2709C657.257 40.0284 657.978 39.899 658.747 39.9475C671.488 40.8529 684.181 42.0492 696.825 43.4557C741.538 48.4511 785.506 56.0171 830.243 60.8832C830.532 60.9156 830.772 60.9641 831.012 61.0287C831.71 60.8994 832.503 60.8671 833.344 60.9802C852.191 63.583 871.086 65.9919 890.029 68.1905C957.579 76.0636 1025.78 81.3824 1094.19 84.1792C1094.89 83.9044 1095.71 83.7266 1096.74 83.7266C1114.19 83.9367 1131.62 84.3732 1149.05 84.8744C1195.18 86.1677 1241.65 87.8167 1287.76 85.6827C1288.31 84.4864 1289.78 83.4841 1292.13 83.4032C1306.32 82.9667 1320.5 82.5141 1334.68 82.0614C1335.69 82.0291 1336.53 82.2231 1337.25 82.5302C1339.87 82.5302 1342.5 82.5302 1345.12 82.4979C1345.88 81.7543 1347.11 81.1884 1348.79 81.1076C1363.27 80.3639 1377.71 79.4748 1392.16 78.4886C1430.05 75.8696 1467.81 72.4908 1505.53 68.918C1506.42 68.3198 1507.67 67.948 1509.04 67.8348C1536.64 65.4422 1564.02 62.0311 1591.08 57.6822C1592.38 57.4721 1593.51 57.6176 1594.43 57.9409C1613.54 55.9363 1632.67 53.9154 1651.78 51.8946C1651.74 50.4881 1652.79 49.114 1655.2 48.8876C1668.8 47.5296 1682.43 46.1878 1696.04 44.8137C1717.39 42.6473 1738.73 40.4002 1760.01 37.9429C1760.56 37.2477 1761.45 36.6657 1762.75 36.4232C1775.3 34.0791 1788.11 32.5271 1801.09 31.6864C1802.13 31.6056 1803.09 31.8642 1803.88 32.2846C1814.84 30.9913 1825.78 29.5524 1836.65 27.9681C1837.25 27.4993 1838.02 27.1436 1838.95 27.0466C1857.49 24.945 1876.05 22.9726 1894.63 21.1135C1949.46 15.6492 2004.54 11.2681 2059.73 7.92157C2060.5 7.11325 2061.75 6.49892 2063.53 6.38575C2103.72 3.86377 2144.11 3.05544 2184.45 3.92843C2185.02 3.7506 2185.67 3.6536 2186.44 3.63744C2206.3 3.47577 2226.15 3.6536 2245.99 4.15477C2250.82 4.2841 2252.45 8.4389 2248.41 10.1849Z" fill="#D3C4AF"/>
<path d="M2389.84 136.3C2389.48 142.427 2388.49 148.522 2386.81 154.552C2379.96 178.932 2362.53 202.842 2336.18 220.383C2328.85 225.249 2320.63 228.013 2310.24 228.24C2301.68 228.417 2293.1 227.512 2284.91 225.895C2268.97 222.775 2254.5 216.761 2242.4 209.147C2236.35 205.332 2231.01 201.161 2226.27 196.731C2243.12 199.14 2260.31 200.368 2277.52 200.368C2277.89 200.368 2278.22 200.336 2278.53 200.288C2281.52 200.255 2284.5 199.98 2287.31 199.463C2296.4 197.798 2303.82 193.643 2309.47 188.68C2321.83 177.816 2327.33 163.379 2329.4 149.993C2331.61 135.605 2329.43 121.039 2325.58 106.861C2321.59 92.198 2315.82 77.7451 2309.67 63.4538C2303.29 48.6938 2295.94 34.0954 2286.25 20.1759C2284.88 18.2036 2283.37 16.2151 2281.66 14.3075C2280.46 12.0765 2278.97 9.89401 2277.19 7.84086C2276.32 6.8547 2275.41 5.90087 2274.42 4.97938C2273.39 4.04172 2272.4 3.12022 2270.91 2.57056C2270.36 2.03706 2269.5 1.64907 2268.27 1.5844C2259.69 1.22874 2251.13 0.937739 2242.57 0.69524C2172.59 -1.22858 2102.5 0.921572 2032.88 5.60987C1963.57 10.2658 1894.7 17.3953 1826.12 25.4139C1756.84 33.5295 1687.79 42.5828 1618.61 51.0702C1548.87 59.6062 1478.97 67.5763 1408.6 73.3478C1339.2 79.0384 1269.34 82.5465 1199.39 82.401C1199.08 82.401 1198.76 82.4172 1198.5 82.4657C1198.24 82.4172 1197.92 82.401 1197.61 82.401C1127.66 82.5465 1057.82 79.0384 988.397 73.3478C918.034 67.5763 848.128 59.6062 778.414 51.0702C709.229 42.5828 640.189 33.5295 570.884 25.4139C502.3 17.3953 433.427 10.2658 364.146 5.60987C294.505 0.921572 224.406 -1.22858 154.452 0.69524C145.87 0.937739 137.312 1.22874 128.754 1.5844C127.528 1.64907 126.663 2.03706 126.086 2.57056C124.619 3.12022 123.61 4.04172 122.6 4.97938C121.614 5.90087 120.677 6.8547 119.812 7.84086C118.033 9.89401 116.566 12.0765 115.34 14.3075C113.633 16.2151 112.143 18.2036 110.773 20.1759C101.085 34.0954 93.7049 48.6938 87.3586 63.4538C81.1805 77.7451 75.4111 92.198 71.4206 106.861C67.5743 121.039 65.3867 135.605 67.5983 149.993C69.6657 163.379 75.1947 177.816 87.5509 188.68C93.1761 193.643 100.628 197.798 109.715 199.463C112.047 199.883 114.499 200.142 116.951 200.239C117.215 200.32 117.504 200.401 117.816 200.433C133.658 202.438 149.764 202.664 165.654 201.161C162.241 203.957 158.587 206.625 154.596 209.147C142.529 216.761 128.033 222.775 112.095 225.895C103.898 227.512 95.3155 228.417 86.7816 228.24C76.3726 228.013 68.1512 225.249 60.8433 220.383C34.4723 202.842 17.0438 178.932 10.1926 154.552C8.50989 148.522 7.52428 142.427 7.16369 136.3C6.97138 133.213 -0.168276 133.196 -1.49916e-06 136.3C1.61063 163.428 15.7697 190.103 40.2657 211.701C46.2996 217.02 52.8142 222.484 60.5789 226.704C68.9445 231.247 78.7044 233.138 89.4019 233.073C91.2048 233.057 92.8876 233.009 94.5703 232.944C96.5896 233.057 98.6089 233.219 100.604 233.478C101.878 233.639 103.056 233.946 104.282 234.221C105.316 234.448 106.374 234.625 107.455 234.787C107.888 234.916 108.369 235.03 108.874 235.078C252.748 246.459 397.513 251.713 542.277 254.122C687.474 256.531 832.767 256.224 977.988 256.353C1125.28 256.483 1272.54 256.612 1419.83 256.741C1566.2 256.871 1712.58 257.178 1858.95 256.984C1932.01 256.887 2005.09 256.596 2078.17 255.901C2114.71 255.545 2151.22 255.108 2187.76 254.526C2217.11 254.058 2247.12 253.492 2275.51 247.833C2288.97 245.15 2301.66 241.254 2313.37 236C2313.7 235.854 2313.97 235.676 2314.18 235.498C2316.32 234.351 2318.42 233.219 2320.89 232.346C2322.24 231.861 2323.66 231.521 2325.05 231.117C2325.27 231.053 2325.48 230.988 2325.7 230.907C2329.47 229.905 2333.06 228.514 2336.42 226.688C2344.19 222.468 2350.68 217.004 2356.71 211.685C2381.23 190.087 2395.37 163.412 2396.98 136.284C2397.17 133.18 2390 133.196 2389.81 136.284L2389.84 136.3ZM2220.53 190.911C2207.59 176.571 2200.53 159.936 2197.81 143.09C2195.62 129.607 2195.91 115.979 2197.45 102.48C2197.81 99.3436 2198.27 96.2073 2198.77 93.0871C2210.65 92.7153 2222.52 92.198 2234.4 92.1818C2243.37 92.1656 2252.28 92.6506 2261.11 93.5721C2260.41 94.1865 2259.76 94.817 2259.16 95.4475C2256.54 98.1634 2254.21 100.993 2252.09 103.886C2247.69 109.868 2244.23 116.157 2241.8 122.623C2236.99 135.379 2236.11 148.716 2239.04 161.73C2240.46 168.116 2242.88 174.405 2246.27 180.451C2249.13 185.528 2252.4 191.073 2258.17 195.017C2245.5 194.322 2232.93 192.964 2220.53 190.911ZM2266.03 97.1611C2267.12 96.1103 2268.41 95.1241 2269.88 94.6715C2270.12 94.7038 2270.36 94.72 2270.6 94.7523C2271.52 94.8978 2272.31 94.8008 2272.98 94.5583C2273.53 94.6876 2274.06 94.8655 2274.64 95.1565C2277.93 96.8701 2279.66 99.8124 2281.3 102.286C2289.26 114.298 2293.13 127.425 2293.1 140.536C2285.41 140.908 2277.67 140.649 2270.05 139.825C2265.82 139.356 2261.61 138.758 2257.45 138.063C2253.46 137.384 2249.47 136.656 2245.34 136.721C2246.63 128.654 2249.47 120.683 2253.8 113.134C2257 107.572 2261.03 102.092 2266.03 97.1611ZM2276.64 18.0096C2281.59 23.8943 2285.34 30.377 2288.94 36.682C2296.56 50.0194 2302.55 63.7448 2308.05 77.5349C2318.25 103.094 2327.96 130.432 2320.77 156.961C2317.55 168.811 2311.18 182.521 2297.07 190.604C2290.91 194.144 2282.65 196.149 2274.5 195.357C2265.02 194.451 2260.12 189.747 2256.35 184.267C2247.21 170.978 2243.49 156.169 2244.74 141.571C2249.11 141.409 2253.25 142.363 2257.48 143.026C2261.66 143.688 2265.87 144.254 2270.1 144.675C2278.78 145.548 2287.48 145.855 2296.2 145.224C2298.1 145.337 2300.22 144.578 2300.27 142.912C2300.53 135.589 2299.62 128.266 2297.53 121.088C2295.43 113.894 2292.09 106.91 2287.72 100.217C2284.5 95.3181 2278.75 88.1887 2269.14 89.7083C2258.08 88.2372 2246.83 87.4127 2235.55 87.3965C2223.61 87.3642 2211.61 87.8815 2199.69 88.2533C2201.1 81.0915 2203.03 73.9621 2205.6 66.9458C2209.88 55.3382 2215.94 43.9893 2224.71 33.5457C2228.99 28.4532 2233.89 23.5709 2239.49 19.0928C2242.33 16.8295 2245.31 14.647 2248.46 12.5938C2251.59 10.5568 2255.29 8.42286 2259.9 8.45519C2267.62 8.51986 2273.22 13.9842 2276.64 18.0096ZM122.504 195.341C114.355 196.133 106.109 194.128 99.9311 190.588C85.8441 182.504 79.4497 168.795 76.2284 156.945C69.0407 130.416 78.7525 103.078 88.9692 77.5187C94.4742 63.7287 100.436 50.0033 108.08 36.6658C111.686 30.3609 115.412 23.8781 120.388 17.9935C123.778 13.968 129.379 8.50369 137.12 8.43902C141.735 8.40669 145.413 10.5407 148.538 12.5777C151.688 14.6308 154.668 16.8133 157.505 19.0766C163.106 23.5548 168.01 28.4371 172.313 33.5295C181.064 43.9731 187.145 55.322 191.4 66.9296C193.997 73.9459 195.92 81.0754 197.338 88.2372C185.391 87.8653 173.419 87.348 161.472 87.3803C150.173 87.3965 138.923 88.221 127.865 89.6922C118.273 88.1725 112.504 95.3019 109.306 100.2C104.907 106.893 101.566 113.877 99.4743 121.071C97.3829 128.249 96.4694 135.573 96.7339 142.896C96.806 144.561 98.8974 145.321 100.796 145.208C109.523 145.839 118.249 145.531 126.903 144.658C131.158 144.238 135.365 143.672 139.524 143.009C143.755 142.347 147.889 141.393 152.264 141.554C153.539 156.153 149.788 170.961 140.654 184.25C136.879 189.731 131.975 194.435 122.504 195.341ZM130.966 97.1611C135.966 102.092 140.004 107.572 143.202 113.134C147.553 120.683 150.365 128.654 151.688 136.721C147.553 136.656 143.538 137.384 139.548 138.063C135.389 138.758 131.182 139.356 126.951 139.825C119.331 140.649 111.59 140.908 103.898 140.536C103.898 127.425 107.768 114.298 115.701 102.286C117.335 99.8124 119.066 96.8701 122.384 95.1565C122.937 94.8655 123.49 94.6876 124.018 94.5583C124.691 94.8008 125.485 94.8978 126.422 94.7523C126.639 94.72 126.879 94.7038 127.119 94.6715C128.61 95.1241 129.908 96.1103 130.966 97.1611ZM135.197 197.119C143.37 193.271 147.312 186.498 150.726 180.451C154.14 174.405 156.543 168.116 157.986 161.73C160.895 148.716 160.005 135.379 155.197 122.623C152.769 116.157 149.308 109.868 144.933 103.886C142.817 100.993 140.461 98.1634 137.865 95.4475C137.24 94.817 136.615 94.1865 135.894 93.5721C144.74 92.6506 153.659 92.1656 162.601 92.1818C174.477 92.198 186.376 92.7153 198.228 93.0871C198.756 96.2073 199.189 99.3436 199.55 102.48C201.088 115.979 201.377 129.607 199.213 143.09C196.208 161.827 187.746 180.306 171.856 195.664C171.592 195.664 171.304 195.68 171.015 195.712C159.212 197.232 147.144 197.685 135.197 197.119ZM2219.11 248.933C2184.64 250.355 2149.95 250.307 2115.43 250.695C2042.37 251.536 1969.29 251.924 1896.21 252.101C1751.33 252.441 1606.47 252.085 1461.59 251.956C1172.59 251.713 883.394 253.605 594.442 250.064C433.812 248.092 273.134 243.097 113.465 230.616C123.081 228.757 132.288 225.96 140.702 222.403C173.804 208.436 194.117 184.832 202.41 159.596C207.074 145.354 208.372 130.674 207.795 116.124C207.218 102.593 205.295 89.0132 201.569 75.7242C197.963 62.9688 192.506 50.4074 184.285 38.6543C176.352 27.3216 165.414 15.8271 151.111 7.64686C149.837 6.91937 148.514 6.28887 147.144 5.73921C210.656 3.76689 274.312 5.10871 337.631 8.76235C407.97 12.8202 477.876 19.6424 547.445 27.5641C616.775 35.4695 685.815 44.4743 754.952 53.0426C823.704 61.5785 892.577 69.6779 961.858 75.8859C1031.5 82.11 1101.6 86.3942 1171.86 87.1055C1180.45 87.2025 1189.03 87.2348 1197.61 87.2187C1197.92 87.2187 1198.24 87.1863 1198.5 87.1378C1198.76 87.1863 1199.08 87.2187 1199.39 87.2187C1207.97 87.2348 1216.55 87.2025 1225.14 87.1055C1295.4 86.3942 1365.5 82.11 1435.14 75.8859C1504.45 69.6779 1573.32 61.5785 1642.05 53.0426C1711.18 44.4743 1780.23 35.4695 1849.55 27.5641C1919.12 19.6424 1989.05 12.8202 2059.37 8.76235C2122.71 5.10871 2186.34 3.76689 2249.86 5.73921C2248.49 6.28887 2247.16 6.91937 2245.89 7.64686C2231.59 15.8271 2220.65 27.3216 2212.74 38.6543C2204.52 50.4074 2199.04 62.9688 2195.46 75.7242C2191.71 89.0132 2189.78 102.593 2189.23 116.124C2188.63 130.674 2189.93 145.354 2194.59 159.596C2202.88 184.832 2223.22 208.436 2256.3 222.403C2271.4 228.789 2289.04 232.815 2306.93 233.057C2280.55 244.18 2249.86 247.672 2219.11 248.933Z" fill="#1A171B"/>
<path d="M2293.1 140.536C2285.41 140.908 2277.67 140.649 2270.05 139.825C2265.82 139.356 2261.61 138.758 2257.45 138.063C2253.46 137.384 2249.47 136.656 2245.34 136.721C2246.64 128.654 2249.47 120.684 2253.8 113.134C2257 107.573 2261.03 102.092 2266.03 97.1614C2267.12 96.1106 2268.41 95.1244 2269.88 94.6718C2270.12 94.7041 2270.36 94.7203 2270.6 94.7526C2271.52 94.8981 2272.31 94.8011 2272.98 94.5586C2273.53 94.6879 2274.06 94.8658 2274.64 95.1568C2277.93 96.8704 2279.66 99.8127 2281.3 102.286C2289.26 114.298 2293.13 127.425 2293.1 140.536Z" fill="#99856D"/>
<path d="M2320.77 156.945C2317.55 168.795 2311.18 182.504 2297.07 190.587C2290.91 194.128 2282.64 196.133 2274.5 195.34C2265.02 194.435 2260.12 189.731 2256.35 184.25C2247.21 170.961 2243.49 156.153 2244.74 141.554C2249.11 141.393 2253.25 142.346 2257.48 143.009C2261.66 143.672 2265.87 144.238 2270.1 144.658C2278.77 145.531 2287.48 145.838 2296.2 145.208C2298.1 145.321 2300.22 144.561 2300.27 142.896C2300.53 135.573 2299.62 128.249 2297.53 121.071C2295.43 113.877 2292.09 106.893 2287.72 100.2C2284.5 95.3018 2278.75 88.1723 2269.13 89.692C2258.08 88.2208 2246.83 87.3963 2235.55 87.3801C2223.6 87.3478 2211.61 87.8651 2199.69 88.237C2201.1 81.0752 2203.03 73.9457 2205.6 66.9295C2209.88 55.3219 2215.94 43.9729 2224.71 33.5293C2228.99 28.4369 2233.89 23.5546 2239.49 19.0764C2242.33 16.8131 2245.31 14.6306 2248.46 12.5775C2251.59 10.5405 2255.29 8.40651 2259.9 8.43884C2267.62 8.50351 2273.22 13.9678 2276.64 17.9933C2281.59 23.8779 2285.34 30.3607 2288.94 36.6657C2296.56 50.0031 2302.55 63.7285 2308.05 77.5185C2318.25 103.078 2327.96 130.416 2320.77 156.945Z" fill="#D3C4AF"/>
<path d="M2241.8 122.624C2237 135.379 2236.11 148.716 2239.04 161.731C2240.46 168.116 2242.88 174.405 2246.27 180.451C2249.13 185.528 2252.4 191.073 2258.17 195.018C2245.5 194.322 2232.93 192.964 2220.53 190.911C2207.6 176.571 2200.53 159.936 2197.81 143.091C2195.62 129.608 2195.91 115.979 2197.45 102.48C2197.81 99.3438 2198.27 96.2075 2198.77 93.0874C2210.65 92.7155 2222.52 92.1982 2234.4 92.182C2243.37 92.1659 2252.28 92.6509 2261.11 93.5724C2260.41 94.1867 2259.76 94.8172 2259.16 95.4477C2256.54 98.1637 2254.21 100.993 2252.09 103.887C2247.69 109.868 2244.23 116.157 2241.8 122.624Z" fill="#BAA78E"/>
<path d="M199.213 143.091C196.208 161.828 187.747 180.306 171.857 195.664C171.592 195.664 171.304 195.68 171.015 195.713C159.212 197.232 147.144 197.685 135.197 197.119C143.37 193.272 147.313 186.498 150.726 180.451C154.14 174.405 156.544 168.116 157.986 161.731C160.895 148.716 160.005 135.379 155.197 122.624C152.769 116.157 149.308 109.868 144.933 103.887C142.817 100.993 140.461 98.1637 137.865 95.4477C137.24 94.8172 136.615 94.1867 135.894 93.5724C144.74 92.6509 153.659 92.1659 162.601 92.182C174.477 92.1982 186.376 92.7155 198.228 93.0874C198.757 96.2075 199.189 99.3438 199.55 102.48C201.088 115.979 201.377 129.608 199.213 143.091Z" fill="#BAA78E"/>
<path d="M151.687 136.721C147.553 136.656 143.538 137.384 139.548 138.063C135.389 138.758 131.182 139.356 126.951 139.825C119.331 140.649 111.59 140.908 103.897 140.536C103.897 127.425 107.768 114.298 115.701 102.286C117.335 99.8127 119.066 96.8704 122.384 95.1568C122.937 94.8658 123.489 94.6879 124.018 94.5586C124.691 94.8011 125.485 94.8981 126.422 94.7526C126.639 94.7203 126.879 94.7041 127.119 94.6718C128.61 95.1244 129.908 96.1106 130.966 97.1614C135.966 102.092 140.004 107.573 143.202 113.134C147.553 120.684 150.365 128.654 151.687 136.721Z" fill="#99856D"/>
<path d="M99.4746 121.071C97.3832 128.249 96.4697 135.573 96.7341 142.896C96.8062 144.561 98.8977 145.321 100.797 145.208C109.523 145.838 118.249 145.531 126.903 144.658C131.158 144.238 135.365 143.672 139.524 143.009C143.755 142.346 147.89 141.393 152.265 141.554C153.539 156.153 149.789 170.961 140.654 184.25C136.88 189.731 131.976 194.435 122.504 195.34C114.355 196.133 106.109 194.128 99.9313 190.587C85.8443 182.504 79.4499 168.795 76.2287 156.945C69.0409 130.416 78.7528 103.078 88.9694 77.5185C94.4744 63.7285 100.436 50.0031 108.081 36.6657C111.687 30.3607 115.413 23.8779 120.389 17.9933C123.778 13.9678 129.379 8.50351 137.12 8.43884C141.736 8.40651 145.414 10.5405 148.539 12.5775C151.688 14.6306 154.669 16.8131 157.505 19.0764C163.106 23.5546 168.01 28.4369 172.313 33.5293C181.064 43.9729 187.146 55.3219 191.401 66.9295C193.997 73.9457 195.92 81.0752 197.338 88.237C185.391 87.8651 173.419 87.3478 161.472 87.3801C150.173 87.3963 138.923 88.2208 127.865 89.692C118.273 88.1723 112.504 95.3018 109.307 100.2C104.907 106.893 101.566 113.877 99.4746 121.071Z" fill="#D3C4AF"/>
</g>
<defs>
<clipPath id="clip0_7376_3">
<rect width="2397" height="257.048" fill="white"/>
</clipPath>
</defs>
</svg>
