<svg width="2397" height="258" preserveAspectRatio="none" viewBox="0 0 2397 258" fill="none" xmlns="http://www.w3.org/2000/svg">
<g clip-path="url(#clip0_7376_34)">
<path d="M1198.5 82.4658C1195.06 82.9832 1195.09 86.6045 1198.5 87.138C1201.94 86.6045 1201.94 82.9832 1198.5 82.4658Z" fill="#1A171B"/>
<path d="M2306.93 233.057C2280.55 244.179 2249.86 247.671 2219.11 248.932C2184.64 250.355 2149.95 250.307 2115.43 250.695C2042.37 251.535 1969.29 251.923 1896.21 252.101C1751.33 252.44 1606.47 252.085 1461.59 251.956C1172.59 251.713 883.394 253.604 594.442 250.064C433.812 248.092 273.134 243.096 113.465 230.616C123.081 228.756 132.288 225.96 140.702 222.403C173.804 208.435 194.117 184.832 202.41 159.596C207.074 145.353 208.372 130.674 207.795 116.124C207.218 102.593 205.295 89.0127 201.569 75.7238C197.963 62.9684 192.506 50.407 184.285 38.6539C176.352 27.3211 165.414 15.8267 151.111 7.64643C149.837 6.91894 148.515 6.28844 147.144 5.73878C210.656 3.76646 274.312 5.10828 337.631 8.76192C407.97 12.8197 477.876 19.642 547.446 27.5636C616.775 35.4691 685.815 44.4739 754.952 53.0421C823.704 61.5781 892.577 69.6775 961.858 75.8855C1031.5 82.1096 1101.6 86.3937 1171.86 87.1051C1180.45 87.2021 1189.03 87.2344 1197.61 87.2182C1197.92 87.2182 1198.24 87.1859 1198.5 87.1374C1198.76 87.1859 1199.08 87.2182 1199.39 87.2182C1207.97 87.2344 1216.55 87.2021 1225.14 87.1051C1295.4 86.3937 1365.5 82.1096 1435.14 75.8855C1504.45 69.6775 1573.32 61.5781 1642.05 53.0421C1711.19 44.4739 1780.23 35.4691 1849.55 27.5636C1919.12 19.642 1989.05 12.8197 2059.37 8.76192C2122.71 5.10828 2186.34 3.76646 2249.86 5.73878C2248.49 6.28844 2247.16 6.91894 2245.89 7.64643C2231.59 15.8267 2220.65 27.3211 2212.74 38.6539C2204.52 50.407 2199.04 62.9684 2195.46 75.7238C2191.71 89.0127 2189.78 102.593 2189.23 116.124C2188.63 130.674 2189.93 145.353 2194.59 159.596C2202.88 184.832 2223.22 208.435 2256.3 222.403C2271.4 228.789 2289.04 232.814 2306.93 233.057Z" fill="#EFE2CB"/>
<path d="M2303.17 230.292C2294.02 230.971 2284.98 230.179 2276.01 228.983C2275.77 227.722 2274.47 226.817 2272.6 226.299C2266.11 224.489 2259.64 222.613 2253.13 220.851C2252.24 220.609 2251.35 220.399 2250.46 220.188C2249.23 218.184 2246.78 216.68 2244.06 215.468C2242.16 214.611 2239.81 213.9 2238.08 212.849C2238 212.8 2237.93 212.768 2237.88 212.719C2237.33 212.364 2236.85 211.96 2236.47 211.507C2235.82 210.699 2234.88 210.262 2233.89 210.052C2230.86 208.047 2227.84 206.026 2224.9 203.957C2224.83 203.909 2224.78 203.876 2224.71 203.844C2225.17 202.712 2224.78 201.403 2223.58 200.562C2223.58 200.061 2223.39 199.544 2222.93 199.026C2221.32 197.151 2220.22 195.243 2219.47 193.142C2219.09 192.042 2218.1 191.396 2216.92 191.072C2216.9 191.04 2216.87 190.992 2216.85 190.959C2216.71 190.814 2216.59 190.668 2216.47 190.523C2216.32 189.553 2215.6 188.647 2214.3 188.13C2210.94 184.299 2207.96 180.322 2205.38 176.215C2204.97 175.552 2204.11 175.116 2203.1 174.89C2200.62 168.94 2198.53 162.959 2195.89 157.042C2193.15 150.898 2192.26 144.577 2191.2 138.224C2190.12 131.838 2188.32 125.339 2192.43 119.26C2193.46 117.676 2193.12 115.817 2190.72 114.863C2190.5 114.782 2190.26 114.718 2190.02 114.653C2193.65 110.628 2196.85 106.36 2199.52 101.801C2200.65 99.8768 2196.03 99.0523 2194.93 100.944C2192.21 105.584 2188.84 110.029 2184.88 114.233C2150.09 151.173 2083.12 163.282 2023.57 172.157C1954.03 182.52 1884.05 191.574 1813.78 199.35C1742.99 207.19 1671.86 213.722 1600.53 218.944C1529.33 224.149 1457.88 228.061 1386.37 230.648C1325.11 232.863 1263.79 234.108 1202.47 234.399C1141.12 234.108 1079.79 232.863 1018.57 230.648C947.025 228.061 875.605 224.149 804.401 218.944C733.076 213.722 661.944 207.19 591.149 199.35C520.858 191.557 450.88 182.504 381.358 172.157C321.789 163.282 254.84 151.173 220.055 114.233C216.089 110.013 212.723 105.584 210.007 100.944C208.901 99.0523 204.285 99.8768 205.415 101.801C205.68 102.253 205.968 102.674 206.256 103.126C204.021 103.595 202.122 105.438 203.059 107.039C204.862 110.159 206.232 113.376 207.218 116.642C206.713 117.127 206.425 117.709 206.473 118.42C209.117 150.09 194.646 181.922 166.327 207.287C164.068 209.324 161.664 211.297 159.188 213.237C158.13 213.043 156.952 213.156 155.846 213.722L144.932 219.348C136.014 223.179 125.989 225.717 115.388 226.784C113.08 227.027 111.662 228.886 111.975 230.309C112.335 231.958 114.234 232.96 116.662 233.089C143.442 234.512 170.198 235.918 196.977 237.341C198.179 239.782 203.516 240.979 205.631 238.198C205.704 238.101 205.752 238.004 205.824 237.923C212.194 239.669 219.021 240.671 226.041 240.865C226.714 240.882 227.291 240.785 227.844 240.639C234.19 241.124 240.681 240.865 247.027 239.782C248.013 239.621 248.758 239.313 249.287 238.942C263.229 240.445 277.244 241.706 291.307 242.692C293.399 242.838 294.841 241.997 295.514 240.898C300.923 241.286 306.356 241.625 311.789 241.932C312.414 243.258 314.121 243.969 316.284 244.147C353.785 247.3 391.599 248.69 429.389 248.334C430.158 248.949 431.312 249.401 432.85 249.482C465.544 251.357 498.357 251.972 531.147 251.325C532.998 251.293 534.344 250.63 535.113 249.757C540.594 250.064 546.099 250.29 551.58 250.404C581.437 251.794 611.366 252.618 641.318 252.861C652.641 252.958 663.939 252.958 675.262 252.893C675.719 252.893 676.151 252.845 676.536 252.78C717.379 253.233 758.221 253.508 799.088 253.572C842.262 253.637 885.437 253.475 928.611 253.087C951.352 252.877 974.118 252.602 996.859 252.279C997.604 252.699 998.59 252.974 999.84 252.974H1370.64C1371.61 252.974 1372.4 252.796 1373.05 252.538H1754.58C1755.22 252.796 1756.04 252.974 1757 252.974H2106.73C2107.38 252.974 2107.95 252.893 2108.48 252.764H2201.37C2202.69 252.764 2203.72 252.441 2204.47 251.972C2213.12 251.81 2221.71 251.196 2230.26 250.29C2234.16 249.87 2238 249.337 2241.85 248.738C2246.61 248.124 2251.37 247.461 2256.13 246.766C2257.12 246.621 2258.13 246.475 2259.11 246.33C2261.68 246.637 2264.33 246.879 2267 247.073C2271.76 247.397 2275.87 245.699 2278.56 243.193C2287.91 241.48 2297.07 239.362 2305.75 236.323C2309.76 234.916 2308.1 229.985 2303.34 230.341L2303.17 230.292ZM177.698 223.47C177.578 224.02 177.457 224.569 177.337 225.119C177.217 224.537 176.856 224.004 176.231 223.583C176.736 223.017 177.217 222.452 177.722 221.886C177.722 222.419 177.698 222.953 177.674 223.47H177.698Z" fill="#D3C4AF"/>
<path d="M2389.84 136.3C2389.48 142.427 2388.49 148.522 2386.81 154.552C2379.96 178.932 2362.53 202.842 2336.18 220.383C2328.85 225.249 2320.63 228.013 2310.24 228.24C2301.68 228.417 2293.1 227.512 2284.91 225.895C2268.97 222.775 2254.5 216.761 2242.4 209.147C2236.35 205.332 2231.01 201.161 2226.27 196.731C2243.12 199.14 2260.31 200.368 2277.52 200.368C2277.89 200.368 2278.22 200.336 2278.53 200.288C2281.52 200.255 2284.5 199.98 2287.31 199.463C2296.4 197.798 2303.82 193.643 2309.47 188.68C2321.83 177.816 2327.33 163.379 2329.4 149.993C2331.61 135.605 2329.43 121.039 2325.58 106.861C2321.59 92.198 2315.82 77.7451 2309.67 63.4538C2303.29 48.6938 2295.94 34.0954 2286.25 20.1759C2284.88 18.2036 2283.37 16.2151 2281.66 14.3075C2280.46 12.0765 2278.97 9.89401 2277.19 7.84086C2276.32 6.8547 2275.41 5.90087 2274.42 4.97938C2273.39 4.04172 2272.4 3.12022 2270.91 2.57056C2270.36 2.03706 2269.5 1.64907 2268.27 1.5844C2259.69 1.22874 2251.13 0.937739 2242.57 0.69524C2172.59 -1.22858 2102.5 0.921572 2032.88 5.60987C1963.57 10.2658 1894.7 17.3953 1826.12 25.4139C1756.84 33.5295 1687.79 42.5828 1618.61 51.0702C1548.87 59.6062 1478.97 67.5763 1408.6 73.3478C1339.2 79.0384 1269.34 82.5465 1199.39 82.401C1199.08 82.401 1198.76 82.4172 1198.5 82.4657C1198.24 82.4172 1197.92 82.401 1197.61 82.401C1127.66 82.5465 1057.82 79.0384 988.397 73.3478C918.034 67.5763 848.128 59.6062 778.414 51.0702C709.229 42.5828 640.189 33.5295 570.884 25.4139C502.3 17.3953 433.427 10.2658 364.146 5.60987C294.505 0.921572 224.406 -1.22858 154.452 0.69524C145.87 0.937739 137.312 1.22874 128.754 1.5844C127.528 1.64907 126.663 2.03706 126.086 2.57056C124.619 3.12022 123.61 4.04172 122.6 4.97938C121.614 5.90087 120.677 6.8547 119.812 7.84086C118.033 9.89401 116.566 12.0765 115.34 14.3075C113.633 16.2151 112.143 18.2036 110.773 20.1759C101.085 34.0954 93.7049 48.6938 87.3586 63.4538C81.1805 77.7451 75.4111 92.198 71.4206 106.861C67.5743 121.039 65.3867 135.605 67.5983 149.993C69.6657 163.379 75.1947 177.816 87.5509 188.68C93.1761 193.643 100.628 197.798 109.715 199.463C112.047 199.883 114.499 200.142 116.951 200.239C117.215 200.32 117.504 200.401 117.816 200.433C133.658 202.438 149.764 202.664 165.654 201.161C162.241 203.957 158.587 206.625 154.596 209.147C142.529 216.761 128.033 222.775 112.095 225.895C103.898 227.512 95.3155 228.417 86.7816 228.24C76.3726 228.013 68.1512 225.249 60.8433 220.383C34.4723 202.842 17.0438 178.932 10.1926 154.552C8.50989 148.522 7.52428 142.427 7.16369 136.3C6.97138 133.213 -0.168276 133.196 -1.49916e-06 136.3C1.61063 163.428 15.7697 190.103 40.2657 211.701C46.2996 217.02 52.8142 222.484 60.5789 226.704C68.9445 231.247 78.7044 233.138 89.4019 233.073C91.2048 233.057 92.8876 233.009 94.5703 232.944C96.5896 233.057 98.6089 233.219 100.604 233.478C101.878 233.639 103.056 233.946 104.282 234.221C105.316 234.448 106.374 234.625 107.455 234.787C107.888 234.916 108.369 235.03 108.874 235.078C252.748 246.459 397.513 251.713 542.277 254.122C687.474 256.531 832.767 256.224 977.988 256.353C1125.28 256.483 1272.54 256.612 1419.83 256.741C1566.2 256.871 1712.58 257.178 1858.95 256.984C1932.01 256.887 2005.09 256.596 2078.17 255.901C2114.71 255.545 2151.22 255.108 2187.76 254.526C2217.11 254.058 2247.12 253.492 2275.51 247.833C2288.97 245.15 2301.66 241.254 2313.37 236C2313.7 235.854 2313.97 235.676 2314.18 235.498C2316.32 234.351 2318.42 233.219 2320.89 232.346C2322.24 231.861 2323.66 231.521 2325.05 231.117C2325.27 231.053 2325.48 230.988 2325.7 230.907C2329.47 229.905 2333.06 228.514 2336.42 226.688C2344.19 222.468 2350.68 217.004 2356.71 211.685C2381.23 190.087 2395.37 163.412 2396.98 136.284C2397.17 133.18 2390 133.196 2389.81 136.284L2389.84 136.3ZM2220.53 190.911C2207.59 176.571 2200.53 159.936 2197.81 143.09C2195.62 129.607 2195.91 115.979 2197.45 102.48C2197.81 99.3436 2198.27 96.2073 2198.77 93.0871C2210.65 92.7153 2222.52 92.198 2234.4 92.1818C2243.37 92.1656 2252.28 92.6506 2261.11 93.5721C2260.41 94.1865 2259.76 94.817 2259.16 95.4475C2256.54 98.1634 2254.21 100.993 2252.09 103.886C2247.69 109.868 2244.23 116.157 2241.8 122.623C2236.99 135.379 2236.11 148.716 2239.04 161.73C2240.46 168.116 2242.88 174.405 2246.27 180.451C2249.13 185.528 2252.4 191.073 2258.17 195.017C2245.5 194.322 2232.93 192.964 2220.53 190.911ZM2266.03 97.1611C2267.12 96.1103 2268.41 95.1241 2269.88 94.6715C2270.12 94.7038 2270.36 94.72 2270.6 94.7523C2271.52 94.8978 2272.31 94.8008 2272.98 94.5583C2273.53 94.6876 2274.06 94.8655 2274.64 95.1565C2277.93 96.8701 2279.66 99.8124 2281.3 102.286C2289.26 114.298 2293.13 127.425 2293.1 140.536C2285.41 140.908 2277.67 140.649 2270.05 139.825C2265.82 139.356 2261.61 138.758 2257.45 138.063C2253.46 137.384 2249.47 136.656 2245.34 136.721C2246.63 128.654 2249.47 120.683 2253.8 113.134C2257 107.572 2261.03 102.092 2266.03 97.1611ZM2276.64 18.0096C2281.59 23.8943 2285.34 30.377 2288.94 36.682C2296.56 50.0194 2302.55 63.7448 2308.05 77.5349C2318.25 103.094 2327.96 130.432 2320.77 156.961C2317.55 168.811 2311.18 182.521 2297.07 190.604C2290.91 194.144 2282.65 196.149 2274.5 195.357C2265.02 194.451 2260.12 189.747 2256.35 184.267C2247.21 170.978 2243.49 156.169 2244.74 141.571C2249.11 141.409 2253.25 142.363 2257.48 143.026C2261.66 143.688 2265.87 144.254 2270.1 144.675C2278.78 145.548 2287.48 145.855 2296.2 145.224C2298.1 145.337 2300.22 144.578 2300.27 142.912C2300.53 135.589 2299.62 128.266 2297.53 121.088C2295.43 113.894 2292.09 106.91 2287.72 100.217C2284.5 95.3181 2278.75 88.1887 2269.14 89.7083C2258.08 88.2372 2246.83 87.4127 2235.55 87.3965C2223.61 87.3642 2211.61 87.8815 2199.69 88.2533C2201.1 81.0915 2203.03 73.9621 2205.6 66.9458C2209.88 55.3382 2215.94 43.9893 2224.71 33.5457C2228.99 28.4532 2233.89 23.5709 2239.49 19.0928C2242.33 16.8295 2245.31 14.647 2248.46 12.5938C2251.59 10.5568 2255.29 8.42286 2259.9 8.45519C2267.62 8.51986 2273.22 13.9842 2276.64 18.0096ZM122.504 195.341C114.355 196.133 106.109 194.128 99.9311 190.588C85.8441 182.504 79.4497 168.795 76.2284 156.945C69.0407 130.416 78.7525 103.078 88.9692 77.5187C94.4742 63.7287 100.436 50.0033 108.08 36.6658C111.686 30.3609 115.412 23.8781 120.388 17.9935C123.778 13.968 129.379 8.50369 137.12 8.43902C141.735 8.40669 145.413 10.5407 148.538 12.5777C151.688 14.6308 154.668 16.8133 157.505 19.0766C163.106 23.5548 168.01 28.4371 172.313 33.5295C181.064 43.9731 187.145 55.322 191.4 66.9296C193.997 73.9459 195.92 81.0754 197.338 88.2372C185.391 87.8653 173.419 87.348 161.472 87.3803C150.173 87.3965 138.923 88.221 127.865 89.6922C118.273 88.1725 112.504 95.3019 109.306 100.2C104.907 106.893 101.566 113.877 99.4743 121.071C97.3829 128.249 96.4694 135.573 96.7339 142.896C96.806 144.561 98.8974 145.321 100.796 145.208C109.523 145.839 118.249 145.531 126.903 144.658C131.158 144.238 135.365 143.672 139.524 143.009C143.755 142.347 147.889 141.393 152.264 141.554C153.539 156.153 149.788 170.961 140.654 184.25C136.879 189.731 131.975 194.435 122.504 195.341ZM130.966 97.1611C135.966 102.092 140.004 107.572 143.202 113.134C147.553 120.683 150.365 128.654 151.688 136.721C147.553 136.656 143.538 137.384 139.548 138.063C135.389 138.758 131.182 139.356 126.951 139.825C119.331 140.649 111.59 140.908 103.898 140.536C103.898 127.425 107.768 114.298 115.701 102.286C117.335 99.8124 119.066 96.8701 122.384 95.1565C122.937 94.8655 123.49 94.6876 124.018 94.5583C124.691 94.8008 125.485 94.8978 126.422 94.7523C126.639 94.72 126.879 94.7038 127.119 94.6715C128.61 95.1241 129.908 96.1103 130.966 97.1611ZM135.197 197.119C143.37 193.271 147.312 186.498 150.726 180.451C154.14 174.405 156.543 168.116 157.986 161.73C160.895 148.716 160.005 135.379 155.197 122.623C152.769 116.157 149.308 109.868 144.933 103.886C142.817 100.993 140.461 98.1634 137.865 95.4475C137.24 94.817 136.615 94.1865 135.894 93.5721C144.74 92.6506 153.659 92.1656 162.601 92.1818C174.477 92.198 186.376 92.7153 198.228 93.0871C198.756 96.2073 199.189 99.3436 199.55 102.48C201.088 115.979 201.377 129.607 199.213 143.09C196.208 161.827 187.746 180.306 171.856 195.664C171.592 195.664 171.304 195.68 171.015 195.712C159.212 197.232 147.144 197.685 135.197 197.119ZM2219.11 248.933C2184.64 250.355 2149.95 250.307 2115.43 250.695C2042.37 251.536 1969.29 251.924 1896.21 252.101C1751.33 252.441 1606.47 252.085 1461.59 251.956C1172.59 251.713 883.394 253.605 594.442 250.064C433.812 248.092 273.134 243.097 113.465 230.616C123.081 228.757 132.288 225.96 140.702 222.403C173.804 208.436 194.117 184.832 202.41 159.596C207.074 145.354 208.372 130.674 207.795 116.124C207.218 102.593 205.295 89.0132 201.569 75.7242C197.963 62.9688 192.506 50.4074 184.285 38.6543C176.352 27.3216 165.414 15.8271 151.111 7.64686C149.837 6.91937 148.514 6.28887 147.144 5.73921C210.656 3.76689 274.312 5.10871 337.631 8.76235C407.97 12.8202 477.876 19.6424 547.445 27.5641C616.775 35.4695 685.815 44.4743 754.952 53.0426C823.704 61.5785 892.577 69.6779 961.858 75.8859C1031.5 82.11 1101.6 86.3942 1171.86 87.1055C1180.45 87.2025 1189.03 87.2348 1197.61 87.2187C1197.92 87.2187 1198.24 87.1863 1198.5 87.1378C1198.76 87.1863 1199.08 87.2187 1199.39 87.2187C1207.97 87.2348 1216.55 87.2025 1225.14 87.1055C1295.4 86.3942 1365.5 82.11 1435.14 75.8859C1504.45 69.6779 1573.32 61.5785 1642.05 53.0426C1711.18 44.4743 1780.23 35.4695 1849.55 27.5641C1919.12 19.6424 1989.05 12.8202 2059.37 8.76235C2122.71 5.10871 2186.34 3.76689 2249.86 5.73921C2248.49 6.28887 2247.16 6.91937 2245.89 7.64686C2231.59 15.8271 2220.65 27.3216 2212.74 38.6543C2204.52 50.4074 2199.04 62.9688 2195.46 75.7242C2191.71 89.0132 2189.78 102.593 2189.23 116.124C2188.63 130.674 2189.93 145.354 2194.59 159.596C2202.88 184.832 2223.22 208.436 2256.3 222.403C2271.4 228.789 2289.04 232.815 2306.93 233.057C2280.55 244.18 2249.86 247.672 2219.11 248.933Z" fill="#1A171B"/>
<path d="M2293.1 140.536C2285.41 140.908 2277.67 140.649 2270.05 139.825C2265.82 139.356 2261.61 138.758 2257.45 138.063C2253.46 137.384 2249.47 136.656 2245.34 136.721C2246.63 128.654 2249.47 120.684 2253.8 113.134C2256.99 107.573 2261.03 102.092 2266.03 97.1614C2267.12 96.1106 2268.41 95.1244 2269.88 94.6718C2270.12 94.7041 2270.36 94.7203 2270.6 94.7526C2271.51 94.8981 2272.31 94.8011 2272.98 94.5586C2273.53 94.6879 2274.06 94.8658 2274.64 95.1568C2277.93 96.8704 2279.66 99.8127 2281.3 102.286C2289.26 114.298 2293.13 127.425 2293.1 140.536Z" fill="#99856D"/>
<path d="M2320.77 156.945C2317.55 168.795 2311.18 182.504 2297.07 190.587C2290.91 194.128 2282.64 196.133 2274.5 195.34C2265.02 194.435 2260.12 189.731 2256.35 184.25C2247.21 170.961 2243.49 156.153 2244.74 141.554C2249.11 141.393 2253.25 142.346 2257.48 143.009C2261.66 143.672 2265.87 144.238 2270.1 144.658C2278.77 145.531 2287.48 145.838 2296.2 145.208C2298.1 145.321 2300.22 144.561 2300.27 142.896C2300.53 135.573 2299.62 128.249 2297.53 121.071C2295.43 113.877 2292.09 106.893 2287.72 100.2C2284.5 95.3018 2278.75 88.1723 2269.13 89.692C2258.08 88.2208 2246.83 87.3963 2235.55 87.3801C2223.6 87.3478 2211.61 87.8651 2199.69 88.237C2201.1 81.0752 2203.03 73.9457 2205.6 66.9295C2209.88 55.3219 2215.94 43.9729 2224.71 33.5293C2228.99 28.4369 2233.89 23.5546 2239.49 19.0764C2242.33 16.8131 2245.31 14.6306 2248.46 12.5775C2251.59 10.5405 2255.29 8.40651 2259.9 8.43884C2267.62 8.50351 2273.22 13.9678 2276.64 17.9933C2281.59 23.8779 2285.34 30.3607 2288.94 36.6657C2296.56 50.0031 2302.55 63.7285 2308.05 77.5185C2318.25 103.078 2327.96 130.416 2320.77 156.945Z" fill="#D3C4AF"/>
<path d="M2241.8 122.624C2237 135.379 2236.11 148.716 2239.04 161.731C2240.46 168.116 2242.88 174.405 2246.27 180.451C2249.13 185.528 2252.4 191.073 2258.17 195.018C2245.5 194.322 2232.93 192.964 2220.53 190.911C2207.6 176.571 2200.53 159.936 2197.81 143.091C2195.62 129.608 2195.91 115.979 2197.45 102.48C2197.81 99.3438 2198.27 96.2075 2198.77 93.0874C2210.65 92.7155 2222.52 92.1982 2234.4 92.182C2243.37 92.1659 2252.28 92.6509 2261.11 93.5724C2260.41 94.1867 2259.76 94.8172 2259.16 95.4477C2256.54 98.1637 2254.21 100.993 2252.09 103.887C2247.69 109.868 2244.23 116.157 2241.8 122.624Z" fill="#BAA78E"/>
<path d="M199.213 143.091C196.208 161.828 187.747 180.306 171.857 195.664C171.592 195.664 171.304 195.68 171.015 195.713C159.212 197.232 147.144 197.685 135.197 197.119C143.37 193.272 147.313 186.498 150.726 180.451C154.14 174.405 156.544 168.116 157.986 161.731C160.895 148.716 160.005 135.379 155.197 122.624C152.769 116.157 149.308 109.868 144.933 103.887C142.817 100.993 140.461 98.1637 137.865 95.4477C137.24 94.8172 136.615 94.1867 135.894 93.5724C144.74 92.6509 153.659 92.1659 162.601 92.182C174.477 92.1982 186.376 92.7155 198.228 93.0874C198.757 96.2075 199.189 99.3438 199.55 102.48C201.088 115.979 201.377 129.608 199.213 143.091Z" fill="#BAA78E"/>
<path d="M151.687 136.721C147.553 136.656 143.538 137.384 139.548 138.063C135.389 138.758 131.182 139.356 126.951 139.825C119.331 140.649 111.59 140.908 103.897 140.536C103.897 127.425 107.768 114.298 115.701 102.286C117.335 99.8127 119.066 96.8704 122.384 95.1568C122.937 94.8658 123.489 94.6879 124.018 94.5586C124.691 94.8011 125.485 94.8981 126.422 94.7526C126.639 94.7203 126.879 94.7041 127.119 94.6718C128.61 95.1244 129.908 96.1106 130.966 97.1614C135.966 102.092 140.004 107.573 143.202 113.134C147.553 120.684 150.365 128.654 151.687 136.721Z" fill="#99856D"/>
<path d="M99.4746 121.071C97.3832 128.249 96.4697 135.573 96.7341 142.896C96.8062 144.561 98.8977 145.321 100.797 145.208C109.523 145.838 118.249 145.531 126.903 144.658C131.158 144.238 135.365 143.672 139.524 143.009C143.755 142.346 147.89 141.393 152.265 141.554C153.539 156.153 149.789 170.961 140.654 184.25C136.88 189.731 131.976 194.435 122.504 195.34C114.355 196.133 106.109 194.128 99.9313 190.587C85.8443 182.504 79.4499 168.795 76.2287 156.945C69.0409 130.416 78.7528 103.078 88.9694 77.5185C94.4744 63.7285 100.436 50.0031 108.081 36.6657C111.687 30.3607 115.413 23.8779 120.389 17.9933C123.778 13.9678 129.379 8.50351 137.12 8.43884C141.736 8.40651 145.414 10.5405 148.539 12.5775C151.688 14.6306 154.669 16.8131 157.505 19.0764C163.106 23.5546 168.01 28.4369 172.313 33.5293C181.064 43.9729 187.146 55.3219 191.401 66.9295C193.997 73.9457 195.92 81.0752 197.338 88.237C185.391 87.8651 173.419 87.3478 161.472 87.3801C150.173 87.3963 138.923 88.2208 127.865 89.692C118.273 88.1723 112.504 95.3018 109.307 100.2C104.907 106.893 101.566 113.877 99.4746 121.071Z" fill="#D3C4AF"/>
</g>
<defs>
<clipPath id="clip0_7376_34">
<rect width="2397" height="257.048" fill="white"/>
</clipPath>
</defs>
</svg>
