<svg width="1612" height="258" viewBox="0 0 1612 258" fill="none" xmlns="http://www.w3.org/2000/svg">
<g clip-path="url(#clip0_7373_61)">
<path d="M1488.78 196.634C1466.37 183.588 1441.88 174.341 1416.69 168.262C1387.72 161.278 1358.04 158.594 1328.31 157.964C1295.77 157.285 1263.19 157.673 1230.65 157.641C1197.96 157.608 1165.27 157.576 1132.58 157.527L1034.53 157.43C1031.36 157.43 1028.19 157.414 1025.02 157.414C1024.98 157.414 1024.94 157.382 1024.88 157.382C1024.51 157.398 1024.14 157.414 1023.76 157.414H1022.28C1022.28 157.414 1022.13 157.447 1022.07 157.447C905.715 160.033 789.381 162.846 673.046 165.902C556.372 168.957 439.714 172.239 323.04 175.763C258.342 177.719 193.627 179.74 128.928 181.842C135.508 165.514 141.457 148.862 141.845 131.063C142.298 111 137.157 91.3415 135.282 71.4728C134.781 66.1055 134.247 60.7543 132.824 55.5325C132.129 52.9782 131.272 50.4724 130.254 48.0312C191.089 93.5886 267.928 109.351 341.906 119.617C433.894 132.372 526.577 140.585 619.325 144.853C713.576 149.185 808.005 149.25 902.256 145.079C995.763 140.924 1089.09 132.582 1181.86 120.069C1228.82 113.732 1275.65 106.344 1322.28 97.8728C1366.96 89.7571 1412.55 82.2397 1455.75 67.8838C1463.4 65.3295 1470.95 62.5165 1478.38 59.4287C1474.89 66.4935 1473.57 74.3989 1472.45 82.175C1470.95 92.6671 1469.41 103.208 1469.44 113.813C1469.48 124.24 1470.54 134.765 1471.64 145.111C1472.71 155.119 1474.28 165.142 1477.46 174.696C1480.08 182.569 1483.77 190.054 1488.78 196.634Z" fill="#D3C4AF"/>
<path d="M806 82.4658C803.688 82.9832 803.705 86.6045 806 87.138C808.312 86.6045 808.312 82.9832 806 82.4658Z" fill="#1A171B"/>
<path d="M1551.42 233.057C1533.69 244.179 1513.04 247.671 1492.37 248.932C1469.18 250.355 1445.86 250.307 1422.64 250.695C1373.51 251.535 1324.36 251.923 1275.22 252.101C1177.78 252.44 1080.36 252.085 982.927 251.956C788.572 251.713 594.089 253.604 399.767 250.064C291.742 248.092 183.684 243.096 76.3062 230.616C82.7728 228.756 88.9646 225.96 94.6229 222.403C116.884 208.435 130.545 184.832 136.122 159.596C139.259 145.353 140.132 130.674 139.744 116.124C139.356 102.593 138.062 89.0127 135.557 75.7238C133.132 62.9684 129.462 50.407 123.933 38.6539C118.598 27.3211 111.242 15.8267 101.623 7.64643C100.766 6.91894 99.877 6.28844 98.9555 5.73878C141.668 3.76646 184.477 5.10828 227.059 8.76192C274.363 12.8197 321.375 19.642 368.161 27.5636C414.785 35.4691 461.216 44.4739 507.711 53.0421C553.947 61.5781 600.264 69.6775 646.856 75.8855C693.691 82.1096 740.833 86.3937 788.087 87.1051C793.859 87.2021 799.63 87.2344 805.402 87.2182C805.612 87.2182 805.822 87.1859 806 87.1374C806.178 87.1859 806.388 87.2182 806.598 87.2182C812.37 87.2344 818.141 87.2021 823.913 87.1051C871.167 86.3937 918.309 82.1096 965.144 75.8855C1011.75 69.6775 1058.07 61.5781 1104.29 53.0421C1150.78 44.4739 1197.21 35.4691 1243.84 27.5636C1290.63 19.642 1337.65 12.8197 1384.94 8.76192C1427.54 5.10828 1470.33 3.76646 1513.04 5.73878C1512.12 6.28844 1511.23 6.91894 1510.38 7.64643C1500.76 15.8267 1493.4 27.3211 1488.08 38.6539C1482.55 50.407 1478.87 62.9684 1476.46 75.7238C1473.94 89.0127 1472.64 102.593 1472.27 116.124C1471.87 130.674 1472.74 145.353 1475.88 159.596C1481.46 184.832 1495.13 208.435 1517.38 222.403C1527.53 228.789 1539.4 232.814 1551.42 233.057Z" fill="#EFE2CB"/>
<path d="M1476.33 171.802C1475.8 170.186 1475.25 168.601 1474.71 166.985C1474.25 165.513 1473.99 164.091 1474.2 162.571C1471.63 148.749 1470.4 134.732 1470.14 120.684C1469.88 107.007 1469.99 93.0226 1472.48 79.5236C1473.73 72.7336 1475.76 66.1215 1478.82 59.9297C1435.2 62.2253 1391.78 67.5603 1348.94 76.0154C1305.03 84.6969 1262.29 97.1128 1219.85 111.162C1198.39 118.275 1176.93 125.42 1155.08 131.289C1133.21 137.174 1111 141.684 1088.7 145.742C1044.12 153.89 999.32 161.601 954.215 166.273C915.981 170.25 877.343 171.802 838.996 168.714C825.982 168.795 812.952 168.747 799.954 168.601C792.873 168.52 785.792 168.359 778.727 168.197C738.424 171.98 697.733 170.46 657.51 166.289C612.406 161.617 567.608 153.906 523.021 145.758C500.727 141.7 478.514 137.19 456.641 131.305C434.8 125.437 413.331 118.291 391.878 111.178C349.44 97.1289 306.696 84.713 262.788 76.0316C219.946 67.5765 176.523 62.2415 132.906 59.9459C135.961 66.1377 137.998 72.7498 139.243 79.5397C141.732 93.0388 141.846 107.023 141.587 120.7C141.328 134.749 140.1 148.765 137.529 162.587C137.739 164.107 137.481 165.53 137.012 167.001C136.478 168.617 135.929 170.202 135.395 171.818C134.441 174.68 133.488 177.541 132.534 180.403C136.996 181.179 141.474 181.923 145.952 182.618C189.957 189.359 234.593 191.493 279.084 191.04C323.477 190.588 367.806 187.549 412.021 183.798C457.126 179.966 502.198 175.31 547.465 173.629C569.952 172.788 592.472 172.691 614.944 173.807C637.06 174.922 659.03 177.525 680.984 180.29C688.243 181.211 695.518 182.133 702.809 183.006C707.19 183.103 711.555 183.2 715.936 183.297C733.008 183.685 750.048 184.348 767.136 184.38C784.159 184.412 801.199 184.137 818.222 184.105C843.927 184.057 869.616 184.315 895.32 184.542C907.171 183.297 919.004 181.793 930.758 180.306C952.712 177.541 974.666 174.939 996.798 173.823C1019.27 172.708 1041.79 172.805 1064.28 173.645C1109.54 175.327 1154.62 179.983 1199.72 183.814C1243.94 187.565 1288.26 190.604 1332.66 191.057C1377.15 191.509 1421.78 189.375 1465.79 182.634C1470.27 181.939 1474.75 181.195 1479.21 180.419C1478.25 177.558 1477.3 174.696 1476.35 171.835L1476.33 171.802Z" fill="#D3C4AF"/>
<path d="M391.861 111.161C413.314 118.275 434.784 125.42 456.625 131.289C478.498 137.173 500.711 141.684 523.004 145.742C567.592 153.89 612.389 161.601 657.494 166.273C697.717 170.46 738.408 171.964 778.711 168.181C773.699 168.068 768.672 167.955 763.66 167.89C758.535 167.825 753.362 167.664 748.221 167.276C743.678 167.324 739.151 167.356 734.609 167.356C734.075 167.356 733.606 167.259 733.186 167.082C712.784 167.179 692.382 166.192 672.06 164.43C626.454 160.469 581.253 152.806 536.213 144.836C514.129 140.94 492.062 136.785 470.269 131.45C448.283 126.083 426.716 119.261 405.231 112.196C362.713 98.1796 320.26 84.8261 276.4 75.5141C233.381 66.38 189.698 60.3337 145.806 57.4237C140.164 57.0519 134.538 56.7447 128.896 56.4699C126.794 56.3729 126.794 59.6062 128.896 59.7032C128.993 59.7032 129.09 59.7032 129.187 59.7032C129.219 59.8002 129.219 59.8811 129.268 59.9781C135.427 71.6018 137.287 84.7614 137.949 97.727C138.661 111.485 138.531 125.323 137.384 139.065C136.721 147.116 135.638 155.118 134.118 163.056C134.021 163.525 134.134 163.913 134.344 164.236C134.215 165.222 133.795 166.209 133.504 167.114C133.002 168.617 132.501 170.105 132 171.608C131.079 174.356 130.157 177.105 129.252 179.853C127.441 179.869 126.746 182.618 128.702 182.973C172.384 190.782 216.761 193.999 261.122 194.274C305.968 194.565 350.75 191.946 395.434 188.357C440.474 184.752 485.433 179.95 530.57 177.59C574.075 175.31 617.304 176.086 660.566 181.001C669.36 181.066 678.123 182.343 686.917 182.585C692.204 182.731 697.506 182.86 702.793 182.973C695.502 182.1 688.227 181.179 680.968 180.257C659.014 177.493 637.043 174.89 614.928 173.774C592.456 172.659 569.936 172.756 547.448 173.597C502.182 175.278 457.11 179.934 412.005 183.765C367.789 187.516 323.461 190.555 279.067 191.008C234.577 191.461 189.941 189.327 145.936 182.585C141.457 181.89 136.979 181.146 132.517 180.37C133.471 177.509 134.425 174.647 135.379 171.786C135.912 170.169 136.462 168.585 136.996 166.968C137.464 165.497 137.723 164.075 137.513 162.555C140.083 148.732 141.312 134.716 141.571 120.667C141.829 106.99 141.716 93.0063 139.226 79.5073C137.982 72.7173 135.945 66.1052 132.889 59.9134C176.507 62.209 219.93 67.544 262.771 75.9991C306.68 84.6806 349.424 97.0965 391.861 111.145V111.161Z" fill="#D3C4AF"/>
<path d="M1482.46 179.869C1481.55 177.12 1480.63 174.372 1479.71 171.624C1479.21 170.12 1478.71 168.633 1478.21 167.129C1477.91 166.224 1477.49 165.238 1477.37 164.252C1477.58 163.929 1477.69 163.541 1477.59 163.072C1476.07 155.134 1474.99 147.131 1474.33 139.08C1473.16 125.339 1473.03 111.5 1473.74 97.7426C1474.42 84.777 1476.28 71.6174 1482.44 59.9937C1482.49 59.8967 1482.49 59.8158 1482.51 59.7188C1482.62 59.7188 1482.72 59.7188 1482.81 59.7188C1484.91 59.6219 1484.91 56.3885 1482.81 56.4855C1477.17 56.7604 1471.55 57.0675 1465.9 57.4394C1422.01 60.3493 1378.33 66.3956 1335.31 75.5298C1291.45 84.8417 1248.98 98.1953 1206.48 112.212C1184.99 119.276 1163.43 126.099 1141.44 131.466C1119.65 136.801 1097.58 140.956 1075.5 144.852C1030.46 152.822 985.255 160.485 939.649 164.446C924.259 165.771 908.819 166.644 893.38 166.952C887.657 167.55 881.918 167.954 876.163 168.116C863.78 168.455 851.396 168.633 838.996 168.714C877.343 171.818 915.981 170.25 954.215 166.273C999.32 161.601 1044.12 153.889 1088.7 145.741C1111 141.683 1133.21 137.173 1155.08 131.288C1176.93 125.42 1198.39 118.274 1219.85 111.161C1262.29 97.1121 1305.03 84.6962 1348.94 76.0147C1391.78 67.5596 1435.2 62.2247 1478.82 59.929C1475.76 66.1208 1473.73 72.7329 1472.48 79.5229C1469.99 93.022 1469.88 107.006 1470.14 120.683C1470.4 134.732 1471.63 148.748 1474.2 162.571C1473.99 164.09 1474.24 165.513 1474.71 166.984C1475.25 168.601 1475.8 170.185 1476.33 171.802C1477.28 174.663 1478.24 177.525 1479.19 180.386C1474.73 181.162 1470.25 181.906 1465.77 182.601C1421.77 189.342 1377.13 191.476 1332.64 191.024C1288.25 190.571 1243.92 187.532 1199.7 183.781C1154.6 179.95 1109.53 175.294 1064.26 173.612C1041.77 172.772 1019.25 172.675 996.782 173.79C974.65 174.906 952.696 177.508 930.741 180.273C918.988 181.76 907.154 183.264 895.304 184.509C895.773 184.509 896.242 184.509 896.711 184.509C899.782 184.428 902.854 184.347 905.926 184.218C912.554 183.927 919.182 183.506 925.811 182.94C932.471 182.375 939.1 181.502 945.776 181.049C948.654 180.855 951.515 180.726 954.393 180.645C996.572 176.053 1038.72 175.374 1081.14 177.605C1126.28 179.966 1171.24 184.767 1216.28 188.372C1260.94 191.961 1305.74 194.58 1350.59 194.289C1394.95 194.014 1439.33 190.797 1483.01 182.989C1484.96 182.633 1484.27 179.885 1482.46 179.869Z" fill="#D3C4AF"/>
<path d="M1607.18 136.3C1606.94 142.427 1606.28 148.522 1605.15 154.552C1600.54 178.932 1588.82 202.842 1571.1 220.383C1566.17 225.249 1560.64 228.013 1553.66 228.24C1547.9 228.417 1542.13 227.512 1536.62 225.895C1525.9 222.775 1516.16 216.761 1508.03 209.147C1503.96 205.332 1500.37 201.161 1497.19 196.731C1508.52 199.14 1520.08 200.368 1531.65 200.368C1531.89 200.368 1532.12 200.336 1532.33 200.288C1534.34 200.255 1536.34 199.98 1538.23 199.463C1544.34 197.798 1549.34 193.643 1553.14 188.68C1561.45 177.816 1565.15 163.379 1566.54 149.993C1568.03 135.605 1566.56 121.039 1563.97 106.861C1561.29 92.198 1557.41 77.7451 1553.27 63.4538C1548.98 48.6938 1544.04 34.0954 1537.52 20.1759C1536.6 18.2036 1535.58 16.2151 1534.43 14.3075C1533.62 12.0765 1532.62 9.89401 1531.43 7.84086C1530.84 6.8547 1530.23 5.90087 1529.57 4.97938C1528.87 4.04172 1528.21 3.12022 1527.21 2.57056C1526.83 2.03706 1526.25 1.64907 1525.43 1.5844C1519.66 1.22874 1513.9 0.937739 1508.15 0.69524C1461.09 -1.22858 1413.94 0.921572 1367.13 5.60987C1320.52 10.2658 1274.2 17.3953 1228.08 25.4139C1181.48 33.5295 1135.05 42.5828 1088.53 51.0702C1041.63 59.6062 994.615 67.5763 947.296 73.3478C900.623 79.0384 853.643 82.5465 806.598 82.401C806.388 82.401 806.178 82.4172 806 82.4657C805.822 82.4172 805.612 82.401 805.402 82.401C758.357 82.5465 711.393 79.0384 664.704 73.3478C617.385 67.5763 570.372 59.6062 523.489 51.0702C476.962 42.5828 430.532 33.5295 383.923 25.4139C337.8 17.3953 291.483 10.2658 244.891 5.60987C198.057 0.921572 150.915 -1.22858 103.87 0.69524C98.0987 0.937739 92.3434 1.22874 86.5881 1.5844C85.7636 1.64907 85.1816 2.03706 84.7936 2.57056C83.8075 3.12022 83.1285 4.04172 82.4495 4.97938C81.7866 5.90087 81.1561 6.8547 80.5742 7.84086C79.3778 9.89401 78.3917 12.0765 77.5672 14.3075C76.4193 16.2151 75.417 18.2036 74.4955 20.1759C67.9804 34.0954 63.0173 48.6938 58.7493 63.4538C54.5945 77.7451 50.7145 92.198 48.0309 106.861C45.4442 121.039 43.9731 135.605 45.4604 149.993C46.8507 163.379 50.569 177.816 58.8786 188.68C62.6616 193.643 67.6732 197.798 73.7842 199.463C75.3524 199.883 77.0013 200.142 78.6503 200.239C78.8282 200.32 79.0222 200.401 79.2323 200.433C89.8861 202.438 100.718 202.664 111.404 201.161C109.108 203.957 106.651 206.625 103.967 209.147C95.8516 216.761 86.1031 222.775 75.3847 225.895C69.8719 227.512 64.1004 228.417 58.3613 228.24C51.3612 228.013 45.8322 225.249 40.9176 220.383C23.1829 202.842 11.4621 178.932 6.85464 154.552C5.72298 148.522 5.06015 142.427 4.81765 136.3C4.68832 133.213 -0.11315 133.196 1.61032e-05 136.3C1.08318 163.428 10.6053 190.103 27.079 211.701C31.1368 217.02 35.518 222.484 40.7398 226.704C46.3657 231.247 52.9293 233.138 60.1235 233.073C61.3359 233.057 62.4676 233.009 63.5993 232.944C64.9573 233.057 66.3152 233.219 67.6571 233.478C68.5139 233.639 69.3061 233.946 70.1306 234.221C70.8257 234.448 71.537 234.625 72.2645 234.787C72.5555 234.916 72.8789 235.03 73.2184 235.078C169.975 246.459 267.33 251.713 364.685 254.122C462.331 256.531 560.042 256.224 657.704 256.353C756.757 256.483 855.793 256.612 954.846 256.741C1053.28 256.871 1151.72 257.178 1250.16 256.984C1299.29 256.887 1348.44 256.596 1397.58 255.901C1422.16 255.545 1446.71 255.108 1471.29 254.526C1491.03 254.058 1511.2 253.492 1530.29 247.833C1539.35 245.15 1547.88 241.254 1555.76 236C1555.98 235.854 1556.16 235.676 1556.31 235.498C1557.75 234.351 1559.15 233.219 1560.82 232.346C1561.72 231.861 1562.68 231.521 1563.61 231.117C1563.76 231.053 1563.9 230.988 1564.05 230.907C1566.59 229.905 1569 228.514 1571.26 226.688C1576.48 222.468 1580.85 217.004 1584.9 211.685C1601.39 190.087 1610.9 163.412 1611.98 136.284C1612.11 133.18 1607.3 133.196 1607.17 136.284L1607.18 136.3ZM1493.32 190.911C1484.62 176.571 1479.87 159.936 1478.04 143.09C1476.57 129.607 1476.77 115.979 1477.8 102.48C1478.04 99.3436 1478.35 96.2073 1478.69 93.0871C1486.68 92.7153 1494.66 92.198 1502.65 92.1818C1508.68 92.1656 1514.68 92.6506 1520.61 93.5721C1520.14 94.1865 1519.71 94.817 1519.3 95.4475C1517.54 98.1634 1515.97 100.993 1514.55 103.886C1511.59 109.868 1509.26 116.157 1507.63 122.623C1504.4 135.379 1503.8 148.716 1505.77 161.73C1506.72 168.116 1508.36 174.405 1510.64 180.451C1512.56 185.528 1514.76 191.073 1518.64 195.017C1510.12 194.322 1501.66 192.964 1493.32 190.911ZM1523.92 97.1611C1524.65 96.1103 1525.53 95.1241 1526.51 94.6715C1526.67 94.7038 1526.83 94.72 1527 94.7523C1527.61 94.8978 1528.14 94.8008 1528.6 94.5583C1528.97 94.6876 1529.32 94.8655 1529.71 95.1565C1531.93 96.8701 1533.09 99.8124 1534.19 102.286C1539.54 114.298 1542.14 127.425 1542.13 140.536C1536.95 140.908 1531.75 140.649 1526.62 139.825C1523.78 139.356 1520.95 138.758 1518.15 138.063C1515.47 137.384 1512.79 136.656 1510.01 136.721C1510.88 128.654 1512.79 120.683 1515.7 113.134C1517.85 107.572 1520.56 102.092 1523.92 97.1611ZM1531.05 18.0096C1534.38 23.8943 1536.91 30.377 1539.33 36.682C1544.46 50.0194 1548.48 63.7448 1552.18 77.5349C1559.04 103.094 1565.57 130.432 1560.74 156.961C1558.57 168.811 1554.29 182.521 1544.8 190.604C1540.66 194.144 1535.1 196.149 1529.62 195.357C1523.25 194.451 1519.95 189.747 1517.41 184.267C1511.27 170.978 1508.76 156.169 1509.6 141.571C1512.54 141.409 1515.32 142.363 1518.17 143.026C1520.98 143.688 1523.81 144.254 1526.66 144.675C1532.49 145.548 1538.35 145.855 1544.21 145.224C1545.49 145.337 1546.91 144.578 1546.95 142.912C1547.12 135.589 1546.51 128.266 1545.1 121.088C1543.7 113.894 1541.45 106.91 1538.51 100.217C1536.34 95.3181 1532.48 88.1887 1526.01 89.7083C1518.57 88.2372 1511.01 87.4127 1503.43 87.3965C1495.39 87.3642 1487.32 87.8815 1479.3 88.2533C1480.26 81.0915 1481.55 73.9621 1483.28 66.9458C1486.16 55.3382 1490.23 43.9893 1496.13 33.5457C1499.01 28.4532 1502.31 23.5709 1506.08 19.0928C1507.98 16.8295 1509.99 14.647 1512.11 12.5938C1514.21 10.5568 1516.7 8.42286 1519.8 8.45519C1524.99 8.51986 1528.76 13.9842 1531.05 18.0096ZM82.3848 195.341C76.9043 196.133 71.3592 194.128 67.2044 190.588C57.7308 182.504 53.4305 168.795 51.2642 156.945C46.4304 130.416 52.9617 103.078 59.8325 77.5187C63.5346 63.7287 67.5439 50.0033 72.6849 36.6658C75.1099 30.3609 77.6157 23.8781 80.9622 17.9935C83.2416 13.968 87.0084 8.50369 92.2141 8.43902C95.3181 8.40669 97.7915 10.5407 99.8932 12.5777C102.011 14.6308 104.016 16.8133 105.923 19.0766C109.69 23.5548 112.988 28.4371 115.882 33.5295C121.767 43.9731 125.857 55.322 128.718 66.9296C130.464 73.9459 131.757 81.0754 132.711 88.2372C124.677 87.8653 116.626 87.348 108.591 87.3803C100.993 87.3965 93.4266 88.221 85.9899 89.6922C79.5395 88.1725 75.6595 95.3019 73.5094 100.2C70.5509 106.893 68.3037 113.877 66.8972 121.071C65.4908 128.249 64.8764 135.573 65.0543 142.896C65.1028 144.561 66.5092 145.321 67.7864 145.208C73.6549 145.839 79.5233 145.531 85.3433 144.658C88.2048 144.238 91.0339 143.672 93.8307 143.009C96.676 142.347 99.4567 141.393 102.399 141.554C103.256 156.153 100.734 170.961 94.5906 184.25C92.0524 189.731 88.7544 194.435 82.3848 195.341ZM88.0754 97.1611C91.4381 102.092 94.1541 107.572 96.3042 113.134C99.2304 120.683 101.122 128.654 102.011 136.721C99.2304 136.656 96.5305 137.384 93.8469 138.063C91.0501 138.758 88.2209 139.356 85.3756 139.825C80.2508 140.649 75.0452 140.908 69.8719 140.536C69.8719 127.425 72.4747 114.298 77.8097 102.286C78.909 99.8124 80.073 96.8701 82.304 95.1565C82.6758 94.8655 83.0476 94.6876 83.4033 94.5583C83.856 94.8008 84.3895 94.8978 85.02 94.7523C85.1655 94.72 85.3271 94.7038 85.4888 94.6715C86.4911 95.1241 87.3641 96.1103 88.0754 97.1611ZM90.9208 197.119C96.4174 193.271 99.0687 186.498 101.364 180.451C103.66 174.405 105.277 168.116 106.247 161.73C108.203 148.716 107.605 135.379 104.371 122.623C102.739 116.157 100.411 109.868 97.4682 103.886C96.0456 100.993 94.4612 98.1634 92.7152 95.4475C92.2949 94.817 91.8746 94.1865 91.3896 93.5721C97.3389 92.6506 103.337 92.1656 109.351 92.1818C117.337 92.198 125.339 92.7153 133.309 93.0871C133.665 96.2073 133.956 99.3436 134.199 102.48C135.233 115.979 135.427 129.607 133.972 143.09C131.951 161.827 126.261 180.306 115.575 195.664C115.397 195.664 115.203 195.68 115.009 195.712C107.071 197.232 98.9555 197.685 90.9208 197.119ZM1492.37 248.933C1469.18 250.355 1445.86 250.307 1422.64 250.695C1373.51 251.536 1324.36 251.924 1275.22 252.101C1177.78 252.441 1080.36 252.085 982.927 251.956C788.573 251.713 594.089 253.605 399.767 250.064C291.742 248.092 183.684 243.097 76.3062 230.616C82.7728 228.757 88.9646 225.96 94.6229 222.403C116.884 208.436 130.545 184.832 136.122 159.596C139.259 145.354 140.132 130.674 139.744 116.124C139.356 102.593 138.062 89.0132 135.557 75.7242C133.132 62.9688 129.462 50.4074 123.933 38.6543C118.598 27.3216 111.242 15.8271 101.623 7.64686C100.766 6.91937 99.877 6.28887 98.9555 5.73921C141.668 3.76689 184.477 5.10871 227.059 8.76235C274.363 12.8202 321.375 19.6424 368.161 27.5641C414.785 35.4695 461.216 44.4743 507.711 53.0426C553.947 61.5785 600.264 69.6779 646.856 75.8859C693.691 82.11 740.833 86.3942 788.088 87.1055C793.859 87.2025 799.63 87.2348 805.402 87.2187C805.612 87.2187 805.822 87.1863 806 87.1378C806.178 87.1863 806.388 87.2187 806.598 87.2187C812.37 87.2348 818.141 87.2025 823.913 87.1055C871.167 86.3942 918.309 82.11 965.144 75.8859C1011.75 69.6779 1058.07 61.5785 1104.29 53.0426C1150.78 44.4743 1197.21 35.4695 1243.84 27.5641C1290.63 19.6424 1337.65 12.8202 1384.94 8.76235C1427.54 5.10871 1470.33 3.76689 1513.04 5.73921C1512.12 6.28887 1511.23 6.91937 1510.38 7.64686C1500.76 15.8271 1493.4 27.3216 1488.08 38.6543C1482.55 50.4074 1478.87 62.9688 1476.46 75.7242C1473.94 89.0132 1472.64 102.593 1472.27 116.124C1471.87 130.674 1472.74 145.354 1475.88 159.596C1481.46 184.832 1495.13 208.436 1517.38 222.403C1527.53 228.789 1539.4 232.815 1551.42 233.057C1533.69 244.18 1513.04 247.672 1492.37 248.933Z" fill="#1A171B"/>
<path d="M1542.13 140.536C1536.96 140.908 1531.75 140.649 1526.62 139.825C1523.78 139.356 1520.95 138.758 1518.15 138.063C1515.47 137.384 1512.79 136.656 1510.01 136.721C1510.88 128.654 1512.79 120.684 1515.7 113.134C1517.85 107.573 1520.56 102.092 1523.92 97.1614C1524.65 96.1106 1525.53 95.1244 1526.51 94.6718C1526.67 94.7041 1526.83 94.7203 1527 94.7526C1527.61 94.8981 1528.14 94.8011 1528.6 94.5586C1528.97 94.6879 1529.32 94.8658 1529.71 95.1568C1531.93 96.8704 1533.09 99.8127 1534.19 102.286C1539.54 114.298 1542.14 127.425 1542.13 140.536Z" fill="#99856D"/>
<path d="M1560.74 156.945C1558.57 168.795 1554.29 182.504 1544.8 190.587C1540.66 194.128 1535.1 196.133 1529.62 195.34C1523.25 194.435 1519.95 189.731 1517.41 184.25C1511.27 170.961 1508.76 156.153 1509.6 141.554C1512.54 141.393 1515.32 142.346 1518.17 143.009C1520.98 143.672 1523.81 144.238 1526.66 144.658C1532.49 145.531 1538.35 145.838 1544.21 145.208C1545.49 145.321 1546.91 144.561 1546.95 142.896C1547.12 135.573 1546.51 128.249 1545.1 121.071C1543.7 113.877 1541.45 106.893 1538.51 100.2C1536.34 95.3018 1532.48 88.1723 1526.01 89.692C1518.57 88.2208 1511.01 87.3963 1503.43 87.3801C1495.39 87.3478 1487.32 87.8651 1479.3 88.237C1480.26 81.0752 1481.55 73.9457 1483.28 66.9295C1486.16 55.3219 1490.23 43.9729 1496.13 33.5293C1499.01 28.4369 1502.31 23.5546 1506.08 19.0764C1507.98 16.8131 1509.99 14.6306 1512.11 12.5775C1514.21 10.5405 1516.7 8.40651 1519.8 8.43884C1524.99 8.50351 1528.76 13.9678 1531.05 17.9933C1534.38 23.8779 1536.91 30.3607 1539.33 36.6657C1544.46 50.0031 1548.48 63.7285 1552.18 77.5185C1559.04 103.078 1565.57 130.416 1560.74 156.945Z" fill="#D3C4AF"/>
<path d="M1507.63 122.624C1504.4 135.379 1503.8 148.716 1505.77 161.731C1506.72 168.116 1508.36 174.405 1510.64 180.451C1512.56 185.528 1514.76 191.073 1518.64 195.018C1510.12 194.322 1501.66 192.964 1493.32 190.911C1484.62 176.571 1479.87 159.936 1478.04 143.091C1476.57 129.608 1476.77 115.979 1477.8 102.48C1478.04 99.3438 1478.35 96.2075 1478.69 93.0874C1486.68 92.7155 1494.66 92.1982 1502.65 92.182C1508.68 92.1659 1514.68 92.6509 1520.61 93.5724C1520.14 94.1867 1519.71 94.8172 1519.3 95.4477C1517.54 98.1637 1515.97 100.993 1514.55 103.887C1511.59 109.868 1509.26 116.157 1507.63 122.624Z" fill="#BAA78E"/>
<path d="M133.972 143.091C131.952 161.828 126.261 180.306 115.575 195.664C115.397 195.664 115.203 195.68 115.009 195.713C107.071 197.232 98.9557 197.685 90.9209 197.119C96.4175 193.272 99.0688 186.498 101.364 180.451C103.66 174.405 105.277 168.116 106.247 161.731C108.203 148.716 107.605 135.379 104.371 122.624C102.739 116.157 100.411 109.868 97.4684 103.887C96.0457 100.993 94.4614 98.1637 92.7154 95.4477C92.2951 94.8172 91.8747 94.1867 91.3897 93.5724C97.339 92.6509 103.337 92.1659 109.351 92.182C117.337 92.1982 125.339 92.7155 133.31 93.0874C133.665 96.2075 133.956 99.3438 134.199 102.48C135.233 115.979 135.427 129.608 133.972 143.091Z" fill="#BAA78E"/>
<path d="M102.011 136.721C99.2305 136.656 96.5307 137.384 93.8471 138.063C91.0503 138.758 88.2211 139.356 85.3758 139.825C80.251 140.649 75.0454 140.908 69.8721 140.536C69.8721 127.425 72.4749 114.298 77.8099 102.286C78.9092 99.8127 80.0732 96.8704 82.3042 95.1568C82.676 94.8658 83.0478 94.6879 83.4035 94.5586C83.8561 94.8011 84.3896 94.8981 85.0201 94.7526C85.1656 94.7203 85.3273 94.7041 85.489 94.6718C86.4913 95.1244 87.3643 96.1106 88.0756 97.1614C91.4383 102.092 94.1542 107.573 96.3044 113.134C99.2305 120.684 101.122 128.654 102.011 136.721Z" fill="#99856D"/>
<path d="M66.8972 121.071C65.4907 128.249 64.8763 135.573 65.0542 142.896C65.1027 144.561 66.5092 145.321 67.7863 145.208C73.6548 145.838 79.5232 145.531 85.3432 144.658C88.2047 144.238 91.0338 143.672 93.8307 143.009C96.676 142.346 99.4566 141.393 102.399 141.554C103.256 156.153 100.734 170.961 94.5905 184.25C92.0523 189.731 88.7543 194.435 82.3847 195.34C76.9043 196.133 71.3591 194.128 67.2043 190.587C57.7307 182.504 53.4304 168.795 51.2641 156.945C46.4303 130.416 52.9616 103.078 59.8324 77.5185C63.5345 63.7285 67.5438 50.0031 72.6848 36.6657C75.1098 30.3607 77.6156 23.8779 80.9621 17.9933C83.2416 13.9678 87.0084 8.50351 92.214 8.43884C95.318 8.40651 97.7915 10.5405 99.8931 12.5775C102.011 14.6306 104.016 16.8131 105.923 19.0764C109.69 23.5546 112.988 28.4369 115.882 33.5293C121.766 43.9729 125.857 55.3219 128.718 66.9295C130.464 73.9457 131.757 81.0752 132.711 88.237C124.676 87.8651 116.625 87.3478 108.591 87.3801C100.992 87.3963 93.4265 88.2208 85.9899 89.692C79.5394 88.1723 75.6594 95.3018 73.5093 100.2C70.5508 106.893 68.3037 113.877 66.8972 121.071Z" fill="#D3C4AF"/>
</g>
<defs>
<clipPath id="clip0_7373_61">
<rect width="1612" height="257.048" fill="white"/>
</clipPath>
</defs>
</svg>
