<svg width="1542" height="256" viewBox="0 0 1542 256" fill="none" xmlns="http://www.w3.org/2000/svg">
<path d="M264.112 239.883C225.592 238.077 187.088 235.811 148.635 233.085C132.228 231.927 115.822 230.649 99.415 229.32C99.0231 228.622 98.3246 228.059 97.3024 227.974C83.6898 226.696 70.026 226.1 56.3623 226.151C58.7816 224.635 61.0986 222.931 63.3134 221.125C69.4127 216.167 75.1372 210.698 80.8616 205.314C92.3276 194.512 103.402 183.029 111.852 169.654C116.043 163.044 119.485 155.973 121.955 148.562C146.505 174.697 173.288 199.947 206.732 213.986C226.529 222.301 247.791 225.861 268.832 229.422C291.338 233.239 313.878 236.919 336.418 240.565C341.955 241.451 347.509 242.337 353.046 243.223C323.384 242.388 293.74 241.281 264.095 239.9L264.112 239.883Z" fill="#D3C4AF"/>
<path d="M746.994 247.619C656.987 250.141 566.946 250.788 476.905 249.51C379.539 248.113 282.206 244.501 185.009 238.657C137.357 235.795 89.755 232.354 42.1704 228.418C52.8697 225.164 62.1719 217.82 70.6053 210.682C80.129 202.623 88.7498 193.525 96.3994 183.694C102.465 175.891 107.899 167.627 112.738 159.023C112.959 158.904 113.13 158.768 113.3 158.614C113.3 158.614 113.317 158.614 113.317 158.58C113.641 158.274 113.845 157.865 113.948 157.422C113.948 157.405 113.965 157.371 113.965 157.354C114.016 157.132 114.033 156.911 114.033 156.689C120.865 144.149 126.385 130.894 130.542 117.23C137.902 93.0535 141.071 67.497 139.708 42.2642C139.231 33.4898 138.26 24.085 134.562 15.958C163.236 37.221 193.443 56.3203 224.689 73.6305C262.443 94.5358 301.56 112.902 341.222 129.855C381.685 147.131 422.642 163.436 464.094 178.157C506.533 193.218 549.773 206.354 594.001 215.043C594.001 215.026 594.018 215.009 594.035 214.992C641.092 226.953 688.25 238.879 736.312 246.103C739.873 246.631 743.434 247.142 746.994 247.619Z" fill="#EFE2CB"/>
<path d="M412.437 252.646C402.249 251.027 392.061 249.426 381.873 247.807C381.498 248.523 380.783 249.034 379.709 249.017C357.97 248.523 336.231 247.875 314.491 247.092C275.953 245.695 237.433 243.837 198.946 241.52C160.459 239.186 121.989 236.409 83.5707 233.155C82.5996 233.07 81.9181 232.576 81.5093 231.928C68.4077 231.195 55.2722 231.076 42.1536 231.553C39.3084 231.673 38.6099 226.987 41.4721 226.544C50.0758 225.215 57.044 219.968 63.4159 214.345C85.3426 195.042 109.212 173.455 117.866 144.576C117.9 144.474 117.952 144.406 117.986 144.303C117.492 143.775 116.997 143.247 116.503 142.719C114.272 140.299 117.883 136.687 120.115 139.107C134.767 154.935 149.862 170.473 166.78 183.916C181.824 195.842 198.469 205.963 216.63 212.335C237.007 219.491 258.576 222.557 279.787 226.118C324.407 233.598 369.095 240.651 413.783 247.722C417.037 248.233 415.64 253.157 412.437 252.646Z" fill="#D3C4AF"/>
<path d="M1498.82 228.418C1451.26 232.354 1403.64 235.795 1355.98 238.657C1258.79 244.501 1161.46 248.113 1064.09 249.51C974.064 250.788 884.006 250.141 794 247.619C797.577 247.142 801.138 246.631 804.699 246.103C852.743 238.879 899.919 226.953 946.975 214.992C946.975 215.009 946.992 215.026 947.009 215.043C991.221 206.354 1034.48 193.218 1076.9 178.157C1118.37 163.436 1159.33 147.131 1199.77 129.855C1239.45 112.902 1278.57 94.5358 1316.32 73.6305C1347.55 56.3203 1377.77 37.221 1406.45 15.958C1402.75 24.085 1401.76 33.4898 1401.29 42.2642C1399.92 67.497 1403.09 93.0535 1410.47 117.23C1417.76 141.202 1429.21 163.879 1444.59 183.694C1452.24 193.525 1460.88 202.623 1470.39 210.682C1478.82 217.82 1488.12 225.164 1498.82 228.418Z" fill="#EFE2CB"/>
<path d="M777.201 245.898C774.969 245.694 772.755 245.489 770.523 245.268H770.506C724.369 240.685 678.948 230.803 633.987 219.763C622.164 216.849 610.357 213.868 598.567 210.869L598.721 210.767C597.818 210.596 596.915 210.392 596.012 210.221C595.296 210.034 594.564 209.847 593.831 209.676C593.524 209.591 593.235 209.574 592.962 209.608C555.225 202.043 518.152 191.31 481.744 178.889C440.003 164.663 398.876 148.494 358.191 131.507C318.733 115.032 279.77 97.3128 241.998 77.2084C204.551 57.2743 168.262 35.0061 134.324 9.50066C133.063 8.56358 131.837 7.5754 130.593 6.63833C126.214 4.1849 121.836 1.74852 116.878 0.351427C111.273 -0.687872 105.48 0.658105 100.471 3.33302C88.6136 9.67103 81.0492 22.4663 77.4884 35.0572C73.3314 49.7266 74.2854 65.1798 76.9943 80.0196C77.7099 83.9553 78.5447 87.8569 79.4477 91.7585C79.8225 93.326 81.8499 94.1438 83.2129 93.2749C97.7966 84.1086 115.481 80.2752 132.535 82.8649C132.654 82.8819 132.757 82.8819 132.859 82.8819C131.564 92.1163 129.707 101.283 127.237 110.296C121.001 132.905 111.051 154.474 97.524 173.659C90.7603 183.217 83.0936 192.145 74.6091 200.22C70.3669 204.258 65.9202 208.109 61.2691 211.704C56.0728 215.708 50.5869 219.626 44.5217 222.216C41.6083 223.477 38.5076 224.38 35.3557 224.772C35.1172 224.755 34.8446 224.755 34.572 224.806C24.3838 226.714 14.7238 220.512 9.76603 211.908C7.26158 207.564 5.64305 202.52 5.20009 197.528C4.72305 192.076 6.88676 187.766 11.2483 184.512C13.8549 182.569 11.3164 178.14 8.67565 180.099C3.42823 184.018 -0.132515 189.265 0.00378126 196.012C0.140078 202.163 2.06527 208.518 5.01268 213.885C7.97713 219.286 12.4068 223.749 17.6372 226.629C17.8416 226.663 18.046 226.731 18.2505 226.816C23.4298 229.253 28.7794 231.076 34.3335 232.439C35.3898 232.694 36.4461 232.933 37.4854 233.154C129.69 240.838 222.065 246.563 314.525 250.226C411.807 254.093 509.208 255.746 606.575 255.15C661.23 254.826 715.868 253.787 770.489 252.066H770.523C771.63 251.998 772.346 251.384 772.703 250.584C774.203 250.72 775.702 250.873 777.201 251.01C780.472 251.299 780.455 246.188 777.201 245.898ZM83.6388 87.0732C78.204 62.0619 75.921 31.5815 96.3144 12.5845C100.812 8.39321 106.741 5.01975 113.028 5.03679C118.088 5.05382 122.551 7.52429 125.789 11.3237C132.399 19.144 133.864 30.4911 134.477 40.3388C135.278 52.8615 134.903 65.4353 133.472 77.8728C116.333 75.3683 98.6996 78.5373 83.6388 87.0732ZM476.906 249.51C379.539 248.113 282.206 244.501 185.009 238.657C137.357 235.795 89.7551 232.353 42.1705 228.418C52.8698 225.164 62.1721 217.82 70.6054 210.682C80.1292 202.623 88.7499 193.525 96.3996 183.694C102.465 175.891 107.9 167.627 112.738 159.023C112.96 158.904 113.13 158.768 113.3 158.614C113.3 158.614 113.317 158.614 113.317 158.58C113.641 158.274 113.846 157.865 113.948 157.422C113.948 157.405 113.965 157.371 113.965 157.354C114.016 157.132 114.033 156.911 114.033 156.689C120.865 144.149 126.385 130.894 130.542 117.23C137.902 93.0534 141.071 67.4969 139.708 42.2641C139.231 33.4897 138.26 24.0849 134.563 15.9579C163.236 37.221 193.443 56.3202 224.689 73.6305C262.443 94.5357 301.56 112.902 341.222 129.855C381.685 147.131 422.643 163.436 464.094 178.157C506.533 193.218 549.773 206.354 594.001 215.043C594.001 215.026 594.019 215.009 594.036 214.992C641.092 226.952 688.251 238.879 736.312 246.103C739.873 246.631 743.434 247.142 746.994 247.619C656.988 250.141 566.947 250.788 476.906 249.51Z" fill="black"/>
<path d="M133.472 77.8732C116.333 75.3687 98.6996 78.5377 83.6389 87.0736C78.204 62.0623 75.9211 31.5819 96.3144 12.5849C100.812 8.3936 106.741 5.02014 113.028 5.03717C118.088 5.05421 122.552 7.52467 125.789 11.3241C132.399 19.1444 133.864 30.4915 134.477 40.3392C135.278 52.8619 134.903 65.4357 133.472 77.8732Z" fill="#D3C4AF"/>
<path d="M1499.06 226.306C1490.46 224.977 1483.49 219.712 1477.12 214.107C1455.19 194.803 1431.32 173.217 1422.65 144.338C1422.63 144.235 1422.58 144.15 1422.55 144.065C1423.04 143.537 1423.54 143.009 1424.03 142.481C1426.26 140.061 1422.65 136.449 1420.4 138.869C1405.77 154.697 1390.67 170.235 1373.75 183.661C1358.71 195.604 1342.07 205.724 1323.9 212.096C1303.53 219.252 1281.96 222.319 1260.75 225.88C1216.13 233.36 1171.44 240.413 1126.75 247.467C1123.5 247.978 1124.88 252.902 1128.1 252.408C1138.29 250.789 1148.47 249.188 1158.66 247.569C1159.04 248.285 1159.75 248.796 1160.81 248.779C1182.56 248.285 1204.3 247.637 1226.04 246.853C1264.58 245.456 1303.1 243.599 1341.59 241.282C1380.08 238.948 1418.55 236.171 1456.96 232.917C1457.93 232.831 1458.62 232.337 1459.03 231.69C1472.13 230.957 1485.26 230.821 1498.38 231.315C1501.23 231.434 1501.92 226.732 1499.06 226.306Z" fill="#D3C4AF"/>
<path d="M1532.34 180.099C1529.69 178.14 1527.14 182.569 1529.75 184.512C1534.11 187.766 1536.29 192.076 1535.79 197.528C1535.37 202.52 1533.73 207.564 1531.24 211.908C1526.29 220.512 1516.61 226.714 1506.44 224.806C1506.15 224.755 1505.89 224.755 1505.64 224.772C1502.49 224.38 1499.39 223.477 1496.47 222.216C1490.41 219.626 1484.92 215.708 1479.72 211.704C1475.09 208.109 1470.63 204.258 1466.38 200.22C1457.92 192.145 1450.23 183.217 1443.49 173.659C1429.94 154.474 1419.99 132.905 1413.77 110.296C1411.29 101.283 1409.43 92.1163 1408.15 82.8819C1408.25 82.8819 1408.36 82.8819 1408.46 82.8649C1425.53 80.2752 1443.21 84.1086 1457.8 93.2749C1459.14 94.1438 1461.19 93.326 1461.55 91.7585C1462.45 87.8569 1463.3 83.9553 1464.02 80.0196C1466.71 65.1798 1467.66 49.7266 1463.52 35.0572C1459.94 22.4663 1452.38 9.67103 1440.54 3.33302C1435.53 0.658105 1429.72 -0.687872 1424.13 0.351427C1419.16 1.74852 1414.78 4.1849 1410.42 6.63833C1409.16 7.5754 1407.93 8.56358 1406.69 9.50066C1372.73 35.0061 1336.46 57.2743 1299 77.2084C1261.24 97.3128 1222.28 115.032 1182.82 131.507C1142.12 148.494 1101.01 164.663 1059.27 178.889C1022.86 191.31 985.786 202.043 948.049 209.608C947.759 209.574 947.469 209.591 947.163 209.676C946.43 209.847 945.715 210.034 944.982 210.221C944.079 210.392 943.176 210.596 942.273 210.767C942.341 210.801 942.392 210.835 942.443 210.869C930.637 213.868 918.83 216.849 907.006 219.763C862.046 230.803 816.642 240.685 770.522 245.268H770.505C768.273 245.489 766.042 245.694 763.81 245.898C760.556 246.188 760.539 251.299 763.81 251.01C765.309 250.873 766.808 250.72 768.308 250.584C768.648 251.384 769.364 251.998 770.488 252.066H770.522C825.143 253.787 879.781 254.826 934.436 255.15C1031.8 255.746 1129.19 254.093 1226.49 250.226C1319.71 246.529 1412.85 240.753 1505.83 232.967C1507.75 232.609 1509.68 232.302 1511.6 231.876C1513.76 231.399 1516.2 230.633 1518.18 229.593C1519.4 228.946 1520.39 228.179 1521.55 227.634C1521.55 227.634 1521.55 227.6 1521.52 227.583C1527.56 224.789 1532.69 219.916 1536 213.885C1538.95 208.518 1540.89 202.163 1541.01 196.012C1541.16 189.265 1537.6 184.018 1532.35 180.099H1532.34ZM1415.22 11.3237C1418.44 7.52429 1422.91 5.05382 1427.97 5.03679C1434.25 5.01975 1440.2 8.39321 1444.7 12.5845C1465.09 31.5815 1462.79 62.0619 1457.36 87.0732C1442.29 78.5373 1424.68 75.3683 1407.52 77.8728C1406.09 65.4353 1405.72 52.8615 1406.52 40.3388C1407.15 30.4911 1408.59 19.144 1415.22 11.3237ZM1355.98 238.657C1258.79 244.501 1161.46 248.113 1064.09 249.51C974.064 250.788 884.006 250.141 793.999 247.619C797.577 247.142 801.138 246.631 804.699 246.103C852.743 238.879 899.919 226.952 946.975 214.992C946.975 215.009 946.992 215.026 947.009 215.043C991.221 206.354 1034.48 193.218 1076.9 178.157C1118.37 163.436 1159.33 147.131 1199.77 129.855C1239.45 112.902 1278.57 94.5357 1316.32 73.6305C1347.55 56.3202 1377.77 37.221 1406.45 15.9579C1402.75 24.0849 1401.76 33.4897 1401.29 42.2641C1399.92 67.4969 1403.09 93.0534 1410.47 117.23C1417.76 141.202 1429.21 163.879 1444.59 183.694C1452.24 193.525 1460.88 202.623 1470.39 210.682C1478.82 217.82 1488.12 225.164 1498.82 228.418C1451.26 232.353 1403.64 235.795 1355.98 238.657Z" fill="black"/>
<path d="M1457.36 87.0736C1442.29 78.5377 1424.68 75.3687 1407.52 77.8732C1406.09 65.4357 1405.72 52.8619 1406.52 40.3392C1407.15 30.4915 1408.59 19.1444 1415.22 11.3241C1418.44 7.52467 1422.91 5.05421 1427.97 5.03717C1434.25 5.02014 1440.2 8.3936 1444.7 12.5849C1465.09 31.5819 1462.79 62.0623 1457.36 87.0736Z" fill="#D3C4AF"/>
</svg>
