<svg width="1612" height="258" viewBox="0 0 1612 258" fill="none" xmlns="http://www.w3.org/2000/svg">
<g clip-path="url(#clip0_7374_129)">
<path d="M806 174.582C808.312 174.065 808.295 170.443 806 169.91C803.688 170.443 803.688 174.065 806 174.582Z" fill="#1A171B"/>
<path d="M60.5755 23.9912C78.3102 12.8686 98.955 9.37663 119.632 8.11563C142.815 6.69297 166.143 6.74145 189.358 6.35345C238.489 5.51279 287.635 5.12479 336.781 4.94696C434.217 4.60745 531.637 4.9631 629.073 5.09243C823.427 5.33491 1017.91 3.44342 1212.23 6.98388C1320.26 8.9562 1428.32 13.9517 1535.69 26.4322C1529.23 28.2914 1523.03 31.0882 1517.38 34.6448C1495.12 48.6127 1481.45 72.2159 1475.88 97.4519C1472.74 111.695 1471.87 126.374 1472.26 140.924C1472.64 154.455 1473.94 168.035 1476.44 181.324C1478.87 194.079 1482.54 206.641 1488.07 218.394C1493.4 229.727 1500.76 241.221 1510.38 249.401C1511.23 250.129 1512.12 250.759 1513.04 251.309C1470.33 253.281 1427.52 251.94 1384.94 248.286C1337.64 244.228 1290.62 237.406 1243.84 229.484C1197.21 221.579 1150.78 212.574 1104.29 204.006C1058.05 195.47 1011.74 187.37 965.143 181.162C918.309 174.938 871.167 170.654 823.912 169.943C818.141 169.846 812.369 169.814 806.598 169.83C806.387 169.83 806.177 169.862 805.999 169.911C805.822 169.862 805.612 169.83 805.401 169.83C799.63 169.814 793.858 169.846 788.087 169.943C740.832 170.654 693.69 174.938 646.856 181.162C600.248 187.37 553.93 195.47 507.71 204.006C461.215 212.574 414.785 221.579 368.161 229.484C321.374 237.406 274.346 244.228 227.059 248.286C184.46 251.94 141.667 253.282 98.955 251.309C99.8765 250.76 100.766 250.129 101.622 249.402C111.242 241.221 118.597 229.727 123.916 218.394C129.445 206.641 133.131 194.08 135.54 181.324C138.062 168.035 139.355 154.455 139.727 140.924C140.131 126.374 139.258 111.695 136.122 97.452C130.544 72.216 116.867 48.6129 94.6223 34.6449C84.4697 28.2592 72.6034 24.2337 60.5755 23.9912Z" fill="#EFE2CB"/>
<path d="M139.663 152.063C169.62 178.915 212.283 185.592 250.646 191.461C295.218 198.267 340.371 201.274 385.443 200.514C430.742 199.738 475.976 195.147 520.483 186.724C564.827 178.333 608.283 166.079 653.275 161.245C698.686 156.379 744.47 156.896 790.011 159.289C795.589 159.58 801.166 159.92 806.744 160.243C806.808 160.259 806.873 160.259 806.938 160.259C807.859 160.324 807.972 161.601 807.261 161.827C807.164 161.876 807.051 161.876 806.938 161.876C806.873 161.876 806.808 161.876 806.744 161.86C806.582 161.86 806.404 161.843 806.243 161.827C760.507 159.03 714.562 157.705 668.827 161.407C645.482 163.298 622.332 166.677 599.391 171.382C576.742 176.005 554.303 181.567 531.637 186.174C487.519 195.147 442.64 200.368 397.649 201.823C352.641 203.278 307.537 200.95 262.933 194.856C242.014 191.994 220.981 188.68 200.514 183.442C183.684 179.142 166.985 173.176 152.305 163.735C151.125 162.975 149.961 162.183 148.797 161.375C145.402 159.014 142.169 156.428 139.065 153.679C138.871 153.518 138.693 153.356 138.515 153.194C137.739 152.499 138.887 151.368 139.663 152.063Z" fill="#D3C4AF"/>
<path d="M806.566 160.259C806.566 160.259 806.679 160.259 806.743 160.243C812.305 159.92 817.898 159.58 823.492 159.289C869.033 156.897 914.817 156.379 960.229 161.245C1005.22 166.079 1048.68 178.333 1093.02 186.724C1137.53 195.147 1182.76 199.738 1228.06 200.514C1273.13 201.274 1318.29 198.267 1362.84 191.461C1401.2 185.592 1443.88 178.915 1473.84 152.063C1474.62 151.368 1475.75 152.499 1474.97 153.194C1474.6 153.534 1474.23 153.857 1473.86 154.164C1472.72 155.183 1471.56 156.153 1470.38 157.107C1468.54 158.594 1466.65 160.017 1464.71 161.375C1449.22 172.206 1431.18 178.786 1412.99 183.442C1392.52 188.68 1371.49 191.994 1350.57 194.856C1305.97 200.95 1260.85 203.278 1215.85 201.823C1170.86 200.368 1125.98 195.147 1081.85 186.174C1059.2 181.567 1036.76 176.005 1014.11 171.382C991.172 166.677 968.021 163.298 944.677 161.407C898.941 157.705 852.996 159.031 807.261 161.827C807.083 161.843 806.921 161.86 806.743 161.86C806.679 161.876 806.63 161.876 806.566 161.876C806.452 161.876 806.339 161.876 806.242 161.827C805.531 161.601 805.644 160.324 806.566 160.259Z" fill="#D3C4AF"/>
<path d="M118.549 238.619C120.166 236.84 121.556 234.9 122.655 232.75C123.997 231.182 125.323 229.598 126.519 227.916C128.588 224.99 130.011 221.724 131.482 218.459C133.066 214.935 134.618 211.394 136.17 207.854C139.242 200.821 142.427 193.805 145.256 186.675C146.63 183.248 147.535 179.756 147.681 176.054C147.746 174.276 147.568 172.352 147.552 170.46C149.54 172.513 151.464 174.68 153.404 176.668C155.958 179.271 160.42 175.925 158.496 172.756C156.605 169.652 154.665 166.532 152.305 163.735C166.984 173.176 183.684 179.142 200.513 183.442C220.98 188.68 242.013 191.994 262.932 194.856C307.536 200.95 352.641 203.278 397.648 201.823C442.64 200.368 487.518 195.147 531.637 186.174C554.302 181.567 576.741 176.005 599.391 171.382C622.331 166.677 645.482 163.298 668.826 161.407C714.561 157.705 760.507 159.03 806.242 161.827C806.339 161.876 806.452 161.876 806.565 161.876C806.63 161.876 806.678 161.876 806.743 161.86C806.808 161.876 806.872 161.876 806.937 161.876C807.05 161.876 807.163 161.876 807.26 161.827C852.996 159.03 898.941 157.705 944.676 161.407C968.021 163.298 991.171 166.677 1014.11 171.382C1036.76 176.005 1059.2 181.567 1081.85 186.174C1125.98 195.147 1170.86 200.368 1215.85 201.823C1260.85 203.278 1305.97 200.95 1350.57 194.856C1371.49 191.994 1392.52 188.68 1412.99 183.442C1431.18 178.786 1449.22 172.206 1464.71 161.375C1466.65 160.017 1468.54 158.594 1470.38 157.107C1470.35 157.204 1470.35 157.284 1470.33 157.381C1466.95 186.303 1479.14 214.466 1494.73 238.133C1496.63 241.011 1498.59 244.164 1500.92 246.896C1480.94 246.265 1460.97 245.635 1441.01 245.004C1437.01 244.632 1433 244.487 1428.96 244.616C1427.51 244.681 1426.59 245.473 1426.13 246.475C1424.22 246.362 1422.32 246.217 1420.41 246.055C1411.31 245.263 1402.22 244.261 1393.14 243.339C1375.05 241.512 1356.97 239.653 1338.88 237.762C1328.52 236.678 1318.16 235.579 1307.79 234.48C1307.32 234.431 1306.89 234.528 1306.48 234.722C1285.4 230.794 1264.42 226.364 1243.56 221.417C1241.57 220.948 1240.25 221.983 1239.81 223.357C1216.61 219.687 1193.54 215.29 1170.62 210.214C1169.71 210.004 1168.92 210.181 1168.29 210.553C1138.76 207.368 1109.82 200.368 1080.73 194.565C1072.29 192.883 1063.86 191.299 1055.37 189.925C1054.82 189.844 1054.29 189.876 1053.78 189.973C1053.62 189.925 1053.46 189.86 1053.28 189.828C1007.76 180.5 961.716 173.677 915.447 169.393C902.304 168.181 889.144 167.195 875.968 166.386C875.208 166.338 874.594 166.516 874.109 166.839C832.367 166.111 790.593 162.183 748.834 164.721C738.31 165.352 727.818 166.467 717.39 168.051C717.277 168.035 717.18 168.019 717.051 168.019C701.272 167.874 685.51 168.714 669.829 170.525C668.309 170.703 666.983 171.592 666.66 173.079C644.56 175.488 622.493 178.43 600.474 181.518C597.499 181.939 594.525 182.375 591.55 182.795C591.13 182.731 590.693 182.747 590.257 182.812C583.855 183.782 577.469 184.735 571.083 185.705C570.291 185.835 569.66 186.368 569.256 187.063C559.75 188.777 550.293 190.749 540.9 192.98C540.237 192.705 539.494 192.641 538.734 192.754C523.57 195.13 508.405 197.507 493.241 199.883C478.643 202.179 463.98 204.297 449.769 208.484C449.171 208.662 448.702 208.937 448.347 209.292C432.229 211.847 416.127 214.579 400.089 217.667C391.02 219.413 381.951 221.288 372.93 223.293C372.267 223.454 371.766 223.745 371.394 224.133C328.31 231.327 285 237.067 241.528 241.302C229.08 242.515 216.631 243.598 204.167 244.568C203.051 244.665 202.259 245.182 201.742 245.893C181.712 247.057 161.649 247.3 141.602 246.621C140.988 246.589 140.487 246.734 140.05 246.944C138.466 246.96 136.882 246.977 135.297 246.977C135.572 245.214 134.554 243.129 132.226 242.984C127.942 242.725 123.48 242.191 119.195 241.141C119.341 240.154 119.066 239.281 118.549 238.619Z" fill="#D3C4AF"/>
<path d="M99.9251 246.863C101.881 245.602 104.031 244.842 106.182 244.05C107.119 241.56 108.703 239.604 110.433 237.777C112.438 234.463 115.008 231.586 117.514 228.676C120.457 222.888 122.688 216.632 125.048 210.618C127.683 203.876 130.254 197.119 132.856 190.361C133.438 188.825 134.02 187.289 134.586 185.753C134.586 183.345 134.748 180.984 135.12 178.673C135.621 171.349 136.138 164.026 136.655 156.718C136.752 155.215 137.82 154.099 139.064 153.679C140.358 153.226 141.845 153.566 142.686 155.086C143.559 156.67 145.175 157.494 146.614 158.497C148.295 159.677 149.847 161.002 151.238 162.506C151.61 162.91 151.965 163.314 152.305 163.735C154.665 166.531 156.605 169.652 158.496 172.756C160.42 175.924 155.958 179.271 153.404 176.668C151.464 174.679 149.54 172.513 147.552 170.46C147.568 172.351 147.746 174.275 147.681 176.054C147.536 179.756 146.63 183.248 145.256 186.675C142.427 193.804 139.242 200.821 136.17 207.853C134.618 211.394 133.067 214.934 131.482 218.458C130.011 221.724 128.588 224.99 126.519 227.916C125.323 229.597 123.997 231.182 122.655 232.75C121.556 234.9 120.166 236.84 118.549 238.618C119.066 239.281 119.341 240.154 119.196 241.14C123.48 242.191 127.942 242.724 132.226 242.983C134.554 243.129 135.572 245.214 135.297 246.976C136.882 246.976 138.466 246.96 140.05 246.944C140.487 246.734 140.988 246.588 141.602 246.621C161.649 247.3 181.712 247.057 201.742 245.893C202.259 245.182 203.052 244.664 204.167 244.567C216.631 243.597 229.08 242.514 241.528 241.302C285 237.066 328.31 231.327 371.394 224.133C371.766 223.745 372.267 223.454 372.93 223.292C381.951 221.288 391.02 219.412 400.09 217.666C416.127 214.578 432.229 211.846 448.347 209.292C448.702 208.936 449.171 208.661 449.769 208.484C463.98 204.297 478.643 202.179 493.241 199.883C508.406 197.507 523.57 195.13 538.734 192.754C539.494 192.64 540.238 192.705 540.9 192.98C550.293 190.749 559.751 188.777 569.256 187.063C569.661 186.368 570.291 185.834 571.083 185.705C577.469 184.735 583.855 183.781 590.257 182.811C590.693 182.746 591.13 182.73 591.55 182.795C594.525 182.375 597.499 181.938 600.474 181.518C622.493 178.43 644.56 175.488 666.66 173.079C666.983 171.592 668.309 170.702 669.829 170.525C685.51 168.714 701.273 167.873 717.051 168.019C717.18 168.019 717.278 168.035 717.391 168.051C727.818 166.467 738.31 165.351 748.835 164.721C790.593 162.183 832.367 166.111 874.109 166.839C874.594 166.515 875.209 166.337 875.968 166.386C889.144 167.194 902.304 168.18 915.447 169.393C961.716 173.677 1007.76 180.499 1053.28 189.827C1053.46 189.86 1053.62 189.924 1053.78 189.973C1054.29 189.876 1054.82 189.844 1055.37 189.924C1063.86 191.299 1072.3 192.883 1080.73 194.564C1109.82 200.368 1138.76 207.368 1168.29 210.553C1168.92 210.181 1169.71 210.003 1170.62 210.213C1193.54 215.29 1216.61 219.687 1239.81 223.357C1240.25 221.983 1241.58 220.948 1243.56 221.417C1264.42 226.364 1285.4 230.793 1306.48 234.722C1306.89 234.528 1307.32 234.431 1307.79 234.479C1318.16 235.579 1328.52 236.678 1338.88 237.761C1356.97 239.653 1375.05 241.512 1393.14 243.339C1402.22 244.26 1411.31 245.262 1420.41 246.055C1422.32 246.216 1424.23 246.362 1426.13 246.475C1426.59 245.473 1427.51 244.68 1428.96 244.616C1433 244.486 1437.01 244.616 1441.01 245.004C1460.97 245.634 1480.94 246.265 1500.92 246.895C1498.59 244.163 1496.64 241.011 1494.73 238.133C1479.14 214.465 1466.95 186.303 1470.33 157.381C1470.35 157.284 1470.35 157.203 1470.38 157.106C1470.64 155.49 1471.74 154.148 1473.57 154.148C1473.66 154.148 1473.76 154.148 1473.86 154.164C1475.38 154.326 1476.98 155.748 1476.8 157.381C1475.93 164.818 1476.01 172.367 1477.14 179.756C1479.18 193.077 1483.96 205.816 1490.17 217.715C1493.3 223.712 1496.78 229.516 1500.5 235.158C1503.43 239.572 1506.67 245.78 1512.15 247.348C1515.61 248.334 1514.98 253.815 1511.28 253.685C1490.82 253.039 1470.35 252.392 1449.88 251.745C1449.56 251.972 1449.19 252.149 1448.75 252.214C1438.66 253.685 1428.59 253.281 1418.47 252.343C1381.77 248.981 1345.12 244.923 1308.47 241.027C1307.87 241.302 1307.2 241.415 1306.4 241.269C1293.76 238.941 1281.13 236.387 1268.56 233.671C1268.15 233.833 1267.7 233.914 1267.18 233.849C1266.89 233.817 1266.62 233.768 1266.33 233.736L1266.28 233.736C1234.11 229.387 1202.13 223.761 1170.43 216.777C1169.99 217.02 1169.5 217.149 1168.99 217.1C1160.42 216.195 1151.88 214.999 1143.38 213.592C1113.31 208.597 1083.74 201.031 1053.66 196.165C1053.46 196.132 1053.3 196.084 1053.14 196.019C1052.67 196.149 1052.14 196.181 1051.57 196.068C1038.9 193.465 1026.19 191.056 1013.45 188.857C968.021 180.984 922.156 175.665 876.146 172.869C875.677 173.144 875.128 173.321 874.433 173.321C862.696 173.111 850.975 172.675 839.254 172.174C808.231 170.88 776.981 169.231 745.973 171.365C745.601 172.562 744.615 173.564 743.031 173.645C733.493 174.081 723.954 174.534 714.416 174.987C713.737 175.019 713.171 174.825 712.686 174.518C710.924 174.518 709.162 174.518 707.4 174.55C706.882 175.294 706.058 175.86 704.926 175.94C695.194 176.684 685.478 177.573 675.762 178.559C650.283 181.178 624.886 184.557 599.52 188.13C598.922 188.728 598.081 189.1 597.16 189.213C578.601 191.606 560.187 195.017 541.983 199.366C541.11 199.576 540.351 199.43 539.736 199.107C526.884 201.112 514.015 203.133 501.163 205.153C501.195 206.56 500.484 207.934 498.867 208.16C489.717 209.518 480.551 210.86 471.4 212.234C457.044 214.401 442.688 216.648 428.381 219.105C428.009 219.8 427.411 220.382 426.538 220.625C418.099 222.969 409.482 224.521 400.752 225.362C400.057 225.442 399.411 225.184 398.877 224.763C391.505 226.057 384.149 227.496 376.842 229.08C376.438 229.549 375.921 229.904 375.29 230.001C362.826 232.103 350.345 234.075 337.848 235.934C300.972 241.399 263.935 245.78 226.816 249.126C226.299 249.935 225.458 250.549 224.262 250.662C197.232 253.184 170.072 253.993 142.944 253.12C142.556 253.297 142.12 253.394 141.602 253.411C128.249 253.572 114.895 253.394 101.558 252.893C98.3084 252.764 97.2091 248.609 99.9251 246.863Z" fill="#D3C4AF"/>
<path d="M4.81748 120.748C5.05998 114.621 5.72283 108.526 6.85448 102.496C11.462 78.1164 23.1827 54.2061 40.9013 36.6653C45.8321 31.7992 51.361 29.0347 58.3449 28.8084C64.1002 28.6306 69.8718 29.5359 75.3846 31.1526C86.103 34.2727 95.8352 40.2867 103.967 47.9011C108.041 51.7164 111.63 55.8874 114.815 60.317C103.482 57.9082 91.923 56.6795 80.3477 56.6795C80.1052 56.6795 79.8788 56.7119 79.6686 56.7604C77.664 56.7927 75.6594 57.0676 73.7679 57.5849C67.6569 59.25 62.6614 63.4048 58.8623 68.368C50.5527 79.2319 46.8506 93.6686 45.4602 107.055C43.9729 121.443 45.4441 136.009 48.0308 150.187C50.7144 164.85 54.5944 179.303 58.733 193.594C63.0172 208.354 67.9641 222.953 74.4792 236.872C75.4007 238.844 76.4192 240.833 77.567 242.741C78.3753 244.971 79.3776 247.154 80.574 249.207C81.156 250.193 81.7703 251.147 82.4332 252.069C83.1283 253.006 83.7912 253.928 84.7935 254.477C85.1654 255.011 85.7473 255.399 86.5718 255.464C92.3433 255.819 98.0986 256.11 103.854 256.353C150.915 258.277 198.056 256.126 244.875 251.438C291.483 246.782 337.8 239.653 383.923 231.634C430.515 223.518 476.946 214.465 523.473 205.978C570.372 197.442 617.385 189.472 664.704 183.7C711.377 178.01 758.357 174.501 805.402 174.647C805.612 174.647 805.822 174.631 806 174.582C806.178 174.631 806.388 174.647 806.598 174.647C853.643 174.501 900.607 178.01 947.296 183.7C994.615 189.472 1041.63 197.442 1088.51 205.978C1135.04 214.465 1181.47 223.518 1228.08 231.634C1274.2 239.653 1320.52 246.782 1367.11 251.438C1413.94 256.126 1461.09 258.276 1508.13 256.353C1513.9 256.11 1519.66 255.819 1525.41 255.463C1526.24 255.399 1526.82 255.011 1527.21 254.477C1528.19 253.928 1528.87 253.006 1529.55 252.068C1530.21 251.147 1530.84 250.193 1531.43 249.207C1532.62 247.154 1533.61 244.971 1534.43 242.74C1535.58 240.833 1536.58 238.844 1537.5 236.872C1544.02 222.953 1548.98 208.354 1553.25 193.594C1557.41 179.303 1561.29 164.85 1563.97 150.187C1566.56 136.009 1568.03 121.443 1566.54 107.054C1565.15 93.6685 1561.43 79.2318 1553.12 68.3678C1549.34 63.4047 1544.33 59.2499 1538.22 57.5848C1536.65 57.1644 1535 56.9058 1533.35 56.8088C1533.17 56.7279 1532.98 56.6471 1532.77 56.6148C1522.11 54.6101 1511.28 54.3838 1500.6 55.8873C1502.89 53.0905 1505.35 50.423 1508.03 47.901C1516.15 40.2865 1525.9 34.2726 1536.62 31.1524C1542.13 29.5358 1547.9 28.6305 1553.64 28.8083C1560.64 29.0346 1566.17 31.7991 1571.08 36.6652C1588.82 54.2059 1600.54 78.1163 1605.15 102.495C1606.28 108.526 1606.94 114.62 1607.18 120.748C1607.31 123.835 1612.11 123.851 1612 120.748C1610.92 93.62 1601.39 66.9452 1584.92 45.3467C1580.86 40.0279 1576.48 34.5636 1571.26 30.3441C1565.63 25.8013 1559.07 23.9098 1551.88 23.9745C1550.66 23.9906 1549.53 24.0391 1548.4 24.1038C1547.04 23.9906 1545.68 23.829 1544.34 23.5703C1543.49 23.4086 1542.69 23.1015 1541.87 22.8266C1541.17 22.6003 1540.46 22.4225 1539.74 22.2608C1539.44 22.1315 1539.12 22.0183 1538.78 21.9698C1442.02 10.5886 1344.67 5.33444 1247.31 2.92563C1149.67 0.516822 1051.96 0.823988 954.296 0.694664C855.243 0.56534 756.207 0.436032 657.154 0.306708C558.716 0.177384 460.278 -0.129787 361.84 0.0642206C312.71 0.161224 263.563 0.452248 214.417 1.14741C189.844 1.50308 165.287 1.93957 140.714 2.52156C120.974 2.9904 100.798 3.55623 81.7056 9.21452C72.6524 11.8982 64.1164 15.7943 56.2433 21.0485C56.017 21.194 55.8392 21.3718 55.6937 21.5496C54.2549 22.6974 52.8483 23.8291 51.1832 24.7021C50.2778 25.1871 49.324 25.5266 48.3864 25.9307C48.2409 25.9954 48.0953 26.0601 47.9498 26.1409C45.4117 27.1432 43.0029 28.5336 40.7396 30.3604C35.5178 34.5799 31.1529 40.0442 27.095 45.363C10.6052 66.9615 1.09922 93.6363 0.0160625 120.764C-0.11327 123.868 4.70433 123.852 4.83367 120.764L4.81748 120.748ZM118.679 66.137C127.376 80.4767 132.129 97.1121 133.956 113.958C135.427 127.441 135.233 141.069 134.199 154.568C133.956 157.704 133.649 160.841 133.309 163.961C125.323 164.333 117.337 164.85 109.351 164.866C103.32 164.882 97.3225 164.397 91.3894 163.476C91.8582 162.862 92.2947 162.231 92.6989 161.601C94.461 158.885 96.0292 156.055 97.4519 153.162C100.41 147.18 102.738 140.891 104.371 134.425C107.605 121.669 108.203 108.332 106.23 95.3176C105.277 88.9318 103.644 82.643 101.364 76.5967C99.4404 71.5204 97.2417 65.9753 93.3618 62.0307C101.882 62.7258 110.337 64.0838 118.679 66.137ZM88.0753 159.887C87.3478 160.938 86.4748 161.924 85.4887 162.377C85.327 162.344 85.1654 162.328 85.0037 162.296C84.3894 162.15 83.8558 162.247 83.4031 162.49C83.0313 162.36 82.6757 162.183 82.2877 161.892C80.0729 160.178 78.9089 157.236 77.8095 154.762C72.4584 142.75 69.8555 129.623 69.8717 116.512C75.045 116.14 80.2507 116.399 85.3755 117.223C88.2208 117.692 91.0499 118.29 93.8467 118.985C96.5304 119.664 99.214 120.392 101.995 120.327C101.122 128.394 99.2141 136.365 96.3041 143.914C94.1539 149.476 91.4379 154.956 88.0753 159.887ZM80.9459 239.038C77.6156 233.154 75.0936 226.671 72.6686 220.366C67.5438 207.029 63.5183 193.303 59.8162 179.513C52.9615 153.954 46.4303 126.616 51.2641 100.087C53.4304 88.2367 57.7145 74.5274 67.2043 66.4442C71.3429 62.9037 76.9042 60.899 82.3847 61.6912C88.7543 62.5965 92.0523 67.301 94.5904 72.7814C100.734 86.0704 103.239 100.879 102.399 115.477C99.4565 115.639 96.6759 114.685 93.8306 114.022C91.0176 113.36 88.1884 112.794 85.3431 112.373C79.507 111.5 73.6547 111.193 67.7863 111.824C66.5091 111.711 65.0864 112.47 65.0541 114.136C64.8763 121.459 65.4906 128.782 66.8971 135.96C68.3036 143.154 70.5508 150.138 73.4931 156.831C75.6594 161.73 79.5232 168.859 85.9898 167.34C93.4264 168.811 100.992 169.635 108.574 169.651C116.609 169.684 124.676 169.166 132.695 168.795C131.741 175.956 130.448 183.086 128.718 190.102C125.84 201.71 121.766 213.059 115.866 223.502C112.988 228.595 109.69 233.477 105.923 237.955C104.016 240.219 102.011 242.401 99.893 244.454C97.7914 246.491 95.3017 248.625 92.1977 248.593C87.0083 248.528 83.2415 243.064 80.9459 239.038ZM1529.62 61.7072C1535.1 60.9151 1540.64 62.9197 1544.8 66.4602C1554.27 74.5435 1558.57 88.2527 1560.74 100.103C1565.57 126.632 1559.04 153.97 1552.17 179.529C1548.47 193.319 1544.46 207.045 1539.32 220.382C1536.89 226.687 1534.38 233.17 1531.04 239.054C1528.76 243.08 1524.99 248.544 1519.79 248.609C1516.68 248.641 1514.21 246.507 1512.11 244.47C1509.99 242.417 1507.98 240.235 1506.08 237.971C1502.31 233.493 1499.01 228.611 1496.12 223.518C1490.23 213.075 1486.14 201.726 1483.28 190.118C1481.54 183.102 1480.24 175.972 1479.29 168.811C1487.32 169.183 1495.37 169.7 1503.41 169.668C1511.01 169.651 1518.57 168.827 1526.01 167.356C1532.46 168.875 1536.34 161.746 1538.49 156.847C1541.45 150.154 1543.7 143.171 1545.1 135.976C1546.51 128.798 1547.12 121.475 1546.95 114.152C1546.9 112.486 1545.49 111.727 1544.21 111.84C1538.35 111.209 1532.48 111.516 1526.66 112.389C1523.8 112.81 1520.97 113.376 1518.17 114.038C1515.32 114.701 1512.54 115.655 1509.6 115.493C1508.74 100.895 1511.27 86.0864 1517.41 72.7975C1519.95 67.317 1523.25 62.6126 1529.62 61.7072ZM1523.92 159.887C1520.56 154.956 1517.85 149.475 1515.7 143.914C1512.77 136.364 1510.88 128.394 1509.99 120.327C1512.77 120.392 1515.47 119.664 1518.15 118.985C1520.95 118.29 1523.78 117.692 1526.62 117.223C1531.75 116.399 1536.95 116.14 1542.13 116.512C1542.13 129.623 1539.53 142.75 1534.19 154.762C1533.09 157.235 1531.93 160.178 1529.7 161.891C1529.32 162.182 1528.95 162.36 1528.6 162.49C1528.14 162.247 1527.61 162.15 1526.98 162.296C1526.83 162.328 1526.67 162.344 1526.51 162.376C1525.51 161.924 1524.64 160.938 1523.92 159.887ZM1521.08 59.9289C1515.58 63.7765 1512.93 70.5503 1510.64 76.5966C1508.34 82.6429 1506.72 88.9317 1505.75 95.3175C1503.8 108.332 1504.4 121.669 1507.63 134.424C1509.26 140.891 1511.59 147.18 1514.53 153.161C1515.95 156.055 1517.54 158.884 1519.28 161.6C1519.71 162.231 1520.13 162.861 1520.61 163.476C1514.66 164.397 1508.66 164.882 1502.65 164.866C1494.66 164.85 1486.66 164.333 1478.69 163.961C1478.33 160.841 1478.04 157.704 1477.8 154.568C1476.77 141.069 1476.57 127.44 1478.03 113.958C1480.05 95.2205 1485.74 76.7421 1496.43 61.3839C1496.6 61.3839 1496.8 61.3677 1496.99 61.3354C1504.93 59.8157 1513.04 59.3631 1521.08 59.9289ZM119.632 8.11521C142.815 6.69255 166.144 6.74103 189.359 6.35303C238.489 5.51236 287.635 5.12437 336.782 4.94653C434.218 4.60702 531.637 4.96267 629.073 5.092C823.427 5.33448 1017.91 3.443 1212.23 6.98346C1320.26 8.95577 1428.32 13.9512 1535.69 26.4318C1529.23 28.291 1523.04 31.0877 1517.38 34.6444C1495.12 48.6123 1481.45 72.2155 1475.88 97.4515C1472.74 111.694 1471.87 126.373 1472.26 140.923C1472.64 154.455 1473.94 168.035 1476.44 181.324C1478.87 194.079 1482.54 206.64 1488.07 218.394C1493.4 229.726 1500.76 241.221 1510.38 249.401C1511.23 250.128 1512.12 250.759 1513.04 251.309C1470.33 253.281 1427.52 251.939 1384.94 248.286C1337.64 244.228 1290.62 237.405 1243.84 229.484C1197.21 221.578 1150.78 212.574 1104.29 204.005C1058.05 195.469 1011.74 187.37 965.144 181.162C918.309 174.938 871.167 170.654 823.912 169.942C818.141 169.845 812.37 169.813 806.598 169.829C806.388 169.829 806.178 169.862 806 169.91C805.822 169.862 805.612 169.829 805.402 169.829C799.63 169.813 793.859 169.845 788.087 169.942C740.832 170.654 693.691 174.938 646.856 181.162C600.248 187.37 553.931 195.469 507.711 204.005C461.216 212.574 414.785 221.578 368.161 229.484C321.375 237.406 274.346 244.228 227.059 248.286C184.46 251.939 141.667 253.281 98.9554 251.309C99.8769 250.759 100.766 250.129 101.623 249.401C111.242 241.221 118.598 229.726 123.917 218.394C129.446 206.641 133.131 194.079 135.54 181.324C138.062 168.035 139.356 154.455 139.727 140.923C140.132 126.374 139.259 111.694 136.122 97.4516C130.545 72.2156 116.868 48.6124 94.6227 34.6445C84.4701 28.2587 72.6038 24.2333 60.5759 23.9908C78.3106 12.8682 98.9554 9.3762 119.632 8.11521Z" fill="#1A171B"/>
<path d="M69.8717 116.513C75.045 116.141 80.2507 116.399 85.3755 117.224C88.2208 117.693 91.0499 118.291 93.8467 118.986C96.5304 119.665 99.214 120.393 101.995 120.328C101.122 128.395 99.214 136.365 96.3041 143.915C94.1539 149.476 91.4379 154.957 88.0752 159.887C87.3477 160.938 86.4748 161.924 85.4886 162.377C85.327 162.345 85.1653 162.329 85.0037 162.296C84.3893 162.151 83.8557 162.248 83.4031 162.49C83.0313 162.361 82.6757 162.183 82.2877 161.892C80.0729 160.178 78.9088 157.236 77.8095 154.763C72.4584 142.751 69.8555 129.624 69.8717 116.513Z" fill="#99856D"/>
<path d="M51.2643 100.103C53.4307 88.2529 57.7148 74.5437 67.2045 66.4604C71.3432 62.9199 76.9045 60.9153 82.385 61.7074C88.7546 62.6127 92.0526 67.3172 94.5907 72.7977C100.734 86.0866 103.24 100.895 102.399 115.494C99.4568 115.655 96.6761 114.701 93.8308 114.039C91.0178 113.376 88.1887 112.81 85.3434 112.39C79.5073 111.517 73.655 111.209 67.7865 111.84C66.5094 111.727 65.0867 112.487 65.0544 114.152C64.8765 121.475 65.4909 128.799 66.8974 135.977C68.3039 143.171 70.5511 150.155 73.4934 156.848C75.6597 161.746 79.5235 168.876 85.9901 167.356C93.4267 168.827 100.993 169.652 108.575 169.668C116.61 169.7 124.677 169.183 132.695 168.811C131.741 175.973 130.448 183.102 128.718 190.118C125.841 201.726 121.767 213.075 115.866 223.519C112.988 228.611 109.69 233.493 105.923 237.971C104.016 240.235 102.011 242.417 99.8933 244.47C97.7916 246.507 95.302 248.641 92.198 248.609C87.0085 248.544 83.2418 243.08 80.9461 239.055C77.6158 233.17 75.0939 226.687 72.6689 220.382C67.5441 207.045 63.5186 193.319 59.8164 179.529C52.9618 153.97 46.4305 126.632 51.2643 100.103Z" fill="#D3C4AF"/>
<path d="M104.371 134.424C107.605 121.669 108.203 108.331 106.23 95.3173C105.277 88.9315 103.644 82.6427 101.364 76.5964C99.4405 71.5201 97.2418 65.975 93.3618 62.0303C101.882 62.7255 110.337 64.0835 118.679 66.1366C127.376 80.4764 132.129 97.1118 133.956 113.957C135.427 127.44 135.233 141.069 134.199 154.568C133.956 157.704 133.649 160.84 133.309 163.96C125.323 164.332 117.337 164.85 109.351 164.866C103.32 164.882 97.3226 164.397 91.3895 163.475C91.8583 162.861 92.2948 162.231 92.699 161.6C94.4611 158.884 96.0293 156.055 97.4519 153.161C100.41 147.18 102.738 140.891 104.371 134.424Z" fill="#BAA78E"/>
<path d="M1478.03 113.957C1480.05 95.2203 1485.74 76.7419 1496.43 61.3837C1496.6 61.3837 1496.8 61.3675 1496.99 61.3352C1504.93 59.8155 1513.04 59.3628 1521.08 59.9287C1515.58 63.7763 1512.93 70.5501 1510.64 76.5964C1508.34 82.6427 1506.72 88.9315 1505.75 95.3173C1503.8 108.331 1504.4 121.669 1507.63 134.424C1509.26 140.891 1511.59 147.18 1514.53 153.161C1515.95 156.055 1517.54 158.884 1519.28 161.6C1519.7 162.231 1520.13 162.861 1520.61 163.475C1514.66 164.397 1508.66 164.882 1502.65 164.866C1494.66 164.85 1486.66 164.332 1478.69 163.96C1478.33 160.84 1478.04 157.704 1477.8 154.568C1476.77 141.069 1476.57 127.44 1478.03 113.957Z" fill="#BAA78E"/>
<path d="M1509.99 120.327C1512.77 120.392 1515.47 119.664 1518.15 118.985C1520.95 118.29 1523.78 117.692 1526.62 117.223C1531.75 116.398 1536.95 116.14 1542.13 116.512C1542.13 129.623 1539.53 142.75 1534.19 154.762C1533.09 157.235 1531.93 160.177 1529.7 161.891C1529.32 162.182 1528.95 162.36 1528.6 162.489C1528.14 162.247 1527.61 162.15 1526.98 162.295C1526.83 162.328 1526.67 162.344 1526.51 162.376C1525.51 161.923 1524.64 160.937 1523.92 159.886C1520.56 154.956 1517.85 149.475 1515.7 143.914C1512.77 136.364 1510.88 128.394 1509.99 120.327Z" fill="#99856D"/>
<path d="M1545.1 135.977C1546.51 128.799 1547.12 121.475 1546.95 114.152C1546.9 112.487 1545.49 111.727 1544.21 111.84C1538.34 111.209 1532.48 111.517 1526.66 112.39C1523.79 112.81 1520.97 113.376 1518.17 114.039C1515.32 114.701 1512.54 115.655 1509.6 115.494C1508.74 100.895 1511.27 86.0866 1517.41 72.7977C1519.95 67.3172 1523.25 62.6127 1529.61 61.7074C1535.1 60.9153 1540.64 62.9199 1544.8 66.4604C1554.27 74.5437 1558.57 88.2529 1560.74 100.103C1565.57 126.632 1559.04 153.97 1552.17 179.529C1548.46 193.319 1544.46 207.045 1539.31 220.382C1536.89 226.687 1534.38 233.17 1531.04 239.055C1528.76 243.08 1524.99 248.544 1519.79 248.609C1516.68 248.641 1514.21 246.507 1512.11 244.47C1509.99 242.417 1507.98 240.235 1506.08 237.971C1502.31 233.493 1499.01 228.611 1496.12 223.519C1490.23 213.075 1486.14 201.726 1483.28 190.118C1481.54 183.102 1480.24 175.973 1479.29 168.811C1487.32 169.183 1495.37 169.7 1503.41 169.668C1511.01 169.652 1518.57 168.827 1526.01 167.356C1532.46 168.876 1536.34 161.746 1538.49 156.848C1541.45 150.155 1543.7 143.171 1545.1 135.977Z" fill="#D3C4AF"/>
</g>
<defs>
<clipPath id="clip0_7374_129">
<rect width="1612" height="257.048" fill="white" transform="translate(1612 257.048) rotate(180)"/>
</clipPath>
</defs>
</svg>
