<svg width="2397" height="258" viewBox="0 0 2397 258" fill="none" xmlns="http://www.w3.org/2000/svg">
<g clip-path="url(#clip0_7376_19)">
<path d="M2213.77 196.634C2180.45 183.588 2144.04 174.341 2106.58 168.262C2063.5 161.278 2019.37 158.594 1975.16 157.964C1926.77 157.285 1878.33 157.673 1829.94 157.641C1781.33 157.608 1732.72 157.576 1684.12 157.527L1538.32 157.43C1533.61 157.43 1528.9 157.414 1524.18 157.414C1524.11 157.414 1524.06 157.382 1523.97 157.382C1523.41 157.398 1522.86 157.414 1522.31 157.414H1520.1C1520.1 157.414 1519.88 157.447 1519.78 157.447C1346.77 160.033 1173.79 162.846 1000.8 165.902C827.31 168.957 653.843 172.239 480.352 175.763C384.147 177.719 287.918 179.74 191.713 181.842C201.497 165.514 210.343 148.862 210.92 131.063C211.593 111 203.949 91.3415 201.16 71.4728C200.415 66.1055 199.622 60.7543 197.506 55.5325C196.473 52.9782 195.199 50.4724 193.684 48.0312C284.144 93.5886 398.402 109.351 508.406 119.617C645.189 132.372 783.006 140.585 920.919 144.853C1061.07 149.185 1201.48 149.25 1341.63 145.079C1480.67 140.924 1619.45 132.582 1757.39 120.069C1827.22 113.732 1896.86 106.344 1966.19 97.8728C2032.64 89.7571 2100.43 82.2397 2164.66 67.8838C2176.03 65.3295 2187.26 62.5165 2198.32 59.4287C2193.12 66.4935 2191.15 74.3989 2189.49 82.175C2187.26 92.6671 2184.97 103.208 2185.02 113.813C2185.07 124.24 2186.66 134.765 2188.29 145.111C2189.88 155.119 2192.21 165.142 2196.95 174.696C2200.84 182.569 2206.32 190.054 2213.77 196.634Z" fill="#D3C4AF"/>
<path d="M1198.5 82.4658C1195.06 82.9832 1195.09 86.6045 1198.5 87.138C1201.94 86.6045 1201.94 82.9832 1198.5 82.4658Z" fill="#1A171B"/>
<path d="M2306.93 233.057C2280.55 244.179 2249.86 247.671 2219.11 248.932C2184.64 250.355 2149.95 250.307 2115.43 250.695C2042.37 251.535 1969.29 251.923 1896.21 252.101C1751.33 252.44 1606.47 252.085 1461.59 251.956C1172.59 251.713 883.394 253.604 594.442 250.064C433.812 248.092 273.134 243.096 113.465 230.616C123.081 228.756 132.288 225.96 140.702 222.403C173.804 208.435 194.117 184.832 202.41 159.596C207.074 145.353 208.372 130.674 207.795 116.124C207.218 102.593 205.295 89.0127 201.569 75.7238C197.963 62.9684 192.506 50.407 184.285 38.6539C176.352 27.3211 165.414 15.8267 151.111 7.64643C149.837 6.91894 148.515 6.28844 147.144 5.73878C210.656 3.76646 274.312 5.10828 337.631 8.76192C407.97 12.8197 477.876 19.642 547.446 27.5636C616.775 35.4691 685.815 44.4739 754.952 53.0421C823.704 61.5781 892.577 69.6775 961.858 75.8855C1031.5 82.1096 1101.6 86.3937 1171.86 87.1051C1180.45 87.2021 1189.03 87.2344 1197.61 87.2182C1197.92 87.2182 1198.24 87.1859 1198.5 87.1374C1198.76 87.1859 1199.08 87.2182 1199.39 87.2182C1207.97 87.2344 1216.55 87.2021 1225.14 87.1051C1295.4 86.3937 1365.5 82.1096 1435.14 75.8855C1504.45 69.6775 1573.32 61.5781 1642.05 53.0421C1711.19 44.4739 1780.23 35.4691 1849.55 27.5636C1919.12 19.642 1989.05 12.8197 2059.37 8.76192C2122.71 5.10828 2186.34 3.76646 2249.86 5.73878C2248.49 6.28844 2247.16 6.91894 2245.89 7.64643C2231.59 15.8267 2220.65 27.3211 2212.74 38.6539C2204.52 50.407 2199.04 62.9684 2195.46 75.7238C2191.71 89.0127 2189.78 102.593 2189.23 116.124C2188.63 130.674 2189.93 145.353 2194.59 159.596C2202.88 184.832 2223.22 208.435 2256.3 222.403C2271.4 228.789 2289.04 232.814 2306.93 233.057Z" fill="#EFE2CB"/>
<path d="M2195.26 171.802C2194.47 170.186 2193.65 168.601 2192.86 166.985C2192.16 165.513 2191.78 164.091 2192.09 162.571C2188.27 148.749 2186.44 134.732 2186.06 120.684C2185.67 107.007 2185.84 93.0226 2189.54 79.5236C2191.39 72.7336 2194.42 66.1215 2198.96 59.9297C2134.11 62.2253 2069.54 67.5603 2005.83 76.0154C1940.54 84.6969 1876.98 97.1128 1813.88 111.162C1781.98 118.275 1750.06 125.42 1717.58 131.289C1685.05 137.174 1652.02 141.684 1618.87 145.742C1552.57 153.89 1485.96 161.601 1418.89 166.273C1362.04 170.25 1304.59 171.802 1247.56 168.714C1228.21 168.795 1208.84 168.747 1189.51 168.601C1178.98 168.52 1168.45 168.359 1157.95 168.197C1098.02 171.98 1037.51 170.46 977.7 166.289C910.63 161.617 844.018 153.906 777.717 145.758C744.567 141.7 711.537 137.19 679.012 131.305C646.535 125.437 614.611 118.291 582.711 111.178C519.608 97.1289 456.048 84.713 390.758 76.0316C327.054 67.5765 262.484 62.2415 197.627 59.9459C202.17 66.1377 205.199 72.7498 207.05 79.5397C210.752 93.0388 210.92 107.023 210.536 120.7C210.151 134.749 208.324 148.765 204.502 162.587C204.814 164.107 204.43 165.53 203.733 167.001C202.939 168.617 202.122 170.202 201.329 171.818C199.91 174.68 198.492 177.541 197.074 180.403C203.709 181.179 210.367 181.923 217.026 182.618C282.461 189.359 348.833 191.493 414.989 191.04C481.001 190.588 546.917 187.549 612.664 183.798C679.733 179.966 746.755 175.31 814.065 173.629C847.503 172.788 880.99 172.691 914.404 173.807C947.29 174.922 979.959 177.525 1012.6 180.29C1023.4 181.211 1034.22 182.133 1045.06 183.006C1051.57 183.103 1058.06 183.2 1064.58 183.297C1089.96 183.685 1115.3 184.348 1140.71 184.38C1166.02 184.412 1191.36 184.137 1216.67 184.105C1254.9 184.057 1293.09 184.315 1331.32 184.542C1348.94 183.297 1366.53 181.793 1384.01 180.306C1416.66 177.541 1449.3 174.939 1482.21 173.823C1515.63 172.708 1549.11 172.805 1582.55 173.645C1649.86 175.327 1716.88 179.983 1783.95 183.814C1849.7 187.565 1915.61 190.604 1981.63 191.057C2047.78 191.509 2114.15 189.375 2179.59 182.634C2186.25 181.939 2192.91 181.195 2199.54 180.419C2198.12 177.558 2196.71 174.696 2195.29 171.835L2195.26 171.802Z" fill="#D3C4AF"/>
<path d="M582.687 111.161C614.587 118.275 646.511 125.42 678.988 131.289C711.513 137.173 744.543 141.684 777.693 145.742C843.993 153.89 910.606 161.601 977.676 166.273C1037.49 170.46 1097.99 171.964 1157.92 168.181C1150.47 168.068 1142.99 167.955 1135.54 167.89C1127.92 167.825 1120.23 167.664 1112.58 167.276C1105.83 167.324 1099.1 167.356 1092.34 167.356C1091.55 167.356 1090.85 167.259 1090.23 167.082C1059.89 167.179 1029.55 166.192 999.335 164.43C931.52 160.469 864.306 152.806 797.333 144.836C764.496 140.94 731.682 136.785 699.277 131.45C666.584 126.083 634.515 119.261 602.567 112.196C539.344 98.1796 476.217 84.8261 410.999 75.5141C347.03 66.38 282.076 60.3337 216.81 57.4237C208.42 57.0519 200.054 56.7447 191.665 56.4699C188.54 56.3729 188.54 59.6062 191.665 59.7032C191.809 59.7032 191.953 59.7032 192.097 59.7032C192.145 59.8002 192.145 59.8811 192.218 59.9781C201.376 71.6018 204.141 84.7614 205.127 97.727C206.184 111.485 205.992 125.323 204.285 139.065C203.3 147.116 201.689 155.118 199.429 163.056C199.285 163.525 199.453 163.913 199.766 164.236C199.574 165.222 198.949 166.209 198.516 167.114C197.771 168.617 197.025 170.105 196.28 171.608C194.91 174.356 193.54 177.105 192.193 179.853C189.501 179.869 188.467 182.618 191.376 182.973C256.33 190.782 322.318 193.999 388.282 194.274C454.966 194.565 521.555 191.946 587.999 188.357C654.973 184.752 721.826 179.95 788.943 177.59C853.633 175.31 917.914 176.086 982.243 181.001C995.32 181.066 1008.35 182.343 1021.43 182.585C1029.29 182.731 1037.17 182.86 1045.03 182.973C1034.19 182.1 1023.37 181.179 1012.58 180.257C979.935 177.493 947.266 174.89 914.38 173.774C880.966 172.659 847.479 172.756 814.04 173.597C746.731 175.278 679.709 179.934 612.64 183.765C546.892 187.516 480.977 190.555 414.965 191.008C348.809 191.461 282.437 189.327 217.002 182.585C210.343 181.89 203.684 181.146 197.049 180.37C198.468 177.509 199.886 174.647 201.304 171.786C202.098 170.169 202.915 168.585 203.708 166.968C204.405 165.497 204.79 164.075 204.478 162.555C208.3 148.732 210.127 134.716 210.511 120.667C210.896 106.99 210.728 93.0063 207.026 79.5073C205.175 72.7173 202.146 66.1052 197.602 59.9134C262.46 62.209 327.03 67.544 390.734 75.9991C456.024 84.6806 519.584 97.0965 582.687 111.145V111.161Z" fill="#D3C4AF"/>
<path d="M2204.37 179.869C2203.03 177.12 2201.66 174.372 2200.29 171.624C2199.54 170.12 2198.8 168.633 2198.05 167.129C2197.62 166.224 2196.99 165.238 2196.8 164.252C2197.11 163.929 2197.28 163.541 2197.14 163.072C2194.88 155.134 2193.27 147.131 2192.28 139.08C2190.55 125.339 2190.36 111.5 2191.42 97.7426C2192.43 84.777 2195.19 71.6174 2204.35 59.9937C2204.42 59.8967 2204.42 59.8158 2204.45 59.7188C2204.61 59.7188 2204.76 59.7188 2204.9 59.7188C2208.03 59.6219 2208.03 56.3885 2204.9 56.4855C2196.51 56.7604 2188.15 57.0675 2179.76 57.4394C2114.49 60.3493 2049.54 66.3956 1985.57 75.5298C1920.35 84.8417 1857.2 98.1953 1794 112.212C1762.05 119.276 1729.98 126.099 1697.29 131.466C1664.89 136.801 1632.07 140.956 1599.23 144.852C1532.26 152.822 1465.05 160.485 1397.23 164.446C1374.35 165.771 1351.39 166.644 1328.43 166.952C1319.92 167.55 1311.39 167.954 1302.83 168.116C1284.42 168.455 1266 168.633 1247.56 168.714C1304.59 171.818 1362.04 170.25 1418.89 166.273C1485.96 161.601 1552.57 153.889 1618.87 145.741C1652.02 141.683 1685.05 137.173 1717.58 131.288C1750.06 125.42 1781.98 118.274 1813.88 111.161C1876.98 97.1121 1940.54 84.6962 2005.83 76.0147C2069.54 67.5596 2134.11 62.2247 2198.96 59.929C2194.42 66.1208 2191.39 72.7329 2189.54 79.5229C2185.84 93.022 2185.67 107.006 2186.06 120.683C2186.44 134.732 2188.27 148.748 2192.09 162.571C2191.78 164.09 2192.16 165.513 2192.86 166.984C2193.65 168.601 2194.47 170.185 2195.26 171.802C2196.68 174.663 2198.1 177.525 2199.52 180.386C2192.88 181.162 2186.22 181.906 2179.57 182.601C2114.13 189.342 2047.76 191.476 1981.6 191.024C1915.59 190.571 1849.67 187.532 1783.93 183.781C1716.86 179.95 1649.84 175.294 1582.53 173.612C1549.09 172.772 1515.6 172.675 1482.19 173.79C1449.28 174.906 1416.63 177.508 1383.99 180.273C1366.51 181.76 1348.91 183.264 1331.29 184.509C1331.99 184.509 1332.69 184.509 1333.38 184.509C1337.95 184.428 1342.52 184.347 1347.09 184.218C1356.94 183.927 1366.8 183.506 1376.65 182.94C1386.56 182.375 1396.42 181.502 1406.34 181.049C1410.62 180.855 1414.88 180.726 1419.16 180.645C1481.87 176.053 1544.54 175.374 1607.62 177.605C1674.74 179.966 1741.59 184.767 1808.57 188.372C1874.99 191.961 1941.6 194.58 2008.29 194.289C2074.25 194.014 2140.24 190.797 2205.19 182.989C2208.1 182.633 2207.07 179.885 2204.37 179.869Z" fill="#D3C4AF"/>
<path d="M2389.84 136.3C2389.48 142.427 2388.49 148.522 2386.81 154.552C2379.96 178.932 2362.53 202.842 2336.18 220.383C2328.85 225.249 2320.63 228.013 2310.24 228.24C2301.68 228.417 2293.1 227.512 2284.91 225.895C2268.97 222.775 2254.5 216.761 2242.4 209.147C2236.35 205.332 2231.01 201.161 2226.27 196.731C2243.13 199.14 2260.31 200.368 2277.53 200.368C2277.89 200.368 2278.22 200.336 2278.53 200.288C2281.52 200.255 2284.5 199.98 2287.31 199.463C2296.4 197.798 2303.82 193.643 2309.47 188.68C2321.83 177.816 2327.33 163.379 2329.4 149.993C2331.61 135.605 2329.43 121.039 2325.58 106.861C2321.59 92.198 2315.82 77.7451 2309.67 63.4538C2303.3 48.6938 2295.94 34.0954 2286.25 20.1759C2284.88 18.2036 2283.37 16.2151 2281.66 14.3075C2280.46 12.0765 2278.97 9.89401 2277.19 7.84086C2276.32 6.8547 2275.41 5.90087 2274.42 4.97938C2273.39 4.04172 2272.4 3.12022 2270.91 2.57056C2270.36 2.03706 2269.5 1.64907 2268.27 1.5844C2259.69 1.22874 2251.13 0.937739 2242.57 0.69524C2172.59 -1.22858 2102.5 0.921572 2032.88 5.60987C1963.57 10.2658 1894.7 17.3953 1826.12 25.4139C1756.84 33.5295 1687.79 42.5828 1618.61 51.0702C1548.87 59.6062 1478.97 67.5763 1408.6 73.3478C1339.2 79.0384 1269.34 82.5465 1199.39 82.401C1199.08 82.401 1198.76 82.4172 1198.5 82.4657C1198.24 82.4172 1197.92 82.401 1197.61 82.401C1127.66 82.5465 1057.82 79.0384 988.397 73.3478C918.034 67.5763 848.128 59.6062 778.414 51.0702C709.23 42.5828 640.189 33.5295 570.884 25.4139C502.3 17.3953 433.427 10.2658 364.146 5.60987C294.505 0.921572 224.406 -1.22858 154.452 0.69524C145.87 0.937739 137.312 1.22874 128.754 1.5844C127.528 1.64907 126.663 2.03706 126.086 2.57056C124.619 3.12022 123.61 4.04172 122.6 4.97938C121.614 5.90087 120.677 6.8547 119.812 7.84086C118.033 9.89401 116.566 12.0765 115.34 14.3075C113.633 16.2151 112.143 18.2036 110.773 20.1759C101.085 34.0954 93.7049 48.6938 87.3586 63.4538C81.1805 77.7451 75.4111 92.198 71.4206 106.861C67.5743 121.039 65.3867 135.605 67.5983 149.993C69.6657 163.379 75.1947 177.816 87.5509 188.68C93.1761 193.643 100.628 197.798 109.715 199.463C112.047 199.883 114.499 200.142 116.951 200.239C117.215 200.32 117.504 200.401 117.816 200.433C133.658 202.438 149.764 202.664 165.654 201.161C162.241 203.957 158.587 206.625 154.596 209.147C142.529 216.761 128.033 222.775 112.095 225.895C103.898 227.512 95.3156 228.417 86.7816 228.24C76.3726 228.013 68.1512 225.249 60.8433 220.383C34.4723 202.842 17.0438 178.932 10.1926 154.552C8.50989 148.522 7.52428 142.427 7.16369 136.3C6.97138 133.213 -0.168276 133.196 -1.49887e-06 136.3C1.61063 163.428 15.7697 190.103 40.2657 211.701C46.2996 217.02 52.8142 222.484 60.5789 226.704C68.9445 231.247 78.7044 233.138 89.4019 233.073C91.2049 233.057 92.8876 233.009 94.5703 232.944C96.5896 233.057 98.6089 233.219 100.604 233.478C101.878 233.639 103.056 233.946 104.282 234.221C105.316 234.448 106.374 234.625 107.455 234.787C107.888 234.916 108.369 235.03 108.874 235.078C252.749 246.459 397.513 251.713 542.277 254.122C687.474 256.531 832.767 256.224 977.988 256.353C1125.28 256.483 1272.54 256.612 1419.83 256.741C1566.2 256.871 1712.58 257.178 1858.95 256.984C1932.01 256.887 2005.09 256.596 2078.17 255.901C2114.71 255.545 2151.22 255.108 2187.76 254.526C2217.11 254.058 2247.12 253.492 2275.51 247.833C2288.97 245.15 2301.66 241.254 2313.37 236C2313.7 235.854 2313.97 235.676 2314.19 235.498C2316.32 234.351 2318.42 233.219 2320.89 232.346C2322.24 231.861 2323.66 231.521 2325.05 231.117C2325.27 231.053 2325.48 230.988 2325.7 230.907C2329.47 229.905 2333.06 228.514 2336.42 226.688C2344.19 222.468 2350.68 217.004 2356.71 211.685C2381.23 190.087 2395.37 163.412 2396.98 136.284C2397.17 133.18 2390 133.196 2389.81 136.284L2389.84 136.3ZM2220.53 190.911C2207.6 176.571 2200.53 159.936 2197.81 143.09C2195.62 129.607 2195.91 115.979 2197.45 102.48C2197.81 99.3436 2198.27 96.2073 2198.77 93.0871C2210.65 92.7153 2222.52 92.198 2234.4 92.1818C2243.37 92.1656 2252.28 92.6506 2261.11 93.5721C2260.41 94.1865 2259.76 94.817 2259.16 95.4475C2256.54 98.1634 2254.21 100.993 2252.09 103.886C2247.69 109.868 2244.23 116.157 2241.8 122.623C2237 135.379 2236.11 148.716 2239.04 161.73C2240.46 168.116 2242.88 174.405 2246.27 180.451C2249.13 185.528 2252.4 191.073 2258.17 195.017C2245.5 194.322 2232.93 192.964 2220.53 190.911ZM2266.03 97.1611C2267.12 96.1103 2268.41 95.1241 2269.88 94.6715C2270.12 94.7038 2270.36 94.72 2270.6 94.7523C2271.52 94.8978 2272.31 94.8008 2272.98 94.5583C2273.53 94.6876 2274.06 94.8655 2274.64 95.1565C2277.93 96.8701 2279.66 99.8124 2281.3 102.286C2289.26 114.298 2293.13 127.425 2293.1 140.536C2285.41 140.908 2277.67 140.649 2270.05 139.825C2265.82 139.356 2261.61 138.758 2257.45 138.063C2253.46 137.384 2249.47 136.656 2245.34 136.721C2246.63 128.654 2249.47 120.683 2253.8 113.134C2257 107.572 2261.03 102.092 2266.03 97.1611ZM2276.64 18.0096C2281.59 23.8943 2285.34 30.377 2288.94 36.682C2296.56 50.0194 2302.55 63.7448 2308.06 77.5349C2318.25 103.094 2327.96 130.432 2320.77 156.961C2317.55 168.811 2311.18 182.521 2297.07 190.604C2290.92 194.144 2282.65 196.149 2274.5 195.357C2265.02 194.451 2260.12 189.747 2256.35 184.267C2247.21 170.978 2243.49 156.169 2244.74 141.571C2249.11 141.409 2253.25 142.363 2257.48 143.026C2261.66 143.688 2265.87 144.254 2270.1 144.675C2278.78 145.548 2287.48 145.855 2296.2 145.224C2298.1 145.337 2300.22 144.578 2300.27 142.912C2300.53 135.589 2299.62 128.266 2297.53 121.088C2295.43 113.894 2292.09 106.91 2287.72 100.217C2284.5 95.3181 2278.75 88.1887 2269.14 89.7083C2258.08 88.2372 2246.83 87.4127 2235.55 87.3965C2223.61 87.3642 2211.61 87.8815 2199.69 88.2533C2201.1 81.0915 2203.03 73.9621 2205.6 66.9458C2209.88 55.3382 2215.94 43.9893 2224.71 33.5457C2228.99 28.4532 2233.89 23.5709 2239.5 19.0928C2242.33 16.8295 2245.31 14.647 2248.46 12.5938C2251.59 10.5568 2255.29 8.42286 2259.9 8.45519C2267.62 8.51986 2273.22 13.9842 2276.64 18.0096ZM122.504 195.341C114.355 196.133 106.109 194.128 99.9311 190.588C85.8441 182.504 79.4497 168.795 76.2284 156.945C69.0407 130.416 78.7525 103.078 88.9692 77.5187C94.4742 63.7287 100.436 50.0033 108.08 36.6658C111.686 30.3609 115.412 23.8781 120.388 17.9935C123.778 13.968 129.379 8.50369 137.12 8.43902C141.735 8.40669 145.413 10.5407 148.538 12.5777C151.688 14.6308 154.668 16.8133 157.505 19.0766C163.106 23.5548 168.01 28.4371 172.313 33.5295C181.064 43.9731 187.145 55.322 191.4 66.9296C193.997 73.9459 195.92 81.0754 197.338 88.2372C185.391 87.8653 173.419 87.348 161.472 87.3803C150.173 87.3965 138.923 88.221 127.865 89.6922C118.273 88.1725 112.504 95.3019 109.306 100.2C104.907 106.893 101.566 113.877 99.4744 121.071C97.3829 128.249 96.4695 135.573 96.7339 142.896C96.806 144.561 98.8974 145.321 100.797 145.208C109.523 145.839 118.249 145.531 126.903 144.658C131.158 144.238 135.365 143.672 139.524 143.009C143.755 142.347 147.889 141.393 152.265 141.554C153.539 156.153 149.788 170.961 140.654 184.25C136.879 189.731 131.975 194.435 122.504 195.341ZM130.966 97.1611C135.966 102.092 140.005 107.572 143.202 113.134C147.553 120.683 150.365 128.654 151.688 136.721C147.553 136.656 143.538 137.384 139.548 138.063C135.389 138.758 131.182 139.356 126.951 139.825C119.331 140.649 111.59 140.908 103.898 140.536C103.898 127.425 107.768 114.298 115.701 102.286C117.336 99.8124 119.066 96.8701 122.384 95.1565C122.937 94.8655 123.49 94.6876 124.018 94.5583C124.692 94.8008 125.485 94.8978 126.422 94.7523C126.639 94.72 126.879 94.7038 127.119 94.6715C128.61 95.1241 129.908 96.1103 130.966 97.1611ZM135.197 197.119C143.37 193.271 147.312 186.498 150.726 180.451C154.14 174.405 156.544 168.116 157.986 161.73C160.895 148.716 160.005 135.379 155.197 122.623C152.769 116.157 149.308 109.868 144.933 103.886C142.817 100.993 140.461 98.1634 137.865 95.4475C137.24 94.817 136.615 94.1865 135.894 93.5721C144.74 92.6506 153.659 92.1656 162.601 92.1818C174.477 92.198 186.376 92.7153 198.228 93.0871C198.756 96.2073 199.189 99.3436 199.55 102.48C201.088 115.979 201.377 129.607 199.213 143.09C196.208 161.827 187.746 180.306 171.856 195.664C171.592 195.664 171.304 195.68 171.015 195.712C159.212 197.232 147.144 197.685 135.197 197.119ZM2219.11 248.933C2184.64 250.355 2149.95 250.307 2115.43 250.695C2042.37 251.536 1969.29 251.924 1896.21 252.101C1751.33 252.441 1606.47 252.085 1461.59 251.956C1172.59 251.713 883.394 253.605 594.442 250.064C433.812 248.092 273.134 243.097 113.465 230.616C123.081 228.757 132.288 225.96 140.702 222.403C173.804 208.436 194.117 184.832 202.41 159.596C207.074 145.354 208.372 130.674 207.795 116.124C207.218 102.593 205.295 89.0132 201.569 75.7242C197.963 62.9688 192.506 50.4074 184.285 38.6543C176.352 27.3216 165.414 15.8271 151.111 7.64686C149.837 6.91937 148.514 6.28887 147.144 5.73921C210.656 3.76689 274.312 5.10871 337.631 8.76235C407.97 12.8202 477.876 19.6424 547.445 27.5641C616.775 35.4695 685.815 44.4743 754.952 53.0426C823.704 61.5785 892.577 69.6779 961.858 75.8859C1031.5 82.11 1101.6 86.3942 1171.86 87.1055C1180.45 87.2025 1189.03 87.2348 1197.61 87.2187C1197.92 87.2187 1198.24 87.1863 1198.5 87.1378C1198.76 87.1863 1199.08 87.2187 1199.39 87.2187C1207.97 87.2348 1216.55 87.2025 1225.14 87.1055C1295.4 86.3942 1365.5 82.11 1435.14 75.8859C1504.45 69.6779 1573.32 61.5785 1642.05 53.0426C1711.18 44.4743 1780.23 35.4695 1849.55 27.5641C1919.12 19.6424 1989.05 12.8202 2059.37 8.76235C2122.71 5.10871 2186.34 3.76689 2249.86 5.73921C2248.49 6.28887 2247.16 6.91937 2245.89 7.64686C2231.59 15.8271 2220.65 27.3216 2212.74 38.6543C2204.52 50.4074 2199.04 62.9688 2195.46 75.7242C2191.71 89.0132 2189.78 102.593 2189.23 116.124C2188.63 130.674 2189.93 145.354 2194.59 159.596C2202.88 184.832 2223.22 208.436 2256.3 222.403C2271.4 228.789 2289.04 232.815 2306.93 233.057C2280.55 244.18 2249.86 247.672 2219.11 248.933Z" fill="#1A171B"/>
<path d="M2293.1 140.536C2285.41 140.908 2277.67 140.649 2270.05 139.825C2265.82 139.356 2261.61 138.758 2257.45 138.063C2253.46 137.384 2249.47 136.656 2245.34 136.721C2246.64 128.654 2249.47 120.684 2253.8 113.134C2257 107.573 2261.03 102.092 2266.03 97.1614C2267.12 96.1106 2268.41 95.1244 2269.88 94.6718C2270.12 94.7041 2270.36 94.7203 2270.6 94.7526C2271.52 94.8981 2272.31 94.8011 2272.98 94.5586C2273.53 94.6879 2274.06 94.8658 2274.64 95.1568C2277.93 96.8704 2279.66 99.8127 2281.3 102.286C2289.26 114.298 2293.13 127.425 2293.1 140.536Z" fill="#99856D"/>
<path d="M2320.77 156.945C2317.55 168.795 2311.18 182.504 2297.07 190.587C2290.91 194.128 2282.64 196.133 2274.5 195.34C2265.02 194.435 2260.12 189.731 2256.35 184.25C2247.21 170.961 2243.49 156.153 2244.74 141.554C2249.11 141.393 2253.25 142.346 2257.48 143.009C2261.66 143.672 2265.87 144.238 2270.1 144.658C2278.77 145.531 2287.48 145.838 2296.2 145.208C2298.1 145.321 2300.22 144.561 2300.27 142.896C2300.53 135.573 2299.62 128.249 2297.53 121.071C2295.43 113.877 2292.09 106.893 2287.72 100.2C2284.5 95.3018 2278.75 88.1723 2269.13 89.692C2258.08 88.2208 2246.83 87.3963 2235.55 87.3801C2223.6 87.3478 2211.61 87.8651 2199.69 88.237C2201.1 81.0752 2203.03 73.9457 2205.6 66.9295C2209.88 55.3219 2215.94 43.9729 2224.71 33.5293C2228.99 28.4369 2233.89 23.5546 2239.49 19.0764C2242.33 16.8131 2245.31 14.6306 2248.46 12.5775C2251.59 10.5405 2255.29 8.40651 2259.9 8.43884C2267.62 8.50351 2273.22 13.9678 2276.64 17.9933C2281.59 23.8779 2285.34 30.3607 2288.94 36.6657C2296.56 50.0031 2302.55 63.7285 2308.05 77.5185C2318.25 103.078 2327.96 130.416 2320.77 156.945Z" fill="#D3C4AF"/>
<path d="M2241.8 122.624C2237 135.379 2236.11 148.716 2239.04 161.731C2240.46 168.116 2242.88 174.405 2246.27 180.451C2249.13 185.528 2252.4 191.073 2258.17 195.018C2245.5 194.322 2232.93 192.964 2220.53 190.911C2207.6 176.571 2200.53 159.936 2197.81 143.091C2195.62 129.608 2195.91 115.979 2197.45 102.48C2197.81 99.3438 2198.27 96.2075 2198.77 93.0874C2210.65 92.7155 2222.52 92.1982 2234.4 92.182C2243.37 92.1659 2252.28 92.6509 2261.11 93.5724C2260.41 94.1867 2259.76 94.8172 2259.16 95.4477C2256.54 98.1637 2254.21 100.993 2252.09 103.887C2247.69 109.868 2244.23 116.157 2241.8 122.624Z" fill="#BAA78E"/>
<path d="M199.213 143.091C196.208 161.828 187.747 180.306 171.857 195.664C171.592 195.664 171.304 195.68 171.015 195.713C159.212 197.232 147.144 197.685 135.197 197.119C143.37 193.272 147.313 186.498 150.726 180.451C154.14 174.405 156.544 168.116 157.986 161.731C160.895 148.716 160.005 135.379 155.197 122.624C152.769 116.157 149.308 109.868 144.933 103.887C142.817 100.993 140.461 98.1637 137.865 95.4477C137.24 94.8172 136.615 94.1867 135.894 93.5724C144.74 92.6509 153.659 92.1659 162.601 92.182C174.477 92.1982 186.376 92.7155 198.228 93.0874C198.757 96.2075 199.189 99.3438 199.55 102.48C201.088 115.979 201.377 129.608 199.213 143.091Z" fill="#BAA78E"/>
<path d="M151.687 136.721C147.553 136.656 143.538 137.384 139.548 138.063C135.389 138.758 131.182 139.356 126.951 139.825C119.331 140.649 111.59 140.908 103.897 140.536C103.897 127.425 107.768 114.298 115.701 102.286C117.335 99.8127 119.066 96.8704 122.384 95.1568C122.937 94.8658 123.489 94.6879 124.018 94.5586C124.691 94.8011 125.485 94.8981 126.422 94.7526C126.639 94.7203 126.879 94.7041 127.119 94.6718C128.61 95.1244 129.908 96.1106 130.966 97.1614C135.966 102.092 140.004 107.573 143.202 113.134C147.553 120.684 150.365 128.654 151.687 136.721Z" fill="#99856D"/>
<path d="M99.4746 121.071C97.3832 128.249 96.4697 135.573 96.7341 142.896C96.8062 144.561 98.8977 145.321 100.797 145.208C109.523 145.838 118.249 145.531 126.903 144.658C131.158 144.238 135.365 143.672 139.524 143.009C143.755 142.346 147.89 141.393 152.265 141.554C153.539 156.153 149.789 170.961 140.654 184.25C136.88 189.731 131.976 194.435 122.504 195.34C114.355 196.133 106.109 194.128 99.9313 190.587C85.8443 182.504 79.4499 168.795 76.2287 156.945C69.0409 130.416 78.7528 103.078 88.9694 77.5185C94.4744 63.7285 100.436 50.0031 108.081 36.6657C111.687 30.3607 115.413 23.8779 120.389 17.9933C123.778 13.9678 129.379 8.50351 137.12 8.43884C141.736 8.40651 145.414 10.5405 148.539 12.5775C151.688 14.6306 154.669 16.8131 157.505 19.0764C163.106 23.5546 168.01 28.4369 172.313 33.5293C181.064 43.9729 187.146 55.3219 191.401 66.9295C193.997 73.9457 195.92 81.0752 197.338 88.237C185.391 87.8651 173.419 87.3478 161.472 87.3801C150.173 87.3963 138.923 88.2208 127.865 89.692C118.273 88.1723 112.504 95.3018 109.307 100.2C104.907 106.893 101.566 113.877 99.4746 121.071Z" fill="#D3C4AF"/>
</g>
<defs>
<clipPath id="clip0_7376_19">
<rect width="2397" height="257.048" fill="white"/>
</clipPath>
</defs>
</svg>
