<svg width="1612" height="258" viewBox="0 0 1612 258" fill="none" xmlns="http://www.w3.org/2000/svg">
<g clip-path="url(#clip0_7373_78)">
<path d="M806 82.4658C803.688 82.9832 803.705 86.6045 806 87.138C808.312 86.6045 808.312 82.9832 806 82.4658Z" fill="#1A171B"/>
<path d="M1551.42 233.057C1533.69 244.179 1513.04 247.671 1492.37 248.932C1469.18 250.355 1445.86 250.307 1422.64 250.695C1373.51 251.535 1324.36 251.923 1275.22 252.101C1177.78 252.44 1080.36 252.085 982.927 251.956C788.572 251.713 594.089 253.604 399.767 250.064C291.742 248.092 183.684 243.096 76.3062 230.616C82.7728 228.756 88.9646 225.96 94.6229 222.403C116.884 208.435 130.545 184.832 136.122 159.596C139.259 145.353 140.132 130.674 139.744 116.124C139.356 102.593 138.062 89.0127 135.557 75.7238C133.132 62.9684 129.462 50.407 123.933 38.6539C118.598 27.3211 111.242 15.8267 101.623 7.64643C100.766 6.91894 99.877 6.28844 98.9555 5.73878C141.668 3.76646 184.477 5.10828 227.059 8.76192C274.363 12.8197 321.375 19.642 368.161 27.5636C414.785 35.4691 461.216 44.4739 507.711 53.0421C553.947 61.5781 600.264 69.6775 646.856 75.8855C693.691 82.1096 740.833 86.3937 788.087 87.1051C793.859 87.2021 799.63 87.2344 805.402 87.2182C805.612 87.2182 805.822 87.1859 806 87.1374C806.178 87.1859 806.388 87.2182 806.598 87.2182C812.37 87.2344 818.141 87.2021 823.913 87.1051C871.167 86.3937 918.309 82.1096 965.144 75.8855C1011.75 69.6775 1058.07 61.5781 1104.29 53.0421C1150.78 44.4739 1197.21 35.4691 1243.84 27.5636C1290.63 19.642 1337.65 12.8197 1384.94 8.76192C1427.54 5.10828 1470.33 3.76646 1513.04 5.73878C1512.12 6.28844 1511.23 6.91894 1510.38 7.64643C1500.76 15.8267 1493.4 27.3211 1488.08 38.6539C1482.55 50.407 1478.87 62.9684 1476.46 75.7238C1473.94 89.0127 1472.64 102.593 1472.27 116.124C1471.87 130.674 1472.74 145.353 1475.88 159.596C1481.46 184.832 1495.13 208.435 1517.38 222.403C1527.53 228.789 1539.4 232.814 1551.42 233.057Z" fill="#EFE2CB"/>
<path d="M1472.34 104.985C1442.38 78.1325 1399.72 71.4557 1361.35 65.5873C1316.78 58.7812 1271.63 55.7742 1226.56 56.534C1181.26 57.31 1136.02 61.9013 1091.52 70.3241C1047.17 78.7145 1003.72 90.9688 958.725 95.8026C913.314 100.669 867.53 100.151 821.989 97.7587C816.411 97.4677 810.834 97.1282 805.256 96.8049C805.192 96.7887 805.127 96.7887 805.062 96.7887C804.141 96.7241 804.028 95.4469 804.739 95.2206C804.836 95.1721 804.949 95.1721 805.062 95.1721C805.127 95.1721 805.192 95.1721 805.256 95.1882C805.418 95.1882 805.596 95.2044 805.757 95.2206C851.493 98.0174 897.438 99.3431 943.173 95.6409C966.518 93.7494 989.668 90.3706 1012.61 85.6661C1035.26 81.0425 1057.7 75.4812 1080.36 70.8737C1124.48 61.9013 1169.36 56.6795 1214.35 55.2245C1259.36 53.7695 1304.46 56.0975 1349.07 62.1923C1369.99 65.0538 1391.02 68.3679 1411.49 73.6059C1428.32 77.9062 1445.02 83.8717 1459.69 93.3129C1460.87 94.0728 1462.04 94.8649 1463.2 95.6732C1466.6 98.0336 1469.83 100.62 1472.94 103.369C1473.13 103.53 1473.31 103.692 1473.48 103.854C1474.26 104.549 1473.11 105.68 1472.34 104.985Z" fill="#D3C4AF"/>
<path d="M805.434 96.7887C805.434 96.7887 805.321 96.7887 805.257 96.8049C799.695 97.1282 794.102 97.4677 788.508 97.7587C742.967 100.151 697.183 100.669 651.771 95.8026C606.78 90.9688 563.324 78.7145 518.979 70.3241C474.473 61.9013 429.239 57.31 383.94 56.534C338.867 55.7742 293.714 58.7812 249.159 65.5873C210.796 71.4557 168.116 78.1325 138.16 104.985C137.384 105.68 136.252 104.549 137.028 103.854C137.4 103.514 137.772 103.191 138.143 102.884C139.275 101.865 140.439 100.895 141.619 99.9412C143.462 98.4539 145.354 97.0312 147.294 95.6732C162.781 84.8416 180.823 78.2619 199.011 73.6059C219.477 68.3679 240.51 65.0538 261.43 62.1923C306.033 56.0975 351.154 53.7695 396.146 55.2245C441.137 56.6795 486.015 61.9013 530.15 70.8737C552.8 75.4812 575.239 81.0425 597.888 85.6661C620.828 90.3706 643.979 93.7494 667.323 95.6409C713.059 99.3431 759.004 98.0174 804.739 95.2206C804.917 95.2044 805.079 95.1882 805.257 95.1882C805.321 95.1721 805.37 95.1721 805.434 95.1721C805.548 95.1721 805.661 95.1721 805.758 95.2206C806.469 95.4469 806.356 96.7241 805.434 96.7887Z" fill="#D3C4AF"/>
<path d="M1493.45 18.4294C1491.83 20.2078 1490.44 22.1477 1489.34 24.2979C1488 25.8661 1486.68 27.4504 1485.48 29.1317C1483.41 32.0579 1481.99 35.3235 1480.52 38.5891C1478.93 42.1135 1477.38 45.6539 1475.83 49.1944C1472.76 56.2269 1469.57 63.2431 1466.74 70.3726C1465.37 73.7999 1464.46 77.2919 1464.32 80.994C1464.25 82.7723 1464.43 84.6962 1464.45 86.5877C1462.46 84.5345 1460.54 82.3682 1458.6 80.3797C1456.04 77.7769 1451.58 81.1234 1453.5 84.292C1455.39 87.396 1457.33 90.5161 1459.69 93.3129C1445.02 83.8717 1428.32 77.9062 1411.49 73.6059C1391.02 68.3679 1369.99 65.0538 1349.07 62.1923C1304.46 56.0975 1259.36 53.7695 1214.35 55.2245C1169.36 56.6795 1124.48 61.9013 1080.36 70.8738C1057.7 75.4812 1035.26 81.0425 1012.61 85.6662C989.668 90.3706 966.517 93.7494 943.173 95.6409C897.438 99.3431 851.492 98.0174 805.757 95.2206C805.66 95.1721 805.547 95.1721 805.434 95.1721C805.369 95.1721 805.321 95.1721 805.256 95.1883C805.191 95.1721 805.127 95.1721 805.062 95.1721C804.949 95.1721 804.836 95.1721 804.739 95.2206C759.003 98.0174 713.058 99.3431 667.323 95.6409C643.978 93.7494 620.828 90.3706 597.888 85.6662C575.238 81.0425 552.799 75.4812 530.15 70.8738C486.015 61.9013 441.137 56.6795 396.145 55.2245C351.153 53.7695 306.033 56.0975 261.429 62.1923C240.51 65.0538 219.477 68.3679 199.01 73.6059C180.823 78.2619 162.781 84.8417 147.293 95.6733C145.353 97.0313 143.462 98.4539 141.619 99.9412C141.651 99.8442 141.651 99.7634 141.667 99.6664C145.046 70.7444 132.856 42.5823 117.272 18.9144C115.364 16.0368 113.408 12.8843 111.08 10.1522C131.062 10.7827 151.028 11.4132 170.993 12.0436C174.986 12.4155 178.996 12.561 183.037 12.4316C184.492 12.367 185.414 11.5748 185.867 10.5725C187.774 10.6857 189.682 10.8312 191.59 10.9928C200.691 11.785 209.777 12.7873 218.863 13.7088C236.953 15.5356 255.027 17.3948 273.118 19.2863C283.48 20.3694 293.843 21.4688 304.206 22.5681C304.675 22.6166 305.111 22.5196 305.515 22.3256C326.596 26.2541 347.581 30.6837 368.436 35.6307C370.424 36.0995 371.75 35.0648 372.186 33.6907C395.385 37.3605 418.455 41.7578 441.379 46.8341C442.284 47.0442 443.077 46.8664 443.707 46.4946C473.243 49.6794 502.181 56.6795 531.265 62.4833C539.704 64.1646 548.143 65.749 556.63 67.1231C557.18 67.204 557.714 67.1716 558.215 67.0746C558.376 67.1231 558.538 67.1878 558.716 67.2201C604.241 76.5482 650.283 83.3705 696.552 87.6547C709.695 88.8671 722.855 89.8533 736.031 90.6616C736.791 90.7101 737.405 90.5323 737.89 90.209C779.632 90.9365 821.406 94.8649 863.165 92.3268C873.689 91.6963 884.181 90.5808 894.609 88.9965C894.722 89.0126 894.819 89.0288 894.948 89.0288C910.727 89.1743 926.489 88.3336 942.17 86.523C943.69 86.3452 945.016 85.456 945.339 83.9687C967.439 81.5599 989.506 78.6175 1011.53 75.5297C1014.5 75.1094 1017.47 74.6729 1020.45 74.2526C1020.87 74.3172 1021.31 74.3011 1021.74 74.2364C1028.14 73.2664 1034.53 72.3126 1040.92 71.3426C1041.71 71.2133 1042.34 70.6798 1042.74 69.9846C1052.25 68.2709 1061.71 66.2986 1071.1 64.0676C1071.76 64.3425 1072.51 64.4071 1073.27 64.294C1088.43 61.9175 1103.59 59.541 1118.76 57.1645C1133.36 54.8689 1148.02 52.751 1162.23 48.5639C1162.83 48.3861 1163.3 48.1112 1163.65 47.7556C1179.77 45.2013 1195.87 42.4691 1211.91 39.3813C1220.98 37.6353 1230.05 35.76 1239.07 33.7553C1239.73 33.5937 1240.23 33.3027 1240.61 32.9147C1283.69 25.7206 1327 19.9814 1370.47 15.7458C1382.92 14.5333 1395.37 13.4501 1407.83 12.4801C1408.95 12.3831 1409.74 11.8658 1410.26 11.1545C1430.29 9.9905 1450.35 9.748 1470.4 10.427C1471.01 10.4593 1471.51 10.3138 1471.95 10.1037C1473.53 10.0875 1475.12 10.0713 1476.7 10.0713C1476.43 11.8335 1477.45 13.919 1479.77 14.0645C1484.06 14.3231 1488.52 14.8566 1492.8 15.9075C1492.66 16.8936 1492.93 17.7666 1493.45 18.4294Z" fill="#D3C4AF"/>
<path d="M1512.07 10.1849C1510.12 11.4459 1507.97 12.2057 1505.82 12.9979C1504.88 15.4875 1503.3 17.4437 1501.57 19.2705C1499.56 22.5846 1496.99 25.4623 1494.49 28.3723C1491.54 34.1599 1489.31 40.4164 1486.95 46.4303C1484.32 53.1718 1481.75 59.9294 1479.14 66.687C1478.56 68.2228 1477.98 69.7587 1477.41 71.2945C1477.41 73.7033 1477.25 76.0636 1476.88 78.3754C1476.38 85.6989 1475.86 93.0223 1475.34 100.33C1475.25 101.833 1474.18 102.949 1472.94 103.369C1471.64 103.822 1470.15 103.482 1469.31 101.962C1468.44 100.378 1466.82 99.5536 1465.39 98.5513C1463.7 97.3711 1462.15 96.0455 1460.76 94.542C1460.39 94.1378 1460.03 93.7337 1459.69 93.3133C1457.33 90.5165 1455.39 87.3964 1453.5 84.2924C1451.58 81.1238 1456.04 77.7773 1458.6 80.3801C1460.54 82.3686 1462.46 84.5349 1464.45 86.5881C1464.43 84.6966 1464.25 82.7727 1464.32 80.9944C1464.46 77.2923 1465.37 73.8003 1466.74 70.373C1469.57 63.2435 1472.76 56.2273 1475.83 49.1948C1477.38 45.6543 1478.93 42.1138 1480.52 38.5895C1481.99 35.3239 1483.41 32.0582 1485.48 29.1321C1486.68 27.4508 1488 25.8665 1489.34 24.2983C1490.44 22.1481 1491.83 20.2082 1493.45 18.4298C1492.93 17.767 1492.66 16.894 1492.8 15.9079C1488.52 14.857 1484.06 14.3235 1479.77 14.0649C1477.45 13.9194 1476.43 11.8339 1476.7 10.0717C1475.12 10.0717 1473.53 10.0879 1471.95 10.1041C1471.51 10.3142 1471.01 10.4597 1470.4 10.4274C1450.35 9.74839 1430.29 9.99089 1410.26 11.1549C1409.74 11.8662 1408.95 12.3835 1407.83 12.4805C1395.37 13.4505 1382.92 14.5337 1370.47 15.7462C1327 19.9818 1283.69 25.721 1240.61 32.9151C1240.23 33.3031 1239.73 33.5941 1239.07 33.7557C1230.05 35.7604 1220.98 37.6357 1211.91 39.3817C1195.87 42.4695 1179.77 45.2017 1163.65 47.756C1163.3 48.1116 1162.83 48.3865 1162.23 48.5643C1148.02 52.7514 1133.36 54.8693 1118.76 57.1649C1103.59 59.5414 1088.43 61.9179 1073.27 64.2944C1072.51 64.4075 1071.76 64.3429 1071.1 64.068C1061.71 66.299 1052.25 68.2713 1042.74 69.985C1042.34 70.6802 1041.71 71.2137 1040.92 71.343C1034.53 72.313 1028.14 73.2668 1021.74 74.2368C1021.31 74.3015 1020.87 74.3176 1020.45 74.253C1017.47 74.6733 1014.5 75.1098 1011.53 75.5301C989.507 78.6179 967.439 81.5603 945.34 83.9691C945.016 85.4564 943.69 86.3456 942.171 86.5234C926.489 88.334 910.727 89.1747 894.948 89.0292C894.819 89.0292 894.722 89.013 894.609 88.9969C884.181 90.5812 873.689 91.6967 863.165 92.3272C821.407 94.8653 779.632 90.9369 737.89 90.2094C737.405 90.5327 736.791 90.7105 736.031 90.662C722.855 89.8537 709.696 88.8675 696.552 87.655C650.284 83.3709 604.241 76.5486 558.716 67.2205C558.538 67.1882 558.377 67.1235 558.215 67.075C557.714 67.172 557.18 67.2043 556.631 67.1235C548.143 65.7494 539.704 64.165 531.265 62.4837C502.182 56.6799 473.244 49.6798 443.707 46.495C443.077 46.8668 442.285 47.0446 441.379 46.8345C418.455 41.7582 395.385 37.3609 372.186 33.6911C371.75 35.0652 370.424 36.0999 368.436 35.6311C347.581 30.6841 326.597 26.2545 305.516 22.326C305.111 22.52 304.675 22.617 304.206 22.5685C293.843 21.4692 283.481 20.3698 273.118 19.2867C255.027 17.3952 236.953 15.536 218.863 13.7092C209.777 12.7877 200.692 11.7854 191.59 10.9932C189.682 10.8316 187.774 10.6861 185.867 10.5729C185.414 11.5752 184.493 12.3674 183.038 12.432C178.996 12.5614 174.987 12.432 170.994 12.044C151.028 11.4135 131.062 10.7831 111.08 10.1526C113.408 12.8847 115.364 16.0372 117.272 18.9148C132.857 42.5827 145.046 70.7448 141.667 99.6668C141.651 99.7638 141.651 99.8446 141.619 99.9416C141.36 101.558 140.261 102.9 138.434 102.9C138.337 102.9 138.24 102.9 138.143 102.884C136.623 102.722 135.023 101.3 135.201 99.6668C136.074 92.2302 135.993 84.6804 134.861 77.2923C132.824 63.971 128.039 51.2318 121.831 39.3332C118.695 33.3354 115.219 27.5316 111.501 21.8895C108.574 17.476 105.325 11.2681 99.8445 9.6999C96.3849 8.71373 97.0154 3.23327 100.718 3.3626C121.184 4.00927 141.651 4.65593 162.118 5.30259C162.441 5.07626 162.813 4.89843 163.25 4.83376C173.338 3.3626 183.409 3.76677 193.53 4.70443C230.228 8.06707 266.877 12.1249 303.527 16.021C304.125 15.7462 304.804 15.633 305.596 15.7785C318.239 18.1065 330.865 20.6608 343.442 23.3768C343.846 23.2151 344.299 23.1343 344.816 23.199C345.107 23.2313 345.382 23.2798 345.673 23.3121H345.722C377.893 27.6609 409.871 33.2869 441.573 40.2709C442.01 40.0284 442.495 39.899 443.012 39.9475C451.58 40.8529 460.116 42.0492 468.62 43.4557C498.69 48.4511 528.258 56.0171 558.344 60.8832C558.538 60.9156 558.7 60.9641 558.862 61.0287C559.331 60.8994 559.864 60.8671 560.43 60.9802C573.104 63.583 585.811 65.9919 598.551 68.1905C643.979 76.0636 689.843 81.3824 735.853 84.1792C736.322 83.9044 736.872 83.7266 737.567 83.7266C749.304 83.9367 761.025 84.3732 772.745 84.8744C803.769 86.1677 835.019 87.8167 866.026 85.6827C866.398 84.4864 867.384 83.4841 868.969 83.4032C878.507 82.9667 888.045 82.5141 897.584 82.0614C898.263 82.0291 898.828 82.2231 899.313 82.5302C901.076 82.5302 902.838 82.5302 904.6 82.4979C905.117 81.7543 905.942 81.1884 907.073 81.1076C916.806 80.3639 926.522 79.4748 936.238 78.4886C961.716 75.8696 987.114 72.4908 1012.48 68.918C1013.08 68.3198 1013.92 67.948 1014.84 67.8348C1033.4 65.4422 1051.81 62.0311 1070.02 57.6822C1070.89 57.4721 1071.65 57.6176 1072.26 57.9409C1085.12 55.9363 1097.98 53.9154 1110.84 51.8946C1110.8 50.4881 1111.52 49.114 1113.13 48.8876C1122.28 47.5296 1131.45 46.1878 1140.6 44.8137C1154.96 42.6473 1169.31 40.4002 1183.62 37.9429C1183.99 37.2477 1184.59 36.6657 1185.46 36.4232C1193.9 34.0791 1202.52 32.5271 1211.25 31.6864C1211.94 31.6056 1212.59 31.8642 1213.12 32.2846C1220.49 30.9913 1227.85 29.5524 1235.16 27.9681C1235.56 27.4993 1236.08 27.1436 1236.71 27.0466C1249.17 24.945 1261.65 22.9726 1274.15 21.1135C1311.03 15.6492 1348.06 11.2681 1385.18 7.92157C1385.7 7.11325 1386.54 6.49892 1387.74 6.38575C1414.77 3.86377 1441.93 3.05544 1469.06 3.92843C1469.44 3.7506 1469.88 3.6536 1470.4 3.63744C1483.75 3.47577 1497.1 3.6536 1510.44 4.15477C1513.69 4.2841 1514.79 8.4389 1512.07 10.1849Z" fill="#D3C4AF"/>
<path d="M1607.18 136.3C1606.94 142.427 1606.28 148.522 1605.15 154.552C1600.54 178.932 1588.82 202.842 1571.1 220.383C1566.17 225.249 1560.64 228.013 1553.66 228.24C1547.9 228.417 1542.13 227.512 1536.62 225.895C1525.9 222.775 1516.16 216.761 1508.03 209.147C1503.96 205.332 1500.37 201.161 1497.19 196.731C1508.52 199.14 1520.08 200.368 1531.65 200.368C1531.89 200.368 1532.12 200.336 1532.33 200.288C1534.34 200.255 1536.34 199.98 1538.23 199.463C1544.34 197.798 1549.34 193.643 1553.14 188.68C1561.45 177.816 1565.15 163.379 1566.54 149.993C1568.03 135.605 1566.56 121.039 1563.97 106.861C1561.29 92.198 1557.41 77.7451 1553.27 63.4538C1548.98 48.6938 1544.04 34.0954 1537.52 20.1759C1536.6 18.2036 1535.58 16.2151 1534.43 14.3075C1533.62 12.0765 1532.62 9.89401 1531.43 7.84086C1530.84 6.8547 1530.23 5.90087 1529.57 4.97938C1528.87 4.04172 1528.21 3.12022 1527.21 2.57056C1526.83 2.03706 1526.25 1.64907 1525.43 1.5844C1519.66 1.22874 1513.9 0.937739 1508.15 0.69524C1461.09 -1.22858 1413.94 0.921572 1367.13 5.60987C1320.52 10.2658 1274.2 17.3953 1228.08 25.4139C1181.48 33.5295 1135.05 42.5828 1088.53 51.0702C1041.63 59.6062 994.615 67.5763 947.296 73.3478C900.623 79.0384 853.643 82.5465 806.598 82.401C806.388 82.401 806.178 82.4172 806 82.4657C805.822 82.4172 805.612 82.401 805.402 82.401C758.357 82.5465 711.393 79.0384 664.704 73.3478C617.385 67.5763 570.372 59.6062 523.489 51.0702C476.962 42.5828 430.532 33.5295 383.923 25.4139C337.8 17.3953 291.483 10.2658 244.891 5.60987C198.057 0.921572 150.915 -1.22858 103.87 0.69524C98.0987 0.937739 92.3434 1.22874 86.5881 1.5844C85.7636 1.64907 85.1816 2.03706 84.7936 2.57056C83.8075 3.12022 83.1285 4.04172 82.4495 4.97938C81.7866 5.90087 81.1561 6.8547 80.5742 7.84086C79.3778 9.89401 78.3917 12.0765 77.5672 14.3075C76.4193 16.2151 75.417 18.2036 74.4955 20.1759C67.9804 34.0954 63.0173 48.6938 58.7493 63.4538C54.5945 77.7451 50.7145 92.198 48.0309 106.861C45.4442 121.039 43.9731 135.605 45.4604 149.993C46.8507 163.379 50.569 177.816 58.8786 188.68C62.6616 193.643 67.6732 197.798 73.7842 199.463C75.3524 199.883 77.0013 200.142 78.6503 200.239C78.8282 200.32 79.0222 200.401 79.2323 200.433C89.8861 202.438 100.718 202.664 111.404 201.161C109.108 203.957 106.651 206.625 103.967 209.147C95.8516 216.761 86.1031 222.775 75.3847 225.895C69.8719 227.512 64.1004 228.417 58.3613 228.24C51.3612 228.013 45.8322 225.249 40.9176 220.383C23.1829 202.842 11.4621 178.932 6.85464 154.552C5.72298 148.522 5.06015 142.427 4.81765 136.3C4.68832 133.213 -0.11315 133.196 1.61032e-05 136.3C1.08318 163.428 10.6053 190.103 27.079 211.701C31.1368 217.02 35.518 222.484 40.7398 226.704C46.3657 231.247 52.9293 233.138 60.1235 233.073C61.3359 233.057 62.4676 233.009 63.5993 232.944C64.9573 233.057 66.3152 233.219 67.6571 233.478C68.5139 233.639 69.3061 233.946 70.1306 234.221C70.8257 234.448 71.537 234.625 72.2645 234.787C72.5555 234.916 72.8789 235.03 73.2184 235.078C169.975 246.459 267.33 251.713 364.685 254.122C462.331 256.531 560.042 256.224 657.704 256.353C756.757 256.483 855.793 256.612 954.846 256.741C1053.28 256.871 1151.72 257.178 1250.16 256.984C1299.29 256.887 1348.44 256.596 1397.58 255.901C1422.16 255.545 1446.71 255.108 1471.29 254.526C1491.03 254.058 1511.2 253.492 1530.29 247.833C1539.35 245.15 1547.88 241.254 1555.76 236C1555.98 235.854 1556.16 235.676 1556.31 235.498C1557.75 234.351 1559.15 233.219 1560.82 232.346C1561.72 231.861 1562.68 231.521 1563.61 231.117C1563.76 231.053 1563.9 230.988 1564.05 230.907C1566.59 229.905 1569 228.514 1571.26 226.688C1576.48 222.468 1580.85 217.004 1584.9 211.685C1601.39 190.087 1610.9 163.412 1611.98 136.284C1612.11 133.18 1607.3 133.196 1607.17 136.284L1607.18 136.3ZM1493.32 190.911C1484.62 176.571 1479.87 159.936 1478.04 143.09C1476.57 129.607 1476.77 115.979 1477.8 102.48C1478.04 99.3436 1478.35 96.2073 1478.69 93.0871C1486.68 92.7153 1494.66 92.198 1502.65 92.1818C1508.68 92.1656 1514.68 92.6506 1520.61 93.5721C1520.14 94.1865 1519.71 94.817 1519.3 95.4475C1517.54 98.1634 1515.97 100.993 1514.55 103.886C1511.59 109.868 1509.26 116.157 1507.63 122.623C1504.4 135.379 1503.8 148.716 1505.77 161.73C1506.72 168.116 1508.36 174.405 1510.64 180.451C1512.56 185.528 1514.76 191.073 1518.64 195.017C1510.12 194.322 1501.66 192.964 1493.32 190.911ZM1523.92 97.1611C1524.65 96.1103 1525.53 95.1241 1526.51 94.6715C1526.67 94.7038 1526.83 94.72 1527 94.7523C1527.61 94.8978 1528.14 94.8008 1528.6 94.5583C1528.97 94.6876 1529.32 94.8655 1529.71 95.1565C1531.93 96.8701 1533.09 99.8124 1534.19 102.286C1539.54 114.298 1542.14 127.425 1542.13 140.536C1536.95 140.908 1531.75 140.649 1526.62 139.825C1523.78 139.356 1520.95 138.758 1518.15 138.063C1515.47 137.384 1512.79 136.656 1510.01 136.721C1510.88 128.654 1512.79 120.683 1515.7 113.134C1517.85 107.572 1520.56 102.092 1523.92 97.1611ZM1531.05 18.0096C1534.38 23.8943 1536.91 30.377 1539.33 36.682C1544.46 50.0194 1548.48 63.7448 1552.18 77.5349C1559.04 103.094 1565.57 130.432 1560.74 156.961C1558.57 168.811 1554.29 182.521 1544.8 190.604C1540.66 194.144 1535.1 196.149 1529.62 195.357C1523.25 194.451 1519.95 189.747 1517.41 184.267C1511.27 170.978 1508.76 156.169 1509.6 141.571C1512.54 141.409 1515.32 142.363 1518.17 143.026C1520.98 143.688 1523.81 144.254 1526.66 144.675C1532.49 145.548 1538.35 145.855 1544.21 145.224C1545.49 145.337 1546.91 144.578 1546.95 142.912C1547.12 135.589 1546.51 128.266 1545.1 121.088C1543.7 113.894 1541.45 106.91 1538.51 100.217C1536.34 95.3181 1532.48 88.1887 1526.01 89.7083C1518.57 88.2372 1511.01 87.4127 1503.43 87.3965C1495.39 87.3642 1487.32 87.8815 1479.3 88.2533C1480.26 81.0915 1481.55 73.9621 1483.28 66.9458C1486.16 55.3382 1490.23 43.9893 1496.13 33.5457C1499.01 28.4532 1502.31 23.5709 1506.08 19.0928C1507.98 16.8295 1509.99 14.647 1512.11 12.5938C1514.21 10.5568 1516.7 8.42286 1519.8 8.45519C1524.99 8.51986 1528.76 13.9842 1531.05 18.0096ZM82.3848 195.341C76.9043 196.133 71.3592 194.128 67.2044 190.588C57.7308 182.504 53.4305 168.795 51.2642 156.945C46.4304 130.416 52.9617 103.078 59.8325 77.5187C63.5346 63.7287 67.5439 50.0033 72.6849 36.6658C75.1099 30.3609 77.6157 23.8781 80.9622 17.9935C83.2416 13.968 87.0084 8.50369 92.2141 8.43902C95.3181 8.40669 97.7915 10.5407 99.8932 12.5777C102.011 14.6308 104.016 16.8133 105.923 19.0766C109.69 23.5548 112.988 28.4371 115.882 33.5295C121.767 43.9731 125.857 55.322 128.718 66.9296C130.464 73.9459 131.757 81.0754 132.711 88.2372C124.677 87.8653 116.626 87.348 108.591 87.3803C100.993 87.3965 93.4266 88.221 85.9899 89.6922C79.5395 88.1725 75.6595 95.3019 73.5094 100.2C70.5509 106.893 68.3037 113.877 66.8972 121.071C65.4908 128.249 64.8764 135.573 65.0543 142.896C65.1028 144.561 66.5092 145.321 67.7864 145.208C73.6549 145.839 79.5233 145.531 85.3433 144.658C88.2048 144.238 91.0339 143.672 93.8307 143.009C96.676 142.347 99.4567 141.393 102.399 141.554C103.256 156.153 100.734 170.961 94.5906 184.25C92.0524 189.731 88.7544 194.435 82.3848 195.341ZM88.0754 97.1611C91.4381 102.092 94.1541 107.572 96.3042 113.134C99.2304 120.683 101.122 128.654 102.011 136.721C99.2304 136.656 96.5305 137.384 93.8469 138.063C91.0501 138.758 88.2209 139.356 85.3756 139.825C80.2508 140.649 75.0452 140.908 69.8719 140.536C69.8719 127.425 72.4747 114.298 77.8097 102.286C78.909 99.8124 80.073 96.8701 82.304 95.1565C82.6758 94.8655 83.0476 94.6876 83.4033 94.5583C83.856 94.8008 84.3895 94.8978 85.02 94.7523C85.1655 94.72 85.3271 94.7038 85.4888 94.6715C86.4911 95.1241 87.3641 96.1103 88.0754 97.1611ZM90.9208 197.119C96.4174 193.271 99.0687 186.498 101.364 180.451C103.66 174.405 105.277 168.116 106.247 161.73C108.203 148.716 107.605 135.379 104.371 122.623C102.739 116.157 100.411 109.868 97.4682 103.886C96.0456 100.993 94.4612 98.1634 92.7152 95.4475C92.2949 94.817 91.8746 94.1865 91.3896 93.5721C97.3389 92.6506 103.337 92.1656 109.351 92.1818C117.337 92.198 125.339 92.7153 133.309 93.0871C133.665 96.2073 133.956 99.3436 134.199 102.48C135.233 115.979 135.427 129.607 133.972 143.09C131.951 161.827 126.261 180.306 115.575 195.664C115.397 195.664 115.203 195.68 115.009 195.712C107.071 197.232 98.9555 197.685 90.9208 197.119ZM1492.37 248.933C1469.18 250.355 1445.86 250.307 1422.64 250.695C1373.51 251.536 1324.36 251.924 1275.22 252.101C1177.78 252.441 1080.36 252.085 982.927 251.956C788.573 251.713 594.089 253.605 399.767 250.064C291.742 248.092 183.684 243.097 76.3062 230.616C82.7728 228.757 88.9646 225.96 94.6229 222.403C116.884 208.436 130.545 184.832 136.122 159.596C139.259 145.354 140.132 130.674 139.744 116.124C139.356 102.593 138.062 89.0132 135.557 75.7242C133.132 62.9688 129.462 50.4074 123.933 38.6543C118.598 27.3216 111.242 15.8271 101.623 7.64686C100.766 6.91937 99.877 6.28887 98.9555 5.73921C141.668 3.76689 184.477 5.10871 227.059 8.76235C274.363 12.8202 321.375 19.6424 368.161 27.5641C414.785 35.4695 461.216 44.4743 507.711 53.0426C553.947 61.5785 600.264 69.6779 646.856 75.8859C693.691 82.11 740.833 86.3942 788.088 87.1055C793.859 87.2025 799.63 87.2348 805.402 87.2187C805.612 87.2187 805.822 87.1863 806 87.1378C806.178 87.1863 806.388 87.2187 806.598 87.2187C812.37 87.2348 818.141 87.2025 823.913 87.1055C871.167 86.3942 918.309 82.11 965.144 75.8859C1011.75 69.6779 1058.07 61.5785 1104.29 53.0426C1150.78 44.4743 1197.21 35.4695 1243.84 27.5641C1290.63 19.6424 1337.65 12.8202 1384.94 8.76235C1427.54 5.10871 1470.33 3.76689 1513.04 5.73921C1512.12 6.28887 1511.23 6.91937 1510.38 7.64686C1500.76 15.8271 1493.4 27.3216 1488.08 38.6543C1482.55 50.4074 1478.87 62.9688 1476.46 75.7242C1473.94 89.0132 1472.64 102.593 1472.27 116.124C1471.87 130.674 1472.74 145.354 1475.88 159.596C1481.46 184.832 1495.13 208.436 1517.38 222.403C1527.53 228.789 1539.4 232.815 1551.42 233.057C1533.69 244.18 1513.04 247.672 1492.37 248.933Z" fill="#1A171B"/>
<path d="M1542.13 140.536C1536.96 140.908 1531.75 140.649 1526.62 139.825C1523.78 139.356 1520.95 138.758 1518.15 138.063C1515.47 137.384 1512.79 136.656 1510.01 136.721C1510.88 128.654 1512.79 120.684 1515.7 113.134C1517.85 107.573 1520.56 102.092 1523.92 97.1614C1524.65 96.1106 1525.53 95.1244 1526.51 94.6718C1526.67 94.7041 1526.83 94.7203 1527 94.7526C1527.61 94.8981 1528.14 94.8011 1528.6 94.5586C1528.97 94.6879 1529.32 94.8658 1529.71 95.1568C1531.93 96.8704 1533.09 99.8127 1534.19 102.286C1539.54 114.298 1542.14 127.425 1542.13 140.536Z" fill="#99856D"/>
<path d="M1560.74 156.945C1558.57 168.795 1554.29 182.504 1544.8 190.587C1540.66 194.128 1535.1 196.133 1529.62 195.34C1523.25 194.435 1519.95 189.731 1517.41 184.25C1511.27 170.961 1508.76 156.153 1509.6 141.554C1512.54 141.393 1515.32 142.346 1518.17 143.009C1520.98 143.672 1523.81 144.238 1526.66 144.658C1532.49 145.531 1538.35 145.838 1544.21 145.208C1545.49 145.321 1546.91 144.561 1546.95 142.896C1547.12 135.573 1546.51 128.249 1545.1 121.071C1543.7 113.877 1541.45 106.893 1538.51 100.2C1536.34 95.3018 1532.48 88.1723 1526.01 89.692C1518.57 88.2208 1511.01 87.3963 1503.43 87.3801C1495.39 87.3478 1487.32 87.8651 1479.3 88.237C1480.26 81.0752 1481.55 73.9457 1483.28 66.9295C1486.16 55.3219 1490.23 43.9729 1496.13 33.5293C1499.01 28.4369 1502.31 23.5546 1506.08 19.0764C1507.98 16.8131 1509.99 14.6306 1512.11 12.5775C1514.21 10.5405 1516.7 8.40651 1519.8 8.43884C1524.99 8.50351 1528.76 13.9678 1531.05 17.9933C1534.38 23.8779 1536.91 30.3607 1539.33 36.6657C1544.46 50.0031 1548.48 63.7285 1552.18 77.5185C1559.04 103.078 1565.57 130.416 1560.74 156.945Z" fill="#D3C4AF"/>
<path d="M1507.63 122.624C1504.4 135.379 1503.8 148.716 1505.77 161.731C1506.72 168.116 1508.36 174.405 1510.64 180.451C1512.56 185.528 1514.76 191.073 1518.64 195.018C1510.12 194.322 1501.66 192.964 1493.32 190.911C1484.62 176.571 1479.87 159.936 1478.04 143.091C1476.57 129.608 1476.77 115.979 1477.8 102.48C1478.04 99.3438 1478.35 96.2075 1478.69 93.0874C1486.68 92.7155 1494.66 92.1982 1502.65 92.182C1508.68 92.1659 1514.68 92.6509 1520.61 93.5724C1520.14 94.1867 1519.71 94.8172 1519.3 95.4477C1517.54 98.1637 1515.97 100.993 1514.55 103.887C1511.59 109.868 1509.26 116.157 1507.63 122.624Z" fill="#BAA78E"/>
<path d="M133.972 143.091C131.952 161.828 126.261 180.306 115.575 195.664C115.397 195.664 115.203 195.68 115.009 195.713C107.071 197.232 98.9557 197.685 90.9209 197.119C96.4175 193.272 99.0688 186.498 101.364 180.451C103.66 174.405 105.277 168.116 106.247 161.731C108.203 148.716 107.605 135.379 104.371 122.624C102.739 116.157 100.411 109.868 97.4684 103.887C96.0457 100.993 94.4614 98.1637 92.7154 95.4477C92.2951 94.8172 91.8747 94.1867 91.3897 93.5724C97.339 92.6509 103.337 92.1659 109.351 92.182C117.337 92.1982 125.339 92.7155 133.31 93.0874C133.665 96.2075 133.956 99.3438 134.199 102.48C135.233 115.979 135.427 129.608 133.972 143.091Z" fill="#BAA78E"/>
<path d="M102.011 136.721C99.2305 136.656 96.5307 137.384 93.8471 138.063C91.0503 138.758 88.2211 139.356 85.3758 139.825C80.251 140.649 75.0454 140.908 69.8721 140.536C69.8721 127.425 72.4749 114.298 77.8099 102.286C78.9092 99.8127 80.0732 96.8704 82.3042 95.1568C82.676 94.8658 83.0478 94.6879 83.4035 94.5586C83.8561 94.8011 84.3896 94.8981 85.0201 94.7526C85.1656 94.7203 85.3273 94.7041 85.489 94.6718C86.4913 95.1244 87.3643 96.1106 88.0756 97.1614C91.4383 102.092 94.1542 107.573 96.3044 113.134C99.2305 120.684 101.122 128.654 102.011 136.721Z" fill="#99856D"/>
<path d="M66.8972 121.071C65.4907 128.249 64.8763 135.573 65.0542 142.896C65.1027 144.561 66.5092 145.321 67.7863 145.208C73.6548 145.838 79.5232 145.531 85.3432 144.658C88.2047 144.238 91.0338 143.672 93.8307 143.009C96.676 142.346 99.4566 141.393 102.399 141.554C103.256 156.153 100.734 170.961 94.5905 184.25C92.0523 189.731 88.7543 194.435 82.3847 195.34C76.9043 196.133 71.3591 194.128 67.2043 190.587C57.7307 182.504 53.4304 168.795 51.2641 156.945C46.4303 130.416 52.9616 103.078 59.8324 77.5185C63.5345 63.7285 67.5438 50.0031 72.6848 36.6657C75.1098 30.3607 77.6156 23.8779 80.9621 17.9933C83.2416 13.9678 87.0084 8.50351 92.214 8.43884C95.318 8.40651 97.7915 10.5405 99.8931 12.5775C102.011 14.6306 104.016 16.8131 105.923 19.0764C109.69 23.5546 112.988 28.4369 115.882 33.5293C121.766 43.9729 125.857 55.3219 128.718 66.9295C130.464 73.9457 131.757 81.0752 132.711 88.237C124.676 87.8651 116.625 87.3478 108.591 87.3801C100.992 87.3963 93.4265 88.2208 85.9899 89.692C79.5394 88.1723 75.6594 95.3018 73.5093 100.2C70.5508 106.893 68.3037 113.877 66.8972 121.071Z" fill="#D3C4AF"/>
</g>
<defs>
<clipPath id="clip0_7373_78">
<rect width="1612" height="257.048" fill="white"/>
</clipPath>
</defs>
</svg>
