<svg width="1612" height="258" viewBox="0 0 1612 258" fill="none" xmlns="http://www.w3.org/2000/svg">
<g clip-path="url(#clip0_7373_45)">
<path d="M806 82.4658C803.688 82.9832 803.705 86.6045 806 87.138C808.312 86.6045 808.312 82.9832 806 82.4658Z" fill="#1A171B"/>
<path d="M1551.42 233.057C1533.69 244.179 1513.04 247.671 1492.37 248.932C1469.18 250.355 1445.86 250.307 1422.64 250.695C1373.51 251.535 1324.36 251.923 1275.22 252.101C1177.78 252.44 1080.36 252.085 982.927 251.956C788.572 251.713 594.089 253.604 399.767 250.064C291.742 248.092 183.684 243.096 76.3062 230.616C82.7728 228.756 88.9646 225.96 94.6229 222.403C116.884 208.435 130.545 184.832 136.122 159.596C139.259 145.353 140.132 130.674 139.744 116.124C139.356 102.593 138.062 89.0127 135.557 75.7238C133.132 62.9684 129.462 50.407 123.933 38.6539C118.598 27.3211 111.242 15.8267 101.623 7.64643C100.766 6.91894 99.877 6.28844 98.9555 5.73878C141.668 3.76646 184.477 5.10828 227.059 8.76192C274.363 12.8197 321.375 19.642 368.161 27.5636C414.785 35.4691 461.216 44.4739 507.711 53.0421C553.947 61.5781 600.264 69.6775 646.856 75.8855C693.691 82.1096 740.833 86.3937 788.087 87.1051C793.859 87.2021 799.63 87.2344 805.402 87.2182C805.612 87.2182 805.822 87.1859 806 87.1374C806.178 87.1859 806.388 87.2182 806.598 87.2182C812.37 87.2344 818.141 87.2021 823.913 87.1051C871.167 86.3937 918.309 82.1096 965.144 75.8855C1011.75 69.6775 1058.07 61.5781 1104.29 53.0421C1150.78 44.4739 1197.21 35.4691 1243.84 27.5636C1290.63 19.642 1337.65 12.8197 1384.94 8.76192C1427.54 5.10828 1470.33 3.76646 1513.04 5.73878C1512.12 6.28844 1511.23 6.91894 1510.38 7.64643C1500.76 15.8267 1493.4 27.3211 1488.08 38.6539C1482.55 50.407 1478.87 62.9684 1476.46 75.7238C1473.94 89.0127 1472.64 102.593 1472.27 116.124C1471.87 130.674 1472.74 145.353 1475.88 159.596C1481.46 184.832 1495.13 208.435 1517.38 222.403C1527.53 228.789 1539.4 232.814 1551.42 233.057Z" fill="#EFE2CB"/>
<path d="M1548.9 230.292C1542.74 230.971 1536.66 230.179 1530.63 228.983C1530.47 227.722 1529.6 226.817 1528.34 226.299C1523.97 224.489 1519.62 222.613 1515.24 220.851C1514.64 220.609 1514.05 220.399 1513.45 220.188C1512.62 218.184 1510.98 216.68 1509.15 215.468C1507.87 214.611 1506.29 213.9 1505.12 212.849C1505.07 212.8 1505.03 212.768 1504.99 212.719C1504.62 212.364 1504.3 211.96 1504.04 211.507C1503.6 210.699 1502.97 210.262 1502.31 210.052C1500.27 208.047 1498.24 206.026 1496.26 203.957C1496.22 203.909 1496.18 203.876 1496.13 203.844C1496.44 202.712 1496.18 201.403 1495.37 200.562C1495.37 200.061 1495.25 199.544 1494.94 199.026C1493.85 197.151 1493.11 195.243 1492.61 193.142C1492.35 192.042 1491.69 191.396 1490.9 191.072C1490.88 191.04 1490.86 190.992 1490.85 190.959C1490.75 190.814 1490.67 190.668 1490.59 190.523C1490.49 189.553 1490.01 188.647 1489.13 188.13C1486.87 184.299 1484.87 180.322 1483.14 176.215C1482.86 175.552 1482.28 175.116 1481.6 174.89C1479.94 168.94 1478.53 162.959 1476.75 157.042C1474.91 150.898 1474.31 144.577 1473.6 138.224C1472.87 131.838 1471.66 125.339 1474.42 119.26C1475.12 117.676 1474.89 115.817 1473.27 114.863C1473.13 114.782 1472.97 114.718 1472.81 114.653C1475.25 110.628 1477.4 106.36 1479.19 101.801C1479.95 99.8768 1476.85 99.0523 1476.1 100.944C1474.28 105.584 1472.01 110.029 1469.35 114.233C1445.95 151.173 1400.91 163.282 1360.87 172.157C1314.1 182.52 1267.04 191.574 1219.78 199.35C1172.17 207.19 1124.34 213.722 1076.37 218.944C1028.48 224.149 980.437 228.061 932.342 230.648C891.149 232.863 849.908 234.108 808.667 234.399C767.41 234.108 726.169 232.863 684.993 230.648C636.882 228.061 588.851 224.149 540.965 218.944C492.999 213.722 445.162 207.19 397.552 199.35C350.281 191.557 303.22 182.504 256.466 172.157C216.406 163.282 171.382 151.173 147.989 114.233C145.321 110.013 143.058 105.584 141.231 100.944C140.487 99.0523 137.383 99.8768 138.143 101.801C138.321 102.253 138.515 102.674 138.709 103.126C137.206 103.595 135.928 105.438 136.559 107.039C137.771 110.159 138.693 113.376 139.356 116.642C139.016 117.127 138.822 117.709 138.855 118.42C140.633 150.09 130.901 181.922 111.856 207.287C110.337 209.324 108.72 211.297 107.055 213.237C106.344 213.043 105.551 213.156 104.808 213.722L97.4681 219.348C91.4704 223.179 84.7289 225.717 77.5994 226.784C76.0475 227.027 75.0936 228.886 75.3038 230.309C75.5463 231.958 76.8234 232.96 78.4563 233.089C96.4658 234.512 114.459 235.918 132.469 237.341C133.277 239.782 136.866 240.979 138.289 238.198C138.337 238.101 138.37 238.004 138.418 237.923C142.702 239.669 147.293 240.671 152.014 240.865C152.467 240.882 152.855 240.785 153.227 240.639C157.495 241.124 161.86 240.865 166.128 239.782C166.79 239.621 167.292 239.313 167.647 238.942C177.024 240.445 186.449 241.706 195.906 242.692C197.313 242.838 198.283 241.997 198.735 240.898C202.373 241.286 206.027 241.625 209.68 241.932C210.101 243.258 211.248 243.969 212.703 244.147C237.923 247.3 263.353 248.69 288.767 248.334C289.284 248.949 290.06 249.401 291.095 249.482C313.082 251.357 335.149 251.972 357.2 251.325C358.445 251.293 359.35 250.63 359.868 249.757C363.554 250.064 367.256 250.29 370.942 250.404C391.021 251.794 411.148 252.618 431.291 252.861C438.906 252.958 446.504 252.958 454.119 252.893C454.426 252.893 454.717 252.845 454.975 252.78C482.442 253.233 509.909 253.508 537.393 253.572C566.428 253.637 595.463 253.475 624.498 253.087C639.792 252.877 655.101 252.602 670.395 252.279C670.896 252.699 671.559 252.974 672.4 252.974H921.769C922.415 252.974 922.949 252.796 923.385 252.538H1179.96C1180.4 252.796 1180.95 252.974 1181.6 252.974H1416.79C1417.23 252.974 1417.61 252.893 1417.97 252.764H1480.44C1481.33 252.764 1482.02 252.441 1482.52 251.972C1488.34 251.81 1494.11 251.196 1499.87 250.29C1502.49 249.87 1505.07 249.337 1507.66 248.738C1510.86 248.124 1514.06 247.461 1517.26 246.766C1517.93 246.621 1518.61 246.475 1519.27 246.33C1521 246.637 1522.78 246.879 1524.57 247.073C1527.77 247.397 1530.54 245.699 1532.35 243.193C1538.64 241.48 1544.8 239.362 1550.63 236.323C1553.33 234.916 1552.22 229.985 1549.01 230.341L1548.9 230.292ZM119.503 223.47C119.422 224.02 119.341 224.569 119.261 225.119C119.18 224.537 118.937 224.004 118.517 223.583C118.856 223.017 119.18 222.452 119.519 221.886C119.519 222.419 119.503 222.953 119.487 223.47H119.503Z" fill="#D3C4AF"/>
<path d="M1607.18 136.3C1606.94 142.427 1606.28 148.522 1605.15 154.552C1600.54 178.932 1588.82 202.842 1571.1 220.383C1566.17 225.249 1560.64 228.013 1553.66 228.24C1547.9 228.417 1542.13 227.512 1536.62 225.895C1525.9 222.775 1516.16 216.761 1508.03 209.147C1503.96 205.332 1500.37 201.161 1497.19 196.731C1508.52 199.14 1520.08 200.368 1531.65 200.368C1531.89 200.368 1532.12 200.336 1532.33 200.288C1534.34 200.255 1536.34 199.98 1538.23 199.463C1544.34 197.798 1549.34 193.643 1553.14 188.68C1561.45 177.816 1565.15 163.379 1566.54 149.993C1568.03 135.605 1566.56 121.039 1563.97 106.861C1561.29 92.198 1557.41 77.7451 1553.27 63.4538C1548.98 48.6938 1544.04 34.0954 1537.52 20.1759C1536.6 18.2036 1535.58 16.2151 1534.43 14.3075C1533.62 12.0765 1532.62 9.89401 1531.43 7.84086C1530.84 6.8547 1530.23 5.90087 1529.57 4.97938C1528.87 4.04172 1528.21 3.12022 1527.21 2.57056C1526.83 2.03706 1526.25 1.64907 1525.43 1.5844C1519.66 1.22874 1513.9 0.937739 1508.15 0.69524C1461.09 -1.22858 1413.94 0.921572 1367.13 5.60987C1320.52 10.2658 1274.2 17.3953 1228.08 25.4139C1181.48 33.5295 1135.05 42.5828 1088.53 51.0702C1041.63 59.6062 994.615 67.5763 947.296 73.3478C900.623 79.0384 853.643 82.5465 806.598 82.401C806.388 82.401 806.178 82.4172 806 82.4657C805.822 82.4172 805.612 82.401 805.402 82.401C758.357 82.5465 711.393 79.0384 664.704 73.3478C617.385 67.5763 570.372 59.6062 523.489 51.0702C476.962 42.5828 430.532 33.5295 383.923 25.4139C337.8 17.3953 291.483 10.2658 244.891 5.60987C198.057 0.921572 150.915 -1.22858 103.87 0.69524C98.0987 0.937739 92.3434 1.22874 86.5881 1.5844C85.7636 1.64907 85.1816 2.03706 84.7936 2.57056C83.8075 3.12022 83.1285 4.04172 82.4495 4.97938C81.7866 5.90087 81.1561 6.8547 80.5742 7.84086C79.3778 9.89401 78.3917 12.0765 77.5672 14.3075C76.4193 16.2151 75.417 18.2036 74.4955 20.1759C67.9804 34.0954 63.0173 48.6938 58.7493 63.4538C54.5945 77.7451 50.7145 92.198 48.0309 106.861C45.4442 121.039 43.9731 135.605 45.4604 149.993C46.8507 163.379 50.569 177.816 58.8786 188.68C62.6616 193.643 67.6732 197.798 73.7842 199.463C75.3524 199.883 77.0013 200.142 78.6503 200.239C78.8282 200.32 79.0222 200.401 79.2323 200.433C89.8861 202.438 100.718 202.664 111.404 201.161C109.108 203.957 106.651 206.625 103.967 209.147C95.8516 216.761 86.1031 222.775 75.3847 225.895C69.8719 227.512 64.1004 228.417 58.3613 228.24C51.3612 228.013 45.8322 225.249 40.9176 220.383C23.1829 202.842 11.4621 178.932 6.85464 154.552C5.72298 148.522 5.06015 142.427 4.81765 136.3C4.68832 133.213 -0.11315 133.196 1.61032e-05 136.3C1.08318 163.428 10.6053 190.103 27.079 211.701C31.1368 217.02 35.518 222.484 40.7398 226.704C46.3657 231.247 52.9293 233.138 60.1235 233.073C61.3359 233.057 62.4676 233.009 63.5993 232.944C64.9573 233.057 66.3152 233.219 67.6571 233.478C68.5139 233.639 69.3061 233.946 70.1306 234.221C70.8257 234.448 71.537 234.625 72.2645 234.787C72.5555 234.916 72.8789 235.03 73.2184 235.078C169.975 246.459 267.33 251.713 364.685 254.122C462.331 256.531 560.042 256.224 657.704 256.353C756.757 256.483 855.793 256.612 954.846 256.741C1053.28 256.871 1151.72 257.178 1250.16 256.984C1299.29 256.887 1348.44 256.596 1397.58 255.901C1422.16 255.545 1446.71 255.108 1471.29 254.526C1491.03 254.058 1511.2 253.492 1530.29 247.833C1539.35 245.15 1547.88 241.254 1555.76 236C1555.98 235.854 1556.16 235.676 1556.31 235.498C1557.75 234.351 1559.15 233.219 1560.82 232.346C1561.72 231.861 1562.68 231.521 1563.61 231.117C1563.76 231.053 1563.9 230.988 1564.05 230.907C1566.59 229.905 1569 228.514 1571.26 226.688C1576.48 222.468 1580.85 217.004 1584.9 211.685C1601.39 190.087 1610.9 163.412 1611.98 136.284C1612.11 133.18 1607.3 133.196 1607.17 136.284L1607.18 136.3ZM1493.32 190.911C1484.62 176.571 1479.87 159.936 1478.04 143.09C1476.57 129.607 1476.77 115.979 1477.8 102.48C1478.04 99.3436 1478.35 96.2073 1478.69 93.0871C1486.68 92.7153 1494.66 92.198 1502.65 92.1818C1508.68 92.1656 1514.68 92.6506 1520.61 93.5721C1520.14 94.1865 1519.71 94.817 1519.3 95.4475C1517.54 98.1634 1515.97 100.993 1514.55 103.886C1511.59 109.868 1509.26 116.157 1507.63 122.623C1504.4 135.379 1503.8 148.716 1505.77 161.73C1506.72 168.116 1508.36 174.405 1510.64 180.451C1512.56 185.528 1514.76 191.073 1518.64 195.017C1510.12 194.322 1501.66 192.964 1493.32 190.911ZM1523.92 97.1611C1524.65 96.1103 1525.53 95.1241 1526.51 94.6715C1526.67 94.7038 1526.83 94.72 1527 94.7523C1527.61 94.8978 1528.14 94.8008 1528.6 94.5583C1528.97 94.6876 1529.32 94.8655 1529.71 95.1565C1531.93 96.8701 1533.09 99.8124 1534.19 102.286C1539.54 114.298 1542.14 127.425 1542.13 140.536C1536.95 140.908 1531.75 140.649 1526.62 139.825C1523.78 139.356 1520.95 138.758 1518.15 138.063C1515.47 137.384 1512.79 136.656 1510.01 136.721C1510.88 128.654 1512.79 120.683 1515.7 113.134C1517.85 107.572 1520.56 102.092 1523.92 97.1611ZM1531.05 18.0096C1534.38 23.8943 1536.91 30.377 1539.33 36.682C1544.46 50.0194 1548.48 63.7448 1552.18 77.5349C1559.04 103.094 1565.57 130.432 1560.74 156.961C1558.57 168.811 1554.29 182.521 1544.8 190.604C1540.66 194.144 1535.1 196.149 1529.62 195.357C1523.25 194.451 1519.95 189.747 1517.41 184.267C1511.27 170.978 1508.76 156.169 1509.6 141.571C1512.54 141.409 1515.32 142.363 1518.17 143.026C1520.98 143.688 1523.81 144.254 1526.66 144.675C1532.49 145.548 1538.35 145.855 1544.21 145.224C1545.49 145.337 1546.91 144.578 1546.95 142.912C1547.12 135.589 1546.51 128.266 1545.1 121.088C1543.7 113.894 1541.45 106.91 1538.51 100.217C1536.34 95.3181 1532.48 88.1887 1526.01 89.7083C1518.57 88.2372 1511.01 87.4127 1503.43 87.3965C1495.39 87.3642 1487.32 87.8815 1479.3 88.2533C1480.26 81.0915 1481.55 73.9621 1483.28 66.9458C1486.16 55.3382 1490.23 43.9893 1496.13 33.5457C1499.01 28.4532 1502.31 23.5709 1506.08 19.0928C1507.98 16.8295 1509.99 14.647 1512.11 12.5938C1514.21 10.5568 1516.7 8.42286 1519.8 8.45519C1524.99 8.51986 1528.76 13.9842 1531.05 18.0096ZM82.3848 195.341C76.9043 196.133 71.3592 194.128 67.2044 190.588C57.7308 182.504 53.4305 168.795 51.2642 156.945C46.4304 130.416 52.9617 103.078 59.8325 77.5187C63.5346 63.7287 67.5439 50.0033 72.6849 36.6658C75.1099 30.3609 77.6157 23.8781 80.9622 17.9935C83.2416 13.968 87.0084 8.50369 92.2141 8.43902C95.3181 8.40669 97.7915 10.5407 99.8932 12.5777C102.011 14.6308 104.016 16.8133 105.923 19.0766C109.69 23.5548 112.988 28.4371 115.882 33.5295C121.767 43.9731 125.857 55.322 128.718 66.9296C130.464 73.9459 131.757 81.0754 132.711 88.2372C124.677 87.8653 116.626 87.348 108.591 87.3803C100.993 87.3965 93.4266 88.221 85.9899 89.6922C79.5395 88.1725 75.6595 95.3019 73.5094 100.2C70.5509 106.893 68.3037 113.877 66.8972 121.071C65.4908 128.249 64.8764 135.573 65.0543 142.896C65.1028 144.561 66.5092 145.321 67.7864 145.208C73.6549 145.839 79.5233 145.531 85.3433 144.658C88.2048 144.238 91.0339 143.672 93.8307 143.009C96.676 142.347 99.4567 141.393 102.399 141.554C103.256 156.153 100.734 170.961 94.5906 184.25C92.0524 189.731 88.7544 194.435 82.3848 195.341ZM88.0754 97.1611C91.4381 102.092 94.1541 107.572 96.3042 113.134C99.2304 120.683 101.122 128.654 102.011 136.721C99.2304 136.656 96.5305 137.384 93.8469 138.063C91.0501 138.758 88.2209 139.356 85.3756 139.825C80.2508 140.649 75.0452 140.908 69.8719 140.536C69.8719 127.425 72.4747 114.298 77.8097 102.286C78.909 99.8124 80.073 96.8701 82.304 95.1565C82.6758 94.8655 83.0476 94.6876 83.4033 94.5583C83.856 94.8008 84.3895 94.8978 85.02 94.7523C85.1655 94.72 85.3271 94.7038 85.4888 94.6715C86.4911 95.1241 87.3641 96.1103 88.0754 97.1611ZM90.9208 197.119C96.4174 193.271 99.0687 186.498 101.364 180.451C103.66 174.405 105.277 168.116 106.247 161.73C108.203 148.716 107.605 135.379 104.371 122.623C102.739 116.157 100.411 109.868 97.4682 103.886C96.0456 100.993 94.4612 98.1634 92.7152 95.4475C92.2949 94.817 91.8746 94.1865 91.3896 93.5721C97.3389 92.6506 103.337 92.1656 109.351 92.1818C117.337 92.198 125.339 92.7153 133.309 93.0871C133.665 96.2073 133.956 99.3436 134.199 102.48C135.233 115.979 135.427 129.607 133.972 143.09C131.951 161.827 126.261 180.306 115.575 195.664C115.397 195.664 115.203 195.68 115.009 195.712C107.071 197.232 98.9555 197.685 90.9208 197.119ZM1492.37 248.933C1469.18 250.355 1445.86 250.307 1422.64 250.695C1373.51 251.536 1324.36 251.924 1275.22 252.101C1177.78 252.441 1080.36 252.085 982.927 251.956C788.573 251.713 594.089 253.605 399.767 250.064C291.742 248.092 183.684 243.097 76.3062 230.616C82.7728 228.757 88.9646 225.96 94.6229 222.403C116.884 208.436 130.545 184.832 136.122 159.596C139.259 145.354 140.132 130.674 139.744 116.124C139.356 102.593 138.062 89.0132 135.557 75.7242C133.132 62.9688 129.462 50.4074 123.933 38.6543C118.598 27.3216 111.242 15.8271 101.623 7.64686C100.766 6.91937 99.877 6.28887 98.9555 5.73921C141.668 3.76689 184.477 5.10871 227.059 8.76235C274.363 12.8202 321.375 19.6424 368.161 27.5641C414.785 35.4695 461.216 44.4743 507.711 53.0426C553.947 61.5785 600.264 69.6779 646.856 75.8859C693.691 82.11 740.833 86.3942 788.088 87.1055C793.859 87.2025 799.63 87.2348 805.402 87.2187C805.612 87.2187 805.822 87.1863 806 87.1378C806.178 87.1863 806.388 87.2187 806.598 87.2187C812.37 87.2348 818.141 87.2025 823.913 87.1055C871.167 86.3942 918.309 82.11 965.144 75.8859C1011.75 69.6779 1058.07 61.5785 1104.29 53.0426C1150.78 44.4743 1197.21 35.4695 1243.84 27.5641C1290.63 19.6424 1337.65 12.8202 1384.94 8.76235C1427.54 5.10871 1470.33 3.76689 1513.04 5.73921C1512.12 6.28887 1511.23 6.91937 1510.38 7.64686C1500.76 15.8271 1493.4 27.3216 1488.08 38.6543C1482.55 50.4074 1478.87 62.9688 1476.46 75.7242C1473.94 89.0132 1472.64 102.593 1472.27 116.124C1471.87 130.674 1472.74 145.354 1475.88 159.596C1481.46 184.832 1495.13 208.436 1517.38 222.403C1527.53 228.789 1539.4 232.815 1551.42 233.057C1533.69 244.18 1513.04 247.672 1492.37 248.933Z" fill="#1A171B"/>
<path d="M1542.13 140.536C1536.96 140.908 1531.75 140.649 1526.62 139.825C1523.78 139.356 1520.95 138.758 1518.15 138.063C1515.47 137.384 1512.79 136.656 1510.01 136.721C1510.88 128.654 1512.79 120.684 1515.7 113.134C1517.85 107.573 1520.56 102.092 1523.92 97.1614C1524.65 96.1106 1525.53 95.1244 1526.51 94.6718C1526.67 94.7041 1526.83 94.7203 1527 94.7526C1527.61 94.8981 1528.14 94.8011 1528.6 94.5586C1528.97 94.6879 1529.32 94.8658 1529.71 95.1568C1531.93 96.8704 1533.09 99.8127 1534.19 102.286C1539.54 114.298 1542.14 127.425 1542.13 140.536Z" fill="#99856D"/>
<path d="M1560.74 156.945C1558.57 168.795 1554.29 182.504 1544.8 190.587C1540.66 194.128 1535.1 196.133 1529.62 195.34C1523.25 194.435 1519.95 189.731 1517.41 184.25C1511.27 170.961 1508.76 156.153 1509.6 141.554C1512.54 141.393 1515.32 142.346 1518.17 143.009C1520.98 143.672 1523.81 144.238 1526.66 144.658C1532.49 145.531 1538.35 145.838 1544.21 145.208C1545.49 145.321 1546.91 144.561 1546.95 142.896C1547.12 135.573 1546.51 128.249 1545.1 121.071C1543.7 113.877 1541.45 106.893 1538.51 100.2C1536.34 95.3018 1532.48 88.1723 1526.01 89.692C1518.57 88.2208 1511.01 87.3963 1503.43 87.3801C1495.39 87.3478 1487.32 87.8651 1479.3 88.237C1480.26 81.0752 1481.55 73.9457 1483.28 66.9295C1486.16 55.3219 1490.23 43.9729 1496.13 33.5293C1499.01 28.4369 1502.31 23.5546 1506.08 19.0764C1507.98 16.8131 1509.99 14.6306 1512.11 12.5775C1514.21 10.5405 1516.7 8.40651 1519.8 8.43884C1524.99 8.50351 1528.76 13.9678 1531.05 17.9933C1534.38 23.8779 1536.91 30.3607 1539.33 36.6657C1544.46 50.0031 1548.48 63.7285 1552.18 77.5185C1559.04 103.078 1565.57 130.416 1560.74 156.945Z" fill="#D3C4AF"/>
<path d="M1507.63 122.624C1504.4 135.379 1503.8 148.716 1505.77 161.731C1506.72 168.116 1508.36 174.405 1510.64 180.451C1512.56 185.528 1514.76 191.073 1518.64 195.018C1510.12 194.322 1501.66 192.964 1493.32 190.911C1484.62 176.571 1479.87 159.936 1478.04 143.091C1476.57 129.608 1476.77 115.979 1477.8 102.48C1478.04 99.3438 1478.35 96.2075 1478.69 93.0874C1486.68 92.7155 1494.66 92.1982 1502.65 92.182C1508.68 92.1659 1514.68 92.6509 1520.61 93.5724C1520.14 94.1867 1519.71 94.8172 1519.3 95.4477C1517.54 98.1637 1515.97 100.993 1514.55 103.887C1511.59 109.868 1509.26 116.157 1507.63 122.624Z" fill="#BAA78E"/>
<path d="M133.972 143.091C131.952 161.828 126.261 180.306 115.575 195.664C115.397 195.664 115.203 195.68 115.009 195.713C107.071 197.232 98.9557 197.685 90.9209 197.119C96.4175 193.272 99.0688 186.498 101.364 180.451C103.66 174.405 105.277 168.116 106.247 161.731C108.203 148.716 107.605 135.379 104.371 122.624C102.739 116.157 100.411 109.868 97.4684 103.887C96.0457 100.993 94.4614 98.1637 92.7154 95.4477C92.2951 94.8172 91.8747 94.1867 91.3897 93.5724C97.339 92.6509 103.337 92.1659 109.351 92.182C117.337 92.1982 125.339 92.7155 133.31 93.0874C133.665 96.2075 133.956 99.3438 134.199 102.48C135.233 115.979 135.427 129.608 133.972 143.091Z" fill="#BAA78E"/>
<path d="M102.011 136.721C99.2305 136.656 96.5307 137.384 93.8471 138.063C91.0503 138.758 88.2211 139.356 85.3758 139.825C80.251 140.649 75.0454 140.908 69.8721 140.536C69.8721 127.425 72.4749 114.298 77.8099 102.286C78.9092 99.8127 80.0732 96.8704 82.3042 95.1568C82.676 94.8658 83.0478 94.6879 83.4035 94.5586C83.8561 94.8011 84.3896 94.8981 85.0201 94.7526C85.1656 94.7203 85.3273 94.7041 85.489 94.6718C86.4913 95.1244 87.3643 96.1106 88.0756 97.1614C91.4383 102.092 94.1542 107.573 96.3044 113.134C99.2305 120.684 101.122 128.654 102.011 136.721Z" fill="#99856D"/>
<path d="M66.8972 121.071C65.4907 128.249 64.8763 135.573 65.0542 142.896C65.1027 144.561 66.5092 145.321 67.7863 145.208C73.6548 145.838 79.5232 145.531 85.3432 144.658C88.2047 144.238 91.0338 143.672 93.8307 143.009C96.676 142.346 99.4566 141.393 102.399 141.554C103.256 156.153 100.734 170.961 94.5905 184.25C92.0523 189.731 88.7543 194.435 82.3847 195.34C76.9043 196.133 71.3591 194.128 67.2043 190.587C57.7307 182.504 53.4304 168.795 51.2641 156.945C46.4303 130.416 52.9616 103.078 59.8324 77.5185C63.5345 63.7285 67.5438 50.0031 72.6848 36.6657C75.1098 30.3607 77.6156 23.8779 80.9621 17.9933C83.2416 13.9678 87.0084 8.50351 92.214 8.43884C95.318 8.40651 97.7915 10.5405 99.8931 12.5775C102.011 14.6306 104.016 16.8131 105.923 19.0764C109.69 23.5546 112.988 28.4369 115.882 33.5293C121.766 43.9729 125.857 55.3219 128.718 66.9295C130.464 73.9457 131.757 81.0752 132.711 88.237C124.676 87.8651 116.625 87.3478 108.591 87.3801C100.992 87.3963 93.4265 88.2208 85.9899 89.692C79.5394 88.1723 75.6594 95.3018 73.5093 100.2C70.5508 106.893 68.3037 113.877 66.8972 121.071Z" fill="#D3C4AF"/>
</g>
<defs>
<clipPath id="clip0_7373_45">
<rect width="1612" height="257.048" fill="white"/>
</clipPath>
</defs>
</svg>
