<svg width="2397" height="256" preserveAspectRatio="none" viewBox="0 0 2397 256" fill="none" xmlns="http://www.w3.org/2000/svg">
<path d="M410.819 239.883C350.901 238.077 291.01 235.811 231.198 233.085C205.677 231.927 180.157 230.649 154.637 229.32C154.028 228.622 152.941 228.059 151.351 227.974C130.177 226.696 108.923 226.1 87.6699 226.151C91.433 224.635 95.0371 222.931 98.4822 221.125C107.969 216.167 116.874 210.698 125.778 205.314C143.613 194.512 160.838 183.029 173.983 169.654C180.502 163.044 185.855 155.973 189.698 148.562C227.885 174.697 269.544 199.947 321.565 213.986C352.359 222.301 385.432 225.861 418.16 229.422C453.167 233.239 488.228 236.919 523.288 240.565C531.901 241.451 540.54 242.337 549.153 243.223C503.015 242.388 456.904 241.281 410.793 239.9L410.819 239.883Z" fill="#D3C4AF"/>
<path d="M1161.93 247.619C1021.92 250.141 881.869 250.788 741.813 249.51C590.361 248.113 438.963 244.501 287.776 238.657C213.654 235.795 139.611 232.354 65.5947 228.418C82.2372 225.164 96.7065 217.82 109.824 210.682C124.638 202.623 138.048 193.525 149.946 183.694C159.381 175.891 167.834 167.627 175.361 159.023C175.705 158.904 175.97 158.768 176.235 158.614C176.235 158.614 176.262 158.614 176.262 158.58C176.765 158.274 177.083 157.865 177.242 157.422C177.242 157.405 177.269 157.371 177.269 157.354C177.348 157.132 177.375 156.911 177.375 156.689C188.001 144.149 196.588 130.894 203.054 117.23C214.502 93.0535 219.431 67.497 217.311 42.2642C216.569 33.4898 215.059 24.085 209.308 15.958C253.909 37.221 300.894 56.3203 349.497 73.6305C408.222 94.5358 469.068 112.902 530.761 129.855C593.7 147.131 657.408 163.436 721.884 178.157C787.897 193.218 855.156 206.354 923.952 215.043C923.952 215.026 923.978 215.009 924.005 214.992C997.2 226.953 1070.55 238.879 1145.31 246.103C1150.85 246.631 1156.39 247.142 1161.93 247.619Z" fill="#EFE2CB"/>
<path d="M641.535 252.646C625.687 251.027 609.84 249.426 593.993 247.807C593.41 248.523 592.297 249.034 590.627 249.017C556.812 248.523 522.997 247.875 489.182 247.092C429.238 245.695 369.32 243.837 309.455 241.52C249.59 239.186 189.751 236.409 129.992 233.155C128.482 233.07 127.422 232.576 126.786 231.928C106.407 231.195 85.9745 231.076 65.569 231.553C61.1434 231.673 60.0568 226.987 64.5089 226.544C77.8918 225.215 88.7306 219.968 98.6418 214.345C132.748 195.042 169.876 173.455 183.338 144.576C183.391 144.474 183.471 144.406 183.524 144.303C182.755 143.775 181.986 143.247 181.218 142.719C177.746 140.299 183.365 136.687 186.836 139.107C209.627 154.935 233.106 170.473 259.421 183.916C282.822 195.842 308.713 205.963 336.962 212.335C368.657 219.491 402.207 222.557 435.201 226.118C504.606 233.598 574.117 240.651 643.628 247.722C648.69 248.233 646.517 253.157 641.535 252.646Z" fill="#D3C4AF"/>
<path d="M2331.38 228.418C2257.39 232.354 2183.32 235.795 2109.19 238.657C1958.01 244.501 1806.61 248.113 1655.16 249.51C1515.13 250.788 1375.05 250.141 1235.04 247.619C1240.61 247.142 1246.15 246.631 1251.69 246.103C1326.42 238.879 1399.8 226.953 1472.99 214.992C1472.99 215.009 1473.02 215.026 1473.05 215.043C1541.82 206.354 1609.1 193.218 1675.09 178.157C1739.59 163.436 1803.3 147.131 1866.21 129.855C1927.93 112.902 1988.78 94.5358 2047.5 73.6305C2096.08 56.3203 2143.09 37.221 2187.69 15.958C2181.94 24.085 2180.4 33.4898 2179.66 42.2642C2177.54 67.497 2182.47 93.0535 2193.94 117.23C2205.29 141.202 2223.09 163.879 2247.02 183.694C2258.92 193.525 2272.36 202.623 2287.15 210.682C2300.26 217.82 2314.73 225.164 2331.38 228.418Z" fill="#EFE2CB"/>
<path d="M1208.91 245.898C1205.44 245.694 1202 245.489 1198.53 245.268H1198.5C1126.74 240.685 1056.08 230.803 986.149 219.763C967.758 216.849 949.393 213.868 931.054 210.869L931.293 210.767C929.888 210.596 928.484 210.392 927.079 210.221C925.966 210.034 924.827 209.847 923.687 209.676C923.21 209.591 922.76 209.574 922.336 209.608C863.637 202.043 805.971 191.31 749.339 178.889C684.413 164.663 620.44 148.494 557.156 131.507C495.781 115.032 435.174 97.3128 376.422 77.2084C318.173 57.2743 261.727 35.0061 208.937 9.50066C206.976 8.56358 205.068 7.5754 203.134 6.63833C196.323 4.1849 189.512 1.74852 181.801 0.351427C173.082 -0.687872 164.072 0.658105 156.28 3.33302C137.836 9.67103 126.07 22.4663 120.531 35.0572C114.065 49.7266 115.549 65.1798 119.762 80.0196C120.875 83.9553 122.174 87.8569 123.579 91.7585C124.162 93.326 127.315 94.1438 129.435 93.2749C152.12 84.1086 179.628 80.2752 206.155 82.8649C206.34 82.8819 206.499 82.8819 206.658 82.8819C204.644 92.1163 201.756 101.283 197.913 110.296C188.214 132.905 172.737 154.474 151.696 173.659C141.175 183.217 129.25 192.145 116.052 200.22C109.454 204.258 102.537 208.109 95.3023 211.704C87.2196 215.708 78.6864 219.626 69.2522 222.216C64.7205 223.477 59.8974 224.38 54.9948 224.772C54.6238 224.755 54.1998 224.755 53.7758 224.806C37.9284 226.714 22.9025 220.512 15.1908 211.908C11.2952 207.564 8.77761 202.52 8.08859 197.528C7.34657 192.076 10.7122 187.766 17.4963 184.512C21.5509 182.569 17.6023 178.14 13.4947 180.099C5.33252 184.018 -0.206124 189.265 0.00588164 196.012C0.217887 202.163 3.21246 208.518 7.79708 213.885C12.4082 219.286 19.2984 223.749 27.4341 226.629C27.7521 226.663 28.0701 226.731 28.3881 226.816C36.4443 229.253 44.7655 231.076 53.4048 232.439C55.0478 232.694 56.6908 232.933 58.3074 233.154C201.729 240.838 345.416 246.563 489.235 250.226C640.554 254.093 792.058 255.746 943.51 255.15C1028.52 254.826 1113.51 253.787 1198.47 252.066H1198.53C1200.25 251.998 1201.36 251.384 1201.92 250.584C1204.25 250.72 1206.58 250.873 1208.91 251.01C1214 251.299 1213.98 246.188 1208.91 245.898ZM130.098 87.0732C121.644 62.0619 118.093 31.5815 149.814 12.5845C156.81 8.39321 166.033 5.01975 175.811 5.03679C183.682 5.05382 190.625 7.52429 195.66 11.3237C205.943 19.144 208.222 30.4911 209.176 40.3388C210.421 52.8615 209.838 65.4353 207.612 77.8728C180.953 75.3683 153.524 78.5373 130.098 87.0732ZM741.813 249.51C590.362 248.113 438.963 244.501 287.777 238.657C213.654 235.795 139.611 232.353 65.5951 228.418C82.2375 225.164 96.7069 217.82 109.825 210.682C124.639 202.623 138.048 193.525 149.947 183.694C159.381 175.891 167.835 167.627 175.361 159.023C175.705 158.904 175.97 158.768 176.235 158.614C176.235 158.614 176.262 158.614 176.262 158.58C176.765 158.274 177.083 157.865 177.242 157.422C177.242 157.405 177.269 157.371 177.269 157.354C177.348 157.132 177.375 156.911 177.375 156.689C188.002 144.149 196.588 130.894 203.054 117.23C214.502 93.0534 219.432 67.4969 217.311 42.2641C216.569 33.4897 215.059 24.0849 209.308 15.9579C253.909 37.221 300.895 56.3202 349.497 73.6305C408.222 94.5357 469.068 112.902 530.762 129.855C593.701 147.131 657.408 163.436 721.884 178.157C787.898 193.218 855.156 206.354 923.952 215.043C923.952 215.026 923.979 215.009 924.005 214.992C997.2 226.952 1070.55 238.879 1145.31 246.103C1150.85 246.631 1156.39 247.142 1161.93 247.619C1021.93 250.141 881.869 250.788 741.813 249.51Z" fill="black"/>
<path d="M207.612 77.8732C180.953 75.3687 153.524 78.5377 130.098 87.0736C121.644 62.0623 118.093 31.5819 149.814 12.5849C156.811 8.3936 166.033 5.02014 175.812 5.03717C183.682 5.05421 190.625 7.52467 195.661 11.3241C205.943 19.1444 208.222 30.4915 209.176 40.3392C210.421 52.8619 209.838 65.4357 207.612 77.8732Z" fill="#D3C4AF"/>
<path d="M2331.75 226.306C2318.37 224.977 2307.53 219.712 2297.62 214.107C2263.51 194.803 2226.38 173.217 2212.89 144.338C2212.87 144.235 2212.79 144.15 2212.73 144.065C2213.5 143.537 2214.27 143.009 2215.04 142.481C2218.51 140.061 2212.89 136.449 2209.39 138.869C2186.63 154.697 2163.15 170.235 2136.84 183.661C2113.44 195.604 2087.54 205.724 2059.29 212.096C2027.6 219.252 1994.05 222.319 1961.06 225.88C1891.65 233.36 1822.14 240.413 1752.63 247.467C1747.57 247.978 1749.71 252.902 1754.72 252.408C1770.57 250.789 1786.42 249.188 1802.26 247.569C1802.85 248.285 1803.96 248.796 1805.6 248.779C1839.44 248.285 1873.26 247.637 1907.07 246.853C1967.02 245.456 2026.94 243.599 2086.8 241.282C2146.67 238.948 2206.51 236.171 2266.26 232.917C2267.78 232.831 2268.84 232.337 2269.47 231.69C2289.85 230.957 2310.28 230.821 2330.69 231.315C2335.11 231.434 2336.2 226.732 2331.75 226.306Z" fill="#D3C4AF"/>
<path d="M2383.5 180.099C2379.4 178.14 2375.42 182.569 2379.48 184.512C2386.26 187.766 2389.65 192.076 2388.88 197.528C2388.22 202.52 2385.68 207.564 2381.81 211.908C2374.1 220.512 2359.04 226.714 2343.22 224.806C2342.77 224.755 2342.37 224.755 2341.98 224.772C2337.07 224.38 2332.25 223.477 2327.72 222.216C2318.29 219.626 2309.75 215.708 2301.67 211.704C2294.46 208.109 2287.52 204.258 2280.92 200.22C2267.75 192.145 2255.8 183.217 2245.3 173.659C2224.23 154.474 2208.76 132.905 2199.09 110.296C2195.22 101.283 2192.33 92.1163 2190.34 82.8819C2190.5 82.8819 2190.66 82.8819 2190.82 82.8649C2217.37 80.2752 2244.88 84.1086 2267.56 93.2749C2269.66 94.1438 2272.84 93.326 2273.39 91.7585C2274.8 87.8569 2276.12 83.9553 2277.24 80.0196C2281.42 65.1798 2282.91 49.7266 2276.47 35.0572C2270.9 22.4663 2259.14 9.67103 2240.72 3.33302C2232.93 0.658105 2223.89 -0.687872 2215.2 0.351427C2207.46 1.74852 2200.65 4.1849 2193.86 6.63833C2191.9 7.5754 2190 8.56358 2188.06 9.50066C2135.24 35.0061 2078.83 57.2743 2020.55 77.2084C1961.82 97.3128 1901.22 115.032 1839.84 131.507C1776.53 148.494 1712.59 164.663 1647.66 178.889C1591.03 191.31 1533.36 202.043 1474.66 209.608C1474.21 209.574 1473.76 209.591 1473.28 209.676C1472.14 209.847 1471.03 210.034 1469.89 210.221C1468.49 210.392 1467.08 210.596 1465.68 210.767C1465.78 210.801 1465.86 210.835 1465.94 210.869C1447.58 213.868 1429.21 216.849 1410.82 219.763C1340.89 230.803 1270.26 240.685 1198.53 245.268H1198.5C1195.03 245.489 1191.56 245.694 1188.08 245.898C1183.02 246.188 1183 251.299 1188.08 251.01C1190.42 250.873 1192.75 250.72 1195.08 250.584C1195.61 251.384 1196.72 251.998 1198.47 252.066H1198.53C1283.49 253.787 1368.47 254.826 1453.49 255.15C1604.94 255.746 1756.42 254.093 1907.76 250.226C2052.77 246.529 2197.65 240.753 2342.27 232.967C2345.26 232.609 2348.26 232.302 2351.25 231.876C2354.62 231.399 2358.41 230.633 2361.48 229.593C2363.39 228.946 2364.93 228.179 2366.73 227.634C2366.73 227.634 2366.73 227.6 2366.68 227.583C2376.08 224.789 2384.06 219.916 2389.2 213.885C2393.79 208.518 2396.81 202.163 2396.99 196.012C2397.23 189.265 2391.69 184.018 2383.53 180.099H2383.5ZM2201.34 11.3237C2206.35 7.52429 2213.29 5.05382 2221.16 5.03679C2230.94 5.01975 2240.19 8.39321 2247.18 12.5845C2278.91 31.5815 2275.33 62.0619 2266.87 87.0732C2243.45 78.5373 2216.05 75.3683 2189.36 77.8728C2187.13 65.4353 2186.55 52.8615 2187.8 40.3388C2188.78 30.4911 2191.03 19.144 2201.34 11.3237ZM2109.19 238.657C1958.01 244.501 1806.61 248.113 1655.16 249.51C1515.13 250.788 1375.05 250.141 1235.04 247.619C1240.61 247.142 1246.15 246.631 1251.69 246.103C1326.42 238.879 1399.8 226.952 1472.99 214.992C1472.99 215.009 1473.02 215.026 1473.05 215.043C1541.82 206.354 1609.1 193.218 1675.09 178.157C1739.59 163.436 1803.3 147.131 1866.21 129.855C1927.93 112.902 1988.78 94.5357 2047.5 73.6305C2096.08 56.3202 2143.09 37.221 2187.69 15.9579C2181.94 24.0849 2180.4 33.4897 2179.66 42.2641C2177.54 67.4969 2182.47 93.0534 2193.94 117.23C2205.29 141.202 2223.09 163.879 2247.02 183.694C2258.92 193.525 2272.36 202.623 2287.15 210.682C2300.26 217.82 2314.73 225.164 2331.38 228.418C2257.39 232.353 2183.32 235.795 2109.19 238.657Z" fill="black"/>
<path d="M2266.87 87.0736C2243.45 78.5377 2216.05 75.3687 2189.36 77.8732C2187.13 65.4357 2186.55 52.8619 2187.8 40.3392C2188.78 30.4915 2191.03 19.1444 2201.34 11.3241C2206.35 7.52467 2213.29 5.05421 2221.16 5.03717C2230.94 5.02014 2240.19 8.3936 2247.18 12.5849C2278.91 31.5819 2275.33 62.0623 2266.87 87.0736Z" fill="#D3C4AF"/>
</svg>
