<svg width="1612" height="258" viewBox="0 0 1612 258" fill="none" xmlns="http://www.w3.org/2000/svg">
<g clip-path="url(#clip0_7374_114)">
<path d="M123.221 60.4137C145.628 73.4601 170.12 82.7074 195.308 88.786C224.278 95.77 253.96 98.4536 283.69 99.0841C316.234 99.7631 348.809 99.3751 381.353 99.4074C414.041 99.4398 446.73 99.4721 479.419 99.5206L577.469 99.6176C580.638 99.6176 583.806 99.6337 586.975 99.6337C587.024 99.6337 587.056 99.6661 587.121 99.6661C587.492 99.6499 587.864 99.6337 588.236 99.6337L589.723 99.6337C589.723 99.6337 589.869 99.6014 589.934 99.6014C706.284 97.0147 822.619 94.2017 938.953 91.1463C1055.63 88.0908 1172.29 84.8089 1288.96 81.2846C1353.66 79.3285 1418.37 77.3076 1483.07 75.206C1476.49 91.5342 1470.54 108.186 1470.15 125.985C1469.7 146.048 1474.84 165.706 1476.72 185.575C1477.22 190.942 1477.75 196.294 1479.18 201.515C1479.87 204.07 1480.73 206.575 1481.75 209.017C1420.91 163.459 1344.07 147.697 1270.09 137.431C1178.11 124.676 1085.42 116.463 992.675 112.195C898.424 107.862 803.995 107.798 709.744 111.969C616.237 116.124 522.907 124.466 430.143 136.979C383.179 143.316 336.345 150.704 289.721 159.175C245.036 167.291 199.447 174.808 156.249 189.164C148.603 191.718 141.053 194.531 133.616 197.619C137.108 190.555 138.434 182.649 139.549 174.873C141.053 164.381 142.589 153.84 142.556 143.235C142.524 132.808 141.457 122.283 140.358 111.937C139.291 101.929 137.722 91.9062 134.538 82.3517C131.919 74.4786 128.233 66.9935 123.221 60.4137Z" fill="#D3C4AF"/>
<path d="M806 174.582C808.312 174.065 808.295 170.443 806 169.91C803.688 170.443 803.688 174.065 806 174.582Z" fill="#1A171B"/>
<path d="M60.5755 23.9912C78.3102 12.8686 98.955 9.37663 119.632 8.11563C142.815 6.69297 166.143 6.74145 189.358 6.35345C238.489 5.51279 287.635 5.12479 336.781 4.94696C434.217 4.60745 531.637 4.9631 629.073 5.09243C823.427 5.33491 1017.91 3.44342 1212.23 6.98388C1320.26 8.9562 1428.32 13.9517 1535.69 26.4322C1529.23 28.2914 1523.03 31.0882 1517.38 34.6448C1495.12 48.6127 1481.45 72.2159 1475.88 97.4519C1472.74 111.695 1471.87 126.374 1472.26 140.924C1472.64 154.455 1473.94 168.035 1476.44 181.324C1478.87 194.079 1482.54 206.641 1488.07 218.394C1493.4 229.727 1500.76 241.221 1510.38 249.401C1511.23 250.129 1512.12 250.759 1513.04 251.309C1470.33 253.281 1427.52 251.94 1384.94 248.286C1337.64 244.228 1290.62 237.406 1243.84 229.484C1197.21 221.579 1150.78 212.574 1104.29 204.006C1058.05 195.47 1011.74 187.37 965.143 181.162C918.309 174.938 871.167 170.654 823.912 169.943C818.141 169.846 812.369 169.814 806.598 169.83C806.387 169.83 806.177 169.862 805.999 169.911C805.822 169.862 805.612 169.83 805.401 169.83C799.63 169.814 793.858 169.846 788.087 169.943C740.832 170.654 693.69 174.938 646.856 181.162C600.248 187.37 553.93 195.47 507.71 204.006C461.215 212.574 414.785 221.579 368.161 229.484C321.374 237.406 274.346 244.228 227.059 248.286C184.46 251.94 141.667 253.282 98.955 251.309C99.8765 250.76 100.766 250.129 101.622 249.402C111.242 241.221 118.597 229.727 123.916 218.394C129.445 206.641 133.131 194.08 135.54 181.324C138.062 168.035 139.355 154.455 139.727 140.924C140.131 126.374 139.258 111.695 136.122 97.452C130.544 72.216 116.867 48.6129 94.6223 34.6449C84.4697 28.2592 72.6034 24.2337 60.5755 23.9912Z" fill="#EFE2CB"/>
<path d="M135.67 85.2457C136.203 86.8623 136.753 88.4467 137.287 90.0633C137.755 91.5345 138.014 92.9571 137.804 94.4768C140.374 108.299 141.603 122.316 141.862 136.364C142.12 150.041 142.007 164.025 139.518 177.524C138.273 184.314 136.236 190.926 133.18 197.118C176.798 194.823 220.221 189.488 263.062 181.033C306.971 172.351 349.715 159.935 392.152 145.886C413.606 138.773 435.075 131.628 456.916 125.759C478.789 119.874 501.002 115.364 523.296 111.306C567.883 103.158 612.681 95.4467 657.785 90.7746C696.019 86.7976 734.657 85.2456 773.004 88.3334C786.018 88.2526 799.049 88.3011 812.047 88.4466C819.128 88.5274 826.208 88.6891 833.273 88.8508C873.576 85.0678 914.268 86.5874 954.49 90.7584C999.595 95.4305 1044.39 103.142 1088.98 111.29C1111.27 115.348 1133.49 119.858 1155.36 125.743C1177.2 131.611 1198.67 138.757 1220.12 145.87C1262.56 159.919 1305.3 172.335 1349.21 181.016C1392.05 189.471 1435.48 194.806 1479.09 197.102C1476.04 190.91 1474 184.298 1472.76 177.508C1470.27 164.009 1470.15 150.025 1470.41 136.348C1470.67 122.299 1471.9 108.283 1474.47 94.4605C1474.26 92.9408 1474.52 91.5182 1474.99 90.047C1475.52 88.4304 1476.07 86.8461 1476.61 85.2294C1477.56 82.3679 1478.51 79.5064 1479.47 76.645C1475 75.869 1470.53 75.1253 1466.05 74.4301C1422.04 67.6887 1377.41 65.5547 1332.92 66.0074C1288.52 66.46 1244.19 69.4994 1199.98 73.25C1154.87 77.0815 1109.8 81.7375 1064.54 83.4188C1042.05 84.2594 1019.53 84.3564 997.057 83.2409C974.941 82.1255 952.97 79.5227 931.016 76.7582C923.757 75.8367 916.483 74.9152 909.191 74.0422C904.81 73.9452 900.445 73.8482 896.064 73.7512C878.992 73.3632 861.953 72.7004 844.865 72.668C827.841 72.6357 810.802 72.9105 793.778 72.9429C768.074 72.9914 742.385 72.7327 716.68 72.5064C704.83 73.7512 692.996 75.2547 681.243 76.742C659.289 79.5065 637.334 82.1093 615.202 83.2248C592.731 84.3403 570.211 84.2433 547.723 83.4027C502.457 81.7213 457.385 77.0654 412.28 73.2339C368.064 69.4833 323.736 66.444 279.342 65.9913C234.852 65.5386 190.216 67.6726 146.211 74.4141C141.732 75.1092 137.254 75.8529 132.792 76.6289C133.746 79.4904 134.7 82.3519 135.654 85.2133L135.67 85.2457Z" fill="#D3C4AF"/>
<path d="M1220.14 145.886C1198.69 138.773 1177.22 131.628 1155.38 125.759C1133.5 119.874 1111.29 115.364 1089 111.306C1044.41 103.158 999.611 95.4468 954.506 90.7747C914.284 86.5876 873.593 85.0841 833.29 88.8671C838.301 88.9802 843.329 89.0934 848.341 89.1581C853.465 89.2227 858.639 89.3844 863.78 89.7724C868.322 89.7239 872.849 89.6916 877.392 89.6916C877.925 89.6916 878.394 89.7886 878.815 89.9664C899.217 89.8694 919.619 90.8555 939.94 92.6177C985.546 96.5785 1030.75 104.241 1075.79 112.212C1097.87 116.108 1119.94 120.263 1141.73 125.597C1163.72 130.965 1185.28 137.787 1206.77 144.852C1249.29 158.868 1291.74 172.222 1335.6 181.534C1378.62 190.668 1422.3 196.714 1466.19 199.624C1471.84 199.996 1477.46 200.303 1483.1 200.578C1485.21 200.675 1485.21 197.442 1483.1 197.345C1483.01 197.345 1482.91 197.345 1482.81 197.345C1482.78 197.248 1482.78 197.167 1482.73 197.07C1476.57 185.446 1474.71 172.286 1474.05 159.321C1473.34 145.563 1473.47 131.725 1474.62 117.983C1475.28 109.932 1476.36 101.93 1477.88 93.9918C1477.98 93.523 1477.87 93.135 1477.66 92.8117C1477.79 91.8255 1478.21 90.8393 1478.5 89.934C1479 88.4305 1479.5 86.9432 1480 85.4397C1480.92 82.6914 1481.84 79.9431 1482.75 77.1948C1484.56 77.1786 1485.25 74.4303 1483.3 74.0746C1439.62 66.2662 1395.24 63.049 1350.88 62.7742C1306.03 62.4832 1261.25 65.1022 1216.57 68.6912C1171.53 72.2963 1126.57 77.0978 1081.43 79.4581C1037.93 81.7376 994.696 80.9616 951.435 76.047C942.64 75.9823 933.878 74.7051 925.083 74.4627C919.797 74.3172 914.494 74.1878 909.208 74.0747C916.499 74.9477 923.774 75.8691 931.033 76.7906C952.987 79.5551 974.957 82.1579 997.073 83.2734C1019.54 84.3889 1042.06 84.2919 1064.55 83.4513C1109.82 81.7699 1154.89 77.114 1200 73.2825C1244.21 69.5318 1288.54 66.4925 1332.93 66.0398C1377.42 65.5872 1422.06 67.7212 1466.06 74.4626C1470.54 75.1578 1475.02 75.9014 1479.48 76.6774C1478.53 79.5389 1477.58 82.4004 1476.62 85.2619C1476.09 86.8785 1475.54 88.4628 1475 90.0795C1474.54 91.5507 1474.28 92.9733 1474.49 94.493C1471.92 108.315 1470.69 122.332 1470.43 136.381C1470.17 150.057 1470.28 164.042 1472.77 177.541C1474.02 184.331 1476.06 190.943 1479.11 197.134C1435.49 194.839 1392.07 189.504 1349.23 181.049C1305.32 172.367 1262.58 159.951 1220.14 145.903L1220.14 145.886Z" fill="#D3C4AF"/>
<path d="M129.542 77.1792C130.448 79.9275 131.369 82.6758 132.291 85.4241C132.792 86.9276 133.293 88.4149 133.794 89.9184C134.085 90.8238 134.505 91.8099 134.635 92.7961C134.425 93.1194 134.312 93.5074 134.409 93.9762C135.928 101.914 137.011 109.916 137.674 117.967C138.838 131.709 138.968 145.548 138.256 159.305C137.577 172.271 135.718 185.43 129.559 197.054C129.51 197.151 129.51 197.232 129.494 197.329C129.381 197.329 129.284 197.329 129.187 197.329C127.085 197.426 127.085 200.659 129.187 200.562C134.829 200.288 140.455 199.98 146.097 199.609C189.989 196.699 233.671 190.652 276.69 181.518C320.55 172.206 363.02 158.853 405.522 144.836C427.007 137.771 448.573 130.949 470.56 125.582C492.352 120.247 514.42 116.092 536.503 112.196C581.543 104.226 626.745 96.5628 672.351 92.602C687.741 91.2764 703.18 90.4034 718.62 90.0962C724.343 89.498 730.082 89.0939 735.837 88.9322C748.22 88.5927 760.604 88.4149 773.004 88.334C734.657 85.2301 696.019 86.7982 657.785 90.7752C612.68 95.4474 567.883 103.159 523.295 111.307C501.001 115.365 478.789 119.875 456.915 125.76C435.074 131.628 413.605 138.774 392.152 145.887C349.715 159.936 306.97 172.352 263.062 181.033C220.221 189.488 176.797 194.823 133.18 197.119C136.235 190.927 138.272 184.315 139.517 177.525C142.007 164.026 142.12 150.042 141.861 136.365C141.603 122.316 140.374 108.3 137.804 94.4774C138.014 92.9577 137.755 91.5351 137.286 90.0639C136.753 88.4473 136.203 86.863 135.67 85.2463C134.716 82.3848 133.762 79.5233 132.808 76.6618C137.27 75.8858 141.748 75.1422 146.226 74.447C190.232 67.7056 234.868 65.5716 279.358 66.0242C323.751 66.4769 368.08 69.5162 412.296 73.2668C457.4 77.0983 502.473 81.7543 547.739 83.4356C570.227 84.2763 592.747 84.3733 615.218 83.2578C637.35 82.1423 659.304 79.5394 681.259 76.775C693.012 75.2876 704.846 73.7842 716.696 72.5393C716.227 72.5393 715.758 72.5393 715.289 72.5393C712.218 72.6202 709.146 72.701 706.074 72.8303C699.446 73.1213 692.818 73.5416 686.189 74.1075C679.529 74.6733 672.9 75.5463 666.224 75.999C663.346 76.193 660.485 76.3223 657.607 76.4031C615.428 80.9944 573.282 81.6734 530.861 79.4425C485.724 77.0821 440.765 72.2807 395.725 68.6755C351.057 65.0866 306.259 62.4676 261.413 62.7586C217.052 63.0334 172.675 66.2506 128.993 74.059C127.037 74.4147 127.732 77.163 129.542 77.1792Z" fill="#D3C4AF"/>
<path d="M4.81748 120.748C5.05998 114.621 5.72283 108.526 6.85448 102.496C11.462 78.1164 23.1827 54.2061 40.9013 36.6653C45.8321 31.7992 51.361 29.0347 58.3449 28.8084C64.1002 28.6306 69.8718 29.5359 75.3846 31.1526C86.103 34.2727 95.8352 40.2867 103.967 47.9011C108.041 51.7164 111.63 55.8874 114.815 60.317C103.482 57.9082 91.923 56.6795 80.3477 56.6795C80.1052 56.6795 79.8788 56.7119 79.6686 56.7604C77.664 56.7927 75.6594 57.0676 73.7679 57.5849C67.6569 59.25 62.6614 63.4048 58.8623 68.368C50.5527 79.2319 46.8506 93.6686 45.4602 107.055C43.9729 121.443 45.4441 136.009 48.0308 150.187C50.7144 164.85 54.5944 179.303 58.733 193.594C63.0172 208.354 67.9641 222.953 74.4792 236.872C75.4007 238.844 76.4192 240.833 77.567 242.741C78.3753 244.971 79.3776 247.154 80.574 249.207C81.156 250.193 81.7703 251.147 82.4332 252.069C83.1283 253.006 83.7912 253.928 84.7935 254.477C85.1654 255.011 85.7473 255.399 86.5718 255.464C92.3433 255.819 98.0986 256.11 103.854 256.353C150.915 258.277 198.056 256.126 244.875 251.438C291.483 246.782 337.8 239.653 383.923 231.634C430.515 223.518 476.946 214.465 523.473 205.978C570.372 197.442 617.385 189.472 664.704 183.7C711.377 178.01 758.357 174.501 805.402 174.647C805.612 174.647 805.822 174.631 806 174.582C806.178 174.631 806.388 174.647 806.598 174.647C853.643 174.501 900.607 178.01 947.296 183.7C994.615 189.472 1041.63 197.442 1088.51 205.978C1135.04 214.465 1181.47 223.518 1228.08 231.634C1274.2 239.653 1320.52 246.782 1367.11 251.438C1413.94 256.126 1461.09 258.276 1508.13 256.353C1513.9 256.11 1519.66 255.819 1525.41 255.463C1526.24 255.399 1526.82 255.011 1527.21 254.477C1528.19 253.928 1528.87 253.006 1529.55 252.068C1530.21 251.147 1530.84 250.193 1531.43 249.207C1532.62 247.154 1533.61 244.971 1534.43 242.74C1535.58 240.833 1536.58 238.844 1537.5 236.872C1544.02 222.953 1548.98 208.354 1553.25 193.594C1557.41 179.303 1561.29 164.85 1563.97 150.187C1566.56 136.009 1568.03 121.443 1566.54 107.054C1565.15 93.6685 1561.43 79.2318 1553.12 68.3678C1549.34 63.4047 1544.33 59.2499 1538.22 57.5848C1536.65 57.1644 1535 56.9058 1533.35 56.8088C1533.17 56.7279 1532.98 56.6471 1532.77 56.6148C1522.11 54.6101 1511.28 54.3838 1500.6 55.8873C1502.89 53.0905 1505.35 50.423 1508.03 47.901C1516.15 40.2865 1525.9 34.2726 1536.62 31.1524C1542.13 29.5358 1547.9 28.6305 1553.64 28.8083C1560.64 29.0346 1566.17 31.7991 1571.08 36.6652C1588.82 54.2059 1600.54 78.1163 1605.15 102.495C1606.28 108.526 1606.94 114.62 1607.18 120.748C1607.31 123.835 1612.11 123.851 1612 120.748C1610.92 93.62 1601.39 66.9452 1584.92 45.3467C1580.86 40.0279 1576.48 34.5636 1571.26 30.3441C1565.63 25.8013 1559.07 23.9098 1551.88 23.9745C1550.66 23.9906 1549.53 24.0391 1548.4 24.1038C1547.04 23.9906 1545.68 23.829 1544.34 23.5703C1543.49 23.4086 1542.69 23.1015 1541.87 22.8266C1541.17 22.6003 1540.46 22.4225 1539.74 22.2608C1539.44 22.1315 1539.12 22.0183 1538.78 21.9698C1442.02 10.5886 1344.67 5.33444 1247.31 2.92563C1149.67 0.516822 1051.96 0.823988 954.296 0.694664C855.243 0.56534 756.207 0.436032 657.154 0.306708C558.716 0.177384 460.278 -0.129787 361.84 0.0642206C312.71 0.161224 263.563 0.452248 214.417 1.14741C189.844 1.50308 165.287 1.93957 140.714 2.52156C120.974 2.9904 100.798 3.55623 81.7056 9.21452C72.6524 11.8982 64.1164 15.7943 56.2433 21.0485C56.017 21.194 55.8392 21.3718 55.6937 21.5496C54.2549 22.6974 52.8483 23.8291 51.1832 24.7021C50.2778 25.1871 49.324 25.5266 48.3864 25.9307C48.2409 25.9954 48.0953 26.0601 47.9498 26.1409C45.4117 27.1432 43.0029 28.5336 40.7396 30.3604C35.5178 34.5799 31.1529 40.0442 27.095 45.363C10.6052 66.9615 1.09922 93.6363 0.0160625 120.764C-0.11327 123.868 4.70433 123.852 4.83367 120.764L4.81748 120.748ZM118.679 66.137C127.376 80.4767 132.129 97.1121 133.956 113.958C135.427 127.441 135.233 141.069 134.199 154.568C133.956 157.704 133.649 160.841 133.309 163.961C125.323 164.333 117.337 164.85 109.351 164.866C103.32 164.882 97.3225 164.397 91.3894 163.476C91.8582 162.862 92.2947 162.231 92.6989 161.601C94.461 158.885 96.0292 156.055 97.4519 153.162C100.41 147.18 102.738 140.891 104.371 134.425C107.605 121.669 108.203 108.332 106.23 95.3176C105.277 88.9318 103.644 82.643 101.364 76.5967C99.4404 71.5204 97.2417 65.9753 93.3618 62.0307C101.882 62.7258 110.337 64.0838 118.679 66.137ZM88.0753 159.887C87.3478 160.938 86.4748 161.924 85.4887 162.377C85.327 162.344 85.1654 162.328 85.0037 162.296C84.3894 162.15 83.8558 162.247 83.4031 162.49C83.0313 162.36 82.6757 162.183 82.2877 161.892C80.0729 160.178 78.9089 157.236 77.8095 154.762C72.4584 142.75 69.8555 129.623 69.8717 116.512C75.045 116.14 80.2507 116.399 85.3755 117.223C88.2208 117.692 91.0499 118.29 93.8467 118.985C96.5304 119.664 99.214 120.392 101.995 120.327C101.122 128.394 99.2141 136.365 96.3041 143.914C94.1539 149.476 91.4379 154.956 88.0753 159.887ZM80.9459 239.038C77.6156 233.154 75.0936 226.671 72.6686 220.366C67.5438 207.029 63.5183 193.303 59.8162 179.513C52.9615 153.954 46.4303 126.616 51.2641 100.087C53.4304 88.2367 57.7145 74.5274 67.2043 66.4442C71.3429 62.9037 76.9042 60.899 82.3847 61.6912C88.7543 62.5965 92.0523 67.301 94.5904 72.7814C100.734 86.0704 103.239 100.879 102.399 115.477C99.4565 115.639 96.6759 114.685 93.8306 114.022C91.0176 113.36 88.1884 112.794 85.3431 112.373C79.507 111.5 73.6547 111.193 67.7863 111.824C66.5091 111.711 65.0864 112.47 65.0541 114.136C64.8763 121.459 65.4906 128.782 66.8971 135.96C68.3036 143.154 70.5508 150.138 73.4931 156.831C75.6594 161.73 79.5232 168.859 85.9898 167.34C93.4264 168.811 100.992 169.635 108.574 169.651C116.609 169.684 124.676 169.166 132.695 168.795C131.741 175.956 130.448 183.086 128.718 190.102C125.84 201.71 121.766 213.059 115.866 223.502C112.988 228.595 109.69 233.477 105.923 237.955C104.016 240.219 102.011 242.401 99.893 244.454C97.7914 246.491 95.3017 248.625 92.1977 248.593C87.0083 248.528 83.2415 243.064 80.9459 239.038ZM1529.62 61.7072C1535.1 60.9151 1540.64 62.9197 1544.8 66.4602C1554.27 74.5435 1558.57 88.2527 1560.74 100.103C1565.57 126.632 1559.04 153.97 1552.17 179.529C1548.47 193.319 1544.46 207.045 1539.32 220.382C1536.89 226.687 1534.38 233.17 1531.04 239.054C1528.76 243.08 1524.99 248.544 1519.79 248.609C1516.68 248.641 1514.21 246.507 1512.11 244.47C1509.99 242.417 1507.98 240.235 1506.08 237.971C1502.31 233.493 1499.01 228.611 1496.12 223.518C1490.23 213.075 1486.14 201.726 1483.28 190.118C1481.54 183.102 1480.24 175.972 1479.29 168.811C1487.32 169.183 1495.37 169.7 1503.41 169.668C1511.01 169.651 1518.57 168.827 1526.01 167.356C1532.46 168.875 1536.34 161.746 1538.49 156.847C1541.45 150.154 1543.7 143.171 1545.1 135.976C1546.51 128.798 1547.12 121.475 1546.95 114.152C1546.9 112.486 1545.49 111.727 1544.21 111.84C1538.35 111.209 1532.48 111.516 1526.66 112.389C1523.8 112.81 1520.97 113.376 1518.17 114.038C1515.32 114.701 1512.54 115.655 1509.6 115.493C1508.74 100.895 1511.27 86.0864 1517.41 72.7975C1519.95 67.317 1523.25 62.6126 1529.62 61.7072ZM1523.92 159.887C1520.56 154.956 1517.85 149.475 1515.7 143.914C1512.77 136.364 1510.88 128.394 1509.99 120.327C1512.77 120.392 1515.47 119.664 1518.15 118.985C1520.95 118.29 1523.78 117.692 1526.62 117.223C1531.75 116.399 1536.95 116.14 1542.13 116.512C1542.13 129.623 1539.53 142.75 1534.19 154.762C1533.09 157.235 1531.93 160.178 1529.7 161.891C1529.32 162.182 1528.95 162.36 1528.6 162.49C1528.14 162.247 1527.61 162.15 1526.98 162.296C1526.83 162.328 1526.67 162.344 1526.51 162.376C1525.51 161.924 1524.64 160.938 1523.92 159.887ZM1521.08 59.9289C1515.58 63.7765 1512.93 70.5503 1510.64 76.5966C1508.34 82.6429 1506.72 88.9317 1505.75 95.3175C1503.8 108.332 1504.4 121.669 1507.63 134.424C1509.26 140.891 1511.59 147.18 1514.53 153.161C1515.95 156.055 1517.54 158.884 1519.28 161.6C1519.71 162.231 1520.13 162.861 1520.61 163.476C1514.66 164.397 1508.66 164.882 1502.65 164.866C1494.66 164.85 1486.66 164.333 1478.69 163.961C1478.33 160.841 1478.04 157.704 1477.8 154.568C1476.77 141.069 1476.57 127.44 1478.03 113.958C1480.05 95.2205 1485.74 76.7421 1496.43 61.3839C1496.6 61.3839 1496.8 61.3677 1496.99 61.3354C1504.93 59.8157 1513.04 59.3631 1521.08 59.9289ZM119.632 8.11521C142.815 6.69255 166.144 6.74103 189.359 6.35303C238.489 5.51236 287.635 5.12437 336.782 4.94653C434.218 4.60702 531.637 4.96267 629.073 5.092C823.427 5.33448 1017.91 3.443 1212.23 6.98346C1320.26 8.95577 1428.32 13.9512 1535.69 26.4318C1529.23 28.291 1523.04 31.0877 1517.38 34.6444C1495.12 48.6123 1481.45 72.2155 1475.88 97.4515C1472.74 111.694 1471.87 126.373 1472.26 140.923C1472.64 154.455 1473.94 168.035 1476.44 181.324C1478.87 194.079 1482.54 206.64 1488.07 218.394C1493.4 229.726 1500.76 241.221 1510.38 249.401C1511.23 250.128 1512.12 250.759 1513.04 251.309C1470.33 253.281 1427.52 251.939 1384.94 248.286C1337.64 244.228 1290.62 237.405 1243.84 229.484C1197.21 221.578 1150.78 212.574 1104.29 204.005C1058.05 195.469 1011.74 187.37 965.144 181.162C918.309 174.938 871.167 170.654 823.912 169.942C818.141 169.845 812.37 169.813 806.598 169.829C806.388 169.829 806.178 169.862 806 169.91C805.822 169.862 805.612 169.829 805.402 169.829C799.63 169.813 793.859 169.845 788.087 169.942C740.832 170.654 693.691 174.938 646.856 181.162C600.248 187.37 553.931 195.469 507.711 204.005C461.216 212.574 414.785 221.578 368.161 229.484C321.375 237.406 274.346 244.228 227.059 248.286C184.46 251.939 141.667 253.281 98.9554 251.309C99.8769 250.759 100.766 250.129 101.623 249.401C111.242 241.221 118.598 229.726 123.917 218.394C129.446 206.641 133.131 194.079 135.54 181.324C138.062 168.035 139.356 154.455 139.727 140.923C140.132 126.374 139.259 111.694 136.122 97.4516C130.545 72.2156 116.868 48.6124 94.6227 34.6445C84.4701 28.2587 72.6038 24.2333 60.5759 23.9908C78.3106 12.8682 98.9554 9.3762 119.632 8.11521Z" fill="#1A171B"/>
<path d="M69.8717 116.513C75.045 116.141 80.2507 116.399 85.3755 117.224C88.2208 117.693 91.0499 118.291 93.8467 118.986C96.5304 119.665 99.214 120.393 101.995 120.328C101.122 128.395 99.214 136.365 96.3041 143.915C94.1539 149.476 91.4379 154.957 88.0752 159.887C87.3477 160.938 86.4748 161.924 85.4886 162.377C85.327 162.345 85.1653 162.329 85.0037 162.296C84.3893 162.151 83.8557 162.248 83.4031 162.49C83.0313 162.361 82.6757 162.183 82.2877 161.892C80.0729 160.178 78.9088 157.236 77.8095 154.763C72.4584 142.751 69.8555 129.624 69.8717 116.513Z" fill="#99856D"/>
<path d="M51.2643 100.103C53.4307 88.2529 57.7148 74.5437 67.2045 66.4604C71.3432 62.9199 76.9045 60.9153 82.385 61.7074C88.7546 62.6127 92.0526 67.3172 94.5907 72.7977C100.734 86.0866 103.24 100.895 102.399 115.494C99.4568 115.655 96.6761 114.701 93.8308 114.039C91.0178 113.376 88.1887 112.81 85.3434 112.39C79.5073 111.517 73.655 111.209 67.7865 111.84C66.5094 111.727 65.0867 112.487 65.0544 114.152C64.8765 121.475 65.4909 128.799 66.8974 135.977C68.3039 143.171 70.5511 150.155 73.4934 156.848C75.6597 161.746 79.5235 168.876 85.9901 167.356C93.4267 168.827 100.993 169.652 108.575 169.668C116.61 169.7 124.677 169.183 132.695 168.811C131.741 175.973 130.448 183.102 128.718 190.118C125.841 201.726 121.767 213.075 115.866 223.519C112.988 228.611 109.69 233.493 105.923 237.971C104.016 240.235 102.011 242.417 99.8933 244.47C97.7916 246.507 95.302 248.641 92.198 248.609C87.0085 248.544 83.2418 243.08 80.9461 239.055C77.6158 233.17 75.0939 226.687 72.6689 220.382C67.5441 207.045 63.5186 193.319 59.8164 179.529C52.9618 153.97 46.4305 126.632 51.2643 100.103Z" fill="#D3C4AF"/>
<path d="M104.371 134.424C107.605 121.669 108.203 108.331 106.23 95.3173C105.277 88.9315 103.644 82.6427 101.364 76.5964C99.4405 71.5201 97.2418 65.975 93.3618 62.0303C101.882 62.7255 110.337 64.0835 118.679 66.1366C127.376 80.4764 132.129 97.1118 133.956 113.957C135.427 127.44 135.233 141.069 134.199 154.568C133.956 157.704 133.649 160.84 133.309 163.96C125.323 164.332 117.337 164.85 109.351 164.866C103.32 164.882 97.3226 164.397 91.3895 163.475C91.8583 162.861 92.2948 162.231 92.699 161.6C94.4611 158.884 96.0293 156.055 97.4519 153.161C100.41 147.18 102.738 140.891 104.371 134.424Z" fill="#BAA78E"/>
<path d="M1478.03 113.957C1480.05 95.2203 1485.74 76.7419 1496.43 61.3837C1496.6 61.3837 1496.8 61.3675 1496.99 61.3352C1504.93 59.8155 1513.04 59.3628 1521.08 59.9287C1515.58 63.7763 1512.93 70.5501 1510.64 76.5964C1508.34 82.6427 1506.72 88.9315 1505.75 95.3173C1503.8 108.331 1504.4 121.669 1507.63 134.424C1509.26 140.891 1511.59 147.18 1514.53 153.161C1515.95 156.055 1517.54 158.884 1519.28 161.6C1519.7 162.231 1520.13 162.861 1520.61 163.475C1514.66 164.397 1508.66 164.882 1502.65 164.866C1494.66 164.85 1486.66 164.332 1478.69 163.96C1478.33 160.84 1478.04 157.704 1477.8 154.568C1476.77 141.069 1476.57 127.44 1478.03 113.957Z" fill="#BAA78E"/>
<path d="M1509.99 120.327C1512.77 120.392 1515.47 119.664 1518.15 118.985C1520.95 118.29 1523.78 117.692 1526.62 117.223C1531.75 116.398 1536.95 116.14 1542.13 116.512C1542.13 129.623 1539.53 142.75 1534.19 154.762C1533.09 157.235 1531.93 160.177 1529.7 161.891C1529.32 162.182 1528.95 162.36 1528.6 162.489C1528.14 162.247 1527.61 162.15 1526.98 162.295C1526.83 162.328 1526.67 162.344 1526.51 162.376C1525.51 161.923 1524.64 160.937 1523.92 159.886C1520.56 154.956 1517.85 149.475 1515.7 143.914C1512.77 136.364 1510.88 128.394 1509.99 120.327Z" fill="#99856D"/>
<path d="M1545.1 135.977C1546.51 128.799 1547.12 121.475 1546.95 114.152C1546.9 112.487 1545.49 111.727 1544.21 111.84C1538.34 111.209 1532.48 111.517 1526.66 112.39C1523.79 112.81 1520.97 113.376 1518.17 114.039C1515.32 114.701 1512.54 115.655 1509.6 115.494C1508.74 100.895 1511.27 86.0866 1517.41 72.7977C1519.95 67.3172 1523.25 62.6127 1529.61 61.7074C1535.1 60.9153 1540.64 62.9199 1544.8 66.4604C1554.27 74.5437 1558.57 88.2529 1560.74 100.103C1565.57 126.632 1559.04 153.97 1552.17 179.529C1548.46 193.319 1544.46 207.045 1539.31 220.382C1536.89 226.687 1534.38 233.17 1531.04 239.055C1528.76 243.08 1524.99 248.544 1519.79 248.609C1516.68 248.641 1514.21 246.507 1512.11 244.47C1509.99 242.417 1507.98 240.235 1506.08 237.971C1502.31 233.493 1499.01 228.611 1496.12 223.519C1490.23 213.075 1486.14 201.726 1483.28 190.118C1481.54 183.102 1480.24 175.973 1479.29 168.811C1487.32 169.183 1495.37 169.7 1503.41 169.668C1511.01 169.652 1518.57 168.827 1526.01 167.356C1532.46 168.876 1536.34 161.746 1538.49 156.848C1541.45 150.155 1543.7 143.171 1545.1 135.977Z" fill="#D3C4AF"/>
</g>
<defs>
<clipPath id="clip0_7374_114">
<rect width="1612" height="257.048" fill="white" transform="translate(1612 257.048) rotate(180)"/>
</clipPath>
</defs>
</svg>
