<svg width="1612" height="258" viewBox="0 0 1612 258" fill="none" xmlns="http://www.w3.org/2000/svg">
<g clip-path="url(#clip0_7374_102)">
<path d="M806 174.582C808.312 174.065 808.295 170.443 806 169.91C803.688 170.443 803.688 174.065 806 174.582Z" fill="#1A171B"/>
<path d="M60.5755 23.9912C78.3102 12.8686 98.955 9.37663 119.632 8.11563C142.815 6.69297 166.143 6.74145 189.358 6.35345C238.489 5.51279 287.635 5.12479 336.781 4.94696C434.217 4.60745 531.637 4.9631 629.073 5.09243C823.427 5.33491 1017.91 3.44342 1212.23 6.98388C1320.26 8.9562 1428.32 13.9517 1535.69 26.4322C1529.23 28.2914 1523.03 31.0882 1517.38 34.6448C1495.12 48.6127 1481.45 72.2159 1475.88 97.4519C1472.74 111.695 1471.87 126.374 1472.26 140.924C1472.64 154.455 1473.94 168.035 1476.44 181.324C1478.87 194.079 1482.54 206.641 1488.07 218.394C1493.4 229.727 1500.76 241.221 1510.38 249.401C1511.23 250.129 1512.12 250.759 1513.04 251.309C1470.33 253.281 1427.52 251.94 1384.94 248.286C1337.64 244.228 1290.62 237.406 1243.84 229.484C1197.21 221.579 1150.78 212.574 1104.29 204.006C1058.05 195.47 1011.74 187.37 965.143 181.162C918.309 174.938 871.167 170.654 823.912 169.943C818.141 169.846 812.369 169.814 806.598 169.83C806.387 169.83 806.177 169.862 805.999 169.911C805.822 169.862 805.612 169.83 805.401 169.83C799.63 169.814 793.858 169.846 788.087 169.943C740.832 170.654 693.69 174.938 646.856 181.162C600.248 187.37 553.93 195.47 507.71 204.006C461.215 212.574 414.785 221.579 368.161 229.484C321.374 237.406 274.346 244.228 227.059 248.286C184.46 251.94 141.667 253.282 98.955 251.309C99.8765 250.76 100.766 250.129 101.622 249.402C111.242 241.221 118.597 229.727 123.916 218.394C129.445 206.641 133.131 194.08 135.54 181.324C138.062 168.035 139.355 154.455 139.727 140.924C140.131 126.374 139.258 111.695 136.122 97.452C130.544 72.216 116.867 48.6129 94.6223 34.6449C84.4697 28.2592 72.6034 24.2337 60.5755 23.9912Z" fill="#EFE2CB"/>
<path d="M63.0976 26.7555C69.2571 26.0765 75.3358 26.8687 81.3659 28.065C81.5276 29.326 82.4005 30.2314 83.6615 30.7487C88.0265 32.5593 92.3753 34.4346 96.7564 36.1968C97.3546 36.4393 97.9528 36.6495 98.551 36.8596C99.3755 38.8643 101.024 40.3678 102.851 41.5803C104.128 42.4371 105.713 43.1484 106.877 44.1992C106.925 44.2477 106.974 44.2801 107.006 44.3286C107.378 44.6842 107.701 45.0884 107.96 45.5411C108.396 46.3494 109.027 46.7859 109.69 46.9961C111.727 49.0007 113.764 51.0215 115.736 53.0909C115.784 53.1394 115.817 53.1717 115.865 53.204C115.558 54.3357 115.817 55.6452 116.625 56.4858C116.625 56.987 116.754 57.5043 117.062 58.0217C118.145 59.897 118.888 61.8046 119.39 63.9063C119.648 65.0056 120.311 65.6523 121.103 65.9756C121.119 66.0079 121.136 66.0564 121.152 66.0888C121.249 66.2343 121.33 66.3798 121.41 66.5253C121.507 67.4953 121.992 68.4006 122.865 68.9179C125.129 72.7494 127.133 76.7264 128.863 80.8327C129.138 81.4955 129.72 81.932 130.399 82.1583C132.064 88.1076 133.471 94.0893 135.249 100.006C137.092 106.15 137.69 112.471 138.401 118.824C139.129 125.21 140.341 131.709 137.577 137.787C136.882 139.372 137.108 141.231 138.725 142.185C138.87 142.266 139.032 142.33 139.194 142.395C136.752 146.42 134.602 150.688 132.808 155.247C132.048 157.171 135.152 157.996 135.896 156.104C137.723 151.464 139.986 147.019 142.653 142.815C166.046 105.875 211.086 93.7659 251.131 84.8905C297.901 74.5277 344.962 65.4744 392.216 57.6983C439.827 49.8575 487.664 43.3262 535.63 38.1044C583.515 32.8988 631.562 28.9865 679.658 26.3998C720.85 24.185 762.091 22.9402 803.332 22.6492C844.589 22.9401 885.83 24.185 927.006 26.3998C975.118 28.9864 1023.15 32.8988 1071.03 38.1044C1119 43.3262 1166.84 49.8575 1214.45 57.6982C1261.72 65.4905 1308.78 74.5438 1355.53 84.8904C1395.59 93.7658 1440.62 105.875 1464.01 142.815C1466.68 147.035 1468.94 151.464 1470.77 156.104C1471.51 157.996 1474.62 157.171 1473.86 155.247C1473.68 154.795 1473.48 154.374 1473.29 153.922C1474.79 153.453 1476.07 151.61 1475.44 150.009C1474.23 146.889 1473.31 143.672 1472.64 140.406C1472.98 139.921 1473.18 139.339 1473.14 138.628C1471.37 106.958 1481.1 75.1258 1500.14 49.7604C1501.66 47.7234 1503.28 45.7511 1504.94 43.8111C1505.66 44.0051 1506.45 43.892 1507.19 43.3261L1514.53 37.7002C1520.53 33.8687 1527.27 31.3305 1534.4 30.2636C1535.95 30.0211 1536.91 28.1619 1536.7 26.7392C1536.45 25.0902 1535.18 24.0879 1533.54 23.9586C1515.53 22.5359 1497.54 21.1295 1479.53 19.7068C1478.72 17.2656 1475.13 16.0693 1473.71 18.85C1473.66 18.947 1473.63 19.044 1473.58 19.1248C1469.3 17.3788 1464.71 16.3765 1459.99 16.1825C1459.53 16.1663 1459.14 16.2633 1458.77 16.4088C1454.5 15.9238 1450.14 16.1825 1445.87 17.2656C1445.21 17.4273 1444.71 17.7345 1444.35 18.1063C1434.98 16.6028 1425.55 15.3418 1416.09 14.3557C1414.69 14.2102 1413.72 15.0508 1413.26 16.1502C1409.63 15.7622 1405.97 15.4227 1402.32 15.1155C1401.9 13.7898 1400.75 13.0785 1399.3 12.9007C1374.08 9.74819 1348.65 8.35788 1323.23 8.71354C1322.72 8.09921 1321.94 7.64654 1320.9 7.56571C1298.92 5.69039 1276.85 5.07606 1254.8 5.72272C1253.55 5.75506 1252.65 6.41789 1252.13 7.29088C1248.45 6.98372 1244.74 6.7574 1241.06 6.64423C1220.98 5.25391 1200.85 4.42941 1180.71 4.18691C1173.09 4.08991 1165.5 4.08993 1157.88 4.1546C1157.57 4.1546 1157.28 4.20309 1157.02 4.26775C1129.56 3.81509 1102.09 3.54025 1074.61 3.47559C1045.57 3.41093 1016.54 3.5726 987.502 3.9606C972.208 4.17077 956.898 4.4456 941.605 4.76893C941.104 4.3486 940.441 4.07378 939.6 4.07378L690.231 4.0738C689.584 4.0738 689.051 4.25162 688.614 4.51028L432.035 4.5103C431.598 4.25164 431.049 4.07383 430.402 4.07383L195.211 4.07385C194.774 4.07385 194.386 4.15466 194.031 4.28399L131.563 4.284C130.674 4.284 129.979 4.60734 129.477 5.07617C123.658 5.23784 117.886 5.85216 112.131 6.75748C109.512 7.17781 106.925 7.71132 104.339 8.30948C101.138 8.92381 97.9366 9.58665 94.7356 10.2818C94.0727 10.4273 93.3938 10.5728 92.7309 10.7183C91.0011 10.4111 89.2228 10.1686 87.4284 9.97464C84.2274 9.65131 81.4629 11.3488 79.6522 13.8546C73.3635 15.5683 67.204 17.6861 61.3679 20.7254C58.6681 22.1319 59.7836 27.0627 62.9845 26.707L63.0976 26.7555ZM1492.5 33.5777C1492.58 33.028 1492.66 32.4784 1492.74 31.9287C1492.82 32.5107 1493.06 33.0442 1493.48 33.4645C1493.14 34.0304 1492.82 34.5962 1492.48 35.162C1492.48 34.6285 1492.5 34.095 1492.51 33.5777L1492.5 33.5777Z" fill="#D3C4AF"/>
<path d="M4.81748 120.748C5.05998 114.621 5.72283 108.526 6.85448 102.496C11.462 78.1164 23.1827 54.2061 40.9013 36.6653C45.8321 31.7992 51.361 29.0347 58.3449 28.8084C64.1002 28.6306 69.8718 29.5359 75.3846 31.1526C86.103 34.2727 95.8352 40.2867 103.967 47.9011C108.041 51.7164 111.63 55.8874 114.815 60.317C103.482 57.9082 91.923 56.6795 80.3477 56.6795C80.1052 56.6795 79.8788 56.7119 79.6686 56.7604C77.664 56.7927 75.6594 57.0676 73.7679 57.5849C67.6569 59.25 62.6614 63.4048 58.8623 68.368C50.5527 79.2319 46.8506 93.6686 45.4602 107.055C43.9729 121.443 45.4441 136.009 48.0308 150.187C50.7144 164.85 54.5944 179.303 58.733 193.594C63.0172 208.354 67.9641 222.953 74.4792 236.872C75.4007 238.844 76.4192 240.833 77.567 242.741C78.3753 244.971 79.3776 247.154 80.574 249.207C81.156 250.193 81.7703 251.147 82.4332 252.069C83.1283 253.006 83.7912 253.928 84.7935 254.477C85.1654 255.011 85.7473 255.399 86.5718 255.464C92.3433 255.819 98.0986 256.11 103.854 256.353C150.915 258.277 198.056 256.126 244.875 251.438C291.483 246.782 337.8 239.653 383.923 231.634C430.515 223.518 476.946 214.465 523.473 205.978C570.372 197.442 617.385 189.472 664.704 183.7C711.377 178.01 758.357 174.501 805.402 174.647C805.612 174.647 805.822 174.631 806 174.582C806.178 174.631 806.388 174.647 806.598 174.647C853.643 174.501 900.607 178.01 947.296 183.7C994.615 189.472 1041.63 197.442 1088.51 205.978C1135.04 214.465 1181.47 223.518 1228.08 231.634C1274.2 239.653 1320.52 246.782 1367.11 251.438C1413.94 256.126 1461.09 258.276 1508.13 256.353C1513.9 256.11 1519.66 255.819 1525.41 255.463C1526.24 255.399 1526.82 255.011 1527.21 254.477C1528.19 253.928 1528.87 253.006 1529.55 252.068C1530.21 251.147 1530.84 250.193 1531.43 249.207C1532.62 247.154 1533.61 244.971 1534.43 242.74C1535.58 240.833 1536.58 238.844 1537.5 236.872C1544.02 222.953 1548.98 208.354 1553.25 193.594C1557.41 179.303 1561.29 164.85 1563.97 150.187C1566.56 136.009 1568.03 121.443 1566.54 107.054C1565.15 93.6685 1561.43 79.2318 1553.12 68.3678C1549.34 63.4047 1544.33 59.2499 1538.22 57.5848C1536.65 57.1644 1535 56.9058 1533.35 56.8088C1533.17 56.7279 1532.98 56.6471 1532.77 56.6148C1522.11 54.6101 1511.28 54.3838 1500.6 55.8873C1502.89 53.0905 1505.35 50.423 1508.03 47.901C1516.15 40.2865 1525.9 34.2726 1536.62 31.1524C1542.13 29.5358 1547.9 28.6305 1553.64 28.8083C1560.64 29.0346 1566.17 31.7991 1571.08 36.6652C1588.82 54.2059 1600.54 78.1163 1605.15 102.495C1606.28 108.526 1606.94 114.62 1607.18 120.748C1607.31 123.835 1612.11 123.851 1612 120.748C1610.92 93.62 1601.39 66.9452 1584.92 45.3467C1580.86 40.0279 1576.48 34.5636 1571.26 30.3441C1565.63 25.8013 1559.07 23.9098 1551.88 23.9745C1550.66 23.9906 1549.53 24.0391 1548.4 24.1038C1547.04 23.9906 1545.68 23.829 1544.34 23.5703C1543.49 23.4086 1542.69 23.1015 1541.87 22.8266C1541.17 22.6003 1540.46 22.4225 1539.74 22.2608C1539.44 22.1315 1539.12 22.0183 1538.78 21.9698C1442.02 10.5886 1344.67 5.33444 1247.31 2.92563C1149.67 0.516822 1051.96 0.823988 954.296 0.694664C855.243 0.56534 756.207 0.436032 657.154 0.306708C558.716 0.177384 460.278 -0.129787 361.84 0.0642206C312.71 0.161224 263.563 0.452248 214.417 1.14741C189.844 1.50308 165.287 1.93957 140.714 2.52156C120.974 2.9904 100.798 3.55623 81.7056 9.21452C72.6524 11.8982 64.1164 15.7943 56.2433 21.0485C56.017 21.194 55.8392 21.3718 55.6937 21.5496C54.2549 22.6974 52.8483 23.8291 51.1832 24.7021C50.2778 25.1871 49.324 25.5266 48.3864 25.9307C48.2409 25.9954 48.0953 26.0601 47.9498 26.1409C45.4117 27.1432 43.0029 28.5336 40.7396 30.3604C35.5178 34.5799 31.1529 40.0442 27.095 45.363C10.6052 66.9615 1.09922 93.6363 0.0160625 120.764C-0.11327 123.868 4.70433 123.852 4.83367 120.764L4.81748 120.748ZM118.679 66.137C127.376 80.4767 132.129 97.1121 133.956 113.958C135.427 127.441 135.233 141.069 134.199 154.568C133.956 157.704 133.649 160.841 133.309 163.961C125.323 164.333 117.337 164.85 109.351 164.866C103.32 164.882 97.3225 164.397 91.3894 163.476C91.8582 162.862 92.2947 162.231 92.6989 161.601C94.461 158.885 96.0292 156.055 97.4519 153.162C100.41 147.18 102.738 140.891 104.371 134.425C107.605 121.669 108.203 108.332 106.23 95.3176C105.277 88.9318 103.644 82.643 101.364 76.5967C99.4404 71.5204 97.2417 65.9753 93.3618 62.0307C101.882 62.7258 110.337 64.0838 118.679 66.137ZM88.0753 159.887C87.3478 160.938 86.4748 161.924 85.4887 162.377C85.327 162.344 85.1654 162.328 85.0037 162.296C84.3894 162.15 83.8558 162.247 83.4031 162.49C83.0313 162.36 82.6757 162.183 82.2877 161.892C80.0729 160.178 78.9089 157.236 77.8095 154.762C72.4584 142.75 69.8555 129.623 69.8717 116.512C75.045 116.14 80.2507 116.399 85.3755 117.223C88.2208 117.692 91.0499 118.29 93.8467 118.985C96.5304 119.664 99.214 120.392 101.995 120.327C101.122 128.394 99.2141 136.365 96.3041 143.914C94.1539 149.476 91.4379 154.956 88.0753 159.887ZM80.9459 239.038C77.6156 233.154 75.0936 226.671 72.6686 220.366C67.5438 207.029 63.5183 193.303 59.8162 179.513C52.9615 153.954 46.4303 126.616 51.2641 100.087C53.4304 88.2367 57.7145 74.5274 67.2043 66.4442C71.3429 62.9037 76.9042 60.899 82.3847 61.6912C88.7543 62.5965 92.0523 67.301 94.5904 72.7814C100.734 86.0704 103.239 100.879 102.399 115.477C99.4565 115.639 96.6759 114.685 93.8306 114.022C91.0176 113.36 88.1884 112.794 85.3431 112.373C79.507 111.5 73.6547 111.193 67.7863 111.824C66.5091 111.711 65.0864 112.47 65.0541 114.136C64.8763 121.459 65.4906 128.782 66.8971 135.96C68.3036 143.154 70.5508 150.138 73.4931 156.831C75.6594 161.73 79.5232 168.859 85.9898 167.34C93.4264 168.811 100.992 169.635 108.574 169.651C116.609 169.684 124.676 169.166 132.695 168.795C131.741 175.956 130.448 183.086 128.718 190.102C125.84 201.71 121.766 213.059 115.866 223.502C112.988 228.595 109.69 233.477 105.923 237.955C104.016 240.219 102.011 242.401 99.893 244.454C97.7914 246.491 95.3017 248.625 92.1977 248.593C87.0083 248.528 83.2415 243.064 80.9459 239.038ZM1529.62 61.7072C1535.1 60.9151 1540.64 62.9197 1544.8 66.4602C1554.27 74.5435 1558.57 88.2527 1560.74 100.103C1565.57 126.632 1559.04 153.97 1552.17 179.529C1548.47 193.319 1544.46 207.045 1539.32 220.382C1536.89 226.687 1534.38 233.17 1531.04 239.054C1528.76 243.08 1524.99 248.544 1519.79 248.609C1516.68 248.641 1514.21 246.507 1512.11 244.47C1509.99 242.417 1507.98 240.235 1506.08 237.971C1502.31 233.493 1499.01 228.611 1496.12 223.518C1490.23 213.075 1486.14 201.726 1483.28 190.118C1481.54 183.102 1480.24 175.972 1479.29 168.811C1487.32 169.183 1495.37 169.7 1503.41 169.668C1511.01 169.651 1518.57 168.827 1526.01 167.356C1532.46 168.875 1536.34 161.746 1538.49 156.847C1541.45 150.154 1543.7 143.171 1545.1 135.976C1546.51 128.798 1547.12 121.475 1546.95 114.152C1546.9 112.486 1545.49 111.727 1544.21 111.84C1538.35 111.209 1532.48 111.516 1526.66 112.389C1523.8 112.81 1520.97 113.376 1518.17 114.038C1515.32 114.701 1512.54 115.655 1509.6 115.493C1508.74 100.895 1511.27 86.0864 1517.41 72.7975C1519.95 67.317 1523.25 62.6126 1529.62 61.7072ZM1523.92 159.887C1520.56 154.956 1517.85 149.475 1515.7 143.914C1512.77 136.364 1510.88 128.394 1509.99 120.327C1512.77 120.392 1515.47 119.664 1518.15 118.985C1520.95 118.29 1523.78 117.692 1526.62 117.223C1531.75 116.399 1536.95 116.14 1542.13 116.512C1542.13 129.623 1539.53 142.75 1534.19 154.762C1533.09 157.235 1531.93 160.178 1529.7 161.891C1529.32 162.182 1528.95 162.36 1528.6 162.49C1528.14 162.247 1527.61 162.15 1526.98 162.296C1526.83 162.328 1526.67 162.344 1526.51 162.376C1525.51 161.924 1524.64 160.938 1523.92 159.887ZM1521.08 59.9289C1515.58 63.7765 1512.93 70.5503 1510.64 76.5966C1508.34 82.6429 1506.72 88.9317 1505.75 95.3175C1503.8 108.332 1504.4 121.669 1507.63 134.424C1509.26 140.891 1511.59 147.18 1514.53 153.161C1515.95 156.055 1517.54 158.884 1519.28 161.6C1519.71 162.231 1520.13 162.861 1520.61 163.476C1514.66 164.397 1508.66 164.882 1502.65 164.866C1494.66 164.85 1486.66 164.333 1478.69 163.961C1478.33 160.841 1478.04 157.704 1477.8 154.568C1476.77 141.069 1476.57 127.44 1478.03 113.958C1480.05 95.2205 1485.74 76.7421 1496.43 61.3839C1496.6 61.3839 1496.8 61.3677 1496.99 61.3354C1504.93 59.8157 1513.04 59.3631 1521.08 59.9289ZM119.632 8.11521C142.815 6.69255 166.144 6.74103 189.359 6.35303C238.489 5.51236 287.635 5.12437 336.782 4.94653C434.218 4.60702 531.637 4.96267 629.073 5.092C823.427 5.33448 1017.91 3.443 1212.23 6.98346C1320.26 8.95577 1428.32 13.9512 1535.69 26.4318C1529.23 28.291 1523.04 31.0877 1517.38 34.6444C1495.12 48.6123 1481.45 72.2155 1475.88 97.4515C1472.74 111.694 1471.87 126.373 1472.26 140.923C1472.64 154.455 1473.94 168.035 1476.44 181.324C1478.87 194.079 1482.54 206.64 1488.07 218.394C1493.4 229.726 1500.76 241.221 1510.38 249.401C1511.23 250.128 1512.12 250.759 1513.04 251.309C1470.33 253.281 1427.52 251.939 1384.94 248.286C1337.64 244.228 1290.62 237.405 1243.84 229.484C1197.21 221.578 1150.78 212.574 1104.29 204.005C1058.05 195.469 1011.74 187.37 965.144 181.162C918.309 174.938 871.167 170.654 823.912 169.942C818.141 169.845 812.37 169.813 806.598 169.829C806.388 169.829 806.178 169.862 806 169.91C805.822 169.862 805.612 169.829 805.402 169.829C799.63 169.813 793.859 169.845 788.087 169.942C740.832 170.654 693.691 174.938 646.856 181.162C600.248 187.37 553.931 195.469 507.711 204.005C461.216 212.574 414.785 221.578 368.161 229.484C321.375 237.406 274.346 244.228 227.059 248.286C184.46 251.939 141.667 253.281 98.9554 251.309C99.8769 250.759 100.766 250.129 101.623 249.401C111.242 241.221 118.598 229.726 123.917 218.394C129.446 206.641 133.131 194.079 135.54 181.324C138.062 168.035 139.356 154.455 139.727 140.923C140.132 126.374 139.259 111.694 136.122 97.4516C130.545 72.2156 116.868 48.6124 94.6227 34.6445C84.4701 28.2587 72.6038 24.2333 60.5759 23.9908C78.3106 12.8682 98.9554 9.3762 119.632 8.11521Z" fill="#1A171B"/>
<path d="M69.8717 116.513C75.045 116.141 80.2507 116.399 85.3755 117.224C88.2208 117.693 91.0499 118.291 93.8467 118.986C96.5304 119.665 99.214 120.393 101.995 120.328C101.122 128.395 99.214 136.365 96.3041 143.915C94.1539 149.476 91.4379 154.957 88.0752 159.887C87.3477 160.938 86.4748 161.924 85.4886 162.377C85.327 162.345 85.1653 162.329 85.0037 162.296C84.3893 162.151 83.8557 162.248 83.4031 162.49C83.0313 162.361 82.6757 162.183 82.2877 161.892C80.0729 160.178 78.9088 157.236 77.8095 154.763C72.4584 142.751 69.8555 129.624 69.8717 116.513Z" fill="#99856D"/>
<path d="M51.2643 100.103C53.4307 88.2529 57.7148 74.5437 67.2045 66.4604C71.3432 62.9199 76.9045 60.9153 82.385 61.7074C88.7546 62.6127 92.0526 67.3172 94.5907 72.7977C100.734 86.0866 103.24 100.895 102.399 115.494C99.4568 115.655 96.6761 114.701 93.8308 114.039C91.0178 113.376 88.1887 112.81 85.3434 112.39C79.5073 111.517 73.655 111.209 67.7865 111.84C66.5094 111.727 65.0867 112.487 65.0544 114.152C64.8765 121.475 65.4909 128.799 66.8974 135.977C68.3039 143.171 70.5511 150.155 73.4934 156.848C75.6597 161.746 79.5235 168.876 85.9901 167.356C93.4267 168.827 100.993 169.652 108.575 169.668C116.61 169.7 124.677 169.183 132.695 168.811C131.741 175.973 130.448 183.102 128.718 190.118C125.841 201.726 121.767 213.075 115.866 223.519C112.988 228.611 109.69 233.493 105.923 237.971C104.016 240.235 102.011 242.417 99.8933 244.47C97.7916 246.507 95.302 248.641 92.198 248.609C87.0085 248.544 83.2418 243.08 80.9461 239.055C77.6158 233.17 75.0939 226.687 72.6689 220.382C67.5441 207.045 63.5186 193.319 59.8164 179.529C52.9618 153.97 46.4305 126.632 51.2643 100.103Z" fill="#D3C4AF"/>
<path d="M104.371 134.424C107.605 121.669 108.203 108.331 106.23 95.3173C105.277 88.9315 103.644 82.6427 101.364 76.5964C99.4405 71.5201 97.2418 65.975 93.3618 62.0303C101.882 62.7255 110.337 64.0835 118.679 66.1366C127.376 80.4764 132.129 97.1118 133.956 113.957C135.427 127.44 135.233 141.069 134.199 154.568C133.956 157.704 133.649 160.84 133.309 163.96C125.323 164.332 117.337 164.85 109.351 164.866C103.32 164.882 97.3226 164.397 91.3895 163.475C91.8583 162.861 92.2948 162.231 92.699 161.6C94.4611 158.884 96.0293 156.055 97.4519 153.161C100.41 147.18 102.738 140.891 104.371 134.424Z" fill="#BAA78E"/>
<path d="M1478.03 113.957C1480.05 95.2203 1485.74 76.7419 1496.43 61.3837C1496.6 61.3837 1496.8 61.3675 1496.99 61.3352C1504.93 59.8155 1513.04 59.3628 1521.08 59.9287C1515.58 63.7763 1512.93 70.5501 1510.64 76.5964C1508.34 82.6427 1506.72 88.9315 1505.75 95.3173C1503.8 108.331 1504.4 121.669 1507.63 134.424C1509.26 140.891 1511.59 147.18 1514.53 153.161C1515.95 156.055 1517.54 158.884 1519.28 161.6C1519.7 162.231 1520.13 162.861 1520.61 163.475C1514.66 164.397 1508.66 164.882 1502.65 164.866C1494.66 164.85 1486.66 164.332 1478.69 163.96C1478.33 160.84 1478.04 157.704 1477.8 154.568C1476.77 141.069 1476.57 127.44 1478.03 113.957Z" fill="#BAA78E"/>
<path d="M1509.99 120.327C1512.77 120.392 1515.47 119.664 1518.15 118.985C1520.95 118.29 1523.78 117.692 1526.62 117.223C1531.75 116.398 1536.95 116.14 1542.13 116.512C1542.13 129.623 1539.53 142.75 1534.19 154.762C1533.09 157.235 1531.93 160.177 1529.7 161.891C1529.32 162.182 1528.95 162.36 1528.6 162.489C1528.14 162.247 1527.61 162.15 1526.98 162.295C1526.83 162.328 1526.67 162.344 1526.51 162.376C1525.51 161.923 1524.64 160.937 1523.92 159.886C1520.56 154.956 1517.85 149.475 1515.7 143.914C1512.77 136.364 1510.88 128.394 1509.99 120.327Z" fill="#99856D"/>
<path d="M1545.1 135.977C1546.51 128.799 1547.12 121.475 1546.95 114.152C1546.9 112.487 1545.49 111.727 1544.21 111.84C1538.34 111.209 1532.48 111.517 1526.66 112.39C1523.79 112.81 1520.97 113.376 1518.17 114.039C1515.32 114.701 1512.54 115.655 1509.6 115.494C1508.74 100.895 1511.27 86.0866 1517.41 72.7977C1519.95 67.3172 1523.25 62.6127 1529.61 61.7074C1535.1 60.9153 1540.64 62.9199 1544.8 66.4604C1554.27 74.5437 1558.57 88.2529 1560.74 100.103C1565.57 126.632 1559.04 153.97 1552.17 179.529C1548.46 193.319 1544.46 207.045 1539.31 220.382C1536.89 226.687 1534.38 233.17 1531.04 239.055C1528.76 243.08 1524.99 248.544 1519.79 248.609C1516.68 248.641 1514.21 246.507 1512.11 244.47C1509.99 242.417 1507.98 240.235 1506.08 237.971C1502.31 233.493 1499.01 228.611 1496.12 223.519C1490.23 213.075 1486.14 201.726 1483.28 190.118C1481.54 183.102 1480.24 175.973 1479.29 168.811C1487.32 169.183 1495.37 169.7 1503.41 169.668C1511.01 169.652 1518.57 168.827 1526.01 167.356C1532.46 168.876 1536.34 161.746 1538.49 156.848C1541.45 150.155 1543.7 143.171 1545.1 135.977Z" fill="#D3C4AF"/>
</g>
<defs>
<clipPath id="clip0_7374_102">
<rect width="1612" height="257.048" fill="white" transform="translate(1612 257.048) rotate(180)"/>
</clipPath>
</defs>
</svg>
