<svg width="221" height="79" viewBox="0 0 221 79" fill="none" xmlns="http://www.w3.org/2000/svg">
<path d="M203.25 19.4243H10.71C5.34732 19.4243 1 23.7716 1 29.1343V50.1643C1 55.527 5.34732 59.8743 10.71 59.8743H203.25C208.613 59.8743 212.96 55.527 212.96 50.1643V29.1343C212.96 23.7716 208.613 19.4243 203.25 19.4243Z" stroke="black" stroke-miterlimit="10"/>
<path d="M211.22 3.19412C209.61 0.344118 205.37 -1.22588 202.72 1.18412C201.38 2.40412 200.75 4.60412 201.93 6.14412C202.96 7.49412 204.98 7.91412 206.33 6.81412C206.83 6.40412 206.12 5.70412 205.62 6.10412C204.59 6.94412 202.9 6.20412 202.45 5.06412C201.87 3.58412 202.99 1.89412 204.33 1.30412C205.67 0.714117 207.23 1.02412 208.44 1.75412C209.8 2.57412 210.68 3.91412 210.99 5.46412C211.67 8.88412 209.75 12.3041 207.26 14.5141C204.8 16.7141 201.61 18.0041 198.4 18.5941C195.77 19.0741 193.11 19.1141 190.44 18.9641C189.1 19.2241 187.65 19.1741 186.32 19.1841C185.54 19.1841 184.75 19.2041 183.97 19.1641C184.05 19.3041 184.17 19.4141 184.37 19.4341C192.74 20.3141 202.92 21.0441 209.1 14.0841C211.63 11.2341 213.24 6.75412 211.21 3.18412L211.22 3.19412Z" fill="black"/>
<path d="M220.33 42.814C219.74 42.174 218.81 42.074 218.09 42.584C217.26 43.164 217.13 44.194 217.29 45.124C217.4 45.754 218.37 45.484 218.25 44.854C218.17 44.384 218.19 43.824 218.56 43.474C218.86 43.194 219.26 43.174 219.56 43.464C220.21 44.094 219.85 45.064 219.46 45.714C219.08 46.364 218.61 47.084 217.99 47.524C217.2 48.084 216.31 47.784 215.73 47.054C215.19 46.374 214.89 45.494 214.61 44.684C214.31 43.844 214.07 42.974 213.89 42.104C213.6 40.714 213.46 39.304 213.47 37.894C213.26 37.354 213.17 36.814 213.13 36.214C213.13 36.144 213.13 36.084 213.13 36.014C212.86 35.984 212.55 36.134 212.53 36.484C212.39 38.564 212.55 40.654 213.01 42.694C213.25 43.744 213.57 44.764 213.96 45.764C214.29 46.574 214.64 47.434 215.29 48.044C215.91 48.634 216.78 48.974 217.64 48.774C218.46 48.584 219.08 47.964 219.58 47.324C220.53 46.094 221.64 44.204 220.34 42.804L220.33 42.814Z" fill="black"/>
<path d="M172.61 59.4641C172.45 59.4641 172.3 59.4441 172.15 59.4141C168.45 59.9841 164.58 60.9641 161.53 63.1941C158.75 65.2141 156.62 68.3841 156.83 71.9341C157.01 75.0941 159.48 79.0341 163.13 78.4141C164.75 78.1341 166.26 76.5541 165.92 74.8341C165.61 73.2541 163.82 72.2641 162.36 72.9541C161.78 73.2341 162.29 74.0941 162.86 73.8141C163.42 73.5541 164.04 73.7841 164.46 74.1941C164.99 74.7141 165.09 75.4441 164.77 76.1041C164.06 77.5641 162.24 77.7341 160.92 77.0841C158.26 75.7641 157.36 72.3741 158.04 69.6541C159.69 63.0541 167.62 60.9941 173.46 60.2241C177.41 59.7041 181.44 59.7441 185.38 60.3441C185.85 60.4141 186.11 59.9041 185.96 59.6041C181.51 59.9141 177.07 59.4941 172.62 59.4741L172.61 59.4641Z" fill="black"/>
</svg>
