<svg width="267" height="369" viewBox="0 0 267 369" fill="none" xmlns="http://www.w3.org/2000/svg">
<g clip-path="url(#clip0_7278_885)">
<path d="M249.56 200.014C247.799 196.529 245.483 193.222 243.345 189.975C241.187 186.688 238.95 183.421 236.674 180.213C232.141 173.837 227.35 167.639 222.342 161.619C219.491 158.194 216.562 154.808 213.572 151.501C213.454 151.362 213.256 151.56 213.375 151.699C223.708 163.461 233.229 175.936 241.84 189.024C244.176 192.569 246.274 196.292 248.689 199.777C247.64 199.539 246.908 198.747 246.67 197.638C246.651 197.499 246.433 197.559 246.453 197.697C246.67 199.143 247.779 200.232 249.204 200.47C249.461 200.509 249.659 200.291 249.521 200.054L249.56 200.014Z" fill="black"/>
<path d="M261.24 275.498C259.24 281.834 257.122 288.151 254.885 294.408C252.649 300.665 250.214 306.843 248.016 313.12C247.977 313.219 248.155 313.299 248.195 313.2C250.827 307.18 252.985 300.943 255.123 294.725C257.32 288.369 259.379 281.953 261.339 275.518C261.359 275.438 261.24 275.418 261.22 275.478L261.24 275.498Z" fill="black"/>
<path d="M254.787 282.943C254.826 282.804 254.628 282.765 254.569 282.883C252.292 289.042 249.858 295.14 247.383 301.219C242.038 309.021 236.713 316.843 231.488 324.744C230.339 321.912 230.795 318.744 232.834 316.387C232.913 316.308 232.794 316.189 232.715 316.269C230.438 318.724 229.785 322.427 231.171 325.516C231.27 325.734 231.567 325.674 231.666 325.516C236.812 317.892 241.84 310.209 246.849 302.526C246.215 304.071 245.602 305.615 244.968 307.14C243.246 311.239 241.484 315.298 239.703 319.358C238.832 321.318 237.961 323.298 237.07 325.258C236.615 326.268 236.139 327.278 235.684 328.308C235.585 328.526 235.288 329.496 235.11 329.615C234.14 330.308 233.645 328.585 234.556 328.209C234.675 328.149 234.635 327.951 234.496 327.991C233.17 328.466 234.002 330.961 235.189 330.407C235.605 330.209 235.902 329.179 236.08 328.803C236.575 327.813 237.05 326.803 237.505 325.773C238.416 323.813 239.287 321.872 240.178 319.892C243.088 313.378 245.8 306.784 248.393 300.15C248.848 299.457 249.303 298.764 249.739 298.071C249.798 297.972 249.64 297.873 249.58 297.972C249.303 298.368 249.046 298.764 248.789 299.14C249.105 298.289 249.462 297.457 249.778 296.626C251.501 292.091 253.163 287.517 254.767 282.943H254.787Z" fill="black"/>
<path d="M267 247.795C267 247.676 266.842 247.696 266.822 247.795C266.743 249.082 266.624 250.35 266.525 251.617C266.149 245.954 265.515 240.33 264.585 234.726C264.446 232.449 264.248 230.192 264.051 227.934C267.059 212.133 265.06 195.401 258.646 180.668C251.52 164.273 238.693 150.332 223.015 141.778C220.996 140.669 218.897 139.64 216.759 138.689C211.197 135.501 205.496 132.511 199.735 129.68C195.38 122.115 191.679 114.175 188.155 106.155C184.533 97.918 180.95 89.6806 177.268 81.4828C177.208 81.3244 176.931 81.364 176.892 81.5224C175.308 91.7796 181.86 100.571 188.175 107.977C190.61 113.581 193.104 119.165 195.895 124.591C196.647 126.076 197.439 127.521 198.251 128.967C195.895 127.818 193.539 126.69 191.184 125.581C190.887 125.442 190.55 125.6 190.432 125.858C188.195 124.214 185.938 122.61 183.622 121.125C183.563 121.086 183.483 121.185 183.543 121.244C185.978 123.264 188.492 125.185 191.025 127.086C191.56 127.858 192.114 128.63 192.708 129.363C190.649 128.095 188.492 126.947 186.294 125.937C186.354 125.719 186.433 125.482 186.492 125.264C186.532 125.125 186.334 125.066 186.274 125.204C186.195 125.402 186.136 125.62 186.077 125.838C185.938 125.779 185.799 125.699 185.661 125.64C184.671 124.294 183.701 122.927 182.731 121.561C182.672 121.462 182.494 121.561 182.573 121.66C182.83 122.056 183.127 122.432 183.384 122.828C183.266 122.828 183.167 122.848 183.048 122.868C181.642 119.719 180.257 116.551 178.851 113.403C178.792 113.264 178.594 113.403 178.653 113.522C179.999 116.65 181.345 119.779 182.692 122.907C181.662 122.987 180.653 123.105 179.643 123.303C179.148 123.125 178.634 122.967 178.119 122.808L178.059 122.571C178.119 118.056 178.158 113.522 178.158 108.987C178.158 108.868 177.98 108.868 177.98 108.987C177.941 112.888 177.881 116.809 177.802 120.709C177.762 120.63 177.683 120.65 177.624 120.709C177.604 120.61 177.584 120.492 177.545 120.393C177.208 118.888 176.892 117.383 176.555 115.878C176.357 111.68 176.159 107.502 175.961 103.304C175.961 103.066 175.961 102.829 175.961 102.591C175.961 102.591 175.961 102.591 175.941 102.571C175.902 101.522 175.842 100.453 175.783 99.4031C175.783 99.3635 175.743 99.3437 175.724 99.3437C175.704 98.6111 175.664 97.8784 175.625 97.1656C175.684 95.0666 176.08 92.9875 176.793 90.9677C176.832 92.3538 176.872 93.7399 176.892 95.126C176.892 95.225 177.05 95.225 177.05 95.126C177.05 93.5221 177.05 91.938 177.05 90.3341C177.96 93.0469 178.871 95.7399 179.821 98.4329C179.861 98.5121 179.98 98.4725 179.96 98.3933C178.455 93.7003 176.891 89.047 175.308 84.3936C175.565 84.4926 175.922 84.3342 175.803 84.0174C175.526 83.2649 175.229 82.5125 174.932 81.7402C174.932 81.4036 174.892 81.067 174.892 80.7502C174.892 80.6116 174.655 80.5918 174.655 80.7502V81.0274C173.586 78.1958 172.457 75.4038 171.27 72.6316C171.151 72.2949 171.032 71.9583 170.913 71.6217C170.953 70.196 171.032 68.7505 171.151 67.3248C171.151 67.2258 171.032 67.2456 171.012 67.3248C170.874 68.5327 170.775 69.7406 170.676 70.9286C170.26 69.7406 169.864 68.5723 169.468 67.3842C169.448 67.305 169.33 67.3446 169.349 67.4238C169.726 68.5723 170.121 69.7406 170.498 70.889C168.993 67.4436 167.41 64.0377 165.727 60.6715C165.727 60.6319 165.687 60.5923 165.687 60.5725C162.322 53.3252 158.62 46.2362 154.622 39.3057C152.325 35.3454 149.95 31.4644 147.476 27.6229C147.436 27.5437 147.317 27.6229 147.357 27.7021C151.692 34.6326 155.75 41.7611 159.491 49.048C156.601 44.0383 153.533 39.1077 150.247 34.3356C150.168 34.197 149.95 34.3356 150.029 34.4544C155.651 42.8502 160.679 51.642 165.133 60.7111C161.906 54.434 158.323 48.3352 154.345 42.4938C151.85 38.8305 149.198 35.2464 146.446 31.7812C146.367 31.6822 146.169 31.8208 146.248 31.9396C155.75 44.2759 163.668 57.8597 169.706 72.1959C169.983 72.889 170.24 73.6018 170.517 74.2949C170.478 75.3444 170.458 76.4136 170.458 77.4631C169.785 76.6117 169.132 75.7206 168.518 74.7899C168.459 74.6909 168.3 74.7899 168.36 74.8889C169.013 75.9582 169.726 76.9879 170.458 77.9978C170.458 78.2552 170.458 78.5126 170.458 78.77C169.508 77.7799 168.577 76.7701 167.667 75.7206C166.42 72.7306 164.955 69.8198 163.53 66.9486C161.708 63.2655 159.769 59.622 157.749 56.038C153.652 48.7312 149.178 41.6225 144.388 34.7514C141.775 31.0089 139.063 27.3259 136.252 23.7022C136.212 23.6428 136.093 23.722 136.133 23.7814C146.07 36.9098 154.78 50.949 162.263 65.6021C163.767 68.5327 165.133 71.5425 166.578 74.5127C163.926 71.3643 161.491 68.0376 159.175 64.612C159.056 63.7407 158.957 62.8893 158.818 62.018C158.799 61.8398 158.521 61.919 158.541 62.0972C158.62 62.7506 158.7 63.4239 158.779 64.0773C156.225 60.2557 153.81 56.3152 151.514 52.2955C151.138 51.3648 150.781 50.4143 150.405 49.4837C148.742 45.4442 146.981 41.4443 145.061 37.5236C145.021 37.4444 144.863 37.5038 144.902 37.583C146.248 40.9096 147.575 44.2561 148.881 47.5827C147.674 45.4046 146.486 43.2264 145.298 41.0285C145.278 40.9691 145.199 41.0285 145.219 41.0681C146.605 43.7017 148.01 46.3352 149.435 48.9886C153.592 59.7804 157.413 70.6712 160.58 81.8392C160.62 81.9977 160.659 82.1561 160.719 82.3343C160.956 85.2253 161.154 88.0965 161.332 90.9875C161.253 90.8885 161.154 90.7895 161.075 90.7103C160.976 90.6113 160.837 90.7499 160.917 90.8687C161.055 91.0469 161.194 91.2251 161.332 91.4033C162.203 106.947 162.144 122.531 161.055 138.056C160.56 145.144 159.769 152.214 159.135 159.303C159.135 159.481 159.432 159.52 159.452 159.342C161.57 146.907 162.263 134.155 162.56 121.581C162.797 111.799 162.599 102.017 162.005 92.2548C162.738 93.1459 163.45 94.0369 164.123 94.9676C164.321 95.2448 164.717 95.0666 164.658 94.7498C164.025 90.8489 162.896 87.0074 161.847 83.2055C161.59 82.2749 161.313 81.3442 161.055 80.4333C160.58 75.5424 159.986 70.6514 159.313 65.8001C161.926 69.7406 164.737 73.5226 167.845 77.0671C168.023 77.4037 168.182 77.7601 168.36 78.0968C168.399 78.1958 168.558 78.1166 168.538 78.0176C168.498 77.9186 168.459 77.8195 168.419 77.7205C169.072 78.4532 169.745 79.1462 170.418 79.8393C170.577 86.4332 171.369 93.0271 172.457 99.5615C172.596 108.274 172.635 116.967 172.556 125.68C172.259 125.838 171.943 125.957 171.646 126.115C171.388 126.254 171.349 126.709 171.646 126.848C171.943 126.987 172.24 127.145 172.537 127.284C172.457 134.927 172.319 142.57 172.081 150.214C171.923 155.105 171.725 159.996 171.527 164.867C170.003 163.401 169.29 161.362 169.488 159.243C169.488 159.124 169.33 159.144 169.31 159.243C169.013 161.659 169.904 163.837 171.567 165.56C171.705 165.698 171.943 165.58 171.943 165.401C172.596 152.768 172.893 140.115 172.952 127.462C173.843 127.897 174.734 128.333 175.625 128.788C175.625 129.105 175.625 129.422 175.625 129.739C175.367 132.531 175.13 135.323 174.892 138.115C174.892 137.303 174.892 136.511 174.853 135.699C174.853 135.541 174.615 135.541 174.615 135.699C174.635 137.462 174.615 139.244 174.655 141.006C174.16 147.402 173.744 153.798 173.408 160.194C173.348 160.194 173.269 160.194 173.289 160.293C173.309 160.609 173.328 160.906 173.368 161.223C173.19 164.57 173.071 167.916 172.932 171.263C172.398 173.421 171.863 175.579 171.349 177.757C170.181 182.807 168.894 187.916 168.102 193.044C168.043 193.44 168.577 193.618 168.716 193.222C169.33 191.5 169.983 189.797 170.636 188.094C170.696 187.955 170.458 187.876 170.418 187.995C170.121 188.668 169.805 189.322 169.508 189.975C170.28 186.609 170.933 183.203 171.705 179.856C172.042 178.352 172.418 176.847 172.774 175.342C172.616 179.856 172.537 184.371 172.457 188.886C171.507 195.698 170.597 202.509 169.805 209.341C169.785 209.598 169.745 209.856 169.706 210.093C169.33 206.311 168.934 202.529 168.558 198.727C168.558 198.589 168.32 198.589 168.34 198.727C168.716 203.123 169.112 207.539 169.488 211.935C169.072 215.321 168.657 218.727 168.399 222.133C168.36 222.133 168.3 222.152 168.3 222.212C168.261 223.182 168.221 224.132 168.201 225.103C168.201 225.38 168.637 225.439 168.676 225.162C169.171 222.034 169.488 218.865 169.825 215.697C169.943 217.103 170.062 218.509 170.201 219.935C170.22 220.192 170.557 220.311 170.696 220.073C171.408 218.925 171.982 217.737 172.457 216.489C172.358 218.014 172.24 219.539 172.121 221.043C171.883 220.865 171.448 221.043 171.547 221.42C171.685 221.974 171.824 222.548 171.982 223.103C171.923 223.855 171.883 224.627 171.824 225.38C171.685 227.142 171.527 228.924 171.369 230.687C171.131 232.271 170.874 233.855 170.616 235.459C169.983 234.588 169.349 233.697 168.696 232.825C167.093 215.974 166.776 199.004 167.904 182.114C168.3 176.233 168.855 170.372 169.587 164.53C169.587 164.411 169.409 164.411 169.409 164.53C166.657 185.084 165.984 205.895 167.469 226.588C167.588 228.35 167.766 230.112 167.924 231.875C167.825 231.835 167.706 231.835 167.627 231.954C166.004 234.489 165.767 237.459 166.103 240.389C165.588 241.795 165.113 243.201 164.579 244.587C164.242 243.855 163.926 243.122 163.589 242.389C165.093 237.855 166.4 233.241 167.469 228.627C167.508 228.489 167.291 228.429 167.251 228.568C166.123 233.023 164.797 237.399 163.272 241.696C163.213 241.558 163.154 241.419 163.094 241.3C163.767 239.3 164.42 237.3 164.994 235.281C165.034 235.162 164.836 235.102 164.797 235.221C164.143 237.023 163.45 238.805 162.777 240.587C162.619 240.231 162.461 239.894 162.322 239.558C162.144 239.122 161.491 239.439 161.59 239.875C161.768 240.647 161.986 241.419 162.184 242.172C159.788 248.33 157.235 254.429 154.424 260.409C155.018 257.993 155.611 255.597 156.205 253.181C157.215 251.854 158.224 250.528 159.234 249.201C159.353 249.043 159.076 248.825 158.957 248.983C158.106 250.053 157.274 251.142 156.443 252.211C156.443 252.152 156.463 252.092 156.482 252.053C156.482 252.013 156.463 251.993 156.443 251.973C157.631 250.27 158.838 248.567 160.046 246.865C160.125 246.766 159.947 246.667 159.867 246.766C158.502 248.666 157.136 250.567 155.77 252.468C156.403 250.548 157.057 248.647 157.789 246.785C157.848 246.647 157.611 246.568 157.571 246.686C156.581 249.023 155.691 251.379 154.839 253.755C153.454 255.676 152.108 257.617 150.762 259.537C150.168 260.31 149.574 261.062 148.96 261.834C149.534 260.666 150.108 259.498 150.682 258.31C151.652 256.627 152.622 254.924 153.592 253.241C156.463 248.27 159.293 243.28 162.124 238.29C162.243 238.092 161.926 237.914 161.807 238.112C158.898 243.063 155.988 248.013 153.117 252.983C153.058 253.102 152.979 253.221 152.919 253.32C153.236 252.607 153.553 251.894 153.85 251.161C153.929 250.963 153.632 250.805 153.493 250.944C150.504 254.092 147.396 257.082 144.546 260.389C141.893 263.478 139.399 266.725 137.083 270.072C132.273 277.002 128.234 284.448 125.008 292.23C124.968 292.329 125.008 292.428 125.067 292.507C124.216 293.616 123.345 294.725 122.494 295.833C121.029 297.734 119.426 299.596 118.159 301.635C118 301.893 118.297 302.13 118.555 302.031C120.336 301.239 121.761 299.893 122.593 298.111C122.672 297.952 122.434 297.814 122.355 297.972C121.643 299.2 120.732 300.19 119.564 300.903C122.019 298.111 124.176 294.962 126.433 292.032L127.799 290.249C131.659 286.25 135.519 282.23 139.379 278.23C136.588 283.26 133.738 288.25 130.768 293.18C130.511 293.616 131.144 293.972 131.441 293.576C135.737 287.774 139.419 281.497 142.527 274.963C145.456 271.913 148.386 268.884 151.316 265.834C151.177 266.409 151.039 266.983 150.92 267.557C150.841 267.973 151.415 268.25 151.613 267.854C151.85 267.399 152.088 266.923 152.325 266.448C152.306 266.745 152.702 266.904 152.86 266.626C154.543 263.676 156.126 260.646 157.571 257.577C155.889 262.27 154.74 267.141 154.166 272.111C154.166 272.111 154.166 272.151 154.166 272.191C154.127 272.527 154.602 272.527 154.701 272.27C157.908 264.211 160.699 256.013 163.629 247.855C166.242 257.537 169.369 267.082 173.031 276.428C173.229 276.923 173.902 276.725 173.823 276.21C173.21 271.696 172.616 267.161 172.022 262.646C173.15 264.963 174.318 267.24 175.486 269.537C175.862 270.329 176.199 271.141 176.595 271.933C178.257 275.379 180.098 278.725 182.038 282.032C182.889 286.349 183.701 290.665 184.473 295.002C185.166 298.823 185.799 302.645 186.413 306.467C186.829 309.021 187.165 311.595 187.581 314.17C187.146 315.635 187.423 317.08 188.353 318.288C188.472 318.447 188.789 318.308 188.769 318.11C188.432 314.308 187.72 310.526 187.106 306.764C186.472 302.863 185.799 298.962 185.087 295.061C184.493 291.794 183.84 288.527 183.186 285.26C184.354 289.616 185.681 293.952 187.165 298.21C187.244 298.467 187.541 298.487 187.7 298.289C188.591 297.101 188.729 295.695 188.65 294.249C188.531 292.23 188.214 290.23 187.997 288.23C187.541 284.071 187.086 279.913 186.611 275.755C186.195 272.092 185.78 268.408 185.364 264.745C185.918 265.953 186.472 267.141 187.066 268.329C187.225 268.646 187.799 268.507 187.759 268.151C187.68 267.438 187.561 266.725 187.482 266.013C187.838 266.785 188.195 267.557 188.551 268.329C188.749 268.785 189.422 268.389 189.224 267.933C188.472 266.151 187.759 264.349 187.047 262.567C186.789 260.587 186.492 258.587 186.215 256.607C188.432 261.676 190.253 266.923 191.639 272.29C191.778 273.22 191.896 274.131 192.035 275.062C192.114 275.557 192.213 276.072 192.213 276.567C192.213 277.002 192.134 277.418 191.956 277.814C191.223 278.705 190.57 278.606 189.996 277.537C189.996 277.438 189.857 277.438 189.838 277.537C189.798 278.21 190.333 278.586 190.966 278.626C191.877 278.685 192.371 277.973 192.51 277.141C192.55 276.864 192.55 276.567 192.55 276.27C193.242 279.537 193.797 282.824 194.173 286.131C194.212 286.448 194.707 286.467 194.688 286.131C193.658 272.666 192.055 259.201 190.808 245.756C190.808 245.676 190.669 245.657 190.669 245.756C191.52 256.924 192.292 268.151 193.44 279.299C193.144 277.893 192.827 276.487 192.49 275.101C192.371 274.151 192.154 273.181 192.035 272.309C191.738 270.21 191.421 268.131 191.105 266.032C189.838 257.835 188.412 249.676 186.829 241.538C185.898 236.825 184.928 232.132 183.919 227.459C183.899 227.36 183.741 227.4 183.76 227.499C185.522 235.934 187.126 244.409 188.571 252.904C189.283 257.062 189.976 261.24 190.61 265.418C190.907 267.339 191.184 269.26 191.481 271.181C190.036 265.973 188.234 260.864 186.116 255.854C184.434 243.894 182.414 231.954 179.841 220.152C179.821 220.053 179.683 220.093 179.683 220.192C181.642 231.241 183.444 242.29 185.047 253.399C184.612 252.429 184.176 251.439 183.701 250.488C183.642 250.35 183.384 250.409 183.404 250.567C183.523 251.795 183.662 253.023 183.78 254.25C181.425 248.152 179.148 242.033 177.03 235.835C178.732 218.568 179.544 201.202 179.425 183.837C179.386 178.114 179.247 172.411 179.029 166.688C179.029 166.57 178.851 166.57 178.851 166.688C179.623 186.926 179.188 207.202 177.505 227.4C177.287 229.994 177.05 232.568 176.793 235.142C175.486 231.281 174.219 227.4 173.012 223.499C174.12 214.588 174.971 205.658 175.605 196.707C176.476 184.431 176.971 172.154 177.268 159.857C177.505 158.372 177.703 156.867 177.941 155.382C177.941 161.996 177.941 168.609 177.941 175.223C177.941 175.302 178.059 175.302 178.059 175.223C178.079 168.213 178.059 161.203 178.059 154.214C179.128 150.253 180.237 146.313 181.345 142.372C182.157 146.273 183.028 150.154 184.216 153.917C184.255 154.055 184.513 154.035 184.493 153.877C183.919 149.362 182.889 144.907 181.88 140.452C181.88 140.392 181.92 140.333 181.92 140.273C182.513 138.214 183.127 136.174 183.741 134.135C185.225 135.283 186.849 136.254 188.61 136.966C188.61 136.986 188.63 137.026 188.65 137.046C190.333 140.966 192.035 144.867 193.757 148.788C195.46 152.669 196.984 156.709 199.023 160.431C199.082 160.53 199.24 160.471 199.201 160.352C197.914 156.471 196.053 152.709 194.41 148.966C192.708 145.065 191.006 141.145 189.264 137.244C189.363 137.283 189.462 137.343 189.58 137.382C190.115 137.561 190.333 136.828 189.937 136.551C189.481 136.214 188.986 135.917 188.531 135.58C187.482 133.224 186.433 130.868 185.404 128.491C185.562 127.977 185.7 127.462 185.859 126.947C185.978 127.006 186.116 127.066 186.255 127.125C187.858 129.383 189.501 131.6 191.164 133.818C191.006 133.818 190.827 133.838 190.669 133.858C190.57 133.858 190.57 134.016 190.669 134.016C190.867 134.016 191.085 134.016 191.283 133.996C197.36 142.055 203.833 149.798 210.801 157.105C213.79 160.233 216.759 163.481 220.144 166.174C220.283 166.273 220.441 166.114 220.323 165.995C217.868 163.164 215.116 160.609 212.523 157.916C209.93 155.223 207.376 152.471 204.882 149.699C200.309 144.63 195.974 139.362 191.778 133.976C193.559 133.877 195.321 133.897 197.083 134.036C198.29 135.085 199.518 136.095 200.864 136.966C201.359 137.303 201.952 136.531 201.517 136.135C200.785 135.481 200.052 134.868 199.3 134.254C199.676 134.293 200.052 134.372 200.448 134.412C200.982 134.808 201.497 135.224 202.032 135.62C203.774 138.353 205.615 141.026 207.614 143.62C212.068 149.382 217.017 154.709 222.223 159.778C228.201 165.58 234.536 171.025 241.068 176.173C241.226 176.312 241.484 176.074 241.306 175.936C230.537 166.134 219.372 156.709 210.148 145.362C208.03 142.768 206.09 140.055 204.229 137.303C205.516 138.293 206.822 139.283 208.129 140.273C214.978 145.56 221.926 150.768 228.637 156.233C229.349 157.124 230.062 157.996 230.755 158.906C232.695 161.481 234.555 164.134 236.357 166.827C233.071 163.441 229.725 160.134 226.202 156.986C222.401 153.58 218.462 150.332 214.404 147.224C214.285 147.125 214.127 147.342 214.245 147.422C223.015 154.728 231.309 162.57 239.029 170.926C242.691 176.728 246.017 182.728 248.966 188.925C250.115 191.321 251.164 193.757 252.193 196.212C256.132 207.341 258.468 218.845 259.517 230.568C259.418 230.528 259.3 230.568 259.3 230.707C259.597 233.499 259.795 236.271 260.072 239.063C260.131 239.617 260.943 239.637 260.943 239.063C260.943 239.003 260.943 238.944 260.943 238.865C261.358 237.716 261.734 236.548 262.091 235.38C262.724 239.578 263.318 243.756 263.932 247.954C263.932 250.567 263.872 253.161 263.793 255.775C263.041 251.34 262.309 246.884 261.536 242.449C261.517 242.29 261.24 242.33 261.259 242.488C262.012 248.449 262.883 254.409 263.674 260.369C263.754 260.884 264.506 260.726 264.545 260.25C264.684 258.25 264.763 256.231 264.823 254.231C265.08 255.993 265.317 257.736 265.575 259.498C265.021 264.112 264.328 268.725 263.496 273.299C262.764 277.359 261.893 281.378 260.923 285.398C260.032 289.101 258.844 292.764 258.013 296.487C257.973 295.952 257.934 295.418 257.874 294.883C257.874 294.725 257.617 294.725 257.637 294.883C257.657 295.873 257.716 296.883 257.696 297.893C257.696 298.17 258.053 298.19 258.152 297.952C259.775 294.051 260.666 289.695 261.635 285.596C262.625 281.418 263.457 277.22 264.169 273.002C264.862 268.904 265.416 264.805 265.852 260.666C266.129 260.924 266.723 260.765 266.723 260.29C266.683 258.013 266.604 255.755 266.485 253.478C266.624 251.617 266.743 249.736 266.822 247.855L267 247.795ZM177.208 82.3145C180.217 89.4826 183.305 96.6309 186.373 103.779C186.928 105.066 187.482 106.334 188.036 107.621C182.137 100.611 175.605 91.8588 177.208 82.2947V82.3145ZM163.926 93.6409C163.332 92.9875 162.738 92.334 162.144 91.6608C162.005 89.542 161.847 87.4431 161.689 85.3441C162.401 88.1163 163.114 90.8885 163.926 93.6409ZM160.461 77.6017C159.887 75.6414 159.293 73.681 158.66 71.7405C156.76 65.8001 154.701 59.919 152.444 54.0974C154.543 57.8201 156.74 61.4834 159.076 65.0476C159.61 69.2257 160.065 73.4038 160.461 77.6017ZM126.968 290.131C126.829 290.309 126.71 290.467 126.572 290.646C126.532 290.685 126.492 290.725 126.453 290.764C129.501 283.596 133.203 276.705 137.598 270.27C139.953 266.805 142.487 263.478 145.199 260.29C147.634 257.419 150.227 254.508 153.058 251.993C151.534 254.904 150.128 257.874 148.663 260.825C147.693 262.508 146.763 264.211 145.852 265.933C139.557 274.012 133.243 282.071 126.968 290.15V290.131ZM140.29 276.705C137.222 279.834 134.133 282.943 131.065 286.071C132.213 284.586 133.342 283.101 134.49 281.616C137.994 277.062 141.478 272.507 144.962 267.973C144.209 269.418 143.477 270.864 142.725 272.29C141.933 273.775 141.101 275.22 140.29 276.705ZM151.534 265.28C148.742 268.111 145.951 270.963 143.16 273.794C143.398 273.299 143.635 272.804 143.873 272.309C143.932 272.171 143.734 272.052 143.655 272.171C145.041 269.577 146.407 266.963 147.773 264.329C148.644 263.181 149.534 262.052 150.405 260.904L154.226 255.894C153.196 258.983 152.286 262.112 151.553 265.28H151.534ZM152.682 264.112C152.682 264.112 152.603 264.191 152.543 264.25C153.295 261.003 154.186 257.795 155.176 254.627L155.968 253.577C155.156 256.508 154.345 259.438 153.533 262.369C153.256 262.943 152.959 263.518 152.682 264.112ZM154.543 262.23C157.571 256.033 160.303 249.676 162.579 243.162C162.619 243.32 162.659 243.459 162.698 243.617C160.362 249.973 157.631 256.171 154.562 262.23H154.543ZM155.057 269.953C155.671 264.745 156.977 259.656 158.917 254.785C160.382 251.458 161.728 248.053 162.936 244.627C163.173 245.538 163.391 246.449 163.629 247.34C160.738 254.864 157.749 262.369 155.057 269.953ZM183.483 122.947C183.483 122.947 183.483 122.947 183.503 122.927C184.077 123.779 184.691 124.61 185.285 125.442C184.849 125.244 184.434 125.046 183.998 124.868C183.721 124.254 183.444 123.64 183.167 123.006C183.266 123.006 183.384 122.967 183.483 122.947ZM182.81 123.046L183.503 124.65C182.474 124.234 181.444 123.838 180.395 123.462C181.187 123.284 181.999 123.145 182.81 123.026V123.046ZM176.317 124.808C176.317 124.808 176.476 124.749 176.555 124.709C176.595 125.878 176.634 127.046 176.674 128.194C176.555 128.135 176.436 128.076 176.317 128.016C176.317 126.947 176.317 125.878 176.317 124.789V124.808ZM175.486 85.3837C176.001 86.9084 176.535 88.4133 177.05 89.938C176.99 89.938 176.931 89.938 176.911 89.9974C176.278 91.4034 175.882 92.8885 175.644 94.3934C175.506 91.4231 175.387 88.4727 175.248 85.5025C175.347 85.5025 175.446 85.4629 175.506 85.3837H175.486ZM170.992 75.1265C171.626 76.7899 172.279 78.4532 172.913 80.1165C172.259 79.3839 171.646 78.6512 171.032 77.8988C171.012 76.9681 171.012 76.0572 170.992 75.1265ZM171.567 86.5124C171.369 84.453 171.23 82.3739 171.131 80.2947C172.081 81.2452 173.031 82.1759 174.021 83.0867C174.279 83.7798 174.536 84.453 174.793 85.1461C174.793 88.0173 174.813 90.8885 174.813 93.7597C174.813 98.0962 174.674 102.492 174.892 106.829C174.892 106.888 174.991 106.888 174.991 106.829C175.169 103.066 175.031 99.2645 175.031 95.4824C175.031 92.73 175.031 89.9776 175.031 87.2054C175.051 87.7797 175.07 88.3737 175.09 88.948C175.189 91.6014 175.288 94.2548 175.387 96.9081C175.347 97.9774 175.387 99.0467 175.506 100.136C175.506 100.294 175.684 100.334 175.783 100.294C175.803 101.047 175.823 101.799 175.862 102.552C175.902 105.759 175.902 108.967 175.902 112.175C174.1 103.68 172.438 95.1656 171.586 86.5124H171.567ZM173.071 111.363C173.031 107.819 172.932 104.274 172.853 100.75C172.853 100.75 172.853 100.75 172.853 100.769C173.744 105.957 174.793 111.126 175.902 116.274C175.902 118.947 175.862 121.62 175.842 124.274C174.932 124.591 174.041 124.967 173.17 125.383C173.17 120.709 173.17 116.036 173.091 111.363H173.071ZM173.15 126.452C173.15 126.452 173.15 126.353 173.15 126.293C174.021 125.818 174.932 125.383 175.823 125.006C175.823 125.917 175.823 126.848 175.803 127.759C174.912 127.303 174.041 126.868 173.15 126.432V126.452ZM175.763 130.709C175.644 138.848 175.446 147.006 175.169 155.144C175.169 149.778 175.13 144.412 175.051 139.046C175.268 136.273 175.506 133.481 175.743 130.709H175.763ZM174.021 154.174C174.259 150.154 174.536 146.115 174.833 142.095C174.892 149.521 174.853 156.926 174.754 164.352C174.556 165.124 174.377 165.877 174.199 166.649C174.041 164.59 173.883 162.55 173.704 160.51C173.803 158.392 173.902 156.293 174.021 154.174ZM173.605 162.372C173.744 164.055 173.883 165.738 174.001 167.441C173.744 168.451 173.506 169.461 173.269 170.471C173.368 167.778 173.487 165.085 173.605 162.392V162.372ZM173.13 174.371C173.467 172.906 173.823 171.441 174.18 169.995C174.279 171.56 174.358 173.144 174.377 174.708C174.377 174.847 174.457 174.906 174.536 174.965C174.536 175.302 174.516 175.619 174.496 175.956C173.902 179.738 173.348 183.52 172.814 187.302C172.893 183.005 172.992 178.688 173.13 174.391V174.371ZM172.774 192.232C173.289 188.391 173.784 184.549 174.318 180.708C173.982 191.282 173.506 201.876 172.833 212.43C172.754 208.252 172.715 204.074 172.715 199.895C172.715 197.341 172.754 194.787 172.774 192.232ZM170.755 218.964C170.557 217.103 170.379 215.242 170.181 213.38C170.24 212.905 170.28 212.41 170.339 211.935C170.854 207.321 171.408 202.707 172.002 198.113C172.16 196.787 172.358 195.46 172.537 194.133C172.477 200.905 172.497 207.697 172.616 214.469C172.141 216.014 171.547 217.539 170.755 218.984V218.964ZM170.636 236.172C170.359 237.993 170.102 239.815 169.785 241.637C169.468 239.023 169.191 236.409 168.934 233.796C169.508 234.588 170.082 235.38 170.636 236.172ZM170.498 241.479C170.339 243.3 170.181 245.122 170.023 246.944C169.904 246.112 169.785 245.28 169.646 244.449C169.825 244.508 170.003 244.449 170.042 244.211C170.201 243.3 170.319 242.37 170.478 241.459L170.498 241.479ZM169.666 250.27C169.27 249.914 168.993 249.498 168.815 249.023C168.756 248.825 168.716 248.647 168.657 248.449C168.558 247.934 168.577 247.399 168.756 246.845C168.795 246.726 168.597 246.667 168.558 246.785C168.459 247.043 168.439 247.3 168.419 247.538C168.182 246.647 167.904 245.775 167.687 244.904C167.291 243.261 166.895 241.538 166.736 239.795C167.172 238.647 167.588 237.498 168.043 236.37C168.538 241.003 169.092 245.637 169.686 250.251L169.666 250.27ZM168.003 232.528C168.003 232.528 168.083 232.627 168.122 232.687C168.281 234.39 168.439 236.073 168.637 237.756C168.518 237.023 168.419 236.31 168.3 235.578C168.261 235.399 168.003 235.419 167.964 235.578C167.568 236.766 167.113 237.914 166.697 239.102C166.558 236.805 166.855 234.548 168.023 232.528H168.003ZM166.301 240.924C166.756 244.37 167.746 247.756 168.716 251.082C169.27 252.944 169.864 254.805 170.478 256.646C170.498 256.825 170.537 257.023 170.557 257.201C168.577 253.102 166.677 248.963 164.816 244.805C165.291 243.498 165.806 242.211 166.301 240.904V240.924ZM172.655 272.646C169.409 264.052 166.598 255.3 164.242 246.429C164.302 246.251 164.361 246.092 164.42 245.914C166.539 250.647 168.696 255.359 170.953 260.033C171.527 264.23 172.101 268.448 172.655 272.646ZM186.077 274.705C186.512 278.705 186.948 282.685 187.403 286.685C187.621 288.646 187.838 290.606 188.056 292.546C188.234 294.17 188.472 295.913 187.68 297.378C186.077 292.744 184.612 288.052 183.305 283.319C183.582 283.279 183.8 283.002 183.642 282.705C183.305 282.091 182.988 281.458 182.652 280.824C181.86 277.814 181.128 274.785 180.494 271.735C180.435 271.498 180.079 271.597 180.138 271.834C180.633 274.131 181.068 276.448 181.543 278.745C179.208 274.369 176.931 269.973 174.694 265.537C173.605 263.003 172.556 260.448 171.626 257.854C171.586 257.755 171.567 257.676 171.527 257.577C171.131 254.627 170.715 251.696 170.3 248.746C170.775 244.964 171.151 241.162 171.468 237.36C172.932 239.498 174.358 241.677 175.743 243.875C175.803 244.053 175.862 244.251 175.922 244.429C175.961 244.548 176.06 244.548 176.139 244.488C177.545 246.746 178.891 249.043 180.217 251.359C181.603 255.359 183.127 259.28 184.849 263.161C185.265 267.003 185.681 270.844 186.096 274.686L186.077 274.705ZM186.849 265.755C186.275 264.547 185.74 263.32 185.206 262.112C185.146 261.597 185.087 261.082 185.027 260.587C185.542 261.617 186.077 262.626 186.571 263.656C186.67 264.349 186.769 265.062 186.849 265.755ZM183.939 251.399C184.394 252.31 184.829 253.201 185.265 254.132C185.542 256.013 185.819 257.914 186.057 259.795C185.502 258.389 184.968 256.963 184.414 255.557C184.255 254.171 184.097 252.785 183.919 251.399H183.939ZM184.572 260.706C183.859 259.023 183.167 257.339 182.533 255.617C183.206 256.864 183.8 258.151 184.453 259.419C184.493 259.854 184.533 260.27 184.592 260.706H184.572ZM176.971 237.578C179.208 244.092 181.563 250.587 184.097 257.003C183.087 255.082 182.038 253.161 180.95 251.28C179.465 247.003 178.139 242.667 176.892 238.29C176.911 238.053 176.951 237.815 176.971 237.578ZM179.148 248.211C178.218 246.667 177.287 245.142 176.317 243.617C176.456 242.488 176.555 241.34 176.694 240.211C177.466 242.884 178.297 245.558 179.168 248.211H179.148ZM176.436 239.419C176.298 240.686 176.179 241.934 176.021 243.201C175.922 243.043 175.823 242.884 175.724 242.726C174.259 237.894 173.625 232.885 173.328 227.855C174.318 231.716 175.347 235.578 176.436 239.419ZM175.07 241.716C173.922 239.954 172.754 238.231 171.527 236.508C171.626 235.399 171.725 234.291 171.824 233.182C172.18 230.746 172.497 228.311 172.814 225.875C172.853 226.033 172.893 226.192 172.932 226.35C173.17 231.538 173.685 236.726 175.07 241.736V241.716ZM173.269 216.865C173.19 217.578 173.091 218.271 173.012 218.984C173.012 218.588 173.012 218.212 172.992 217.816C173.071 216.747 173.15 215.677 173.21 214.628C173.388 214.014 173.546 213.4 173.685 212.786C173.546 214.153 173.427 215.519 173.269 216.885V216.865ZM174.694 197.757C174.397 202.232 174.298 206.965 173.388 211.44C173.506 209.539 173.625 207.638 173.744 205.757C174.298 196.054 174.674 186.351 174.912 176.629C175.209 174.53 175.486 172.451 175.803 170.352C176.001 168.985 176.218 167.639 176.416 166.273C175.941 176.767 175.387 187.262 174.694 197.757ZM176.555 163.322C176.1 165.976 175.664 168.609 175.229 171.263C175.387 168.906 175.506 166.55 175.605 164.193C175.961 162.768 176.337 161.362 176.713 159.956C176.674 161.085 176.595 162.213 176.555 163.342V163.322ZM176.852 156.491C176.476 157.857 176.1 159.243 175.743 160.609C175.882 155.976 175.981 151.362 176.08 146.748C176.218 140.828 176.278 134.927 176.317 129.006C176.456 129.066 176.575 129.145 176.713 129.224C176.891 134.135 177.07 139.046 177.307 143.976C177.169 148.154 177.03 152.332 176.852 156.511V156.491ZM177.228 128.491C177.169 127.165 177.109 125.838 177.05 124.511C177.109 124.492 177.188 124.452 177.248 124.432C177.367 124.808 177.466 125.204 177.604 125.581C177.604 126.61 177.565 127.64 177.565 128.67C177.446 128.61 177.327 128.531 177.228 128.472V128.491ZM177.525 153.956C177.565 151.996 177.604 150.035 177.644 148.075C177.644 147.125 177.644 146.174 177.683 145.204C177.802 145.184 177.901 145.105 177.901 144.966C177.941 144.214 178.02 143.481 178.059 142.729C178.059 145.798 178.059 148.867 178.059 151.936C177.881 152.61 177.703 153.283 177.525 153.956ZM178.218 151.382C178.218 148.273 178.218 145.164 178.218 142.055C178.218 141.996 178.158 141.976 178.119 141.996C178.178 141.303 178.218 140.61 178.277 139.917C178.277 139.739 178.04 139.758 178.02 139.917C177.941 140.511 177.861 141.085 177.782 141.679C177.782 141.481 177.782 141.263 177.763 141.065C177.822 138.927 177.901 136.768 177.941 134.63C177.98 133.066 178 131.501 178.02 129.937C178.356 130.115 178.673 130.293 179.01 130.491C179.307 131.858 179.623 133.244 179.92 134.61C180.375 136.749 180.831 138.907 181.266 141.085C180.237 144.511 179.208 147.956 178.238 151.402L178.218 151.382ZM181.781 139.244C181.642 138.59 181.484 137.917 181.345 137.264L179.98 131.026C180.494 131.323 181.009 131.62 181.524 131.917C182.137 132.59 182.81 133.204 183.523 133.778C182.949 135.6 182.335 137.422 181.781 139.244ZM182.296 131.363C180.89 129.818 179.742 128.036 178.911 126.115L178.455 124.056C178.455 124.056 178.633 124.016 178.713 123.977C180.534 124.571 182.315 125.244 184.077 125.996C184.453 126.868 184.829 127.739 185.206 128.61C184.79 129.878 184.374 131.165 183.958 132.452C183.404 132.095 182.87 131.719 182.296 131.382V131.363ZM187.957 134.986C186.769 134.174 185.542 133.422 184.315 132.65C184.671 131.442 185.027 130.234 185.384 129.026C186.235 131.006 187.086 133.006 187.937 134.986H187.957ZM241.167 156.451C254.371 169.777 262.605 187.401 264.288 206.093C264.862 212.509 264.664 218.984 263.793 225.38C263.397 221.756 262.922 218.152 262.289 214.568C262.269 214.45 262.071 214.469 262.071 214.588C262.566 219.103 263.021 223.637 263.358 228.152C263.358 228.172 263.358 228.192 263.358 228.212C262.328 223.241 261.121 218.311 259.656 213.459C259.597 213.281 259.537 213.103 259.478 212.905C258.607 208.034 257.696 203.163 256.726 198.311C256.924 198.45 257.122 198.589 257.34 198.727C257.617 198.905 257.934 198.727 258.033 198.45C259.517 194.43 256.805 190.609 254.47 187.52C252.49 178.807 249.976 170.055 245.146 162.471C241.266 156.352 235.981 151.402 230.161 147.164C234.08 149.936 237.782 153.045 241.167 156.471V156.451ZM256.469 196.965C256.053 194.945 255.657 192.906 255.222 190.886C255.123 190.47 255.044 190.054 254.945 189.619C256.647 192.094 257.914 194.807 257.3 197.539C257.003 197.361 256.746 197.143 256.469 196.945V196.965ZM191.817 133.699C191.342 133.085 190.827 132.472 190.352 131.858C189.184 130.353 188.036 128.808 186.908 127.284C190.016 128.828 193.005 130.63 195.816 132.67C196.172 133.006 196.548 133.303 196.905 133.64C195.222 133.561 193.52 133.6 191.817 133.719V133.699ZM198.983 133.778C198.231 133.184 197.459 132.59 196.687 132.036C195.855 131.244 195.064 130.412 194.292 129.541C194.767 129.897 195.262 130.254 195.737 130.63C197.182 131.719 198.607 132.808 200.032 133.917C199.676 133.877 199.339 133.838 198.983 133.798V133.778ZM198.785 132.095C196.746 130.571 194.727 129.046 192.688 127.521C192.668 127.482 192.649 127.462 192.629 127.422C194.826 128.452 197.023 129.501 199.221 130.59C199.854 131.699 200.488 132.808 201.161 133.877C200.369 133.283 199.597 132.689 198.805 132.095H198.785ZM200.705 131.343C203.774 132.868 206.842 134.452 209.871 136.056C207.456 135.283 204.981 134.67 202.487 134.234C201.893 133.264 201.279 132.313 200.705 131.343ZM239.722 170.035C237.267 166.193 234.654 162.352 231.863 158.669C232.22 158.966 232.596 159.263 232.972 159.58C236.218 162.332 239.544 165.857 239.92 170.233C239.861 170.174 239.801 170.114 239.722 170.035ZM236.357 161.659C234.258 159.382 231.824 157.402 229.329 155.501C228.557 154.55 227.785 153.639 226.994 152.728C227.409 153.105 227.845 153.481 228.26 153.857C228.32 153.917 228.419 153.818 228.359 153.758C226.796 152.214 225.232 150.669 223.727 149.085C223.49 148.828 223.153 149.204 223.351 149.461C224.4 150.768 225.469 152.055 226.538 153.342C226.004 152.926 225.45 152.511 224.915 152.095C217.749 146.471 210.504 140.947 203.239 135.481C203.081 135.224 202.922 134.967 202.764 134.709C206.268 135.422 209.712 136.491 213.038 137.818C215.394 139.105 217.769 140.392 220.085 141.758C228.557 146.709 236.891 152.491 242.77 160.491C248.293 168.015 251.144 176.985 253.262 185.975C250.827 182.807 248.313 179.698 245.7 176.688C243.938 174.649 242.117 172.649 240.276 170.669C240.474 167.243 238.653 164.193 236.337 161.699L236.357 161.659ZM251.441 191.5C251.441 191.5 251.401 191.5 251.401 191.46C248.749 185.638 245.76 179.975 242.493 174.49C245.443 177.797 248.333 181.183 251.085 184.668C251.876 185.678 252.827 186.787 253.777 187.995C253.797 188.114 253.836 188.252 253.856 188.371C254.43 190.985 255.004 193.618 255.539 196.252C253.895 194.925 252.51 193.341 251.461 191.48L251.441 191.5ZM255.776 197.618C256.41 200.747 257.003 203.876 257.577 207.004C256.152 202.866 254.549 198.767 252.827 194.747C253.717 195.797 254.687 196.767 255.796 197.618H255.776ZM261.121 238.132C261.002 228.053 259.498 217.954 256.904 208.153C257.617 210.291 258.31 212.45 258.943 214.608C259.359 216.984 259.755 219.36 260.151 221.756C260.844 225.954 261.497 230.152 262.13 234.37C261.833 235.637 261.477 236.904 261.121 238.152V238.132ZM261.358 223.776C261.913 226.152 262.427 228.548 262.883 230.944C262.803 231.281 262.724 231.617 262.645 231.974C262.21 229.241 261.794 226.509 261.358 223.776ZM262.843 233.202C262.942 232.865 263.041 232.528 263.12 232.192C263.219 232.706 263.318 233.221 263.417 233.736C263.615 234.865 263.773 235.994 263.932 237.142C263.932 237.201 263.932 237.281 263.932 237.34C263.971 238.508 264.011 239.657 264.031 240.825C263.655 238.29 263.219 235.756 262.823 233.202H262.843Z" fill="black"/>
<path d="M255.281 271.418C246.096 288.804 236.059 305.754 225.073 322.07C225.073 322.07 225.073 322.07 225.053 322.07C212.186 330.842 199.379 339.714 186.63 348.644C191.084 343.416 196.192 338.803 201.853 334.922C203.555 333.813 205.278 332.724 207.02 331.654C207.455 331.397 207.059 330.704 206.624 330.961C194.786 337.892 183.819 346.248 173.882 355.693C165.192 359.416 156.522 363.139 147.831 366.881C151.909 363.535 155.987 360.188 160.065 356.862C160.382 356.604 160.085 356.188 159.768 356.149C158.699 356.03 157.61 355.951 156.541 355.891C156.482 355.832 156.403 355.773 156.304 355.773C143.793 354.723 131.243 354.03 118.693 353.693C113.308 351.456 107.627 349.991 101.827 349.337C97.373 347.357 93.0181 345.139 88.762 342.763C77.2213 325.476 68.7885 305.695 52.2 292.507C47.5877 288.844 42.4607 285.854 36.8982 283.913C36.6012 283.814 36.3241 284.19 36.4825 284.448C37.1753 285.557 37.9473 286.626 38.7589 287.656C31.7316 282.27 24.7438 276.705 18.8052 270.151C17.2018 265.557 14.9253 261.201 12.0946 257.241C11.6591 254.825 11.2434 252.389 10.8079 249.973C11.1444 248.132 11.4611 246.31 11.7976 244.469C12.154 245.32 12.5301 246.152 12.8864 247.003C12.4905 249.439 12.0946 251.855 11.7382 254.29C11.6789 254.726 12.2925 254.924 12.4113 254.468C12.8864 252.686 13.3417 250.884 13.8168 249.102L14.1929 249.954C14.3116 250.231 14.7867 250.033 14.6878 249.736C14.4898 249.162 14.2919 248.587 14.0939 247.993C17.7956 233.776 21.1806 219.459 24.1499 205.084C27.4558 189.143 30.2865 173.084 32.6818 156.966C32.8797 157.184 33.2756 157.204 33.3548 156.827C35.8094 146.273 38.7589 135.858 42.1835 125.601C41.7876 131.878 41.3521 138.135 40.7583 144.392C39.7289 151.956 38.6402 159.501 37.4326 167.045C36.8784 170.57 36.2845 174.074 35.6709 177.579C35.7896 176.411 35.9282 175.223 36.047 174.055C36.047 173.916 35.849 173.916 35.8292 174.055L34.3248 185.361C34.2852 185.658 34.7801 185.718 34.8395 185.421C36.5419 176.074 38.0463 166.689 39.432 157.283C38.2047 167.995 36.7398 178.688 34.978 189.341C33.9091 195.797 32.7213 202.252 31.4544 208.668C31.1971 198.529 31.6722 188.431 33.0975 178.371C33.0975 178.253 32.9193 178.193 32.8995 178.312C31.2169 189.203 30.5043 200.272 30.9398 211.281C30.9398 211.578 31.4148 211.677 31.4742 211.361C31.8899 209.222 32.2858 207.083 32.7015 204.945C32.5432 208.905 33.0183 212.885 34.206 216.687C34.2654 216.885 34.6217 216.945 34.6613 216.687C38.462 190.846 41.2334 164.847 43.1535 138.828C43.6484 132.234 44.0443 125.62 44.4204 119.026C48.5378 107.482 53.2887 96.136 58.7325 85.1066C59.9796 82.572 61.2861 80.0968 62.5926 77.6018C63.1072 77.087 63.6021 76.5523 64.0772 75.9979C63.6417 77.6612 63.4636 79.3839 63.5229 81.0869C63.5229 81.1661 63.6417 81.1661 63.6219 81.0869C63.6021 79.1067 63.9387 77.186 64.5919 75.3642C64.968 74.8692 65.3639 74.3742 65.7004 73.8593C64.8492 77.6414 63.998 81.4235 63.2062 85.2254C60.5536 97.7597 58.1782 110.334 56.0997 122.987C54.9515 130.036 53.843 137.125 53.0314 144.214C53.0314 144.333 53.2294 144.372 53.2491 144.234C55.2485 132.254 57.129 120.234 59.2867 108.294C61.4642 96.2746 63.9387 84.3343 66.5714 72.4138C67.0267 71.602 67.4028 70.7505 67.7394 69.899C67.9175 69.701 68.0957 69.4832 68.2738 69.2852C69.8971 71.1465 71.2827 73.1663 72.4705 75.285C68.551 87.8392 64.9284 100.472 61.6028 113.205C59.5639 120.967 57.6833 128.749 55.8621 136.571C57.5447 126.472 59.6826 116.432 62.2758 106.532C64.3741 98.5121 66.7694 90.5519 69.3824 82.6908C69.422 82.5522 69.224 82.5126 69.1646 82.6314C63.7011 97.8983 59.4649 113.581 56.4164 129.501C55.3673 135.006 54.4963 140.551 53.7242 146.095C52.299 152.629 50.9133 159.164 49.6464 165.718C48.6962 170.57 47.6273 175.461 46.9542 180.352C46.6771 182.411 46.8948 186.153 49.7058 186.134C49.8839 186.134 49.8839 185.876 49.7058 185.856C45.8655 185.46 47.845 178.609 48.2409 176.47C48.9931 172.312 49.785 168.154 50.6164 164.015C51.2894 160.629 52.002 157.243 52.7147 153.857C52.2792 157.639 51.8833 161.421 51.5863 165.203C51.3686 167.877 50.4976 171.52 52.002 173.995C52.3782 174.609 53.4669 175.599 54.2983 175.203C54.7734 174.966 55.2485 174.114 55.6048 173.56C55.8423 177.956 56.8915 182.312 59.94 185.639C60.1577 185.876 60.4943 185.777 60.6526 185.539C69.5012 173.817 75.0043 159.778 76.7067 145.204C76.865 145.263 77.063 145.204 77.1026 145.026C78.1913 140.65 78.8842 136.135 79.6166 131.699C80.3094 127.442 80.9429 123.165 81.4773 118.888C82.6057 109.997 83.3381 101.047 83.6944 92.0767C83.6944 91.9183 83.5757 91.7994 83.4371 91.7598C83.7934 89.0668 84.0903 86.354 84.2685 83.6214C84.704 76.7107 84.7238 69.6614 83.5955 62.8101C83.5955 62.6913 83.3975 62.7309 83.3975 62.8299C83.6944 69.6812 84.031 76.5127 83.6153 83.364C83.3381 88.0768 82.7443 92.7499 81.9326 97.3835C81.4773 99.6012 81.0418 101.839 80.5866 104.057C80.5074 104.453 81.1012 104.631 81.2002 104.215C81.6753 102.175 82.091 100.116 82.4671 98.0567C82.5661 97.6013 82.6453 97.1656 82.7443 96.7102C82.289 103.938 81.6753 111.145 80.8043 118.333C80.2698 122.789 79.6364 127.244 78.904 131.68C78.3497 135.125 77.6766 138.57 77.0432 141.996C77.0234 141.263 77.0036 140.551 76.9838 139.818C77.6172 136.927 78.2309 134.016 78.7258 131.066C79.4978 126.61 80.349 121.957 80.3292 117.423C80.3292 117.304 80.1511 117.264 80.1115 117.403C79.2603 121.403 78.904 125.502 78.2309 129.521C77.835 131.917 77.3797 134.293 76.8848 136.67C76.8848 136.67 76.8848 136.63 76.8848 136.61C76.8848 136.432 76.6275 136.432 76.6275 136.61C76.6275 137.066 76.6275 137.501 76.6275 137.957C76.3701 139.165 76.1128 140.372 75.8357 141.58C73.9947 149.501 71.6588 157.303 68.8479 164.926C67.482 168.609 65.9974 172.253 64.4137 175.837C67.6008 159.342 70.6691 142.848 73.7176 126.333C74.6084 121.541 75.4794 116.749 76.3701 111.977C76.3899 111.858 76.2118 111.819 76.192 111.938C73.0643 128.551 69.9169 145.184 66.8486 161.798C65.9578 166.59 65.0868 171.381 64.2158 176.173C64.2158 176.213 64.2158 176.213 64.2554 176.233C64.0574 176.708 63.8595 177.183 63.6417 177.639C58.8314 171.421 61.7612 162.689 64.4137 156.134C64.4533 156.055 64.3148 156.016 64.2752 156.095C61.4246 162.847 58.1188 172.114 63.4834 178.53C63.6219 178.688 63.9189 178.649 64.0178 178.47C69.4418 166.649 73.6582 154.313 76.5879 141.659C76.5879 142.57 76.5879 143.461 76.5483 144.372C74.6282 158.867 68.9469 172.708 60.2567 184.47C57.4062 181.084 56.5352 176.629 56.4362 172.273C56.4362 172.233 56.4362 172.193 56.4362 172.154C56.7133 171.698 57.0301 171.263 57.2874 170.787C59.1086 167.481 60.2369 163.837 60.6526 160.095C60.6526 159.956 60.4745 159.976 60.4547 160.095C59.9994 163.58 58.9106 166.946 57.1686 170.015C56.9509 170.391 56.7133 170.827 56.456 171.263C56.4362 166.59 56.9707 161.877 57.4656 157.223C58.6533 146.135 60.4547 135.105 62.8895 124.214C63.5625 121.185 64.295 118.175 65.0472 115.185C65.4431 113.64 65.839 112.116 66.2547 110.571C66.4923 109.7 67.7987 106.017 69.2834 107.7C69.3626 107.799 69.4814 107.66 69.422 107.561C68.4718 106.354 67.0465 107.74 66.4923 108.65C65.8786 109.66 65.6806 110.947 65.3639 112.056C64.9086 113.66 64.4731 115.264 64.0376 116.888C62.454 122.868 61.1277 128.927 59.9598 135.006C58.7919 141.125 57.8219 147.283 57.0697 153.461C56.357 159.184 55.6444 165.005 55.5652 170.787C55.5652 171.401 55.5652 172.035 55.5652 172.649C55.2089 173.164 54.8328 173.639 54.4171 173.975C52.8928 175.263 52.1208 172.53 52.002 171.342C51.8437 169.758 52.0812 168.134 52.2 166.55C52.3386 164.669 52.4969 162.807 52.6751 160.926C53.0116 157.342 53.3877 153.758 53.843 150.194C54.041 148.669 54.2785 147.144 54.4963 145.62C54.9911 143.382 55.4662 141.145 55.9809 138.907C59.8212 122.195 64.097 105.581 68.9073 89.1064C70.194 84.7105 71.5203 80.3146 72.8664 75.9385C74.3114 78.6117 75.4398 81.4631 76.4097 84.3937C76.4493 84.5521 76.6671 84.4927 76.6473 84.3343C76.093 81.0473 74.8459 77.8988 73.1831 74.988C74.4698 70.8495 75.7763 66.7308 77.1026 62.6121C78.2507 73.3841 78.1913 84.2551 76.865 95.0271C76.865 95.1261 77.0234 95.1261 77.0432 95.0271C78.5278 83.8789 78.6862 72.5722 77.4787 61.3844C77.4391 61.1072 77.0828 61.028 76.9838 61.325C75.5387 65.6417 74.1531 69.9584 72.7872 74.3148C71.5401 72.2752 70.1148 70.3545 68.5114 68.612C68.452 68.5327 68.3332 68.5327 68.2342 68.5525C68.5114 67.7011 68.7489 66.8496 68.9073 65.9784C68.9865 65.5823 68.452 65.3051 68.2342 65.6813C68.1551 65.8199 68.0759 65.9784 67.9769 66.117C68.254 64.9289 68.5114 63.7606 68.8083 62.5923C68.8875 62.3151 68.9667 62.0181 69.0459 61.721C69.8773 60.2755 70.7483 58.83 71.5995 57.3845C71.6588 57.3449 71.738 57.3053 71.7974 57.2657C71.6391 57.5627 71.4609 57.84 71.3025 58.137C71.0452 58.5726 71.6984 58.9488 71.9756 58.533C72.3913 57.8994 72.8466 57.3053 73.2821 56.6915C73.3217 56.6915 73.3612 56.6717 73.381 56.6717C73.48 56.6717 73.48 56.5529 73.381 56.5133C82.4275 43.3651 92.4044 30.8704 103.292 19.1875C107.409 19.0885 111.527 18.9103 115.644 18.6529C125.166 25.4052 133.401 33.9594 139.735 43.8007C141.972 47.2462 144.13 50.85 145.872 54.5529C146.01 54.8499 146.426 54.5925 146.307 54.2955C143.14 47.563 139.418 41.3057 134.727 35.5039C130.134 29.8209 124.869 24.6725 119.069 20.2172C118.336 19.643 117.545 19.1281 116.792 18.5935C118.416 18.4945 120.019 18.4153 121.642 18.3163C125.482 18.7717 129.323 19.3063 133.143 20.039C140.111 23.3656 146.941 26.9497 153.671 30.811C153.79 30.8704 153.889 30.712 153.77 30.6328C148.049 26.9893 142.091 23.6627 135.994 20.6132C139.3 21.3261 142.566 22.1577 145.832 23.0686C149.415 24.0785 152.939 25.3656 156.522 26.3557C156.64 26.3953 156.72 26.217 156.601 26.1576C153.216 24.5735 149.573 23.4844 145.99 22.435C142.328 21.3657 138.627 20.4548 134.905 19.6826C134.45 19.5836 133.975 19.5044 133.519 19.4053C132.312 18.8311 131.104 18.2569 129.877 17.7024C130.372 17.6628 130.867 17.6232 131.342 17.6034C132.431 17.5242 133.559 17.5044 134.628 17.3064C135.103 17.2272 135.618 17.1084 135.954 16.7123C137.142 15.2668 134.43 15.1084 134.905 16.0391C134.964 16.1579 135.162 16.0787 135.123 15.9401C135.341 15.5837 135.42 15.6431 135.341 16.0985C135.479 16.3955 135.4 16.5539 135.103 16.5737C134.786 16.8114 134.192 16.7322 133.816 16.7718C133.005 16.851 132.173 16.9104 131.362 16.9698C130.491 17.049 129.6 17.1084 128.729 17.1678C123.384 14.7718 117.94 12.6333 112.437 10.7125C113.387 10.0195 114.318 9.30661 115.268 8.61356C119.168 5.76215 123.147 2.98995 127.007 0.0989349C127.125 0.0197291 127.007 -0.158484 126.888 -0.0792782C121.721 3.24736 116.674 6.83143 111.705 10.4749C111.606 10.4353 111.507 10.3957 111.408 10.3759C111.487 10.3165 111.547 10.2571 111.626 10.1977C111.883 9.97986 111.527 9.64323 111.269 9.84125C111.131 9.96006 110.992 10.0789 110.834 10.1977C110.141 9.96006 109.448 9.70264 108.755 9.48482C108.617 9.44522 108.557 9.66304 108.696 9.70264C109.329 9.94026 109.943 10.1779 110.577 10.4155C107.073 13.2273 103.589 16.0787 100.105 18.9301C98.7389 19.0093 97.373 19.0687 96.0072 19.1677C95.928 19.1677 95.9082 19.3063 96.0072 19.3063C97.2345 19.3063 98.4618 19.2865 99.6891 19.2667C98.4222 20.2964 97.1355 21.3261 95.8686 22.3756C92.6815 24.8111 89.5143 27.2863 86.3668 29.8011C87.0794 28.9298 87.7921 28.0784 88.5245 27.2071C94.1662 20.732 99.8277 14.257 105.469 7.8017C105.806 7.42547 105.252 6.85123 104.895 7.22746C98.0065 14.6134 91.375 22.237 84.9811 30.0585C84.1299 31.0486 83.2589 32.0189 82.4077 33.0089C79.7749 35.1475 77.1224 37.2663 74.5292 39.4246C74.45 39.484 74.5688 39.6028 74.6479 39.5434C76.865 37.7811 79.0821 36.0386 81.319 34.296C81.2596 34.3554 81.2002 34.4346 81.1408 34.494C81.0023 34.6525 81.0221 34.7911 81.1012 34.9297C80.9825 35.0683 80.8637 35.2069 80.7647 35.3653C70.5107 46.4541 62.454 59.3251 54.5358 72.1168C54.2587 72.5524 54.9318 72.9287 55.2089 72.5128C62.553 61.1864 70.3919 50.2164 78.6466 39.5632C75.5189 44.9096 72.4111 50.2758 69.3428 55.6816C69.3032 55.642 69.2438 55.6222 69.2042 55.6816C62.2362 64.117 55.9413 73.1465 50.2996 82.5522C50.2996 82.0967 50.2996 81.6215 50.2798 81.1661C50.2798 81.0275 50.0621 81.0275 50.0621 81.1661C50.0225 81.8393 49.9829 82.4928 49.9631 83.166C46.6969 88.6312 43.6484 94.2152 40.8177 99.8982C38.5808 104.373 36.4825 108.928 34.5227 113.541C34.3842 113.878 34.8197 114.175 35.0374 113.838C39.8477 106.195 44.6382 98.5319 49.4286 90.8688C49.3693 91.4628 49.3099 92.0767 49.2307 92.6707C49.1317 93.443 48.9931 94.2152 48.8546 94.9677H48.8348C48.6764 95.4429 48.5378 95.8983 48.3795 96.3736C48.2805 96.5914 48.1617 96.829 48.0628 97.0468C47.2907 98.7894 46.5781 100.532 45.8457 102.274C45.8655 101.958 45.9051 101.641 45.9447 101.304C45.9447 101.205 45.8061 101.205 45.7863 101.304C45.7467 101.799 45.6873 102.274 45.6279 102.769C43.8661 106.987 42.1637 111.225 40.5999 115.541C40.4613 115.898 41.0552 116.155 41.2136 115.799C41.7876 114.591 42.3815 113.363 42.9556 112.155C42.9358 112.67 42.8962 113.185 42.8764 113.7C42.0054 116.512 41.1542 119.323 40.3228 122.135C39.6497 123.521 38.9569 124.907 38.2047 126.254C38.0463 126.551 37.8484 126.848 37.69 127.145C37.5316 126.987 37.2347 126.967 37.1753 127.264C37.0763 127.68 36.9773 128.115 36.8982 128.531C36.6804 128.907 36.4627 129.284 36.2251 129.64C36.3241 128.709 36.4429 127.779 36.5419 126.828C36.5419 126.69 36.3439 126.69 36.3241 126.828C36.1855 127.937 36.0272 129.046 35.8886 130.155C34.2852 132.709 32.563 135.204 30.7022 137.6C30.6428 137.679 30.7418 137.778 30.8012 137.699C32.6026 135.422 34.2654 133.066 35.8292 130.61C35.5521 132.788 35.2552 134.967 34.978 137.125C33.5132 143.62 32.0681 150.135 30.6428 156.649C30.5636 156.926 30.4845 157.223 30.4053 157.501C24.9022 178.53 20.0127 199.717 15.7765 221.043C14.4106 227.855 13.1437 234.706 11.9362 241.538C11.184 239.32 10.4318 237.083 9.67953 234.865C9.60035 234.627 9.22424 234.726 9.30342 234.964C10.115 237.479 10.9464 239.993 11.7778 242.508C11.7778 242.587 11.758 242.667 11.7382 242.746C10.4911 239.795 9.22424 236.865 7.97713 233.914C7.81877 233.558 7.32388 233.835 7.38327 234.172C8.35324 239.815 9.34301 245.459 10.3328 251.102C10.1942 251.993 10.0556 252.864 9.89728 253.755C7.00715 245.617 3.95867 237.558 0.732021 229.558C0.573658 229.142 -0.000408143 229.301 0.058978 229.736C2.55319 246.053 9.20444 261.438 19.3991 274.408C19.6564 274.725 20.1315 274.369 20.0523 274.032C19.8544 273.28 19.6168 272.547 19.3991 271.814C23.5165 276.21 28.109 280.21 32.7807 283.933C34.2258 285.081 35.6709 286.23 37.1357 287.339C32.0879 284.567 26.8223 282.151 21.4182 280.151C21.0223 280.012 20.8639 280.567 21.1608 280.784C31.2565 288.388 42.2033 294.784 53.8034 299.833C54.1993 300.012 54.5556 299.437 54.1597 299.239C49.9829 297.22 46.202 294.487 42.9358 291.24C43.0347 291.081 43.0347 290.824 42.8368 290.665C42.3221 290.269 41.8074 289.893 41.3125 289.497C40.0456 288.071 38.8579 286.547 37.789 284.943C58.9106 292.923 70.4117 314.13 81.3982 332.446C83.2985 335.615 85.2385 338.743 87.2576 341.813C87.0596 341.694 86.8815 341.595 86.6835 341.496C83.6746 338.11 80.6262 334.783 77.4985 331.516C77.1422 330.843 76.7858 330.149 76.4097 329.476C77.8152 327.813 76.4493 325.674 75.123 324.387C74.2322 323.536 73.2821 322.724 72.3121 321.932C70.8472 319.278 69.4022 316.605 67.8977 313.952C67.6998 313.615 67.1851 313.912 67.383 314.249C68.6104 316.447 69.7981 318.645 71.0056 320.863C69.6397 319.793 68.2738 318.764 66.9475 317.694C63.3844 314.843 59.7618 312.051 56.1195 309.299C54.1003 306.705 52.0614 304.091 50.0423 301.497C49.8246 301.22 49.3891 301.576 49.5672 301.873C50.7945 303.715 52.0812 305.516 53.4273 307.279C52.3979 306.507 51.3884 305.734 50.359 304.962C50.2798 304.903 50.1809 305.041 50.26 305.101C51.5072 306.091 52.7741 307.061 54.0212 308.051C54.6546 308.883 55.3079 309.675 55.9809 310.487C53.3085 308.071 50.656 305.635 47.9242 303.279C47.8252 303.18 47.6669 303.338 47.7658 303.437C51.1112 306.408 54.4171 309.457 57.6635 312.526C58.3366 313.298 58.9898 314.09 59.6826 314.843C63.7209 320.011 67.7592 325.16 71.837 330.288C71.9756 330.447 72.1735 330.268 72.1537 330.11C71.9558 328.981 71.7578 327.833 71.5599 326.704C71.5203 326.526 71.2431 326.605 71.2827 326.783C71.4213 327.674 71.5401 328.585 71.6786 329.476C68.9865 325.952 66.2745 322.427 63.5625 318.922C65.839 321.199 68.2342 323.358 70.7285 325.417C72.7872 327.536 74.8261 329.654 76.8452 331.793C77.7954 333.575 78.7258 335.377 79.6562 337.179C78.7456 336.585 77.7954 335.991 76.8848 335.377C76.7859 335.318 76.6869 335.456 76.7661 335.535C77.9736 336.605 79.2207 337.654 80.4282 338.704C81.7743 341.377 83.1204 344.05 84.4467 346.723C79.9729 348.486 75.4991 350.248 71.0452 352.01C70.7285 352.129 70.5701 352.644 70.9462 352.822C81.0814 358.01 92.5628 360.03 103.846 358.782C105.291 360.01 106.736 361.238 108.181 362.485C105.964 363.218 103.747 363.97 101.57 364.802C101.055 365 101.253 365.733 101.787 365.614C104.559 365.04 107.33 364.465 110.101 363.911C110.359 363.852 110.478 363.475 110.26 363.297C110.121 363.178 109.963 363.059 109.824 362.921C115.189 361.258 120.633 359.871 126.116 358.763C126.67 358.921 127.205 359.079 127.759 359.218C128.214 359.337 128.452 358.723 128.076 358.466C128.036 358.446 127.977 358.406 127.937 358.386C128.65 358.248 129.382 358.129 130.095 358.01C131.718 358.089 133.321 358.149 134.945 358.169C131.223 359.258 127.581 360.683 124.117 362.485C123.721 362.703 123.919 363.317 124.334 363.317C128.61 363.317 132.688 361.673 135.796 358.842C136.726 358.565 137.676 358.327 138.627 358.109C139.735 358.089 140.824 358.109 141.932 358.03C146.604 357.812 151.276 357.297 155.888 356.545C156.838 356.604 157.789 356.683 158.739 356.782C154.087 360.564 149.435 364.347 144.783 368.129C144.347 368.485 144.902 369.02 145.337 368.842C154.265 365.04 163.173 361.198 172.081 357.357C169.725 359.654 167.429 361.99 165.192 364.426C164.895 364.762 165.192 365.356 165.647 365.218C172.417 363.178 178.257 358.822 182.176 352.941C182.473 352.505 181.919 352.149 181.543 352.307C179.88 353.02 178.217 353.733 176.535 354.466C181.602 349.793 186.927 345.416 192.47 341.337C189.402 344.149 186.531 347.179 183.899 350.446C183.602 350.802 183.978 351.456 184.433 351.139C197.3 342.268 210.127 333.318 222.895 324.308C215.472 332.565 208.979 341.575 203.654 351.357C203.417 351.792 204.05 352.347 204.387 351.911C219.768 332.446 233.664 311.853 245.878 290.25C249.342 284.111 252.589 277.854 255.716 271.557C255.855 271.28 255.439 271.022 255.281 271.3V271.418ZM42.0648 132.729C42.2627 129.957 42.4211 127.185 42.5794 124.393C42.9358 123.363 43.2723 122.313 43.6286 121.264C43.0149 126.69 42.3815 132.115 41.6886 137.521C41.8074 135.917 41.946 134.313 42.0648 132.709V132.729ZM37.1951 194.371C36.3043 201.44 35.3343 208.489 34.3446 215.539C33.1173 211.361 32.7213 207.004 33.1173 202.707C33.4538 200.846 33.7903 198.985 34.107 197.123C34.1466 196.945 34.1862 196.767 34.2456 196.589C34.2456 196.569 34.2456 196.549 34.206 196.529C37.0763 180.054 39.3132 163.461 40.877 146.808C42.0846 137.937 43.1733 129.026 44.1235 120.135C42.5794 144.947 40.2832 169.698 37.1951 194.351V194.371ZM67.4424 66.2952C67.3435 66.711 67.2445 67.1466 67.1455 67.5625C65.1264 71.0079 63.1864 74.493 61.3257 78.0374C60.5932 78.6513 59.8212 79.2255 59.0096 79.7404C61.9591 74.2356 65.0076 68.7704 68.1155 63.3448C67.8581 64.414 67.6602 65.4635 67.4622 66.2952H67.4424ZM130.649 18.9103C129.026 18.6133 127.383 18.3361 125.74 18.0787C126.631 18.0192 127.521 17.94 128.412 17.8806C129.164 18.2173 129.917 18.5539 130.649 18.9103ZM112.081 11.0689C117.208 13.0293 122.276 15.1282 127.264 17.3658C126.908 17.3856 126.551 17.4252 126.195 17.445C125.067 17.5242 123.919 17.5836 122.79 17.6628C120.039 17.3262 117.267 17.1084 114.516 17.0292C112.655 15.7619 110.775 14.5738 108.835 13.4451C109.923 12.6531 110.992 11.8412 112.061 11.0491L112.081 11.0689ZM113.17 16.9896C112.912 16.9896 112.655 16.95 112.398 16.95C112.14 16.95 112.16 17.3064 112.398 17.3262C112.912 17.3856 113.407 17.445 113.902 17.4846C114.239 17.7024 114.555 17.94 114.892 18.1777C111.17 18.3955 107.429 18.5935 103.708 18.7915C105.232 17.1678 106.756 15.5639 108.3 13.9798C109.943 14.9302 111.566 15.9203 113.15 16.9698L113.17 16.9896ZM105.232 16.1381C104.361 17.049 103.51 17.94 102.658 18.8509C102.262 18.8707 101.867 18.8905 101.49 18.9103C102.738 17.9796 104.004 17.049 105.252 16.1381H105.232ZM72.2923 51.8995C75.42 46.4343 78.5872 40.9889 81.7545 35.5435C82.1306 35.0683 82.4869 34.5733 82.863 34.098C88.5047 29.4843 94.1266 24.8309 99.7485 20.1776C100.144 19.8806 100.54 19.6034 100.936 19.3063C101.372 19.3063 101.807 19.2667 102.262 19.2667C93.8693 28.2566 85.9709 37.7019 78.6862 47.6026C77.8944 48.6719 77.1422 49.761 76.3701 50.85C79.4582 45.4244 82.5265 39.9989 85.6146 34.5733C85.8521 34.1574 85.2385 33.8208 84.9811 34.197C79.7749 42.1968 74.7667 50.3352 69.9762 58.5924C69.6991 58.9686 69.4616 59.4043 69.2636 59.8399C65.9776 65.5427 62.7509 71.2851 59.7024 77.1068C61.4642 73.4237 63.226 69.7208 64.9878 66.0378C65.1264 65.7605 64.8492 65.5427 64.6315 65.6219C67.1455 61.0082 69.7189 56.4341 72.3121 51.8797L72.2923 51.8995ZM50.2996 83.6214C53.4867 78.2751 56.8519 73.0277 60.4349 67.9189C63.1864 63.9982 66.0568 60.1369 68.9865 56.335C65.6806 62.1567 62.4738 67.9981 59.3461 73.9187C56.258 78.8295 53.1898 83.7601 50.1017 88.6708C50.2402 86.9877 50.2996 85.3046 50.2996 83.6214ZM49.9829 89.9777C52.0218 86.7105 54.0806 83.463 56.1195 80.1958C53.8232 84.7501 51.6259 89.3441 49.5078 93.9974C49.7058 92.6707 49.8641 91.3242 50.0027 89.9777H49.9829ZM36.621 110.155C40.5207 101.304 44.9549 92.6905 49.8641 84.3739C49.7652 86.1164 49.6662 87.859 49.5276 89.5817C45.232 96.433 40.9166 103.304 36.621 110.155ZM48.9931 96.8884C52.6751 88.6312 56.6935 80.4928 60.9298 72.493C61.3653 71.8198 61.781 71.1267 62.2165 70.4535C57.6833 79.8988 53.17 89.3639 48.6368 98.8092C48.7556 98.1755 48.8744 97.5221 48.9931 96.8884ZM57.9209 80.8096C58 80.9285 58.1584 80.9879 58.3168 80.9087C59.1284 80.4532 59.8806 79.9186 60.6328 79.3641C54.4765 91.146 49.1119 103.403 44.5392 115.918C44.658 114.749 44.7569 113.561 44.8757 112.393C46.1822 108.829 47.2314 105.185 48.0826 101.482C51.3686 94.5915 54.6546 87.7005 57.9209 80.8096ZM46.6771 102.255C47.2116 101.007 47.7262 99.7794 48.2805 98.5319C48.1617 99.1656 47.9836 99.7992 47.845 100.453C47.2709 101.68 46.6771 102.888 46.0832 104.116C46.2812 103.502 46.4593 102.868 46.6573 102.255H46.6771ZM47.1918 103.344C47.0928 103.76 47.0136 104.175 46.9146 104.591C46.3604 106.69 45.7269 108.769 45.0341 110.829C45.1528 109.601 45.2716 108.393 45.3904 107.165C46.004 105.898 46.5979 104.611 47.2116 103.344H47.1918ZM43.0941 113.858C43.6286 112.076 44.2027 110.294 44.7371 108.492C44.8559 108.215 44.9945 107.957 45.1133 107.68C44.9747 109.027 44.8163 110.393 44.6777 111.74C44.1433 113.264 43.589 114.789 42.9753 116.294C43.0149 115.482 43.0545 114.67 43.0941 113.858ZM42.9358 117.284C43.5098 115.957 44.0047 114.631 44.5194 113.284C44.3808 114.551 44.2423 115.819 44.1037 117.066C43.6484 118.353 43.2129 119.64 42.7576 120.927C42.817 119.719 42.8764 118.492 42.9358 117.284ZM42.817 114.809C42.7774 115.522 42.7378 116.234 42.6982 116.967C42.2231 118.096 41.7084 119.185 41.2136 120.294C41.748 118.472 42.2825 116.63 42.817 114.809ZM37.7692 127.482C38.5016 126.234 39.2142 124.967 39.8873 123.68C38.7985 127.343 37.7494 131.026 36.7002 134.709C37.0565 132.313 37.4326 129.897 37.789 127.501L37.7692 127.482ZM36.2449 137.541C36.918 135.105 37.5712 132.689 38.264 130.254C39.0559 127.501 39.8873 124.749 40.6989 121.997C41.3719 120.65 42.0252 119.304 42.6388 117.937C42.5596 119.284 42.4607 120.65 42.4013 121.997C40.8374 126.571 39.333 131.145 37.9671 135.759C36.819 139.64 35.7698 143.541 34.7603 147.442C35.2552 144.135 35.75 140.828 36.2647 137.521L36.2449 137.541ZM31.2367 156.055C31.9691 153.224 32.7213 150.392 33.4736 147.56C32.0483 157.481 30.5043 167.401 28.7623 177.282C25.8326 193.856 22.4673 210.37 18.6072 226.766C17.0434 233.479 15.3608 240.152 13.6188 246.805C13.599 246.746 13.5792 246.686 13.5594 246.627C15.7369 232.647 18.1519 218.707 20.8639 204.806C24.051 188.51 27.5943 172.273 31.2169 156.055H31.2367ZM22.111 193.44C23.8728 185.658 25.7534 177.896 27.6735 170.134C27.2182 172.273 26.7233 174.391 26.2681 176.53C22.7445 193.044 19.3793 209.578 16.3902 226.192C15.242 232.548 14.1731 238.904 13.1239 245.28C12.7874 244.31 12.4707 243.34 12.1342 242.35C15.1628 225.974 18.4093 209.658 22.0912 193.44H22.111ZM8.43242 236.805C9.46178 239.162 10.4713 241.518 11.5007 243.875C11.2038 245.617 10.887 247.36 10.6099 249.082C9.87748 244.983 9.16485 240.885 8.43242 236.805ZM10.412 251.973C10.6495 253.28 10.8673 254.607 11.1048 255.914C10.8079 255.538 10.5109 255.181 10.214 254.805C10.1546 254.627 10.0754 254.429 10.0161 254.251C10.1546 253.478 10.2932 252.726 10.4318 251.954L10.412 251.973ZM6.55186 250.726C4.2556 245.063 2.5136 239.201 1.34568 233.202C3.97846 239.815 6.47268 246.469 8.86792 253.181C8.13549 252.35 7.38327 251.538 6.59145 250.746C6.59145 250.746 6.57166 250.746 6.55186 250.746V250.726ZM7.38327 252.666C8.13549 253.478 8.86792 254.31 9.56076 255.161C9.56076 255.201 9.58055 255.241 9.60035 255.28C9.52117 255.815 9.42219 256.349 9.34301 256.884C8.63037 255.498 7.97713 254.092 7.38327 252.647V252.666ZM9.48158 257.122C9.56076 256.627 9.65973 256.151 9.73892 255.656C10.2932 257.241 10.8277 258.825 11.3621 260.409C10.6891 259.339 10.0556 258.25 9.46178 257.122H9.48158ZM12.3519 258.884C14.371 261.894 16.0338 265.102 17.3601 268.468C15.8557 266.706 14.4106 264.864 13.0843 262.943C12.8468 261.597 12.6092 260.231 12.3717 258.884H12.3519ZM14.569 266.329C15.6973 267.775 16.885 269.181 18.1124 270.547C18.3103 271.102 18.4687 271.656 18.6468 272.21C17.2216 270.29 15.8557 268.329 14.5888 266.31L14.569 266.329ZM41.4511 290.863C43.4108 292.943 45.5685 294.824 47.9242 296.467C39.432 292.349 31.3159 287.477 23.6749 281.913C29.851 284.369 35.8094 287.359 41.4511 290.863ZM74.5688 327.853C73.2623 326.862 72.0152 325.793 70.7681 324.744C67.1257 321.08 63.424 317.477 59.6431 313.952C58.7325 312.764 57.8021 311.596 56.8915 310.407C61.9393 314.368 66.9475 318.387 71.8568 322.526C72.8466 324.348 73.8363 326.169 74.8063 328.011C74.7271 327.952 74.6677 327.912 74.5886 327.853H74.5688ZM75.9544 328.763C75.0439 327.06 74.1333 325.377 73.2029 323.674C73.4998 323.932 73.8165 324.169 74.1135 324.427C74.9053 325.12 75.6575 325.892 76.093 326.862C76.291 327.298 76.6869 328.328 76.1326 328.684C76.0732 328.724 76.0138 328.744 75.9742 328.763H75.9544ZM126.73 362.347C128.966 361.297 131.263 360.386 133.599 359.614C131.56 361.04 129.204 361.97 126.73 362.347ZM123.305 356.763C122.434 356.664 121.543 356.545 120.672 356.446C118.613 355.812 116.555 355.139 114.516 354.406C115.882 354.426 117.248 354.485 118.594 354.525C120.197 355.198 121.761 355.951 123.305 356.763ZM116.238 355.832C113.684 355.416 111.131 354.921 108.597 354.367C109.805 354.367 111.012 354.367 112.2 354.406C113.546 354.901 114.892 355.377 116.238 355.852V355.832ZM116.297 353.634C114.971 353.594 113.645 353.614 112.299 353.575C109.666 352.604 107.053 351.575 104.46 350.466C108.498 351.099 112.457 352.169 116.297 353.614V353.634ZM102.005 350.149C103.945 351.04 105.905 351.891 107.884 352.703C108.597 353 109.329 353.278 110.062 353.555C108.3 353.535 106.538 353.495 104.777 353.495C101.352 352.624 97.9867 351.535 94.6413 350.367C94.4037 350.169 94.1662 349.971 93.9286 349.773C96.6406 349.713 99.3328 349.852 102.005 350.169V350.149ZM98.4024 353.515C97.7491 352.961 97.0761 352.406 96.4229 351.852C98.1846 352.446 99.9662 352.981 101.748 353.476C100.639 353.476 99.5307 353.495 98.4024 353.515ZM98.4618 354.327C99.2932 355.04 100.125 355.733 100.936 356.446C97.8085 355.773 94.6809 355.099 91.5532 354.406C93.8495 354.367 96.1457 354.327 98.442 354.327H98.4618ZM91.3157 344.783C94.1068 346.327 96.9573 347.793 99.8475 349.159C97.6106 348.981 95.3737 348.941 93.1368 349.02C91.8105 347.278 90.5634 345.476 89.3361 343.674C89.9894 344.05 90.6426 344.426 91.3157 344.803V344.783ZM78.6862 333.912C80.1907 335.535 81.7347 337.159 83.2193 338.803C83.6746 339.298 84.1101 339.832 84.5456 340.327C83.3183 339.595 82.1108 338.862 80.9033 338.11C80.1709 336.704 79.4186 335.318 78.6862 333.912ZM81.2002 338.644C81.9128 339.12 82.6255 339.595 83.3381 340.05C84.031 340.486 84.7238 340.902 85.4166 341.317C86.8221 342.902 88.2276 344.506 89.6133 346.129C86.9409 343.892 84.2685 341.654 81.5961 339.417C81.4576 339.159 81.3388 338.902 81.2002 338.644ZM72.2527 352.565C76.5285 350.862 80.8241 349.139 85.0999 347.436C85.3572 347.337 85.476 347.08 85.3374 346.822C84.2091 344.585 83.0808 342.347 81.9326 340.11C85.1791 342.921 88.4453 345.753 91.7116 348.545C91.8501 348.703 91.9887 348.862 92.1273 349.02C91.7116 349.02 91.3157 349.02 90.8999 349.06C90.4446 349.099 90.3853 349.674 90.801 349.832C92.1668 350.367 93.5525 350.822 94.9184 351.317C95.7894 352.05 96.6406 352.783 97.5116 353.515C94.285 353.535 91.0583 353.535 87.8317 353.614C87.3764 353.614 87.2378 354.347 87.7129 354.446C92.5628 355.495 97.4324 356.545 102.282 357.594C102.5 357.772 102.718 357.97 102.936 358.149C92.444 359.119 81.7545 357.178 72.2527 352.565ZM108.914 362.327C107.508 361.139 106.103 359.97 104.678 358.782C105.37 358.703 106.083 358.644 106.776 358.525C107.192 358.466 107.152 357.812 106.776 357.733C105.271 357.416 103.747 357.079 102.243 356.743C101.273 355.931 100.323 355.139 99.3526 354.327C101.194 354.327 103.054 354.327 104.895 354.327C110.121 355.674 115.446 356.683 120.811 357.337C121.919 357.673 123.028 358.01 124.136 358.347C118.99 359.416 113.902 360.743 108.914 362.327ZM138.29 357.376C137.954 357.376 137.597 357.416 137.261 357.416C137.419 357.238 137.577 357.079 137.716 356.901C137.914 356.664 137.835 356.129 137.419 356.188C134.905 356.485 132.411 356.862 129.917 357.277C128.333 357.198 126.769 357.079 125.205 356.941C123.721 356.089 122.196 355.317 120.652 354.604C127.482 354.802 134.331 355.079 141.16 355.495C143.377 355.634 145.614 355.792 147.831 355.951C144.625 356.188 141.438 356.664 138.29 357.396V357.376ZM180.375 353.911C177.01 358.406 172.417 361.832 167.172 363.792C169.547 361.277 171.982 358.802 174.496 356.426C176.456 355.594 178.415 354.743 180.375 353.911ZM216.502 334.407C213.691 338.308 210.82 342.129 207.91 345.951C212.186 338.882 217.036 332.149 222.48 325.932C220.52 328.783 218.541 331.615 216.521 334.427L216.502 334.407Z" fill="black"/>
<path d="M113.942 30.1577C112.755 29.2865 111.092 29.3855 109.726 29.6825C108.063 30.0587 106.42 30.6924 104.876 31.524C104.935 31.3854 104.777 31.1874 104.639 31.3062C103.866 31.8211 103.134 32.3755 102.402 32.9497C102.718 32.2963 103.035 31.6429 103.372 30.9894C103.391 30.93 103.312 30.8904 103.292 30.9498C102.936 31.6627 102.6 32.3557 102.243 33.0686C99.7293 35.0685 97.4924 37.3655 95.5524 39.9001C95.0576 40.0981 94.5627 40.2763 94.048 40.4347C96.1463 36.1378 98.9375 32.2369 102.421 28.9499C102.481 28.8904 102.402 28.8112 102.342 28.8706C98.5811 32.1973 95.5128 36.1972 93.3552 40.7515C93.276 40.9297 93.4145 41.1673 93.6323 41.1079C94.1074 40.9693 94.5825 40.8109 95.0378 40.6327C91.534 45.4445 89.0596 51.0087 87.951 56.8897C87.8916 57.1867 88.1886 57.4243 88.4657 57.2857C88.5251 57.2461 88.5845 57.2065 88.6439 57.1867C88.3865 58.7312 88.2084 60.2955 88.1886 61.8797C88.1886 62.1371 88.4657 62.2559 88.6637 62.1569C96.2255 58.2758 102.857 52.6126 108.004 45.8405C110.538 42.494 112.873 38.8308 114.497 34.9695C115.17 33.3854 115.526 31.3656 113.942 30.1973V30.1577ZM99.2938 36.4744C99.9866 35.8408 100.699 35.2269 101.432 34.6725L101.155 35.2071C101.155 35.2071 101.214 35.3061 101.234 35.2467L101.57 34.5537C102.164 34.0982 102.778 33.6428 103.431 33.2468C101.788 35.821 99.4917 37.9199 96.7798 39.306C97.5716 38.3159 98.4228 37.3853 99.2938 36.4744ZM112.854 36.7714C109.449 43.4841 104.698 49.484 98.9968 54.3551C95.8692 57.0283 92.4644 59.3055 88.8616 61.2658C88.8616 59.7411 89.02 58.256 89.2773 56.7709C92.207 54.9888 94.4439 52.2364 95.691 49.0285C95.7504 48.8899 95.5128 48.8107 95.4733 48.9295C94.1866 51.8403 92.0685 54.0977 89.4357 55.7808C90.6828 49.7216 93.8302 44.1178 98.4624 39.9595C98.5415 39.9001 98.4228 39.7812 98.3436 39.8407C94.4241 43.1871 91.5142 47.5434 89.8514 52.3354C91.2568 47.9196 93.3947 43.7811 96.1859 40.0981C99.5313 38.5536 102.263 35.9992 104.183 32.8111C105.411 32.0983 106.658 31.4448 108.024 30.9498C109.587 30.3756 111.705 29.6627 113.289 30.5538C115.645 31.8607 113.725 35.0883 112.873 36.7714H112.854Z" fill="black"/>
<path d="M149.613 130.907C149.316 122.769 148.227 114.69 146.327 106.789C146.288 106.651 146.169 106.69 146.109 106.789C146.149 103.958 146.149 101.126 146.09 98.2944C146.09 98.1954 145.951 98.1954 145.951 98.2944C146.109 108.116 145.615 117.957 144.447 127.719C143.833 132.749 143.081 137.739 142.131 142.709C141.418 146.412 140.567 150.095 139.735 153.758C139.696 153.758 139.676 153.758 139.656 153.798C137.993 161.085 136.984 168.768 137.498 176.233C137.498 176.312 137.617 176.312 137.617 176.233C137.696 169.58 138.092 163.065 139.28 156.55C140.685 151.897 141.675 147.085 142.566 142.313C143.457 137.62 144.189 132.907 144.724 128.155C145.535 121.125 145.971 114.076 146.09 107.007C148.643 119.838 149.593 132.967 148.584 146.016C148.089 152.55 147.119 159.025 145.674 165.421C144.961 168.55 144.15 171.659 143.199 174.728C142.645 176.51 139.458 182.015 137.34 178.649C136.449 177.243 136.33 175.065 136.093 173.461C135.796 171.5 135.638 169.5 135.618 167.52C135.558 163.659 136.014 159.817 136.924 156.055C136.964 155.917 136.746 155.857 136.707 155.996C136.568 156.511 136.469 157.025 136.35 157.54C137.023 152.194 137.657 146.828 138.27 141.462C139.616 129.62 140.844 117.759 141.893 105.878C142.487 99.0666 143.199 92.2153 143.457 85.3838C143.457 85.2848 143.318 85.2848 143.298 85.3838C142.566 91.3837 142.15 97.4231 141.576 103.443C141.002 109.383 140.408 115.304 139.795 121.244C138.567 133.105 137.221 144.947 135.737 156.788C135.321 160.114 134.905 163.421 134.49 166.748C134.054 170.134 133.48 173.54 133.203 176.946C133.183 177.243 133.619 177.263 133.698 177.005C133.995 176.055 134.292 175.084 134.588 174.134C134.628 173.995 134.43 173.956 134.371 174.075C134.272 174.332 134.153 174.589 134.054 174.827C134.49 172.253 134.846 169.679 135.163 167.085C135.103 170.51 135.44 173.916 136.212 177.243C136.667 179.163 137.993 180.965 140.151 179.916C142.566 178.748 143.496 175.936 144.189 173.56C148.287 159.738 150.088 145.263 149.554 130.848L149.613 130.907Z" fill="black"/>
<path d="M145.04 105.661C144.921 105.661 144.921 105.859 145.04 105.859C145.159 105.859 145.159 105.661 145.04 105.661Z" fill="black"/>
<path d="M242.949 206.272C241.979 202.965 240.276 199.797 238.574 196.826C236.792 193.737 234.734 190.807 232.477 188.054C229.904 184.926 227.033 182.035 223.925 179.441C220.956 176.966 217.65 174.273 213.988 172.966C213.869 172.926 213.77 173.104 213.869 173.164C216.364 175.124 219.155 176.629 221.669 178.569C224.341 180.609 226.875 182.886 229.191 185.342C233.764 190.193 237.564 195.757 240.415 201.777C241.741 204.608 243.127 207.697 242.85 210.905C242.691 212.588 241.939 214.172 240.415 214.984C238.811 215.856 236.971 215.539 235.387 214.806C235.209 214.727 235.05 214.628 234.892 214.529C232.022 211.182 229.25 207.816 226.816 204.113C224.123 200.014 221.867 195.638 220.045 191.084C220.006 190.985 219.867 191.025 219.887 191.124C222.955 199.282 227.469 207.4 233.605 213.737C231.289 212.133 229.448 209.836 227.726 207.638C225.469 204.767 223.411 201.757 221.55 198.609C217.413 191.638 214.305 184.054 212.385 176.173C212.365 176.074 212.207 176.114 212.226 176.213C213.889 183.856 216.641 191.203 220.441 198.054C222.342 201.48 224.499 204.727 226.895 207.816C229.092 210.628 231.408 213.638 234.654 215.321C234.991 215.499 235.347 215.658 235.704 215.776C235.704 215.776 235.704 215.776 235.723 215.796C235.723 215.796 235.763 215.796 235.783 215.796C238.079 216.628 240.652 216.489 242.335 214.41C244.176 212.133 243.741 208.846 242.969 206.232L242.949 206.272Z" fill="black"/>
<path d="M219.748 177.302C219.729 177.144 219.511 177.223 219.531 177.362C220.956 187.54 224.915 197.203 231.249 205.302C231.329 205.381 231.467 205.282 231.408 205.183C225.529 196.886 221.431 187.342 219.748 177.302Z" fill="black"/>
<path d="M183.305 316.011C176.337 325.179 168.419 333.357 160.006 341.179C158.759 339.892 158.739 337.852 160.065 336.565C160.164 336.466 160.026 336.347 159.927 336.427C158.323 337.793 158.244 340.367 159.768 341.813C159.887 341.931 160.065 341.912 160.184 341.813C169.013 334.367 176.733 325.476 183.463 316.13C183.542 316.011 183.364 315.912 183.285 316.011H183.305Z" fill="black"/>
<path d="M180.158 312.863C176.397 319.219 171.666 324.942 166.202 329.912C168.736 321.496 172.062 313.358 176.417 305.695C176.476 305.576 176.318 305.477 176.238 305.596C171.527 313.516 167.746 322.011 165.252 330.882C165.173 331.199 165.549 331.377 165.767 331.179C171.586 325.932 176.496 319.793 180.356 312.962C180.415 312.843 180.237 312.724 180.178 312.843L180.158 312.863Z" fill="black"/>
<path d="M105.391 292.467C110.042 292.883 114.714 293.141 119.386 293.339C119.564 293.339 119.544 293.081 119.386 293.081C112.972 292.586 106.558 291.953 100.165 291.2C99.9072 288.487 99.6498 285.774 99.3529 283.081C99.3529 283.022 99.2341 283.002 99.2539 283.081C99.2935 285.517 99.4321 287.953 99.6102 290.388C97.2348 285.834 94.8792 281.28 92.4839 276.725C92.4443 276.646 92.3058 276.725 92.3454 276.804C94.7604 281.577 97.1952 286.349 99.6102 291.141C98.6007 291.022 97.5713 290.903 96.5618 290.784C89.3364 287.022 82.1309 283.26 74.9056 279.537C74.6681 279.418 74.3514 279.735 74.5889 279.933C78.3698 283.121 82.1903 286.23 86.0504 289.299C76.5486 287.854 67.1063 286.111 57.743 283.992C57.169 283.854 56.9314 284.725 57.5055 284.864C69.0858 287.953 80.6661 291.042 92.2662 294.131C95.0177 296.23 97.7891 298.269 100.58 300.289C100.897 303.14 101.233 305.992 101.709 308.804C100.62 307.477 99.8082 305.992 99.2935 304.328C99.2539 304.229 99.0956 304.269 99.1352 304.368C99.6894 306.408 100.62 308.249 101.946 309.893C102.085 310.071 102.421 309.932 102.401 309.714C102.045 306.724 101.629 303.734 101.233 300.744C102.956 301.972 104.658 303.2 106.4 304.408C106.618 304.566 106.855 304.269 106.756 304.051C105.549 301.695 104.302 299.358 103.074 297.002C105.569 297.655 108.043 298.329 110.537 298.982C110.993 299.101 111.329 298.428 110.874 298.19C107.588 296.487 104.322 294.784 101.036 293.081C100.838 292.705 100.64 292.309 100.442 291.933C102.104 292.111 103.747 292.309 105.41 292.467H105.391ZM100.066 295.279C97.215 294.507 94.3645 293.754 91.5139 292.982C90.4054 292.151 89.3365 291.299 88.2477 290.448C90.9597 290.824 93.6914 291.18 96.4034 291.497C97.5713 292.111 98.7195 292.725 99.8676 293.339C99.927 293.992 99.9864 294.626 100.066 295.279ZM100.422 293.636C100.64 293.754 100.857 293.873 101.075 293.992C101.372 294.606 101.689 295.2 101.986 295.814C101.511 295.695 101.055 295.556 100.58 295.438C100.521 294.844 100.461 294.249 100.402 293.655L100.422 293.636ZM76.806 281.121C82.705 284.27 88.604 287.378 94.503 290.507C91.989 290.17 89.475 289.834 86.961 289.458C83.5166 286.745 80.1118 283.973 76.806 281.121ZM72.4114 287.913C77.3801 288.824 82.3487 289.636 87.3569 290.349C88.3467 291.121 89.3167 291.933 90.3262 292.705C84.348 291.121 78.3896 289.517 72.4114 287.933V287.913ZM93.4935 294.467C95.7106 295.061 97.9474 295.655 100.165 296.23C100.165 296.368 100.184 296.527 100.204 296.665C100.303 297.655 100.422 298.645 100.521 299.635C98.1454 297.933 95.8095 296.21 93.4737 294.467H93.4935ZM105.846 303.398C104.282 302.309 102.718 301.2 101.154 300.091C100.996 298.883 100.818 297.655 100.699 296.447C100.699 296.447 100.699 296.408 100.699 296.388C101.313 296.546 101.926 296.725 102.54 296.883C103.649 299.061 104.737 301.239 105.846 303.418V303.398ZM107.053 297.16C105.549 296.744 104.025 296.348 102.52 295.952C102.243 295.398 101.946 294.863 101.669 294.309C103.47 295.259 105.272 296.21 107.053 297.16Z" fill="black"/>
</g>
<defs>
<clipPath id="clip0_7278_885">
<rect width="267" height="369" fill="white"/>
</clipPath>
</defs>
</svg>
