<svg width="29" height="41" viewBox="0 0 29 41" fill="none" xmlns="http://www.w3.org/2000/svg">
<path d="M20.0543 23.9197C20.4905 24.0292 20.9613 23.7162 21.3053 23.4657C21.3145 23.458 21.3237 23.4502 21.3329 23.4425C21.3831 23.4397 21.4344 23.4282 21.4878 23.4276C21.5648 23.4246 21.6018 23.314 21.5501 23.2688C22.2132 22.7365 22.7868 22.0624 23.1985 21.2997C24.0512 19.7193 24.3528 17.7995 23.8887 16.0402C24.8363 14.8874 25.4507 13.4286 25.3088 11.8924C25.2933 11.7454 25.2726 11.5994 25.2416 11.4558C25.2855 11.2983 25.3212 11.1397 25.3784 10.982C25.4166 10.8769 25.4227 10.867 25.4854 10.7506C25.5421 10.6584 25.5989 10.5661 25.668 10.4824C25.6893 10.4549 25.7432 10.3889 25.7666 10.358C25.7666 10.358 25.844 10.2754 25.8388 10.2765C25.907 10.2016 25.9794 10.1342 26.0579 10.0711C26.2027 9.95057 26.3683 9.85377 26.5432 9.77759C26.9075 9.61634 27.323 9.57993 27.7048 9.6846C28.0444 9.77885 28.178 9.2887 27.8688 9.14502C27.5946 9.0162 27.3015 8.95414 27.0108 8.94549C27.2733 8.77014 27.5419 8.59909 27.8086 8.43133C27.9023 8.59494 28.0224 8.71571 28.1935 8.79663C28.2935 8.84238 28.3848 8.70826 28.3419 8.61278C28.3064 8.5412 28.302 8.50526 28.2777 8.42265C28.2651 8.38572 28.2576 8.34763 28.2521 8.30625C28.2489 8.28992 28.2488 8.27575 28.2456 8.25942C28.2456 8.25942 28.2434 8.24854 28.2464 8.23651C28.2462 8.20816 28.247 8.18524 28.2468 8.15689C28.3347 8.10025 28.4225 8.04362 28.5083 7.99028C28.6554 7.89479 28.5857 7.66328 28.4114 7.68819C28.3693 7.69195 28.3283 7.70114 28.2873 7.71034C28.2873 7.71034 28.2893 7.70705 28.2914 7.70375C28.2984 7.68513 28.3034 7.6698 28.3074 7.64903C28.3113 7.62827 28.3132 7.61079 28.3151 7.59332C28.3263 7.58228 28.3379 7.49163 28.3429 7.4763C28.3539 7.43691 28.3659 7.40296 28.38 7.36572C28.38 7.36572 28.38 7.36572 28.3841 7.35912C28.3942 7.34265 28.4023 7.32947 28.4124 7.31299C28.4226 7.29651 28.4347 7.27674 28.4449 7.26026C28.4469 7.25697 28.459 7.2372 28.4662 7.23275C28.512 7.17987 28.5639 7.13129 28.6242 7.09787C28.7458 7.02231 28.6837 6.82889 28.5442 6.85449C28.3525 6.88614 28.1818 6.98409 28.034 7.11667C27.8678 7.26473 27.7533 7.44383 27.7089 7.66683C27.698 7.7204 27.6882 7.77941 27.6805 7.83512C26.9969 7.99132 26.3346 8.24216 25.7606 8.61524C25.7244 8.58075 25.6902 8.54297 25.6519 8.51178C25.6179 8.48818 25.5827 8.45914 25.5507 8.43224C25.5629 8.42665 25.5721 8.41891 25.5864 8.41002C25.613 8.39553 25.6375 8.38434 25.6652 8.3753C25.6703 8.37415 25.6826 8.36855 25.6877 8.3674C25.7051 8.36066 25.7205 8.35721 25.7379 8.35047C25.7686 8.34357 25.7963 8.33453 25.8281 8.33307C25.8435 8.32962 25.8568 8.32947 25.8722 8.32602C25.8722 8.32602 25.904 8.32456 25.9091 8.32341C25.981 8.32149 26.0535 8.26831 26.0528 8.18324C26.0541 8.09488 25.9962 8.04538 25.9211 8.03097C25.7741 8.00431 25.617 8.0083 25.4726 8.04923C25.4347 8.06057 25.3968 8.07191 25.3569 8.08655C25.3446 8.09215 25.3292 8.0956 25.3169 8.10119C25.3241 8.09675 25.3169 8.10119 25.3067 8.10349C25.2995 8.10794 25.2913 8.10694 25.2842 8.11138C25.2043 8.14066 25.1276 8.17208 25.054 8.21983C24.9825 8.26428 24.9358 8.32589 24.9211 8.41441C24.9063 8.48874 24.9205 8.58783 24.9794 8.64277C25.0156 8.67726 25.0477 8.70415 25.09 8.72875C25.1168 8.74262 25.1425 8.75105 25.1694 8.76492C25.2013 8.77764 25.2332 8.79036 25.2652 8.80308C25.3177 8.82538 25.3723 8.84438 25.4217 8.86454C25.3799 8.89665 25.3412 8.9309 25.3024 8.96516C25.0239 8.93674 24.7438 8.95414 24.4713 9.03799C24.3371 9.07662 24.1927 9.11754 24.0731 9.18981C24.0302 9.21648 23.9853 9.24645 23.9414 9.28185C23.1813 8.73655 22.1761 8.61834 21.2786 8.61231C21.4427 8.45337 21.587 8.27611 21.7065 8.06751C22.0243 7.50761 22.1011 6.85124 22.1935 6.21978C22.28 5.62655 22.3736 5.13686 22.9114 4.85146C23.4246 4.57724 23.9574 4.32135 24.102 3.66965C24.2378 3.06822 23.9073 2.58559 23.4865 2.22834C23.2549 2.03032 22.6253 1.754 22.8481 1.37734C23.1863 0.798667 24.0524 1.10717 24.554 1.16792C24.6557 1.18202 24.7294 1.0263 24.6528 0.949742C24.1839 0.483976 23.577 0.105961 22.9074 0.210741C22.3003 0.307165 21.755 0.798789 21.701 1.47562C21.6441 2.17866 22.1285 2.65515 22.6091 3.04444C22.6825 3.10467 22.9766 3.28015 22.9776 3.40775C22.9783 3.37066 22.8121 3.50454 22.7477 3.54455C22.5913 3.6336 22.4214 3.69445 22.265 3.78351C21.6579 4.12424 21.2907 4.67816 21.1291 5.37914C20.9764 6.04402 21.0255 6.90507 20.6297 7.47677C20.3983 7.80991 20.0519 8.02112 19.6952 8.22046C19.5146 7.98259 19.229 7.83646 18.884 7.83716C18.0432 7.84684 17.1819 8.11961 16.3853 8.53124C16.5094 8.38693 16.5856 8.16247 16.5309 7.99296C16.3538 7.4333 15.9948 7.10479 15.5111 6.83551C15.2408 6.68593 14.7095 6.50118 14.7127 6.13686C14.7167 5.74963 15.0618 5.38247 15.2243 5.03922C15.4162 4.6411 15.5676 4.20091 15.3557 3.77691C15.3296 3.72595 15.2463 3.71054 15.2181 3.77086C14.8175 4.63055 13.6814 5.08426 13.6511 6.15345C13.6344 6.74805 13.9823 7.22394 14.4315 7.53506C14.6111 7.65951 14.9593 7.79728 15.1949 7.97453C14.8788 8.38062 14.8139 8.97469 14.8974 9.52124C14.8311 9.57872 14.7586 9.6319 14.6944 9.68608C13.5587 10.6851 12.3995 12.2036 13.0864 13.8306C13.1104 13.8848 13.1365 13.9358 13.1637 13.9922C12.9701 14.0555 12.784 14.1427 12.6052 14.2538C11.9064 14.6861 11.4006 15.3649 11.0711 16.1376C10.3296 17.8749 10.8472 19.9062 11.9584 21.3102C12.4398 21.9209 13.0597 22.5147 13.7457 22.9147C13.6789 23.282 13.61 23.6525 13.5186 24.0167C13.2362 25.151 12.8375 26.2517 12.3492 27.3044C11.8759 28.3252 11.3016 29.2949 10.6456 30.1891C10.3045 30.6577 9.9323 31.1048 9.55597 31.5443C9.29968 31.8461 8.88381 32.2206 8.76906 32.6298C8.75476 32.6387 8.73736 32.6455 8.72306 32.6544C7.69186 33.2465 6.69199 33.9026 5.72428 34.5997C4.74942 35.3013 3.82019 36.058 2.92527 36.8667C2.02629 37.682 1.1173 38.5279 0.516293 39.62C0.408037 39.8176 0.607689 40.125 0.820083 39.9808C1.51043 39.5191 2.11571 38.9516 2.72099 38.384C2.73393 38.5856 2.88642 38.7758 3.11905 38.7208C3.84769 38.5488 4.55135 38.2091 5.25035 37.9273C5.94732 37.6488 6.63691 37.3464 7.32554 37.0527C7.39204 37.0236 7.45545 36.9923 7.51992 36.9665C7.58953 36.9395 7.66425 36.9114 7.73385 36.8844C8.18531 36.7178 8.63343 36.5207 9.07119 36.3117C9.7851 35.9697 10.4853 35.5854 11.1731 35.1925C11.2631 35.1467 11.3531 35.101 11.438 35.0564C11.4574 35.0463 11.4757 35.0308 11.4859 35.0144C11.5911 34.951 11.7005 34.8952 11.8058 34.8318C12.6693 34.3256 13.4973 33.7478 14.316 33.1636C14.5671 32.9852 14.8068 32.7893 15.0403 32.5892C15.016 32.6288 15.003 32.6715 14.9787 32.711C14.7268 33.1709 14.3847 33.526 14.0459 33.9117C13.9849 33.9822 14.0289 34.0973 14.1274 34.0809C15.3147 33.8742 15.9519 32.6802 16.3237 31.4435C16.4348 31.3418 16.5459 31.2402 16.6632 31.1429C16.7682 31.0512 16.6454 30.8486 16.528 30.9318C16.5045 30.9484 16.4779 30.9629 16.4545 30.9795C16.5818 30.4851 16.6713 30.002 16.7378 29.5922C16.8976 28.6644 17.0717 27.7277 17.4477 26.865C17.6412 26.4211 17.8758 25.9821 18.2005 25.6337C18.342 25.4827 18.4939 25.3435 18.6426 25.2022C18.7731 25.0763 18.864 24.8997 18.9904 24.7804C19.024 24.7473 19.006 24.6832 18.9577 24.6827C18.891 24.6834 18.8314 24.6797 18.7698 24.6794C19.1174 24.3656 19.5063 24.0852 19.9245 23.8721C19.9719 23.8955 20.0234 23.9124 20.0769 23.9259L20.0543 23.9197ZM14.6876 11.4999C14.8856 11.2283 15.1084 10.9738 15.3458 10.7387C15.4468 10.9121 15.558 11.0831 15.662 11.2444C15.87 11.567 16.0065 11.9341 16.2093 12.2579C16.2832 12.3748 16.4026 12.4105 16.5127 12.3176C17.1329 11.8121 16.6868 10.7418 16.3742 10.187C16.3367 10.1187 16.2992 10.0504 16.2616 9.98215C16.8324 9.59275 17.4624 9.28666 18.1222 9.10456C18.1857 9.08746 18.4181 9.00408 18.6303 8.95365C18.4319 9.18279 18.2965 9.44611 18.2494 9.72368C18.1738 9.76054 18.1758 9.8794 18.2296 9.93549C18.2294 10.1656 18.294 10.3983 18.4375 10.6246C18.5114 10.7415 18.6825 10.7003 18.7484 10.6003C19.0587 10.1244 19.5049 9.80847 19.9697 9.51955C20.1133 9.50153 20.255 9.50099 20.3802 9.49846C20.8587 9.49622 21.3159 9.53567 21.7899 9.60547C22.3347 9.68209 22.8927 9.74437 23.3656 10.0672C23.3436 10.1318 23.3308 10.2029 23.3303 10.2683C23.3242 10.4003 23.4522 10.4796 23.5596 10.4271C23.6035 10.4059 23.6433 10.377 23.6842 10.3537C23.8283 10.5145 23.9427 10.7019 24.0429 10.8981C23.81 11.6719 23.7156 12.5652 23.1711 13.156C22.6551 13.7149 21.7496 13.9806 21.0299 13.9943C20.8697 13.9962 20.767 14.2351 20.9279 14.3325C22.1136 15.055 23.4302 14.4586 24.2164 13.4101C24.0015 14.1259 23.6138 14.8066 23.192 15.4636C23.1114 15.53 23.0485 15.618 23.0216 15.7263C22.7793 16.0988 22.5358 16.4659 22.3211 16.8293C22.2367 16.8085 22.1575 16.7865 22.0752 16.7624C22.142 16.6536 22.1037 16.4861 21.9465 16.4759C21.5675 16.453 21.1976 16.4224 20.8306 16.3797C20.8131 16.3723 20.7936 16.3681 20.7761 16.3607C20.6494 16.3153 20.5257 16.2578 20.3961 16.2244C20.3765 16.2202 20.3539 16.214 20.3344 16.2098C20.3239 16.1838 20.3134 16.1577 20.2927 16.134C20.1817 16.0054 19.9927 15.9967 19.861 16.0888C19.8121 16.1253 19.7775 16.1672 19.7522 16.2154C19.0241 16.0777 18.3099 15.8743 17.5908 15.5783C16.883 15.2854 16.1974 14.9421 15.5572 14.5034C15.0832 14.1751 14.5492 13.7865 14.2788 13.2421C13.9573 12.6012 14.317 12.0092 14.6917 11.4933L14.6876 11.4999ZM20.0708 23.0524C20.0186 23.0726 19.9674 23.0841 19.9182 23.0923C19.9089 23.0859 19.8965 23.0773 19.8831 23.0775C19.8266 23.0759 19.7826 23.083 19.7314 23.1086C19.664 23.1465 19.6051 23.2279 19.6078 23.3097C19.6068 23.3184 19.6111 23.3402 19.6174 23.3586C19.0616 23.5657 18.5537 23.8671 18.1157 24.2921C17.6063 24.7898 17.1974 25.39 16.9729 26.0568C16.5617 26.7541 16.322 27.5749 16.1467 28.3698C15.9358 29.3233 15.7968 30.2891 15.5386 31.2333C15.5057 31.3514 15.4707 31.4729 15.4296 31.5901C14.9461 31.8661 14.4606 32.1313 13.9917 32.4268C13.1346 32.9657 12.2587 33.4633 11.3808 33.9642C10.5274 34.4539 9.6594 34.91 8.7809 35.34C8.35649 35.5488 7.93112 35.7664 7.50885 35.9861C7.34628 36.0709 7.16214 36.1548 6.98634 36.2539C6.31798 36.5146 5.64866 36.7841 4.9866 37.0633C4.77887 37.1497 4.56804 37.2339 4.35828 37.3236C4.36233 37.317 4.36639 37.3104 4.37354 37.3059C4.43266 37.2529 4.35701 37.1676 4.29682 37.2152C4.03757 37.4069 3.76261 37.5595 3.48658 37.7066C3.43545 37.7323 3.38432 37.758 3.33522 37.7803C3.3556 37.7616 3.37801 37.7395 3.39839 37.7207C4.27389 36.9221 5.18775 36.1688 6.11935 35.4513C7.0438 34.7383 8.00459 34.0739 8.99456 33.4627C9.49313 33.1548 9.99061 32.8415 10.4975 32.5488C11.0024 32.2595 11.5065 32.0072 11.9074 31.5565C11.9736 31.4848 11.9476 31.3259 11.8337 31.3316C11.4221 31.3472 11.0555 31.4692 10.6913 31.6305C10.9273 31.3616 11.156 31.0831 11.3724 30.7959C11.8377 30.183 12.2523 29.5304 12.6329 28.8542C13.9495 28.2577 14.673 26.5785 14.9512 25.1781C15.1849 24.0008 15.1493 22.7873 14.7215 21.7016C14.6956 21.4205 14.6262 21.2173 14.4832 21.1841C14.4207 21.0703 14.3633 20.9553 14.2916 20.8493C14.2344 20.7627 14.1201 20.848 14.1321 20.9362C14.1485 21.0603 14.1567 21.1835 14.17 21.3055C13.9601 21.5031 13.9097 21.8723 13.8619 22.1728C13.4165 21.7046 12.964 21.2408 12.594 20.6932C12.0733 19.9238 11.6284 18.9953 11.5938 18.0315C11.5622 17.1779 11.8127 16.2894 12.2886 15.5946C12.5209 15.2528 12.8225 14.9635 13.1772 14.7675C13.2927 14.7018 13.4185 14.648 13.5424 14.5975C14.3153 15.5746 15.5855 16.21 16.6423 16.6177C17.8989 17.1028 19.3791 17.2962 20.7586 17.1145C21.0815 17.1785 21.4115 17.2237 21.738 17.2243C21.8613 17.2251 21.9844 17.2117 22.1065 17.207C22.1004 17.2169 22.0943 17.2268 22.0883 17.2367C22.0165 17.3749 22.1507 17.5948 22.3019 17.4927C22.4622 17.3829 22.6183 17.2655 22.7754 17.1393C22.8534 17.1275 22.9333 17.1124 23.0123 17.106C23.0965 17.0985 23.0851 16.9591 23.0028 16.9491C23.0559 16.906 23.1048 16.8552 23.1567 16.8066C23.298 18.0135 23.1191 19.2382 22.5756 20.3373C22.2494 21.0041 21.8242 21.6165 21.3005 22.1232C21.0397 22.3748 20.7539 22.581 20.4661 22.7904C20.3395 22.8813 20.21 22.9984 20.0708 23.0524Z" fill="#1C002F"/>
</svg>
