<svg width="330" height="70" viewBox="0 0 330 70" fill="none" xmlns="http://www.w3.org/2000/svg">
<g clip-path="url(#clip0_7263_51)">
<path d="M0.908203 50.8188C31.6508 41.4765 63.5103 35.8926 95.5918 34.1208C127.485 32.3557 159.573 34.3221 191.009 39.9933C206.895 42.859 222.613 46.6778 238.041 51.4362C245.799 53.8322 253.49 56.4631 261.086 59.3355C268.811 62.255 276.501 65.4362 284.589 67.2349C298.928 70.4295 315.756 68.3288 324.018 54.7785C331.251 42.906 329.616 27.8188 321.118 17.0738C316.947 11.7986 311.436 7.61071 305.313 4.85232C298.039 1.56373 289.124 -0.161103 281.507 2.99326C274.53 5.88588 269.558 12.7852 271.018 20.4832C272.485 28.2147 278.722 33.6845 285.41 37.1543C288.821 38.9261 292.414 40.302 295.994 41.6711C296.391 41.8255 296.223 42.4765 295.812 42.3154C288.714 39.604 281.158 36.7449 275.876 31.0469C271.394 26.2147 268.582 19.1745 270.903 12.6912C273.104 6.53017 279.052 2.37581 285.323 1.14091C292.71 -0.315466 300.549 1.67782 307.177 4.97984C318.999 10.8926 328.419 22.4161 329.26 35.8859C330.087 49.0738 322.969 62.0537 310.379 66.8993C294.837 72.8725 278.358 66.651 263.731 61.0537C247.798 54.953 231.521 49.8053 214.942 45.7516C181.885 37.6778 147.812 33.812 113.786 34.1879C79.7597 34.557 45.7739 39.1678 12.932 48.0604C8.96222 49.1342 5.0126 50.2751 1.08313 51.4698C0.665985 51.5973 0.491028 50.9463 0.901489 50.8255L0.908203 50.8188Z" fill="#1A171B" stroke="#1A171B" stroke-width="2" stroke-miterlimit="10"/>
</g>
<defs>
<clipPath id="clip0_7263_51">
<rect width="330" height="70" fill="white" transform="matrix(-1 0 0 1 330 0)"/>
</clipPath>
</defs>
</svg>
