<svg width="332" height="70" viewBox="0 0 332 70" fill="none" xmlns="http://www.w3.org/2000/svg">
<g clip-path="url(#clip0_7263_48)">
<path d="M331.086 50.8188C300.157 41.4765 268.105 35.8926 235.829 34.1208C203.742 32.3557 171.459 34.3221 139.833 39.9933C123.851 42.859 108.038 46.6778 92.5159 51.4362C84.7109 53.8322 76.9736 56.4631 69.3311 59.3355C61.5599 62.255 53.8226 65.4362 45.6859 67.2349C31.2606 70.4295 14.3306 68.3288 6.01787 54.7785C-1.25912 42.906 0.385821 27.8188 8.93544 17.0738C13.1324 11.7986 18.6764 7.61071 24.8365 4.85232C32.1541 1.56373 41.1234 -0.161103 48.7863 2.99326C55.806 5.88588 60.8085 12.7852 59.3396 20.4832C57.8639 28.2147 51.5887 33.6845 44.8601 37.1543C41.428 38.9261 37.8132 40.302 34.212 41.6711C33.8126 41.8255 33.9818 42.4765 34.3947 42.3154C41.5364 39.604 49.1383 36.7449 54.4522 31.0469C58.9605 26.2147 61.7901 19.1745 59.4547 12.6912C57.2411 6.53017 51.2571 2.37581 44.9481 1.14091C37.5154 -0.315466 29.6292 1.67782 22.9614 4.97984C11.0678 10.8926 1.59075 22.4161 0.744593 35.8859C-0.08803 49.0738 7.07388 62.0537 19.7392 66.8993C35.3763 72.8725 51.9543 66.651 66.6707 61.0537C82.7004 54.953 99.0753 49.8053 115.755 45.7516C149.012 37.6778 183.292 33.812 217.524 34.1879C251.757 34.557 285.948 39.1678 318.989 48.0604C322.983 49.1342 326.957 50.2751 330.91 51.4698C331.33 51.5973 331.506 50.9463 331.093 50.8255L331.086 50.8188Z" fill="#1A171B" stroke="#1A171B" stroke-width="2" stroke-miterlimit="10"/>
</g>
<defs>
<clipPath id="clip0_7263_48">
<rect width="332" height="70" fill="white"/>
</clipPath>
</defs>
</svg>
