<svg width="52" height="270" preserveAspectRatio="none" viewBox="0 0 52 270" fill="none" xmlns="http://www.w3.org/2000/svg">
<g clip-path="url(#clip0_7388_6)">
<path d="M5.48388 241.47C8.94003 239.055 13.3983 238.482 17.5409 238.768C21.794 239.063 26.418 239.984 29.7874 242.7C32.6754 245.03 34.364 249.194 32.849 252.716C31.6417 255.526 28.3118 256.935 25.3449 256.083C23.9719 255.688 22.8435 254.814 22.228 253.537C21.8019 252.639 23.1591 251.849 23.5931 252.755C25.0214 255.743 29.7242 255.224 31.1919 252.538C33.3461 248.606 30.1425 244.295 26.639 242.515C22.9382 240.626 18.2432 240.03 14.1164 240.293C10.1079 240.549 6.04412 242.035 3.70846 245.41C-0.78926 251.911 2.15399 260.665 8.41924 264.845C15.7813 269.76 25.0766 269.048 33.0462 266.045C37.1731 264.481 41.4814 262.43 44.906 259.636C48.6857 256.548 50.256 252.337 50.3033 247.577C50.3901 239.488 46.8708 231.47 40.9449 225.873C35.1373 220.386 26.7731 217.94 22.0544 211.275C17.3673 204.658 17.1227 195.811 17.1464 188.047C17.178 180.152 18.3695 171.824 23.8535 165.67C28.8484 160.059 36.2578 157.257 43.3752 155.252C44.3221 154.989 45.269 154.734 46.2238 154.486C34.5376 150.484 26.3707 139.857 22.7567 128.479C20.4132 121.103 19.6951 113.316 19.6951 105.615C19.6951 97.7583 20.2948 89.8401 21.723 82.1077C23.1591 74.3056 25.6921 66.8905 29.0772 59.6999C32.486 52.4628 36.4393 45.4193 38.8065 37.7643C41.079 30.4111 42.018 22.222 39.1616 14.8844C36.818 8.89347 31.5233 3.66886 25.1003 2.04343C21.4469 1.12235 16.7519 1.33908 13.7928 3.89333C11.3467 6.00639 10.5024 9.58235 11.3151 12.6088C13.1142 19.3272 22.8435 20.0935 26.4496 14.4277C26.9862 13.584 28.3513 14.358 27.8147 15.2094C24.8872 19.7994 17.9907 21.2622 13.4141 18.1584C8.71908 14.9772 8.25353 7.94917 11.7491 3.74627C16.0259 -1.40094 24.4927 -0.588223 29.8584 2.23694C35.879 5.40266 40.1242 11.2465 41.6787 17.7173C45.6951 34.4902 34.9479 49.746 28.6274 64.4601C25.1634 72.5176 23.1591 81.0627 22.1649 89.7394C21.2022 98.1375 20.8708 106.737 21.6994 115.158C23.1434 129.872 29.7242 145.523 44.2195 152.048C45.8766 152.791 47.6047 153.364 49.3722 153.789C50.1297 153.975 50.1218 155.097 49.3722 155.283C41.1816 157.319 32.2256 159.579 26.055 165.624C19.1506 172.381 18.5194 182.343 18.764 191.375C18.8903 195.965 19.2059 200.625 20.6736 205.014C22.1807 209.518 25.0529 213.032 28.9588 215.78C32.5491 218.311 36.5182 220.285 39.9822 222.994C43.3437 225.633 46.1291 229 48.1333 232.731C51.984 239.914 54.1461 250.743 48.8593 257.778C46.1843 261.339 42.0654 263.599 38.1042 265.526C33.7801 267.624 29.1798 269.249 24.3664 269.807C16.1679 270.766 6.87265 268.057 2.32758 260.859C-1.51521 254.783 -0.67879 245.773 5.48388 241.47Z" fill="#1A171B"/>
</g>
<defs>
<clipPath id="clip0_7388_6">
<rect width="52" height="270" fill="white"/>
</clipPath>
</defs>
</svg>
