<svg width="51" height="270" preserveAspectRatio="none" viewBox="0 0 51 270" fill="none" xmlns="http://www.w3.org/2000/svg">
<g clip-path="url(#clip0_7388_3)">
<path d="M45.6213 241.47C42.2317 239.055 37.8591 238.482 33.7962 238.769C29.6248 239.063 25.0898 239.984 21.7852 242.701C18.9528 245.03 17.2966 249.195 18.7825 252.716C19.9666 255.526 23.2324 256.935 26.1423 256.083C27.4889 255.688 28.5955 254.814 29.1992 253.537C29.6171 252.639 28.286 251.849 27.8603 252.755C26.4596 255.743 21.8471 255.224 20.4077 252.538C18.2949 248.606 21.437 244.295 24.8731 242.515C28.5027 240.626 33.1074 240.03 37.1549 240.293C41.0863 240.549 45.0719 242.035 47.3626 245.41C51.7738 251.911 48.8872 260.665 42.7424 264.845C35.5219 269.76 26.4054 269.048 18.589 266.045C14.5415 264.481 10.316 262.43 6.9573 259.636C3.25032 256.548 1.71026 252.337 1.66383 247.577C1.5787 239.488 5.03029 231.47 10.8423 225.873C16.5382 220.386 24.7415 217.94 29.3694 211.275C33.9664 204.658 34.2063 195.811 34.1831 188.047C34.1521 180.152 32.9836 171.824 27.605 165.67C22.7062 160.059 15.4392 157.257 8.45867 155.252C7.52999 154.989 6.60131 154.734 5.66489 154.486C17.1263 150.484 25.1362 139.857 28.6807 128.479C30.9792 121.103 31.6834 113.316 31.6834 105.615C31.6834 97.7583 31.0952 89.8401 29.6945 82.1077C28.286 74.3056 25.8018 66.8905 22.4817 59.6999C19.1385 52.4628 15.2612 45.4193 12.9395 37.7643C10.7107 30.4111 9.78978 22.222 12.5913 14.8844C14.8898 8.89347 20.0826 3.66886 26.3822 2.04343C29.9653 1.12235 34.5701 1.33908 37.4722 3.89333C39.8713 6.00639 40.6993 9.58235 39.9022 12.6088C38.1377 19.3272 28.5955 20.0935 25.0588 14.4277C24.5326 13.584 23.1937 14.358 23.72 15.2094C26.5911 19.7994 33.355 21.2622 37.8437 18.1584C42.4484 14.9772 42.905 7.94917 39.4766 3.74627C35.2666 -1.40868 26.9704 -0.595964 21.7078 2.22919C15.803 5.39492 11.6394 11.2387 10.1148 17.7095C6.17566 34.4824 16.7162 49.7383 22.9151 64.4523C26.3125 72.5098 28.2782 81.055 29.2534 89.7317C30.1975 98.1298 30.5226 106.729 29.71 115.15C28.2937 129.864 21.8394 145.515 7.62286 152.04C5.99767 152.783 4.30283 153.356 2.56929 153.782C1.82635 153.967 1.83409 155.09 2.56929 155.275C10.6024 157.311 19.3861 159.571 25.438 165.616C32.2097 172.373 32.8288 182.335 32.5889 191.368C32.465 195.958 32.1555 200.617 30.716 205.006C29.2379 209.511 26.4209 213.025 22.5901 215.772C19.0688 218.304 15.1761 220.277 11.7787 222.986C8.48189 225.626 5.75002 228.993 3.78431 232.723C0.00768171 239.906 -2.1128 250.735 3.07233 257.771C5.69585 261.331 9.73561 263.591 13.6206 265.518C17.8616 267.616 22.3734 269.242 27.0942 269.799C35.135 270.759 44.2515 268.05 48.7092 260.851C52.4781 254.775 51.6578 245.766 45.6136 241.462L45.6213 241.47Z" fill="#1A171B"/>
</g>
<defs>
<clipPath id="clip0_7388_3">
<rect width="51" height="270" fill="white"/>
</clipPath>
</defs>
</svg>
