<svg width="494" height="392" viewBox="0 0 494 392" fill="none" xmlns="http://www.w3.org/2000/svg">
<g clip-path="url(#clip0_7278_776)">
<path d="M493.703 16.2975C485.146 8.38991 473.884 5.16006 462.585 3.63794C448.693 1.78171 434.468 1.44758 420.465 0.927837C390.458 -0.260154 360.414 -0.260154 330.407 0.705089C318.516 1.07634 306.624 1.67033 294.733 2.33858C251.612 0.259592 208.306 3.04395 165.778 10.7288C161.11 11.5826 156.442 12.4736 151.811 13.4389C135.178 15.5179 118.582 17.8567 102.023 20.6039C68.0149 26.2098 34.1925 33.2263 0.703447 41.6165C-0.185642 41.8393 -0.185642 42.953 0.481175 43.4356C8.29775 48.9301 17.1886 52.1228 26.4129 54.0162C17.3368 57.0975 8.63116 61.1441 0.740492 66.6757C-0.0374602 67.2326 0.221857 68.4948 1.22208 68.4948C8.96456 68.6433 16.707 68.6433 24.4495 68.7176C21.1895 69.7571 17.9666 70.7966 14.7436 71.8361C14.0398 72.0588 13.8175 72.9127 14.2991 73.4696C21.8934 82.1196 33.3404 84.7555 44.3799 85.3495C50.6406 85.6836 56.9013 85.3495 63.1619 85.0896C71.2749 84.7555 79.3878 84.3842 87.5007 83.9759C100.504 83.3447 113.507 82.5651 126.51 81.7855C130.51 82.0454 134.511 82.2681 138.512 82.4909C120.842 87.8739 103.69 94.8534 87.9453 104.691C87.2044 105.174 87.5007 106.288 88.3898 106.325C100.17 106.882 111.914 107.216 123.694 107.364C123.546 108.33 123.546 109.369 123.842 110.483C123.953 110.928 124.361 111.188 124.768 111.188C136.401 111.931 148.07 112.376 159.739 112.599C146.514 116.646 133.511 121.546 120.99 127.486C120.064 127.932 120.619 129.268 121.471 129.305C122.805 129.379 124.139 129.454 125.472 129.528C122.323 130.864 119.175 132.201 116.063 133.612C115.1 134.057 115.729 135.319 116.544 135.394C125.028 136.433 133.548 137.176 142.069 137.732C139.253 138.586 136.475 139.44 133.696 140.331C119.286 145.046 105.171 150.615 91.4276 157C90.4644 157.446 91.0201 158.782 91.9091 158.856C106.394 159.599 120.879 159.859 135.363 159.636C130.955 161.307 126.584 163.014 122.249 164.834C121.212 165.279 121.323 166.727 122.509 166.801C128.843 167.284 135.215 167.581 141.587 167.766C131.733 170.662 121.953 173.781 112.284 177.159C111.247 177.53 111.321 179.201 112.543 179.201C123.842 179.015 135.141 178.495 146.44 177.716C139.735 180.426 133.067 183.322 126.584 186.477C125.769 186.886 126.102 187.999 126.806 188.259C135.215 191.415 143.921 192.603 152.664 192.566C151.552 193.085 150.404 193.568 149.292 194.088C140.624 196.761 132.103 199.842 123.731 203.332C122.916 203.666 122.916 205.002 123.953 204.965C139.142 204.631 154.257 203.332 169.297 201.179C167.408 202.144 165.481 203.109 163.629 204.149C162.666 204.705 163.184 206.005 164.148 206.079C171.594 206.636 179.077 206.859 186.56 206.747C177.447 209.42 168.408 212.427 159.517 215.843C158.406 216.288 158.591 217.773 159.813 217.885C167.519 218.739 175.261 219.147 183.004 219.184C182.448 219.555 181.892 219.889 181.337 220.224C181.003 220.446 180.855 220.855 180.855 221.226C177.632 222.451 174.446 223.713 171.334 225.124C170.334 225.57 170.89 227.092 171.853 227.092C179.262 227.24 186.708 227.092 194.117 226.758C189.376 228.874 184.708 231.138 180.188 233.663C179.929 233.811 179.818 234.034 179.744 234.294C178.595 234.925 177.447 235.519 176.298 236.187C175.298 236.781 175.854 238.043 176.854 238.192C191.524 239.9 206.305 240.382 221.012 239.714C204.12 244.355 187.597 250.406 171.705 257.905C170.631 258.425 171.334 259.799 172.261 259.91C187.042 261.84 202.008 262.286 216.9 261.432C215.011 262.657 213.122 263.882 211.232 265.182C210.343 265.813 210.714 267.038 211.751 267.149C235.089 269.748 258.761 268.857 281.841 264.513L259.391 272.124C258.132 272.569 258.428 274.24 259.688 274.389C281.915 276.69 304.513 274.314 325.777 267.409C326.851 267.075 326.888 265.553 325.777 265.219C317.404 262.62 308.699 261.172 299.956 260.838C300.919 260.504 301.919 260.17 302.883 259.836C303.179 259.724 303.327 259.576 303.475 259.353C304.216 259.13 304.994 258.945 305.735 258.722C314.292 256.16 322.665 253.116 330.889 249.626C332.111 249.107 331.074 247.288 329.852 247.807C300.956 260.096 269.616 266.481 238.238 266.481C230.459 266.481 222.679 266.036 214.937 265.256C217.085 263.808 219.271 262.434 221.494 261.098C240.35 259.65 259.021 256.086 277.025 250.258C286.323 247.25 295.436 243.649 304.327 239.528C305.328 239.046 304.772 237.561 303.772 237.524C274.765 236.67 245.796 244.243 220.827 258.982C214.455 259.464 208.083 259.761 201.675 259.724C193.191 259.687 184.671 259.13 176.224 258.165C194.414 249.886 213.344 243.427 232.756 238.897C246.722 237.672 260.614 235.482 274.283 232.178C275.432 231.918 275.21 229.987 273.987 230.062C259.984 231.324 246.129 233.588 232.496 236.781C215.159 238.266 197.674 238.155 180.336 236.336C180.707 236.113 181.077 235.927 181.448 235.705C214.381 241.162 248.87 234.071 276.914 215.88C277.136 215.732 277.284 215.472 277.321 215.212C278.358 214.841 279.396 214.544 280.433 214.135C281.544 213.69 281.359 212.168 280.137 212.056C279.692 212.019 279.211 212.019 278.766 211.982C281.693 211.091 284.619 210.2 287.546 209.198C288.657 208.826 288.509 207.119 287.249 207.119C279.766 206.97 272.283 207.193 264.837 207.861C266.356 207.081 267.838 206.302 269.319 205.448C270.283 204.891 269.764 203.592 268.801 203.48C268.282 203.443 267.726 203.406 267.208 203.369C272.728 201.179 278.173 198.803 283.545 196.167C284.545 195.684 283.952 194.311 283.026 194.199C275.321 193.531 267.578 193.457 259.91 193.939C259.91 193.42 259.539 192.974 258.91 193.048C237.275 194.83 215.863 198.58 194.932 204.223C185.967 204.631 177.002 204.594 168.037 204.037C170.742 202.589 173.446 201.216 176.224 199.953C181.226 199.137 186.19 198.246 191.117 197.243C208.713 195.573 226.087 191.749 242.721 185.66C243.647 185.326 243.573 183.878 242.462 183.878C241.461 183.878 240.498 183.916 239.498 183.953C247.685 181.094 255.798 178.013 263.763 174.597C264.355 174.337 264.244 173.224 263.577 173.112C234.534 168.991 204.712 171.664 176.854 180.909C169.038 183.507 161.406 186.626 153.997 190.227C153.886 190.301 153.812 190.375 153.775 190.487C145.662 190.561 137.623 189.596 129.77 186.997C137.401 183.359 145.18 180.018 153.071 177.01C182.226 174.746 211.195 170.662 239.831 164.611C251.76 162.086 263.651 159.228 275.432 156.072C276.58 155.775 276.321 154.067 275.173 154.067C269.764 153.919 264.318 153.956 258.91 154.067C268.319 151.58 277.692 148.87 286.953 145.714C287.99 145.343 287.879 143.672 286.694 143.71C278.062 144.044 269.468 144.601 260.873 145.306C275.321 142.225 289.694 138.661 303.92 134.614C305.031 134.317 304.772 132.721 303.66 132.646C293.621 132.201 283.545 132.164 273.468 132.424C281.137 130.27 288.731 127.894 296.214 125.296C297.289 124.924 297.029 123.477 295.955 123.365C294.547 123.217 293.103 123.105 291.695 122.957C295.325 121.992 298.919 120.989 302.512 119.95C317.33 117.537 332.111 114.715 346.781 111.448C352.005 110.297 357.265 109.072 362.451 107.81C366.156 106.919 369.786 105.805 373.158 103.986C378.529 101.09 383.716 96.1156 381.863 89.4703C381.752 89.0248 381.345 88.8021 380.937 88.7649C371.268 87.8739 361.562 87.3171 351.856 86.9458C351.708 86.7973 351.486 86.686 351.227 86.686C349.708 86.686 348.189 86.7602 346.633 86.7973C344.559 86.7602 342.521 86.686 340.447 86.6488C342.299 86.2776 344.151 85.9063 346.003 85.5351C367.638 81.043 389.124 75.7713 410.425 69.8685C432.801 66.8242 455.176 63.4088 477.44 59.5478C477.848 59.4735 478.144 59.028 478.144 58.6197C477.959 49.784 468.512 46.4428 461.103 45.4404C456.769 44.8464 452.324 44.8835 447.952 44.9578C453.287 43.1015 458.473 40.874 463.511 38.2382C469.698 36.382 475.81 34.3772 481.849 32.1497C482.441 31.927 482.886 31.036 482.256 30.5534C481.182 29.6995 480.033 28.957 478.922 28.2145C480.293 27.5091 481.626 26.7295 482.96 25.8757C485.553 24.205 487.961 22.2746 490.184 20.1213C490.332 19.9728 490.406 19.7872 490.443 19.6016C491.518 18.9333 492.555 18.2651 493.592 17.5226C494.111 17.1513 494.333 16.4088 493.814 15.9262L493.703 16.2975ZM321.442 266.518C303.253 271.938 284.212 274.092 265.281 272.792L297.252 261.952C305.476 262.509 313.589 263.994 321.442 266.518ZM298.585 239.937C275.469 250.072 250.834 256.494 225.717 258.908C247.981 246.656 273.135 240.048 298.585 239.937ZM176.965 225.273C178.41 224.679 179.855 224.122 181.3 223.565C181.114 224.122 181.3 224.79 181.966 224.901C182.967 225.05 184.004 225.124 185.004 225.273C182.3 225.31 179.633 225.273 176.928 225.273H176.965ZM185.597 223.231C185.597 223.231 185.93 223.045 186.116 222.934C191.376 223.491 196.673 223.713 201.934 223.676C201.119 224.01 200.304 224.307 199.489 224.641C194.858 224.344 190.19 223.862 185.597 223.231ZM218.901 220.372C225.791 218.442 232.793 216.957 239.868 215.88C233.015 217.922 226.013 219.407 218.901 220.372ZM250.13 214.655C254.242 214.284 258.391 214.061 262.54 213.987C263.133 214.061 263.689 214.172 264.281 214.247C245.573 219.184 226.495 222.451 207.231 224.085C207.861 223.862 208.454 223.639 209.084 223.453C223.124 222.6 236.979 219.667 250.167 214.692L250.13 214.655ZM239.09 210.497C227.68 210.608 216.27 211.908 205.12 214.284C221.531 208.232 239.016 205.151 256.539 205.299C250.797 207.267 244.981 208.975 239.09 210.497ZM227.273 213.17C220.271 214.544 213.196 215.546 206.083 216.251C213.085 214.766 220.16 213.727 227.273 213.17ZM223.791 215.954C218.308 217.551 212.862 219.37 207.528 221.449C201.526 221.746 195.488 221.671 189.487 221.189C190.376 220.743 191.228 220.298 192.117 219.852C192.858 219.63 193.599 219.444 194.303 219.221C204.194 218.776 214.048 217.699 223.791 215.991V215.954ZM184.448 234.368C189.561 231.621 194.784 229.096 200.082 226.795C200.156 226.795 200.23 226.795 200.304 226.795C223.531 228.205 246.907 225.458 269.097 218.442C243.573 232.883 213.492 238.637 184.448 234.405V234.368ZM219.456 224.976C236.349 222.934 253.094 219.63 269.505 215.026C270.134 215.137 270.727 215.286 271.357 215.397C254.575 220.966 237.09 224.27 219.456 224.976ZM280.137 209.643C277.655 210.423 275.21 211.239 272.728 211.982C269.356 211.833 265.985 211.833 262.614 211.871C261.132 211.685 259.651 211.536 258.169 211.351C258.502 211.202 258.873 211.054 259.206 210.905C260.169 210.794 261.095 210.645 262.059 210.534C268.06 209.94 274.098 209.68 280.137 209.606V209.643ZM258.576 208.901C254.724 209.346 250.908 209.903 247.129 210.571C250.649 209.532 254.168 208.455 257.65 207.267C259.28 206.71 260.91 206.116 262.54 205.522C263.392 205.559 264.244 205.634 265.096 205.671C262.948 206.784 260.799 207.898 258.613 208.901H258.576ZM278.729 196.39C273.283 198.951 267.726 201.29 262.059 203.369C238.275 202.255 214.381 207.007 192.858 217.142C192.08 217.142 191.339 217.216 190.561 217.254C199.6 212.056 209.121 207.75 218.975 204.446C230.866 202.775 242.61 200.25 254.168 196.909C262.318 196.093 270.542 195.944 278.729 196.427V196.39ZM228.31 199.397C224.976 200.288 221.679 201.253 218.419 202.367C214.529 202.923 210.64 203.369 206.75 203.74C213.9 202.07 221.086 200.659 228.31 199.397ZM195.155 206.636C200.008 206.413 204.898 206.079 209.713 205.559C201.563 208.826 193.673 212.762 186.153 217.365C178.892 217.439 171.668 217.105 164.444 216.437C174.52 212.724 184.782 209.42 195.155 206.636ZM173.816 199.062C167.519 200.065 161.221 200.919 154.886 201.587C146.218 202.478 137.475 202.998 128.769 203.258C134.585 200.956 140.476 198.877 146.403 196.946C146.477 196.946 146.551 197.058 146.625 197.058C156.109 198.209 165.629 198.617 175.15 198.469C174.706 198.654 174.261 198.84 173.816 199.062ZM185.375 196.39C198.674 191.266 212.64 187.999 226.865 186.737C215.233 190.338 203.453 193.382 191.524 195.87C189.487 196.093 187.412 196.278 185.375 196.427V196.39ZM211.01 192.937C218.678 190.932 226.31 188.705 233.867 186.217C234.719 186.18 235.571 186.217 236.423 186.143C228.088 188.927 219.605 191.229 211.01 192.937ZM260.132 174.634C251.612 178.198 242.98 181.428 234.237 184.361C229.199 184.547 224.198 184.992 219.234 185.698C227.014 183.433 234.645 180.649 242.017 177.27C242.795 176.936 242.35 175.822 241.609 175.785C213.566 174.449 185.523 179.312 159.517 189.744C190.894 175.637 225.976 170.365 260.095 174.634H260.132ZM196.562 183.841C196.562 183.841 196.414 183.841 196.34 183.841C196.34 183.841 196.34 183.841 196.303 183.841C185.338 185.326 174.446 187.442 163.74 190.153C163.259 190.19 162.777 190.264 162.295 190.301C186.301 180.983 212.047 176.528 237.794 177.27C216.752 186.254 194.08 190.932 171.297 191.044C179.929 189.67 188.523 187.628 196.822 185.586C197.785 185.363 197.6 183.656 196.562 183.804V183.841ZM161.666 192.491C172.89 193.048 184.152 192.491 195.266 190.895C189.783 192.529 184.411 194.459 179.151 196.724C169.445 197.095 159.702 196.798 149.996 195.796C153.849 194.608 157.739 193.531 161.666 192.491ZM330.185 6.01392C332.371 6.23667 334.556 6.49655 336.742 6.75642C322.591 6.83067 308.402 7.09054 294.251 7.61029C289.398 7.79591 284.508 8.01866 279.655 8.24141C270.023 8.20428 260.354 8.31566 250.723 8.72403C243.536 9.02103 236.349 9.4294 229.162 9.94915C249.759 7.98154 270.431 6.64504 291.102 5.90255C304.142 5.71693 317.182 5.79118 330.222 6.01392H330.185ZM459.177 29.848C457.547 28.5858 455.732 27.5463 453.805 26.6924C454.102 26.5068 454.435 26.3212 454.731 26.0984C455.361 25.69 455.398 24.7619 454.731 24.3535C453.027 23.3512 451.323 22.4231 449.582 21.5321C450.471 21.1608 451.397 20.7896 452.286 20.3812C458.955 21.5692 465.438 23.4997 471.513 26.4697C467.475 27.8061 463.363 28.8828 459.177 29.7738V29.848ZM473.884 27.769C474.143 27.9175 474.44 28.066 474.699 28.2516C470.624 30.0707 466.364 31.4444 462.029 32.521C461.696 32.1497 461.363 31.7414 460.992 31.4072C465.363 30.442 469.661 29.254 473.884 27.8061V27.769ZM381.826 52.3456C380.937 52.16 380.048 51.9743 379.159 51.8258C386.346 50.675 393.533 49.487 400.682 48.2619C401.386 48.2619 402.09 48.1876 402.794 48.1876C406.721 48.0391 410.61 47.9649 414.537 47.8535C403.683 49.6726 392.792 51.1205 381.826 52.3456ZM426.984 47.5194C429.392 47.4822 431.8 47.4822 434.208 47.4451C420.168 51.0091 405.535 52.8282 391.162 54.5731C389.902 54.2018 388.68 53.8677 387.42 53.5707C390.161 53.2366 392.903 52.9767 395.644 52.6055C406.128 51.2318 416.612 49.5612 426.984 47.5565V47.5194ZM179.855 82.0825C169.667 81.9711 159.443 81.7112 149.255 81.2657C150.922 80.8202 152.552 80.4119 154.219 80.0035C163.407 79.3724 172.594 78.8155 181.744 78.1101C196.785 76.9964 211.825 75.7342 226.865 74.4348C214.937 76.6994 203.045 79.2239 191.228 82.0082C187.412 82.0082 183.633 82.0825 179.818 82.0454L179.855 82.0825ZM183.708 83.9016C181.966 84.3471 180.188 84.7555 178.447 85.201C175.928 85.201 173.409 85.201 170.89 85.1267C163.925 84.9411 156.924 84.4213 150.07 83.1591C161.295 83.6417 172.483 83.8274 183.708 83.9016ZM219.642 77.8131C229.977 75.7342 240.35 73.915 250.797 72.2444C279.099 69.6086 307.365 66.6386 335.594 63.3345C350.041 62.592 364.489 62.2208 378.937 62.2579C347.596 68.829 315.96 73.8779 284.101 77.182C256.205 80.0778 228.162 81.637 200.119 81.9711C206.602 80.4861 213.122 79.0754 219.642 77.776V77.8131ZM335.408 61.4411C315.404 62.4806 295.399 64.2255 275.506 66.75C267.208 67.7895 258.91 69.0146 250.649 70.314C222.457 72.9498 194.191 75.2515 165.926 77.2563C169.927 76.3282 173.891 75.4 177.891 74.5462C181.448 74.3234 185.041 74.1007 188.598 73.8408C215.678 71.9474 242.684 69.3116 269.616 66.1189C290.88 63.9285 312.107 61.4411 333.26 58.5454C349.374 57.3574 365.489 55.9838 381.567 54.2018C383.012 54.4617 384.419 54.8329 385.864 55.1671C383.716 55.4269 381.53 55.6868 379.381 55.9838C364.711 57.8772 350.041 59.6592 335.371 61.404L335.408 61.4411ZM424.873 18.7106C424.539 18.525 424.169 18.3393 423.836 18.1537C426.688 18.228 429.541 18.3022 432.393 18.4136C432.393 18.4136 432.43 18.4136 432.467 18.4136C432.727 18.7477 432.986 19.0818 433.208 19.4531C431.022 20.6411 428.837 21.7919 426.577 22.8314C424.132 22.7943 421.65 22.7201 419.205 22.6829C416.649 22.6087 414.13 22.6087 411.574 22.5716C415.908 21.9404 420.242 21.3093 424.577 20.6411C425.503 20.4926 425.54 19.1561 424.836 18.7477L424.873 18.7106ZM435.505 19.3046C435.357 19.0447 435.172 18.7848 434.986 18.525C436.135 18.5992 437.283 18.6735 438.469 18.7477C440.617 19.6016 442.766 20.4926 444.84 21.4949C443.099 22.2003 441.358 22.8314 439.617 23.4625C439.617 23.4625 439.617 23.4625 439.58 23.4625C436.69 23.2027 433.801 23.0542 430.911 22.9428C432.356 22.2374 433.764 21.4578 435.172 20.6782C435.653 20.4183 435.764 19.7872 435.542 19.3417L435.505 19.3046ZM100.022 66.3416C98.5032 66.1931 96.9844 65.9704 95.4655 65.7847C103.467 63.6686 111.543 61.6268 119.582 59.6963C137.216 60.2532 154.886 60.5501 172.52 60.5501C168.852 61.5896 165.259 62.7405 161.703 64.077C141.142 65.0794 120.582 65.8961 100.022 66.3787V66.3416ZM155.998 66.2674C155.071 66.6757 154.145 67.0841 153.219 67.5296C142.254 67.9008 131.251 68.0493 120.249 67.6781C132.177 67.3068 144.069 66.8242 155.998 66.2674ZM92.9835 65.4506C84.9446 64.374 76.9428 62.8519 69.0151 60.7729C69.2374 60.1789 69.4967 59.622 69.7931 59.0652C71.3119 58.5825 72.8678 58.0999 74.3867 57.6544C78.4617 57.8772 82.5367 58.0628 86.5746 58.2855C95.095 58.731 103.615 59.1023 112.136 59.3993C105.949 60.9585 99.7998 62.5178 93.6132 64.1513C93.0575 64.2998 92.8353 64.8566 92.9094 65.3764C92.9094 65.3764 92.9094 65.3764 92.9094 65.4506H92.9835ZM83.4258 38.7579C84.1296 39.9088 84.9076 40.9112 85.7967 41.8022C83.9814 42.062 82.2033 42.359 80.388 42.6189C77.5726 41.2824 75.2758 39.1292 75.2758 35.8993C81.4623 34.6371 87.6489 33.412 93.8355 32.2611C90.3903 33.7461 87.0562 35.4538 83.7962 37.3843C83.3517 37.6813 83.1294 38.3124 83.4258 38.7579ZM85.7596 38.6094C91.761 35.1197 98.1328 32.4096 104.727 30.2192C108.617 29.5139 112.469 28.8456 116.359 28.1774C111.025 29.5139 105.727 30.9246 100.467 32.4096C99.3553 32.7066 99.6146 34.303 100.726 34.3772C109.246 34.9712 117.767 35.4167 126.324 35.8622C126.324 35.9365 126.398 36.0107 126.435 36.085C113.692 37.7556 100.985 39.5004 88.2787 41.468C87.3526 40.6513 86.5376 39.6861 85.7967 38.6466L85.7596 38.6094ZM190.339 24.3164C185.189 24.4649 180.077 24.5392 174.928 24.5763C204.935 18.4507 235.423 14.6269 266.059 13.3646C267.134 13.3275 268.208 13.3275 269.282 13.2904C242.869 16.149 216.53 19.8614 190.302 24.3164H190.339ZM283.545 15.258C260.762 19.119 237.794 21.7919 214.752 23.2769C228.644 21.3093 242.536 19.5273 256.502 17.9681C265.504 16.9657 274.506 16.0747 283.545 15.258ZM177.854 26.4697C164.444 28.8828 151.071 31.5557 137.734 34.4143C136.771 34.3772 135.808 34.3401 134.845 34.303C145.217 31.4072 155.664 28.7714 166.185 26.4697C170.075 26.5068 173.965 26.5439 177.854 26.5068V26.4697ZM419.761 25.5787C417.056 25.1332 414.315 24.7619 411.574 24.502C414.982 24.5763 418.39 24.6505 421.798 24.7248C421.131 24.9847 420.464 25.2817 419.761 25.5415V25.5787ZM422.687 28.0289C423.169 28.1403 423.65 28.2516 424.132 28.363C420.872 29.254 417.612 30.0707 414.352 30.8504C413.907 30.5534 413.426 30.2564 412.944 29.9594C414.871 29.4025 416.797 28.7714 418.686 28.1031C420.02 28.1031 421.354 28.1031 422.687 28.1031V28.0289ZM411.981 26.3954C410.092 26.5439 408.24 26.6553 406.387 26.7666C405.387 26.3954 404.387 26.0613 403.35 25.7643C406.239 25.8757 409.129 26.0984 411.981 26.3954ZM411.722 31.4444C385.457 37.1987 358.117 39.1292 331.667 41.468C305.142 43.844 278.618 45.8488 252.056 47.5565C248.574 47.6679 245.129 47.7421 241.647 47.8164C246.018 47.0367 250.389 46.2571 254.761 45.5146C290.102 43.8811 325.406 41.468 360.636 38.1268C377.195 36.5676 394.199 35.0455 410.314 30.6276C410.796 30.8875 411.24 31.1102 411.722 31.4072V31.4444ZM405.832 28.66C406.424 28.8828 407.017 29.0684 407.573 29.3283C395.051 32.521 382.048 34.0802 369.231 35.3796C344.188 37.8669 319.071 39.9088 293.955 41.5052C286.657 41.9878 279.322 42.3219 272.024 42.7303C311.218 36.6047 350.708 32.2611 390.273 29.7366C395.422 29.4025 400.608 29.0313 405.832 28.66ZM334.704 32.4467C307.624 35.3425 280.655 39.0921 253.797 43.6584C230.829 44.6979 207.861 45.3661 184.856 45.7003C200.267 42.8417 215.715 40.28 231.237 38.0154C233.052 37.7556 234.904 37.5328 236.719 37.2729C276.025 36.3077 315.293 33.8575 354.413 29.7366C366.119 28.5115 377.788 27.1379 389.458 25.6158C390.347 25.6158 391.273 25.6158 392.162 25.6158C395.014 25.9499 397.904 26.4325 400.756 27.1379C378.677 28.363 356.672 30.145 334.704 32.4839V32.4467ZM100.355 54.3503C95.873 54.3874 91.3905 54.4617 86.908 54.5359C94.6505 52.8282 102.467 51.4917 109.95 50.0438C111.395 49.784 112.803 49.5241 114.247 49.2642C116.063 49.3385 117.915 49.4127 119.73 49.4499C126.028 51.2318 132.4 52.4198 138.883 53.0881C138.031 53.2737 137.179 53.4593 136.327 53.645C124.361 53.9048 112.358 54.1647 100.355 54.3132V54.3503ZM126.954 55.8724C124.472 56.4664 121.953 57.0604 119.471 57.6544C118.841 57.6544 118.211 57.6544 117.582 57.6173C108.394 57.3203 99.2441 56.8748 90.0569 56.4293C102.356 56.3179 114.655 56.0952 126.954 55.8724ZM124.139 39.3519C121.471 40.6884 118.952 42.2848 116.618 44.2153C114.803 44.6236 113.025 45.032 111.247 45.4404C108.024 45.3661 104.838 45.3661 101.615 45.2919C100.8 45.2919 99.948 45.2919 99.0959 45.2919C107.431 43.25 115.766 41.2824 124.139 39.3891V39.3519ZM93.6132 44.6608C92.5389 44.2153 91.5016 43.6955 90.5385 43.1015C98.4291 41.9135 106.32 40.7627 114.21 39.6861C107.32 41.2824 100.467 42.953 93.6132 44.6979V44.6608ZM160.888 48.4104C150.367 48.2619 139.809 48.0391 129.288 47.7421C140.698 47.8906 152.071 47.9277 163.481 47.8906C162.629 48.0762 161.777 48.2247 160.888 48.4104ZM197.822 50.6007C195.414 50.7121 192.969 50.8606 190.561 50.972C178.225 51.5288 165.629 52.3456 153.108 52.0486C155.627 51.5288 158.146 50.972 160.665 50.4522C173.076 50.6007 185.449 50.675 197.859 50.6378L197.822 50.6007ZM151.552 50.3037C149.515 50.7492 147.477 51.2318 145.403 51.6773C140.29 51.3432 135.178 50.7492 130.14 49.8582C137.29 50.0439 144.402 50.1924 151.552 50.3037ZM143.624 45.923C140.29 45.923 136.993 45.8116 133.659 45.7745C151.145 42.7303 168.667 40.0573 186.227 37.6442C197.822 37.7556 209.417 37.7556 220.975 37.6071C205.157 40.0202 189.376 42.7674 173.668 45.8116C163.629 45.8859 153.627 45.9601 143.587 45.923H143.624ZM123.398 45.5889C122.175 45.5889 120.953 45.5889 119.73 45.5518C133.807 42.5075 147.959 39.7603 162.11 37.2729C165.889 37.3843 169.667 37.4214 173.483 37.4957C156.739 39.9088 140.031 42.6189 123.398 45.626V45.5889ZM136.289 55.7239C153.96 55.3527 171.594 54.8701 189.264 54.2761C193.191 54.1276 197.081 53.9419 201.008 53.7934C199.304 54.1647 197.6 54.4988 195.895 54.8701C190.672 56.0209 185.412 57.1718 180.151 58.4712C162.444 58.5825 144.699 58.3598 126.991 57.8772C130.103 57.1347 133.215 56.4293 136.289 55.7239ZM170.26 48.5217C171.557 48.2619 172.853 48.002 174.113 47.7421C184.152 47.6679 194.154 47.5565 204.194 47.3337C215.937 47.0739 227.643 46.6655 239.387 46.22C235.867 46.8511 232.348 47.4822 228.829 48.1505C209.306 48.5589 189.783 48.6702 170.26 48.4846V48.5217ZM297.622 32.4839C284.323 33.3748 270.986 34.006 257.687 34.5257C293.769 30.1079 330.037 27.3606 366.378 26.2469C343.521 28.8456 320.59 30.9617 297.659 32.4839H297.622ZM311.885 27.175C286.879 29.0684 261.947 31.7785 237.127 35.2682C231.57 35.4167 225.976 35.4538 220.382 35.5281C235.015 34.5628 249.648 33.1892 264.207 31.2959C273.728 30.5162 283.211 29.1055 292.547 27.0636C314.292 25.69 336.075 24.799 357.858 24.4278C358.821 24.4278 359.784 24.4278 360.71 24.4278C344.41 25.0218 328.147 25.8757 311.885 27.1379V27.175ZM214.27 34.1173C232.978 31.927 251.723 30.1079 270.505 28.66C251.871 31.2587 233.089 33.0407 214.27 34.1173ZM305.55 22.6829C293.251 22.9428 280.952 23.2769 268.653 23.7967C265.244 23.9452 261.799 24.1308 258.391 24.3164C269.727 23.2398 281.1 22.2374 292.473 21.4578C300.289 20.9009 308.143 20.4183 315.997 20.0099C314.478 20.5297 312.959 20.9752 311.44 21.4578C309.477 21.8662 307.513 22.3117 305.55 22.6829ZM293.732 24.9104C293.325 24.9847 292.917 25.0589 292.51 25.1332C258.28 27.2864 224.124 30.5905 190.153 35.1197C185.338 35.2311 180.559 35.3425 175.743 35.4167C174.78 35.4167 173.816 35.4167 172.816 35.4167C181.263 34.006 189.709 32.6695 198.155 31.4815C204.935 30.5162 211.714 29.6252 218.493 28.7343C243.536 26.9151 268.616 25.6529 293.695 24.9475L293.732 24.9104ZM162.369 35.2311C158.887 35.1568 155.368 35.0455 151.886 34.9341C156.405 34.4143 160.888 33.8946 165.407 33.412C172.038 32.7066 178.669 32.0755 185.301 31.4444C177.632 32.6324 170.001 33.8946 162.332 35.2311H162.369ZM137.697 36.7161C142.55 36.8646 147.403 37.0131 152.219 37.0873C141.957 38.9807 131.696 40.9854 121.508 43.1758C126.398 40.0944 131.992 38.1639 137.697 36.7532V36.7161ZM91.7239 47.0367C92.9094 47.111 94.0948 47.1481 95.2803 47.1852C96.5769 47.5565 97.9475 47.8906 99.3182 48.1134C90.7237 50.1181 82.1662 52.2342 73.6458 54.4617C78.4987 50.378 85.6114 48.5217 91.7239 46.9996V47.0367ZM162.221 66.0075C164.777 65.8961 167.371 65.7847 169.927 65.6734C167.852 66.1189 165.815 66.6386 163.777 67.1212C162.11 67.1955 160.48 67.2697 158.813 67.344C159.961 66.8985 161.073 66.4159 162.221 66.0075ZM169.075 63.6686C172.853 62.4806 176.669 61.4411 180.485 60.513C186.597 60.513 192.71 60.4388 198.822 60.3274C195.229 60.8843 191.635 61.4411 188.079 62.0723C186.523 62.3321 184.967 62.7034 183.411 63.0004C178.632 63.2603 173.853 63.4459 169.075 63.7057V63.6686ZM182.818 64.9309C205.194 63.6315 227.532 61.998 249.834 60.1047C241.572 61.2926 233.311 62.6291 225.05 64.0027C208.232 65.0051 191.376 65.859 174.52 66.6386C177.262 66.0817 180.04 65.4877 182.781 64.968L182.818 64.9309ZM201.378 61.7753C205.675 61.107 209.973 60.513 214.27 59.9562C222.087 59.7334 229.866 59.4735 237.683 59.1765C225.606 60.1418 213.492 61.0328 201.415 61.8124L201.378 61.7753ZM240.498 56.9862C240.498 56.9862 240.869 56.9491 241.054 56.9491C260.91 55.1299 280.803 54.0533 300.697 53.1623C299.215 53.3108 297.696 53.4593 296.214 53.645C294.77 53.7563 293.288 53.9048 291.843 54.0162C274.765 55.3156 257.65 56.2808 240.535 57.0233L240.498 56.9862ZM227.162 65.6362C228.384 65.562 229.57 65.4877 230.792 65.4135C250.871 64.2255 270.912 62.9261 290.954 61.5525C284.582 62.4064 278.21 63.186 271.838 63.9656C270.32 64.1512 268.801 64.2998 267.282 64.4854C245.24 66.7129 223.161 68.5691 201.045 70.0541C209.75 68.4577 218.456 67.0098 227.162 65.5991V65.6362ZM245.796 62.7405C269.69 59.1394 293.695 56.1694 317.775 53.8306C319.034 53.7192 320.294 53.5707 321.553 53.4593C328.629 52.7911 335.742 52.1971 342.854 51.6031C347.078 51.566 351.264 51.6031 355.45 51.7516C342.78 53.9419 330.074 55.9838 317.33 57.84C293.51 59.5849 269.653 61.2184 245.796 62.7405ZM326.517 50.2666C321.368 50.4893 316.293 50.7492 311.329 50.972C279.507 52.2342 247.611 53.9048 215.974 57.9143C207.12 58.1742 198.229 58.3227 189.375 58.434C197.303 56.6521 205.268 54.9814 213.27 53.3479C239.757 52.2713 266.282 51.0462 292.769 49.4499C322.331 47.6679 351.894 45.5146 381.419 43.1015C363.155 45.7003 344.892 48.1134 326.555 50.3037L326.517 50.2666ZM336.927 43.0644C336.668 43.0644 336.372 43.0644 336.112 43.1015C354.45 41.5052 372.787 39.7603 390.976 37.0502C398.608 35.8993 406.202 34.4886 413.759 32.818C414.871 33.6347 415.908 34.5257 416.871 35.5281C390.273 38.5723 363.637 41.0968 336.927 43.0644ZM412.055 38.1639C414.204 37.9412 416.39 37.6813 418.538 37.4586C416.241 37.8298 413.907 38.2011 411.611 38.5723C409.351 38.7579 407.054 38.9436 404.794 39.1292C402.016 39.3891 399.2 39.5747 396.422 39.7974C401.645 39.2406 406.869 38.7208 412.092 38.1268L412.055 38.1639ZM416.241 32.2982C420.131 31.3701 423.984 30.3677 427.799 29.2911C431.208 30.2192 434.542 31.3701 437.765 32.7809C437.246 33.0036 436.727 33.2264 436.172 33.4491C431.134 34.0431 426.132 34.5628 421.242 35.1197C420.576 35.194 419.946 35.2682 419.279 35.3425C418.316 34.2658 417.316 33.2635 416.204 32.3354L416.241 32.2982ZM424.317 25.9128C425.132 25.5787 425.984 25.2445 426.799 24.8733C428.096 24.9104 429.429 24.9104 430.726 24.9475C432.06 24.9847 433.467 25.0218 434.912 25.096C433.616 25.5415 432.319 25.9128 431.022 26.3212C428.8 26.0613 426.577 25.9128 424.354 25.8757L424.317 25.9128ZM431.874 28.4373C435.097 28.8828 438.357 29.7738 441.025 31.3701C440.765 31.4815 440.543 31.5929 440.284 31.7042C437.542 30.442 434.727 29.3654 431.874 28.4744V28.4373ZM435.06 27.0636C436.616 26.5439 438.135 25.987 439.691 25.4302C442.951 25.7272 446.285 26.2098 449.397 27.1008C447.359 28.2888 445.248 29.3654 443.099 30.4049C440.765 28.7714 437.913 27.7319 435.06 27.0636ZM443.729 23.9823C444.877 23.5368 445.989 23.0542 447.137 22.6087C448.878 23.4625 450.582 24.3535 452.286 25.3188C452.027 25.5044 451.731 25.6529 451.471 25.8385C448.952 24.9847 446.359 24.3907 443.729 23.9823ZM398.015 22.3117C397.385 22.3117 396.793 22.3117 396.163 22.3117C384.493 22.2003 372.824 22.3117 361.155 22.4973C360.636 22.4973 360.118 22.4973 359.599 22.4973C344.929 22.3117 330.222 22.3117 315.552 22.5344C319.923 21.5692 324.295 20.5668 328.629 19.4902C348.078 18.6363 367.564 18.1166 387.05 18.0052C397.719 17.931 408.388 17.8938 419.057 18.0795C419.724 18.4136 420.39 18.7477 421.057 19.0818C413.389 20.2327 405.683 21.3464 398.015 22.3859V22.3117ZM306.92 18.5992C277.914 20.3069 248.944 22.9799 220.086 26.6181C200.637 28.0289 181.188 29.7738 161.777 31.8899C168.111 30.739 174.446 29.6253 180.781 28.5486C185.671 27.7319 190.598 26.9523 195.488 26.1727C218.604 25.4302 241.646 23.4997 264.578 20.2327C277.395 18.4136 290.102 16.1861 302.808 13.6245C310.44 13.0305 318.034 12.5108 325.665 12.0281C328.592 12.2509 331.482 12.4736 334.408 12.7335C330.296 14.5897 326.11 16.2604 321.887 17.8196C316.886 18.0795 311.885 18.3022 306.883 18.5992H306.92ZM291.621 11.0258C249.611 11.0258 207.602 15.4807 166.556 24.4649C163.666 24.4649 160.814 24.4649 157.924 24.3907C153.293 24.2793 148.663 24.0565 143.995 23.8338C144.81 23.6482 145.625 23.4997 146.44 23.314C168.926 19.9728 191.45 17.1885 214.085 14.9981C236.794 12.8078 259.539 11.1743 282.322 10.1719C286.101 10.1719 289.88 10.2461 293.658 10.3575C294.881 10.3575 296.14 10.4689 297.363 10.506C295.473 10.6545 293.547 10.8773 291.658 11.0258H291.621ZM146.329 21.3464C142.217 21.9404 138.142 22.5716 134.03 23.2027C139.512 22.2374 144.958 21.3464 150.33 20.4183C151.256 20.2698 152.219 20.1213 153.145 19.9728C150.848 20.4183 148.589 20.9009 146.292 21.3464H146.329ZM136.734 25.393C144.106 25.8385 151.478 26.0984 158.887 26.284C148.959 28.6229 139.068 31.1474 129.251 34.006C121.805 33.6347 114.359 33.2263 106.913 32.7437C116.804 30.0707 126.732 27.5834 136.734 25.393ZM118.915 24.3907C113.988 25.5044 109.061 26.7666 104.245 28.3259C94.1319 30.145 84.0555 32.0755 73.9792 34.1545C73.5346 34.2658 73.3124 34.7113 73.2383 35.1197C72.8678 38.7579 74.609 41.3195 77.2392 43.1387C68.941 44.438 60.6058 45.7745 52.3447 47.408C51.9742 44.4751 54.0117 42.0992 56.3826 40.577C58.8276 38.9807 61.606 38.0897 64.3103 37.1616C67.8297 35.9365 71.386 34.8227 74.9794 33.7461C81.5364 31.8156 88.1676 30.1079 94.8357 28.5858C102.467 26.8409 110.098 25.393 117.804 24.0194C118.471 24.0937 119.175 24.1308 119.841 24.1679C119.508 24.2422 119.212 24.3164 118.878 24.3535L118.915 24.3907ZM52.6411 52.2342C53.6413 53.2366 54.8638 53.9791 56.1604 54.6473C54.7526 54.6473 53.3449 54.6473 51.9372 54.6102C46.2322 54.4988 40.4902 54.1647 34.7481 53.4593C40.0456 51.9743 45.4543 50.7121 50.8999 49.6355C51.3074 50.5636 51.8631 51.4546 52.6411 52.2342ZM52.9374 49.2271C60.791 47.7421 68.7187 46.517 76.4612 45.2548C77.6837 45.0691 78.9062 44.8835 80.1287 44.6979C82.2032 45.5889 84.463 46.1829 86.5005 46.517C80.6844 48.1876 74.7571 50.4893 70.7562 54.6844C68.2001 54.6844 65.644 54.6844 63.0878 54.6844C60.8281 54.2761 58.6424 53.6821 56.6049 52.5683C55.1231 51.7887 53.7154 50.675 52.9004 49.19L52.9374 49.2271ZM67.5333 62.3693C74.0533 64.1141 80.6473 65.4877 87.2785 66.5644C75.424 66.7871 63.5324 66.8985 51.6779 66.9356C56.679 64.077 62.0135 61.7753 67.4962 59.8819C67.311 60.3274 67.0517 60.7358 66.9035 61.2184C66.7553 61.701 67.0887 62.2579 67.5703 62.3693H67.5333ZM47.8622 66.9356C44.1947 66.9356 40.5272 66.9356 36.8968 66.8985C46.084 64.1141 55.3083 61.4783 64.5326 58.9538C58.7165 61.0699 53.0856 63.6686 47.8622 66.9356ZM48.3808 68.9032C63.6435 68.9032 78.8692 68.7176 94.1319 68.3835C96.6139 72.9127 102.06 74.8432 107.209 75.5857C84.6482 76.0683 62.0506 76.1054 39.4529 75.697C42.2683 73.1726 45.232 70.8708 48.3808 68.9032ZM96.3175 68.3463C97.6141 68.3463 98.9107 68.2721 100.17 68.235C115.803 69.8685 131.585 70.0541 147.255 69.6457C147.848 69.6457 148.477 69.6086 149.07 69.5715C147.551 70.3511 146.032 71.2049 144.588 72.0588C143.254 72.4301 141.957 72.8013 140.624 73.1726C133.585 73.4324 126.584 73.7665 119.545 73.9522C112.729 74.1378 100.689 74.9174 96.2805 68.3463H96.3175ZM163.296 69.0517C178.521 68.4577 193.747 67.6038 208.973 66.7129C201.526 68.0493 194.117 69.4972 186.708 70.9822C177.854 71.5019 169.001 72.0588 160.11 72.4672C156.146 72.6528 152.182 72.7271 148.218 72.9127C153.219 71.5391 158.257 70.2397 163.296 69.0517ZM399.423 46.4056C397.608 46.4799 395.792 46.5913 393.977 46.6655C403.275 44.8464 412.537 42.9902 421.798 41.0225C422.354 40.9112 422.576 40.28 422.465 39.7974C422.761 39.7232 423.095 39.6489 423.391 39.5747C430.8 38.9064 438.172 38.2011 445.544 37.3472C445.729 37.3472 445.878 37.3101 446.063 37.2729C446.137 37.4957 446.174 37.7184 446.248 37.9412C430.689 40.9854 415.093 43.8069 399.497 46.4799L399.423 46.4056ZM445.211 32.2611C445.211 32.2611 444.914 31.9641 444.766 31.8156C447.174 30.6276 449.545 29.3283 451.842 27.9546C453.546 28.5858 455.176 29.4025 456.658 30.3677C452.842 31.1102 449.026 31.7414 445.174 32.2982L445.211 32.2611ZM456.102 32.4096C456.991 32.2611 457.843 32.0384 458.732 31.8899C459.14 32.224 459.51 32.6324 459.881 33.0036C457.325 33.5605 454.731 34.0431 452.138 34.4515C450.508 34.7113 448.841 34.897 447.211 35.1197C447.026 34.7485 446.841 34.3772 446.619 34.006C449.804 33.5233 452.953 33.0036 456.102 32.4467V32.4096ZM452.027 18.4878C450.138 18.1537 448.286 17.8567 446.396 17.634C444.025 17.337 441.654 17.1513 439.284 16.9657C436.653 15.9634 434.023 14.9981 431.356 14.1814C429.985 12.9562 428.466 11.8796 426.836 11.0258C431.763 11.3228 436.727 11.7311 441.654 12.2138C446.73 13.2904 451.768 14.664 456.732 16.2975C455.176 17.04 453.62 17.8196 452.064 18.525L452.027 18.4878ZM430.244 15.9262C430.244 15.9262 430.615 16.2603 430.763 16.4088C427.133 16.2603 423.502 16.149 419.872 16.1119C414.167 13.4017 408.165 11.5084 402.016 10.1719C402.646 10.1719 403.238 10.1719 403.868 10.1719C412.833 11.4341 421.65 13.2532 430.207 15.9262H430.244ZM414.537 16.0376C410.647 16.0376 406.795 16.0376 402.905 16.0376C381.196 15.9634 359.488 16.3346 337.779 17.1513C341.447 16.1861 345.114 15.1837 348.782 14.1442C349.856 13.8472 349.56 12.3994 348.522 12.288C345.448 11.9539 342.336 11.6569 339.261 11.3599C355.635 10.5803 371.972 10.0976 388.346 10.0976C397.348 11.0258 406.202 12.8078 414.537 16.1119V16.0376ZM354.413 6.79354C350.634 6.79354 346.818 6.75642 343.04 6.75642C341.558 6.5708 340.076 6.34805 338.594 6.16242C344.299 6.31092 350.004 6.53367 355.709 6.71929C355.302 6.71929 354.857 6.75642 354.45 6.79354H354.413ZM343.447 13.6245C338.594 14.961 333.704 16.2603 328.814 17.4855C327.258 17.5597 325.702 17.634 324.147 17.7082C328.11 16.1861 332.037 14.5897 335.927 12.882C338.446 13.1047 340.965 13.3646 343.447 13.6245ZM284.212 2.9697C276.432 3.48944 268.69 4.04631 260.947 4.64031C232.015 5.71693 203.119 7.79591 174.335 10.8401C210.602 4.67743 247.426 2.00445 284.212 2.93257V2.9697ZM148.181 15.9262C159.258 14.5155 170.334 13.2161 181.448 12.1024C190.302 11.2114 199.155 10.4318 208.009 9.76352C189.042 11.8796 170.075 14.2185 151.182 16.8915C145.032 17.7453 138.883 18.6363 132.733 19.5645C137.882 18.3022 142.995 17.0771 148.181 15.9634V15.9262ZM10.2982 46.8882C7.89025 45.7745 5.63048 44.438 3.40776 42.9902C45.3802 32.5581 87.9082 24.3164 130.733 18.228C125.732 19.4531 120.73 20.7524 115.803 22.1261C115.618 22.1632 115.544 22.2746 115.47 22.3859C98.5773 25.393 81.8328 29.1426 65.5699 34.5628C60.9022 36.1221 55.2342 37.6071 52.0483 41.6908C50.6406 43.5099 50.122 45.7003 50.4183 47.7792C47.1213 48.4475 43.8243 49.1529 40.5643 49.9325C37.045 50.7863 33.5627 51.7145 30.1175 52.7911C23.2641 51.6773 16.5959 49.8582 10.2982 46.8882ZM4.40798 66.6015C12.4839 61.404 21.2266 57.6173 30.3397 54.7587C33.1922 55.2413 36.0818 55.6126 38.9713 55.8724C47.0842 56.6149 55.2342 56.7634 63.3842 56.7634C63.8288 56.8377 64.2362 56.9119 64.6808 56.9491C53.1967 60.0675 41.7868 63.3716 30.4138 66.8985C21.7452 66.8242 13.0766 66.75 4.40798 66.6015ZM120.027 80.2263C114.025 80.5604 108.061 80.9688 102.06 81.3029C85.5744 82.1939 69.0151 83.3076 52.4929 83.5304C40.0086 83.716 25.9684 82.6022 16.7811 73.2468C21.4859 71.7247 26.2277 70.2397 30.9325 68.7918C35.5631 68.7918 40.1938 68.9032 44.8615 68.9403C41.8238 71.0193 38.9343 73.3582 36.267 75.9569C35.6372 76.5509 36.1188 77.6275 36.9709 77.6275C67.5333 78.2586 98.1328 78.0359 128.695 76.9593C125.991 77.8503 123.287 78.7041 120.619 79.6323C120.323 79.7436 120.175 79.9293 120.064 80.1891L120.027 80.2263ZM134.4 79.3724C131.511 79.558 128.621 79.7065 125.732 79.8921C128.806 78.8155 131.918 77.7389 135.03 76.7737C135.956 76.7737 136.882 76.6994 137.808 76.6623C136.66 77.5162 135.512 78.4443 134.437 79.3724H134.4ZM137.957 79.1496C139.105 78.2586 140.253 77.3305 141.439 76.4767C149.774 76.1425 158.109 75.7342 166.444 75.2515C162.518 76.1425 158.591 77.0707 154.664 78.073C149.107 78.4443 143.55 78.7784 137.994 79.1496H137.957ZM124.176 105.694C113.247 105.545 102.356 105.211 91.4276 104.729C107.209 95.2618 124.324 88.5051 141.957 83.3447C151.33 85.9435 161.036 86.9087 170.816 87.1686C169.075 87.6141 167.334 88.0596 165.592 88.5422C155.442 91.2894 145.18 94.0738 135.215 97.4521C131.14 98.8257 125.917 101.536 124.176 105.657V105.694ZM125.583 109.332C125.472 108.664 125.472 108.033 125.583 107.439C144.736 107.624 163.888 107.327 183.041 106.436C180.262 107.067 177.484 107.736 174.706 108.441C171.853 109.184 169.001 110 166.148 110.817C152.626 110.631 139.105 110.186 125.583 109.332ZM320.146 95.039C317.441 95.6701 314.737 96.3013 312.033 96.8953C302.845 96.4126 293.658 96.3755 284.508 96.7839C288.805 96.1528 293.103 95.5216 297.4 94.8163C298.067 94.8163 298.77 94.742 299.437 94.742C306.328 94.6307 313.255 94.742 320.146 95.0019V95.039ZM311.144 92.7744C315.219 92.663 319.257 92.5888 323.332 92.5888C325.443 92.5888 327.555 92.663 329.703 92.7002C328.925 92.8858 328.11 93.0714 327.332 93.2942C321.924 93.0343 316.552 92.8487 311.144 92.7744ZM331.148 104.32C322.442 103.652 313.7 103.281 304.957 103.058C321.405 100.496 337.742 97.3779 354.005 93.8139C359.673 95.0019 365.23 96.7096 370.601 98.9742C357.413 103.058 344.114 106.659 330.667 109.74C330.518 109.555 330.296 109.406 329.963 109.406C327.332 109.295 324.702 109.184 322.035 109.109C325.147 108.107 328.296 107.216 331.37 106.139C332.408 105.805 332.185 104.357 331.111 104.283L331.148 104.32ZM269.727 93.4798C263.874 94.0367 257.984 94.6306 252.13 95.2618C265.17 93.2199 278.321 91.6978 291.473 90.6212C284.212 91.4379 276.951 92.4032 269.727 93.4798ZM262.429 97.0066C268.838 96.3384 275.247 95.8186 281.693 95.4474C268.69 97.3036 255.65 98.9371 242.61 100.311C249.204 99.0485 255.798 97.9719 262.429 97.0066ZM289.62 98.5287C294.584 98.4174 299.548 98.4545 304.512 98.5659C299.289 99.7167 294.066 100.793 288.842 101.796C285.064 102.315 281.285 102.724 277.469 103.095C266.319 103.392 255.168 104.06 244.054 105.1C241.572 105.1 239.09 105.1 236.608 105.1C254.02 101.239 271.764 98.9742 289.62 98.5287ZM284.582 111.337C286.916 111.225 289.213 111.151 291.547 111.077C291.954 111.077 292.399 111.114 292.806 111.151C271.913 115.532 250.611 117.574 229.273 117.277C247.574 114.233 266.059 112.191 284.582 111.3V111.337ZM219.827 116.98C217.9 116.905 215.974 116.831 214.011 116.683C216.345 116.126 218.678 115.68 221.012 115.198C228.458 114.047 235.942 113.045 243.425 112.265C246.685 112.005 249.945 111.708 253.205 111.374C255.02 111.225 256.872 111.04 258.687 110.928C261.54 110.817 264.429 110.669 267.282 110.631C251.352 111.968 235.497 114.084 219.79 117.017L219.827 116.98ZM277.358 108.033C277.914 107.921 278.433 107.847 278.988 107.736C280.433 107.661 281.878 107.55 283.323 107.513C291.547 107.216 299.808 107.29 308.069 107.55C307.661 107.661 307.254 107.773 306.846 107.884C297.029 107.661 287.175 107.699 277.358 108.07V108.033ZM228.31 105.026C226.31 104.988 224.346 104.84 222.346 104.766C224.161 104.32 225.976 103.838 227.829 103.429C232.126 103.058 236.423 102.65 240.72 102.204C236.571 103.058 232.422 103.986 228.31 105.026ZM242.795 107.179C249.945 107.105 257.094 106.808 264.244 106.325C263.8 106.399 263.355 106.473 262.911 106.548C248.463 108.07 233.941 109.221 219.419 109.963C227.199 108.849 234.978 107.958 242.795 107.216V107.179ZM215.53 108.59C213.566 108.887 211.566 109.146 209.602 109.443C207.565 109.778 205.49 110.186 203.453 110.52C201.749 110.557 200.008 110.669 198.303 110.706C203.786 109.146 209.269 107.661 214.789 106.288C214.9 106.362 215.011 106.436 215.159 106.473C217.271 106.622 219.419 106.659 221.531 106.733C219.53 107.29 217.53 107.921 215.53 108.552V108.59ZM158.813 123.291C162.332 123.625 165.852 123.811 169.371 124.033C163.814 125.518 158.294 127.078 152.812 128.748C146.551 128.6 140.29 128.377 134.03 128.08C147.885 122.4 161.962 117.351 176.261 112.896C178.966 112.896 181.633 112.896 184.337 112.896C175.706 115.569 167.074 118.353 158.554 121.435C157.516 121.806 157.702 123.254 158.813 123.328V123.291ZM173.372 127.932C173.372 127.932 173.446 128.006 173.483 128.043C172.409 128.34 171.371 128.637 170.297 128.971C166.481 128.971 162.666 128.934 158.85 128.86C161.591 128.08 164.37 127.338 167.111 126.595C167.111 127.078 167.371 127.56 167.963 127.597C169.741 127.746 171.557 127.82 173.335 127.969L173.372 127.932ZM152.812 130.716C156.59 130.79 160.369 130.902 164.148 130.939C163.073 131.273 161.999 131.607 160.888 131.978C157.035 131.978 153.219 131.904 149.367 131.792C150.515 131.421 151.663 131.087 152.812 130.753V130.716ZM164.703 133.797C187.375 133.723 210.047 132.164 232.496 129.194C242.647 128.526 252.797 127.375 262.836 125.815C267.541 125.296 272.209 124.702 276.877 124.108C277.877 124.182 278.84 124.219 279.84 124.293C241.943 133.315 202.934 137.547 163.925 136.879C160.554 136.804 157.183 136.693 153.775 136.582C157.368 135.616 160.999 134.688 164.629 133.834L164.703 133.797ZM201.638 127.152C201.045 127.152 200.489 127.152 199.896 127.152C204.49 126.484 209.121 125.964 213.714 125.481C225.569 125.37 237.386 124.887 249.204 123.996C233.422 126.038 217.53 127.115 201.638 127.189V127.152ZM205.194 130.27C198.6 130.79 192.043 131.236 185.449 131.495C181.411 131.681 177.336 131.792 173.298 131.867C174.78 131.57 176.224 131.236 177.706 130.939C186.893 130.864 196.044 130.642 205.194 130.27ZM188.709 126.892C187.523 126.855 186.338 126.892 185.152 126.818C187.264 126.261 189.375 125.741 191.487 125.184C193.673 125.259 195.895 125.37 198.081 125.407C194.932 125.853 191.82 126.335 188.709 126.892ZM190.894 123.328C190.45 123.328 190.005 123.328 189.561 123.291C195.636 121.435 201.749 119.764 207.898 118.242C209.269 118.353 210.677 118.428 212.047 118.539C204.935 119.987 197.896 121.583 190.857 123.365L190.894 123.328ZM199.489 113.193C200.156 113.193 200.86 113.193 201.526 113.23C200.341 113.639 199.193 114.047 198.007 114.492C195.043 114.752 192.08 114.938 189.079 115.161C192.524 114.455 195.97 113.824 199.452 113.193H199.489ZM195.895 116.571C196.044 116.794 196.266 116.98 196.599 117.017C197.192 117.091 197.785 117.128 198.378 117.202C198.266 117.202 198.192 117.24 198.081 117.277C192.376 118.428 186.708 119.653 181.04 121.026C179.04 121.509 177.039 122.066 175.039 122.586C171.186 122.363 167.334 122.066 163.518 121.769C167.445 120.395 171.371 119.022 175.298 117.759C175.446 117.908 175.669 117.982 175.928 117.982C182.596 117.611 189.227 117.128 195.858 116.608L195.895 116.571ZM175.891 111.003C175.706 111.003 175.521 111.003 175.335 111.003C174.594 111.003 173.853 111.003 173.113 110.966C178.188 109.629 183.3 108.404 188.449 107.253C184.226 108.441 180.04 109.703 175.854 111.003H175.891ZM166.259 112.822C167.445 112.822 168.593 112.896 169.779 112.896C156.146 117.314 142.698 122.289 129.51 127.82C128.214 127.746 126.917 127.672 125.583 127.597C138.772 121.62 152.367 116.757 166.259 112.785V112.822ZM120.212 133.946C123.361 132.535 126.547 131.161 129.732 129.825C135.474 130.122 141.179 130.382 146.922 130.53C145.736 130.902 144.551 131.236 143.365 131.607C142.365 131.941 142.55 133.426 143.624 133.463C147.625 133.612 151.589 133.649 155.59 133.686C154.219 134.168 152.812 134.614 151.441 135.097C150.144 135.468 148.811 135.839 147.514 136.21C138.401 135.728 129.288 134.948 120.212 133.946ZM96.0953 157.149C105.801 152.768 115.729 148.796 125.769 145.232C125.583 145.789 125.843 146.42 126.621 146.494C141.624 147.83 156.664 148.239 171.705 147.905C168.037 148.907 164.333 149.909 160.665 151.023C154.034 153.065 147.44 155.255 140.883 157.631C140.253 157.631 139.624 157.706 138.994 157.706C124.694 158.003 110.395 157.78 96.0953 157.149ZM127.176 165.13C131.992 163.2 136.808 161.307 141.698 159.562C155.331 159.228 168.964 158.448 182.559 157.26C171.483 159.673 160.48 162.42 149.552 165.465C149.033 165.613 148.551 165.762 148.033 165.91C141.068 165.799 134.141 165.576 127.213 165.13H127.176ZM152.886 175.266C151.478 175.377 150.033 175.525 148.626 175.637C138.92 176.342 129.214 176.751 119.471 177.01C129.066 173.743 138.734 170.736 148.477 167.952C157.739 168.063 167 167.878 176.261 167.358C169.853 169.251 163.518 171.256 157.22 173.521C155.775 174.04 154.331 174.672 152.886 175.228V175.266ZM267.319 156.332C232.237 165.279 196.451 171.442 160.369 174.672C168.704 171.702 177.151 169.066 185.745 166.838C207.305 165.168 228.718 161.826 249.722 156.777C255.576 156.48 261.429 156.332 267.319 156.332ZM200.489 163.311C211.529 160.973 222.679 159.228 233.904 158.077C222.865 160.267 211.714 162.012 200.489 163.311ZM278.655 146.531C268.764 149.687 258.761 152.471 248.648 154.847C227.347 156.072 206.157 159.339 185.523 164.759C176.706 165.465 167.889 165.91 159.035 166.059C157.924 166.059 156.85 166.021 155.738 166.059C172.298 161.604 189.079 157.854 205.972 154.847C217.048 153.473 228.088 151.877 239.053 149.946C241.906 149.612 244.758 149.204 247.611 148.907C257.946 147.83 268.319 147.088 278.692 146.568L278.655 146.531ZM296.77 134.762C277.729 139.96 258.428 144.341 239.016 147.793C227.014 149.241 215.011 151.023 203.119 153.176C184.819 155.367 166.407 156.74 147.996 157.409C158.776 153.733 169.667 150.466 180.707 147.645C207.268 146.457 233.719 142.781 259.576 136.47C261.466 136.025 263.355 135.505 265.207 135.022C275.728 134.54 286.249 134.465 296.807 134.8L296.77 134.762ZM190.857 145.12C211.455 140.405 232.422 137.361 253.501 135.802C232.904 140.517 211.973 143.672 190.857 145.12ZM264.8 133.055C236.016 134.391 207.38 138.623 179.447 145.789C174.372 146.011 169.297 146.16 164.222 146.16C153.071 146.197 141.957 145.751 130.844 144.86C136.66 142.522 142.55 140.294 148.477 138.178C194.228 140.517 240.276 136.099 284.73 125.073C285.175 124.962 285.656 124.813 286.101 124.702C287.768 124.85 289.398 125.036 291.065 125.184C282.396 128.08 273.654 130.716 264.8 133.018V133.055ZM279.803 118.725C279.433 118.799 279.062 118.873 278.692 118.984C271.283 119.95 263.874 120.766 256.428 121.398C241.943 121.286 227.458 121.992 213.047 123.514C210.751 123.514 208.417 123.625 206.12 123.625C203.564 123.625 201.008 123.551 198.415 123.514C205.453 121.843 212.529 120.358 219.605 119.022C242.795 120.135 266.096 118.465 288.879 114.047C292.621 113.304 296.363 112.488 300.104 111.597C301.919 111.745 303.698 112.005 305.513 112.154C296.992 114.567 288.435 116.794 279.803 118.762V118.725ZM302.068 118.428C298.659 118.984 295.251 119.541 291.88 120.061C295.251 119.244 298.659 118.428 301.993 117.499C304.661 117.054 307.328 116.571 309.995 116.052C307.365 116.868 304.735 117.648 302.068 118.39V118.428ZM314.7 105.805C306.698 105.397 298.696 105.323 290.732 105.471C291.769 105.248 292.806 104.988 293.843 104.766C294.918 104.766 296.029 104.766 297.103 104.766C306.735 104.84 316.367 105.285 325.999 105.917C323.554 106.696 321.146 107.476 318.701 108.255C316.997 108.181 315.256 108.144 313.552 108.107C314.033 107.958 314.478 107.884 314.959 107.736C315.997 107.439 315.774 105.917 314.7 105.879V105.805ZM316.182 111.411C315.922 111.411 315.626 111.374 315.33 111.337C315.774 111.188 316.256 111.077 316.7 110.928C319.182 110.966 321.664 111.077 324.147 111.151C321.776 111.671 319.368 112.191 316.997 112.673C317.182 112.154 316.849 111.522 316.182 111.448V111.411ZM350.523 89.2104C360.377 89.5446 370.231 90.1386 380.048 91.0295C381.419 97.7491 374.084 102.167 368.675 104.283C361.118 107.253 352.671 108.515 344.781 110.26C335.557 112.302 326.295 114.121 316.997 115.829C319.886 114.901 322.739 113.898 325.591 112.933C326.11 112.822 326.666 112.748 327.184 112.599C342.929 109.109 358.488 104.951 373.861 100.088C374.602 99.8652 374.899 98.6772 374.084 98.306C367.971 95.4474 361.636 93.4427 355.154 92.069C354.968 91.8834 354.746 91.7349 354.487 91.7349C354.005 91.7349 353.524 91.6978 353.042 91.6607C350.671 91.2152 348.3 90.8068 345.892 90.5098C347.448 90.1014 349.041 89.6931 350.597 89.2476L350.523 89.2104ZM346.67 93.2942C337.483 95.2246 328.259 97.0066 318.997 98.603C323.443 97.6377 327.888 96.5983 332.334 95.4845C333.149 95.2618 333.223 94.445 332.815 93.8882C334.186 93.554 335.557 93.1457 336.927 92.8115C340.187 92.9229 343.41 93.1085 346.67 93.2942ZM331.556 87.0201C312.551 87.0943 293.51 88.1338 274.617 90.2499C255.761 92.366 237.016 95.5216 218.493 99.6425C210.01 100.942 201.563 102.464 193.154 104.209C182.448 104.803 171.705 105.211 160.962 105.471C149.367 105.731 137.808 105.805 126.213 105.694C128.732 100.905 137.586 98.7515 141.735 97.4893C150.293 94.8534 158.85 92.4032 167.482 90.0643C171.038 89.0991 174.594 88.1709 178.151 87.28C184.819 87.28 191.45 87.0201 198.007 86.9087C220.79 86.4632 243.536 85.5722 266.282 84.2729C309.995 81.7855 353.598 77.6646 397.052 72.0588C375.38 77.776 353.561 82.7507 331.556 87.0201ZM410.833 68.3463C387.976 71.4648 365.082 74.1749 342.151 76.4395C297.437 80.8574 252.575 83.6046 207.676 84.7183C200.711 84.904 193.71 85.0896 186.708 85.1638C188.412 84.7555 190.079 84.31 191.783 83.9387C203.193 83.9387 214.64 83.716 226.05 83.2705C260.762 81.8597 295.362 78.5185 329.703 73.2468C349.337 70.2397 368.86 66.5644 388.272 62.295C389.346 62.0723 389.087 60.4388 388.013 60.4388C378.233 60.2903 368.49 60.3645 358.71 60.5873C362.711 60.1047 366.712 59.6592 370.676 59.1394C377.455 58.2855 384.234 57.4317 391.013 56.5778C399.312 58.9538 407.239 62.4064 414.463 67.344C413.241 67.6781 412.018 68.0122 410.796 68.3463H410.833ZM449.138 47.2966C455.028 47.2966 460.881 47.1852 466.549 48.9672C471.068 50.4151 475.514 53.2366 476.033 58.2113C456.547 61.5896 436.987 64.5967 417.427 67.344C417.353 67.1583 417.279 66.9727 417.093 66.8614C410.388 61.998 403.164 58.5083 395.57 55.9467C403.683 54.8701 411.796 53.7192 419.835 52.3085C427.133 51.0462 434.431 49.4499 441.543 47.3709C444.099 47.3709 446.619 47.2966 449.175 47.2966H449.138ZM441.395 45.4404C439.802 45.4404 438.246 45.4775 436.653 45.5146C441.506 44.438 446.322 43.3243 451.138 42.062C447.952 43.3243 444.692 44.438 441.395 45.4404ZM462.252 37.0131C450.471 40.5028 438.58 43.3243 426.54 45.6631C424.91 45.6631 423.28 45.6631 421.65 45.7374C419.02 45.8116 416.389 45.8859 413.722 45.9601C425.058 43.9183 436.394 41.8393 447.693 39.6118C448.249 39.5004 448.471 38.8693 448.397 38.3867C448.323 37.8669 448.137 37.4214 447.989 36.9759C452.472 36.4191 456.954 35.7137 461.363 34.7113C461.844 35.3425 462.289 36.0478 462.659 36.7903C462.511 36.8646 462.4 36.9388 462.252 37.0131ZM479.478 31.333C474.551 33.115 469.587 34.7856 464.623 36.3077C464.252 35.6023 463.845 34.9341 463.4 34.2658C468.068 33.115 472.587 31.5929 476.922 29.551C477.811 30.1079 478.663 30.739 479.478 31.333ZM473.958 25.6529C468.068 22.5344 461.696 20.4926 455.139 19.0818C456.658 18.3765 458.214 17.6711 459.733 16.9286C460.511 16.5202 460.214 15.4436 459.51 15.1837C457.991 14.664 456.473 14.2556 454.917 13.773C465.475 15.258 475.958 17.2998 486.294 20.0099C482.33 22.2374 478.218 24.0937 473.958 25.6529ZM488.776 18.5992C472.624 14.1814 456.102 11.4341 439.432 9.83777C429.318 7.83304 419.057 6.79354 408.758 6.2738C400.015 5.23431 391.088 5.04868 382.382 4.60318C360.192 3.48944 337.964 3.08107 315.737 3.37807C342.892 2.2272 370.083 1.78171 397.274 2.33858C411.796 2.63557 426.318 3.15532 440.802 4.00919C452.99 4.71456 465.623 5.04868 477.292 9.05815C482.441 10.803 487.183 13.4389 491.295 16.9657C490.48 17.5226 489.628 18.1166 488.813 18.6363L488.776 18.5992Z" fill="black"/>
<path d="M369.676 318.01C354.598 318.604 339.521 318.345 324.481 317.305C332.445 312.85 340.855 309.249 349.671 306.687C350.709 306.39 350.56 304.571 349.412 304.72C331.519 306.65 313.515 307.393 295.548 307.133C300.957 305.388 306.476 304.014 312.033 302.938C322.851 303.272 333.668 302.492 344.374 300.636C345.559 300.413 345.189 298.668 344.115 298.631C333.223 298.112 322.369 298.928 311.7 300.933C306.254 300.747 300.846 300.265 295.474 299.522C295.585 299.448 295.659 299.411 295.77 299.337C308.366 298.409 320.813 295.81 332.742 291.541C333.705 291.206 333.631 290.018 332.779 289.647C332.927 289.053 332.631 288.385 331.853 288.348C311.292 287.383 290.658 290.278 271.135 296.924C270.95 296.998 270.876 297.109 270.765 297.184C265.764 296.998 260.8 296.552 255.835 295.921C259.244 294.214 262.726 292.654 266.245 291.206C268.283 291.875 270.468 291.875 272.58 291.875C276.618 291.838 280.619 291.652 284.657 291.318C292.621 290.687 300.549 289.499 308.366 287.754C317.516 285.712 326.444 282.965 335.15 279.512C336.113 279.141 336.002 277.693 334.89 277.656C311.181 276.245 287.435 280.366 265.504 289.35C264.467 288.905 263.578 288.199 263.282 287.048C262.874 285.563 263.615 284.375 264.8 283.559C268.468 281.071 274.025 281.331 276.47 277.136C276.618 276.913 276.247 276.728 276.136 276.913C273.506 280.96 267.801 280.292 264.097 282.668C261.17 284.524 261.466 288.051 263.837 290.018C259.762 291.763 255.687 293.582 251.76 295.661C251.02 296.033 251.131 297.406 252.02 297.555C260.133 298.78 268.32 299.337 276.47 299.374C281.471 299.708 286.472 299.782 291.473 299.559C291.14 300.116 291.251 301.007 291.992 301.119C296.067 301.75 300.142 302.232 304.254 302.529C299.216 303.792 294.214 305.277 289.287 307.096C288.25 307.504 288.361 309.063 289.547 309.101C306.662 309.583 323.814 309.026 340.892 307.504C333.816 310.14 327 313.37 320.48 317.231C319.591 317.751 320.035 319.013 320.998 319.087C332.149 319.978 343.374 320.349 354.561 320.312C347.152 322.206 340.003 325.25 333.446 329.371C332.593 329.928 332.964 331.19 333.964 331.227C334.112 331.227 334.261 331.227 334.446 331.227C327.926 333.009 321.813 336.202 316.553 340.731C316.182 341.028 316.368 341.548 316.701 341.77C318.738 343.255 320.961 344.406 323.258 345.371C323.221 345.78 323.443 346.262 323.851 346.374C324.629 346.597 325.407 346.745 326.185 346.931C319.924 348.081 313.774 349.863 307.773 352.277C307.069 352.574 306.958 353.39 307.551 353.836C309.736 355.432 312.144 356.583 314.664 357.363C310.885 358.328 307.18 359.553 303.55 361.149C302.883 361.446 302.92 362.523 303.55 362.857C305.439 363.822 307.403 364.602 309.403 365.196C300.66 366.57 292.066 369.057 283.916 372.695C283.138 373.029 283.36 374.366 284.175 374.551C287.287 375.22 290.399 375.702 293.548 375.962C291.029 377.076 288.621 378.412 286.324 379.972C285.657 380.417 285.694 381.531 286.546 381.754C291.029 382.942 295.585 383.573 300.142 383.684C295.956 385.206 291.881 387.137 288.028 389.513C287.398 389.921 287.398 391.146 288.25 391.295C296.511 392.483 304.661 391.963 312.774 390.255C313.145 390.181 312.996 389.624 312.626 389.698C305.624 391.146 298.475 391.035 291.436 389.847C296.585 386.951 302.031 384.761 307.736 383.387C310.589 383.09 313.404 382.57 316.182 381.865C317.22 381.605 317.034 379.823 315.923 379.972C315.849 379.972 315.738 379.972 315.664 380.009C315.627 380.009 315.59 380.009 315.553 380.009C312.848 380.306 310.181 380.826 307.551 381.457C301.475 382.125 295.363 381.754 289.362 380.417C292.214 378.709 295.178 377.299 298.289 376.259C305.032 376.445 311.774 375.739 318.405 374.069C319.553 373.772 319.183 372.213 318.146 372.101C311.329 371.359 304.513 372.101 298.104 374.254C294.733 374.143 291.325 373.809 287.991 373.215C296.845 369.651 306.106 367.349 315.59 366.458C319.146 366.829 322.739 366.718 326.333 365.976C327.444 365.753 327.185 364.008 326.073 364.008C322.517 364.008 318.961 364.119 315.404 364.454C312.404 364.082 309.44 363.303 306.625 362.078C310.626 360.444 314.775 359.182 318.961 358.328C322.851 358.811 326.888 358.328 330.63 356.917C331.519 356.583 331.445 355.172 330.408 355.172C326.407 355.247 322.48 355.766 318.627 356.509C315.59 356.063 312.663 354.987 309.959 353.316C316.664 350.754 323.628 348.861 330.741 347.822C332.26 348.007 333.779 348.193 335.298 348.193C342.633 348.601 350.079 346.782 356.228 342.513C356.525 342.29 356.784 341.882 356.636 341.51C356.488 341.065 356.265 340.657 356.043 340.248C359.6 340.508 363.23 339.914 366.638 338.466C367.601 338.058 366.972 336.796 366.157 336.721C361.192 336.164 356.191 336.164 351.264 336.647C350.264 336.387 349.19 336.276 348.041 336.424C347.671 336.461 347.486 336.758 347.412 337.093C339.41 338.281 331.593 340.731 324.295 344.443C322.184 343.589 320.109 342.513 318.22 341.139C325.184 335.608 333.742 332.378 342.522 331.672L355.413 332.415C356.488 332.489 356.747 330.744 355.673 330.522C351.598 329.668 347.449 329.482 343.411 329.742C341.41 329.631 339.41 329.482 337.372 329.371C347.263 323.765 358.303 320.498 369.713 319.978C371.01 319.904 371.01 317.899 369.713 317.973L369.676 318.01ZM305.773 294.882C310.589 293.248 315.553 292.172 320.628 291.689C315.738 292.988 310.774 294.028 305.773 294.882ZM297.474 296.07C290.621 296.887 283.731 297.295 276.84 297.295C288.88 293.657 301.253 291.392 313.774 290.612C308.144 291.726 302.661 293.545 297.474 296.107V296.07ZM329.963 279.438C314.034 285.266 297.289 288.868 280.359 289.944C276.692 290.167 272.617 290.65 268.912 290.167C288.324 282.593 309.107 278.918 329.963 279.438ZM354.524 341.473C351.968 343.181 349.227 344.518 346.337 345.409C346.226 345.371 346.152 345.297 346.041 345.297C341.077 345.26 336.15 345.557 331.26 346.188C329.741 346.003 328.259 345.706 326.74 345.334C333.89 341.956 341.521 339.728 349.338 338.8C350.672 339.357 352.079 339.728 353.45 339.988C353.895 340.434 354.228 340.916 354.524 341.473Z" fill="black"/>
</g>
<defs>
<clipPath id="clip0_7278_776">
<rect width="494" height="392" fill="white"/>
</clipPath>
</defs>
</svg>
