<svg width="640" height="298" viewBox="0 0 640 298" fill="none" xmlns="http://www.w3.org/2000/svg">
<g clip-path="url(#clip0_7278_756)">
<path d="M255.345 101.563C240.008 105.768 226.373 114.944 216.46 127.347C216.396 127.432 216.524 127.559 216.588 127.474C226.692 115.368 240.348 106.448 255.409 101.776C255.536 101.733 255.494 101.521 255.345 101.563Z" fill="black"/>
<path d="M136.245 220.203C128.183 226.022 119.76 231.141 111.102 236.004C111.485 235.346 111.868 234.666 112.251 234.008C112.336 233.859 112.123 233.753 112.038 233.88C111.464 234.751 110.847 235.622 110.294 236.514C110.166 236.705 110.421 236.939 110.613 236.833C119.589 232.054 128.162 226.362 136.351 220.373C136.436 220.309 136.351 220.16 136.266 220.224L136.245 220.203Z" fill="black"/>
<path d="M205.25 12.1699C203.719 12.8283 202.166 13.4655 200.656 14.1451C199.145 14.8248 197.571 15.4407 196.082 16.184C195.827 16.3115 196.018 16.6513 196.252 16.6088C196.252 16.6088 196.295 16.6088 196.316 16.5876C196.316 16.5876 196.338 16.5876 196.359 16.5663C197.848 15.9504 199.316 15.2283 200.762 14.5487C202.294 13.8478 203.825 13.1044 205.357 12.3823C205.484 12.3186 205.357 12.1274 205.229 12.1912L205.25 12.1699Z" fill="black"/>
<path d="M199.315 57.4292C199.188 57.4292 199.188 57.6416 199.315 57.6416C199.443 57.6416 199.443 57.4292 199.315 57.4292Z" fill="black"/>
<path d="M310.439 76.3105C297.612 79.5813 285.615 85.7405 274.362 92.5794C267.81 96.5722 261.386 100.82 255.047 105.195C256.238 104.261 257.451 103.326 258.642 102.392C264.768 97.6342 270.937 92.8979 277.085 88.183C277.212 88.0768 277.085 87.8644 276.957 87.9706C265.662 96.2749 254.515 104.77 243.497 113.436C242.242 114.349 240.965 115.262 239.71 116.197C236.817 118.321 233.967 120.487 231.138 122.675C228.968 124.267 226.841 125.882 224.714 127.517C225.075 127.135 225.437 126.752 225.799 126.37C225.905 126.264 225.735 126.094 225.629 126.2L222.438 129.237C222.438 129.237 222.374 129.45 222.438 129.535C221.97 129.917 221.502 130.257 221.034 130.639C220.8 130.83 220.906 131.128 221.119 131.276C220.013 132.168 218.907 133.082 217.779 133.974C217.269 133.613 216.78 133.23 216.248 132.89C215.631 132.487 215.12 133.443 215.695 133.846C216.099 134.143 216.482 134.42 216.886 134.717C215.929 135.482 214.971 136.267 214.014 137.032C213.589 136.777 213.163 136.522 212.759 136.267C213.014 136.225 213.227 136.012 213.142 135.715C211.908 131.552 210.526 127.432 208.973 123.375C217.652 116.388 226.352 109.379 235.031 102.37C235.073 102.328 235.009 102.264 234.967 102.307C226.288 109.315 217.63 116.303 208.952 123.312C207.569 119.659 206.08 116.048 204.442 112.501C202.889 109.103 201.187 105.747 199.401 102.455C197.486 98.0377 195.274 93.7263 192.721 89.6059C192.402 89.0962 191.466 89.4148 191.7 90.0307C192.445 91.9634 193.168 93.9174 193.913 95.8501C193.593 95.8501 193.253 95.9563 192.891 96.1262C192.785 96.1687 192.721 96.2961 192.7 96.4023C189.935 91.9422 187.042 87.567 184.021 83.2768C185.702 81.6414 186.999 79.645 187.978 77.4787C188.02 77.3937 188.042 77.3087 188.084 77.245C188.467 77.1176 188.871 77.0114 189.254 76.884C189.594 76.7778 189.637 76.2468 189.254 76.1619C189.02 76.0981 188.829 76.0132 188.595 75.9495C188.829 75.376 189.02 74.8026 189.233 74.2079C195.742 73.4433 202.187 72.0628 208.484 70.215C208.675 70.1513 208.59 69.8752 208.399 69.9177C204.314 71.0858 200.166 71.9566 195.976 72.5938C195.976 72.53 195.933 72.4876 195.87 72.4876C193.785 72.7 191.7 72.8911 189.616 73.1035C190.424 70.5548 191.02 67.9212 191.36 65.3301C191.53 63.9496 191.488 61.9107 190.892 60.2966C192.977 59.978 194.934 58.9373 196.21 57.1532C196.21 57.1532 196.21 57.1108 196.21 57.0895C198.316 57.1957 200.422 57.1957 202.506 57.047C203.953 56.9408 205.399 56.7709 206.846 56.5585C208.165 56.3462 209.76 56.2612 210.972 55.6241C213.716 54.2011 211.121 51.8436 210.611 49.9533C209.015 44.2189 214.525 39.5888 218.375 36.3818C220.566 34.5553 228.33 28.2474 223.182 25.6563C221.906 25.0191 220.332 24.8704 218.949 24.5943C217.056 24.2333 215.184 23.8935 213.291 23.5749C210.589 23.1289 207.888 22.7466 205.186 22.4067L209.334 21.5147C211.462 21.0475 213.908 20.8563 215.907 19.9855C218.907 18.7112 217.801 15.7378 215.737 14.1874C214.227 13.0617 212.355 12.4883 210.611 11.8299C208.484 11.0228 206.335 10.3007 204.165 9.59981C203.357 9.34495 202.528 9.1538 201.719 8.89894C201.762 8.8777 201.826 8.83522 201.868 8.81398C201.996 8.75027 201.911 8.53788 201.762 8.58036C201.613 8.64407 201.464 8.70779 201.294 8.77151C198.741 8.02815 196.189 7.39099 193.593 6.81755C195.742 6.52021 197.89 6.22286 200.06 5.94676C200.783 5.84057 200.507 4.84235 199.911 4.75739C195.912 4.2689 191.87 4.31138 187.893 4.90606C187.212 5.01226 186.553 5.13969 185.893 5.26712C186.659 4.46005 187.403 3.6105 188.127 2.73972C188.212 2.63353 188.063 2.46362 187.956 2.56981C187.084 3.54679 186.148 4.48129 185.191 5.39455C184.957 5.43703 184.723 5.52199 184.468 5.5857C184.383 5.43703 184.255 5.33084 184.064 5.3096C182.426 5.22465 180.788 5.20341 179.171 5.20341C180.554 4.3751 181.958 3.58927 183.447 2.93087C183.723 2.80343 183.489 2.42114 183.213 2.52733C181.447 3.29192 179.767 4.20519 178.129 5.18217C177.108 5.18217 176.108 5.20341 175.087 5.22465C174.853 5.11845 174.619 4.99102 174.364 4.9273C174.428 3.35564 174.236 1.76274 173.662 0.254792C173.619 0.169838 173.513 0.084883 173.407 0.148599C172.471 0.828237 171.577 1.57159 170.769 2.35742C170.705 1.69902 170.641 1.04062 170.578 0.403463C170.535 0.0211669 169.939 -0.297413 169.727 0.169838C168.961 1.93265 168.174 3.7167 167.408 5.47951C167.238 5.54323 167.089 5.62818 166.94 5.6919C163.686 5.98924 160.431 6.39277 157.219 6.96622C155.751 5.75561 154.283 4.56625 152.773 3.39812C152.603 3.27069 152.326 3.3344 152.178 3.48307C149.285 6.56268 150.986 10.4069 151.71 14.1661C150.816 14.6971 149.923 15.2068 149.029 15.7378C149.561 13.2529 148.646 10.7255 146.86 8.81398C146.158 8.04939 145.349 7.45471 144.477 6.98746C144.839 6.75383 145.2 6.52021 145.583 6.28658C145.754 6.18039 145.583 5.94676 145.434 6.03171C144.966 6.26534 144.541 6.52021 144.094 6.77507C142.116 5.84057 139.861 5.62818 137.606 6.15915C135.224 6.71135 133.267 7.81576 131.565 9.23876C129.885 7.85824 128.183 6.49897 126.439 5.18217C126.396 5.16093 126.375 5.13969 126.333 5.09721C125.886 4.75739 125.397 5.47951 125.758 5.86181C127.205 7.43347 128.672 9.00513 130.119 10.5768C128.651 12.106 127.396 13.8476 126.269 15.7166C124.482 12.4246 120.036 11.3839 116.441 12.2334C110.889 13.5502 107.613 18.605 105.656 23.5961C103.976 27.9076 102.678 32.6226 102.487 37.3163C102.232 37.4862 102.253 37.826 102.487 38.0597C102.487 39.0579 102.487 40.0773 102.572 41.0756C102.742 42.7959 103.104 44.4737 103.678 46.0879C102.508 46.9587 101.487 47.9569 100.743 48.8914C100.487 49.2312 100.232 49.571 99.9769 49.9321C99.7642 49.9958 99.5728 50.0808 99.3601 50.1445C98.8921 50.2931 98.8283 50.8453 99.1261 51.1427C96.2544 55.5391 94.4038 60.87 95.0845 66.0735C95.595 69.9177 97.7009 73.8468 100.913 76.1406C100.424 76.4592 99.9557 76.7778 99.5728 77.1813C97.0202 79.9211 101.7 81.6839 103.721 81.9813C104.572 82.1087 105.444 82.1512 106.295 82.1512C105.976 83.8715 105.997 85.6343 106.656 87.3122C107.06 88.3529 107.677 89.2661 108.422 90.0732C105.742 91.8997 103.146 93.8537 100.679 95.9776C100.253 96.3386 100.573 97.1882 101.147 97.1244C109.634 96.1687 118.122 95.213 126.609 94.2572C124.035 95.8926 121.355 97.3156 118.547 98.505C118.164 98.6749 118.122 99.2908 118.419 99.5457C120.057 100.947 121.865 102.009 123.844 102.753C122.972 103.093 122.121 103.432 121.249 103.73C117.292 104.685 113.293 105.492 109.315 106.3C108.571 106.448 108.72 107.744 109.507 107.659C109.57 107.659 109.634 107.659 109.698 107.638C109.698 107.638 109.698 107.638 109.719 107.638C113.612 107.213 117.398 106.385 121.1 105.195C127.375 103.687 133.565 101.797 139.415 99.0147C140.053 98.7173 140.67 98.3775 141.308 98.0589C146.073 96.9758 150.603 94.9369 154.496 91.9422C156.155 90.6679 158.389 88.6077 158.559 86.3352C161.346 86.7387 164.239 86.2502 166.77 85.0184C166.6 85.337 166.408 85.6343 166.281 85.9741C166.174 86.2502 166.387 86.5263 166.642 86.6113C170.684 87.9069 174.896 88.2679 179.065 87.7582C183.128 96.8483 187.914 105.577 193.423 113.882C193.615 118.321 193.785 122.738 193.976 127.177C193.274 125.967 192.594 124.756 191.913 123.545L178.618 99.928C178.32 99.3757 177.384 99.7368 177.597 100.353C181.426 112.055 187.084 123.099 194.232 133.082C194.253 133.591 194.274 134.122 194.295 134.632C193.934 135.715 193.955 136.968 194.21 138.03C194.295 138.349 194.381 138.667 194.487 139.007C194.7 143.956 194.891 148.883 195.104 153.832C195.061 153.895 195.04 153.938 194.997 154.002C194.444 153.322 193.891 152.664 193.338 152.026C187.935 145.804 182.511 139.581 177.108 133.379C176.725 132.933 175.959 133.4 176.129 133.952C179.129 144.211 183.17 154.129 188.212 163.538C184.383 168.38 180.214 172.947 175.661 177.152C175.342 175.835 175.64 174.497 176.597 173.478C176.831 173.223 176.449 172.84 176.215 173.095C174.981 174.391 174.598 176.154 175.193 177.831C175.279 178.044 175.534 178.129 175.704 177.959C180.384 173.775 184.702 169.209 188.658 164.345C189.828 166.511 191.083 168.656 192.36 170.78C192.509 171.885 192.743 172.968 193.104 174.03C188.871 176.345 184.638 178.639 180.426 181.017C166.344 188.961 152.433 197.201 138.776 205.867C129.927 211.474 121.227 217.272 112.634 223.24C107.699 225.746 102.785 228.273 97.8923 230.822C92.3192 233.732 86.7673 236.684 81.2366 239.679C80.5559 240.04 81.1515 240.974 81.8322 240.677C87.3203 238.298 92.7871 235.898 98.2752 233.498C92.383 237.831 86.5758 242.291 80.8537 246.857C78.6202 248.578 76.408 250.319 74.2595 252.124C73.7277 252.57 73.2385 253.016 72.728 253.462C69.7499 255.947 66.7719 258.454 63.8577 260.981C63.177 261.448 62.475 261.915 61.7943 262.404C53.9238 267.947 46.2022 273.767 38.7784 279.883C38.587 280.032 38.5657 280.308 38.6508 280.521C33.652 281.922 28.6744 283.388 23.7181 284.917C19.1021 286.361 14.3798 287.678 9.93407 289.589C6.0839 291.246 2.51026 293.519 0.212925 297.087C-0.0210632 297.448 0.27674 298.064 0.744716 298C20.0594 295.834 38.7571 289.504 55.4128 279.501C55.9021 279.204 55.7319 278.312 55.0938 278.354L48.223 278.928C48.8825 278.758 49.5206 278.567 50.1588 278.397C68.6013 273.554 87.299 269.625 106.124 266.694C116.909 265.016 127.736 263.615 138.606 262.616C138.776 262.616 138.798 262.319 138.606 262.34C119.164 264.124 99.8068 266.758 80.641 270.517C67.9418 273.002 55.3278 275.997 42.8413 279.395C42.3095 279.437 41.7777 279.48 41.2459 279.522C46.3724 275.359 51.6052 271.367 56.9444 267.459C57.0295 267.629 57.1784 267.756 57.3911 267.671C69.9414 262.574 81.8535 255.735 92.702 247.601C92.7871 247.537 92.702 247.388 92.617 247.452C82.3215 255.055 71.1751 261.193 59.3481 266.014C60.0075 265.42 60.6882 264.868 61.3689 264.273C61.454 264.613 61.7943 264.889 62.1347 264.634C70.9411 258.305 79.854 252.124 88.8093 246.029C100.934 238.489 113.314 231.332 125.779 224.365C134.246 219.629 142.754 214.999 151.242 210.348C151.858 210.008 151.327 209.159 150.71 209.435C145.349 211.771 139.968 214.107 134.607 216.443C135.352 215.997 136.075 215.53 136.798 215.084C144.009 210.709 151.284 206.397 158.602 202.192C159.24 201.831 158.687 200.939 158.049 201.236C144.796 207.374 131.65 213.725 118.59 220.266C123.929 216.635 129.289 213.066 134.714 209.562C148.242 200.854 162.026 192.571 176.002 184.607C181.809 181.293 187.659 178.065 193.508 174.858C193.636 175.198 193.742 175.538 193.913 175.877C194.104 176.26 194.721 176.26 194.912 175.877C195.316 175.07 195.678 174.242 196.061 173.435C202.081 170.143 208.143 166.936 214.206 163.729C214.376 163.835 214.546 163.941 214.716 164.048C215.227 164.345 215.759 164.621 216.312 164.918C207.122 170.143 198.018 175.516 188.999 181.017C183.745 184.224 178.491 187.474 173.279 190.766C172.705 191.127 173.236 192.019 173.811 191.679C188.382 182.801 203.123 174.157 217.971 165.725C218.524 165.959 219.077 166.193 219.63 166.405C209.334 172.904 199.145 179.573 189.041 186.369C183.957 189.789 178.916 193.251 173.875 196.691C170.11 199.219 166.366 201.767 162.622 204.337C161.984 204.783 162.579 205.824 163.239 205.378C182.639 192.04 202.485 179.382 222.651 167.255C223.118 167.34 223.565 167.424 224.033 167.467C220.46 169.633 216.886 171.8 213.355 174.008C206.399 178.341 199.486 182.738 192.594 187.176C191.998 187.559 192.53 188.515 193.168 188.153C198.996 184.585 204.825 180.996 210.653 177.407C210.76 177.598 210.951 177.747 211.228 177.662C220.694 174.348 229.883 170.377 238.647 165.471C238.86 165.364 238.668 165.046 238.455 165.152C231.138 169.124 223.48 172.501 215.567 175.155C220.289 172.416 224.99 169.591 229.67 166.766C230.649 166.363 231.521 165.832 232.287 165.194C236.286 162.773 240.285 160.352 244.284 157.952C252.346 153.131 260.429 148.331 268.491 143.51C268.108 143.786 267.725 144.083 267.321 144.359C267.13 144.487 267.193 144.827 267.449 144.827C270.405 144.784 273.511 143.892 276.276 142.894C277.829 142.32 279.318 141.662 280.765 140.919C281.02 140.876 281.296 140.855 281.552 140.812C277.531 142.469 273.49 144.104 269.491 145.804C269.533 145.719 269.491 145.591 269.363 145.655C268.257 146.186 267.151 146.738 266.045 147.269C265.832 147.375 265.981 147.736 266.194 147.651C271.639 145.485 276.957 143.042 282.339 140.727C282.339 140.727 282.339 140.706 282.339 140.685C286.614 139.963 290.762 138.582 294.613 136.565C294.783 136.48 294.612 136.246 294.464 136.331C290.762 138.03 286.848 139.135 282.871 139.729C283.339 139.453 283.807 139.177 284.275 138.858C284.381 138.774 284.274 138.604 284.168 138.667C283.509 139.071 282.828 139.453 282.147 139.814C279.51 140.175 276.829 140.303 274.128 140.197C274.404 140.005 274.681 139.793 274.957 139.623C275.659 139.198 276.383 138.774 277.085 138.349C282.083 135.588 287.678 134.037 293.443 133.931C293.634 133.931 293.634 133.634 293.443 133.634C289.422 133.634 285.423 134.292 281.637 135.588C285.147 133.485 288.656 131.361 292.145 129.237C298.165 136.055 303.844 143.127 309.354 150.412C309.46 150.54 309.673 150.412 309.588 150.285C304.802 142.618 298.994 135.46 292.677 128.919C293.655 128.324 294.634 127.751 295.591 127.156C295.74 127.071 295.591 126.816 295.442 126.922C294.421 127.496 293.4 128.069 292.4 128.643C291.379 127.602 290.358 126.583 289.316 125.563C291.188 124.437 292.996 123.248 294.783 121.995C295.166 121.719 294.804 121.103 294.421 121.358C292.549 122.611 290.592 123.758 288.593 124.841C288.295 124.565 287.997 124.267 287.699 123.97C287.614 123.885 287.465 124.013 287.55 124.119C287.806 124.395 288.061 124.692 288.316 124.968C282.998 127.793 277.319 130.023 271.511 131.574C273.979 129.811 276.468 128.069 278.935 126.306C279.51 125.903 279.169 124.777 278.425 125.096C263.364 131.149 248.793 138.306 234.797 146.504C231.563 144.126 228.351 141.747 225.118 139.368C232.542 133.782 239.966 128.197 247.368 122.611C247.411 122.59 247.368 122.526 247.326 122.547C239.881 128.133 232.478 133.74 225.054 139.326C223.459 138.136 221.842 136.968 220.247 135.779C219.63 135.29 219.013 134.802 218.375 134.356C220.842 132.338 223.31 130.321 225.777 128.324C233.499 122.802 241.221 117.28 248.921 111.758C249.049 111.652 248.921 111.439 248.793 111.524C244.029 114.795 239.285 118.066 234.541 121.337C234.882 121.06 235.222 120.806 235.562 120.529C237.392 119.17 239.221 117.79 241.05 116.43C243.348 114.795 245.645 113.117 247.985 111.524C256.494 105.641 265.13 99.9492 273.851 94.3634C276.766 92.4944 279.722 90.6679 282.679 88.8414C284.934 87.5883 287.189 86.3777 289.486 85.2308C296.272 81.8326 303.334 78.9654 310.588 76.6716C310.822 76.6079 310.715 76.2681 310.481 76.3105H310.439ZM193.147 107.553C192.679 106.406 192.232 105.259 191.785 104.133C191.934 104.197 192.083 104.218 192.211 104.176C192.509 104.877 192.806 105.577 193.083 106.278C193.083 106.703 193.125 107.128 193.125 107.553H193.147ZM192.764 98.5899C192.806 99.7368 192.849 100.862 192.913 102.009C192.594 101.648 192.253 101.308 191.934 100.969C191.849 100.799 191.764 100.65 191.679 100.48C190.871 98.5687 190.084 96.6572 189.254 94.767C188.403 92.813 187.488 90.9015 186.616 88.9688C188.744 92.1334 190.786 95.3616 192.785 98.6112L192.764 98.5899ZM185.404 92.8979C185.404 92.8979 185.404 92.8979 185.404 92.8767C184.234 91.0077 183.128 89.1175 182.022 87.206C182.511 86.9936 182.341 86.2502 181.809 86.2078C181.681 86.2078 181.532 86.1653 181.405 86.1653C181.277 85.9317 181.128 85.7193 181.001 85.4856C181.277 85.337 181.532 85.1671 181.788 85.0184C182.213 85.698 182.639 86.3564 183.043 87.0573C182.894 87.1423 182.787 87.3122 182.873 87.5033C183.681 89.3298 184.51 91.1139 185.383 92.8979H185.404ZM180.086 74.8663C180.256 74.8663 180.448 74.8663 180.618 74.8451C180.469 75.8858 180.32 76.9265 180.171 77.9671C179.001 76.3742 177.81 74.8026 176.597 73.2309C177.427 73.1247 178.214 72.9548 179.022 72.7C179.022 72.7 179.022 72.7 179.044 72.7C179.086 72.8274 179.086 72.9336 179.129 73.061C179.278 73.592 179.937 73.6345 180.235 73.2097C180.405 72.9548 180.533 72.7 180.703 72.4451C180.788 72.4451 180.894 72.4451 180.979 72.4239C180.916 72.9336 180.83 73.4433 180.745 73.9743C180.511 73.9955 180.299 74.0168 180.065 74.038C179.533 74.0805 179.512 74.9088 180.065 74.8875L180.086 74.8663ZM170.046 75.1636C170.982 74.8026 171.939 74.4415 172.896 74.1442C173.024 74.1017 173.173 74.0592 173.322 74.0168C173.726 74.9088 174.109 75.8008 174.513 76.6928C174.789 77.4574 175.108 78.222 175.406 78.9866C174.534 79.0503 173.683 79.0503 172.811 79.0503C172.811 78.753 172.386 78.5406 172.215 78.8804C172.173 78.9441 172.13 79.0078 172.109 79.0716C171.067 79.0503 170.024 78.9866 168.982 78.8592C169.642 77.7548 170.024 76.5017 170.046 75.1636ZM170.003 74.1654C169.876 72.7637 169.365 71.4256 168.514 70.3849C169.429 70.3 170.365 70.1938 171.279 70.0239C171.407 70.0664 171.556 70.1301 171.684 70.1726C172.088 71.192 172.492 72.2115 172.917 73.2097C172.279 73.4008 171.641 73.5707 171.024 73.7831C170.684 73.9106 170.322 74.038 169.982 74.1654H170.003ZM175.13 70.4699C175.364 69.9602 175.576 69.4504 175.81 68.9195C176.704 68.6646 177.576 68.3673 178.448 68.0699C178.448 69.0894 178.533 70.1301 178.703 71.1495C177.491 71.0009 176.3 70.746 175.108 70.4699H175.13ZM178.873 71.8929C178.873 71.8929 178.873 71.8929 178.873 71.9141C177.916 72.0628 176.938 72.2327 176.002 72.4451C175.661 71.9991 175.321 71.5743 174.959 71.1283C176.236 71.4469 177.555 71.7017 178.873 71.8717V71.8929ZM174.853 70.4062C174.662 70.3637 174.47 70.3212 174.279 70.2787C174.087 70.0239 173.875 69.769 173.683 69.5142C174.3 69.3655 174.896 69.1956 175.513 69.0044C175.3 69.4717 175.087 69.9389 174.853 70.4062ZM168.004 78.753C167.046 78.6043 166.089 78.4132 165.132 78.1583C165.387 77.0114 167.323 76.2893 168.301 75.8645C168.621 75.7159 168.94 75.6097 169.259 75.461C169.131 76.6928 168.684 77.7972 168.004 78.7317V78.753ZM168.408 79.6875C169.471 79.8149 170.514 79.8786 171.577 79.8999C171.279 80.3246 170.96 80.7494 170.599 81.1317C169.727 81.2379 168.855 81.3653 167.961 81.4715C167.706 81.3016 167.472 81.1105 167.217 80.9406C167.663 80.5583 168.046 80.1335 168.408 79.6875ZM171.577 82.045C172.024 81.8751 172.024 81.1742 171.577 81.0892C171.854 80.7282 172.13 80.3459 172.364 79.9423C173.47 79.9423 174.598 79.9211 175.704 79.8149C176.47 81.7901 177.278 83.7653 178.129 85.7193C176.385 85.3582 174.683 84.8697 173.024 84.1901C172.024 83.7866 171.067 83.2768 170.131 82.7671C170.578 82.491 171.067 82.2361 171.577 82.0662V82.045ZM182.298 62.0806C181.703 63.2063 181.341 64.4381 181.171 65.6912C180.979 65.8186 180.809 65.9461 180.596 66.0522C180.533 66.0947 180.533 66.1372 180.49 66.2009C180.235 66.3071 180.001 66.3921 179.746 66.4983C179.937 64.6505 180.469 62.8664 181.256 61.1886C181.66 60.9974 182.064 60.8063 182.468 60.5939C182.405 61.0824 182.362 61.5921 182.298 62.1018V62.0806ZM182.617 72.2115C182.936 72.7212 183.319 73.2097 183.745 73.6557C183.192 73.6982 182.66 73.7619 182.107 73.8044C182.171 73.2734 182.256 72.7637 182.341 72.2327C182.426 72.2327 182.532 72.2115 182.617 72.1902V72.2115ZM181.064 67.0717C181.064 67.6664 181.128 68.2611 181.235 68.8345C180.873 69.6841 180.448 70.4911 179.98 71.277C179.746 70.0451 179.661 68.8133 179.703 67.6027C180.15 67.4328 180.618 67.2628 181.064 67.0717ZM180.979 81.0255C181.469 81.7052 181.979 82.406 182.49 83.0857C182.341 83.2131 182.213 83.3193 182.043 83.4467C181.937 83.2768 181.83 83.0857 181.724 82.9158C181.447 82.4698 181.15 82.0662 180.873 81.6202C180.916 81.4291 180.937 81.2167 180.979 81.0255ZM183.511 82.1512C183 81.0468 182.511 79.9211 182 78.8167C183.596 78.4769 185.17 78.0733 186.723 77.6273C185.872 79.3052 184.83 80.8556 183.511 82.1512ZM187.169 76.6928C185.298 77.245 183.383 77.7335 181.469 78.1158C181.639 76.9902 181.809 75.8858 181.958 74.7601C182.873 74.7176 183.808 74.6752 184.723 74.6114C185.51 75.2698 186.382 75.8433 187.34 76.2681C187.276 76.4167 187.233 76.5654 187.169 76.6928ZM187.637 75.5459C187.021 75.2698 186.446 74.9088 185.893 74.5052C186.616 74.4415 187.34 74.3778 188.084 74.2929C187.935 74.6964 187.808 75.1212 187.637 75.5247V75.5459ZM190.041 67.008C189.616 69.0894 189.126 71.1708 188.467 73.1884C187.233 73.3159 185.978 73.4221 184.744 73.5495C183.957 72.7637 183.319 71.8292 182.83 70.8097C184.83 69.4292 186.51 67.6027 187.531 65.4151C187.552 65.3514 187.467 65.2877 187.425 65.3514C186.34 67.539 184.681 69.3018 182.724 70.6186C182.681 70.5124 182.617 70.4274 182.575 70.3212C182.681 69.4929 182.787 68.6646 182.894 67.8363C183.107 67.2416 183.298 66.6682 183.447 66.0735C185 65.3938 186.51 64.693 187.956 64.0133C188.276 63.8647 188.297 63.27 187.956 63.1213C186.893 62.6753 185.999 61.9957 185.234 61.1886C185.319 60.7001 185.34 60.2328 185.34 59.7444C185.489 59.6169 185.659 59.5107 185.808 59.4045C187.084 60.1054 188.51 60.4028 189.956 60.3603C190.828 62.293 190.339 65.4576 190.02 67.008H190.041ZM184.957 57.4931C184.596 57.132 183.936 57.4931 184.085 58.0028C184.149 58.2152 184.17 58.4276 184.213 58.6612C184.17 58.6824 184.128 58.7249 184.085 58.7461C184.085 58.555 184.064 58.3638 184.042 58.1515C184.106 57.6205 184.17 57.1108 184.213 56.5798C184.234 56.2612 184 56.0488 183.702 55.9851C183.617 55.5816 183.511 55.1993 183.404 54.7957C183.468 54.8382 183.511 54.9019 183.575 54.9232C184.893 55.3267 186.233 55.6453 187.595 55.9426C186.893 56.6223 186.17 57.2382 185.404 57.8116C185.255 57.7054 185.106 57.5992 184.978 57.4718L184.957 57.4931ZM184.978 62.3355C185.468 62.7815 185.978 63.185 186.574 63.5248C185.638 63.9709 184.702 64.3956 183.723 64.8204C183.723 64.7779 183.723 64.7354 183.745 64.693C184.276 63.9708 184.702 63.185 184.978 62.3355ZM190.424 59.2983C189.871 58.4488 189.105 57.8329 187.935 57.7692C187.233 57.7267 186.553 57.9178 185.914 58.2364C186.723 57.578 187.467 56.8559 188.148 56.1125C190.403 56.5798 192.679 56.8347 194.955 57.0046C193.806 58.3638 192.147 59.1497 190.424 59.3196V59.2983ZM220.247 25.8899C221.289 26.1023 222.757 26.2722 223.501 27.1217C224.65 28.481 222.757 30.6261 221.863 31.6456C220.332 33.4296 218.46 34.8951 216.652 36.3818C213.27 39.1853 209.888 42.4773 209.292 47.0649C208.994 49.3374 209.717 50.9303 210.76 52.863C211.738 54.6683 209.249 54.8595 208.037 55.0931C206.463 55.3904 204.889 55.6028 203.293 55.7515C200.571 56.0063 197.848 56.0063 195.125 55.8152C191.722 53.6064 187.552 52.8418 183.553 53.8188C183.362 53.8612 183.277 53.9887 183.213 54.1373C183.213 54.0949 183.192 54.0311 183.17 53.9887C183.021 53.5002 182.192 53.4152 182.085 53.9887C181.873 55.1143 181.915 56.2612 182.128 57.3444C181.32 58.4063 180.66 59.5744 180.107 60.785C178.363 61.4647 176.512 61.9107 174.619 62.1443C176.853 58.8523 179.363 55.7515 182.064 52.8418C182.171 53.0329 182.405 53.1604 182.639 53.0329C186.808 50.7391 190.701 47.6383 193.998 44.0914C194.104 44.1339 194.232 44.049 194.21 43.9215C194.21 43.9215 194.21 43.9003 194.21 43.8791C195.231 42.7746 196.21 41.6278 197.103 40.4384C197.21 40.2897 196.976 40.0986 196.848 40.2472C195.955 41.2242 195.019 42.18 194.083 43.1145C193.721 40.2685 195.104 37.1889 196.508 34.8526C197.997 32.3889 199.783 30.1164 201.294 27.6739C204.804 34.0243 206.761 41.1393 207.207 48.4029C207.207 48.5303 207.42 48.5516 207.42 48.4029C207.484 40.9056 205.357 33.5783 201.634 27.1217C201.719 26.9943 201.804 26.8669 201.889 26.7182C202.421 25.7837 203.081 24.5731 203.57 23.2988C209.143 23.9572 214.716 24.8067 220.226 25.9111L220.247 25.8899ZM211.972 13.5502C213.525 14.1449 215.269 14.8033 216.269 16.2475C217.694 18.3077 215.312 19.0935 213.674 19.4546C210.483 20.1554 207.292 20.8351 204.102 21.536C204.314 20.3891 204.272 19.2847 203.74 18.3289C203.719 18.2652 203.655 18.244 203.634 18.2015C204.251 17.7767 204.867 17.3732 205.484 16.9272C205.612 16.821 205.484 16.6086 205.357 16.6935C204.697 17.0758 204.038 17.5006 203.378 17.8829C201.464 15.6528 197.082 17.1395 194.827 17.7767C190.807 18.9024 186.957 20.6227 183.404 22.8103C181.766 23.8085 179.724 24.9341 178.172 23.2138C177.129 22.0457 176.831 20.2192 176.916 18.7112C176.938 18.0741 177.044 17.4369 177.193 16.821C178.491 16.9696 179.767 17.1396 181.064 17.2882C181.235 17.3095 181.277 17.0121 181.107 16.9696C179.852 16.7573 178.576 16.5449 177.321 16.3112C177.704 14.7183 178.257 13.1254 178.448 11.5113C179.022 11.1502 179.554 10.7467 180.107 10.3432C180.788 10.8741 181.766 11.1715 182.766 11.3414C182.277 11.8511 181.766 12.3821 181.32 12.9343C181.15 13.1467 181.362 13.5077 181.639 13.3378C182.575 12.7219 183.511 12.1485 184.447 11.5538C184.681 11.575 184.893 11.5963 185.064 11.6175C187.786 11.9148 190.53 12.1909 193.253 12.4883C193.083 12.5732 192.891 12.6582 192.721 12.7644C192.445 12.8918 192.636 13.3591 192.934 13.2529C192.955 13.2529 192.977 13.2529 192.998 13.2316C193.466 13.0405 193.913 12.8281 194.359 12.6157C195.636 12.7431 196.933 12.8918 198.209 13.0192C198.38 13.0192 198.422 12.7431 198.252 12.7219C197.231 12.552 196.21 12.4033 195.189 12.2334C195.933 11.8724 196.678 11.4901 197.422 11.129C198.38 10.6405 199.358 10.152 200.337 9.66353C204.293 10.7679 208.207 12.0423 212.036 13.529L211.972 13.5502ZM176.278 16.1413C174.726 15.8865 173.194 15.6104 171.641 15.3555C171.428 15.313 171.216 15.2918 170.982 15.2493C173.173 14.3785 175.279 13.3803 177.278 12.1697C177.065 13.5077 176.619 14.8245 176.278 16.1413ZM184 10.4918C184.149 10.3219 184.298 10.1308 184.425 9.96087C185.127 9.96087 185.851 9.96087 186.553 9.9184C186.106 10.1733 185.659 10.4281 185.234 10.6617C184.83 10.598 184.404 10.5343 184 10.4706V10.4918ZM184.276 6.9025C184.638 6.81755 185 6.75383 185.319 6.69011C186.957 6.32906 188.616 6.05295 190.296 5.88304C191.339 5.77685 192.36 5.73437 193.402 5.6919C192.317 5.84057 191.254 5.98924 190.169 6.13791C189.594 6.22286 189.616 7.1786 190.169 7.26356C193.359 7.87948 196.529 8.64407 199.677 9.51486C199.507 9.59981 199.337 9.66353 199.167 9.72725C199.252 9.68477 199.337 9.64229 199.422 9.59981C199.507 9.55734 199.422 9.40867 199.337 9.45114C198.294 9.98211 197.252 10.5343 196.21 11.0653C195.487 11.3839 194.763 11.7237 194.04 12.0635C192.126 11.7662 190.19 11.4476 188.276 11.1502C187.403 11.0228 186.553 10.8741 185.68 10.7467C186.127 10.4706 186.553 10.1945 186.999 9.9184C189.977 9.83344 192.955 9.68477 195.933 9.47238C196.401 9.4299 196.423 8.70779 195.933 8.72903C192.381 8.89894 188.829 8.98389 185.276 8.98389C185.425 8.81398 185.574 8.62284 185.723 8.45293C185.787 8.36797 185.68 8.26178 185.595 8.32549C185.383 8.53788 185.191 8.75027 184.978 8.96265C183.957 8.96265 182.958 8.92018 181.937 8.89894C182.724 8.26178 183.511 7.60338 184.255 6.9025H184.276ZM181.107 7.90072C181.766 7.51842 182.575 7.2848 183.383 7.09365C182.639 7.70957 181.873 8.30425 181.107 8.8777C180.937 8.8777 180.767 8.8777 180.596 8.8777C180.511 8.53788 180.639 8.19806 181.128 7.92196L181.107 7.90072ZM180.107 7.13613C179.703 7.43347 179.384 7.81576 179.278 8.34673C179.235 8.53788 179.278 8.66531 179.278 8.83522C178.916 8.83522 178.554 8.83522 178.193 8.83522C178.129 8.55912 178.065 8.28302 177.938 8.00691C177.895 7.87948 177.81 7.79453 177.767 7.66709C178.554 7.47595 179.32 7.2848 180.107 7.13613ZM177.065 8.79274C176.236 8.75027 175.406 8.70779 174.577 8.66531C174.789 8.53788 175.023 8.41045 175.257 8.28302C175.725 8.15558 176.193 8.07063 176.64 7.9432C176.81 8.19806 176.938 8.4954 177.065 8.79274ZM174.172 6.41401C174.449 6.41401 174.725 6.39277 175.023 6.37153C175.257 6.49897 175.47 6.6264 175.683 6.79631C175.449 6.96622 175.215 7.13613 174.981 7.30604C174.619 7.39099 174.258 7.49718 173.896 7.58214C174.002 7.19984 174.109 6.79631 174.172 6.39277V6.41401ZM171.79 1.78398C172.13 1.48664 172.662 0.891953 173.109 0.78576C173.577 0.679566 173.513 0.913192 173.619 1.40168C173.875 2.52733 173.917 3.67422 173.811 4.79987C173.151 4.6512 172.492 4.56625 171.811 4.60872C171.535 4.60872 171.237 4.6512 170.96 4.69368C170.918 4.03528 170.875 3.39812 170.812 2.73972C171.131 2.42114 171.45 2.06008 171.79 1.76274V1.78398ZM173.556 6.43525C173.556 6.43525 173.534 6.60516 173.513 6.69011C173.428 7.05117 173.3 7.41223 173.173 7.77329C172.854 7.85824 172.513 7.9432 172.173 8.02815C171.833 8.13435 171.471 8.24054 171.067 8.34673C171.067 7.73081 171.067 7.13613 171.024 6.54144C171.854 6.47773 172.705 6.47773 173.556 6.43525ZM170.769 13.1679C171.747 12.1697 172.535 11.0228 173.13 9.76972C174.534 9.83344 175.938 9.89716 177.342 9.9184C177.384 10.4069 177.406 10.8954 177.363 11.3626C175.193 12.6582 172.896 13.7626 170.514 14.6759C170.62 14.1661 170.705 13.6776 170.769 13.1679ZM167.855 6.83879C168.621 6.77507 169.365 6.66888 170.131 6.60516C170.131 7.19984 170.173 7.77329 170.173 8.36797C169.216 8.30425 168.238 8.26178 167.28 8.17682C167.472 7.73081 167.663 7.2848 167.876 6.81755L167.855 6.83879ZM166.642 11.2989C167.663 10.5768 168.918 10.1945 170.131 9.8122C170.11 10.3856 170.088 10.9591 170.046 11.5325C169.557 12.0423 169.046 12.552 168.578 13.0617C168.408 13.2741 168.216 13.4653 168.046 13.6776C167.791 13.975 167.514 14.2723 167.259 14.5909C166.578 14.4422 165.664 14.1661 165.43 13.4015C165.153 12.5308 166.025 11.7237 166.664 11.2777L166.642 11.2989ZM166.685 16.7573C167.557 16.5236 168.429 16.2475 169.28 15.9502C168.578 18.5201 167.344 20.92 165.409 22.9165C164.685 20.1979 164.579 17.3732 164.983 14.5909C165.472 14.9944 166.132 15.2493 166.834 15.4405C166.642 15.6953 166.451 15.9502 166.281 16.2263C166.11 16.5024 166.387 16.8422 166.685 16.7573ZM162.856 9.00513C163.834 9.11132 164.813 9.19628 165.791 9.28123C165.43 10.1308 165.047 10.9803 164.685 11.8299C164.621 11.9361 164.536 12.0423 164.473 12.1697C164.43 12.2759 164.43 12.3608 164.409 12.467C164.324 12.6582 164.239 12.8493 164.153 13.0617C163.09 12.0635 161.984 11.129 160.878 10.152C161.537 9.76972 162.197 9.38743 162.856 9.00513ZM152.624 4.58748C153.922 5.5857 155.156 6.64764 156.411 7.68833C156.411 7.96444 156.538 8.24054 156.857 8.28302C156.964 8.28302 157.091 8.30425 157.198 8.32549C157.836 8.85646 158.474 9.34495 159.112 9.87592C156.921 11.1502 154.73 12.4246 152.56 13.7201C151.922 10.683 150.582 7.15737 152.624 4.58748ZM144.966 8.45293C147.455 10.3007 149.093 13.6564 147.689 16.6298C147.477 17.0758 147.923 17.6068 148.391 17.3307C149.561 16.6723 150.71 15.9927 151.88 15.3343C152.071 16.7785 152.007 18.2015 151.412 19.5183C150.752 20.9625 149.625 21.5147 148.349 21.5572C147.944 20.4103 147.157 19.2634 146.583 18.4563C144.413 15.3767 141.286 13.083 137.713 11.9361C139.563 10.3644 141.499 8.92018 143.541 7.62462C144.031 7.837 144.52 8.11311 144.988 8.45293H144.966ZM134.224 21.451C136.777 20.2404 137.543 17.6918 135.798 15.3767C135.543 15.0369 135.267 14.7183 135.011 14.3998C135.182 14.2511 135.33 14.1024 135.479 13.9537C135.82 14.2511 136.16 14.5697 136.479 14.867C136.883 15.5042 137.309 16.0989 137.777 16.6723C138.223 17.3732 138.755 17.9891 139.457 18.4563C140.01 18.9448 140.563 19.4333 141.18 19.8581C142.861 21.0262 145.328 22.3855 147.647 22.5129C147.859 23.9784 146.838 24.7218 145.349 24.9766C142.839 25.4226 140.074 25.1678 137.606 24.658C135.607 24.2545 132.842 23.6386 131.182 22.2368C132.225 22.1306 133.246 21.897 134.224 21.4298V21.451ZM130.417 21.3236C129.523 19.2847 132.863 16.5236 134.139 15.2281C134.182 15.1856 134.246 15.1431 134.288 15.0794C135.245 16.1201 136.203 17.3732 135.671 18.7749C135.203 20.0068 133.799 20.6439 132.629 20.9838C131.906 21.1961 131.161 21.3023 130.395 21.3236H130.417ZM141.435 18.3714C140.308 17.2033 139.138 16.0564 137.968 14.9307C137.734 14.2936 137.606 13.6139 137.606 12.9343C140.904 13.9962 143.86 16.0564 145.881 18.9024C146.434 19.7094 146.966 20.6015 147.349 21.536C145.562 21.3023 143.648 20.3254 142.35 19.497C142.074 19.3059 141.818 19.0935 141.542 18.9024C141.606 18.7325 141.606 18.5413 141.457 18.3926L141.435 18.3714ZM135.309 8.11311C137.734 6.92374 140.521 6.54144 143.009 7.43347C141.286 8.41045 139.67 9.5361 138.096 10.7042C138.372 10.1095 138.713 9.5361 139.223 9.06885C139.67 8.66531 139.01 8.00691 138.564 8.41045C137.564 9.30247 137.011 10.4494 136.798 11.6812C136.373 11.575 135.969 11.4688 135.543 11.3839C135.224 11.3201 134.82 11.5963 134.969 11.9573C135.011 12.0635 135.075 12.1697 135.118 12.2759C134.246 11.4901 133.352 10.7255 132.437 9.96087C133.31 9.23876 134.267 8.6016 135.352 8.09187L135.309 8.11311ZM131.672 10.598C132.735 11.5113 133.799 12.4246 134.841 13.3591C134.692 13.4865 134.565 13.6139 134.416 13.7201C133.48 12.7007 132.48 11.7024 131.544 10.7042C131.587 10.6617 131.629 10.6405 131.672 10.598ZM130.863 11.4051C131.736 12.3608 132.608 13.2953 133.501 14.2511C133.565 14.3148 133.607 14.3785 133.671 14.4422C132.203 15.844 130.268 17.4794 129.481 19.3696C129.183 20.0917 129.183 20.7501 129.374 21.366C128.523 21.3448 127.651 21.2386 126.8 21.0899C127.098 19.9855 127.183 18.7962 126.971 17.6918C126.928 17.4369 126.822 17.2457 126.758 17.0121C127.949 14.9944 129.268 13.083 130.863 11.4476V11.4051ZM125.886 20.8776C125.779 20.8563 125.652 20.8351 125.545 20.8138C125.503 20.8138 125.46 20.7714 125.439 20.7501C125.248 20.6439 125.035 20.559 124.822 20.4528C125.248 19.667 125.652 18.8811 126.077 18.1165C126.205 19.0298 126.12 19.9855 125.886 20.8776ZM125.46 22.0457C124.865 23.2775 123.886 24.2545 122.567 24.6156C123.142 23.6173 123.674 22.5767 124.227 21.536C124.397 21.5784 124.567 21.6209 124.737 21.6634C124.971 21.7908 125.226 21.9183 125.46 22.0244V22.0457ZM105.231 28.1624C106.529 23.6598 108.273 18.8174 111.91 15.6528C115.335 12.6582 122.121 11.3414 125.163 15.6528C125.397 15.9927 125.588 16.3537 125.737 16.736C125.099 17.8192 124.524 18.9448 123.929 20.0492C120.61 18.4776 117.164 17.1608 113.655 16.1201C113.059 15.9502 112.719 16.7997 113.229 17.1183C116.356 19.0086 119.738 20.4103 123.269 21.3236C122.589 22.5979 121.929 23.8722 121.249 25.0403C121.078 25.3377 121.291 25.8049 121.674 25.7837C123.865 25.6563 125.418 24.2757 126.311 22.4917C126.843 22.7678 127.375 23.0227 127.885 23.2988C129.119 23.9784 131.48 24.9341 131.842 26.4421C132.629 29.7129 125.014 27.9076 123.631 27.7377C119.908 27.2492 116.207 26.7394 112.485 26.2722C111.91 26.2085 111.783 27.1854 112.357 27.2916C114.293 27.6527 116.569 28.035 118.015 29.5429C118.739 30.3075 119.228 31.4119 119.143 32.4739C119.058 33.9394 117.909 34.6402 116.611 34.98C114.42 35.5747 112.059 35.8084 109.826 36.1694C107.762 36.5092 105.699 36.849 103.636 37.1676C103.806 34.1305 104.423 31.0934 105.252 28.2049L105.231 28.1624ZM103.572 38.5694C107.975 40.1835 112.4 41.7977 116.824 43.3906C115.293 44.0702 113.74 44.7498 112.187 45.387C110.017 43.2631 107.103 43.9215 104.614 45.472C104.274 44.4737 104.019 43.433 103.848 42.3923C103.657 41.118 103.572 39.8437 103.572 38.5694ZM111.91 46.725C112.166 47.0649 112.378 47.4259 112.548 47.8507C112.931 48.8064 113.102 50.1869 112.591 51.1639C111.208 51.3551 109.804 51.44 108.422 51.44C107.528 50.7391 106.741 49.7834 106.273 49.0401C106.273 49.0401 106.273 49.0188 106.273 48.9976C108.188 48.2755 110.06 47.5321 111.953 46.7463L111.91 46.725ZM105.656 47.9569C105.401 47.4472 105.167 46.9374 104.955 46.4065C106.061 45.7056 107.273 45.2596 108.592 45.2171C109.528 45.1746 110.336 45.4295 111.017 45.8755C109.251 46.5976 107.465 47.2985 105.656 47.9569ZM104.019 47.0861C104.189 47.5109 104.423 47.9356 104.635 48.3604C103.699 48.7002 102.742 49.0188 101.806 49.3586C102.487 48.5303 103.21 47.7445 104.019 47.1073V47.0861ZM105.167 49.4011C105.571 50.0808 106.061 50.7604 106.614 51.3763C104.933 51.2701 103.253 51.0365 101.594 50.6754C102.785 50.2719 103.976 49.8471 105.146 49.4011H105.167ZM97.318 69.8752C95.2546 65.139 96.0842 59.7868 98.2114 55.2205C98.7432 54.0736 99.4239 52.7993 100.211 51.5462C102.806 52.2259 105.422 52.5869 108.081 52.5869C108.315 52.7356 108.571 52.8843 108.847 52.9905C108.273 53.1179 107.699 53.2453 107.124 53.394C106.507 53.5427 106.635 54.5196 107.273 54.4984C109.485 54.4347 111.634 53.925 113.633 53.0542C115.697 52.5869 117.76 52.1197 119.823 51.6312C115.186 53.9037 110.804 56.6223 106.741 59.8293C106.358 60.1267 106.614 60.7426 107.018 60.8488C111.783 62.3142 116.548 63.7797 121.291 65.2452C117.675 67.1991 114.038 69.1531 110.421 71.1071C108.422 72.1902 106.422 73.2522 104.423 74.3353C103.699 74.7176 102.849 75.0999 102.04 75.5035C99.977 74.1654 98.3178 72.1265 97.318 69.854V69.8752ZM115.59 71.3194C114.676 74.0805 112.293 75.9707 109.528 76.7141C110.868 73.8256 112.889 71.0221 115.59 71.3194ZM108.081 76.9689C107.741 77.0114 107.422 77.0539 107.082 77.0539C105.848 77.0539 104.678 76.799 103.593 76.353C105.55 75.2911 107.507 74.2291 109.443 73.146C109.89 72.9123 110.336 72.6575 110.783 72.4239C109.656 73.7406 108.762 75.4185 108.06 76.9689H108.081ZM106.635 80.7919C105.593 80.7919 104.572 80.7494 103.551 80.5583C102.636 80.3884 101.275 80.1547 100.636 79.4326C99.6366 78.2857 101.423 77.4999 102.338 77.0327C103.295 77.5211 104.316 77.9034 105.422 78.0733C106.124 78.1795 106.848 78.2008 107.571 78.1583C107.422 78.5194 107.294 78.8592 107.167 79.1778C106.954 79.7087 106.784 80.2609 106.635 80.7919ZM107.677 82.1299C109.549 82.0025 111.421 81.7264 113.25 81.4503C116.59 80.9406 120.164 80.4946 123.269 81.96C118.483 84.0202 113.889 86.5051 109.528 89.3511C107.762 87.4396 107.145 84.891 107.677 82.1299ZM126.396 102.413C126.311 102.264 126.205 102.116 126.013 102.073C123.865 101.521 121.908 100.565 120.142 99.2483C123.44 97.7616 126.588 95.9776 129.545 93.8962C130.013 93.5563 129.927 92.6006 129.204 92.6643C120.568 93.6201 111.932 94.5758 103.295 95.5528C105.274 93.9599 107.294 92.4307 109.4 91.0077C109.932 91.4537 110.485 91.8573 111.081 92.1971C115.782 94.8307 121.164 93.9386 125.886 91.8785C128.545 90.7104 131.502 89.3936 133.714 87.5033C133.99 87.2697 134.267 87.0148 134.522 86.7387C138.628 86.6325 142.627 84.9334 145.456 81.8114C146.158 81.7264 146.838 81.5565 147.498 81.2804C149.348 82.045 151.263 82.6397 153.22 83.0644C153.156 83.1282 153.092 83.1706 153.028 83.2343C147.498 85.1458 142.329 87.9706 137.713 91.6236C137.33 91.921 137.585 92.5369 137.989 92.6643C139.01 92.9617 140.053 93.1528 141.074 93.259C138.394 94.5333 135.841 96.0625 133.48 97.8466C133.033 98.1864 133.139 98.9722 133.778 98.9722C134.756 98.9722 135.735 98.9085 136.713 98.8235C133.352 100.268 129.885 101.436 126.375 102.434L126.396 102.413ZM129.927 85.0184C130.119 83.3618 131.161 81.5777 132.757 80.9618C133.586 80.6432 134.458 80.7919 135.054 81.4928C135.798 82.3848 135.479 83.5317 134.969 84.4449C134.714 84.891 134.394 85.3157 134.054 85.6768C132.65 85.6556 131.268 85.4432 129.927 84.9972V85.0184ZM149.178 90.3281C147.498 90.7528 145.881 91.305 144.265 91.921C142.712 92.1334 141.138 92.0909 139.563 91.7723C143.733 88.5865 148.37 86.0803 153.305 84.36C154.283 84.9972 155.304 85.4856 156.368 85.8255C154.262 87.8219 152.029 89.6909 149.689 91.39C150.221 91.0289 149.816 90.1369 149.178 90.3068V90.3281ZM140.606 96.997C139.053 97.3368 137.458 97.5492 135.862 97.6767C138.564 95.8501 141.435 94.3209 144.477 93.1528C146.243 92.8979 147.944 92.367 149.561 91.4962C146.732 93.5564 143.733 95.4041 140.585 96.997H140.606ZM156.538 88.1617C155.07 90.4555 152.348 92.1121 150.008 93.4289C148.753 94.1298 147.477 94.767 146.136 95.2979C150.093 92.813 153.794 89.9245 157.155 86.6963C157.049 87.206 156.815 87.7157 156.517 88.1617H156.538ZM155.687 82.406C153.326 82.1087 150.986 81.4715 148.753 80.6008C149.242 80.2609 149.689 79.8786 150.072 79.3901C150.135 79.3052 150.029 79.199 149.944 79.2627C149.497 79.7512 148.987 80.1335 148.434 80.4521C146.838 79.8149 145.286 79.0716 143.86 78.307C144.328 77.1388 145.264 76.2681 146.498 75.9707C146.647 75.9282 146.604 75.6946 146.455 75.7159C144.732 75.7796 143.392 76.799 142.775 78.4132C142.69 78.6255 142.839 78.8379 142.988 78.9441C144.243 79.7937 145.605 80.4733 147.009 81.0892C146.541 81.2379 146.073 81.3229 145.583 81.3653C145.583 81.3653 145.583 81.3229 145.583 81.3016C144.796 79.8999 142.882 79.6025 141.733 80.7494C141.606 80.8769 141.606 81.1742 141.797 81.2591C142.584 81.6202 143.435 81.8114 144.265 81.8751C141.84 84.0839 138.713 85.4007 135.479 85.6768C136.203 84.6786 136.713 83.5317 136.543 82.3423C136.266 80.2822 134.097 79.2202 132.246 79.9848C130.14 80.8556 128.8 83.2343 128.757 85.4432C128.757 85.698 128.928 85.8892 129.162 85.9741C130.395 86.3989 131.65 86.6325 132.927 86.7387C132.14 87.3759 131.246 87.9069 130.353 88.3741C128.332 89.4573 126.269 90.5405 124.12 91.3263C120.206 92.7705 115.867 93.3227 112.038 91.3051C111.485 91.0077 110.996 90.6679 110.528 90.3068C115.08 87.3334 119.908 84.7848 124.95 82.7034C125.503 82.4697 125.631 81.8113 125.12 81.4503C119.93 77.9034 113.825 80.3034 107.975 80.7494C108.209 79.9848 108.507 79.0503 108.911 78.0309C112.612 77.3512 115.994 74.8238 116.888 71.0433C116.973 70.7248 116.782 70.4062 116.484 70.3212C115.994 70.1726 115.527 70.1088 115.08 70.1088C117.803 68.6221 120.504 67.1567 123.227 65.6699C123.737 65.3938 123.588 64.6505 123.078 64.5018L108.486 60.0629C113.761 56.0276 119.547 52.7143 125.737 50.2931C126.439 50.017 126.184 48.9763 125.418 49.1462C122.546 49.8046 119.674 50.4843 116.782 51.1427C116.888 50.7816 116.611 50.3356 116.143 50.463C115.335 50.6754 114.548 50.8241 113.74 50.9728C114.144 49.4861 113.782 47.6171 112.931 46.3003C114.803 45.4932 116.675 44.6861 118.547 43.8153C119.015 43.603 118.824 42.9446 118.419 42.7959C113.867 41.1817 109.336 39.5676 104.806 37.9322C107.401 37.5075 109.996 37.0827 112.591 36.6367C114.739 36.2544 118.037 36.2544 119.441 34.2579C120.525 32.7075 120.057 30.5199 118.93 29.1394C118.547 28.6722 118.122 28.2899 117.632 27.9713C120.398 28.3323 123.163 28.7146 125.928 29.0757C127.97 29.3518 132.523 30.2651 132.969 27.143C133.161 25.7837 132.14 24.7218 131.14 23.9996C130.268 23.3625 129.332 22.8103 128.375 22.3006C128.906 22.343 129.417 22.3643 129.927 22.3643C130.247 22.7466 130.629 23.0864 131.097 23.3837C134.969 25.8049 140.521 26.5058 144.966 25.9536C146.349 25.7837 148.051 25.2952 148.519 23.8085C148.646 23.405 148.646 22.9802 148.583 22.5554C149.242 22.4917 149.901 22.343 150.497 21.982C152.88 20.559 153.092 17.3519 152.773 14.8882C155.198 13.5077 157.602 12.106 160.027 10.7042C161.367 11.8511 162.707 12.998 164.026 14.1874C164.111 14.2511 164.217 14.2723 164.324 14.2936C163.707 17.4369 163.792 20.7289 164.728 23.9572C164.834 24.297 165.217 24.3819 165.472 24.1483C167.982 21.9183 169.408 19.0723 170.216 15.9927C172.194 16.2475 174.194 16.4811 176.172 16.7148C175.917 17.7555 175.768 18.8174 175.853 19.8793C176.044 22.0457 177.023 24.658 179.405 25.1465C180.916 25.4651 182.298 24.7218 183.553 23.9784C185.319 22.9165 187.084 21.9183 188.956 21.0687C190.871 20.1979 192.849 19.497 194.87 18.9024C196.699 18.3714 198.784 17.6705 200.719 17.7979C201.528 17.8404 202.102 18.0953 202.485 18.4563C199.805 20.0705 197.146 21.7483 194.551 23.4474C194.04 23.7873 193.508 24.1058 193.019 24.4669C193.423 23.5749 193.849 22.7041 194.232 21.8121C194.295 21.6634 194.104 21.536 194.019 21.6846C193.402 22.8103 192.806 23.9359 192.232 25.0828C191.934 25.3802 191.658 25.7625 191.658 26.2085C190.956 27.589 190.275 28.9907 189.573 30.3713C188.297 32.9199 187.021 35.4473 185.829 38.0384C185.659 37.9959 185.489 37.9747 185.319 37.9322C183.298 37.3163 181.979 35.5323 182.745 33.4296C183.489 31.3907 184.893 29.4368 186.106 27.6527C187.403 25.72 188.85 23.8935 190.381 22.1519C190.53 21.982 190.275 21.7271 190.126 21.897C188.318 23.851 186.659 25.9111 185.149 28.0987C184.362 29.2244 183.638 30.3713 182.936 31.5606C182.341 32.5801 181.703 33.6632 181.745 34.8951C181.809 36.7641 183.511 38.2083 185.234 38.5906C185.34 38.6119 185.425 38.6119 185.531 38.6331C185.446 38.803 185.361 38.9729 185.298 39.1428C185.234 39.2703 185.255 39.3552 185.34 39.4614C186.233 40.5871 187.765 40.9481 189.063 40.3534C189.19 40.2897 189.105 40.0561 188.956 40.1198C188.148 40.4384 187.255 40.3959 186.51 39.9287C185.936 39.5676 185.914 39.3765 186.106 38.7818C186.106 38.7818 186.106 38.7393 186.127 38.7181C188.276 38.8455 190.339 37.7411 192.168 36.7429C192.296 36.6791 192.168 36.5092 192.062 36.5517C190.339 37.3375 188.361 38.2508 186.404 38.1021C186.531 37.8897 186.659 37.6561 186.765 37.4437C187.616 35.7446 188.467 34.0243 189.297 32.3252C190.169 30.5199 191.062 28.7146 191.913 26.8881C192.402 27.3766 193.359 27.4403 193.53 26.6545C193.636 26.1872 192.913 25.9961 192.806 26.4633C192.764 26.6545 192.402 26.3784 192.381 26.2722C192.296 25.9961 192.7 25.6563 192.891 25.4864C193.423 25.0616 194.061 24.7218 194.614 24.3395C195.848 23.5324 197.082 22.7041 198.294 21.8758C199.805 20.8563 201.294 19.8156 202.783 18.7962C203.251 19.5395 203.23 20.6439 202.953 21.7908C202.613 21.8545 202.272 21.9395 201.932 22.0032C201.294 22.1519 201.507 23.0014 202.081 23.0651C202.23 23.0651 202.379 23.1076 202.549 23.1289C202.145 24.2545 201.592 25.3377 201.145 26.1448C200.719 25.4439 200.273 24.7218 199.805 24.0421C199.613 23.766 199.167 24.0421 199.358 24.297C199.89 25.0828 200.358 25.8687 200.826 26.6757C200.805 26.7182 200.762 26.7819 200.741 26.8244C198.954 29.7978 196.72 32.4739 195.082 35.5535C194.402 36.8278 193.806 38.2083 193.551 39.6313C193.317 40.9481 193.551 42.1587 193.827 43.3906C192.636 44.5587 191.402 45.7056 190.105 46.7675C189.828 47.0011 189.531 47.1923 189.254 47.4047C187.531 48.233 185.893 49.2312 184.383 50.4206C185.68 49.1462 187.021 47.8932 188.403 46.7038C188.637 46.5126 188.297 46.1941 188.084 46.3852C182.426 51.0365 177.448 56.4524 173.279 62.4841C173.088 62.7602 173.343 63.2063 173.683 63.185C175.725 63.0576 177.725 62.5903 179.639 61.8682C179.022 63.5036 178.639 65.2239 178.512 66.9655C177.81 67.2204 177.087 67.454 176.385 67.6664C176.853 66.6257 177.321 65.585 177.767 64.5231C177.81 64.4381 177.682 64.3531 177.64 64.4381C177.129 65.5425 176.619 66.6469 176.108 67.7513C175.066 68.0699 174.045 68.3673 172.981 68.6009C172.896 68.4947 172.811 68.3885 172.726 68.2823C172.577 68.0912 172.343 68.0912 172.152 68.1761C172.067 67.985 171.96 67.8151 171.896 67.6239C171.641 67.0717 170.684 67.454 170.897 68.0487C171.003 68.346 171.131 68.6434 171.258 68.962C171.024 69.0044 170.79 69.0469 170.556 69.0894C166.11 67.4115 161.984 64.9266 158.474 61.6771C158.41 61.6134 158.304 61.7196 158.368 61.7833C161.516 64.9903 165.26 67.4965 169.301 69.238C168.706 69.3018 168.089 69.3442 167.493 69.3867C167.025 69.0469 166.493 68.792 165.877 68.6221C165.494 68.5159 165.323 69.1106 165.706 69.2168C165.898 69.2593 166.047 69.3442 166.217 69.4292C163.218 69.4292 160.218 68.8982 157.325 67.5602C157.581 66.5195 157.836 65.4576 158.091 64.3956C158.176 64.0346 157.666 63.9071 157.538 64.247C157.155 65.3938 156.751 66.5407 156.368 67.6876C156.304 67.8575 156.411 68.0912 156.56 68.1761C160.112 70.0664 163.877 70.6398 167.685 70.4274C168.684 71.4469 169.216 72.9123 169.28 74.399C168.131 74.8238 166.983 75.2911 165.919 75.8433C165.089 76.2893 164.302 76.9265 164.068 77.8397C157.815 75.9282 151.752 72.2327 145.009 73.6132C144.52 73.7194 144.541 74.4628 145.009 74.569C151.454 76.2043 157.878 77.8185 164.302 79.4963C164.451 79.7724 164.643 80.0273 164.855 80.2822C163.834 80.8981 162.75 81.3866 161.665 81.8326C161.75 81.4503 161.431 81.068 160.963 81.153C159.176 81.4715 157.41 81.8963 155.666 82.406H155.687ZM159.772 77.3512C155.836 76.353 151.922 75.3336 147.987 74.3353C152.029 74.3353 155.9 75.907 159.772 77.3512ZM158.793 85.1033C159.261 84.6361 159.686 84.1476 160.133 83.6591C162.664 83.2343 165.217 82.852 167.77 82.5122C167.94 82.6184 168.11 82.7459 168.301 82.8733C168.174 82.9795 168.089 83.1282 167.982 83.2556C165.281 84.891 161.941 85.5494 158.793 85.1033ZM167.493 85.783C167.897 84.9122 168.45 84.1689 169.131 83.5317C169.174 83.5105 169.195 83.468 169.216 83.4467C169.897 83.8503 170.599 84.2326 171.322 84.5724C173.534 85.6131 175.853 86.3352 178.214 86.7812C174.598 87.1423 170.982 86.7812 167.472 85.7617L167.493 85.783ZM179.427 82.6821C178.852 81.6627 178.32 80.622 177.767 79.5813C177.916 79.5601 178.086 79.5388 178.235 79.5176C178.682 80.1972 179.15 80.8556 179.597 81.5352C179.533 81.9175 179.469 82.2998 179.405 82.6821H179.427ZM180.362 88.1405C180.277 87.9706 180.214 87.8007 180.128 87.6308C180.235 87.6308 180.341 87.5883 180.426 87.567C181.724 89.6272 183.085 91.6449 184.532 93.6201C186.106 96.105 187.722 98.5474 189.403 100.969C190.169 102.88 190.892 104.813 191.658 106.724C192.168 108.02 192.721 109.294 193.253 110.59V111.291C188.361 103.942 184.042 96.2112 180.341 88.183L180.362 88.1405ZM94.5314 233.838C98.2752 231.863 102.019 229.909 105.784 227.976C104.657 228.783 103.551 229.59 102.423 230.397C100.424 231.268 98.4241 232.139 96.4459 233.01C95.8077 233.286 95.1695 233.562 94.5314 233.838ZM101.998 231.82C103.848 231.013 105.699 230.206 107.55 229.399C103.614 231.544 99.7642 233.838 95.9779 236.238C97.9774 234.751 99.9769 233.286 101.998 231.841V231.82ZM88.2137 244.967C82.7044 248.386 77.2376 251.848 71.8346 255.459C74.0043 253.547 76.1952 251.678 78.4288 249.852C78.9818 249.406 79.5562 248.96 80.1092 248.514C89.6389 240.932 99.828 234.156 110.506 228.295C111.251 227.891 111.995 227.53 112.74 227.126C115.399 225.958 118.079 224.79 120.738 223.622C109.762 230.525 98.9346 237.661 88.2137 244.967ZM52.2434 279.82C36.8214 288.676 19.6978 294.411 2.04229 296.577C4.12691 293.965 6.97731 292.117 10.0404 290.758C14.0395 288.973 18.2938 287.763 22.4418 286.425C28.802 284.386 35.2048 282.517 41.6075 280.733C45.1386 280.436 48.691 280.117 52.2221 279.82H52.2434ZM135.82 217.038C137.202 216.443 138.585 215.827 139.968 215.233C129.523 220.946 119.121 226.723 108.805 232.67C115.186 228.528 121.631 224.429 128.098 220.415C130.672 219.289 133.246 218.164 135.82 217.038ZM141.393 210.22C143.435 209.243 145.498 208.288 147.562 207.311C140.776 211.325 134.033 215.403 127.332 219.544C120.313 222.603 113.314 225.661 106.295 228.698C108.081 227.424 109.868 226.171 111.676 224.918C121.525 219.905 131.438 214.999 141.414 210.199L141.393 210.22ZM212.972 137.86C212.568 138.2 212.164 138.54 211.738 138.858C211.568 138.71 211.377 138.54 211.206 138.391C210.951 137.69 210.675 136.989 210.419 136.289C211.27 136.82 212.121 137.329 212.972 137.86ZM209.675 134.335C209.462 133.761 209.249 133.209 209.037 132.636C210.036 133.697 211.015 134.781 212.036 135.821C211.249 135.333 210.462 134.844 209.675 134.335ZM207.697 143.106C208.718 145.676 209.739 148.267 210.76 150.837C209.164 148.713 207.569 146.611 205.995 144.487C206.569 144.019 207.143 143.552 207.697 143.085V143.106ZM207.314 134.292C207.845 134.632 208.356 134.972 208.888 135.312C209.079 135.821 209.271 136.331 209.462 136.841C208.76 136.204 208.058 135.545 207.356 134.887C207.356 134.696 207.314 134.483 207.314 134.292ZM207.59 139.729C207.59 139.729 207.59 139.538 207.59 139.453C208.228 139.878 208.845 140.303 209.483 140.727C209.1 141.046 208.739 141.343 208.356 141.662C208.101 141.025 207.845 140.366 207.59 139.729ZM211.632 134.037C210.462 132.827 209.292 131.616 208.186 130.363C207.569 128.728 206.952 127.092 206.335 125.478C206.973 124.968 207.611 124.459 208.25 123.928C209.483 127.262 210.611 130.639 211.653 134.037H211.632ZM202.57 110.462C204.655 114.859 206.505 119.319 208.207 123.864C207.569 124.374 206.931 124.883 206.293 125.414C206.25 125.287 206.186 125.16 206.144 125.032C205.229 119.807 203.889 114.668 202.187 109.655C202.315 109.931 202.442 110.186 202.57 110.441V110.462ZM196.635 165.194C196.635 165.194 196.742 165.131 196.784 165.067C197.848 163.644 198.72 162.094 199.464 160.479C199.592 160.564 199.72 160.649 199.847 160.734C198.826 163.602 197.741 166.448 196.508 169.251C196.614 168.678 196.657 168.083 196.657 167.531C196.657 166.745 196.635 165.959 196.614 165.173L196.635 165.194ZM196.869 162.986C196.869 162.625 196.869 162.263 196.869 161.924C197.337 161.095 197.784 160.225 198.252 159.375C198.38 159.502 198.507 159.63 198.656 159.736C198.146 160.862 197.55 161.924 196.869 162.986ZM197.997 157.506C197.72 157.209 197.444 156.89 197.167 156.572C197.337 154.703 197.614 152.855 197.954 151.007C197.997 150.943 198.018 150.88 198.061 150.837C198.528 150.476 198.996 150.094 199.464 149.711C199.89 150.391 200.358 151.049 200.826 151.687C199.932 153.641 198.996 155.595 197.975 157.506H197.997ZM201.124 145.4C201.187 146.143 201.209 146.887 201.209 147.651C200.847 147.97 200.485 148.288 200.103 148.607C199.975 148.395 199.847 148.203 199.72 147.991C200.209 147.142 200.656 146.271 201.102 145.421L201.124 145.4ZM201.039 139.581C201.74 137.69 202.528 135.843 203.4 134.016C203.57 134.993 203.804 135.949 204.102 136.883C203.463 138.37 202.74 139.835 202.038 141.301C201.804 141.025 201.549 140.727 201.315 140.451C201.294 140.409 201.273 140.345 201.23 140.303C201.166 140.069 201.124 139.814 201.039 139.581ZM199.124 146.95C199.06 146.823 198.975 146.696 198.911 146.568C199.337 144.827 199.847 143.106 200.422 141.407C200.613 142.193 200.762 142.958 200.89 143.743C200.337 144.827 199.72 145.867 199.145 146.929L199.124 146.95ZM198.167 145.124C197.103 143.042 196.21 140.876 195.529 138.646C195.487 138.519 195.444 138.37 195.402 138.2C195.359 137.117 195.295 136.012 195.253 134.929C195.274 134.844 195.316 134.781 195.359 134.696C196.742 136.565 198.209 138.391 199.698 140.197C199.124 141.832 198.635 143.467 198.188 145.145L198.167 145.124ZM201.868 153.11C201.974 153.258 202.102 153.386 202.208 153.513C201.634 155.552 200.996 157.591 200.294 159.587C200.209 159.524 200.103 159.46 200.017 159.396C200.868 157.379 201.485 155.276 201.847 153.11H201.868ZM202.145 151.559C202.676 150.37 203.166 149.18 203.655 147.991C203.336 149.372 202.953 150.752 202.57 152.133C202.421 151.941 202.272 151.772 202.123 151.58L202.145 151.559ZM203.059 154.511C204.208 155.849 205.42 157.124 206.718 158.313C206.527 159.481 205.782 160.395 204.399 160.692C203.293 160.925 202.23 160.671 201.273 160.182C201.911 158.313 202.506 156.402 203.059 154.511ZM203.421 153.152C203.74 151.963 204.059 150.773 204.357 149.584C205.314 151.857 206.186 154.235 206.633 156.635C205.506 155.531 204.442 154.363 203.421 153.152ZM203.591 143.106C203.315 142.809 203.059 142.49 202.783 142.172C203.4 140.897 203.995 139.602 204.57 138.306C204.782 138.88 204.995 139.453 205.25 140.027C205.165 140.558 205.08 141.089 204.974 141.619C204.719 142.257 204.272 142.766 203.57 143.085L203.591 143.106ZM203.527 130.278C202.91 128.6 202.294 126.944 201.677 125.287C202.357 126.136 202.996 127.029 203.697 127.878C203.995 128.239 204.421 128.005 204.548 127.644C204.91 128.069 205.25 128.494 205.633 128.919C205.782 129.917 205.846 130.915 205.952 131.935C205.144 131.404 204.357 130.851 203.549 130.299L203.527 130.278ZM196.295 98.505C199.273 104.6 201.613 110.951 203.315 117.492C202.294 114.816 201.294 112.14 200.273 109.464C200.273 109.379 200.273 109.294 200.23 109.209C200.166 109.103 200.103 108.997 200.06 108.891C198.677 105.259 197.316 101.648 195.933 98.0165C196.061 98.1864 196.189 98.3351 196.295 98.505ZM194.232 96.6572C194.997 98.6536 195.742 100.671 196.508 102.668C195.529 101.011 194.551 99.3545 193.551 97.7191C193.487 97.1882 193.402 96.6147 194.232 96.6572ZM193.679 100.077C194.955 102.2 196.189 104.367 197.401 106.533C196.167 105.365 194.976 104.176 193.806 102.944C193.764 101.988 193.721 101.032 193.679 100.077ZM193.891 104.792C193.891 104.792 193.891 104.685 193.891 104.643C195.593 106.385 197.359 108.084 199.188 109.719C201.102 114.753 202.996 119.786 204.91 124.798C204.995 125.308 205.101 125.818 205.186 126.328C205.08 126.413 204.995 126.476 204.889 126.561C204.421 126.009 203.931 125.478 203.485 124.926C200.379 118.193 197.231 111.439 193.913 104.792H193.891ZM200.634 121.358C200.315 120.954 200.017 120.572 199.698 120.168C198.996 118.342 198.273 116.537 197.55 114.71C197.55 114.753 197.593 114.795 197.614 114.838C198.635 117.004 199.635 119.17 200.634 121.337V121.358ZM180.873 106.236C185.298 114.052 189.679 121.889 194.061 129.726C194.061 130.172 194.104 130.639 194.125 131.085C188.765 123.354 184.298 115.007 180.873 106.236ZM194.125 109.91C194.125 109.507 194.083 109.103 194.061 108.7C195.231 111.546 196.38 114.37 197.486 117.237C197.21 116.876 196.954 116.494 196.678 116.133C195.806 114.073 194.955 111.992 194.104 109.931L194.125 109.91ZM194.976 128.982C194.785 124.437 194.572 119.892 194.359 115.326C194.529 115.56 194.678 115.814 194.848 116.048C195.359 116.813 195.933 117.535 196.465 118.278C196.699 118.852 196.933 119.425 197.167 119.977C198.422 122.951 199.741 125.903 201.294 128.728C200.719 128.473 200.209 129.28 200.634 129.768C201.421 130.639 202.208 131.489 203.017 132.317C202.081 134.165 201.273 136.076 200.507 137.988C199.826 136.225 198.571 133.549 197.146 132.763C196.423 131.489 195.699 130.214 194.976 128.961V128.982ZM195.189 157.039C195.189 157.039 195.189 157.145 195.189 157.209C195.253 158.887 195.338 160.564 195.402 162.264C194.785 163.325 194.104 164.366 193.445 165.428C193.742 162.582 194.466 159.757 195.189 157.06V157.039ZM191.339 166.979C190.658 165.789 189.999 164.579 189.339 163.368C190.36 162.072 191.381 160.756 192.338 159.418C191.339 161.796 190.977 164.387 191.317 166.979H191.339ZM188.892 162.561C184.447 154.15 180.809 145.336 178.001 136.246C182.681 141.662 187.382 147.057 192.083 152.451C192.828 153.301 193.551 154.15 194.295 155C192.594 157.591 190.786 160.118 188.892 162.561ZM193.955 171.396C193.764 171.099 193.593 170.801 193.423 170.504C193.317 169.612 193.274 168.72 193.296 167.828C194.061 166.66 194.785 165.492 195.487 164.302L195.55 165.938C195.614 167.424 195.933 170.908 193.955 171.396ZM196.018 152.111C195.87 148.819 195.721 145.527 195.572 142.235C195.87 142.958 196.167 143.658 196.486 144.359C196.869 145.188 197.295 145.995 197.72 146.802C197.38 148.161 197.103 149.542 196.848 150.922C196.657 151.262 196.423 151.58 196.231 151.92C196.167 151.984 196.082 152.048 195.997 152.111H196.018ZM196.55 172.076C198.146 168.55 199.592 164.982 200.868 161.329C202.57 162.136 204.527 162.306 206.229 161.244C207.08 160.713 207.526 160.012 207.76 159.226C209.462 160.692 211.27 162.009 213.163 163.198C207.611 166.129 202.081 169.081 196.55 172.076ZM214.333 162.561C212.057 161.202 209.909 159.63 207.931 157.867C207.931 156.508 207.441 155.021 207.058 153.768C206.42 151.729 205.654 149.711 204.804 147.757C204.974 146.993 205.123 146.228 205.293 145.485C207.633 148.607 209.973 151.708 212.312 154.83C212.653 155.297 213.61 155.042 213.355 154.405C211.781 150.391 210.207 146.398 208.633 142.384C209.122 141.981 209.611 141.577 210.1 141.173C215.057 144.529 220.034 147.864 224.99 151.219C225.543 151.602 226.267 150.688 225.735 150.264C221.183 146.717 216.652 143.149 212.291 139.368C212.738 139.007 213.185 138.646 213.61 138.285C215.992 139.729 218.417 141.152 220.842 142.512C220.502 142.766 220.162 143.021 219.8 143.297C219.758 143.319 219.8 143.382 219.843 143.361C220.204 143.085 220.545 142.83 220.906 142.554C223.416 143.956 225.969 145.315 228.521 146.611C229.096 147.481 229.649 148.373 230.159 149.287C229.223 149.86 228.266 150.412 227.33 151.007C226.692 151.411 227.096 152.6 227.862 152.281C228.926 151.857 229.989 151.432 231.053 151.007C231.202 151.304 231.372 151.602 231.521 151.92C231.734 152.366 231.946 152.834 232.159 153.322C229.075 154.915 225.969 156.465 222.885 158.079C220.013 159.566 217.162 161.117 214.291 162.625L214.333 162.561ZM217.396 164.196C216.673 163.856 215.95 163.495 215.248 163.092C216.269 162.54 217.29 161.987 218.332 161.456C223.055 158.971 227.82 156.55 232.563 154.108C232.755 154.575 232.925 155.042 233.074 155.51C227.82 158.356 222.587 161.244 217.375 164.196H217.396ZM219.119 164.982C223.906 162.264 228.692 159.587 233.499 156.933C233.563 157.166 233.605 157.421 233.648 157.655C229.33 160.246 225.054 162.901 220.779 165.577C220.204 165.407 219.651 165.194 219.119 164.982ZM233.35 161.754C230.798 163.283 228.266 164.791 225.735 166.341C225.203 166.341 224.693 166.341 224.161 166.278C227.309 164.387 230.5 162.54 233.691 160.671C233.627 161.032 233.499 161.393 233.371 161.754H233.35ZM222.48 166.023C222.48 166.023 222.353 166.002 222.289 165.98C226.097 163.58 229.947 161.202 233.797 158.865C233.797 159.056 233.797 159.248 233.797 159.439C230.011 161.605 226.245 163.793 222.48 166.023ZM233.605 153.577C235.137 152.791 236.647 152.005 238.179 151.219C238.711 151.453 239.242 151.708 239.795 151.963C237.902 152.961 236.009 153.959 234.116 154.979C233.946 154.511 233.776 154.044 233.584 153.598L233.605 153.577ZM237.37 148.437C244.071 145.761 250.772 143.106 257.493 140.473C251.367 143.531 245.22 146.611 239.115 149.711C238.54 149.287 237.966 148.862 237.37 148.437ZM234.371 155.637C236.371 154.49 238.392 153.364 240.391 152.218C240.476 152.26 240.583 152.303 240.668 152.345C238.583 153.471 236.477 154.596 234.392 155.722C234.392 155.701 234.371 155.658 234.35 155.637H234.371ZM234.584 156.317C238.413 154.193 242.22 152.069 246.071 149.988C250.921 147.354 255.813 144.784 260.684 142.193C252.644 146.504 244.709 151.007 236.881 155.68C236.158 156.104 235.456 156.55 234.733 156.996C234.69 156.763 234.648 156.55 234.584 156.317ZM278.425 134.25C274.298 136.777 270.193 139.304 266.087 141.832C255.6 147.248 245.262 152.897 235.009 158.738C235.009 158.525 235.009 158.334 234.988 158.122C242.859 153.364 250.835 148.734 258.919 144.317C265.364 140.812 271.873 137.435 278.446 134.207L278.425 134.25ZM243.348 155.807C240.497 157.485 237.668 159.184 234.818 160.883C234.882 160.564 234.946 160.246 234.967 159.906C237.647 158.334 240.306 156.72 243.007 155.17C248.666 151.92 254.345 148.713 260.046 145.527C254.473 148.947 248.921 152.366 243.348 155.807ZM279.552 141.004C278.34 141.535 277.127 142.023 275.872 142.427C274.468 142.873 273.043 143.276 271.618 143.573C270.469 143.807 269.299 143.977 268.151 144.168C268.831 143.573 269.512 142.979 270.214 142.405C271.001 141.938 271.788 141.471 272.575 141.004C272.618 141.004 272.639 141.046 272.681 141.046C274.979 141.258 277.276 141.216 279.573 141.004H279.552ZM250.367 152.855C253.09 151.156 255.834 149.478 258.557 147.779C261.471 146.101 264.364 144.402 267.278 142.724C270.193 141.067 273.128 139.474 276.042 137.839C267.449 142.788 258.876 147.779 250.346 152.834L250.367 152.855ZM273.234 128.706C271.469 129.959 269.682 131.234 267.917 132.487C267.3 132.912 267.661 133.867 268.427 133.697C273.128 132.678 277.68 131.234 282.084 129.322C284.466 128.303 286.742 127.071 288.976 125.754C289.933 126.816 290.89 127.857 291.847 128.94C290.869 129.492 289.89 130.044 288.912 130.597C288.912 130.427 288.742 130.278 288.55 130.384C283.339 133.188 278.148 136.055 272.979 138.922C277.787 135.949 282.594 132.975 287.401 130.002C287.976 129.641 287.487 128.813 286.87 129.089C278.616 132.912 270.512 137.011 262.471 141.28C264.003 140.473 265.492 139.644 267.023 138.858C267.215 138.752 267.044 138.455 266.853 138.561C258.408 142.915 250.027 147.354 241.667 151.857C241.667 151.772 241.604 151.687 241.54 151.602C243.114 150.71 244.667 149.818 246.241 148.926C246.411 148.819 246.241 148.565 246.092 148.649C244.454 149.499 242.837 150.391 241.199 151.241C240.795 150.943 240.37 150.625 239.966 150.327C247.113 146.696 254.26 143.085 261.429 139.517C263.194 138.625 264.981 137.754 266.747 136.862C267.193 136.65 266.874 135.864 266.406 136.055C256.387 139.963 246.326 143.807 236.264 147.609L236.052 147.46C248.07 140.473 260.493 134.207 273.256 128.728L273.234 128.706ZM237.137 150.731C235.839 151.389 234.541 152.069 233.244 152.727C232.903 151.984 232.542 151.241 232.18 150.519C232.989 150.2 233.797 149.86 234.605 149.542C235.456 149.945 236.286 150.327 237.137 150.731ZM233.669 147.142C233.478 147.248 233.286 147.375 233.095 147.481C231.776 146.844 230.457 146.186 229.16 145.506C228.692 144.827 228.245 144.147 227.756 143.488C227.245 142.809 226.692 142.193 226.139 141.556C228.649 143.425 231.18 145.273 233.691 147.142H233.669ZM226.99 144.381C225.309 143.51 223.65 142.596 222.012 141.683C222.565 141.28 223.097 140.855 223.65 140.451C224.841 141.704 225.969 143 227.011 144.381H226.99ZM219.63 136.756C221.013 137.903 222.331 139.113 223.586 140.409C223.033 140.812 222.48 141.237 221.949 141.641C219.481 140.26 217.056 138.858 214.652 137.393C215.588 136.628 216.503 135.864 217.439 135.099C218.183 135.651 218.907 136.182 219.651 136.735L219.63 136.756Z" fill="black"/>
<path d="M322.031 170.823C320.883 171.205 319.734 171.609 318.607 171.991C318.564 171.991 318.585 172.076 318.607 172.055C319.755 171.672 320.904 171.269 322.031 170.886C322.074 170.886 322.053 170.802 322.031 170.823Z" fill="black"/>
<path d="M639.83 247.919C631.321 246.815 622.791 245.987 614.304 244.585C612.474 244.139 610.666 243.714 608.837 243.289C608.688 243.247 608.624 243.48 608.773 243.523C609.135 243.608 609.518 243.714 609.879 243.799C606.029 243.077 602.179 242.27 598.371 241.378C600.754 241.357 603.115 241.229 605.476 240.953C605.88 240.911 605.901 240.337 605.476 240.316C600.711 240.146 595.989 239.997 591.288 239.657C589.926 239.318 588.565 238.978 587.204 238.638C588.437 237.704 589.99 237.385 591.522 237.852C592.032 238.001 592.245 237.236 591.734 237.066C589.586 236.387 587.352 236.96 585.757 238.532C585.566 238.723 585.587 238.978 585.715 239.169C583.013 238.893 580.333 238.532 577.631 238.065C574.27 237.47 570.952 236.705 567.676 235.856C565.698 234.73 563.805 233.435 562.167 231.714C560.997 230.482 560.018 228.996 559.274 227.382C559.742 227.382 560.21 227.424 560.678 227.424C560.933 227.424 560.912 227.063 560.678 227.042C560.125 226.999 559.593 226.936 559.04 226.872C557.785 223.813 557.551 220.352 559.125 217.378C559.21 217.229 558.976 217.102 558.891 217.251C557.147 220.224 557.062 223.622 558.04 226.766C557.147 226.681 556.232 226.596 555.339 226.489C555.296 226.298 555.19 226.128 554.977 225.959C554.722 225.767 554.488 226.15 554.658 226.362V226.405C551.893 226.065 549.127 225.597 546.383 225.109C545.001 224.663 543.554 224.344 542.15 223.941C540.172 223.367 538.172 222.815 536.194 222.242C532.067 221.052 527.962 219.757 523.878 218.419C523.133 218.164 522.389 217.888 521.644 217.633C519.666 216.783 517.709 215.913 515.752 214.999C517.348 214.362 519.049 214.575 520.474 215.679C520.602 215.785 520.772 215.552 520.645 215.467C518.943 214.044 516.582 213.768 514.561 214.638C514.391 214.702 514.348 214.893 514.391 215.042C511.264 213.874 508.158 212.642 505.095 211.368C506.031 211.559 506.967 211.877 507.839 212.302C507.988 212.366 508.137 212.153 507.967 212.068C506.669 211.41 505.329 211.07 503.946 210.879C503.755 210.794 503.563 210.709 503.351 210.624C511.647 211.622 519.921 212.875 528.153 214.362C532.918 215.233 537.662 216.189 542.384 217.187C547.192 218.228 551.978 219.651 556.828 220.352C557.104 220.394 557.402 220.054 557.125 219.821C556.253 219.098 555.317 218.759 554.232 218.865C550.361 217.718 546.319 216.996 542.406 216.167C537.577 215.148 532.727 214.256 527.877 213.449C519.39 212.047 510.86 210.964 502.287 210.157C501.521 209.838 500.756 209.52 499.99 209.18C498.352 208.458 496.735 207.693 495.119 206.929C497.097 207.311 499.075 207.63 501.053 207.821C501.394 207.863 501.415 207.353 501.138 207.268C497.225 205.952 493.14 205.06 489.099 204.146C488.418 203.849 487.759 203.552 487.078 203.276C486.844 203.191 486.695 203.382 486.695 203.573C485.951 203.403 485.206 203.233 484.462 203.042C480.888 202.171 477.336 201.237 473.783 200.323C474.825 199.835 475.804 199.155 476.591 198.263C476.846 197.966 476.804 197.329 476.336 197.265C471.784 196.628 467.38 195.757 463.105 194.355C463.232 194.292 463.36 194.249 463.466 194.185C463.7 194.058 463.53 193.654 463.296 193.761C462.977 193.888 462.637 193.994 462.296 194.079C460.488 193.463 458.68 192.741 456.915 191.913C459.297 189.938 462.36 186.115 459.382 183.63C457.681 182.207 454.703 182.207 452.597 182.016C449.746 181.761 446.811 181.697 443.982 182.143C443.599 182.207 443.62 182.717 443.875 182.886C445.215 183.757 446.832 183.948 448.364 183.481C448.555 183.417 448.47 183.141 448.278 183.184C447.215 183.439 446.279 183.332 445.407 182.908C449.236 182.823 453.043 182.823 456.808 183.672C461.977 184.84 458.042 189.747 455.49 191.488C455.149 191.722 455.064 192.295 455.49 192.529C456.893 193.23 458.34 193.888 459.808 194.483C457.319 194.653 454.788 194.079 452.682 192.741C452.299 192.423 451.895 192.125 451.469 191.87C450.937 191.552 450.257 192.338 450.767 192.762C450.81 192.784 450.852 192.826 450.895 192.847C451.682 193.336 452.363 193.931 452.937 194.61C451.15 194.1 449.363 193.548 447.577 193.017C447.109 191.892 446.811 190.702 446.704 189.47C446.704 188.855 445.747 188.855 445.747 189.47C445.875 190.49 445.662 191.467 445.237 192.295C441.897 191.297 438.536 190.299 435.218 189.237C432.112 188.26 429.006 187.24 425.922 186.221C424.093 185.605 422.263 184.947 420.434 184.331C423.731 184.734 427.028 185.796 429.964 187.028C430.134 187.092 430.24 186.816 430.091 186.731C428.007 185.839 425.879 185.095 423.688 184.501C421.349 183.885 418.987 183.609 416.626 183.141C416.094 183.035 415.669 183.821 416.222 184.076C418.753 185.201 421.476 186.03 424.093 186.922C426.858 187.856 429.623 188.791 432.389 189.704C436.345 191 440.323 192.253 444.322 193.463C444.024 193.739 443.705 193.994 443.343 194.207C433.601 190.893 423.795 187.729 414.031 184.394C403.417 180.763 392.866 176.897 382.379 172.904C381.549 172.586 380.741 172.267 379.911 171.927C390.441 170.632 399.035 162.306 405.863 154.703C405.948 154.618 405.82 154.49 405.735 154.575C398.077 161.903 389.079 170.674 377.912 171.163C377.848 171.141 377.806 171.12 377.742 171.099C383.081 168.635 388.207 165.704 392.993 162.285C393.398 161.988 393.164 161.329 392.653 161.457C388.378 162.54 384.123 163.602 379.848 164.685C385.08 161.52 390.611 158.887 396.397 156.89C396.929 156.699 396.716 155.892 396.163 156.041C389.781 157.591 383.357 159.035 376.976 160.65C377.869 160.331 378.741 159.991 379.635 159.651C379.784 159.588 379.72 159.354 379.571 159.418C376.231 160.522 372.87 161.605 369.51 162.646C369.063 162.795 369.233 163.453 369.701 163.347C376.444 161.966 383.145 160.246 389.845 158.547C385.357 160.501 381.018 162.795 376.912 165.471C376.487 165.747 376.763 166.405 377.252 166.278C381.634 165.173 385.995 164.09 390.377 162.986C385.995 165.917 381.379 168.487 376.55 170.653C374.147 169.697 371.743 168.742 369.318 167.828C367.808 167.085 366.149 166.575 364.575 166.023C362.469 165.301 360.363 164.6 358.257 163.942C354.194 162.667 350.089 161.478 345.983 160.352C337.687 158.08 329.306 155.956 320.84 154.384C320.564 154.342 320.266 154.278 319.947 154.214C319.287 153.874 318.67 153.492 317.99 153.174C315.714 149.053 313.48 144.912 311.289 140.749C311.225 140.643 311.055 140.749 311.119 140.855C313.012 144.848 314.99 148.82 317.032 152.749C315.862 152.239 314.671 151.772 313.438 151.368C312.927 151.198 312.672 151.92 313.097 152.197C314.267 152.961 315.501 153.641 316.713 154.342C316.564 154.427 316.416 154.533 316.288 154.66C315.607 155.34 315.458 156.381 316.139 157.081C316.224 157.166 316.33 157.039 316.267 156.954C315.352 155.85 316.309 155 317.309 154.682C317.692 154.894 318.053 155.128 318.436 155.34C318.67 155.765 318.904 156.189 319.138 156.635C318.692 156.72 318.628 157.336 319.074 157.485C319.287 157.57 319.5 157.634 319.713 157.719C320.478 159.142 321.244 160.586 322.031 162.009C320.712 161.839 319.415 161.627 318.096 161.372C315.65 156.89 313.076 152.473 310.396 148.119C310.353 148.034 310.225 148.119 310.268 148.204C312.757 152.515 315.161 156.869 317.479 161.287C317.458 161.287 317.415 161.287 317.394 161.287C315.714 160.947 314.076 160.543 312.416 160.097C308.29 151.368 302.802 143.276 296.122 136.246C295.974 136.098 295.761 136.31 295.91 136.459C302.227 143.425 307.439 151.326 311.374 159.821C309.375 159.248 307.396 158.632 305.418 157.952C304.376 155.828 303.312 153.726 302.206 151.623C299.675 146.802 297.058 142.044 294.293 137.33C294.038 136.905 293.378 137.181 293.506 137.669C295.952 147.036 300.079 155.892 305.61 163.772C308.29 170.249 311.374 176.557 314.799 182.653C317.288 193.994 320.159 205.272 323.414 216.444C323.371 216.401 323.329 216.359 323.308 216.316C323.052 216.061 322.499 216.146 322.435 216.55C320.5 227.764 321.691 239.36 326.052 249.873C326.264 250.404 326.924 250.404 327.136 249.873C328.711 245.923 328.838 241.442 327.902 237.321C327.86 237.13 327.562 237.215 327.604 237.406C328.243 241.102 327.796 244.649 326.605 248.11C322.946 238.489 321.776 228.082 323.286 217.888C323.563 218.185 323.839 218.482 324.095 218.801C325.647 224.068 327.285 229.335 328.987 234.56C329.179 235.155 330.051 235.049 330.072 234.412C330.178 232.351 330.008 230.334 329.604 228.358C329.732 228.762 329.902 229.166 330.029 229.569C331.923 241.038 334.007 252.464 336.39 263.848C336.773 265.675 337.134 267.501 337.496 269.349C337.474 269.307 337.453 269.264 337.432 269.222C337.347 269.052 337.113 269.222 337.198 269.37C337.411 269.838 337.602 270.305 337.794 270.772C338.325 273.342 338.9 275.912 339.644 278.397C339.793 278.864 340.474 278.673 340.367 278.206C339.687 273.915 338.517 269.668 337.602 265.42C336.687 261.151 335.794 256.903 334.922 252.613C333.539 245.88 332.263 239.127 331.008 232.373C331.05 232.5 331.093 232.627 331.157 232.755C331.242 232.946 331.497 232.882 331.455 232.67C331.221 231.204 330.902 229.739 330.582 228.295C336.453 237.194 343.303 245.519 350.854 253.102C351.79 255.884 353.705 258.156 355.917 260.11C358.725 262.617 361.873 264.783 365.021 266.843C366.893 268.075 368.829 269.2 370.807 270.284C371.126 270.496 371.403 270.751 371.722 270.963C371.892 271.091 372.062 271.091 372.232 271.027C376.614 273.363 381.145 275.381 385.825 277.038C390.079 278.524 394.419 279.714 398.822 280.627C399.12 280.691 399.247 280.245 398.95 280.181C389.76 277.972 380.89 274.51 372.615 269.965C367.744 261.555 360.214 254.907 351.28 251.084C351.131 251.02 350.961 251.02 350.833 251.084C346.323 246.539 342.048 241.76 338.07 236.684C336.198 234.284 334.411 231.82 332.667 229.314C340.963 236.833 349.153 244.479 357.278 252.167C357.831 252.677 358.618 251.891 358.108 251.339C347.579 240.167 338.091 228.104 330.306 214.872C333.837 217.845 337.602 220.521 341.601 222.858C342.027 223.091 342.495 222.624 342.261 222.199C340.452 219.035 338.517 215.955 336.517 212.897C336.581 212.897 336.645 212.897 336.709 212.897C340.218 211.983 338.198 206.992 337.432 204.869C335.709 200.005 333.858 195.205 331.901 190.426C328.562 182.334 324.839 174.391 320.819 166.618C321.861 166.469 322.882 166.278 323.903 166.002C324.031 166.044 324.158 166.087 324.286 166.108C328.902 174.264 333.773 182.271 338.878 190.129C341.729 194.547 344.6 199.007 347.812 203.148C347.961 203.339 348.323 203.276 348.429 203.063C349.004 201.768 348.685 200.345 347.515 199.516C347.366 199.41 347.174 199.644 347.323 199.771C348.025 200.366 348.28 201.215 348.046 202.023C343.197 194.292 337.9 186.837 333.093 179.064C330.497 174.879 328.009 170.632 325.541 166.384C331.859 168.168 338.262 169.718 344.707 171.014C351.578 173.478 358.597 175.474 365.766 176.855C365.936 176.897 366.021 176.621 365.851 176.579C361.001 175.241 356.194 173.796 351.429 172.203C353.173 172.501 354.896 172.841 356.64 173.117C356.938 173.159 357.066 172.734 356.768 172.671C353.279 171.991 349.791 171.248 346.323 170.462C345.558 170.186 344.792 169.931 344.026 169.655C339.325 167.934 334.794 165.938 330.263 163.857C330.561 163.857 330.859 163.878 331.157 163.857C331.603 163.857 331.816 163.304 331.518 162.986C330.902 162.306 330.263 161.69 329.604 161.053C330.029 161.202 330.476 161.329 330.902 161.478C331.689 161.839 332.454 162.2 333.241 162.54C338.985 165.11 344.92 167.595 350.961 169.442C350.748 169.442 350.684 169.803 350.918 169.825C351.982 169.973 353.045 170.122 354.088 170.356C354.577 170.462 354.726 169.803 354.279 169.634C350.365 168.104 346.43 166.639 342.495 165.131C343.494 165.45 344.473 165.747 345.473 166.065C354.3 168.826 363.128 171.587 371.998 174.179C377.018 175.644 382.017 177.195 387.122 178.405C387.676 178.533 387.888 177.747 387.378 177.556C393.44 179.637 399.524 181.718 405.586 183.8C411.521 185.839 417.435 187.878 423.391 189.853C423.625 189.938 423.71 189.577 423.497 189.492C403.119 181.379 382.251 174.285 361.363 167.552C358.385 166.596 355.385 165.641 352.407 164.685C349.45 163.75 346.451 162.582 343.388 162.009C343.069 161.903 342.835 162.412 343.154 162.561C343.175 162.561 343.197 162.561 343.218 162.582C345.579 163.665 348.153 164.366 350.62 165.195C353.279 166.065 355.917 166.957 358.555 167.828C363.766 169.57 368.978 171.29 374.168 173.053C377.465 174.179 380.784 175.304 384.081 176.43C376.402 173.903 368.574 171.736 360.831 169.4C351.982 166.724 343.175 163.942 334.348 161.202C332.986 160.777 331.646 160.352 330.285 159.927C328.732 159.184 327.179 158.42 325.647 157.634C324.541 156.805 323.414 156.062 322.244 155.34C322.584 155.425 322.903 155.51 323.244 155.574C325.562 156.104 327.902 156.657 330.2 157.23C334.667 158.335 339.134 159.481 343.579 160.692C348.025 161.924 352.45 163.219 356.853 164.557C359.129 165.258 361.426 165.959 363.702 166.66C365.17 167.106 366.659 167.658 368.148 168.041C370.573 169.124 373.041 170.122 375.508 171.099C375.487 171.099 375.444 171.12 375.423 171.141C374.955 171.333 375.253 171.991 375.657 172.012C376.402 172.055 377.146 172.076 377.891 172.055C378.529 172.31 379.188 172.564 379.826 172.841C385.08 174.943 390.356 176.982 395.674 178.936C406.288 182.865 416.967 186.603 427.751 190.023C432.729 191.594 437.749 193.081 442.79 194.44C442.748 194.44 442.705 194.483 442.641 194.504C442.514 194.547 442.578 194.738 442.684 194.695C442.833 194.653 442.982 194.589 443.109 194.525C444.067 194.78 445.024 195.077 445.981 195.311C446.151 195.354 446.236 195.099 446.066 195.035C445.279 194.759 444.513 194.525 443.726 194.249C444.109 194.058 444.471 193.803 444.79 193.527C445.492 193.739 446.215 193.973 446.917 194.185C448.576 197.584 451.895 200.238 455.596 200.918C455.979 200.982 456.34 200.748 456.362 200.345C456.362 199.113 456.149 197.902 455.702 196.777C460.254 198.072 464.807 199.346 469.38 200.557C468.55 200.557 467.721 200.408 466.912 200.132C466.7 200.069 466.636 200.366 466.827 200.451C468.189 201.003 469.678 201.173 471.103 201.003C474.868 201.98 478.633 202.957 482.441 203.849C485.163 204.486 487.929 205.187 490.694 205.824C493.247 207.12 495.906 208.267 498.48 209.435C498.65 209.52 498.841 209.584 499.011 209.668C498.969 209.668 498.926 209.668 498.905 209.668C498.735 209.668 498.756 209.902 498.905 209.923C499.203 209.966 499.501 209.987 499.798 210.03C500.288 210.242 500.798 210.476 501.287 210.688C501.202 210.837 501.202 211.049 501.394 211.155C504.989 213.109 509.009 214.49 512.838 215.955C516.901 217.527 521.006 218.971 525.133 220.33C526.792 220.882 528.451 221.392 530.11 221.923C532.429 222.709 534.748 223.431 537.088 224.047C537.641 224.196 538.215 224.302 538.768 224.451C542.427 225.449 546.085 226.383 549.787 227.212C551.297 227.551 553.339 228.422 554.807 227.551C555.041 227.424 555.211 227.254 555.36 227.063C556.402 227.127 557.445 227.127 558.487 227.169C559.04 228.698 559.806 230.143 560.827 231.438C561.763 232.649 562.869 233.711 564.103 234.688C561.039 233.796 558.04 232.755 555.041 231.65C554.211 230.312 552.446 229.675 550.872 230.355C550.297 230.61 550.574 231.374 551.021 231.566C552.02 231.969 553.041 232.33 554.062 232.712C554.062 232.734 554.062 232.755 554.084 232.776C544.852 233.604 536.322 228.38 528.047 225.045C519.198 221.456 510.051 218.631 500.713 216.614C495.544 215.509 490.332 214.66 485.078 214.044C484.993 214.044 484.972 214.171 485.078 214.192C494.608 215.509 504.031 217.654 513.221 220.564C517.773 222.008 522.261 223.665 526.664 225.491C531.11 227.339 535.386 229.548 539.853 231.332C544.618 233.243 549.659 234.603 554.849 233.987C555.211 233.944 555.488 233.732 555.509 233.328C555.509 233.286 555.509 233.243 555.509 233.201C559.465 234.645 563.464 235.898 567.549 236.96C570.271 238.489 573.249 239.615 576.121 240.358C576.334 240.422 576.483 240.103 576.27 239.997C575.164 239.381 574.015 238.808 572.888 238.234C574.611 238.596 576.312 238.978 578.035 239.275C582.758 240.104 587.608 240.741 592.479 241.017C599.265 242.843 606.178 244.224 613.091 245.392C621.983 246.879 631.066 248.132 640.106 248.068C640.34 248.068 640.319 247.749 640.106 247.728L639.83 247.919ZM360.065 262.064C357.64 260.259 355.109 258.241 353.343 255.735C355.768 258.071 358.214 260.344 360.767 262.51C360.895 262.616 361.001 262.701 361.129 262.808C360.788 262.553 360.405 262.34 360.065 262.064ZM369.552 267.735C363.596 263.105 357.917 258.199 352.556 252.953C359.491 256.181 365.425 261.321 369.552 267.735ZM314.607 168.338C314.182 168.104 313.757 167.892 313.331 167.658C313.012 167.488 312.672 167.765 312.736 168.104C313.055 169.612 313.416 171.12 313.799 172.607C312.863 171.651 311.948 170.674 311.055 169.655C310.459 168.465 309.8 167.297 309.183 166.129C310.779 166.575 312.416 166.83 314.054 166.894C314.225 167.361 314.437 167.828 314.607 168.317V168.338ZM314.863 169.039C315.628 171.226 316.33 173.414 316.926 175.665C316.458 175.219 315.99 174.773 315.543 174.327C315.012 172.416 314.437 170.526 313.778 168.678C314.139 168.805 314.501 168.933 314.863 169.06V169.039ZM318.968 165.45C318.117 165.619 317.266 165.704 316.416 165.768C315.777 165.768 315.161 165.768 314.522 165.704C314.203 164.919 313.948 164.111 313.608 163.326C315.394 164.027 317.181 164.727 318.968 165.428V165.45ZM308.651 161.287C309.864 161.881 311.119 162.412 312.374 162.901C312.459 163.028 312.544 163.135 312.65 163.262C312.97 164.027 313.246 164.834 313.565 165.598C311.842 165.428 310.14 165.088 308.46 164.6C307.779 163.177 307.099 161.754 306.418 160.352C307.162 160.671 307.928 160.968 308.673 161.287H308.651ZM295.229 141.174C297.782 145.804 300.228 150.476 302.589 155.191C302.376 155.255 302.185 155.446 302.291 155.701C302.844 157.251 303.44 158.781 304.035 160.31C300.228 154.384 297.229 147.928 295.229 141.152V141.174ZM307.673 166.873C308.183 167.531 308.694 168.211 309.226 168.848C310.885 172.437 312.459 176.048 314.012 179.679C314.012 179.764 314.054 179.849 314.054 179.934C311.736 175.687 309.609 171.333 307.673 166.873ZM313.884 175.41C313.82 175.113 313.735 174.837 313.672 174.54C313.629 174.349 313.48 174.306 313.331 174.306C313.012 173.648 312.693 172.968 312.353 172.31C312.97 172.968 313.608 173.626 314.246 174.264C314.714 175.984 315.203 177.704 315.692 179.425C315.097 178.087 314.501 176.727 313.863 175.41H313.884ZM324.967 212.706C321.329 203.955 318.628 194.865 316.309 185.648C316.458 185.924 316.628 186.178 316.798 186.433C317.117 187.219 317.458 187.984 317.756 188.77C318.5 190.681 319.202 192.614 319.925 194.547C320.478 196.543 321.031 198.539 321.585 200.536C322.712 204.592 323.839 208.649 324.967 212.684V212.706ZM323.861 204.146C323.861 204.146 323.946 204.168 323.988 204.146C324.541 205.867 325.094 207.587 325.605 209.329C326.583 212.684 327.477 216.061 328.306 219.438C328.349 219.714 328.391 219.99 328.434 220.267C328.413 220.203 328.37 220.139 328.349 220.097C327.987 218.822 327.626 217.548 327.285 216.274C326.158 212.217 325.031 208.182 323.903 204.125L323.861 204.146ZM321.01 204.231C322.691 209.392 324.584 214.49 326.839 219.438C327.264 220.967 327.689 222.518 328.136 224.047C327.349 222.178 326.349 220.373 325.116 218.737C323.69 213.916 322.329 209.074 321.01 204.231ZM326.243 222.475C327.519 224.918 328.328 227.573 328.668 230.312C327.838 227.7 327.03 225.088 326.243 222.475ZM340.325 221.052C336.219 218.546 332.327 215.7 328.732 212.472C328.349 212.132 327.753 212.557 328.03 213.024C334.028 223.559 340.899 233.668 348.727 242.928C342.495 237.236 336.283 231.523 330.178 225.704C330.54 225.746 330.923 225.428 330.838 224.982C328.583 214.596 325.541 204.38 321.861 194.398C323.478 196.798 325.137 199.177 326.881 201.513C328.817 204.104 330.859 206.61 332.944 209.074C335.496 213.003 337.964 216.975 340.325 221.031V221.052ZM333.943 198.476C334.752 200.621 335.539 202.766 336.283 204.932C336.879 206.631 337.815 208.564 337.538 210.412C337.474 210.815 337.368 211.368 337.049 211.644C336.624 212.005 336.539 211.792 336.177 211.452C335.369 210.667 334.645 209.711 333.922 208.861C333.199 208.012 332.518 207.141 331.816 206.291C329.859 203.573 327.838 200.876 325.733 198.263C325.711 198.221 325.669 198.242 325.626 198.263C324.031 196.033 322.478 193.782 320.968 191.488C320.244 188.812 319.542 186.157 318.798 183.502C318.734 183.29 318.415 183.375 318.458 183.587C318.904 185.414 319.351 187.219 319.819 189.046C319.628 188.557 319.415 188.09 319.223 187.601C318.904 186.476 318.585 185.329 318.266 184.203C317.5 181.506 316.798 178.766 316.054 176.026C316.543 176.494 317.011 176.961 317.5 177.386C317.819 177.662 318.33 177.386 318.224 176.961C317.607 174.433 316.841 171.927 315.99 169.464C316.139 169.527 316.288 169.57 316.437 169.634C316.586 169.697 316.713 169.442 316.543 169.357C316.288 169.23 316.054 169.081 315.799 168.954C315.565 168.274 315.267 167.595 315.012 166.915C315.075 166.915 315.139 166.915 315.224 166.915C316.841 166.979 318.436 166.936 320.032 166.745C325.201 177.067 329.902 187.644 333.943 198.454V198.476ZM337.73 168.572C333.752 167.595 329.795 166.554 325.86 165.45C326.222 165.322 326.605 165.216 326.966 165.088C327.37 164.94 327.519 164.196 326.966 164.111C326.158 163.984 325.371 163.857 324.584 163.729C325.413 163.793 326.243 163.878 327.073 163.92C330.561 165.641 334.135 167.17 337.751 168.593L337.73 168.572ZM327.86 160.692C328.562 161.414 329.242 162.115 329.859 162.901C328.966 162.837 328.094 162.731 327.222 162.646C326.562 162.327 325.881 162.03 325.222 161.712C326.052 161.839 326.881 161.924 327.711 162.051C328.157 162.115 328.349 161.435 327.902 161.372C326.073 161.074 324.244 160.777 322.435 160.416C322.244 160.373 322.095 160.48 321.989 160.586C321.542 159.8 321.074 158.993 320.627 158.186C323.031 159.035 325.435 159.864 327.86 160.671V160.692ZM448.385 194.886C448.512 194.929 448.619 194.971 448.746 194.993C450.512 195.523 452.299 196.033 454.064 196.543C454.554 197.541 454.851 198.624 454.958 199.75C452.171 199.028 449.853 197.244 448.385 194.886ZM467.699 198.858C463.339 197.69 458.999 196.458 454.66 195.226C454.596 195.141 454.554 195.035 454.49 194.95C456.638 195.672 458.957 195.778 461.148 195.162C465.572 196.862 470.231 198.051 474.889 198.412C474.187 199.134 473.379 199.686 472.486 200.09C470.89 199.686 469.295 199.283 467.699 198.879V198.858Z" fill="black"/>
<path d="M556.615 218.227C552.489 215.084 547.575 213.003 542.661 211.388C537.705 209.774 532.6 208.861 527.431 208.542C527.282 208.542 527.303 208.734 527.431 208.755C532.536 209.328 537.598 210.475 542.47 212.153C547.341 213.81 551.872 216.21 556.488 218.482C556.658 218.567 556.764 218.355 556.636 218.249L556.615 218.227Z" fill="black"/>
<path d="M413.521 152.281C410.16 155.191 406.799 158.164 403.502 161.159C404.693 159.885 405.884 158.589 407.075 157.315C407.161 157.23 407.033 157.081 406.927 157.166C402.587 161.541 398.226 165.853 393.844 170.185C393.44 170.589 394.057 171.205 394.483 170.823C401.077 164.918 407.48 158.738 413.712 152.472C413.84 152.345 413.648 152.133 413.499 152.26L413.521 152.281Z" fill="black"/>
<path d="M407.99 167.149C407.948 168.657 407.905 170.78 406.352 171.588C406.012 171.779 405.565 171.864 405.14 171.842C405.629 170.526 406.076 169.209 406.544 167.871C407.437 165.237 408.331 162.604 409.181 159.949C409.309 159.566 408.777 159.269 408.522 159.566C407.033 161.202 405.863 163.198 404.906 165.173C404.438 166.15 404.055 167.149 403.736 168.189C403.438 169.103 403.055 170.186 403.332 171.142C403.481 171.715 403.842 172.076 404.289 172.288C403.991 173.414 403.736 174.54 403.374 175.644C403.332 175.772 403.523 175.814 403.566 175.687C403.97 174.582 404.438 173.541 404.885 172.458C405.48 172.565 406.161 172.458 406.693 172.14C408.437 171.163 408.352 168.848 408.224 167.127C408.224 166.979 407.99 166.979 407.99 167.127V167.149ZM404.374 171.63C403.523 171.057 403.842 169.803 404.034 168.975C404.417 167.319 405.055 165.726 405.884 164.239C406.416 163.262 407.097 162.37 407.82 161.542C407.118 163.581 406.416 165.619 405.735 167.68C405.31 168.975 404.863 170.271 404.48 171.566C404.48 171.609 404.48 171.63 404.459 171.672C404.438 171.672 404.417 171.672 404.395 171.651L404.374 171.63Z" fill="black"/>
<path d="M418.499 182.186C413.138 180.72 409.096 175.347 409.224 169.782C409.224 169.655 409.054 169.676 409.033 169.782C408.714 175.559 412.798 181.039 418.435 182.355C418.541 182.377 418.605 182.207 418.477 182.186H418.499Z" fill="black"/>
</g>
<defs>
<clipPath id="clip0_7278_756">
<rect width="640" height="298" fill="white"/>
</clipPath>
</defs>
</svg>
